# vtk DataFile Version 2.0
Induction_Arrow_Iter9_PE4
ASCII
DATASET UNSTRUCTURED_GRID
POINTS 46 float
  -2.052000e+03    1.667000e+03   -4.526633e+02
  -1.265000e+03    2.333000e+03   -4.555885e+02
  -9.840000e+02    2.568000e+03   -4.612271e+02
   1.700000e+03   -1.757000e+03   -5.237752e+02
  -1.152000e+03    1.382000e+03   -4.549280e+02
   3.187000e+03    1.067000e+03   -8.370176e+02
   4.716000e+03    9.370000e+02   -8.015281e+02
  -1.855000e+03    5.260000e+02   -5.147377e+02
  -1.420000e+02   -1.905000e+03   -4.746368e+02
  -5.800000e+01    1.069000e+03   -4.555494e+02
  -2.802000e+03    3.302000e+03   -4.314337e+02
  -5.640000e+03   -1.532000e+03   -4.911771e+02
  -8.030000e+02   -5.610000e+02   -5.280929e+02
   1.008000e+03    4.130000e+02   -5.983358e+02
   1.960000e+02    2.246000e+03   -5.219413e+02
  -3.457000e+03    8.320000e+02   -4.470735e+02
   5.640000e+03    2.452000e+03   -7.393049e+02
  -1.334000e+03    3.332000e+03   -4.456136e+02
   1.244000e+03    1.880000e+03   -6.331107e+02
  -2.680000e+02    2.144000e+03   -4.891390e+02
  -4.063000e+03    6.620000e+02   -4.746103e+02
  -1.258000e+03    6.330000e+02   -4.856841e+02
  -2.141000e+03    3.194000e+03   -4.348461e+02
  -3.469000e+03   -3.059000e+03   -6.067613e+02
  -1.604000e+03   -2.570000e+02   -5.141257e+02
  -1.454000e+03    2.220000e+02   -5.386025e+02
   1.864000e+03    1.270000e+02   -7.404291e+02
   2.449000e+03    5.590000e+02   -7.805292e+02
  -1.834000e+03   -1.554000e+03   -6.273074e+02
   1.807000e+03    2.297000e+03   -6.825557e+02
  -2.560000e+03   -1.783000e+03   -6.131337e+02
  -2.741000e+03   -5.010000e+02   -5.080000e+02
   2.884000e+03   -2.179000e+03   -5.274708e+02
  -6.120000e+02   -8.960000e+02   -5.895389e+02
  -1.985000e+03   -2.653000e+03   -5.598834e+02
  -3.390000e+03   -4.000000e+02   -4.982361e+02
   1.586000e+03    1.342000e+03   -6.618442e+02
   1.047000e+03    2.401000e+03   -5.426792e+02
   8.380000e+02   -1.300000e+03   -4.783644e+02
   2.569000e+03    2.441000e+03   -6.035668e+02
  -2.028000e+03    2.833000e+03   -4.322286e+02
  -1.086000e+03    1.998000e+03   -4.563301e+02
   1.514000e+03   -3.332000e+03   -5.646205e+02
   7.040000e+02    1.116000e+03   -5.365099e+02
   1.990000e+03    6.360000e+02   -7.085272e+02
   3.722000e+03   -1.700000e+02   -6.745213e+02
CELLS 46 92
1 0
1 1
1 2
1 3
1 4
1 5
1 6
1 7
1 8
1 9
1 10
1 11
1 12
1 13
1 14
1 15
1 16
1 17
1 18
1 19
1 20
1 21
1 22
1 23
1 24
1 25
1 26
1 27
1 28
1 29
1 30
1 31
1 32
1 33
1 34
1 35
1 36
1 37
1 38
1 39
1 40
1 41
1 42
1 43
1 44
1 45
CELL_TYPES 46
1
1
1
1
1
1
1
1
1
1
1
1
1
1
1
1
1
1
1
1
1
1
1
1
1
1
1
1
1
1
1
1
1
1
1
1
1
1
1
1
1
1
1
1
1
1
POINT_DATA 46
VECTORS Real_Arrow_6.309500e+00(Hz) float
  -1.075396e-01  -7.510719e-02   0.000000e+00
  -1.446792e-01   9.748684e-02   0.000000e+00
   0.000000e+00   0.000000e+00   0.000000e+00
  -8.829542e-03  -4.870410e-01   0.000000e+00
  -1.519149e-01  -8.267963e-02   0.000000e+00
  -5.463581e-02  -3.013142e-02   0.000000e+00
   7.952655e-02  -1.392953e-01   0.000000e+00
  -1.518831e-01   8.440531e-02   0.000000e+00
   2.066762e-01  -1.732183e-01   0.000000e+00
  -1.652245e-01  -6.602841e-02   0.000000e+00
  -1.757295e-01   9.733189e-02   0.000000e+00
  -2.094150e-01   2.542046e-02   0.000000e+00
   0.000000e+00   0.000000e+00   0.000000e+00
  -3.091150e-01  -6.741914e-02   0.000000e+00
  -7.702497e-02   4.642593e-02   0.000000e+00
   0.000000e+00   0.000000e+00   0.000000e+00
  -5.237398e-02  -7.139518e-02   0.000000e+00
   0.000000e+00   0.000000e+00   0.000000e+00
   3.325487e-03  -3.358211e-02   0.000000e+00
  -3.859831e-02   3.928684e-02   0.000000e+00
   0.000000e+00   0.000000e+00   0.000000e+00
  -2.012080e-01  -5.808656e-02   0.000000e+00
  -9.593027e-02   8.492774e-02   0.000000e+00
  -1.674860e-01  -1.207558e-01   0.000000e+00
   0.000000e+00   0.000000e+00   0.000000e+00
  -1.361463e-01   2.101351e-02   0.000000e+00
  -1.233929e-01  -1.441299e-01   0.000000e+00
  -7.444603e-02  -7.114526e-02   0.000000e+00
  -7.021876e-02  -1.140001e-02   0.000000e+00
  -3.330809e-02  -8.411894e-02   0.000000e+00
   0.000000e+00   0.000000e+00   0.000000e+00
  -2.554739e-01  -3.013934e-02   0.000000e+00
   1.773941e-01   8.085187e-02   0.000000e+00
   1.445434e-01   8.716493e-02   0.000000e+00
  -1.467512e-02  -1.002505e-01   0.000000e+00
  -3.158949e-01  -1.835125e-01   0.000000e+00
   0.000000e+00   0.000000e+00   0.000000e+00
  -1.291488e-01   4.425289e-02   0.000000e+00
  -2.064149e-01  -4.167224e-01   0.000000e+00
  -9.935462e-02   3.533800e-01   0.000000e+00
  -8.227448e-02   5.358668e-03   0.000000e+00
  -1.142338e-01   2.584674e-02   0.000000e+00
   1.787372e-03   4.020077e-02   0.000000e+00
  -2.253852e-01  -6.194294e-02   0.000000e+00
  -1.476720e-01  -4.414420e-04   0.000000e+00
   7.756626e-02  -1.522720e-01   0.000000e+00
VECTORS Imag_Arrow_6.309500e+00(Hz) float
  -7.368725e-02   3.032671e-02   0.000000e+00
  -7.007931e-02  -3.473635e-02   0.000000e+00
   0.000000e+00   0.000000e+00   0.000000e+00
  -4.056312e-02  -5.197748e-02   0.000000e+00
  -7.827774e-02   2.755298e-02   0.000000e+00
   1.127060e-02  -6.106310e-02   0.000000e+00
   1.249717e-02  -2.248310e-02   0.000000e+00
  -9.330003e-02  -6.474144e-02   0.000000e+00
  -1.071045e-01  -1.053843e-02   0.000000e+00
  -8.985561e-02  -1.831032e-02   0.000000e+00
  -5.883388e-02   3.335276e-02   0.000000e+00
  -1.385130e-01  -9.822392e-02   0.000000e+00
   0.000000e+00   0.000000e+00   0.000000e+00
  -1.606380e-02  -9.795737e-02   0.000000e+00
  -9.869567e-02  -3.642653e-03   0.000000e+00
   0.000000e+00   0.000000e+00   0.000000e+00
   7.686477e-02   5.799362e-02   0.000000e+00
   0.000000e+00   0.000000e+00   0.000000e+00
  -1.465020e-01   2.039339e-02   0.000000e+00
  -1.141668e-01  -3.139188e-03   0.000000e+00
   0.000000e+00   0.000000e+00   0.000000e+00
  -7.812179e-02  -1.188339e-02   0.000000e+00
  -5.951252e-02   1.706642e-02   0.000000e+00
  -8.778090e-02  -2.351845e-03   0.000000e+00
   0.000000e+00   0.000000e+00   0.000000e+00
  -8.720767e-02  -4.157279e-02   0.000000e+00
  -1.683129e-02  -9.971141e-02   0.000000e+00
  -8.269824e-03  -1.038319e-01   0.000000e+00
  -6.623460e-02  -5.240963e-02   0.000000e+00
  -8.386049e-02  -6.764073e-03   0.000000e+00
   0.000000e+00   0.000000e+00   0.000000e+00
  -4.944632e-02  -4.949849e-02   0.000000e+00
  -9.578650e-03  -5.944271e-02   0.000000e+00
  -1.328381e-01  -1.622914e-01   0.000000e+00
  -7.561202e-02   1.738756e-02   0.000000e+00
  -3.560085e-02   1.953818e-02   0.000000e+00
   0.000000e+00   0.000000e+00   0.000000e+00
  -8.389705e-02  -3.684086e-02   0.000000e+00
   2.108843e-03  -4.078612e-02   0.000000e+00
  -9.540876e-02   8.863703e-02   0.000000e+00
  -6.115625e-02   6.241961e-02   0.000000e+00
  -8.884779e-02  -6.161741e-04   0.000000e+00
   3.315513e-02  -3.507526e-02   0.000000e+00
  -6.664817e-02  -1.669716e-02   0.000000e+00
  -1.742424e-03  -1.579722e-01   0.000000e+00
  -1.121994e-02  -8.865996e-02   0.000000e+00
VECTORS Real_Arrow_1.000000e+01(Hz) float
  -6.769007e-02  -9.584632e-02   0.000000e+00
  -1.038951e-01   9.501485e-02   0.000000e+00
   0.000000e+00   0.000000e+00   0.000000e+00
   1.052617e-02  -4.600838e-01   0.000000e+00
  -1.116551e-01  -1.025019e-01   0.000000e+00
  -5.785882e-02  -7.683668e-03   0.000000e+00
   7.693778e-02  -1.355004e-01   0.000000e+00
  -9.887164e-02   1.093993e-01   0.000000e+00
   2.550795e-01  -1.674749e-01   0.000000e+00
  -1.226937e-01  -6.663019e-02   0.000000e+00
  -1.555496e-01   6.910426e-02   0.000000e+00
  -1.411528e-01   6.491511e-02   0.000000e+00
   0.000000e+00   0.000000e+00   0.000000e+00
  -3.006552e-01  -2.855546e-02   0.000000e+00
   0.000000e+00   0.000000e+00   0.000000e+00
  -9.042692e-02   2.762658e-02   0.000000e+00
  -8.213254e-02  -9.830518e-02   0.000000e+00
   3.245955e-02   5.165057e-02   0.000000e+00
   7.044628e-02  -4.570459e-02   0.000000e+00
   1.451819e-02   2.719983e-02   0.000000e+00
   0.000000e+00   0.000000e+00   0.000000e+00
  -1.604610e-01  -5.751812e-02   0.000000e+00
  -7.226742e-02   5.876399e-02   0.000000e+00
  -1.161248e-01  -1.169589e-01   0.000000e+00
   0.000000e+00   0.000000e+00   0.000000e+00
  -8.862781e-02   3.841399e-02   0.000000e+00
  -1.147787e-01  -1.040881e-01   0.000000e+00
  -6.879017e-02  -3.053244e-02   0.000000e+00
  -3.499885e-02   1.256258e-02   0.000000e+00
   0.000000e+00   0.000000e+00   0.000000e+00
   0.000000e+00   0.000000e+00   0.000000e+00
  -2.252716e-01  -2.368907e-03   0.000000e+00
   1.596367e-01   8.888074e-02   0.000000e+00
   2.124517e-01   1.605646e-01   0.000000e+00
   2.440709e-02  -1.090342e-01   0.000000e+00
  -2.999777e-01  -1.828359e-01   0.000000e+00
   0.000000e+00   0.000000e+00   0.000000e+00
  -7.952611e-02   5.459066e-02   0.000000e+00
  -2.011672e-01  -4.023871e-01   0.000000e+00
  -4.669763e-02   2.850804e-01   0.000000e+00
  -5.673952e-02  -3.258018e-02   0.000000e+00
  -6.884872e-02   1.443430e-02   0.000000e+00
  -1.893546e-02   5.321902e-02   0.000000e+00
  -1.916629e-01  -6.315065e-02   0.000000e+00
  -1.446462e-01   6.016789e-02   0.000000e+00
   9.059890e-02  -1.151067e-01   0.000000e+00
VECTORS Imag_Arrow_1.000000e+01(Hz) float
  -7.162380e-02   3.630570e-02   0.000000e+00
  -6.107569e-02  -2.776898e-02   0.000000e+00
   0.000000e+00   0.000000e+00   0.000000e+00
  -4.463178e-02  -1.000394e-01   0.000000e+00
  -9.071768e-02   3.527016e-02   0.000000e+00
  -7.869070e-03  -5.398153e-02   0.000000e+00
   8.201678e-03  -3.032693e-02   0.000000e+00
  -9.995609e-02  -3.547095e-02   0.000000e+00
  -7.225533e-02  -3.576694e-03   0.000000e+00
  -1.207265e-01  -1.662366e-02   0.000000e+00
  -5.479918e-02   5.111784e-02   0.000000e+00
  -1.262544e-01  -5.153192e-02   0.000000e+00
   0.000000e+00   0.000000e+00   0.000000e+00
  -7.747172e-02  -1.104379e-01   0.000000e+00
   0.000000e+00   0.000000e+00   0.000000e+00
  -1.209852e-01  -4.000942e-02   0.000000e+00
   7.299990e-02   8.318907e-02   0.000000e+00
  -4.859116e-02   2.894085e-02   0.000000e+00
  -1.753136e-01   4.526836e-02   0.000000e+00
  -1.191440e-01   8.752558e-03   0.000000e+00
   0.000000e+00   0.000000e+00   0.000000e+00
  -1.011927e-01  -8.488378e-04   0.000000e+00
  -4.120851e-02   2.797696e-02   0.000000e+00
  -1.132096e-01  -1.514848e-03   0.000000e+00
   0.000000e+00   0.000000e+00   0.000000e+00
  -1.005764e-01  -1.412875e-02   0.000000e+00
  -4.652797e-02  -1.228311e-01   0.000000e+00
  -2.916801e-02  -1.154640e-01   0.000000e+00
  -6.976949e-02  -3.969435e-02   0.000000e+00
   0.000000e+00   0.000000e+00   0.000000e+00
   0.000000e+00   0.000000e+00   0.000000e+00
  -8.817073e-02  -4.377600e-02   0.000000e+00
   3.447029e-02  -3.143552e-02   0.000000e+00
  -1.066176e-01  -1.487437e-01   0.000000e+00
  -7.210389e-02   3.341603e-02   0.000000e+00
  -1.021929e-01   1.341658e-02   0.000000e+00
   0.000000e+00   0.000000e+00   0.000000e+00
  -1.068805e-01  -2.998342e-02   0.000000e+00
  -2.200716e-02  -9.890587e-02   0.000000e+00
  -1.131692e-01   1.565740e-01   0.000000e+00
  -4.678843e-02   8.045498e-02   0.000000e+00
  -9.044725e-02   1.289050e-02   0.000000e+00
   6.026349e-02  -4.956156e-03   0.000000e+00
  -1.106193e-01  -1.279693e-02   0.000000e+00
  -3.136537e-02  -1.791330e-01   0.000000e+00
  -7.760551e-03  -1.105043e-01   0.000000e+00
VECTORS Real_Arrow_1.584800e+01(Hz) float
  -3.573790e-02  -1.182816e-01   0.000000e+00
  -7.566261e-02   9.365086e-02   0.000000e+00
   0.000000e+00   0.000000e+00   0.000000e+00
   3.056909e-02  -4.116203e-01   0.000000e+00
  -7.104045e-02  -1.239663e-01   0.000000e+00
  -4.996565e-02   1.209520e-02   0.000000e+00
   7.887033e-02  -1.278699e-01   0.000000e+00
  -5.169451e-02   1.140637e-01   0.000000e+00
   2.791641e-01  -1.692446e-01   0.000000e+00
  -6.677382e-02  -6.496538e-02   0.000000e+00
  -1.434516e-01   4.174239e-02   0.000000e+00
   0.000000e+00   0.000000e+00   0.000000e+00
   0.000000e+00   0.000000e+00   0.000000e+00
  -2.615549e-01   1.804448e-02   0.000000e+00
   0.000000e+00   0.000000e+00   0.000000e+00
  -3.883960e-02   4.170421e-02   0.000000e+00
  -1.062290e-01  -1.361192e-01   0.000000e+00
   4.258290e-02   2.789110e-02   0.000000e+00
   1.489264e-01  -7.061339e-02   0.000000e+00
   6.630614e-02   1.454693e-02   0.000000e+00
  -1.213012e-01   1.868226e-02   0.000000e+00
  -1.140885e-01  -6.390665e-02   0.000000e+00
  -6.536541e-02   3.490611e-02   0.000000e+00
  -6.276627e-02  -1.156027e-01   0.000000e+00
   0.000000e+00   0.000000e+00   0.000000e+00
  -4.036041e-02   3.810677e-02   0.000000e+00
  -9.213294e-02  -5.250315e-02   0.000000e+00
  -5.250284e-02   1.561142e-02   0.000000e+00
  -7.153402e-03   2.416714e-02   0.000000e+00
   0.000000e+00   0.000000e+00   0.000000e+00
   0.000000e+00   0.000000e+00   0.000000e+00
  -1.799062e-01   1.557766e-02   0.000000e+00
   1.234490e-01   8.747188e-02   0.000000e+00
   2.581857e-01   2.228815e-01   0.000000e+00
   5.282428e-02  -1.323612e-01   0.000000e+00
  -2.486767e-01  -1.865011e-01   0.000000e+00
   0.000000e+00   0.000000e+00   0.000000e+00
  -2.027096e-02   6.452421e-02   0.000000e+00
  -1.868895e-01  -3.561839e-01   0.000000e+00
   5.108850e-03   2.076207e-01   0.000000e+00
  -4.482534e-02  -6.994238e-02   0.000000e+00
  -2.978075e-02   6.888101e-04   0.000000e+00
  -5.122533e-02   4.798545e-02   0.000000e+00
  -1.381311e-01  -6.370238e-02   0.000000e+00
  -1.269615e-01   1.318375e-01   0.000000e+00
   9.981745e-02  -6.884332e-02   0.000000e+00
VECTORS Imag_Arrow_1.584800e+01(Hz) float
  -4.979829e-02   2.785317e-02   0.000000e+00
  -3.029150e-02  -3.762441e-02   0.000000e+00
   0.000000e+00   0.000000e+00   0.000000e+00
  -4.241935e-02  -1.377454e-01   0.000000e+00
  -8.613709e-02   2.916552e-02   0.000000e+00
  -2.787769e-02  -4.191853e-02   0.000000e+00
   6.184827e-03  -4.252568e-02   0.000000e+00
  -7.870084e-02  -5.465789e-04   0.000000e+00
  -1.968584e-02   6.243662e-03   0.000000e+00
  -1.385213e-01  -2.272921e-02   0.000000e+00
  -5.586125e-02   4.914618e-02   0.000000e+00
   0.000000e+00   0.000000e+00   0.000000e+00
   0.000000e+00   0.000000e+00   0.000000e+00
  -1.397473e-01  -1.130394e-01   0.000000e+00
   0.000000e+00   0.000000e+00   0.000000e+00
  -1.403687e-01  -2.056084e-02   0.000000e+00
   6.167424e-02   9.923177e-02   0.000000e+00
  -2.065771e-02   1.242769e-02   0.000000e+00
  -1.802042e-01   6.437398e-02   0.000000e+00
  -1.046939e-01   5.335539e-03   0.000000e+00
  -1.519541e-02  -3.172487e-02   0.000000e+00
  -1.082507e-01   5.891729e-03   0.000000e+00
  -2.202749e-02   1.346159e-02   0.000000e+00
  -1.118999e-01   2.233518e-03   0.000000e+00
   0.000000e+00   0.000000e+00   0.000000e+00
  -9.129540e-02   1.924293e-02   0.000000e+00
  -7.505385e-02  -1.359107e-01   0.000000e+00
  -4.836693e-02  -1.171263e-01   0.000000e+00
  -5.863562e-02  -1.792860e-02   0.000000e+00
   0.000000e+00   0.000000e+00   0.000000e+00
   0.000000e+00   0.000000e+00   0.000000e+00
  -1.109027e-01  -2.304543e-02   0.000000e+00
   4.861589e-02  -1.662046e-02   0.000000e+00
  -4.823024e-02  -1.065353e-01   0.000000e+00
  -5.349405e-02   4.352519e-02   0.000000e+00
  -1.668901e-01   1.313010e-02   0.000000e+00
   0.000000e+00   0.000000e+00   0.000000e+00
  -1.021925e-01  -2.230373e-02   0.000000e+00
  -4.276770e-02  -1.589524e-01   0.000000e+00
  -1.063845e-01   1.873623e-01   0.000000e+00
  -2.878971e-02   7.700102e-02   0.000000e+00
  -7.244172e-02   1.216917e-02   0.000000e+00
   7.258414e-02   2.914033e-02   0.000000e+00
  -1.431773e-01  -1.672560e-02   0.000000e+00
  -6.072788e-02  -1.866827e-01   0.000000e+00
   7.745769e-03  -1.208300e-01   0.000000e+00
