# vtk DataFile Version 2.0
Induction_Arrow_Iter8_PE6
ASCII
DATASET UNSTRUCTURED_GRID
POINTS 46 float
  -2.052000e+03    1.667000e+03   -4.526633e+02
  -1.265000e+03    2.333000e+03   -4.555885e+02
  -9.840000e+02    2.568000e+03   -4.612271e+02
   1.700000e+03   -1.757000e+03   -5.237752e+02
  -1.152000e+03    1.382000e+03   -4.549280e+02
   3.187000e+03    1.067000e+03   -8.370176e+02
   4.716000e+03    9.370000e+02   -8.015281e+02
  -1.855000e+03    5.260000e+02   -5.147377e+02
  -1.420000e+02   -1.905000e+03   -4.746368e+02
  -5.800000e+01    1.069000e+03   -4.555494e+02
  -2.802000e+03    3.302000e+03   -4.314337e+02
  -5.640000e+03   -1.532000e+03   -4.911771e+02
  -8.030000e+02   -5.610000e+02   -5.280929e+02
   1.008000e+03    4.130000e+02   -5.983358e+02
   1.960000e+02    2.246000e+03   -5.219413e+02
  -3.457000e+03    8.320000e+02   -4.470735e+02
   5.640000e+03    2.452000e+03   -7.393049e+02
  -1.334000e+03    3.332000e+03   -4.456136e+02
   1.244000e+03    1.880000e+03   -6.331107e+02
  -2.680000e+02    2.144000e+03   -4.891390e+02
  -4.063000e+03    6.620000e+02   -4.746103e+02
  -1.258000e+03    6.330000e+02   -4.856841e+02
  -2.141000e+03    3.194000e+03   -4.348461e+02
  -3.469000e+03   -3.059000e+03   -6.067613e+02
  -1.604000e+03   -2.570000e+02   -5.141257e+02
  -1.454000e+03    2.220000e+02   -5.386025e+02
   1.864000e+03    1.270000e+02   -7.404291e+02
   2.449000e+03    5.590000e+02   -7.805292e+02
  -1.834000e+03   -1.554000e+03   -6.273074e+02
   1.807000e+03    2.297000e+03   -6.825557e+02
  -2.560000e+03   -1.783000e+03   -6.131337e+02
  -2.741000e+03   -5.010000e+02   -5.080000e+02
   2.884000e+03   -2.179000e+03   -5.274708e+02
  -6.120000e+02   -8.960000e+02   -5.895389e+02
  -1.985000e+03   -2.653000e+03   -5.598834e+02
  -3.390000e+03   -4.000000e+02   -4.982361e+02
   1.586000e+03    1.342000e+03   -6.618442e+02
   1.047000e+03    2.401000e+03   -5.426792e+02
   8.380000e+02   -1.300000e+03   -4.783644e+02
   2.569000e+03    2.441000e+03   -6.035668e+02
  -2.028000e+03    2.833000e+03   -4.322286e+02
  -1.086000e+03    1.998000e+03   -4.563301e+02
   1.514000e+03   -3.332000e+03   -5.646205e+02
   7.040000e+02    1.116000e+03   -5.365099e+02
   1.990000e+03    6.360000e+02   -7.085272e+02
   3.722000e+03   -1.700000e+02   -6.745213e+02
CELLS 46 92
1 0
1 1
1 2
1 3
1 4
1 5
1 6
1 7
1 8
1 9
1 10
1 11
1 12
1 13
1 14
1 15
1 16
1 17
1 18
1 19
1 20
1 21
1 22
1 23
1 24
1 25
1 26
1 27
1 28
1 29
1 30
1 31
1 32
1 33
1 34
1 35
1 36
1 37
1 38
1 39
1 40
1 41
1 42
1 43
1 44
1 45
CELL_TYPES 46
1
1
1
1
1
1
1
1
1
1
1
1
1
1
1
1
1
1
1
1
1
1
1
1
1
1
1
1
1
1
1
1
1
1
1
1
1
1
1
1
1
1
1
1
1
1
POINT_DATA 46
VECTORS Real_Arrow_1.000000e+02(Hz) float
  -5.799367e-02  -8.945475e-02   0.000000e+00
  -1.565005e-01   2.005488e-01   0.000000e+00
  -8.512552e-02   1.329852e-01   0.000000e+00
   4.777874e-02  -1.844022e-01   0.000000e+00
  -1.142714e-02  -1.147991e-01   0.000000e+00
   2.664650e-02   8.824202e-03   0.000000e+00
   5.701538e-02  -2.633971e-02   0.000000e+00
  -6.657314e-02   5.180040e-02   0.000000e+00
   0.000000e+00   0.000000e+00   0.000000e+00
   9.437793e-02  -1.827349e-02   0.000000e+00
  -5.684268e-02   4.354237e-03   0.000000e+00
  -5.786833e-02   7.820148e-03   0.000000e+00
   0.000000e+00   0.000000e+00   0.000000e+00
   5.082222e-02   1.109737e-01   0.000000e+00
   5.719635e-02   4.048014e-02   0.000000e+00
   1.431554e-01   1.388765e-02   0.000000e+00
  -1.504221e-01  -2.767157e-01   0.000000e+00
   1.390338e-02   8.331441e-02   0.000000e+00
   0.000000e+00   0.000000e+00   0.000000e+00
   9.453498e-02   3.577893e-02   0.000000e+00
  -9.945648e-02   3.646972e-02   0.000000e+00
   1.019747e-02  -5.531747e-02   0.000000e+00
  -6.278916e-02   9.549723e-02   0.000000e+00
   3.599669e-02  -1.330720e-01   0.000000e+00
   0.000000e+00   0.000000e+00   0.000000e+00
  -5.226913e-03  -7.794234e-02   0.000000e+00
   5.610388e-02   1.071303e-01   0.000000e+00
   4.231487e-02   1.253405e-01   0.000000e+00
   3.667792e-02   1.073771e-02   0.000000e+00
   9.854113e-02  -1.225083e-01   0.000000e+00
   4.060971e-02  -3.656651e-02   0.000000e+00
  -1.655766e-02  -2.240839e-02   0.000000e+00
   7.715851e-02   7.846533e-02   0.000000e+00
   1.094060e-01   1.778154e-01   0.000000e+00
   6.383885e-02  -1.578852e-01   0.000000e+00
   8.988522e-02  -1.895760e-01   0.000000e+00
   5.123567e-02   2.709508e-01   0.000000e+00
   0.000000e+00   0.000000e+00   0.000000e+00
  -1.004474e-01  -4.165493e-02   0.000000e+00
   7.324103e-02  -8.537392e-02   0.000000e+00
   0.000000e+00   0.000000e+00   0.000000e+00
  -2.044296e-02   1.099551e-02   0.000000e+00
  -1.542581e-01  -6.483443e-02   0.000000e+00
   7.032592e-02  -3.407097e-02   0.000000e+00
   5.096889e-03   3.319440e-01   0.000000e+00
   1.617453e-02   7.885997e-02   0.000000e+00
VECTORS Imag_Arrow_1.000000e+02(Hz) float
  -3.254283e-03  -5.186182e-02   0.000000e+00
   1.061410e-02  -3.444030e-02   0.000000e+00
   2.414549e-02  -9.520180e-03   0.000000e+00
  -1.171701e-02  -1.416710e-01   0.000000e+00
  -4.589390e-02  -5.108954e-02   0.000000e+00
  -3.202162e-02   2.225681e-02   0.000000e+00
   3.320716e-02  -8.449618e-02   0.000000e+00
  -3.084746e-02   2.402794e-02   0.000000e+00
   0.000000e+00   0.000000e+00   0.000000e+00
  -1.768169e-02  -3.532774e-02   0.000000e+00
  -4.469323e-02   2.699497e-02   0.000000e+00
  -1.406604e-02   8.847445e-03   0.000000e+00
   0.000000e+00   0.000000e+00   0.000000e+00
  -1.814000e-01   2.350782e-03   0.000000e+00
   1.621101e-02  -8.394654e-03   0.000000e+00
  -5.642013e-02   3.259497e-02   0.000000e+00
   2.514987e-02   4.548282e-02   0.000000e+00
   3.151701e-02  -4.920406e-02   0.000000e+00
   0.000000e+00   0.000000e+00   0.000000e+00
   1.214205e-02  -8.764513e-03   0.000000e+00
  -1.608859e-02  -1.729073e-02   0.000000e+00
  -2.044329e-02  -1.816150e-02   0.000000e+00
   8.690490e-03  -4.351301e-02   0.000000e+00
  -6.310763e-02   6.658928e-03   0.000000e+00
   0.000000e+00   0.000000e+00   0.000000e+00
   5.116538e-03   2.534875e-02   0.000000e+00
  -9.117450e-02  -6.379040e-02   0.000000e+00
  -3.641277e-02  -4.203800e-02   0.000000e+00
  -2.417826e-02   1.344086e-02   0.000000e+00
   2.270621e-02  -6.901362e-03   0.000000e+00
  -2.227779e-02   2.226451e-02   0.000000e+00
  -8.888984e-02   1.192735e-02   0.000000e+00
   9.884713e-03   1.236112e-02   0.000000e+00
   1.367490e-01   1.284125e-01   0.000000e+00
   2.224340e-02  -6.303917e-02   0.000000e+00
  -1.459226e-01  -2.400258e-02   0.000000e+00
  -3.823035e-02   8.819809e-02   0.000000e+00
   0.000000e+00   0.000000e+00   0.000000e+00
  -7.726701e-02  -1.448352e-01   0.000000e+00
  -4.652395e-02   1.519310e-01   0.000000e+00
   0.000000e+00   0.000000e+00   0.000000e+00
  -2.477480e-02   7.537353e-03   0.000000e+00
   1.693655e-02   4.930880e-02   0.000000e+00
  -9.317506e-02  -3.842522e-02   0.000000e+00
  -8.292324e-02  -5.404230e-02   0.000000e+00
   5.778069e-02  -7.562348e-02   0.000000e+00
VECTORS Real_Arrow_1.584800e+02(Hz) float
  -5.412687e-02  -6.745648e-02   0.000000e+00
  -1.558171e-01   2.078431e-01   0.000000e+00
  -9.318691e-02   1.298694e-01   0.000000e+00
   5.083517e-02  -1.472045e-01   0.000000e+00
   4.589718e-03  -9.160369e-02   0.000000e+00
   3.387634e-02  -4.309989e-03   0.000000e+00
   4.155391e-02   8.290973e-03   0.000000e+00
  -4.951889e-02   5.165538e-02   0.000000e+00
   0.000000e+00   0.000000e+00   0.000000e+00
   8.009970e-02  -6.059744e-03   0.000000e+00
  -4.823220e-02  -3.595958e-03   0.000000e+00
  -6.002286e-02   6.965498e-03   0.000000e+00
   0.000000e+00   0.000000e+00   0.000000e+00
   1.047961e-01   9.613678e-02   0.000000e+00
   4.463350e-02   4.168098e-02   0.000000e+00
   1.483163e-01  -1.456498e-03   0.000000e+00
  -1.578428e-01  -2.864816e-01   0.000000e+00
  -2.532200e-03   1.074501e-01   0.000000e+00
   0.000000e+00   0.000000e+00   0.000000e+00
   8.010652e-02   3.592864e-02   0.000000e+00
  -9.490694e-02   4.082054e-02   0.000000e+00
   1.358125e-03  -4.579053e-02   0.000000e+00
  -7.123086e-02   1.120685e-01   0.000000e+00
   5.444930e-02  -1.391306e-01   0.000000e+00
   0.000000e+00   0.000000e+00   0.000000e+00
  -1.214992e-02  -7.586000e-02   0.000000e+00
   8.161319e-02   1.237924e-01   0.000000e+00
   4.946007e-02   1.330010e-01   0.000000e+00
   4.435760e-02   1.117432e-02   0.000000e+00
   7.660170e-02  -1.085191e-01   0.000000e+00
   4.239170e-02  -4.228752e-02   0.000000e+00
   1.241281e-02  -2.603509e-02   0.000000e+00
   7.657210e-02   7.302318e-02   0.000000e+00
   5.494608e-02   1.146377e-01   0.000000e+00
   5.197933e-02  -1.240367e-01   0.000000e+00
   1.179711e-01  -1.784403e-01   0.000000e+00
   4.650528e-02   2.112667e-01   0.000000e+00
   0.000000e+00   0.000000e+00   0.000000e+00
  -7.430810e-02  -1.092636e-02   0.000000e+00
   8.674349e-02  -1.225027e-01   0.000000e+00
   0.000000e+00   0.000000e+00   0.000000e+00
  -6.846392e-03   4.776065e-03   0.000000e+00
  -1.548027e-01  -8.077090e-02   0.000000e+00
   8.761766e-02  -2.149767e-02   0.000000e+00
   2.860910e-02   3.397023e-01   0.000000e+00
  -5.347117e-03   9.887474e-02   0.000000e+00
VECTORS Imag_Arrow_1.584800e+02(Hz) float
  -1.172030e-02  -5.213343e-02   0.000000e+00
  -1.853908e-02  -1.113938e-03   0.000000e+00
   1.319101e-02   1.031616e-02   0.000000e+00
  -1.735907e-02  -1.278601e-01   0.000000e+00
  -4.516704e-02  -6.241868e-02   0.000000e+00
  -1.966141e-02   2.372487e-02   0.000000e+00
   3.294776e-02  -7.238531e-02   0.000000e+00
  -5.511738e-02   3.085920e-02   0.000000e+00
   0.000000e+00   0.000000e+00   0.000000e+00
   1.398138e-02  -3.207677e-02   0.000000e+00
  -3.408076e-02   3.003231e-02   0.000000e+00
  -8.637108e-03  -2.983124e-05   0.000000e+00
   0.000000e+00   0.000000e+00   0.000000e+00
  -1.479750e-01   2.050357e-02   0.000000e+00
   2.281774e-02  -1.691660e-03   0.000000e+00
  -3.018676e-02   3.282096e-02   0.000000e+00
   1.823327e-02   1.715025e-02   0.000000e+00
   3.788708e-02  -4.585220e-02   0.000000e+00
   0.000000e+00   0.000000e+00   0.000000e+00
   1.160786e-02  -4.539062e-03   0.000000e+00
  -1.507377e-02  -1.453307e-02   0.000000e+00
   7.410016e-03  -7.793881e-03   0.000000e+00
   1.800589e-02  -3.076475e-02   0.000000e+00
  -5.646777e-02  -9.434486e-04   0.000000e+00
   0.000000e+00   0.000000e+00   0.000000e+00
   1.027177e-02  -5.732097e-03   0.000000e+00
  -8.242842e-02  -3.953452e-02   0.000000e+00
  -2.169949e-02  -2.694790e-02   0.000000e+00
  -1.351352e-02   2.722897e-02   0.000000e+00
   2.287218e-02  -1.428687e-02   0.000000e+00
  -9.317452e-03   2.113570e-02   0.000000e+00
  -6.842938e-02   7.830637e-04   0.000000e+00
   3.807479e-03   1.474960e-02   0.000000e+00
   1.266648e-01   1.470607e-01   0.000000e+00
   3.613295e-02  -7.996396e-02   0.000000e+00
  -9.375650e-02  -3.391436e-02   0.000000e+00
  -1.399342e-02   1.045295e-01   0.000000e+00
   0.000000e+00   0.000000e+00   0.000000e+00
  -8.432820e-02  -1.072878e-01   0.000000e+00
  -4.839393e-02   1.050711e-01   0.000000e+00
   0.000000e+00   0.000000e+00   0.000000e+00
  -3.045398e-02   1.878436e-02   0.000000e+00
  -1.380940e-02   3.026682e-02   0.000000e+00
  -7.064153e-02  -4.733271e-02   0.000000e+00
  -7.751585e-02  -1.035445e-02   0.000000e+00
   3.771771e-02  -5.401423e-02   0.000000e+00
VECTORS Real_Arrow_2.511800e+02(Hz) float
  -4.631435e-02  -4.937738e-02   0.000000e+00
  -1.391452e-01   1.972011e-01   0.000000e+00
  -9.674764e-02   1.196980e-01   0.000000e+00
   5.879203e-02  -1.153533e-01   0.000000e+00
   1.998029e-02  -6.431780e-02   0.000000e+00
   3.368610e-02  -1.438243e-02   0.000000e+00
   2.763251e-02   3.237617e-02   0.000000e+00
  -2.068695e-02   4.044487e-02   0.000000e+00
   0.000000e+00   0.000000e+00   0.000000e+00
   5.942301e-02   4.278363e-03   0.000000e+00
  -4.249941e-02  -1.631215e-02   0.000000e+00
  -6.052413e-02   9.558305e-03   0.000000e+00
   4.159472e-02   3.031620e-01   0.000000e+00
   1.420462e-01   7.943675e-02   0.000000e+00
   3.313403e-02   3.990488e-02   0.000000e+00
   1.494950e-01  -1.341179e-02   0.000000e+00
  -1.647139e-01  -2.862988e-01   0.000000e+00
  -2.101759e-02   1.299398e-01   0.000000e+00
   0.000000e+00   0.000000e+00   0.000000e+00
   7.120025e-02   3.619850e-02   0.000000e+00
  -9.037662e-02   4.436810e-02   0.000000e+00
  -1.303840e-02  -4.623167e-02   0.000000e+00
  -8.395771e-02   1.195854e-01   0.000000e+00
   7.125423e-02  -1.406188e-01   0.000000e+00
   0.000000e+00   0.000000e+00   0.000000e+00
  -1.874296e-02  -6.026677e-02   0.000000e+00
   1.058363e-01   1.326697e-01   0.000000e+00
   5.099558e-02   1.365877e-01   0.000000e+00
   4.597837e-02   1.510224e-03   0.000000e+00
   6.425099e-02  -9.722266e-02   0.000000e+00
   3.821996e-02  -4.767685e-02   0.000000e+00
   3.276610e-02  -2.327244e-02   0.000000e+00
   7.690738e-02   6.818241e-02   0.000000e+00
   1.314998e-02   5.328364e-02   0.000000e+00
   0.000000e+00   0.000000e+00   0.000000e+00
   1.231095e-01  -1.625132e-01   0.000000e+00
   3.503836e-02   1.620890e-01   0.000000e+00
   0.000000e+00   0.000000e+00   0.000000e+00
  -4.366855e-02   8.861536e-03   0.000000e+00
   1.032572e-01  -1.324125e-01   0.000000e+00
  -6.990464e-02  -1.859663e-01   0.000000e+00
   8.264346e-03  -8.995751e-03   0.000000e+00
  -1.408239e-01  -8.548875e-02   0.000000e+00
   9.769325e-02  -3.248831e-03   0.000000e+00
   5.281084e-02   3.302316e-01   0.000000e+00
  -8.196660e-03   1.058038e-01   0.000000e+00
VECTORS Imag_Arrow_2.511800e+02(Hz) float
  -1.514026e-02  -4.917959e-02   0.000000e+00
  -4.151554e-02   2.831147e-02   0.000000e+00
   1.402014e-03   2.384502e-02   0.000000e+00
  -2.106541e-02  -1.199098e-01   0.000000e+00
  -3.985281e-02  -6.751634e-02   0.000000e+00
  -9.956958e-03   1.966874e-02   0.000000e+00
   2.606291e-02  -4.939885e-02   0.000000e+00
  -6.561467e-02   4.283953e-02   0.000000e+00
   0.000000e+00   0.000000e+00   0.000000e+00
   2.815744e-02  -2.694609e-02   0.000000e+00
  -2.810154e-02   3.080537e-02   0.000000e+00
  -7.202834e-03  -5.951194e-03   0.000000e+00
   4.888604e-02   2.035889e-01   0.000000e+00
  -1.143698e-01   2.857631e-02   0.000000e+00
   2.576063e-02   1.983230e-03   0.000000e+00
  -1.130746e-02   2.874304e-02   0.000000e+00
   9.878071e-03  -9.328583e-03   0.000000e+00
   3.612540e-02  -3.018896e-02   0.000000e+00
   0.000000e+00   0.000000e+00   0.000000e+00
   3.467243e-03  -3.652268e-03   0.000000e+00
  -1.400424e-02  -1.259347e-02   0.000000e+00
   2.036216e-02   3.405705e-03   0.000000e+00
   1.969182e-02  -1.613898e-02   0.000000e+00
  -4.814559e-02  -1.405457e-02   0.000000e+00
   0.000000e+00   0.000000e+00   0.000000e+00
   1.343053e-02  -2.221044e-02   0.000000e+00
  -7.522669e-02  -1.255433e-02   0.000000e+00
  -1.000642e-02  -1.365010e-02   0.000000e+00
  -9.951081e-04   4.724230e-02   0.000000e+00
   1.138704e-02  -9.236144e-03   0.000000e+00
  -1.272910e-03   2.110614e-02   0.000000e+00
  -4.189189e-02  -7.965378e-03   0.000000e+00
  -8.247986e-04   1.656186e-02   0.000000e+00
   1.074941e-01   1.448955e-01   0.000000e+00
   0.000000e+00   0.000000e+00   0.000000e+00
  -6.147626e-02  -4.018252e-02   0.000000e+00
  -5.074859e-03   8.594326e-02   0.000000e+00
   0.000000e+00   0.000000e+00   0.000000e+00
  -8.796204e-02  -8.250238e-02   0.000000e+00
  -4.688372e-02   7.163675e-02   0.000000e+00
   1.883081e-02   3.284015e-02   0.000000e+00
  -2.625183e-02   2.334570e-02   0.000000e+00
  -4.128807e-02   9.690171e-03   0.000000e+00
  -5.810399e-02  -5.410992e-02   0.000000e+00
  -7.284486e-02   3.046337e-02   0.000000e+00
   1.688005e-02  -3.367656e-02   0.000000e+00
