# vtk DataFile Version 2.0
Induction_Arrow_Iter2_PE6
ASCII
DATASET UNSTRUCTURED_GRID
POINTS 46 float
  -2.052000e+03    1.667000e+03   -4.526633e+02
  -1.265000e+03    2.333000e+03   -4.555885e+02
  -9.840000e+02    2.568000e+03   -4.612271e+02
   1.700000e+03   -1.757000e+03   -5.237752e+02
  -1.152000e+03    1.382000e+03   -4.549280e+02
   3.187000e+03    1.067000e+03   -8.370176e+02
   4.716000e+03    9.370000e+02   -8.015281e+02
  -1.855000e+03    5.260000e+02   -5.147377e+02
  -1.420000e+02   -1.905000e+03   -4.746368e+02
  -5.800000e+01    1.069000e+03   -4.555494e+02
  -2.802000e+03    3.302000e+03   -4.314337e+02
  -5.640000e+03   -1.532000e+03   -4.911771e+02
  -8.030000e+02   -5.610000e+02   -5.280929e+02
   1.008000e+03    4.130000e+02   -5.983358e+02
   1.960000e+02    2.246000e+03   -5.219413e+02
  -3.457000e+03    8.320000e+02   -4.470735e+02
   5.640000e+03    2.452000e+03   -7.393049e+02
  -1.334000e+03    3.332000e+03   -4.456136e+02
   1.244000e+03    1.880000e+03   -6.331107e+02
  -2.680000e+02    2.144000e+03   -4.891390e+02
  -4.063000e+03    6.620000e+02   -4.746103e+02
  -1.258000e+03    6.330000e+02   -4.856841e+02
  -2.141000e+03    3.194000e+03   -4.348461e+02
  -3.469000e+03   -3.059000e+03   -6.067613e+02
  -1.604000e+03   -2.570000e+02   -5.141257e+02
  -1.454000e+03    2.220000e+02   -5.386025e+02
   1.864000e+03    1.270000e+02   -7.404291e+02
   2.449000e+03    5.590000e+02   -7.805292e+02
  -1.834000e+03   -1.554000e+03   -6.273074e+02
   1.807000e+03    2.297000e+03   -6.825557e+02
  -2.560000e+03   -1.783000e+03   -6.131337e+02
  -2.741000e+03   -5.010000e+02   -5.080000e+02
   2.884000e+03   -2.179000e+03   -5.274708e+02
  -6.120000e+02   -8.960000e+02   -5.895389e+02
  -1.985000e+03   -2.653000e+03   -5.598834e+02
  -3.390000e+03   -4.000000e+02   -4.982361e+02
   1.586000e+03    1.342000e+03   -6.618442e+02
   1.047000e+03    2.401000e+03   -5.426792e+02
   8.380000e+02   -1.300000e+03   -4.783644e+02
   2.569000e+03    2.441000e+03   -6.035668e+02
  -2.028000e+03    2.833000e+03   -4.322286e+02
  -1.086000e+03    1.998000e+03   -4.563301e+02
   1.514000e+03   -3.332000e+03   -5.646205e+02
   7.040000e+02    1.116000e+03   -5.365099e+02
   1.990000e+03    6.360000e+02   -7.085272e+02
   3.722000e+03   -1.700000e+02   -6.745213e+02
CELLS 46 92
1 0
1 1
1 2
1 3
1 4
1 5
1 6
1 7
1 8
1 9
1 10
1 11
1 12
1 13
1 14
1 15
1 16
1 17
1 18
1 19
1 20
1 21
1 22
1 23
1 24
1 25
1 26
1 27
1 28
1 29
1 30
1 31
1 32
1 33
1 34
1 35
1 36
1 37
1 38
1 39
1 40
1 41
1 42
1 43
1 44
1 45
CELL_TYPES 46
1
1
1
1
1
1
1
1
1
1
1
1
1
1
1
1
1
1
1
1
1
1
1
1
1
1
1
1
1
1
1
1
1
1
1
1
1
1
1
1
1
1
1
1
1
1
POINT_DATA 46
VECTORS Real_Arrow_1.000000e+02(Hz) float
  -5.905210e-02  -8.875273e-02   0.000000e+00
  -1.574991e-01   2.021885e-01   0.000000e+00
  -8.596584e-02   1.331729e-01   0.000000e+00
   4.777723e-02  -1.833049e-01   0.000000e+00
  -1.313319e-02  -1.139948e-01   0.000000e+00
   2.850817e-02   6.965148e-03   0.000000e+00
   5.619768e-02  -2.424877e-02   0.000000e+00
  -6.826670e-02   5.903205e-02   0.000000e+00
   0.000000e+00   0.000000e+00   0.000000e+00
   9.191432e-02  -1.654692e-02   0.000000e+00
  -5.326904e-02   6.193432e-03   0.000000e+00
  -5.785949e-02   8.256001e-03   0.000000e+00
   0.000000e+00   0.000000e+00   0.000000e+00
   4.789897e-02   1.105403e-01   0.000000e+00
   5.637918e-02   4.088987e-02   0.000000e+00
   1.446828e-01   1.202671e-02   0.000000e+00
  -1.495483e-01  -2.762399e-01   0.000000e+00
   1.389206e-02   8.314391e-02   0.000000e+00
   0.000000e+00   0.000000e+00   0.000000e+00
   9.400671e-02   3.662729e-02   0.000000e+00
  -1.003437e-01   4.007493e-02   0.000000e+00
   7.703234e-03  -5.506076e-02   0.000000e+00
  -6.168143e-02   9.555890e-02   0.000000e+00
   3.735084e-02  -1.354036e-01   0.000000e+00
   0.000000e+00   0.000000e+00   0.000000e+00
  -5.108197e-03  -7.289673e-02   0.000000e+00
   5.706631e-02   1.100524e-01   0.000000e+00
   4.327448e-02   1.246836e-01   0.000000e+00
   3.457771e-02   8.336678e-03   0.000000e+00
   9.812291e-02  -1.283974e-01   0.000000e+00
   4.115501e-02  -3.326379e-02   0.000000e+00
  -2.228252e-02  -2.439377e-02   0.000000e+00
   7.679854e-02   7.742317e-02   0.000000e+00
   1.072199e-01   1.743636e-01   0.000000e+00
   6.449417e-02  -1.578570e-01   0.000000e+00
   8.480275e-02  -1.940357e-01   0.000000e+00
   5.365151e-02   2.704634e-01   0.000000e+00
   0.000000e+00   0.000000e+00   0.000000e+00
  -1.032485e-01  -4.627260e-02   0.000000e+00
   7.143875e-02  -8.425728e-02   0.000000e+00
   0.000000e+00   0.000000e+00   0.000000e+00
  -2.008747e-02   1.096604e-02   0.000000e+00
  -1.535123e-01  -6.392556e-02   0.000000e+00
   6.794767e-02  -3.427433e-02   0.000000e+00
   6.504142e-03   3.316073e-01   0.000000e+00
   1.596757e-02   7.896102e-02   0.000000e+00
VECTORS Imag_Arrow_1.000000e+02(Hz) float
  -3.398801e-04  -5.004340e-02   0.000000e+00
   9.692371e-03  -3.441394e-02   0.000000e+00
   2.393231e-02  -1.013760e-02   0.000000e+00
  -1.521704e-02  -1.389384e-01   0.000000e+00
  -4.738629e-02  -5.141344e-02   0.000000e+00
  -3.103242e-02   2.125508e-02   0.000000e+00
   3.213522e-02  -8.395390e-02   0.000000e+00
  -3.063915e-02   2.489446e-02   0.000000e+00
   0.000000e+00   0.000000e+00   0.000000e+00
  -1.445230e-02  -3.640844e-02   0.000000e+00
  -4.289835e-02   2.579344e-02   0.000000e+00
  -1.476885e-02   9.146483e-03   0.000000e+00
   0.000000e+00   0.000000e+00   0.000000e+00
  -1.766689e-01   1.178672e-03   0.000000e+00
   1.516418e-02  -9.006448e-03   0.000000e+00
  -5.710162e-02   3.456821e-02   0.000000e+00
   2.523725e-02   4.538380e-02   0.000000e+00
   3.248113e-02  -4.715140e-02   0.000000e+00
   0.000000e+00   0.000000e+00   0.000000e+00
   1.020670e-02  -8.868004e-03   0.000000e+00
  -1.913639e-02  -1.859114e-02   0.000000e+00
  -2.154525e-02  -1.663027e-02   0.000000e+00
   8.080741e-03  -4.439955e-02   0.000000e+00
  -6.699560e-02   5.801622e-03   0.000000e+00
   0.000000e+00   0.000000e+00   0.000000e+00
   5.658168e-03   2.379144e-02   0.000000e+00
  -8.855461e-02  -6.366832e-02   0.000000e+00
  -3.513556e-02  -4.230494e-02   0.000000e+00
  -2.635593e-02   1.340083e-02   0.000000e+00
   1.917780e-02  -8.522856e-03   0.000000e+00
  -2.529483e-02   2.063503e-02   0.000000e+00
  -8.893751e-02   4.438942e-03   0.000000e+00
   9.587340e-03   1.330124e-02   0.000000e+00
   1.273708e-01   1.299157e-01   0.000000e+00
   2.367131e-02  -6.219411e-02   0.000000e+00
  -1.445747e-01  -2.985785e-02   0.000000e+00
  -3.423591e-02   9.268165e-02   0.000000e+00
   0.000000e+00   0.000000e+00   0.000000e+00
  -8.123193e-02  -1.420816e-01   0.000000e+00
  -4.344906e-02   1.515385e-01   0.000000e+00
   0.000000e+00   0.000000e+00   0.000000e+00
  -2.674670e-02   7.774557e-03   0.000000e+00
   1.678006e-02   4.771444e-02   0.000000e+00
  -9.252940e-02  -3.395120e-02   0.000000e+00
  -8.132107e-02  -5.416908e-02   0.000000e+00
   5.556258e-02  -7.564760e-02   0.000000e+00
VECTORS Real_Arrow_1.584800e+02(Hz) float
  -5.643146e-02  -6.763181e-02   0.000000e+00
  -1.559624e-01   2.087481e-01   0.000000e+00
  -9.401005e-02   1.298691e-01   0.000000e+00
   5.250501e-02  -1.476563e-01   0.000000e+00
   4.234499e-03  -9.058256e-02   0.000000e+00
   3.464100e-02  -5.324634e-03   0.000000e+00
   4.139914e-02   9.350465e-03   0.000000e+00
  -5.083068e-02   5.529927e-02   0.000000e+00
   0.000000e+00   0.000000e+00   0.000000e+00
   7.677598e-02  -3.370512e-03   0.000000e+00
  -4.612838e-02  -2.215885e-03   0.000000e+00
  -6.013279e-02   6.864927e-03   0.000000e+00
   0.000000e+00   0.000000e+00   0.000000e+00
   9.982552e-02   9.632200e-02   0.000000e+00
   4.474552e-02   4.211672e-02   0.000000e+00
   1.501757e-01  -4.676429e-03   0.000000e+00
  -1.570009e-01  -2.857601e-01   0.000000e+00
  -2.744671e-03   1.064777e-01   0.000000e+00
   0.000000e+00   0.000000e+00   0.000000e+00
   8.077868e-02   3.666507e-02   0.000000e+00
  -9.414613e-02   4.346096e-02   0.000000e+00
   2.760257e-04  -4.616697e-02   0.000000e+00
  -6.975856e-02   1.122710e-01   0.000000e+00
   5.694691e-02  -1.399362e-01   0.000000e+00
   0.000000e+00   0.000000e+00   0.000000e+00
  -1.368424e-02  -7.077899e-02   0.000000e+00
   8.148645e-02   1.271941e-01   0.000000e+00
   4.951144e-02   1.327740e-01   0.000000e+00
   4.273000e-02   9.207676e-03   0.000000e+00
   7.795908e-02  -1.120509e-01   0.000000e+00
   4.335614e-02  -3.864807e-02   0.000000e+00
   8.922016e-03  -2.270743e-02   0.000000e+00
   7.631289e-02   7.202347e-02   0.000000e+00
   5.793083e-02   1.117545e-01   0.000000e+00
   5.078307e-02  -1.250394e-01   0.000000e+00
   1.139482e-01  -1.792739e-01   0.000000e+00
   4.620522e-02   2.089794e-01   0.000000e+00
   0.000000e+00   0.000000e+00   0.000000e+00
  -7.439763e-02  -1.554428e-02   0.000000e+00
   8.338022e-02  -1.213041e-01   0.000000e+00
   0.000000e+00   0.000000e+00   0.000000e+00
  -4.888484e-03   4.113860e-03   0.000000e+00
  -1.543177e-01  -7.970798e-02   0.000000e+00
   8.564298e-02  -2.379067e-02   0.000000e+00
   2.911866e-02   3.396940e-01   0.000000e+00
  -4.115875e-03   9.879573e-02   0.000000e+00
VECTORS Imag_Arrow_1.584800e+02(Hz) float
  -9.900387e-03  -5.063942e-02   0.000000e+00
  -1.949686e-02  -1.361870e-04   0.000000e+00
   1.300464e-02   1.017698e-02   0.000000e+00
  -1.965698e-02  -1.258796e-01   0.000000e+00
  -4.592202e-02  -6.217485e-02   0.000000e+00
  -1.833553e-02   2.258252e-02   0.000000e+00
   3.175635e-02  -7.062385e-02   0.000000e+00
  -5.515151e-02   3.517409e-02   0.000000e+00
   0.000000e+00   0.000000e+00   0.000000e+00
   1.455418e-02  -3.232272e-02   0.000000e+00
  -3.124954e-02   3.083929e-02   0.000000e+00
  -8.954298e-03   1.611463e-05   0.000000e+00
   0.000000e+00   0.000000e+00   0.000000e+00
  -1.458936e-01   2.012715e-02   0.000000e+00
   2.134083e-02  -2.046618e-03   0.000000e+00
  -2.981157e-02   3.326028e-02   0.000000e+00
   1.861818e-02   1.704108e-02   0.000000e+00
   3.824656e-02  -4.498803e-02   0.000000e+00
   0.000000e+00   0.000000e+00   0.000000e+00
   1.001863e-02  -4.257959e-03   0.000000e+00
  -1.749733e-02  -1.410233e-02   0.000000e+00
   5.736343e-03  -7.024891e-03   0.000000e+00
   1.766016e-02  -3.120902e-02   0.000000e+00
  -5.847894e-02  -3.766204e-03   0.000000e+00
   0.000000e+00   0.000000e+00   0.000000e+00
   1.173596e-02  -4.740909e-03   0.000000e+00
  -8.034241e-02  -3.771600e-02   0.000000e+00
  -2.075621e-02  -2.671910e-02   0.000000e+00
  -1.563113e-02   2.528170e-02   0.000000e+00
   2.029342e-02  -1.746145e-02   0.000000e+00
  -1.042479e-02   2.139744e-02   0.000000e+00
  -7.185730e-02  -6.842878e-03   0.000000e+00
   3.612159e-03   1.532697e-02   0.000000e+00
   1.185147e-01   1.473415e-01   0.000000e+00
   3.827780e-02  -7.944478e-02   0.000000e+00
  -9.533982e-02  -3.857525e-02   0.000000e+00
  -1.020172e-02   1.059487e-01   0.000000e+00
   0.000000e+00   0.000000e+00   0.000000e+00
  -8.814000e-02  -1.080290e-01   0.000000e+00
  -4.637242e-02   1.051348e-01   0.000000e+00
   0.000000e+00   0.000000e+00   0.000000e+00
  -3.183677e-02   1.908685e-02   0.000000e+00
  -1.339362e-02   2.985257e-02   0.000000e+00
  -7.131823e-02  -4.457972e-02   0.000000e+00
  -7.605918e-02  -9.364534e-03   0.000000e+00
   3.616457e-02  -5.382240e-02   0.000000e+00
VECTORS Real_Arrow_2.511800e+02(Hz) float
  -4.882376e-02  -4.996938e-02   0.000000e+00
  -1.387895e-01   1.971234e-01   0.000000e+00
  -9.761332e-02   1.195167e-01   0.000000e+00
   6.078946e-02  -1.161210e-01   0.000000e+00
   1.952784e-02  -6.348910e-02   0.000000e+00
   3.345519e-02  -1.481552e-02   0.000000e+00
   2.819980e-02   3.183034e-02   0.000000e+00
  -2.201838e-02   4.064627e-02   0.000000e+00
   0.000000e+00   0.000000e+00   0.000000e+00
   5.729515e-02   6.665314e-03   0.000000e+00
  -4.205987e-02  -1.628482e-02   0.000000e+00
  -6.064615e-02   9.544580e-03   0.000000e+00
   4.882556e-02   2.972276e-01   0.000000e+00
   1.372393e-01   7.917769e-02   0.000000e+00
   3.424484e-02   4.028471e-02   0.000000e+00
   1.507032e-01  -1.622542e-02   0.000000e+00
  -1.640892e-01  -2.854997e-01   0.000000e+00
  -2.104212e-02   1.291138e-01   0.000000e+00
   0.000000e+00   0.000000e+00   0.000000e+00
   7.255325e-02   3.660227e-02   0.000000e+00
  -8.894249e-02   4.585937e-02   0.000000e+00
  -1.321214e-02  -4.654000e-02   0.000000e+00
  -8.235768e-02   1.196788e-01   0.000000e+00
   7.387073e-02  -1.390302e-01   0.000000e+00
   0.000000e+00   0.000000e+00   0.000000e+00
  -2.136134e-02  -5.687746e-02   0.000000e+00
   1.053854e-01   1.349145e-01   0.000000e+00
   5.063451e-02   1.360213e-01   0.000000e+00
   4.462689e-02   1.548990e-03   0.000000e+00
   6.640193e-02  -9.842450e-02   0.000000e+00
   3.882241e-02  -4.476408e-02   0.000000e+00
   3.258791e-02  -1.601303e-02   0.000000e+00
   7.657626e-02   6.726988e-02   0.000000e+00
   1.937425e-02   5.086573e-02   0.000000e+00
   0.000000e+00   0.000000e+00   0.000000e+00
   1.210405e-01  -1.621702e-01   0.000000e+00
   3.278338e-02   1.613282e-01   0.000000e+00
   0.000000e+00   0.000000e+00   0.000000e+00
  -4.163331e-02   7.151815e-03   0.000000e+00
   9.920350e-02  -1.313902e-01   0.000000e+00
  -6.998392e-02  -1.838721e-01   0.000000e+00
   1.060598e-02  -9.941560e-03   0.000000e+00
  -1.409364e-01  -8.474436e-02   0.000000e+00
   9.661746e-02  -5.962151e-03   0.000000e+00
   5.280624e-02   3.292421e-01   0.000000e+00
  -6.612235e-03   1.054672e-01   0.000000e+00
VECTORS Imag_Arrow_2.511800e+02(Hz) float
  -1.454623e-02  -4.816860e-02   0.000000e+00
  -4.206593e-02   2.934025e-02   0.000000e+00
   9.019016e-04   2.384710e-02   0.000000e+00
  -2.195063e-02  -1.188365e-01   0.000000e+00
  -3.951118e-02  -6.653873e-02   0.000000e+00
  -9.252881e-03   1.887641e-02   0.000000e+00
   2.529006e-02  -4.766435e-02   0.000000e+00
  -6.523322e-02   4.639917e-02   0.000000e+00
   0.000000e+00   0.000000e+00   0.000000e+00
   2.692600e-02  -2.573784e-02   0.000000e+00
  -2.506460e-02   3.221518e-02   0.000000e+00
  -7.457924e-03  -6.150603e-03   0.000000e+00
   4.932500e-02   2.041076e-01   0.000000e+00
  -1.153358e-01   2.885029e-02   0.000000e+00
   2.460502e-02   1.780757e-03   0.000000e+00
  -9.824896e-03   2.754713e-02   0.000000e+00
   1.053371e-02  -9.313451e-03   0.000000e+00
   3.611887e-02  -3.043739e-02   0.000000e+00
   0.000000e+00   0.000000e+00   0.000000e+00
   2.644402e-03  -3.082467e-03   0.000000e+00
  -1.580100e-02  -1.169876e-02   0.000000e+00
   1.898578e-02   3.475921e-03   0.000000e+00
   1.985079e-02  -1.637123e-02   0.000000e+00
  -4.842362e-02  -1.723218e-02   0.000000e+00
   0.000000e+00   0.000000e+00   0.000000e+00
   1.389190e-02  -1.962975e-02   0.000000e+00
  -7.368982e-02  -8.650938e-03   0.000000e+00
  -9.807165e-03  -1.289417e-02   0.000000e+00
  -3.669850e-03   4.435113e-02   0.000000e+00
   1.039214e-02  -1.240710e-02   0.000000e+00
  -1.003092e-03   2.324736e-02   0.000000e+00
  -4.568210e-02  -1.203173e-02   0.000000e+00
  -9.891174e-04   1.714973e-02   0.000000e+00
   1.027781e-01   1.449762e-01   0.000000e+00
   0.000000e+00   0.000000e+00   0.000000e+00
  -6.372076e-02  -4.191508e-02   0.000000e+00
  -3.401927e-03   8.468184e-02   0.000000e+00
   0.000000e+00   0.000000e+00   0.000000e+00
  -8.997052e-02  -8.423271e-02   0.000000e+00
  -4.690775e-02   7.219202e-02   0.000000e+00
   1.893242e-02   3.564324e-02   0.000000e+00
  -2.633407e-02   2.305523e-02   0.000000e+00
  -4.079504e-02   1.014615e-02   0.000000e+00
  -5.938790e-02  -5.364544e-02   0.000000e+00
  -7.169367e-02   3.242492e-02   0.000000e+00
   1.674902e-02  -3.343501e-02   0.000000e+00
