# vtk DataFile Version 2.0
Induction_Arrow_Iter6_PE7
ASCII
DATASET UNSTRUCTURED_GRID
POINTS 46 float
  -2.052000e+03    1.667000e+03   -4.526633e+02
  -1.265000e+03    2.333000e+03   -4.555885e+02
  -9.840000e+02    2.568000e+03   -4.612271e+02
   1.700000e+03   -1.757000e+03   -5.237752e+02
  -1.152000e+03    1.382000e+03   -4.549280e+02
   3.187000e+03    1.067000e+03   -8.370176e+02
   4.716000e+03    9.370000e+02   -8.015281e+02
  -1.855000e+03    5.260000e+02   -5.147377e+02
  -1.420000e+02   -1.905000e+03   -4.746368e+02
  -5.800000e+01    1.069000e+03   -4.555494e+02
  -2.802000e+03    3.302000e+03   -4.314337e+02
  -5.640000e+03   -1.532000e+03   -4.911771e+02
  -8.030000e+02   -5.610000e+02   -5.280929e+02
   1.008000e+03    4.130000e+02   -5.983358e+02
   1.960000e+02    2.246000e+03   -5.219413e+02
  -3.457000e+03    8.320000e+02   -4.470735e+02
   5.640000e+03    2.452000e+03   -7.393049e+02
  -1.334000e+03    3.332000e+03   -4.456136e+02
   1.244000e+03    1.880000e+03   -6.331107e+02
  -2.680000e+02    2.144000e+03   -4.891390e+02
  -4.063000e+03    6.620000e+02   -4.746103e+02
  -1.258000e+03    6.330000e+02   -4.856841e+02
  -2.141000e+03    3.194000e+03   -4.348461e+02
  -3.469000e+03   -3.059000e+03   -6.067613e+02
  -1.604000e+03   -2.570000e+02   -5.141257e+02
  -1.454000e+03    2.220000e+02   -5.386025e+02
   1.864000e+03    1.270000e+02   -7.404291e+02
   2.449000e+03    5.590000e+02   -7.805292e+02
  -1.834000e+03   -1.554000e+03   -6.273074e+02
   1.807000e+03    2.297000e+03   -6.825557e+02
  -2.560000e+03   -1.783000e+03   -6.131337e+02
  -2.741000e+03   -5.010000e+02   -5.080000e+02
   2.884000e+03   -2.179000e+03   -5.274708e+02
  -6.120000e+02   -8.960000e+02   -5.895389e+02
  -1.985000e+03   -2.653000e+03   -5.598834e+02
  -3.390000e+03   -4.000000e+02   -4.982361e+02
   1.586000e+03    1.342000e+03   -6.618442e+02
   1.047000e+03    2.401000e+03   -5.426792e+02
   8.380000e+02   -1.300000e+03   -4.783644e+02
   2.569000e+03    2.441000e+03   -6.035668e+02
  -2.028000e+03    2.833000e+03   -4.322286e+02
  -1.086000e+03    1.998000e+03   -4.563301e+02
   1.514000e+03   -3.332000e+03   -5.646205e+02
   7.040000e+02    1.116000e+03   -5.365099e+02
   1.990000e+03    6.360000e+02   -7.085272e+02
   3.722000e+03   -1.700000e+02   -6.745213e+02
CELLS 46 92
1 0
1 1
1 2
1 3
1 4
1 5
1 6
1 7
1 8
1 9
1 10
1 11
1 12
1 13
1 14
1 15
1 16
1 17
1 18
1 19
1 20
1 21
1 22
1 23
1 24
1 25
1 26
1 27
1 28
1 29
1 30
1 31
1 32
1 33
1 34
1 35
1 36
1 37
1 38
1 39
1 40
1 41
1 42
1 43
1 44
1 45
CELL_TYPES 46
1
1
1
1
1
1
1
1
1
1
1
1
1
1
1
1
1
1
1
1
1
1
1
1
1
1
1
1
1
1
1
1
1
1
1
1
1
1
1
1
1
1
1
1
1
1
POINT_DATA 46
VECTORS Real_Arrow_3.981000e+02(Hz) float
  -3.922728e-02  -3.300018e-02   0.000000e+00
  -1.142283e-01   1.749065e-01   0.000000e+00
  -9.480818e-02   1.070619e-01   0.000000e+00
   6.841276e-02  -8.303351e-02   0.000000e+00
   3.205622e-02  -3.617385e-02   0.000000e+00
   2.894918e-02  -1.880267e-02   0.000000e+00
   2.070862e-02   3.988255e-02   0.000000e+00
   6.033153e-03   2.242214e-02   0.000000e+00
   0.000000e+00   0.000000e+00   0.000000e+00
   4.141444e-02   1.211359e-02   0.000000e+00
  -3.677851e-02  -2.993898e-02   0.000000e+00
  -5.845414e-02   1.249301e-02   0.000000e+00
   3.406781e-02   2.262879e-01   0.000000e+00
   1.649929e-01   6.271284e-02   0.000000e+00
   2.272964e-02   3.861511e-02   0.000000e+00
   1.476638e-01  -2.228927e-02   0.000000e+00
  -1.702738e-01  -2.788373e-01   0.000000e+00
  -3.550903e-02   1.411368e-01   0.000000e+00
   2.650347e-01  -1.620079e-01   0.000000e+00
   6.958024e-02   3.845524e-02   0.000000e+00
  -8.581033e-02   4.788869e-02   0.000000e+00
  -2.489779e-02  -5.111774e-02   0.000000e+00
  -9.428072e-02   1.200809e-01   0.000000e+00
   8.562131e-02  -1.334652e-01   0.000000e+00
  -2.608938e-02  -6.539630e-02   0.000000e+00
  -2.526084e-02  -4.582222e-02   0.000000e+00
   1.299970e-01   1.301634e-01   0.000000e+00
   4.819307e-02   1.368146e-01   0.000000e+00
   4.052754e-02  -2.165979e-02   0.000000e+00
   6.280627e-02  -9.372763e-02   0.000000e+00
   3.267873e-02  -5.322587e-02   0.000000e+00
   3.860926e-02  -1.800402e-02   0.000000e+00
   7.722134e-02   6.346441e-02   0.000000e+00
  -1.622832e-02   1.448086e-03   0.000000e+00
   0.000000e+00   0.000000e+00   0.000000e+00
   1.263969e-01  -1.446622e-01   0.000000e+00
   2.688728e-02   1.442926e-01   0.000000e+00
   0.000000e+00   0.000000e+00   0.000000e+00
  -1.081127e-02   2.740829e-02   0.000000e+00
   1.181578e-01  -1.368923e-01   0.000000e+00
  -7.989897e-02  -1.943210e-01   0.000000e+00
   1.759698e-02  -2.222480e-02   0.000000e+00
  -1.165663e-01  -8.045528e-02   0.000000e+00
   1.082943e-01   1.629616e-02   0.000000e+00
   7.695303e-02   3.052303e-01   0.000000e+00
  -1.474835e-03   1.046545e-01   0.000000e+00
VECTORS Imag_Arrow_3.981000e+02(Hz) float
  -1.437977e-02  -4.470556e-02   0.000000e+00
  -5.271776e-02   4.706529e-02   0.000000e+00
  -1.147049e-02   3.230216e-02   0.000000e+00
  -2.118242e-02  -1.166901e-01   0.000000e+00
  -3.230399e-02  -6.329937e-02   0.000000e+00
  -7.193002e-03   1.381687e-02   0.000000e+00
   1.474828e-02  -2.475595e-02   0.000000e+00
  -6.489288e-02   4.974446e-02   0.000000e+00
   0.000000e+00   0.000000e+00   0.000000e+00
   3.014949e-02  -2.032932e-02   0.000000e+00
  -2.449951e-02   2.595389e-02   0.000000e+00
  -6.704783e-03  -1.020558e-02   0.000000e+00
   3.134317e-02   1.942845e-01   0.000000e+00
  -8.562401e-02   2.865496e-02   0.000000e+00
   2.536569e-02   4.045491e-03   0.000000e+00
   5.437832e-03   2.373351e-02   0.000000e+00
  -1.585712e-03  -3.395623e-02   0.000000e+00
   2.712136e-02  -4.021329e-03   0.000000e+00
   4.637461e-02  -7.922546e-03   0.000000e+00
  -8.688232e-03  -2.442900e-03   0.000000e+00
  -1.264694e-02  -1.088544e-02   0.000000e+00
   2.644172e-02   1.049447e-02   0.000000e+00
   1.407010e-02  -3.603780e-03   0.000000e+00
  -3.803423e-02  -3.014616e-02   0.000000e+00
  -4.026056e-02   2.455693e-02   0.000000e+00
   1.393569e-02  -2.728409e-02   0.000000e+00
  -6.572704e-02   1.546624e-02   0.000000e+00
  -1.507631e-03  -3.160186e-03   0.000000e+00
   9.129687e-03   6.449413e-02   0.000000e+00
  -1.459412e-03  -3.261885e-04   0.000000e+00
   2.151657e-04   2.205565e-02   0.000000e+00
  -1.269974e-02  -1.452305e-02   0.000000e+00
  -5.080652e-03   1.878996e-02   0.000000e+00
   8.562814e-02   1.295030e-01   0.000000e+00
   0.000000e+00   0.000000e+00   0.000000e+00
  -4.865631e-02  -4.035540e-02   0.000000e+00
  -1.056020e-02   6.002381e-02   0.000000e+00
   0.000000e+00   0.000000e+00   0.000000e+00
  -8.487565e-02  -6.384197e-02   0.000000e+00
  -4.240106e-02   5.898873e-02   0.000000e+00
   7.168213e-03   1.220901e-02   0.000000e+00
  -1.620041e-02   1.831595e-02   0.000000e+00
  -6.002032e-02  -6.375812e-03   0.000000e+00
  -5.462413e-02  -5.609558e-02   0.000000e+00
  -6.385075e-02   6.225961e-02   0.000000e+00
   9.268730e-03  -2.460970e-02   0.000000e+00
VECTORS Real_Arrow_6.309500e+02(Hz) float
  -3.395145e-02  -1.855711e-02   0.000000e+00
  -8.999414e-02   1.494206e-01   0.000000e+00
  -8.653141e-02   9.332927e-02   0.000000e+00
   7.690942e-02  -4.802220e-02   0.000000e+00
   4.106301e-02  -1.367989e-02   0.000000e+00
   2.556003e-02  -1.819418e-02   0.000000e+00
   2.092815e-02   3.662355e-02   0.000000e+00
   2.933832e-02   3.279427e-03   0.000000e+00
   0.000000e+00   0.000000e+00   0.000000e+00
   2.894828e-02   1.659507e-02   0.000000e+00
  -3.115192e-02  -3.958156e-02   0.000000e+00
  -5.512876e-02   1.596888e-02   0.000000e+00
   2.907382e-02   1.651443e-01   0.000000e+00
   1.785753e-01   5.020694e-02   0.000000e+00
   1.471326e-02   3.718084e-02   0.000000e+00
   1.408625e-01  -2.898540e-02   0.000000e+00
  -1.721891e-01  -2.656010e-01   0.000000e+00
  -4.343922e-02   1.364437e-01   0.000000e+00
   2.401041e-01  -1.554090e-01   0.000000e+00
   7.522130e-02   4.108658e-02   0.000000e+00
  -8.190398e-02   5.112364e-02   0.000000e+00
  -3.653238e-02  -5.758015e-02   0.000000e+00
  -9.931516e-02   1.164357e-01   0.000000e+00
   9.587977e-02  -1.174238e-01   0.000000e+00
  -1.233465e-02  -5.642704e-02   0.000000e+00
  -3.004277e-02  -3.394915e-02   0.000000e+00
   1.511360e-01   1.166534e-01   0.000000e+00
   4.130645e-02   1.364246e-01   0.000000e+00
   3.100974e-02  -5.137290e-02   0.000000e+00
   6.646687e-02  -9.593520e-02   0.000000e+00
   2.973868e-02  -5.992505e-02   0.000000e+00
   3.006508e-02  -1.130980e-02   0.000000e+00
   7.753104e-02   5.820849e-02   0.000000e+00
  -3.800611e-02  -3.927169e-02   0.000000e+00
  -6.711346e-03  -2.664780e-02   0.000000e+00
   1.342467e-01  -1.285444e-01   0.000000e+00
   3.019706e-02   1.394215e-01   0.000000e+00
   0.000000e+00   0.000000e+00   0.000000e+00
   1.881915e-02   4.247839e-02   0.000000e+00
   1.309126e-01  -1.449564e-01   0.000000e+00
  -8.078469e-02  -1.936841e-01   0.000000e+00
   2.030666e-02  -2.920171e-02   0.000000e+00
  -8.816243e-02  -7.059438e-02   0.000000e+00
   1.235452e-01   3.452477e-02   0.000000e+00
   9.518037e-02   2.720288e-01   0.000000e+00
   1.043638e-03   1.074351e-01   0.000000e+00
VECTORS Imag_Arrow_6.309500e+02(Hz) float
  -1.206512e-02  -3.771055e-02   0.000000e+00
  -5.251164e-02   5.326432e-02   0.000000e+00
  -2.242126e-02   3.752419e-02   0.000000e+00
  -1.790259e-02  -1.145495e-01   0.000000e+00
  -2.387522e-02  -5.090247e-02   0.000000e+00
  -1.242012e-02   1.142187e-02   0.000000e+00
   6.593104e-03  -9.270795e-03   0.000000e+00
  -5.955643e-02   5.155742e-02   0.000000e+00
   0.000000e+00   0.000000e+00   0.000000e+00
   2.727662e-02  -1.376610e-02   0.000000e+00
  -2.212422e-02   1.585042e-02   0.000000e+00
  -4.228956e-03  -1.457684e-02   0.000000e+00
   1.772938e-02   1.751913e-01   0.000000e+00
  -6.485736e-02   2.092410e-02   0.000000e+00
   2.341393e-02   6.810683e-03   0.000000e+00
   2.048400e-02   1.867104e-02   0.000000e+00
  -1.895018e-02  -5.866898e-02   0.000000e+00
   1.509440e-02   2.418177e-02   0.000000e+00
   4.944364e-02  -1.066371e-02   0.000000e+00
  -2.026536e-02   1.104733e-03   0.000000e+00
  -1.109735e-02  -8.994851e-03   0.000000e+00
   3.079327e-02   1.487653e-02   0.000000e+00
   4.492614e-03   5.480996e-03   0.000000e+00
  -2.626411e-02  -4.346573e-02   0.000000e+00
  -4.099120e-02  -6.783331e-04   0.000000e+00
   1.319242e-02  -2.938930e-02   0.000000e+00
  -5.133558e-02   3.885316e-02   0.000000e+00
   2.353582e-03   5.455590e-03   0.000000e+00
   1.353071e-02   7.057552e-02   0.000000e+00
  -1.114475e-02   8.796591e-03   0.000000e+00
  -3.064948e-03   2.325747e-02   0.000000e+00
   8.829033e-03  -2.066910e-02   0.000000e+00
  -1.029377e-02   2.204216e-02   0.000000e+00
   6.600147e-02   1.073218e-01   0.000000e+00
   4.991405e-02  -7.643164e-02   0.000000e+00
  -4.197828e-02  -3.581264e-02   0.000000e+00
  -2.124484e-02   5.241741e-02   0.000000e+00
   0.000000e+00   0.000000e+00   0.000000e+00
  -7.362218e-02  -4.382421e-02   0.000000e+00
  -3.537558e-02   5.566743e-02   0.000000e+00
  -7.333465e-03  -8.567304e-03   0.000000e+00
  -5.947441e-03   7.897676e-03   0.000000e+00
  -6.831378e-02  -1.537249e-02   0.000000e+00
  -5.374152e-02  -5.563179e-02   0.000000e+00
  -4.989077e-02   8.181353e-02   0.000000e+00
   1.157264e-02  -2.442190e-02   0.000000e+00
VECTORS Real_Arrow_1.000000e+03(Hz) float
  -2.971476e-02  -7.958277e-03   0.000000e+00
  -7.094076e-02   1.269972e-01   0.000000e+00
  -7.424557e-02   7.871199e-02   0.000000e+00
   8.319268e-02  -1.095230e-02   0.000000e+00
   4.644105e-02  -1.121009e-04   0.000000e+00
   2.825898e-02  -1.725162e-02   0.000000e+00
   2.260723e-02   3.143275e-02   0.000000e+00
   4.978504e-02  -1.565909e-02   0.000000e+00
   0.000000e+00   0.000000e+00   0.000000e+00
   2.061001e-02   1.830553e-02   0.000000e+00
  -2.628032e-02  -4.334049e-02   0.000000e+00
  -5.308615e-02   2.050324e-02   0.000000e+00
   2.638611e-02   1.162398e-01   0.000000e+00
   1.878486e-01   4.678172e-02   0.000000e+00
   0.000000e+00   0.000000e+00   0.000000e+00
   1.290157e-01  -3.383955e-02   0.000000e+00
  -1.660671e-01  -2.434342e-01   0.000000e+00
  -4.541483e-02   1.189417e-01   0.000000e+00
   0.000000e+00   0.000000e+00   0.000000e+00
   8.507587e-02   4.234695e-02   0.000000e+00
  -7.793738e-02   5.399439e-02   0.000000e+00
  -4.876355e-02  -6.531168e-02   0.000000e+00
  -9.823794e-02   1.103264e-01   0.000000e+00
   0.000000e+00   0.000000e+00   0.000000e+00
   6.138451e-04  -4.281158e-02   0.000000e+00
  -3.376286e-02  -2.250302e-02   0.000000e+00
   1.652743e-01   9.639798e-02   0.000000e+00
   3.300168e-02   1.359046e-01   0.000000e+00
   2.167283e-02  -7.814210e-02   0.000000e+00
   7.228800e-02  -1.027058e-01   0.000000e+00
   3.053874e-02  -6.749108e-02   0.000000e+00
   1.930396e-02  -1.896755e-03   0.000000e+00
   0.000000e+00   0.000000e+00   0.000000e+00
  -5.380231e-02  -6.901369e-02   0.000000e+00
   0.000000e+00   0.000000e+00   0.000000e+00
   1.426909e-01  -1.139081e-01   0.000000e+00
   3.928443e-02   1.291258e-01   0.000000e+00
   0.000000e+00   0.000000e+00   0.000000e+00
   0.000000e+00   0.000000e+00   0.000000e+00
   1.387732e-01  -1.540560e-01   0.000000e+00
   0.000000e+00   0.000000e+00   0.000000e+00
   0.000000e+00   0.000000e+00   0.000000e+00
  -6.140781e-02  -6.006709e-02   0.000000e+00
   1.410743e-01   5.232032e-02   0.000000e+00
   1.043568e-01   2.355569e-01   0.000000e+00
  -8.195972e-04   1.138086e-01   0.000000e+00
VECTORS Imag_Arrow_1.000000e+03(Hz) float
  -9.190898e-03  -2.901269e-02   0.000000e+00
  -4.655971e-02   5.099921e-02   0.000000e+00
  -2.892184e-02   3.999676e-02   0.000000e+00
  -1.257680e-02  -1.095727e-01   0.000000e+00
  -1.478426e-02  -3.562802e-02   0.000000e+00
  -2.233685e-02   1.491537e-02   0.000000e+00
   3.171438e-03  -2.337012e-03   0.000000e+00
  -5.050783e-02   4.946806e-02   0.000000e+00
   0.000000e+00   0.000000e+00   0.000000e+00
   2.349492e-02  -8.366394e-03   0.000000e+00
  -2.057430e-02   3.617837e-03   0.000000e+00
   2.986996e-04  -1.911402e-02   0.000000e+00
   4.890957e-03   1.561302e-01   0.000000e+00
  -5.286764e-02   1.093909e-02   0.000000e+00
   0.000000e+00   0.000000e+00   0.000000e+00
   3.265205e-02   1.327008e-02   0.000000e+00
  -4.150449e-02  -8.513781e-02   0.000000e+00
   3.288561e-03   4.626255e-02   0.000000e+00
   0.000000e+00   0.000000e+00   0.000000e+00
  -2.829553e-02   7.021672e-03   0.000000e+00
  -9.157891e-03  -6.588171e-03   0.000000e+00
   3.262534e-02   1.673277e-02   0.000000e+00
  -5.566975e-03   1.120695e-02   0.000000e+00
   0.000000e+00   0.000000e+00   0.000000e+00
  -4.000645e-02  -1.039939e-02   0.000000e+00
   1.254247e-02  -2.925929e-02   0.000000e+00
  -3.332902e-02   5.580725e-02   0.000000e+00
  -2.048878e-03   1.605468e-02   0.000000e+00
   1.093532e-02   6.684359e-02   0.000000e+00
  -1.796833e-02   1.513234e-02   0.000000e+00
  -7.987515e-03   2.437496e-02   0.000000e+00
   1.947646e-02  -2.408749e-02   0.000000e+00
   0.000000e+00   0.000000e+00   0.000000e+00
   4.746744e-02   8.241805e-02   0.000000e+00
   0.000000e+00   0.000000e+00   0.000000e+00
  -3.718965e-02  -2.742143e-02   0.000000e+00
  -2.762615e-02   5.440699e-02   0.000000e+00
   0.000000e+00   0.000000e+00   0.000000e+00
   0.000000e+00   0.000000e+00   0.000000e+00
  -2.829109e-02   5.808292e-02   0.000000e+00
   0.000000e+00   0.000000e+00   0.000000e+00
   0.000000e+00   0.000000e+00   0.000000e+00
  -6.845610e-02  -1.811133e-02   0.000000e+00
  -5.043708e-02  -5.461916e-02   0.000000e+00
  -3.690712e-02   9.119383e-02   0.000000e+00
   1.524255e-02  -2.378461e-02   0.000000e+00
