# vtk DataFile Version 2.0
Induction_Arrow_Iter3_PE1
ASCII
DATASET UNSTRUCTURED_GRID
POINTS 46 float
  -2.052000e+03    1.667000e+03   -4.526633e+02
  -1.265000e+03    2.333000e+03   -4.555885e+02
  -9.840000e+02    2.568000e+03   -4.612271e+02
   1.700000e+03   -1.757000e+03   -5.237752e+02
  -1.152000e+03    1.382000e+03   -4.549280e+02
   3.187000e+03    1.067000e+03   -8.370176e+02
   4.716000e+03    9.370000e+02   -8.015281e+02
  -1.855000e+03    5.260000e+02   -5.147377e+02
  -1.420000e+02   -1.905000e+03   -4.746368e+02
  -5.800000e+01    1.069000e+03   -4.555494e+02
  -2.802000e+03    3.302000e+03   -4.314337e+02
  -5.640000e+03   -1.532000e+03   -4.911771e+02
  -8.030000e+02   -5.610000e+02   -5.280929e+02
   1.008000e+03    4.130000e+02   -5.983358e+02
   1.960000e+02    2.246000e+03   -5.219413e+02
  -3.457000e+03    8.320000e+02   -4.470735e+02
   5.640000e+03    2.452000e+03   -7.393049e+02
  -1.334000e+03    3.332000e+03   -4.456136e+02
   1.244000e+03    1.880000e+03   -6.331107e+02
  -2.680000e+02    2.144000e+03   -4.891390e+02
  -4.063000e+03    6.620000e+02   -4.746103e+02
  -1.258000e+03    6.330000e+02   -4.856841e+02
  -2.141000e+03    3.194000e+03   -4.348461e+02
  -3.469000e+03   -3.059000e+03   -6.067613e+02
  -1.604000e+03   -2.570000e+02   -5.141257e+02
  -1.454000e+03    2.220000e+02   -5.386025e+02
   1.864000e+03    1.270000e+02   -7.404291e+02
   2.449000e+03    5.590000e+02   -7.805292e+02
  -1.834000e+03   -1.554000e+03   -6.273074e+02
   1.807000e+03    2.297000e+03   -6.825557e+02
  -2.560000e+03   -1.783000e+03   -6.131337e+02
  -2.741000e+03   -5.010000e+02   -5.080000e+02
   2.884000e+03   -2.179000e+03   -5.274708e+02
  -6.120000e+02   -8.960000e+02   -5.895389e+02
  -1.985000e+03   -2.653000e+03   -5.598834e+02
  -3.390000e+03   -4.000000e+02   -4.982361e+02
   1.586000e+03    1.342000e+03   -6.618442e+02
   1.047000e+03    2.401000e+03   -5.426792e+02
   8.380000e+02   -1.300000e+03   -4.783644e+02
   2.569000e+03    2.441000e+03   -6.035668e+02
  -2.028000e+03    2.833000e+03   -4.322286e+02
  -1.086000e+03    1.998000e+03   -4.563301e+02
   1.514000e+03   -3.332000e+03   -5.646205e+02
   7.040000e+02    1.116000e+03   -5.365099e+02
   1.990000e+03    6.360000e+02   -7.085272e+02
   3.722000e+03   -1.700000e+02   -6.745213e+02
CELLS 46 92
1 0
1 1
1 2
1 3
1 4
1 5
1 6
1 7
1 8
1 9
1 10
1 11
1 12
1 13
1 14
1 15
1 16
1 17
1 18
1 19
1 20
1 21
1 22
1 23
1 24
1 25
1 26
1 27
1 28
1 29
1 30
1 31
1 32
1 33
1 34
1 35
1 36
1 37
1 38
1 39
1 40
1 41
1 42
1 43
1 44
1 45
CELL_TYPES 46
1
1
1
1
1
1
1
1
1
1
1
1
1
1
1
1
1
1
1
1
1
1
1
1
1
1
1
1
1
1
1
1
1
1
1
1
1
1
1
1
1
1
1
1
1
1
POINT_DATA 46
VECTORS Real_Arrow_3.981000e-01(Hz) float
   0.000000e+00   0.000000e+00   0.000000e+00
   0.000000e+00   0.000000e+00   0.000000e+00
   0.000000e+00   0.000000e+00   0.000000e+00
   4.294538e-03  -3.648725e-01   0.000000e+00
   0.000000e+00   0.000000e+00   0.000000e+00
   0.000000e+00   0.000000e+00   0.000000e+00
   0.000000e+00   0.000000e+00   0.000000e+00
   0.000000e+00   0.000000e+00   0.000000e+00
   0.000000e+00   0.000000e+00   0.000000e+00
  -1.179414e-01  -1.104485e-01   0.000000e+00
  -1.764843e-01   8.871612e-03   0.000000e+00
   0.000000e+00   0.000000e+00   0.000000e+00
   0.000000e+00   0.000000e+00   0.000000e+00
   0.000000e+00   0.000000e+00   0.000000e+00
   0.000000e+00   0.000000e+00   0.000000e+00
   0.000000e+00   0.000000e+00   0.000000e+00
   6.943284e-02  -8.011805e-02   0.000000e+00
   0.000000e+00   0.000000e+00   0.000000e+00
   0.000000e+00   0.000000e+00   0.000000e+00
   0.000000e+00   0.000000e+00   0.000000e+00
   0.000000e+00   0.000000e+00   0.000000e+00
   0.000000e+00   0.000000e+00   0.000000e+00
   0.000000e+00   0.000000e+00   0.000000e+00
   0.000000e+00   0.000000e+00   0.000000e+00
   0.000000e+00   0.000000e+00   0.000000e+00
   0.000000e+00   0.000000e+00   0.000000e+00
  -2.404323e-02  -1.817553e-01   0.000000e+00
   5.286293e-03  -1.488260e-01   0.000000e+00
   0.000000e+00   0.000000e+00   0.000000e+00
  -1.269528e-02  -7.026497e-02   0.000000e+00
   0.000000e+00   0.000000e+00   0.000000e+00
   0.000000e+00   0.000000e+00   0.000000e+00
   0.000000e+00   0.000000e+00   0.000000e+00
  -2.523687e-03  -1.013232e-01   0.000000e+00
   0.000000e+00   0.000000e+00   0.000000e+00
   0.000000e+00   0.000000e+00   0.000000e+00
   0.000000e+00   0.000000e+00   0.000000e+00
   0.000000e+00   0.000000e+00   0.000000e+00
  -7.724177e-02  -2.962466e-01   0.000000e+00
  -6.771565e-02   1.014135e-01   0.000000e+00
  -1.156790e-01  -3.701333e-02   0.000000e+00
   0.000000e+00   0.000000e+00   0.000000e+00
   0.000000e+00   0.000000e+00   0.000000e+00
   0.000000e+00   0.000000e+00   0.000000e+00
   0.000000e+00   0.000000e+00   0.000000e+00
   0.000000e+00   0.000000e+00   0.000000e+00
VECTORS Imag_Arrow_3.981000e-01(Hz) float
   0.000000e+00   0.000000e+00   0.000000e+00
   0.000000e+00   0.000000e+00   0.000000e+00
   0.000000e+00   0.000000e+00   0.000000e+00
   7.510790e-02   6.248608e-02   0.000000e+00
   0.000000e+00   0.000000e+00   0.000000e+00
   0.000000e+00   0.000000e+00   0.000000e+00
   0.000000e+00   0.000000e+00   0.000000e+00
   0.000000e+00   0.000000e+00   0.000000e+00
   0.000000e+00   0.000000e+00   0.000000e+00
   9.909667e-02  -1.555653e-02   0.000000e+00
   8.062064e-02  -5.061211e-02   0.000000e+00
   0.000000e+00   0.000000e+00   0.000000e+00
   0.000000e+00   0.000000e+00   0.000000e+00
   0.000000e+00   0.000000e+00   0.000000e+00
   0.000000e+00   0.000000e+00   0.000000e+00
   0.000000e+00   0.000000e+00   0.000000e+00
   9.552309e-02  -2.182315e-02   0.000000e+00
   0.000000e+00   0.000000e+00   0.000000e+00
   0.000000e+00   0.000000e+00   0.000000e+00
   0.000000e+00   0.000000e+00   0.000000e+00
   0.000000e+00   0.000000e+00   0.000000e+00
   0.000000e+00   0.000000e+00   0.000000e+00
   0.000000e+00   0.000000e+00   0.000000e+00
   0.000000e+00   0.000000e+00   0.000000e+00
   0.000000e+00   0.000000e+00   0.000000e+00
   0.000000e+00   0.000000e+00   0.000000e+00
   9.662886e-02   3.622511e-03   0.000000e+00
   8.781664e-02  -9.079345e-03   0.000000e+00
   0.000000e+00   0.000000e+00   0.000000e+00
   7.593968e-02  -1.771011e-02   0.000000e+00
   0.000000e+00   0.000000e+00   0.000000e+00
   0.000000e+00   0.000000e+00   0.000000e+00
   0.000000e+00   0.000000e+00   0.000000e+00
   2.612851e-02  -2.985955e-02   0.000000e+00
   0.000000e+00   0.000000e+00   0.000000e+00
   0.000000e+00   0.000000e+00   0.000000e+00
   0.000000e+00   0.000000e+00   0.000000e+00
   0.000000e+00   0.000000e+00   0.000000e+00
   1.106053e-01   4.503224e-02   0.000000e+00
   9.857903e-02  -8.293238e-02   0.000000e+00
   6.285221e-02  -3.369424e-02   0.000000e+00
   0.000000e+00   0.000000e+00   0.000000e+00
   0.000000e+00   0.000000e+00   0.000000e+00
   0.000000e+00   0.000000e+00   0.000000e+00
   0.000000e+00   0.000000e+00   0.000000e+00
   0.000000e+00   0.000000e+00   0.000000e+00
VECTORS Real_Arrow_6.309500e-01(Hz) float
   0.000000e+00   0.000000e+00   0.000000e+00
  -1.727376e-01  -4.517703e-03   0.000000e+00
   0.000000e+00   0.000000e+00   0.000000e+00
  -2.167982e-02  -3.868731e-01   0.000000e+00
  -1.580882e-01  -9.373833e-02   0.000000e+00
   0.000000e+00   0.000000e+00   0.000000e+00
   9.976897e-02  -1.526194e-01   0.000000e+00
   0.000000e+00   0.000000e+00   0.000000e+00
   0.000000e+00   0.000000e+00   0.000000e+00
  -1.515483e-01  -1.059407e-01   0.000000e+00
  -2.016168e-01   2.670990e-02   0.000000e+00
   0.000000e+00   0.000000e+00   0.000000e+00
   0.000000e+00   0.000000e+00   0.000000e+00
  -1.624988e-01  -1.372283e-01   0.000000e+00
  -1.113658e-01  -2.809677e-02   0.000000e+00
   0.000000e+00   0.000000e+00   0.000000e+00
   4.058960e-02  -7.027359e-02   0.000000e+00
   0.000000e+00   0.000000e+00   0.000000e+00
   0.000000e+00   0.000000e+00   0.000000e+00
   0.000000e+00   0.000000e+00   0.000000e+00
   0.000000e+00   0.000000e+00   0.000000e+00
   0.000000e+00   0.000000e+00   0.000000e+00
  -1.534875e-01   1.423382e-02   0.000000e+00
   0.000000e+00   0.000000e+00   0.000000e+00
   0.000000e+00   0.000000e+00   0.000000e+00
   0.000000e+00   0.000000e+00   0.000000e+00
  -5.637619e-02  -1.854380e-01   0.000000e+00
  -2.391853e-02  -1.484319e-01   0.000000e+00
   0.000000e+00   0.000000e+00   0.000000e+00
  -3.927024e-02  -6.357643e-02   0.000000e+00
  -9.731776e-02  -7.487279e-02   0.000000e+00
  -1.843915e-01  -7.355389e-02   0.000000e+00
   0.000000e+00   0.000000e+00   0.000000e+00
  -1.283182e-02  -9.648837e-02   0.000000e+00
   0.000000e+00   0.000000e+00   0.000000e+00
   0.000000e+00   0.000000e+00   0.000000e+00
  -1.185572e-01  -3.508834e-02   0.000000e+00
   0.000000e+00   0.000000e+00   0.000000e+00
   0.000000e+00   0.000000e+00   0.000000e+00
  -1.006567e-01   1.283108e-01   0.000000e+00
  -1.355608e-01  -2.399665e-02   0.000000e+00
  -1.500264e-01  -4.081505e-02   0.000000e+00
   0.000000e+00   0.000000e+00   0.000000e+00
  -1.519305e-01  -1.017454e-01   0.000000e+00
   0.000000e+00   0.000000e+00   0.000000e+00
   0.000000e+00   0.000000e+00   0.000000e+00
VECTORS Imag_Arrow_6.309500e-01(Hz) float
   0.000000e+00   0.000000e+00   0.000000e+00
   6.529790e-02  -5.351768e-02   0.000000e+00
   0.000000e+00   0.000000e+00   0.000000e+00
   5.931269e-02   6.596269e-02   0.000000e+00
   6.680476e-02  -1.438375e-02   0.000000e+00
   0.000000e+00   0.000000e+00   0.000000e+00
   4.734109e-02  -2.254243e-03   0.000000e+00
   0.000000e+00   0.000000e+00   0.000000e+00
   0.000000e+00   0.000000e+00   0.000000e+00
   8.038291e-02  -1.868192e-02   0.000000e+00
   5.922558e-02  -5.386286e-02   0.000000e+00
   0.000000e+00   0.000000e+00   0.000000e+00
   0.000000e+00   0.000000e+00   0.000000e+00
   1.234365e-01  -1.740778e-02   0.000000e+00
   5.777158e-02  -4.284077e-02   0.000000e+00
   0.000000e+00   0.000000e+00   0.000000e+00
   8.308774e-02  -2.037384e-02   0.000000e+00
   0.000000e+00   0.000000e+00   0.000000e+00
   0.000000e+00   0.000000e+00   0.000000e+00
   0.000000e+00   0.000000e+00   0.000000e+00
   0.000000e+00   0.000000e+00   0.000000e+00
   0.000000e+00   0.000000e+00   0.000000e+00
   4.479371e-02  -5.273752e-02   0.000000e+00
   0.000000e+00   0.000000e+00   0.000000e+00
   0.000000e+00   0.000000e+00   0.000000e+00
   0.000000e+00   0.000000e+00   0.000000e+00
   8.410226e-02  -9.621514e-04   0.000000e+00
   7.479656e-02  -1.578309e-02   0.000000e+00
   0.000000e+00   0.000000e+00   0.000000e+00
   5.879485e-02  -1.877240e-02   0.000000e+00
   4.183117e-02  -1.140657e-02   0.000000e+00
   7.374542e-02  -1.573048e-02   0.000000e+00
   0.000000e+00   0.000000e+00   0.000000e+00
   5.925563e-03  -4.242896e-02   0.000000e+00
   0.000000e+00   0.000000e+00   0.000000e+00
   0.000000e+00   0.000000e+00   0.000000e+00
   9.406825e-02  -5.568048e-02   0.000000e+00
   0.000000e+00   0.000000e+00   0.000000e+00
   0.000000e+00   0.000000e+00   0.000000e+00
   7.877250e-02  -9.769441e-02   0.000000e+00
   4.172952e-02  -3.467304e-02   0.000000e+00
   5.981562e-02  -3.817057e-02   0.000000e+00
   0.000000e+00   0.000000e+00   0.000000e+00
   1.002806e-01  -2.010083e-02   0.000000e+00
   0.000000e+00   0.000000e+00   0.000000e+00
   0.000000e+00   0.000000e+00   0.000000e+00
VECTORS Real_Arrow_1.000000e+00(Hz) float
  -1.599913e-01  -7.418948e-02   0.000000e+00
  -1.929135e-01   1.367536e-02   0.000000e+00
   0.000000e+00   0.000000e+00   0.000000e+00
  -4.092196e-02  -4.129412e-01   0.000000e+00
  -1.794910e-01  -8.768775e-02   0.000000e+00
   0.000000e+00   0.000000e+00   0.000000e+00
   8.804731e-02  -1.526061e-01   0.000000e+00
  -1.931627e-01  -4.012882e-02   0.000000e+00
   0.000000e+00   0.000000e+00   0.000000e+00
  -1.784252e-01  -1.001774e-01   0.000000e+00
  -2.184061e-01   4.751982e-02   0.000000e+00
  -2.778195e-01  -8.963603e-02   0.000000e+00
   0.000000e+00   0.000000e+00   0.000000e+00
  -2.020776e-01  -1.352940e-01   0.000000e+00
   0.000000e+00   0.000000e+00   0.000000e+00
   0.000000e+00   0.000000e+00   0.000000e+00
   2.030617e-02  -6.049002e-02   0.000000e+00
   0.000000e+00   0.000000e+00   0.000000e+00
   0.000000e+00   0.000000e+00   0.000000e+00
   0.000000e+00   0.000000e+00   0.000000e+00
   0.000000e+00   0.000000e+00   0.000000e+00
   0.000000e+00   0.000000e+00   0.000000e+00
  -1.656392e-01   3.428570e-02   0.000000e+00
   0.000000e+00   0.000000e+00   0.000000e+00
   0.000000e+00   0.000000e+00   0.000000e+00
   0.000000e+00   0.000000e+00   0.000000e+00
  -8.284211e-02  -1.891567e-01   0.000000e+00
  -4.657305e-02  -1.469140e-01   0.000000e+00
   0.000000e+00   0.000000e+00   0.000000e+00
  -5.917718e-02  -5.602965e-02   0.000000e+00
  -1.115881e-01  -7.404261e-02   0.000000e+00
  -2.082127e-01  -7.096852e-02   0.000000e+00
   0.000000e+00   0.000000e+00   0.000000e+00
  -1.681303e-02  -8.817101e-02   0.000000e+00
   0.000000e+00   0.000000e+00   0.000000e+00
   0.000000e+00   0.000000e+00   0.000000e+00
  -1.487443e-01  -2.027899e-02   0.000000e+00
   0.000000e+00   0.000000e+00   0.000000e+00
  -1.444456e-01  -3.316211e-01   0.000000e+00
  -1.259248e-01   1.653098e-01   0.000000e+00
  -1.470582e-01  -8.812971e-03   0.000000e+00
  -1.692367e-01  -2.706459e-02   0.000000e+00
   0.000000e+00   0.000000e+00   0.000000e+00
  -1.852962e-01  -9.561497e-02   0.000000e+00
   0.000000e+00   0.000000e+00   0.000000e+00
   0.000000e+00   0.000000e+00   0.000000e+00
VECTORS Imag_Arrow_1.000000e+00(Hz) float
   2.412495e-02  -1.366337e-02   0.000000e+00
   3.848487e-02  -6.019953e-02   0.000000e+00
   0.000000e+00   0.000000e+00   0.000000e+00
   3.809950e-02   6.608417e-02   0.000000e+00
   4.246603e-02  -1.366021e-02   0.000000e+00
   0.000000e+00   0.000000e+00   0.000000e+00
   3.113512e-02  -4.760447e-03   0.000000e+00
   3.692806e-02  -5.108854e-02   0.000000e+00
   0.000000e+00   0.000000e+00   0.000000e+00
   5.542496e-02  -2.272459e-02   0.000000e+00
   3.385607e-02  -5.476022e-02   0.000000e+00
   4.780278e-02  -1.329208e-02   0.000000e+00
   0.000000e+00   0.000000e+00   0.000000e+00
   1.081141e-01  -2.690763e-02   0.000000e+00
   0.000000e+00   0.000000e+00   0.000000e+00
   0.000000e+00   0.000000e+00   0.000000e+00
   7.040095e-02  -1.533407e-02   0.000000e+00
   0.000000e+00   0.000000e+00   0.000000e+00
   0.000000e+00   0.000000e+00   0.000000e+00
   0.000000e+00   0.000000e+00   0.000000e+00
   0.000000e+00   0.000000e+00   0.000000e+00
   0.000000e+00   0.000000e+00   0.000000e+00
   1.862565e-02  -5.508482e-02   0.000000e+00
   0.000000e+00   0.000000e+00   0.000000e+00
   0.000000e+00   0.000000e+00   0.000000e+00
   0.000000e+00   0.000000e+00   0.000000e+00
   6.700939e-02  -9.218865e-03   0.000000e+00
   5.770091e-02  -2.615360e-02   0.000000e+00
   0.000000e+00   0.000000e+00   0.000000e+00
   3.575160e-02  -1.838882e-02   0.000000e+00
   3.011273e-02  -1.582581e-02   0.000000e+00
   6.019731e-02  -1.954474e-02   0.000000e+00
   0.000000e+00   0.000000e+00   0.000000e+00
  -2.023245e-02  -6.150135e-02   0.000000e+00
   0.000000e+00   0.000000e+00   0.000000e+00
   0.000000e+00   0.000000e+00   0.000000e+00
   7.357104e-02  -7.203070e-02   0.000000e+00
   0.000000e+00   0.000000e+00   0.000000e+00
   8.395992e-02   5.182524e-02   0.000000e+00
   5.370812e-02  -1.131167e-01   0.000000e+00
   1.658956e-02  -3.268594e-02   0.000000e+00
   3.306914e-02  -4.182486e-02   0.000000e+00
   0.000000e+00   0.000000e+00   0.000000e+00
   7.826586e-02  -2.467850e-02   0.000000e+00
   0.000000e+00   0.000000e+00   0.000000e+00
   0.000000e+00   0.000000e+00   0.000000e+00
VECTORS Real_Arrow_1.584800e+00(Hz) float
  -1.653547e-01  -6.734109e-02   0.000000e+00
  -2.020290e-01   3.655833e-02   0.000000e+00
   0.000000e+00   0.000000e+00   0.000000e+00
   0.000000e+00   0.000000e+00   0.000000e+00
  -1.918776e-01  -8.067750e-02   0.000000e+00
  -3.173872e-02  -9.719558e-02   0.000000e+00
   8.529890e-02  -1.520647e-01   0.000000e+00
  -2.054456e-01  -2.277697e-02   0.000000e+00
   0.000000e+00   0.000000e+00   0.000000e+00
  -1.965407e-01  -9.187398e-02   0.000000e+00
  -2.245661e-01   7.140138e-02   0.000000e+00
  -3.036665e-01  -9.345480e-02   0.000000e+00
   0.000000e+00   0.000000e+00   0.000000e+00
  -2.373094e-01  -1.302111e-01   0.000000e+00
   0.000000e+00   0.000000e+00   0.000000e+00
   0.000000e+00   0.000000e+00   0.000000e+00
   7.221821e-03  -5.180997e-02   0.000000e+00
   0.000000e+00   0.000000e+00   0.000000e+00
   0.000000e+00   0.000000e+00   0.000000e+00
   0.000000e+00   0.000000e+00   0.000000e+00
   0.000000e+00   0.000000e+00   0.000000e+00
  -2.266728e-01  -8.604784e-02   0.000000e+00
  -1.661535e-01   5.775460e-02   0.000000e+00
   0.000000e+00   0.000000e+00   0.000000e+00
   0.000000e+00   0.000000e+00   0.000000e+00
   0.000000e+00   0.000000e+00   0.000000e+00
  -1.022767e-01  -1.911515e-01   0.000000e+00
  -6.150443e-02  -1.420341e-01   0.000000e+00
  -1.153683e-01  -7.690112e-02   0.000000e+00
  -7.013938e-02  -4.820349e-02   0.000000e+00
  -1.240966e-01  -7.076340e-02   0.000000e+00
  -2.299305e-01  -6.663178e-02   0.000000e+00
   5.092885e-02  -4.998185e-02   0.000000e+00
  -1.007364e-02  -7.183517e-02   0.000000e+00
   0.000000e+00   0.000000e+00   0.000000e+00
   0.000000e+00   0.000000e+00   0.000000e+00
  -1.717930e-01   2.133411e-03   0.000000e+00
  -1.402801e-01   7.500590e-03   0.000000e+00
  -1.698745e-01  -3.557814e-01   0.000000e+00
  -1.430923e-01   2.182837e-01   0.000000e+00
   0.000000e+00   0.000000e+00   0.000000e+00
  -1.778788e-01  -9.896531e-03   0.000000e+00
   0.000000e+00   0.000000e+00   0.000000e+00
  -2.113168e-01  -8.669205e-02   0.000000e+00
   0.000000e+00   0.000000e+00   0.000000e+00
   0.000000e+00   0.000000e+00   0.000000e+00
VECTORS Imag_Arrow_1.584800e+00(Hz) float
  -2.603102e-03  -9.646413e-03   0.000000e+00
   7.041017e-03  -6.497096e-02   0.000000e+00
   0.000000e+00   0.000000e+00   0.000000e+00
   0.000000e+00   0.000000e+00   0.000000e+00
   1.305257e-02  -1.092615e-02   0.000000e+00
   4.252018e-02  -4.271470e-02   0.000000e+00
   1.719382e-02  -8.756091e-03   0.000000e+00
   6.792591e-03  -6.362853e-02   0.000000e+00
   0.000000e+00   0.000000e+00   0.000000e+00
   2.405140e-02  -2.726422e-02   0.000000e+00
   5.846549e-03  -5.006388e-02   0.000000e+00
   1.717318e-02  -3.253647e-02   0.000000e+00
   0.000000e+00   0.000000e+00   0.000000e+00
   8.858898e-02  -4.177975e-02   0.000000e+00
   0.000000e+00   0.000000e+00   0.000000e+00
   0.000000e+00   0.000000e+00   0.000000e+00
   6.280962e-02  -5.972925e-03   0.000000e+00
   0.000000e+00   0.000000e+00   0.000000e+00
   0.000000e+00   0.000000e+00   0.000000e+00
   0.000000e+00   0.000000e+00   0.000000e+00
   0.000000e+00   0.000000e+00   0.000000e+00
   2.547848e-02  -2.702370e-02   0.000000e+00
  -9.925522e-03  -5.248292e-02   0.000000e+00
   0.000000e+00   0.000000e+00   0.000000e+00
   0.000000e+00   0.000000e+00   0.000000e+00
   0.000000e+00   0.000000e+00   0.000000e+00
   4.702052e-02  -2.360865e-02   0.000000e+00
   3.901197e-02  -4.200388e-02   0.000000e+00
   8.750268e-03  -3.237992e-02   0.000000e+00
   7.315123e-03  -1.588391e-02   0.000000e+00
   1.323568e-02  -2.412997e-02   0.000000e+00
   4.174221e-02  -2.653844e-02   0.000000e+00
  -5.002526e-02  -7.623020e-02   0.000000e+00
  -5.346155e-02  -8.849395e-02   0.000000e+00
   0.000000e+00   0.000000e+00   0.000000e+00
   0.000000e+00   0.000000e+00   0.000000e+00
   4.870264e-02  -9.265769e-02   0.000000e+00
   2.172701e-02  -5.018059e-02   0.000000e+00
   6.508849e-02   4.841677e-02   0.000000e+00
   2.401609e-02  -1.212640e-01   0.000000e+00
   0.000000e+00   0.000000e+00   0.000000e+00
   1.048384e-03  -4.322190e-02   0.000000e+00
   0.000000e+00   0.000000e+00   0.000000e+00
   4.998346e-02  -2.992527e-02   0.000000e+00
   0.000000e+00   0.000000e+00   0.000000e+00
   0.000000e+00   0.000000e+00   0.000000e+00
VECTORS Real_Arrow_2.511800e+00(Hz) float
  -1.590599e-01  -6.104976e-02   0.000000e+00
  -1.962663e-01   6.350880e-02   0.000000e+00
   0.000000e+00   0.000000e+00   0.000000e+00
  -4.758900e-02  -4.710554e-01   0.000000e+00
  -1.918621e-01  -7.326742e-02   0.000000e+00
  -4.016897e-02  -8.067450e-02   0.000000e+00
   8.781461e-02  -1.493839e-01   0.000000e+00
  -2.045894e-01   3.766309e-03   0.000000e+00
   8.362727e-02  -1.952208e-01   0.000000e+00
  -2.024393e-01  -7.983971e-02   0.000000e+00
  -2.177405e-01   9.548589e-02   0.000000e+00
  -3.148430e-01  -8.284194e-02   0.000000e+00
   0.000000e+00   0.000000e+00   0.000000e+00
  -2.682752e-01  -1.177221e-01   0.000000e+00
  -1.314874e-01   2.809973e-02   0.000000e+00
   0.000000e+00   0.000000e+00   0.000000e+00
  -4.174880e-03  -4.560559e-02   0.000000e+00
   0.000000e+00   0.000000e+00   0.000000e+00
   0.000000e+00   0.000000e+00   0.000000e+00
   0.000000e+00   0.000000e+00   0.000000e+00
   0.000000e+00   0.000000e+00   0.000000e+00
  -2.327810e-01  -7.349654e-02   0.000000e+00
  -1.523998e-01   8.208343e-02   0.000000e+00
  -1.770542e-01  -1.285759e-01   0.000000e+00
   0.000000e+00   0.000000e+00   0.000000e+00
   0.000000e+00   0.000000e+00   0.000000e+00
  -1.146294e-01  -1.868880e-01   0.000000e+00
  -6.946967e-02  -1.292751e-01   0.000000e+00
  -1.170716e-01  -6.486710e-02   0.000000e+00
  -6.921693e-02  -4.073267e-02   0.000000e+00
  -1.299444e-01  -6.146312e-02   0.000000e+00
  -2.460895e-01  -5.771193e-02   0.000000e+00
   9.428009e-02  -1.126722e-02   0.000000e+00
   1.439421e-02  -4.066212e-02   0.000000e+00
  -6.560868e-02  -1.128902e-01   0.000000e+00
   0.000000e+00   0.000000e+00   0.000000e+00
  -1.867972e-01   3.592414e-02   0.000000e+00
  -1.444114e-01   2.719871e-02   0.000000e+00
  -1.879464e-01  -3.814518e-01   0.000000e+00
  -1.509674e-01   2.858620e-01   0.000000e+00
   0.000000e+00   0.000000e+00   0.000000e+00
  -1.720944e-01   1.014816e-02   0.000000e+00
   0.000000e+00   0.000000e+00   0.000000e+00
  -2.275698e-01  -7.359514e-02   0.000000e+00
   0.000000e+00   0.000000e+00   0.000000e+00
   0.000000e+00   0.000000e+00   0.000000e+00
VECTORS Imag_Arrow_2.511800e+00(Hz) float
  -3.127215e-02  -1.281532e-03   0.000000e+00
  -2.609643e-02  -6.305566e-02   0.000000e+00
   0.000000e+00   0.000000e+00   0.000000e+00
  -1.376968e-02   3.651245e-02   0.000000e+00
  -2.028165e-02  -3.691919e-03   0.000000e+00
   3.076930e-02  -5.448905e-02   0.000000e+00
   1.043383e-02  -1.412868e-02   0.000000e+00
  -2.989173e-02  -7.458457e-02   0.000000e+00
  -1.040164e-01  -6.705858e-03   0.000000e+00
  -1.347847e-02  -2.983298e-02   0.000000e+00
  -2.102610e-02  -3.453965e-02   0.000000e+00
  -3.580064e-02  -6.487204e-02   0.000000e+00
   0.000000e+00   0.000000e+00   0.000000e+00
   6.305955e-02  -6.170712e-02   0.000000e+00
  -3.879580e-02  -4.088626e-02   0.000000e+00
   0.000000e+00   0.000000e+00   0.000000e+00
   6.419958e-02   9.231980e-03   0.000000e+00
   0.000000e+00   0.000000e+00   0.000000e+00
   0.000000e+00   0.000000e+00   0.000000e+00
   0.000000e+00   0.000000e+00   0.000000e+00
   0.000000e+00   0.000000e+00   0.000000e+00
  -9.428988e-03  -2.947549e-02   0.000000e+00
  -3.612963e-02  -3.980700e-02   0.000000e+00
   3.707327e-03   5.848045e-03   0.000000e+00
   0.000000e+00   0.000000e+00   0.000000e+00
   0.000000e+00   0.000000e+00   0.000000e+00
   2.571721e-02  -4.544363e-02   0.000000e+00
   2.139138e-02  -6.310043e-02   0.000000e+00
  -1.715338e-02  -4.545520e-02   0.000000e+00
  -2.515430e-02  -1.058083e-02   0.000000e+00
  -1.168521e-02  -3.492519e-02   0.000000e+00
   1.486477e-02  -3.615158e-02   0.000000e+00
  -7.631379e-02  -9.732131e-02   0.000000e+00
  -9.055175e-02  -1.210053e-01   0.000000e+00
  -3.152660e-02   5.469515e-03   0.000000e+00
   0.000000e+00   0.000000e+00   0.000000e+00
   1.929657e-02  -1.136710e-01   0.000000e+00
  -1.393675e-02  -4.680756e-02   0.000000e+00
   4.313996e-02   3.393302e-02   0.000000e+00
  -1.213149e-02  -1.030359e-01   0.000000e+00
   0.000000e+00   0.000000e+00   0.000000e+00
  -3.399298e-02  -3.815372e-02   0.000000e+00
   0.000000e+00   0.000000e+00   0.000000e+00
   1.474179e-02  -3.330352e-02   0.000000e+00
   0.000000e+00   0.000000e+00   0.000000e+00
   0.000000e+00   0.000000e+00   0.000000e+00
VECTORS Real_Arrow_3.981000e+00(Hz) float
  -1.387238e-01  -5.969614e-02   0.000000e+00
  -1.734464e-01   8.737157e-02   0.000000e+00
   0.000000e+00   0.000000e+00   0.000000e+00
  -3.252916e-02  -4.890913e-01   0.000000e+00
  -1.762209e-01  -7.008815e-02   0.000000e+00
  -4.805439e-02  -5.711994e-02   0.000000e+00
   8.860704e-02  -1.444569e-01   0.000000e+00
  -1.841742e-01   3.857646e-02   0.000000e+00
   1.367104e-01  -1.890852e-01   0.000000e+00
  -1.920982e-01  -6.690478e-02   0.000000e+00
  -1.993827e-01   1.098982e-01   0.000000e+00
  -2.870462e-01  -4.313636e-02   0.000000e+00
   0.000000e+00   0.000000e+00   0.000000e+00
  -2.927414e-01  -9.485681e-02   0.000000e+00
  -1.085112e-01   4.396656e-02   0.000000e+00
   0.000000e+00   0.000000e+00   0.000000e+00
  -2.185842e-02  -4.568142e-02   0.000000e+00
   0.000000e+00   0.000000e+00   0.000000e+00
  -4.020668e-02  -1.985421e-02   0.000000e+00
   0.000000e+00   0.000000e+00   0.000000e+00
   0.000000e+00   0.000000e+00   0.000000e+00
  -2.225398e-01  -5.879235e-02   0.000000e+00
  -1.259485e-01   9.760231e-02   0.000000e+00
  -1.787742e-01  -1.276909e-01   0.000000e+00
   0.000000e+00   0.000000e+00   0.000000e+00
   0.000000e+00   0.000000e+00   0.000000e+00
  -1.207997e-01  -1.716202e-01   0.000000e+00
  -7.307873e-02  -1.054489e-01   0.000000e+00
  -1.039704e-01  -4.365359e-02   0.000000e+00
  -5.357490e-02  -3.473238e-02   0.000000e+00
   0.000000e+00   0.000000e+00   0.000000e+00
  -2.494825e-01  -4.151215e-02   0.000000e+00
   1.498515e-01   3.917156e-02   0.000000e+00
   6.112591e-02   1.038384e-02   0.000000e+00
  -4.672782e-02  -1.100055e-01   0.000000e+00
   0.000000e+00   0.000000e+00   0.000000e+00
   0.000000e+00   0.000000e+00   0.000000e+00
  -1.324459e-01   4.401469e-02   0.000000e+00
  -1.970343e-01  -4.023469e-01   0.000000e+00
  -1.425292e-01   3.428051e-01   0.000000e+00
  -1.092355e-01   2.825083e-02   0.000000e+00
  -1.490891e-01   2.669331e-02   0.000000e+00
   0.000000e+00   0.000000e+00   0.000000e+00
  -2.299315e-01  -5.881801e-02   0.000000e+00
  -1.408463e-01  -4.941811e-02   0.000000e+00
   6.981342e-02  -1.907521e-01   0.000000e+00
VECTORS Imag_Arrow_3.981000e+00(Hz) float
  -5.718369e-02   1.341813e-02   0.000000e+00
  -5.372797e-02  -4.998804e-02   0.000000e+00
   0.000000e+00   0.000000e+00   0.000000e+00
  -3.408050e-02   1.008352e-04   0.000000e+00
  -5.311580e-02   1.077734e-02   0.000000e+00
   2.154028e-02  -6.155733e-02   0.000000e+00
   1.043778e-02  -1.901374e-02   0.000000e+00
  -6.769815e-02  -7.589953e-02   0.000000e+00
  -1.236734e-01  -1.414679e-02   0.000000e+00
  -5.407758e-02  -2.636078e-02   0.000000e+00
  -3.984422e-02  -4.735340e-03   0.000000e+00
  -1.000727e-01  -9.563252e-02   0.000000e+00
   0.000000e+00   0.000000e+00   0.000000e+00
   2.798561e-02  -8.254247e-02   0.000000e+00
  -7.223826e-02  -2.430060e-02   0.000000e+00
   0.000000e+00   0.000000e+00   0.000000e+00
   7.254753e-02   3.191101e-02   0.000000e+00
   0.000000e+00   0.000000e+00   0.000000e+00
  -1.031017e-01  -2.863717e-03   0.000000e+00
   0.000000e+00   0.000000e+00   0.000000e+00
   0.000000e+00   0.000000e+00   0.000000e+00
  -4.697225e-02  -2.527713e-02   0.000000e+00
  -5.169334e-02  -1.346617e-02   0.000000e+00
  -3.474859e-02  -1.858205e-03   0.000000e+00
   0.000000e+00   0.000000e+00   0.000000e+00
   0.000000e+00   0.000000e+00   0.000000e+00
   3.381932e-03  -7.190223e-02   0.000000e+00
   5.369312e-03  -8.487008e-02   0.000000e+00
  -4.468644e-02  -5.616491e-02   0.000000e+00
  -5.818206e-02  -1.514083e-03   0.000000e+00
   0.000000e+00   0.000000e+00   0.000000e+00
  -2.043089e-02  -4.511564e-02   0.000000e+00
  -6.495479e-02  -9.661658e-02   0.000000e+00
  -1.207912e-01  -1.502189e-01   0.000000e+00
  -5.752747e-02   5.760477e-03   0.000000e+00
   0.000000e+00   0.000000e+00   0.000000e+00
   0.000000e+00   0.000000e+00   0.000000e+00
  -5.174236e-02  -3.733109e-02   0.000000e+00
   2.005499e-02   4.873301e-03   0.000000e+00
  -5.655192e-02  -3.933346e-02   0.000000e+00
  -5.381272e-02   2.579671e-02   0.000000e+00
  -6.587941e-02  -2.221718e-02   0.000000e+00
   0.000000e+00   0.000000e+00   0.000000e+00
  -2.693584e-02  -3.052885e-02   0.000000e+00
   1.755805e-02  -1.277375e-01   0.000000e+00
  -6.982222e-03  -6.598339e-02   0.000000e+00
