# vtk DataFile Version 2.0
Induction_Arrow_Iter10_PE2
ASCII
DATASET UNSTRUCTURED_GRID
POINTS 46 float
  -2.052000e+03    1.667000e+03   -4.526633e+02
  -1.265000e+03    2.333000e+03   -4.555885e+02
  -9.840000e+02    2.568000e+03   -4.612271e+02
   1.700000e+03   -1.757000e+03   -5.237752e+02
  -1.152000e+03    1.382000e+03   -4.549280e+02
   3.187000e+03    1.067000e+03   -8.370176e+02
   4.716000e+03    9.370000e+02   -8.015281e+02
  -1.855000e+03    5.260000e+02   -5.147377e+02
  -1.420000e+02   -1.905000e+03   -4.746368e+02
  -5.800000e+01    1.069000e+03   -4.555494e+02
  -2.802000e+03    3.302000e+03   -4.314337e+02
  -5.640000e+03   -1.532000e+03   -4.911771e+02
  -8.030000e+02   -5.610000e+02   -5.280929e+02
   1.008000e+03    4.130000e+02   -5.983358e+02
   1.960000e+02    2.246000e+03   -5.219413e+02
  -3.457000e+03    8.320000e+02   -4.470735e+02
   5.640000e+03    2.452000e+03   -7.393049e+02
  -1.334000e+03    3.332000e+03   -4.456136e+02
   1.244000e+03    1.880000e+03   -6.331107e+02
  -2.680000e+02    2.144000e+03   -4.891390e+02
  -4.063000e+03    6.620000e+02   -4.746103e+02
  -1.258000e+03    6.330000e+02   -4.856841e+02
  -2.141000e+03    3.194000e+03   -4.348461e+02
  -3.469000e+03   -3.059000e+03   -6.067613e+02
  -1.604000e+03   -2.570000e+02   -5.141257e+02
  -1.454000e+03    2.220000e+02   -5.386025e+02
   1.864000e+03    1.270000e+02   -7.404291e+02
   2.449000e+03    5.590000e+02   -7.805292e+02
  -1.834000e+03   -1.554000e+03   -6.273074e+02
   1.807000e+03    2.297000e+03   -6.825557e+02
  -2.560000e+03   -1.783000e+03   -6.131337e+02
  -2.741000e+03   -5.010000e+02   -5.080000e+02
   2.884000e+03   -2.179000e+03   -5.274708e+02
  -6.120000e+02   -8.960000e+02   -5.895389e+02
  -1.985000e+03   -2.653000e+03   -5.598834e+02
  -3.390000e+03   -4.000000e+02   -4.982361e+02
   1.586000e+03    1.342000e+03   -6.618442e+02
   1.047000e+03    2.401000e+03   -5.426792e+02
   8.380000e+02   -1.300000e+03   -4.783644e+02
   2.569000e+03    2.441000e+03   -6.035668e+02
  -2.028000e+03    2.833000e+03   -4.322286e+02
  -1.086000e+03    1.998000e+03   -4.563301e+02
   1.514000e+03   -3.332000e+03   -5.646205e+02
   7.040000e+02    1.116000e+03   -5.365099e+02
   1.990000e+03    6.360000e+02   -7.085272e+02
   3.722000e+03   -1.700000e+02   -6.745213e+02
CELLS 46 92
1 0
1 1
1 2
1 3
1 4
1 5
1 6
1 7
1 8
1 9
1 10
1 11
1 12
1 13
1 14
1 15
1 16
1 17
1 18
1 19
1 20
1 21
1 22
1 23
1 24
1 25
1 26
1 27
1 28
1 29
1 30
1 31
1 32
1 33
1 34
1 35
1 36
1 37
1 38
1 39
1 40
1 41
1 42
1 43
1 44
1 45
CELL_TYPES 46
1
1
1
1
1
1
1
1
1
1
1
1
1
1
1
1
1
1
1
1
1
1
1
1
1
1
1
1
1
1
1
1
1
1
1
1
1
1
1
1
1
1
1
1
1
1
POINT_DATA 46
VECTORS Real_Arrow_3.981000e-01(Hz) float
   0.000000e+00   0.000000e+00   0.000000e+00
   0.000000e+00   0.000000e+00   0.000000e+00
   0.000000e+00   0.000000e+00   0.000000e+00
   7.491303e-03  -3.733266e-01   0.000000e+00
   0.000000e+00   0.000000e+00   0.000000e+00
   0.000000e+00   0.000000e+00   0.000000e+00
   0.000000e+00   0.000000e+00   0.000000e+00
   0.000000e+00   0.000000e+00   0.000000e+00
   0.000000e+00   0.000000e+00   0.000000e+00
  -1.182930e-01  -1.134764e-01   0.000000e+00
  -1.918455e-01   1.889048e-02   0.000000e+00
   0.000000e+00   0.000000e+00   0.000000e+00
   0.000000e+00   0.000000e+00   0.000000e+00
   0.000000e+00   0.000000e+00   0.000000e+00
   0.000000e+00   0.000000e+00   0.000000e+00
   0.000000e+00   0.000000e+00   0.000000e+00
   6.280169e-02  -9.357382e-02   0.000000e+00
   0.000000e+00   0.000000e+00   0.000000e+00
   0.000000e+00   0.000000e+00   0.000000e+00
   0.000000e+00   0.000000e+00   0.000000e+00
   0.000000e+00   0.000000e+00   0.000000e+00
   0.000000e+00   0.000000e+00   0.000000e+00
   0.000000e+00   0.000000e+00   0.000000e+00
   0.000000e+00   0.000000e+00   0.000000e+00
   0.000000e+00   0.000000e+00   0.000000e+00
   0.000000e+00   0.000000e+00   0.000000e+00
  -2.332200e-02  -1.864217e-01   0.000000e+00
   6.599314e-03  -1.529401e-01   0.000000e+00
   0.000000e+00   0.000000e+00   0.000000e+00
  -1.153750e-02  -1.031668e-01   0.000000e+00
   0.000000e+00   0.000000e+00   0.000000e+00
   0.000000e+00   0.000000e+00   0.000000e+00
   0.000000e+00   0.000000e+00   0.000000e+00
   8.750658e-03  -9.564278e-02   0.000000e+00
   0.000000e+00   0.000000e+00   0.000000e+00
   0.000000e+00   0.000000e+00   0.000000e+00
   0.000000e+00   0.000000e+00   0.000000e+00
   0.000000e+00   0.000000e+00   0.000000e+00
  -7.588817e-02  -3.044403e-01   0.000000e+00
  -6.887300e-02   1.152578e-01   0.000000e+00
  -1.281924e-01  -3.125498e-02   0.000000e+00
   0.000000e+00   0.000000e+00   0.000000e+00
   0.000000e+00   0.000000e+00   0.000000e+00
   0.000000e+00   0.000000e+00   0.000000e+00
   0.000000e+00   0.000000e+00   0.000000e+00
   0.000000e+00   0.000000e+00   0.000000e+00
VECTORS Imag_Arrow_3.981000e-01(Hz) float
   0.000000e+00   0.000000e+00   0.000000e+00
   0.000000e+00   0.000000e+00   0.000000e+00
   0.000000e+00   0.000000e+00   0.000000e+00
   6.743366e-02   6.286216e-02   0.000000e+00
   0.000000e+00   0.000000e+00   0.000000e+00
   0.000000e+00   0.000000e+00   0.000000e+00
   0.000000e+00   0.000000e+00   0.000000e+00
   0.000000e+00   0.000000e+00   0.000000e+00
   0.000000e+00   0.000000e+00   0.000000e+00
   9.269999e-02  -1.421428e-02   0.000000e+00
   7.443194e-02  -4.865568e-02   0.000000e+00
   0.000000e+00   0.000000e+00   0.000000e+00
   0.000000e+00   0.000000e+00   0.000000e+00
   0.000000e+00   0.000000e+00   0.000000e+00
   0.000000e+00   0.000000e+00   0.000000e+00
   0.000000e+00   0.000000e+00   0.000000e+00
   9.462411e-02  -1.778134e-02   0.000000e+00
   0.000000e+00   0.000000e+00   0.000000e+00
   0.000000e+00   0.000000e+00   0.000000e+00
   0.000000e+00   0.000000e+00   0.000000e+00
   0.000000e+00   0.000000e+00   0.000000e+00
   0.000000e+00   0.000000e+00   0.000000e+00
   0.000000e+00   0.000000e+00   0.000000e+00
   0.000000e+00   0.000000e+00   0.000000e+00
   0.000000e+00   0.000000e+00   0.000000e+00
   0.000000e+00   0.000000e+00   0.000000e+00
   9.119664e-02   4.304038e-03   0.000000e+00
   8.266329e-02  -8.567616e-03   0.000000e+00
   0.000000e+00   0.000000e+00   0.000000e+00
   7.544408e-02  -6.547152e-03   0.000000e+00
   0.000000e+00   0.000000e+00   0.000000e+00
   0.000000e+00   0.000000e+00   0.000000e+00
   0.000000e+00   0.000000e+00   0.000000e+00
   1.439853e-02  -2.992748e-02   0.000000e+00
   0.000000e+00   0.000000e+00   0.000000e+00
   0.000000e+00   0.000000e+00   0.000000e+00
   0.000000e+00   0.000000e+00   0.000000e+00
   0.000000e+00   0.000000e+00   0.000000e+00
   1.049350e-01   4.677306e-02   0.000000e+00
   9.264419e-02  -8.729447e-02   0.000000e+00
   5.759578e-02  -3.194255e-02   0.000000e+00
   0.000000e+00   0.000000e+00   0.000000e+00
   0.000000e+00   0.000000e+00   0.000000e+00
   0.000000e+00   0.000000e+00   0.000000e+00
   0.000000e+00   0.000000e+00   0.000000e+00
   0.000000e+00   0.000000e+00   0.000000e+00
VECTORS Real_Arrow_6.309500e-01(Hz) float
   0.000000e+00   0.000000e+00   0.000000e+00
  -1.806344e-01  -4.767689e-04   0.000000e+00
   0.000000e+00   0.000000e+00   0.000000e+00
  -1.593994e-02  -3.940178e-01   0.000000e+00
  -1.604729e-01  -9.137425e-02   0.000000e+00
   0.000000e+00   0.000000e+00   0.000000e+00
   1.007796e-01  -1.542792e-01   0.000000e+00
   0.000000e+00   0.000000e+00   0.000000e+00
   0.000000e+00   0.000000e+00   0.000000e+00
  -1.498901e-01  -1.083257e-01   0.000000e+00
  -2.157319e-01   3.706575e-02   0.000000e+00
   0.000000e+00   0.000000e+00   0.000000e+00
   0.000000e+00   0.000000e+00   0.000000e+00
  -1.597367e-01  -1.419299e-01   0.000000e+00
  -1.188293e-01  -2.704874e-02   0.000000e+00
   0.000000e+00   0.000000e+00   0.000000e+00
   3.482634e-02  -8.462854e-02   0.000000e+00
   0.000000e+00   0.000000e+00   0.000000e+00
   0.000000e+00   0.000000e+00   0.000000e+00
   0.000000e+00   0.000000e+00   0.000000e+00
   0.000000e+00   0.000000e+00   0.000000e+00
   0.000000e+00   0.000000e+00   0.000000e+00
  -1.659455e-01   2.019692e-02   0.000000e+00
   0.000000e+00   0.000000e+00   0.000000e+00
   0.000000e+00   0.000000e+00   0.000000e+00
   0.000000e+00   0.000000e+00   0.000000e+00
  -5.383805e-02  -1.892202e-01   0.000000e+00
  -2.091922e-02  -1.517243e-01   0.000000e+00
   0.000000e+00   0.000000e+00   0.000000e+00
  -3.843758e-02  -9.944639e-02   0.000000e+00
  -9.001934e-02  -6.683053e-02   0.000000e+00
  -1.785164e-01  -6.673587e-02   0.000000e+00
   0.000000e+00   0.000000e+00   0.000000e+00
   1.314362e-03  -8.998320e-02   0.000000e+00
   0.000000e+00   0.000000e+00   0.000000e+00
   0.000000e+00   0.000000e+00   0.000000e+00
  -1.203334e-01  -3.602240e-02   0.000000e+00
   0.000000e+00   0.000000e+00   0.000000e+00
   0.000000e+00   0.000000e+00   0.000000e+00
  -9.964566e-02   1.443497e-01   0.000000e+00
  -1.470705e-01  -1.769372e-02   0.000000e+00
  -1.541831e-01  -3.880707e-02   0.000000e+00
   0.000000e+00   0.000000e+00   0.000000e+00
  -1.540535e-01  -1.076961e-01   0.000000e+00
   0.000000e+00   0.000000e+00   0.000000e+00
   0.000000e+00   0.000000e+00   0.000000e+00
VECTORS Imag_Arrow_6.309500e-01(Hz) float
   0.000000e+00   0.000000e+00   0.000000e+00
   6.237786e-02  -5.299347e-02   0.000000e+00
   0.000000e+00   0.000000e+00   0.000000e+00
   5.304182e-02   6.398618e-02   0.000000e+00
   6.289347e-02  -1.288271e-02   0.000000e+00
   0.000000e+00   0.000000e+00   0.000000e+00
   4.631226e-02  -3.461765e-03   0.000000e+00
   0.000000e+00   0.000000e+00   0.000000e+00
   0.000000e+00   0.000000e+00   0.000000e+00
   7.527890e-02  -1.823170e-02   0.000000e+00
   5.307194e-02  -5.055472e-02   0.000000e+00
   0.000000e+00   0.000000e+00   0.000000e+00
   0.000000e+00   0.000000e+00   0.000000e+00
   1.189693e-01  -1.777526e-02   0.000000e+00
   5.485912e-02  -4.377805e-02   0.000000e+00
   0.000000e+00   0.000000e+00   0.000000e+00
   8.082285e-02  -1.778148e-02   0.000000e+00
   0.000000e+00   0.000000e+00   0.000000e+00
   0.000000e+00   0.000000e+00   0.000000e+00
   0.000000e+00   0.000000e+00   0.000000e+00
   0.000000e+00   0.000000e+00   0.000000e+00
   0.000000e+00   0.000000e+00   0.000000e+00
   3.927774e-02  -4.997001e-02   0.000000e+00
   0.000000e+00   0.000000e+00   0.000000e+00
   0.000000e+00   0.000000e+00   0.000000e+00
   0.000000e+00   0.000000e+00   0.000000e+00
   7.986060e-02  -2.277081e-03   0.000000e+00
   7.068660e-02  -1.724642e-02   0.000000e+00
   0.000000e+00   0.000000e+00   0.000000e+00
   6.069681e-02  -7.458739e-03   0.000000e+00
   3.671365e-02  -1.070032e-02   0.000000e+00
   7.279417e-02  -9.635314e-03   0.000000e+00
   0.000000e+00   0.000000e+00   0.000000e+00
  -2.553305e-03  -4.375490e-02   0.000000e+00
   0.000000e+00   0.000000e+00   0.000000e+00
   0.000000e+00   0.000000e+00   0.000000e+00
   9.198862e-02  -5.761003e-02   0.000000e+00
   0.000000e+00   0.000000e+00   0.000000e+00
   0.000000e+00   0.000000e+00   0.000000e+00
   7.262511e-02  -1.045297e-01   0.000000e+00
   3.717179e-02  -3.217602e-02   0.000000e+00
   5.536265e-02  -3.684904e-02   0.000000e+00
   0.000000e+00   0.000000e+00   0.000000e+00
   9.814287e-02  -1.897329e-02   0.000000e+00
   0.000000e+00   0.000000e+00   0.000000e+00
   0.000000e+00   0.000000e+00   0.000000e+00
VECTORS Real_Arrow_1.000000e+00(Hz) float
  -1.596665e-01  -6.906656e-02   0.000000e+00
  -2.003764e-01   1.776540e-02   0.000000e+00
   0.000000e+00   0.000000e+00   0.000000e+00
  -3.299563e-02  -4.185341e-01   0.000000e+00
  -1.809395e-01  -8.538819e-02   0.000000e+00
   0.000000e+00   0.000000e+00   0.000000e+00
   8.958231e-02  -1.529985e-01   0.000000e+00
  -1.908672e-01  -2.818385e-02   0.000000e+00
   0.000000e+00   0.000000e+00   0.000000e+00
  -1.750767e-01  -1.019917e-01   0.000000e+00
  -2.312905e-01   5.692812e-02   0.000000e+00
  -2.812324e-01  -9.043790e-02   0.000000e+00
   0.000000e+00   0.000000e+00   0.000000e+00
  -1.975131e-01  -1.388652e-01   0.000000e+00
   0.000000e+00   0.000000e+00   0.000000e+00
   0.000000e+00   0.000000e+00   0.000000e+00
   1.605407e-02  -7.537851e-02   0.000000e+00
   0.000000e+00   0.000000e+00   0.000000e+00
   0.000000e+00   0.000000e+00   0.000000e+00
   0.000000e+00   0.000000e+00   0.000000e+00
   0.000000e+00   0.000000e+00   0.000000e+00
   0.000000e+00   0.000000e+00   0.000000e+00
  -1.769934e-01   3.949328e-02   0.000000e+00
   0.000000e+00   0.000000e+00   0.000000e+00
   0.000000e+00   0.000000e+00   0.000000e+00
   0.000000e+00   0.000000e+00   0.000000e+00
  -7.865575e-02  -1.915235e-01   0.000000e+00
  -4.202007e-02  -1.488025e-01   0.000000e+00
   0.000000e+00   0.000000e+00   0.000000e+00
  -5.976990e-02  -9.623611e-02   0.000000e+00
  -1.043754e-01  -6.571660e-02   0.000000e+00
  -2.027218e-01  -6.617377e-02   0.000000e+00
   0.000000e+00   0.000000e+00   0.000000e+00
  -1.357850e-03  -8.048503e-02   0.000000e+00
   0.000000e+00   0.000000e+00   0.000000e+00
   0.000000e+00   0.000000e+00   0.000000e+00
  -1.496877e-01  -1.991915e-02   0.000000e+00
   0.000000e+00   0.000000e+00   0.000000e+00
  -1.398990e-01  -3.379224e-01   0.000000e+00
  -1.224905e-01   1.864452e-01   0.000000e+00
  -1.577232e-01  -3.078810e-03   0.000000e+00
  -1.723839e-01  -2.510997e-02   0.000000e+00
   0.000000e+00   0.000000e+00   0.000000e+00
  -1.864964e-01  -1.009117e-01   0.000000e+00
   0.000000e+00   0.000000e+00   0.000000e+00
   0.000000e+00   0.000000e+00   0.000000e+00
VECTORS Imag_Arrow_1.000000e+00(Hz) float
   2.185877e-02  -8.763402e-03   0.000000e+00
   3.684377e-02  -5.870086e-02   0.000000e+00
   0.000000e+00   0.000000e+00   0.000000e+00
   3.395074e-02   6.309430e-02   0.000000e+00
   4.064950e-02  -1.091901e-02   0.000000e+00
   0.000000e+00   0.000000e+00   0.000000e+00
   3.147160e-02  -6.592288e-03   0.000000e+00
   3.793079e-02  -5.069902e-02   0.000000e+00
   0.000000e+00   0.000000e+00   0.000000e+00
   5.227867e-02  -2.193398e-02   0.000000e+00
   2.727899e-02  -4.869141e-02   0.000000e+00
   4.416949e-02  -5.261231e-03   0.000000e+00
   0.000000e+00   0.000000e+00   0.000000e+00
   1.058233e-01  -2.779383e-02   0.000000e+00
   0.000000e+00   0.000000e+00   0.000000e+00
   0.000000e+00   0.000000e+00   0.000000e+00
   6.779987e-02  -1.412983e-02   0.000000e+00
   0.000000e+00   0.000000e+00   0.000000e+00
   0.000000e+00   0.000000e+00   0.000000e+00
   0.000000e+00   0.000000e+00   0.000000e+00
   0.000000e+00   0.000000e+00   0.000000e+00
   0.000000e+00   0.000000e+00   0.000000e+00
   1.295160e-02  -5.016941e-02   0.000000e+00
   0.000000e+00   0.000000e+00   0.000000e+00
   0.000000e+00   0.000000e+00   0.000000e+00
   0.000000e+00   0.000000e+00   0.000000e+00
   6.472219e-02  -1.143505e-02   0.000000e+00
   5.531648e-02  -2.867327e-02   0.000000e+00
   0.000000e+00   0.000000e+00   0.000000e+00
   4.007793e-02  -6.281860e-03   0.000000e+00
   2.778334e-02  -1.522837e-02   0.000000e+00
   6.461031e-02  -1.111521e-02   0.000000e+00
   0.000000e+00   0.000000e+00   0.000000e+00
  -2.590975e-02  -6.338713e-02   0.000000e+00
   0.000000e+00   0.000000e+00   0.000000e+00
   0.000000e+00   0.000000e+00   0.000000e+00
   7.335594e-02  -7.520162e-02   0.000000e+00
   0.000000e+00   0.000000e+00   0.000000e+00
   8.341507e-02   5.118372e-02   0.000000e+00
   4.820503e-02  -1.217124e-01   0.000000e+00
   1.236827e-02  -2.799662e-02   0.000000e+00
   3.004560e-02  -3.936582e-02   0.000000e+00
   0.000000e+00   0.000000e+00   0.000000e+00
   7.818852e-02  -2.320590e-02   0.000000e+00
   0.000000e+00   0.000000e+00   0.000000e+00
   0.000000e+00   0.000000e+00   0.000000e+00
