# vtk DataFile Version 2.0
Induction_Arrow_Iter4_PE2
ASCII
DATASET UNSTRUCTURED_GRID
POINTS 46 float
  -2.052000e+03    1.667000e+03   -4.526633e+02
  -1.265000e+03    2.333000e+03   -4.555885e+02
  -9.840000e+02    2.568000e+03   -4.612271e+02
   1.700000e+03   -1.757000e+03   -5.237752e+02
  -1.152000e+03    1.382000e+03   -4.549280e+02
   3.187000e+03    1.067000e+03   -8.370176e+02
   4.716000e+03    9.370000e+02   -8.015281e+02
  -1.855000e+03    5.260000e+02   -5.147377e+02
  -1.420000e+02   -1.905000e+03   -4.746368e+02
  -5.800000e+01    1.069000e+03   -4.555494e+02
  -2.802000e+03    3.302000e+03   -4.314337e+02
  -5.640000e+03   -1.532000e+03   -4.911771e+02
  -8.030000e+02   -5.610000e+02   -5.280929e+02
   1.008000e+03    4.130000e+02   -5.983358e+02
   1.960000e+02    2.246000e+03   -5.219413e+02
  -3.457000e+03    8.320000e+02   -4.470735e+02
   5.640000e+03    2.452000e+03   -7.393049e+02
  -1.334000e+03    3.332000e+03   -4.456136e+02
   1.244000e+03    1.880000e+03   -6.331107e+02
  -2.680000e+02    2.144000e+03   -4.891390e+02
  -4.063000e+03    6.620000e+02   -4.746103e+02
  -1.258000e+03    6.330000e+02   -4.856841e+02
  -2.141000e+03    3.194000e+03   -4.348461e+02
  -3.469000e+03   -3.059000e+03   -6.067613e+02
  -1.604000e+03   -2.570000e+02   -5.141257e+02
  -1.454000e+03    2.220000e+02   -5.386025e+02
   1.864000e+03    1.270000e+02   -7.404291e+02
   2.449000e+03    5.590000e+02   -7.805292e+02
  -1.834000e+03   -1.554000e+03   -6.273074e+02
   1.807000e+03    2.297000e+03   -6.825557e+02
  -2.560000e+03   -1.783000e+03   -6.131337e+02
  -2.741000e+03   -5.010000e+02   -5.080000e+02
   2.884000e+03   -2.179000e+03   -5.274708e+02
  -6.120000e+02   -8.960000e+02   -5.895389e+02
  -1.985000e+03   -2.653000e+03   -5.598834e+02
  -3.390000e+03   -4.000000e+02   -4.982361e+02
   1.586000e+03    1.342000e+03   -6.618442e+02
   1.047000e+03    2.401000e+03   -5.426792e+02
   8.380000e+02   -1.300000e+03   -4.783644e+02
   2.569000e+03    2.441000e+03   -6.035668e+02
  -2.028000e+03    2.833000e+03   -4.322286e+02
  -1.086000e+03    1.998000e+03   -4.563301e+02
   1.514000e+03   -3.332000e+03   -5.646205e+02
   7.040000e+02    1.116000e+03   -5.365099e+02
   1.990000e+03    6.360000e+02   -7.085272e+02
   3.722000e+03   -1.700000e+02   -6.745213e+02
CELLS 46 92
1 0
1 1
1 2
1 3
1 4
1 5
1 6
1 7
1 8
1 9
1 10
1 11
1 12
1 13
1 14
1 15
1 16
1 17
1 18
1 19
1 20
1 21
1 22
1 23
1 24
1 25
1 26
1 27
1 28
1 29
1 30
1 31
1 32
1 33
1 34
1 35
1 36
1 37
1 38
1 39
1 40
1 41
1 42
1 43
1 44
1 45
CELL_TYPES 46
1
1
1
1
1
1
1
1
1
1
1
1
1
1
1
1
1
1
1
1
1
1
1
1
1
1
1
1
1
1
1
1
1
1
1
1
1
1
1
1
1
1
1
1
1
1
POINT_DATA 46
VECTORS Real_Arrow_6.309500e+00(Hz) float
  -1.074977e-01  -6.985678e-02   0.000000e+00
  -1.386921e-01   9.687381e-02   0.000000e+00
   0.000000e+00   0.000000e+00   0.000000e+00
  -1.215856e-02  -4.876878e-01   0.000000e+00
  -1.462453e-01  -7.784646e-02   0.000000e+00
  -5.566489e-02  -3.229989e-02   0.000000e+00
   8.622103e-02  -1.385895e-01   0.000000e+00
  -1.423566e-01   7.409763e-02   0.000000e+00
   1.973716e-01  -1.763479e-01   0.000000e+00
  -1.657061e-01  -5.951866e-02   0.000000e+00
  -1.808268e-01   1.038381e-01   0.000000e+00
  -2.205601e-01   1.563926e-02   0.000000e+00
   0.000000e+00   0.000000e+00   0.000000e+00
  -3.068512e-01  -6.305821e-02   0.000000e+00
  -7.059228e-02   4.778830e-02   0.000000e+00
   0.000000e+00   0.000000e+00   0.000000e+00
  -4.868318e-02  -5.717660e-02   0.000000e+00
   0.000000e+00   0.000000e+00   0.000000e+00
   5.188600e-03  -1.560299e-02   0.000000e+00
  -3.608904e-02   4.309753e-02   0.000000e+00
   0.000000e+00   0.000000e+00   0.000000e+00
  -1.950510e-01  -4.829099e-02   0.000000e+00
  -9.736592e-02   9.131193e-02   0.000000e+00
  -1.527362e-01  -1.258433e-01   0.000000e+00
   0.000000e+00   0.000000e+00   0.000000e+00
  -1.363905e-01   3.064160e-02   0.000000e+00
  -1.213126e-01  -1.453098e-01   0.000000e+00
  -7.300431e-02  -7.297582e-02   0.000000e+00
  -7.740740e-02  -1.654837e-02   0.000000e+00
  -2.232240e-02  -3.059887e-02   0.000000e+00
   0.000000e+00   0.000000e+00   0.000000e+00
  -2.345489e-01  -1.640701e-02   0.000000e+00
   1.800871e-01   7.815943e-02   0.000000e+00
   1.216177e-01   7.652855e-02   0.000000e+00
  -1.315470e-02  -1.061316e-01   0.000000e+00
  -2.932477e-01  -1.716548e-01   0.000000e+00
   0.000000e+00   0.000000e+00   0.000000e+00
  -1.013486e-01   5.381071e-02   0.000000e+00
  -1.968001e-01  -4.092589e-01   0.000000e+00
  -1.087889e-01   3.516969e-01   0.000000e+00
  -7.985966e-02   9.460401e-03   0.000000e+00
  -1.129992e-01   2.959056e-02   0.000000e+00
  -1.484099e-03   4.193408e-02   0.000000e+00
  -2.152113e-01  -4.858665e-02   0.000000e+00
  -1.457498e-01  -2.686289e-03   0.000000e+00
   7.850668e-02  -1.651181e-01   0.000000e+00
VECTORS Imag_Arrow_6.309500e+00(Hz) float
  -7.382963e-02   2.932164e-02   0.000000e+00
  -6.781177e-02  -3.253475e-02   0.000000e+00
   0.000000e+00   0.000000e+00   0.000000e+00
  -4.497519e-02  -4.513380e-02   0.000000e+00
  -7.913522e-02   2.713688e-02   0.000000e+00
   1.076800e-02  -6.144703e-02   0.000000e+00
   1.171216e-02  -2.429794e-02   0.000000e+00
  -9.574413e-02  -6.150586e-02   0.000000e+00
  -1.175411e-01  -1.617335e-02   0.000000e+00
  -9.181524e-02  -1.905454e-02   0.000000e+00
  -4.925384e-02   2.799436e-02   0.000000e+00
  -1.386821e-01  -9.426306e-02   0.000000e+00
   0.000000e+00   0.000000e+00   0.000000e+00
  -1.846790e-02  -1.004724e-01   0.000000e+00
  -9.744903e-02  -4.267616e-03   0.000000e+00
   0.000000e+00   0.000000e+00   0.000000e+00
   8.099028e-02   5.923896e-02   0.000000e+00
   0.000000e+00   0.000000e+00   0.000000e+00
  -1.437946e-01   2.286701e-02   0.000000e+00
  -1.134759e-01  -4.214658e-03   0.000000e+00
   0.000000e+00   0.000000e+00   0.000000e+00
  -7.996867e-02  -1.388463e-02   0.000000e+00
  -5.273079e-02   1.508893e-02   0.000000e+00
  -7.444758e-02  -6.097693e-03   0.000000e+00
   0.000000e+00   0.000000e+00   0.000000e+00
  -9.033742e-02  -4.658383e-02   0.000000e+00
  -2.080664e-02  -9.812306e-02   0.000000e+00
  -1.099606e-02  -1.027144e-01   0.000000e+00
  -6.462020e-02  -5.826616e-02   0.000000e+00
  -8.630859e-02   1.256466e-02   0.000000e+00
   0.000000e+00   0.000000e+00   0.000000e+00
  -5.911664e-02  -4.834424e-02   0.000000e+00
  -1.607012e-02  -7.221702e-02   0.000000e+00
  -1.305523e-01  -1.632192e-01   0.000000e+00
  -7.291412e-02   1.328340e-02   0.000000e+00
  -5.154000e-02   2.581481e-02   0.000000e+00
   0.000000e+00   0.000000e+00   0.000000e+00
  -8.545657e-02  -2.298756e-02   0.000000e+00
  -2.179358e-03  -3.859925e-02   0.000000e+00
  -9.700607e-02   5.210567e-02   0.000000e+00
  -5.769525e-02   5.964329e-02   0.000000e+00
  -8.669838e-02  -1.341386e-03   0.000000e+00
   2.925918e-02  -2.783378e-02   0.000000e+00
  -7.202122e-02  -2.282118e-02   0.000000e+00
  -5.302410e-03  -1.546152e-01   0.000000e+00
  -1.019592e-02  -9.456540e-02   0.000000e+00
VECTORS Real_Arrow_1.000000e+01(Hz) float
  -6.838992e-02  -9.196729e-02   0.000000e+00
  -9.929336e-02   9.298775e-02   0.000000e+00
   0.000000e+00   0.000000e+00   0.000000e+00
   9.309202e-03  -4.645622e-01   0.000000e+00
  -1.057289e-01  -9.852626e-02   0.000000e+00
  -5.948434e-02  -9.214135e-03   0.000000e+00
   8.293785e-02  -1.336630e-01   0.000000e+00
  -8.939289e-02   9.650488e-02   0.000000e+00
   2.505518e-01  -1.682665e-01   0.000000e+00
  -1.227606e-01  -5.976229e-02   0.000000e+00
  -1.654056e-01   7.695275e-02   0.000000e+00
  -1.474966e-01   5.745785e-02   0.000000e+00
   0.000000e+00   0.000000e+00   0.000000e+00
  -2.982341e-01  -2.321966e-02   0.000000e+00
   0.000000e+00   0.000000e+00   0.000000e+00
  -8.682792e-02   2.231659e-02   0.000000e+00
  -8.041738e-02  -8.358694e-02   0.000000e+00
   3.402677e-02   6.092807e-02   0.000000e+00
   7.097840e-02  -2.881748e-02   0.000000e+00
   1.677471e-02   3.146339e-02   0.000000e+00
   0.000000e+00   0.000000e+00   0.000000e+00
  -1.539048e-01  -4.780366e-02   0.000000e+00
  -7.579776e-02   6.568736e-02   0.000000e+00
  -1.088828e-01  -1.202835e-01   0.000000e+00
   0.000000e+00   0.000000e+00   0.000000e+00
  -8.822517e-02   4.911068e-02   0.000000e+00
  -1.117955e-01  -1.060318e-01   0.000000e+00
  -6.695742e-02  -3.273010e-02   0.000000e+00
  -4.331910e-02   1.067235e-02   0.000000e+00
   0.000000e+00   0.000000e+00   0.000000e+00
   0.000000e+00   0.000000e+00   0.000000e+00
  -2.007672e-01   7.531978e-03   0.000000e+00
   1.643355e-01   9.418078e-02   0.000000e+00
   1.875681e-01   1.504997e-01   0.000000e+00
   2.366753e-02  -1.120162e-01   0.000000e+00
  -2.705534e-01  -1.782524e-01   0.000000e+00
   0.000000e+00   0.000000e+00   0.000000e+00
  -5.351469e-02   5.689320e-02   0.000000e+00
  -1.900699e-01  -3.959091e-01   0.000000e+00
  -5.340590e-02   3.027091e-01   0.000000e+00
  -5.534322e-02  -2.883197e-02   0.000000e+00
  -6.845639e-02   1.746674e-02   0.000000e+00
  -1.978922e-02   5.284766e-02   0.000000e+00
  -1.793633e-01  -4.598963e-02   0.000000e+00
  -1.419651e-01   5.638350e-02   0.000000e+00
   9.019071e-02  -1.254564e-01   0.000000e+00
VECTORS Imag_Arrow_1.000000e+01(Hz) float
  -7.312203e-02   3.735326e-02   0.000000e+00
  -5.992381e-02  -2.259948e-02   0.000000e+00
   0.000000e+00   0.000000e+00   0.000000e+00
  -4.730015e-02  -9.531318e-02   0.000000e+00
  -9.018496e-02   3.735111e-02   0.000000e+00
  -6.705682e-03  -5.413994e-02   0.000000e+00
   9.579268e-03  -3.063242e-02   0.000000e+00
  -9.985386e-02  -3.238461e-02   0.000000e+00
  -8.486736e-02  -1.085095e-02   0.000000e+00
  -1.217015e-01  -1.422860e-02   0.000000e+00
  -5.101480e-02   4.998455e-02   0.000000e+00
  -1.341751e-01  -5.677208e-02   0.000000e+00
   0.000000e+00   0.000000e+00   0.000000e+00
  -7.664820e-02  -1.120953e-01   0.000000e+00
   0.000000e+00   0.000000e+00   0.000000e+00
  -1.162018e-01  -4.073001e-02   0.000000e+00
   7.886488e-02   8.552484e-02   0.000000e+00
  -5.044202e-02   2.687758e-02   0.000000e+00
  -1.712334e-01   5.222810e-02   0.000000e+00
  -1.195990e-01   1.027527e-02   0.000000e+00
   0.000000e+00   0.000000e+00   0.000000e+00
  -9.961717e-02   5.189497e-04   0.000000e+00
  -3.836539e-02   3.120501e-02   0.000000e+00
  -9.940036e-02  -6.843229e-03   0.000000e+00
   0.000000e+00   0.000000e+00   0.000000e+00
  -1.018658e-01  -1.704439e-02   0.000000e+00
  -4.882385e-02  -1.206179e-01   0.000000e+00
  -3.023121e-02  -1.137575e-01   0.000000e+00
  -6.727780e-02  -4.536041e-02   0.000000e+00
   0.000000e+00   0.000000e+00   0.000000e+00
   0.000000e+00   0.000000e+00   0.000000e+00
  -8.689093e-02  -3.660841e-02   0.000000e+00
   3.550017e-02  -4.069458e-02   0.000000e+00
  -1.079581e-01  -1.495984e-01   0.000000e+00
  -6.952500e-02   2.778498e-02   0.000000e+00
  -1.059509e-01   2.451672e-02   0.000000e+00
   0.000000e+00   0.000000e+00   0.000000e+00
  -1.054905e-01  -1.169646e-02   0.000000e+00
  -2.079486e-02  -9.490707e-02   0.000000e+00
  -1.187269e-01   1.367975e-01   0.000000e+00
  -4.699973e-02   8.083046e-02   0.000000e+00
  -8.869948e-02   1.433738e-02   0.000000e+00
   5.718006e-02   5.314449e-04   0.000000e+00
  -1.135708e-01  -1.512877e-02   0.000000e+00
  -3.300174e-02  -1.744918e-01   0.000000e+00
  -6.684998e-03  -1.175745e-01   0.000000e+00
VECTORS Real_Arrow_1.584800e+01(Hz) float
  -3.504280e-02  -1.160321e-01   0.000000e+00
  -7.090028e-02   8.785698e-02   0.000000e+00
   0.000000e+00   0.000000e+00   0.000000e+00
   2.961057e-02  -4.176866e-01   0.000000e+00
  -6.540029e-02  -1.222837e-01   0.000000e+00
  -5.329117e-02   1.031923e-02   0.000000e+00
   8.340339e-02  -1.265547e-01   0.000000e+00
  -4.281187e-02   9.976868e-02   0.000000e+00
   2.808760e-01  -1.673165e-01   0.000000e+00
  -6.731094e-02  -6.010795e-02   0.000000e+00
  -1.527513e-01   4.837883e-02   0.000000e+00
   0.000000e+00   0.000000e+00   0.000000e+00
   0.000000e+00   0.000000e+00   0.000000e+00
  -2.613362e-01   2.295561e-02   0.000000e+00
   0.000000e+00   0.000000e+00   0.000000e+00
  -3.948485e-02   3.616939e-02   0.000000e+00
  -1.080731e-01  -1.218618e-01   0.000000e+00
   4.763939e-02   3.716225e-02   0.000000e+00
   1.475141e-01  -5.798303e-02   0.000000e+00
   6.891370e-02   1.669571e-02   0.000000e+00
  -1.146829e-01   7.206493e-03   0.000000e+00
  -1.090522e-01  -5.577957e-02   0.000000e+00
  -6.749516e-02   3.861523e-02   0.000000e+00
  -6.119806e-02  -1.168732e-01   0.000000e+00
   0.000000e+00   0.000000e+00   0.000000e+00
  -4.046754e-02   4.939743e-02   0.000000e+00
  -8.958415e-02  -5.609055e-02   0.000000e+00
  -5.138902e-02   1.224874e-02   0.000000e+00
  -1.731605e-02   2.540024e-02   0.000000e+00
   0.000000e+00   0.000000e+00   0.000000e+00
   0.000000e+00   0.000000e+00   0.000000e+00
  -1.593221e-01   1.959134e-02   0.000000e+00
   1.228713e-01   9.569574e-02   0.000000e+00
   2.336761e-01   2.133023e-01   0.000000e+00
   5.096079e-02  -1.326777e-01   0.000000e+00
  -2.204486e-01  -1.900568e-01   0.000000e+00
   0.000000e+00   0.000000e+00   0.000000e+00
   2.802519e-03   5.610545e-02   0.000000e+00
  -1.779320e-01  -3.520388e-01   0.000000e+00
   2.074126e-03   2.247726e-01   0.000000e+00
  -4.132046e-02  -6.900716e-02   0.000000e+00
  -2.940635e-02   1.198889e-03   0.000000e+00
  -5.199913e-02   4.586057e-02   0.000000e+00
  -1.253337e-01  -4.633705e-02   0.000000e+00
  -1.248083e-01   1.252631e-01   0.000000e+00
   9.911596e-02  -7.637685e-02   0.000000e+00
VECTORS Imag_Arrow_1.584800e+01(Hz) float
  -5.349253e-02   2.875891e-02   0.000000e+00
  -3.075073e-02  -3.070743e-02   0.000000e+00
   0.000000e+00   0.000000e+00   0.000000e+00
  -4.335837e-02  -1.374248e-01   0.000000e+00
  -8.423474e-02   3.212020e-02   0.000000e+00
  -2.667941e-02  -4.186651e-02   0.000000e+00
   8.060432e-03  -4.107970e-02   0.000000e+00
  -7.711883e-02   6.213397e-04   0.000000e+00
  -3.251445e-02  -2.504638e-03   0.000000e+00
  -1.393530e-01  -1.765210e-02   0.000000e+00
  -5.973733e-02   5.180607e-02   0.000000e+00
   0.000000e+00   0.000000e+00   0.000000e+00
   0.000000e+00   0.000000e+00   0.000000e+00
  -1.373729e-01  -1.143984e-01   0.000000e+00
   0.000000e+00   0.000000e+00   0.000000e+00
  -1.337949e-01  -2.273058e-02   0.000000e+00
   6.786865e-02   1.038607e-01   0.000000e+00
  -2.383403e-02   1.514647e-02   0.000000e+00
  -1.751483e-01   7.538652e-02   0.000000e+00
  -1.062470e-01   9.200888e-03   0.000000e+00
  -3.172786e-03  -3.572773e-02   0.000000e+00
  -1.034981e-01   9.740530e-03   0.000000e+00
  -2.212358e-02   2.162111e-02   0.000000e+00
  -1.012275e-01  -4.218654e-03   0.000000e+00
   0.000000e+00   0.000000e+00   0.000000e+00
  -9.145526e-02   1.776837e-02   0.000000e+00
  -7.696803e-02  -1.340653e-01   0.000000e+00
  -4.908316e-02  -1.155026e-01   0.000000e+00
  -5.611228e-02  -2.162505e-02   0.000000e+00
   0.000000e+00   0.000000e+00   0.000000e+00
   0.000000e+00   0.000000e+00   0.000000e+00
  -9.901970e-02  -1.402281e-02   0.000000e+00
   5.325040e-02  -1.943157e-02   0.000000e+00
  -5.515639e-02  -1.073563e-01   0.000000e+00
  -5.254171e-02   3.846830e-02   0.000000e+00
  -1.569447e-01   2.309496e-02   0.000000e+00
   0.000000e+00   0.000000e+00   0.000000e+00
  -1.009259e-01  -3.521616e-03   0.000000e+00
  -3.620774e-02  -1.537298e-01   0.000000e+00
  -1.127978e-01   1.860024e-01   0.000000e+00
  -3.172030e-02   7.848767e-02   0.000000e+00
  -7.105100e-02   1.412879e-02   0.000000e+00
   7.052722e-02   3.235322e-02   0.000000e+00
  -1.435680e-01  -1.341647e-02   0.000000e+00
  -6.174017e-02  -1.821855e-01   0.000000e+00
   7.451511e-03  -1.287684e-01   0.000000e+00
VECTORS Real_Arrow_2.511800e+01(Hz) float
  -2.133468e-02  -1.299459e-01   0.000000e+00
  -6.866555e-02   9.703427e-02   0.000000e+00
   0.000000e+00   0.000000e+00   0.000000e+00
   4.602506e-02  -3.556781e-01   0.000000e+00
  -3.679148e-02  -1.383642e-01   0.000000e+00
  -3.635557e-02   2.377499e-02   0.000000e+00
   8.557742e-02  -1.144017e-01   0.000000e+00
  -2.114103e-02   8.533443e-02   0.000000e+00
   2.804965e-01  -1.748935e-01   0.000000e+00
  -4.067192e-03  -5.433522e-02   0.000000e+00
  -1.294797e-01   2.871487e-02   0.000000e+00
  -6.983800e-02   4.986183e-02   0.000000e+00
   0.000000e+00   0.000000e+00   0.000000e+00
  -1.951388e-01   7.064000e-02   0.000000e+00
   6.563018e-02   1.550867e-02   0.000000e+00
   1.669412e-02   3.877239e-02   0.000000e+00
  -1.274644e-01  -1.669878e-01   0.000000e+00
   4.567620e-02   3.199065e-02   0.000000e+00
   2.184850e-01  -9.767999e-02   0.000000e+00
   1.081939e-01   1.061881e-02   0.000000e+00
  -1.189581e-01   1.372942e-02   0.000000e+00
  -6.843564e-02  -6.694407e-02   0.000000e+00
  -6.697344e-02   2.832312e-02   0.000000e+00
  -2.449057e-02  -1.167106e-01   0.000000e+00
   0.000000e+00   0.000000e+00   0.000000e+00
  -6.509445e-03   3.075220e-02   0.000000e+00
  -5.405177e-02  -1.526260e-03   0.000000e+00
  -2.616927e-02   5.600512e-02   0.000000e+00
  -4.148707e-03   2.338587e-02   0.000000e+00
   0.000000e+00   0.000000e+00   0.000000e+00
  -5.525583e-03  -2.163500e-03   0.000000e+00
  -1.207819e-01   1.529019e-02   0.000000e+00
   9.293934e-02   9.459775e-02   0.000000e+00
   2.444664e-01   2.496023e-01   0.000000e+00
   6.617824e-02  -1.620046e-01   0.000000e+00
  -1.460021e-01  -2.035308e-01   0.000000e+00
   0.000000e+00   0.000000e+00   0.000000e+00
   4.824588e-02   5.293160e-02   0.000000e+00
  -1.616864e-01  -2.768227e-01   0.000000e+00
   4.219528e-02   1.416917e-01   0.000000e+00
  -3.633859e-02  -9.532943e-02   0.000000e+00
  -9.299970e-03  -5.994286e-03   0.000000e+00
  -8.473639e-02   2.132409e-02   0.000000e+00
  -6.050627e-02  -4.454471e-02   0.000000e+00
  -9.361802e-02   1.967139e-01   0.000000e+00
   9.741074e-02  -2.716105e-02   0.000000e+00
VECTORS Imag_Arrow_2.511800e+01(Hz) float
  -2.178440e-02   6.495899e-03   0.000000e+00
   9.319000e-03  -5.041647e-02   0.000000e+00
   0.000000e+00   0.000000e+00   0.000000e+00
  -3.225900e-02  -1.623007e-01   0.000000e+00
  -6.526745e-02   1.426500e-02   0.000000e+00
  -4.273469e-02  -2.404374e-02   0.000000e+00
   1.177244e-02  -5.494037e-02   0.000000e+00
  -3.738718e-02   2.673697e-02   0.000000e+00
   2.602828e-02   1.991548e-03   0.000000e+00
  -1.377519e-01  -2.403711e-02   0.000000e+00
  -7.252546e-02   4.540019e-02   0.000000e+00
  -7.380854e-02   7.919612e-03   0.000000e+00
   0.000000e+00   0.000000e+00   0.000000e+00
  -1.867498e-01  -1.014791e-01   0.000000e+00
  -6.789022e-02   2.451826e-03   0.000000e+00
  -1.400675e-01  -4.837483e-03   0.000000e+00
   5.309561e-02   1.102517e-01   0.000000e+00
  -5.539114e-04  -9.434723e-03   0.000000e+00
  -1.518044e-01   8.394207e-02   0.000000e+00
  -7.459752e-02  -2.251025e-03   0.000000e+00
  -3.273249e-03  -2.695916e-02   0.000000e+00
  -9.453800e-02   1.044075e-02   0.000000e+00
  -1.116649e-02  -3.560714e-03   0.000000e+00
  -8.842605e-02  -1.327538e-03   0.000000e+00
   0.000000e+00   0.000000e+00   0.000000e+00
  -6.385865e-02   4.904174e-02   0.000000e+00
  -9.900856e-02  -1.322873e-01   0.000000e+00
  -6.200892e-02  -1.044448e-01   0.000000e+00
  -4.347518e-02   1.050570e-03   0.000000e+00
   0.000000e+00   0.000000e+00   0.000000e+00
  -6.302034e-02   1.683082e-02   0.000000e+00
  -9.827220e-02   7.791110e-03   0.000000e+00
   4.148377e-02  -5.272788e-03   0.000000e+00
   1.234372e-02  -4.371735e-02   0.000000e+00
  -3.164933e-02   3.144429e-02   0.000000e+00
  -1.901779e-01   1.238393e-02   0.000000e+00
   0.000000e+00   0.000000e+00   0.000000e+00
  -6.718744e-02   1.174928e-03   0.000000e+00
  -4.743925e-02  -1.977618e-01   0.000000e+00
  -9.011953e-02   2.072005e-01   0.000000e+00
  -1.771538e-02   6.408788e-02   0.000000e+00
  -4.063827e-02   3.068402e-03   0.000000e+00
   6.955602e-02   5.609464e-02   0.000000e+00
  -1.539503e-01  -1.547460e-02   0.000000e+00
  -8.429078e-02  -1.706834e-01   0.000000e+00
   2.998314e-02  -1.260935e-01   0.000000e+00
VECTORS Real_Arrow_3.981000e+01(Hz) float
  -3.072664e-02  -1.274823e-01   0.000000e+00
  -9.457883e-02   1.249415e-01   0.000000e+00
  -3.461718e-02   9.228456e-02   0.000000e+00
   5.257641e-02  -2.900883e-01   0.000000e+00
  -2.488862e-02  -1.421260e-01   0.000000e+00
  -1.287366e-02   2.671532e-02   0.000000e+00
   8.395115e-02  -9.471921e-02   0.000000e+00
   0.000000e+00   0.000000e+00   0.000000e+00
   2.511147e-01  -1.870806e-01   0.000000e+00
   5.468021e-02  -4.473604e-02   0.000000e+00
  -9.650343e-02   1.460289e-02   0.000000e+00
  -5.639907e-02   3.486321e-02   0.000000e+00
   0.000000e+00   0.000000e+00   0.000000e+00
  -1.100051e-01   1.085389e-01   0.000000e+00
   8.149364e-02   1.701256e-02   0.000000e+00
   7.505392e-02   3.513458e-02   0.000000e+00
  -1.394081e-01  -2.128501e-01   0.000000e+00
   3.662819e-02   4.437428e-02   0.000000e+00
   0.000000e+00   0.000000e+00   0.000000e+00
   1.247597e-01   1.616075e-02   0.000000e+00
  -1.192962e-01   1.791280e-02   0.000000e+00
  -3.456673e-02  -7.508766e-02   0.000000e+00
  -6.789570e-02   3.725069e-02   0.000000e+00
  -6.088895e-04  -1.185441e-01   0.000000e+00
   0.000000e+00   0.000000e+00   0.000000e+00
   6.702990e-03  -4.240662e-03   0.000000e+00
  -1.035815e-02   4.670739e-02   0.000000e+00
   4.001998e-03   8.957149e-02   0.000000e+00
   0.000000e+00   0.000000e+00   0.000000e+00
   1.325587e-01  -1.134011e-01   0.000000e+00
   1.304202e-02  -1.797675e-02   0.000000e+00
  -8.855184e-02   4.551954e-04   0.000000e+00
   0.000000e+00   0.000000e+00   0.000000e+00
   2.185459e-01   2.504692e-01   0.000000e+00
   7.249734e-02  -1.831970e-01   0.000000e+00
  -6.154107e-02  -2.086610e-01   0.000000e+00
   0.000000e+00   0.000000e+00   0.000000e+00
   6.191143e-02   5.079367e-02   0.000000e+00
  -1.447482e-01  -1.840260e-01   0.000000e+00
   6.340423e-02   5.830605e-02   0.000000e+00
  -3.648334e-02  -1.091452e-01   0.000000e+00
  -1.244139e-02  -9.602169e-04   0.000000e+00
  -1.135256e-01  -1.040664e-02   0.000000e+00
   1.978884e-03  -4.116174e-02   0.000000e+00
  -5.435779e-02   2.576766e-01   0.000000e+00
   8.026586e-02   1.546246e-02   0.000000e+00
VECTORS Imag_Arrow_3.981000e+01(Hz) float
   2.481868e-03  -2.008012e-02   0.000000e+00
   3.644506e-02  -6.559896e-02   0.000000e+00
   3.019411e-02  -3.805475e-02   0.000000e+00
  -1.748064e-02  -1.684505e-01   0.000000e+00
  -4.689106e-02  -9.607829e-03   0.000000e+00
  -4.930922e-02  -3.959063e-03   0.000000e+00
   2.139370e-02  -7.045039e-02   0.000000e+00
   0.000000e+00   0.000000e+00   0.000000e+00
   7.473278e-02  -5.302512e-03   0.000000e+00
  -1.110602e-01  -2.776023e-02   0.000000e+00
  -7.487546e-02   3.759446e-02   0.000000e+00
  -4.662844e-02   1.747553e-02   0.000000e+00
   0.000000e+00   0.000000e+00   0.000000e+00
  -2.113361e-01  -7.166371e-02   0.000000e+00
  -2.896800e-02  -9.797265e-03   0.000000e+00
  -1.266849e-01   9.054961e-03   0.000000e+00
   3.966560e-02   1.024926e-01   0.000000e+00
   1.262715e-02  -2.901179e-02   0.000000e+00
   0.000000e+00   0.000000e+00   0.000000e+00
  -3.573149e-02  -1.365943e-02   0.000000e+00
  -9.408192e-03  -2.415173e-02   0.000000e+00
  -7.782526e-02   1.611033e-03   0.000000e+00
  -5.957741e-03  -2.857709e-02   0.000000e+00
  -7.399996e-02   7.038458e-06   0.000000e+00
   0.000000e+00   0.000000e+00   0.000000e+00
  -3.179108e-02   6.699463e-02   0.000000e+00
  -1.083146e-01  -1.151592e-01   0.000000e+00
  -6.355183e-02  -8.340401e-02   0.000000e+00
   0.000000e+00   0.000000e+00   0.000000e+00
  -2.952529e-02   5.479049e-02   0.000000e+00
  -5.553031e-02   2.423891e-02   0.000000e+00
  -9.292539e-02   1.936939e-02   0.000000e+00
   0.000000e+00   0.000000e+00   0.000000e+00
   7.320175e-02   2.637318e-02   0.000000e+00
  -1.105525e-02   1.607594e-03   0.000000e+00
  -1.947752e-01  -6.771138e-03   0.000000e+00
   0.000000e+00   0.000000e+00   0.000000e+00
  -1.869418e-02   1.031194e-03   0.000000e+00
  -5.510918e-02  -2.094524e-01   0.000000e+00
  -6.505354e-02   2.089681e-01   0.000000e+00
  -9.026614e-03   5.263085e-02   0.000000e+00
  -1.625576e-02  -6.981625e-03   0.000000e+00
   5.891435e-02   6.409302e-02   0.000000e+00
  -1.420815e-01  -1.798241e-02   0.000000e+00
  -9.369819e-02  -1.400434e-01   0.000000e+00
   5.300685e-02  -1.145298e-01   0.000000e+00
VECTORS Real_Arrow_6.309500e+01(Hz) float
  -4.682456e-02  -1.106440e-01   0.000000e+00
  -1.279867e-01   1.616345e-01   0.000000e+00
  -5.988155e-02   1.157521e-01   0.000000e+00
   4.933590e-02  -2.300563e-01   0.000000e+00
  -2.017629e-02  -1.326347e-01   0.000000e+00
   9.734201e-03   1.971035e-02   0.000000e+00
   7.454692e-02  -6.537260e-02   0.000000e+00
   0.000000e+00   0.000000e+00   0.000000e+00
   0.000000e+00   0.000000e+00   0.000000e+00
   9.092467e-02  -3.522881e-02   0.000000e+00
  -6.772659e-02   5.853285e-03   0.000000e+00
  -5.290678e-02   2.077462e-02   0.000000e+00
   0.000000e+00   0.000000e+00   0.000000e+00
  -2.356015e-02   1.262855e-01   0.000000e+00
   7.517927e-02   2.794754e-02   0.000000e+00
   1.190556e-01   2.771064e-02   0.000000e+00
  -1.473549e-01  -2.520612e-01   0.000000e+00
   2.867804e-02   6.281794e-02   0.000000e+00
   0.000000e+00   0.000000e+00   0.000000e+00
   1.201055e-01   2.797352e-02   0.000000e+00
  -1.143759e-01   2.469022e-02   0.000000e+00
  -7.856292e-03  -7.163155e-02   0.000000e+00
  -6.684212e-02   5.903273e-02   0.000000e+00
   0.000000e+00   0.000000e+00   0.000000e+00
   0.000000e+00   0.000000e+00   0.000000e+00
   3.658044e-03  -4.501697e-02   0.000000e+00
   3.180337e-02   8.191032e-02   0.000000e+00
   3.058248e-02   1.102516e-01   0.000000e+00
   0.000000e+00   0.000000e+00   0.000000e+00
   1.269485e-01  -1.364409e-01   0.000000e+00
   3.183202e-02  -2.985848e-02   0.000000e+00
  -5.880209e-02  -1.634732e-02   0.000000e+00
   7.773900e-02   8.299449e-02   0.000000e+00
   1.685994e-01   2.185158e-01   0.000000e+00
   0.000000e+00   0.000000e+00   0.000000e+00
   1.371905e-02  -2.023445e-01   0.000000e+00
   3.879992e-02   2.917992e-01   0.000000e+00
   0.000000e+00   0.000000e+00   0.000000e+00
  -1.279113e-01  -9.973480e-02   0.000000e+00
   7.245098e-02  -2.115866e-02   0.000000e+00
  -3.593347e-02  -1.207027e-01   0.000000e+00
  -2.362467e-02   9.757293e-03   0.000000e+00
  -1.362605e-01  -3.914197e-02   0.000000e+00
   4.941175e-02  -3.860062e-02   0.000000e+00
  -1.732240e-02   3.001604e-01   0.000000e+00
   4.950722e-02   5.125326e-02   0.000000e+00
VECTORS Imag_Arrow_6.309500e+01(Hz) float
   6.833547e-03  -4.041701e-02   0.000000e+00
   3.520439e-02  -6.209292e-02   0.000000e+00
   3.377832e-02  -2.896965e-02   0.000000e+00
  -8.281718e-03  -1.598221e-01   0.000000e+00
  -3.996422e-02  -3.269079e-02   0.000000e+00
  -4.495379e-02   1.150099e-02   0.000000e+00
   3.256520e-02  -8.316391e-02   0.000000e+00
   0.000000e+00   0.000000e+00   0.000000e+00
   0.000000e+00   0.000000e+00   0.000000e+00
  -6.401808e-02  -2.929195e-02   0.000000e+00
  -6.368939e-02   2.948635e-02   0.000000e+00
  -2.604349e-02   1.780814e-02   0.000000e+00
   0.000000e+00   0.000000e+00   0.000000e+00
  -2.076006e-01  -3.314804e-02   0.000000e+00
   2.493917e-03  -1.671691e-02   0.000000e+00
  -9.427867e-02   2.045470e-02   0.000000e+00
   2.943664e-02   8.091237e-02   0.000000e+00
   2.048857e-02  -3.760326e-02   0.000000e+00
   0.000000e+00   0.000000e+00   0.000000e+00
  -4.261250e-03  -1.673321e-02   0.000000e+00
  -1.453435e-02  -2.349238e-02   0.000000e+00
  -5.318000e-02  -1.180662e-02   0.000000e+00
  -2.411833e-03  -4.338017e-02   0.000000e+00
   0.000000e+00   0.000000e+00   0.000000e+00
   0.000000e+00   0.000000e+00   0.000000e+00
  -8.067586e-03   6.196754e-02   0.000000e+00
  -1.036555e-01  -9.071875e-02   0.000000e+00
  -5.269798e-02  -6.131986e-02   0.000000e+00
   0.000000e+00   0.000000e+00   0.000000e+00
   6.350874e-03   2.995596e-02   0.000000e+00
  -4.649596e-02   2.287994e-02   0.000000e+00
  -8.672819e-02   1.823641e-02   0.000000e+00
   1.505663e-02   1.222686e-02   0.000000e+00
   1.120505e-01   8.578071e-02   0.000000e+00
   0.000000e+00   0.000000e+00   0.000000e+00
  -1.718598e-01  -2.731213e-02   0.000000e+00
  -7.563198e-02   2.812163e-02   0.000000e+00
   0.000000e+00   0.000000e+00   0.000000e+00
  -6.329527e-02  -1.859503e-01   0.000000e+00
  -4.904326e-02   1.903686e-01   0.000000e+00
  -3.961030e-03   4.883678e-02   0.000000e+00
  -1.232012e-02  -7.190381e-03   0.000000e+00
   3.990830e-02   5.935548e-02   0.000000e+00
  -1.144336e-01  -2.177577e-02   0.000000e+00
  -8.943704e-02  -9.932469e-02   0.000000e+00
   6.593013e-02  -9.913800e-02   0.000000e+00
