# vtk DataFile Version 2.0
Induction_Arrow_Iter10_PE4
ASCII
DATASET UNSTRUCTURED_GRID
POINTS 46 float
  -2.052000e+03    1.667000e+03   -4.526633e+02
  -1.265000e+03    2.333000e+03   -4.555885e+02
  -9.840000e+02    2.568000e+03   -4.612271e+02
   1.700000e+03   -1.757000e+03   -5.237752e+02
  -1.152000e+03    1.382000e+03   -4.549280e+02
   3.187000e+03    1.067000e+03   -8.370176e+02
   4.716000e+03    9.370000e+02   -8.015281e+02
  -1.855000e+03    5.260000e+02   -5.147377e+02
  -1.420000e+02   -1.905000e+03   -4.746368e+02
  -5.800000e+01    1.069000e+03   -4.555494e+02
  -2.802000e+03    3.302000e+03   -4.314337e+02
  -5.640000e+03   -1.532000e+03   -4.911771e+02
  -8.030000e+02   -5.610000e+02   -5.280929e+02
   1.008000e+03    4.130000e+02   -5.983358e+02
   1.960000e+02    2.246000e+03   -5.219413e+02
  -3.457000e+03    8.320000e+02   -4.470735e+02
   5.640000e+03    2.452000e+03   -7.393049e+02
  -1.334000e+03    3.332000e+03   -4.456136e+02
   1.244000e+03    1.880000e+03   -6.331107e+02
  -2.680000e+02    2.144000e+03   -4.891390e+02
  -4.063000e+03    6.620000e+02   -4.746103e+02
  -1.258000e+03    6.330000e+02   -4.856841e+02
  -2.141000e+03    3.194000e+03   -4.348461e+02
  -3.469000e+03   -3.059000e+03   -6.067613e+02
  -1.604000e+03   -2.570000e+02   -5.141257e+02
  -1.454000e+03    2.220000e+02   -5.386025e+02
   1.864000e+03    1.270000e+02   -7.404291e+02
   2.449000e+03    5.590000e+02   -7.805292e+02
  -1.834000e+03   -1.554000e+03   -6.273074e+02
   1.807000e+03    2.297000e+03   -6.825557e+02
  -2.560000e+03   -1.783000e+03   -6.131337e+02
  -2.741000e+03   -5.010000e+02   -5.080000e+02
   2.884000e+03   -2.179000e+03   -5.274708e+02
  -6.120000e+02   -8.960000e+02   -5.895389e+02
  -1.985000e+03   -2.653000e+03   -5.598834e+02
  -3.390000e+03   -4.000000e+02   -4.982361e+02
   1.586000e+03    1.342000e+03   -6.618442e+02
   1.047000e+03    2.401000e+03   -5.426792e+02
   8.380000e+02   -1.300000e+03   -4.783644e+02
   2.569000e+03    2.441000e+03   -6.035668e+02
  -2.028000e+03    2.833000e+03   -4.322286e+02
  -1.086000e+03    1.998000e+03   -4.563301e+02
   1.514000e+03   -3.332000e+03   -5.646205e+02
   7.040000e+02    1.116000e+03   -5.365099e+02
   1.990000e+03    6.360000e+02   -7.085272e+02
   3.722000e+03   -1.700000e+02   -6.745213e+02
CELLS 46 92
1 0
1 1
1 2
1 3
1 4
1 5
1 6
1 7
1 8
1 9
1 10
1 11
1 12
1 13
1 14
1 15
1 16
1 17
1 18
1 19
1 20
1 21
1 22
1 23
1 24
1 25
1 26
1 27
1 28
1 29
1 30
1 31
1 32
1 33
1 34
1 35
1 36
1 37
1 38
1 39
1 40
1 41
1 42
1 43
1 44
1 45
CELL_TYPES 46
1
1
1
1
1
1
1
1
1
1
1
1
1
1
1
1
1
1
1
1
1
1
1
1
1
1
1
1
1
1
1
1
1
1
1
1
1
1
1
1
1
1
1
1
1
1
POINT_DATA 46
VECTORS Real_Arrow_6.309500e+00(Hz) float
  -1.074967e-01  -7.518918e-02   0.000000e+00
  -1.448625e-01   9.746657e-02   0.000000e+00
   0.000000e+00   0.000000e+00   0.000000e+00
  -8.672790e-03  -4.868429e-01   0.000000e+00
  -1.520360e-01  -8.271757e-02   0.000000e+00
  -5.484815e-02  -2.965257e-02   0.000000e+00
   7.941878e-02  -1.389984e-01   0.000000e+00
  -1.518879e-01   8.464691e-02   0.000000e+00
   2.070875e-01  -1.725621e-01   0.000000e+00
  -1.653417e-01  -6.597685e-02   0.000000e+00
  -1.755509e-01   9.725767e-02   0.000000e+00
  -2.095488e-01   2.544002e-02   0.000000e+00
   0.000000e+00   0.000000e+00   0.000000e+00
  -3.093592e-01  -6.730728e-02   0.000000e+00
  -7.716215e-02   4.669948e-02   0.000000e+00
   0.000000e+00   0.000000e+00   0.000000e+00
  -5.280744e-02  -7.050597e-02   0.000000e+00
   0.000000e+00   0.000000e+00   0.000000e+00
   3.070518e-03  -3.354001e-02   0.000000e+00
  -3.872028e-02   3.949066e-02   0.000000e+00
   0.000000e+00   0.000000e+00   0.000000e+00
  -2.013812e-01  -5.811540e-02   0.000000e+00
  -9.584187e-02   8.472821e-02   0.000000e+00
  -1.673077e-01  -1.209702e-01   0.000000e+00
   0.000000e+00   0.000000e+00   0.000000e+00
  -1.361217e-01   2.103194e-02   0.000000e+00
  -1.235312e-01  -1.439681e-01   0.000000e+00
  -7.460373e-02  -7.083144e-02   0.000000e+00
  -7.036442e-02  -1.176766e-02   0.000000e+00
  -3.346397e-02  -8.614828e-02   0.000000e+00
   0.000000e+00   0.000000e+00   0.000000e+00
  -2.564112e-01  -3.031306e-02   0.000000e+00
   1.775516e-01   8.072646e-02   0.000000e+00
   1.445175e-01   8.720530e-02   0.000000e+00
  -1.457491e-02  -1.002434e-01   0.000000e+00
  -3.161473e-01  -1.834153e-01   0.000000e+00
   0.000000e+00   0.000000e+00   0.000000e+00
  -1.296557e-01   4.354701e-02   0.000000e+00
  -2.066299e-01  -4.168942e-01   0.000000e+00
  -9.918257e-02   3.537850e-01   0.000000e+00
  -8.210229e-02   5.172763e-03   0.000000e+00
  -1.143934e-01   2.584279e-02   0.000000e+00
   1.563971e-03   4.029503e-02   0.000000e+00
  -2.257004e-01  -6.197160e-02   0.000000e+00
  -1.478579e-01  -1.312121e-04   0.000000e+00
   7.729987e-02  -1.518663e-01   0.000000e+00
VECTORS Imag_Arrow_6.309500e+00(Hz) float
  -7.359212e-02   3.032865e-02   0.000000e+00
  -7.022173e-02  -3.481729e-02   0.000000e+00
   0.000000e+00   0.000000e+00   0.000000e+00
  -4.071757e-02  -5.181766e-02   0.000000e+00
  -7.830129e-02   2.758157e-02   0.000000e+00
   1.129084e-02  -6.072312e-02   0.000000e+00
   1.262157e-02  -2.225718e-02   0.000000e+00
  -9.334178e-02  -6.457549e-02   0.000000e+00
  -1.066484e-01  -1.004369e-02   0.000000e+00
  -8.988905e-02  -1.818340e-02   0.000000e+00
  -5.896328e-02   3.311095e-02   0.000000e+00
  -1.386289e-01  -9.816859e-02   0.000000e+00
   0.000000e+00   0.000000e+00   0.000000e+00
  -1.608334e-02  -9.770951e-02   0.000000e+00
  -9.888929e-02  -3.428976e-03   0.000000e+00
   0.000000e+00   0.000000e+00   0.000000e+00
   7.692182e-02   5.818857e-02   0.000000e+00
   0.000000e+00   0.000000e+00   0.000000e+00
  -1.465478e-01   2.034348e-02   0.000000e+00
  -1.143103e-01  -3.048219e-03   0.000000e+00
   0.000000e+00   0.000000e+00   0.000000e+00
  -7.815447e-02  -1.178060e-02   0.000000e+00
  -5.972464e-02   1.671733e-02   0.000000e+00
  -8.793420e-02  -2.348544e-03   0.000000e+00
   0.000000e+00   0.000000e+00   0.000000e+00
  -8.725029e-02  -4.138641e-02   0.000000e+00
  -1.686982e-02  -9.944730e-02   0.000000e+00
  -8.312753e-03  -1.035382e-01   0.000000e+00
  -6.626970e-02  -5.225980e-02   0.000000e+00
  -8.390597e-02  -7.629406e-03   0.000000e+00
   0.000000e+00   0.000000e+00   0.000000e+00
  -4.966490e-02  -4.951803e-02   0.000000e+00
  -9.415176e-03  -5.920146e-02   0.000000e+00
  -1.330577e-01  -1.620869e-01   0.000000e+00
  -7.565640e-02   1.736352e-02   0.000000e+00
  -3.563481e-02   1.959214e-02   0.000000e+00
   0.000000e+00   0.000000e+00   0.000000e+00
  -8.398059e-02  -3.689487e-02   0.000000e+00
   1.951536e-03  -4.066825e-02   0.000000e+00
  -9.535985e-02   8.948966e-02   0.000000e+00
  -6.125267e-02   6.215002e-02   0.000000e+00
  -8.895224e-02  -6.465803e-04   0.000000e+00
   3.306477e-02  -3.491217e-02   0.000000e+00
  -6.672145e-02  -1.637697e-02   0.000000e+00
  -1.818738e-03  -1.576259e-01   0.000000e+00
  -1.129507e-02  -8.838901e-02   0.000000e+00
VECTORS Real_Arrow_1.000000e+01(Hz) float
  -6.764613e-02  -9.582894e-02   0.000000e+00
  -1.039330e-01   9.514976e-02   0.000000e+00
   0.000000e+00   0.000000e+00   0.000000e+00
   1.077187e-02  -4.598949e-01   0.000000e+00
  -1.117226e-01  -1.025033e-01   0.000000e+00
  -5.802011e-02  -7.447100e-03   0.000000e+00
   7.687941e-02  -1.354013e-01   0.000000e+00
  -9.877081e-02   1.096407e-01   0.000000e+00
   2.552550e-01  -1.671555e-01   0.000000e+00
  -1.227772e-01  -6.662542e-02   0.000000e+00
  -1.552085e-01   6.928039e-02   0.000000e+00
  -1.411832e-01   6.505264e-02   0.000000e+00
   0.000000e+00   0.000000e+00   0.000000e+00
  -3.008369e-01  -2.856126e-02   0.000000e+00
   0.000000e+00   0.000000e+00   0.000000e+00
  -9.009310e-02   2.777943e-02   0.000000e+00
  -8.248867e-02  -9.763405e-02   0.000000e+00
   3.266879e-02   5.182107e-02   0.000000e+00
   7.030328e-02  -4.561586e-02   0.000000e+00
   1.448058e-02   2.739473e-02   0.000000e+00
   0.000000e+00   0.000000e+00   0.000000e+00
  -1.605670e-01  -5.755518e-02   0.000000e+00
  -7.200290e-02   5.890444e-02   0.000000e+00
  -1.158675e-01  -1.171874e-01   0.000000e+00
   0.000000e+00   0.000000e+00   0.000000e+00
  -8.851958e-02   3.840028e-02   0.000000e+00
  -1.148411e-01  -1.040838e-01   0.000000e+00
  -6.886720e-02  -3.041678e-02   0.000000e+00
  -3.507649e-02   1.215148e-02   0.000000e+00
   0.000000e+00   0.000000e+00   0.000000e+00
   0.000000e+00   0.000000e+00   0.000000e+00
  -2.259489e-01  -2.408014e-03   0.000000e+00
   1.596720e-01   8.875562e-02   0.000000e+00
   2.125588e-01   1.604976e-01   0.000000e+00
   2.456240e-02  -1.090176e-01   0.000000e+00
  -3.000565e-01  -1.826758e-01   0.000000e+00
   0.000000e+00   0.000000e+00   0.000000e+00
  -7.983936e-02   5.398291e-02   0.000000e+00
  -2.012553e-01  -4.026080e-01   0.000000e+00
  -4.676921e-02   2.851015e-01   0.000000e+00
  -5.649473e-02  -3.249447e-02   0.000000e+00
  -6.890713e-02   1.453227e-02   0.000000e+00
  -1.898078e-02   5.330958e-02   0.000000e+00
  -1.918914e-01  -6.335312e-02   0.000000e+00
  -1.447425e-01   6.026270e-02   0.000000e+00
   9.047724e-02  -1.148868e-01   0.000000e+00
VECTORS Imag_Arrow_1.000000e+01(Hz) float
  -7.145680e-02   3.632745e-02   0.000000e+00
  -6.121509e-02  -2.784040e-02   0.000000e+00
   0.000000e+00   0.000000e+00   0.000000e+00
  -4.468445e-02  -9.986731e-02   0.000000e+00
  -9.075562e-02   3.531071e-02   0.000000e+00
  -7.917030e-03  -5.361240e-02   0.000000e+00
   8.230140e-03  -3.004145e-02   0.000000e+00
  -1.000049e-01  -3.528822e-02   0.000000e+00
  -7.165492e-02  -3.026448e-03   0.000000e+00
  -1.207677e-01  -1.652685e-02   0.000000e+00
  -5.465672e-02   5.098483e-02   0.000000e+00
  -1.264353e-01  -5.157989e-02   0.000000e+00
   0.000000e+00   0.000000e+00   0.000000e+00
  -7.757137e-02  -1.103055e-01   0.000000e+00
   0.000000e+00   0.000000e+00   0.000000e+00
  -1.211292e-01  -3.992879e-02   0.000000e+00
   7.288709e-02   8.357912e-02   0.000000e+00
  -4.849335e-02   2.875175e-02   0.000000e+00
  -1.753962e-01   4.516825e-02   0.000000e+00
  -1.192488e-01   8.917062e-03   0.000000e+00
   0.000000e+00   0.000000e+00   0.000000e+00
  -1.012951e-01  -7.931994e-04   0.000000e+00
  -4.120365e-02   2.769592e-02   0.000000e+00
  -1.133244e-01  -1.568422e-03   0.000000e+00
   0.000000e+00   0.000000e+00   0.000000e+00
  -1.006325e-01  -1.396793e-02   0.000000e+00
  -4.660336e-02  -1.225915e-01   0.000000e+00
  -2.925655e-02  -1.151692e-01   0.000000e+00
  -6.982688e-02  -3.961542e-02   0.000000e+00
   0.000000e+00   0.000000e+00   0.000000e+00
   0.000000e+00   0.000000e+00   0.000000e+00
  -8.872915e-02  -4.396878e-02   0.000000e+00
   3.460820e-02  -3.135022e-02   0.000000e+00
  -1.069327e-01  -1.486014e-01   0.000000e+00
  -7.210913e-02   3.345897e-02   0.000000e+00
  -1.023150e-01   1.338142e-02   0.000000e+00
   0.000000e+00   0.000000e+00   0.000000e+00
  -1.071008e-01  -3.031591e-02   0.000000e+00
  -2.221857e-02  -9.894015e-02   0.000000e+00
  -1.129605e-01   1.573277e-01   0.000000e+00
  -4.666847e-02   8.030897e-02   0.000000e+00
  -9.054556e-02   1.288761e-02   0.000000e+00
   6.010087e-02  -4.972841e-03   0.000000e+00
  -1.107939e-01  -1.254204e-02   0.000000e+00
  -3.147659e-02  -1.788231e-01   0.000000e+00
  -7.947040e-03  -1.101741e-01   0.000000e+00
VECTORS Real_Arrow_1.584800e+01(Hz) float
  -3.582951e-02  -1.182820e-01   0.000000e+00
  -7.566994e-02   9.383361e-02   0.000000e+00
   0.000000e+00   0.000000e+00   0.000000e+00
   3.080201e-02  -4.114935e-01   0.000000e+00
  -7.110471e-02  -1.239863e-01   0.000000e+00
  -5.006787e-02   1.216126e-02   0.000000e+00
   7.884905e-02  -1.279206e-01   0.000000e+00
  -5.157268e-02   1.142550e-01   0.000000e+00
   2.790518e-01  -1.692498e-01   0.000000e+00
  -6.685484e-02  -6.497585e-02   0.000000e+00
  -1.433370e-01   4.190868e-02   0.000000e+00
   0.000000e+00   0.000000e+00   0.000000e+00
   0.000000e+00   0.000000e+00   0.000000e+00
  -2.616660e-01   1.804719e-02   0.000000e+00
   0.000000e+00   0.000000e+00   0.000000e+00
  -3.838241e-02   4.187924e-02   0.000000e+00
  -1.064387e-01  -1.356855e-01   0.000000e+00
   4.257513e-02   2.807849e-02   0.000000e+00
   1.488252e-01  -7.044836e-02   0.000000e+00
   6.627746e-02   1.463726e-02   0.000000e+00
  -1.212995e-01   1.862835e-02   0.000000e+00
  -1.141393e-01  -6.394242e-02   0.000000e+00
  -6.526015e-02   3.511930e-02   0.000000e+00
  -6.245250e-02  -1.157919e-01   0.000000e+00
   0.000000e+00   0.000000e+00   0.000000e+00
  -4.021690e-02   3.805556e-02   0.000000e+00
  -9.213928e-02  -5.258814e-02   0.000000e+00
  -5.251281e-02   1.559930e-02   0.000000e+00
  -7.191220e-03   2.374196e-02   0.000000e+00
   0.000000e+00   0.000000e+00   0.000000e+00
   0.000000e+00   0.000000e+00   0.000000e+00
  -1.802143e-01   1.573988e-02   0.000000e+00
   1.234674e-01   8.737294e-02   0.000000e+00
   2.584817e-01   2.227642e-01   0.000000e+00
   5.297094e-02  -1.323872e-01   0.000000e+00
  -2.486818e-01  -1.862505e-01   0.000000e+00
   0.000000e+00   0.000000e+00   0.000000e+00
  -2.043643e-02   6.418763e-02   0.000000e+00
  -1.868607e-01  -3.563304e-01   0.000000e+00
   4.820684e-03   2.073239e-01   0.000000e+00
  -4.479992e-02  -6.986429e-02   0.000000e+00
  -2.982852e-02   7.886342e-04   0.000000e+00
  -5.115774e-02   4.822643e-02   0.000000e+00
  -1.382525e-01  -6.399616e-02   0.000000e+00
  -1.269865e-01   1.318181e-01   0.000000e+00
   9.984436e-02  -6.879631e-02   0.000000e+00
VECTORS Imag_Arrow_1.584800e+01(Hz) float
  -4.958679e-02   2.791107e-02   0.000000e+00
  -3.036091e-02  -3.760880e-02   0.000000e+00
   0.000000e+00   0.000000e+00   0.000000e+00
  -4.237090e-02  -1.374962e-01   0.000000e+00
  -8.618775e-02   2.919839e-02   0.000000e+00
  -2.793675e-02  -4.165245e-02   0.000000e+00
   6.184368e-03  -4.229979e-02   0.000000e+00
  -7.866243e-02  -3.116461e-04   0.000000e+00
  -1.906348e-02   6.634624e-03   0.000000e+00
  -1.385795e-01  -2.270191e-02   0.000000e+00
  -5.543105e-02   4.913864e-02   0.000000e+00
   0.000000e+00   0.000000e+00   0.000000e+00
   0.000000e+00   0.000000e+00   0.000000e+00
  -1.398443e-01  -1.130423e-01   0.000000e+00
   0.000000e+00   0.000000e+00   0.000000e+00
  -1.403041e-01  -2.042514e-02   0.000000e+00
   6.150381e-02   9.965884e-02   0.000000e+00
  -2.041348e-02   1.248182e-02   0.000000e+00
  -1.802508e-01   6.422262e-02   0.000000e+00
  -1.047730e-01   5.522179e-03   0.000000e+00
  -1.555659e-02  -3.176595e-02   0.000000e+00
  -1.083849e-01   5.891973e-03   0.000000e+00
  -2.180868e-02   1.336866e-02   0.000000e+00
  -1.119579e-01   2.105860e-03   0.000000e+00
   0.000000e+00   0.000000e+00   0.000000e+00
  -9.129497e-02   1.939023e-02   0.000000e+00
  -7.509275e-02  -1.357678e-01   0.000000e+00
  -4.842863e-02  -1.169359e-01   0.000000e+00
  -5.864823e-02  -1.791922e-02   0.000000e+00
   0.000000e+00   0.000000e+00   0.000000e+00
   0.000000e+00   0.000000e+00   0.000000e+00
  -1.115522e-01  -2.324768e-02   0.000000e+00
   4.864690e-02  -1.658368e-02   0.000000e+00
  -4.857860e-02  -1.065138e-01   0.000000e+00
  -5.342060e-02   4.362199e-02   0.000000e+00
  -1.669065e-01   1.310098e-02   0.000000e+00
   0.000000e+00   0.000000e+00   0.000000e+00
  -1.023598e-01  -2.282017e-02   0.000000e+00
  -4.294752e-02  -1.591353e-01   0.000000e+00
  -1.062357e-01   1.878605e-01   0.000000e+00
  -2.855030e-02   7.704143e-02   0.000000e+00
  -7.251201e-02   1.222463e-02   0.000000e+00
   7.249394e-02   2.906326e-02   0.000000e+00
  -1.433934e-01  -1.664181e-02   0.000000e+00
  -6.079461e-02  -1.865088e-01   0.000000e+00
   7.553870e-03  -1.205462e-01   0.000000e+00
