# vtk DataFile Version 2.0
Induction_Arrow_Iter4_PE7
ASCII
DATASET UNSTRUCTURED_GRID
POINTS 46 float
  -2.052000e+03    1.667000e+03   -4.526633e+02
  -1.265000e+03    2.333000e+03   -4.555885e+02
  -9.840000e+02    2.568000e+03   -4.612271e+02
   1.700000e+03   -1.757000e+03   -5.237752e+02
  -1.152000e+03    1.382000e+03   -4.549280e+02
   3.187000e+03    1.067000e+03   -8.370176e+02
   4.716000e+03    9.370000e+02   -8.015281e+02
  -1.855000e+03    5.260000e+02   -5.147377e+02
  -1.420000e+02   -1.905000e+03   -4.746368e+02
  -5.800000e+01    1.069000e+03   -4.555494e+02
  -2.802000e+03    3.302000e+03   -4.314337e+02
  -5.640000e+03   -1.532000e+03   -4.911771e+02
  -8.030000e+02   -5.610000e+02   -5.280929e+02
   1.008000e+03    4.130000e+02   -5.983358e+02
   1.960000e+02    2.246000e+03   -5.219413e+02
  -3.457000e+03    8.320000e+02   -4.470735e+02
   5.640000e+03    2.452000e+03   -7.393049e+02
  -1.334000e+03    3.332000e+03   -4.456136e+02
   1.244000e+03    1.880000e+03   -6.331107e+02
  -2.680000e+02    2.144000e+03   -4.891390e+02
  -4.063000e+03    6.620000e+02   -4.746103e+02
  -1.258000e+03    6.330000e+02   -4.856841e+02
  -2.141000e+03    3.194000e+03   -4.348461e+02
  -3.469000e+03   -3.059000e+03   -6.067613e+02
  -1.604000e+03   -2.570000e+02   -5.141257e+02
  -1.454000e+03    2.220000e+02   -5.386025e+02
   1.864000e+03    1.270000e+02   -7.404291e+02
   2.449000e+03    5.590000e+02   -7.805292e+02
  -1.834000e+03   -1.554000e+03   -6.273074e+02
   1.807000e+03    2.297000e+03   -6.825557e+02
  -2.560000e+03   -1.783000e+03   -6.131337e+02
  -2.741000e+03   -5.010000e+02   -5.080000e+02
   2.884000e+03   -2.179000e+03   -5.274708e+02
  -6.120000e+02   -8.960000e+02   -5.895389e+02
  -1.985000e+03   -2.653000e+03   -5.598834e+02
  -3.390000e+03   -4.000000e+02   -4.982361e+02
   1.586000e+03    1.342000e+03   -6.618442e+02
   1.047000e+03    2.401000e+03   -5.426792e+02
   8.380000e+02   -1.300000e+03   -4.783644e+02
   2.569000e+03    2.441000e+03   -6.035668e+02
  -2.028000e+03    2.833000e+03   -4.322286e+02
  -1.086000e+03    1.998000e+03   -4.563301e+02
   1.514000e+03   -3.332000e+03   -5.646205e+02
   7.040000e+02    1.116000e+03   -5.365099e+02
   1.990000e+03    6.360000e+02   -7.085272e+02
   3.722000e+03   -1.700000e+02   -6.745213e+02
CELLS 46 92
1 0
1 1
1 2
1 3
1 4
1 5
1 6
1 7
1 8
1 9
1 10
1 11
1 12
1 13
1 14
1 15
1 16
1 17
1 18
1 19
1 20
1 21
1 22
1 23
1 24
1 25
1 26
1 27
1 28
1 29
1 30
1 31
1 32
1 33
1 34
1 35
1 36
1 37
1 38
1 39
1 40
1 41
1 42
1 43
1 44
1 45
CELL_TYPES 46
1
1
1
1
1
1
1
1
1
1
1
1
1
1
1
1
1
1
1
1
1
1
1
1
1
1
1
1
1
1
1
1
1
1
1
1
1
1
1
1
1
1
1
1
1
1
POINT_DATA 46
VECTORS Real_Arrow_3.981000e+02(Hz) float
  -3.970059e-02  -3.324833e-02   0.000000e+00
  -1.139420e-01   1.745338e-01   0.000000e+00
  -9.499521e-02   1.068661e-01   0.000000e+00
   6.915006e-02  -8.323007e-02   0.000000e+00
   3.178746e-02  -3.608893e-02   0.000000e+00
   2.881490e-02  -1.872297e-02   0.000000e+00
   2.121727e-02   3.922509e-02   0.000000e+00
   5.351632e-03   2.206412e-02   0.000000e+00
   0.000000e+00   0.000000e+00   0.000000e+00
   4.120635e-02   1.244073e-02   0.000000e+00
  -3.683466e-02  -3.042240e-02   0.000000e+00
  -5.845700e-02   1.257275e-02   0.000000e+00
   3.588040e-02   2.243168e-01   0.000000e+00
   1.638495e-01   6.249441e-02   0.000000e+00
   2.331872e-02   3.874251e-02   0.000000e+00
   1.475582e-01  -2.301202e-02   0.000000e+00
  -1.698105e-01  -2.785895e-01   0.000000e+00
  -3.546769e-02   1.409917e-01   0.000000e+00
   2.649145e-01  -1.619462e-01   0.000000e+00
   7.019915e-02   3.837550e-02   0.000000e+00
  -8.481111e-02   4.797973e-02   0.000000e+00
  -2.478405e-02  -5.111936e-02   0.000000e+00
  -9.367181e-02   1.199274e-01   0.000000e+00
   8.635613e-02  -1.318766e-01   0.000000e+00
  -2.571737e-02  -6.501116e-02   0.000000e+00
  -2.606463e-02  -4.526093e-02   0.000000e+00
   1.298700e-01   1.301164e-01   0.000000e+00
   4.803126e-02   1.364952e-01   0.000000e+00
   4.042281e-02  -2.129083e-02   0.000000e+00
   6.359304e-02  -9.364599e-02   0.000000e+00
   3.266161e-02  -5.260992e-02   0.000000e+00
   3.900378e-02  -1.492670e-02   0.000000e+00
   7.716669e-02   6.314863e-02   0.000000e+00
  -1.297215e-02   4.867458e-04   0.000000e+00
   0.000000e+00   0.000000e+00   0.000000e+00
   1.257354e-01  -1.450310e-01   0.000000e+00
   2.623010e-02   1.449406e-01   0.000000e+00
   0.000000e+00   0.000000e+00   0.000000e+00
  -9.666755e-03   2.765487e-02   0.000000e+00
   1.168660e-01  -1.367968e-01   0.000000e+00
  -7.970100e-02  -1.941030e-01   0.000000e+00
   1.833703e-02  -2.248200e-02   0.000000e+00
  -1.169019e-01  -8.050695e-02   0.000000e+00
   1.081070e-01   1.569233e-02   0.000000e+00
   7.679107e-02   3.044276e-01   0.000000e+00
  -9.748531e-04   1.044734e-01   0.000000e+00
VECTORS Imag_Arrow_3.981000e+02(Hz) float
  -1.428129e-02  -4.451294e-02   0.000000e+00
  -5.272838e-02   4.727581e-02   0.000000e+00
  -1.180118e-02   3.231288e-02   0.000000e+00
  -2.108840e-02  -1.165392e-01   0.000000e+00
  -3.188578e-02  -6.276796e-02   0.000000e+00
  -7.110482e-03   1.388283e-02   0.000000e+00
   1.509277e-02  -2.440475e-02   0.000000e+00
  -6.480778e-02   5.050140e-02   0.000000e+00
   0.000000e+00   0.000000e+00   0.000000e+00
   2.965924e-02  -1.982891e-02   0.000000e+00
  -2.321805e-02   2.662724e-02   0.000000e+00
  -6.769961e-03  -1.028035e-02   0.000000e+00
   3.234792e-02   1.939772e-01   0.000000e+00
  -8.681108e-02   2.866620e-02   0.000000e+00
   2.519877e-02   3.947456e-03   0.000000e+00
   6.262090e-03   2.298198e-02   0.000000e+00
  -1.507837e-03  -3.376680e-02   0.000000e+00
   2.710296e-02  -4.227867e-03   0.000000e+00
   4.659068e-02  -8.345393e-03   0.000000e+00
  -8.610739e-03  -2.253328e-03   0.000000e+00
  -1.295742e-02  -1.070332e-02   0.000000e+00
   2.605528e-02   1.040926e-02   0.000000e+00
   1.439260e-02  -3.724443e-03   0.000000e+00
  -3.763698e-02  -3.107967e-02   0.000000e+00
  -3.909871e-02   2.460163e-02   0.000000e+00
   1.373135e-02  -2.636972e-02   0.000000e+00
  -6.523963e-02   1.739557e-02   0.000000e+00
  -1.675669e-03  -2.707318e-03   0.000000e+00
   7.829484e-03   6.390375e-02   0.000000e+00
  -1.278601e-03  -9.311077e-04   0.000000e+00
   6.933171e-04   2.313524e-02   0.000000e+00
  -1.361908e-02  -1.433357e-02   0.000000e+00
  -5.072907e-03   1.906920e-02   0.000000e+00
   8.490612e-02   1.300902e-01   0.000000e+00
   0.000000e+00   0.000000e+00   0.000000e+00
  -4.951364e-02  -4.030778e-02   0.000000e+00
  -1.065311e-02   5.974019e-02   0.000000e+00
   0.000000e+00   0.000000e+00   0.000000e+00
  -8.443851e-02  -6.385056e-02   0.000000e+00
  -4.316321e-02   5.949849e-02   0.000000e+00
   7.249616e-03   1.364495e-02   0.000000e+00
  -1.581642e-02   1.797724e-02   0.000000e+00
  -5.997976e-02  -6.011144e-03   0.000000e+00
  -5.505266e-02  -5.655832e-02   0.000000e+00
  -6.350876e-02   6.312846e-02   0.000000e+00
   9.728868e-03  -2.459941e-02   0.000000e+00
VECTORS Real_Arrow_6.309500e+02(Hz) float
  -3.434950e-02  -1.882811e-02   0.000000e+00
  -8.980254e-02   1.490432e-01   0.000000e+00
  -8.649050e-02   9.312551e-02   0.000000e+00
   7.740229e-02  -4.805344e-02   0.000000e+00
   4.052488e-02  -1.394049e-02   0.000000e+00
   2.558939e-02  -1.832342e-02   0.000000e+00
   2.106948e-02   3.606328e-02   0.000000e+00
   2.874661e-02   2.765266e-03   0.000000e+00
   0.000000e+00   0.000000e+00   0.000000e+00
   2.897960e-02   1.663819e-02   0.000000e+00
  -3.155763e-02  -4.024770e-02   0.000000e+00
  -5.511226e-02   1.607939e-02   0.000000e+00
   2.978530e-02   1.633535e-01   0.000000e+00
   1.783769e-01   5.007133e-02   0.000000e+00
   1.518471e-02   3.734770e-02   0.000000e+00
   1.402882e-01  -2.930779e-02   0.000000e+00
  -1.719497e-01  -2.652989e-01   0.000000e+00
  -4.335354e-02   1.365222e-01   0.000000e+00
   2.400012e-01  -1.552339e-01   0.000000e+00
   7.567155e-02   4.086915e-02   0.000000e+00
  -8.074288e-02   5.118469e-02   0.000000e+00
  -3.634198e-02  -5.752767e-02   0.000000e+00
  -9.891242e-02   1.163454e-01   0.000000e+00
   9.621152e-02  -1.153760e-01   0.000000e+00
  -1.232479e-02  -5.631405e-02   0.000000e+00
  -3.065749e-02  -3.371467e-02   0.000000e+00
   1.509341e-01   1.157387e-01   0.000000e+00
   4.121230e-02   1.360198e-01   0.000000e+00
   3.184173e-02  -5.082199e-02   0.000000e+00
   6.682645e-02  -9.594619e-02   0.000000e+00
   2.930527e-02  -6.008051e-02   0.000000e+00
   3.055666e-02  -9.397522e-03   0.000000e+00
   7.741489e-02   5.778800e-02   0.000000e+00
  -3.548189e-02  -4.082636e-02   0.000000e+00
  -7.996265e-03  -2.609269e-02   0.000000e+00
   1.339682e-01  -1.292756e-01   0.000000e+00
   3.011110e-02   1.399963e-01   0.000000e+00
   0.000000e+00   0.000000e+00   0.000000e+00
   1.943042e-02   4.221765e-02   0.000000e+00
   1.303175e-01  -1.451186e-01   0.000000e+00
  -8.061488e-02  -1.941476e-01   0.000000e+00
   2.074224e-02  -2.922470e-02   0.000000e+00
  -8.836818e-02  -7.087570e-02   0.000000e+00
   1.235922e-01   3.438653e-02   0.000000e+00
   9.477895e-02   2.708012e-01   0.000000e+00
   1.178438e-03   1.073385e-01   0.000000e+00
VECTORS Imag_Arrow_6.309500e+02(Hz) float
  -1.201097e-02  -3.758708e-02   0.000000e+00
  -5.238353e-02   5.314910e-02   0.000000e+00
  -2.275815e-02   3.752332e-02   0.000000e+00
  -1.767305e-02  -1.142939e-01   0.000000e+00
  -2.356694e-02  -5.029152e-02   0.000000e+00
  -1.289296e-02   1.174586e-02   0.000000e+00
   7.067385e-03  -9.411832e-03   0.000000e+00
  -5.955368e-02   5.197062e-02   0.000000e+00
   0.000000e+00   0.000000e+00   0.000000e+00
   2.700701e-02  -1.342485e-02   0.000000e+00
  -2.126895e-02   1.637229e-02   0.000000e+00
  -4.204634e-03  -1.467630e-02   0.000000e+00
   1.865309e-02   1.748886e-01   0.000000e+00
  -6.613161e-02   2.072324e-02   0.000000e+00
   2.352554e-02   6.713160e-03   0.000000e+00
   2.104657e-02   1.782757e-02   0.000000e+00
  -1.854494e-02  -5.840112e-02   0.000000e+00
   1.510666e-02   2.389230e-02   0.000000e+00
   4.956740e-02  -1.098474e-02   0.000000e+00
  -1.991026e-02   1.129913e-03   0.000000e+00
  -1.114518e-02  -9.128486e-03   0.000000e+00
   3.053768e-02   1.480869e-02   0.000000e+00
   4.909878e-03   5.334419e-03   0.000000e+00
  -2.571085e-02  -4.357832e-02   0.000000e+00
  -4.018631e-02  -3.849554e-04   0.000000e+00
   1.285379e-02  -2.864176e-02   0.000000e+00
  -5.070383e-02   4.061717e-02   0.000000e+00
   1.779557e-03   5.902176e-03   0.000000e+00
   1.211544e-02   7.042778e-02   0.000000e+00
  -1.064101e-02   8.512284e-03   0.000000e+00
  -2.675674e-03   2.453935e-02   0.000000e+00
   8.192026e-03  -1.953406e-02   0.000000e+00
  -1.041758e-02   2.238659e-02   0.000000e+00
   6.654869e-02   1.075347e-01   0.000000e+00
   4.944593e-02  -7.627879e-02   0.000000e+00
  -4.259359e-02  -3.585433e-02   0.000000e+00
  -2.169129e-02   5.268824e-02   0.000000e+00
   0.000000e+00   0.000000e+00   0.000000e+00
  -7.212192e-02  -4.234392e-02   0.000000e+00
  -3.630768e-02   5.597452e-02   0.000000e+00
  -7.252311e-03  -7.353792e-03   0.000000e+00
  -5.487755e-03   7.484711e-03   0.000000e+00
  -6.854402e-02  -1.510364e-02   0.000000e+00
  -5.410225e-02  -5.614972e-02   0.000000e+00
  -4.975518e-02   8.243540e-02   0.000000e+00
   1.200774e-02  -2.447605e-02   0.000000e+00
VECTORS Real_Arrow_1.000000e+03(Hz) float
  -3.008200e-02  -8.238110e-03   0.000000e+00
  -7.085342e-02   1.267882e-01   0.000000e+00
  -7.402250e-02   7.848817e-02   0.000000e+00
   8.354852e-02  -1.090592e-02   0.000000e+00
   4.579798e-02  -6.881425e-04   0.000000e+00
   2.874116e-02  -1.765617e-02   0.000000e+00
   2.251976e-02   3.097377e-02   0.000000e+00
   4.929846e-02  -1.623564e-02   0.000000e+00
   0.000000e+00   0.000000e+00   0.000000e+00
   2.063909e-02   1.830510e-02   0.000000e+00
  -2.679685e-02  -4.416146e-02   0.000000e+00
  -5.309533e-02   2.062624e-02   0.000000e+00
   2.668800e-02   1.143982e-01   0.000000e+00
   1.882262e-01   4.686267e-02   0.000000e+00
   0.000000e+00   0.000000e+00   0.000000e+00
   1.282450e-01  -3.376712e-02   0.000000e+00
  -1.661876e-01  -2.431954e-01   0.000000e+00
  -4.532730e-02   1.191932e-01   0.000000e+00
   0.000000e+00   0.000000e+00   0.000000e+00
   8.527810e-02   4.210170e-02   0.000000e+00
  -7.664135e-02   5.427663e-02   0.000000e+00
  -4.853907e-02  -6.526848e-02   0.000000e+00
  -9.804545e-02   1.103131e-01   0.000000e+00
   0.000000e+00   0.000000e+00   0.000000e+00
   4.730118e-04  -4.293792e-02   0.000000e+00
  -3.418143e-02  -2.249225e-02   0.000000e+00
   1.648155e-01   9.489052e-02   0.000000e+00
   3.322954e-02   1.353989e-01   0.000000e+00
   2.319295e-02  -7.775369e-02   0.000000e+00
   7.225017e-02  -1.027566e-01   0.000000e+00
   2.994443e-02  -6.837275e-02   0.000000e+00
   1.992729e-02  -8.255450e-04   0.000000e+00
   0.000000e+00   0.000000e+00   0.000000e+00
  -5.226041e-02  -7.061096e-02   0.000000e+00
   0.000000e+00   0.000000e+00   0.000000e+00
   1.425523e-01  -1.146311e-01   0.000000e+00
   3.945232e-02   1.294533e-01   0.000000e+00
   0.000000e+00   0.000000e+00   0.000000e+00
   0.000000e+00   0.000000e+00   0.000000e+00
   1.386388e-01  -1.542761e-01   0.000000e+00
   0.000000e+00   0.000000e+00   0.000000e+00
   0.000000e+00   0.000000e+00   0.000000e+00
  -6.138400e-02  -6.041924e-02   0.000000e+00
   1.412366e-01   5.243157e-02   0.000000e+00
   1.038693e-01   2.339818e-01   0.000000e+00
  -8.435139e-04   1.137550e-01   0.000000e+00
VECTORS Imag_Arrow_1.000000e+03(Hz) float
  -9.117897e-03  -2.897945e-02   0.000000e+00
  -4.640642e-02   5.067732e-02   0.000000e+00
  -2.912870e-02   3.997102e-02   0.000000e+00
  -1.241849e-02  -1.089880e-01   0.000000e+00
  -1.466782e-02  -3.515406e-02   0.000000e+00
  -2.308536e-02   1.527093e-02   0.000000e+00
   3.562461e-03  -2.674010e-03   0.000000e+00
  -5.038747e-02   4.949676e-02   0.000000e+00
   0.000000e+00   0.000000e+00   0.000000e+00
   2.338629e-02  -8.205792e-03   0.000000e+00
  -1.999105e-02   4.036151e-03   0.000000e+00
   4.041980e-04  -1.922899e-02   0.000000e+00
   5.155837e-03   1.555717e-01   0.000000e+00
  -5.376375e-02   1.077349e-02   0.000000e+00
   0.000000e+00   0.000000e+00   0.000000e+00
   3.279044e-02   1.238995e-02   0.000000e+00
  -4.101342e-02  -8.466188e-02   0.000000e+00
   3.334693e-03   4.602347e-02   0.000000e+00
   0.000000e+00   0.000000e+00   0.000000e+00
  -2.783282e-02   6.810729e-03   0.000000e+00
  -8.771148e-03  -6.852993e-03   0.000000e+00
   3.244112e-02   1.665616e-02   0.000000e+00
  -5.142517e-03   1.107151e-02   0.000000e+00
   0.000000e+00   0.000000e+00   0.000000e+00
  -3.954341e-02  -1.023046e-02   0.000000e+00
   1.216225e-02  -2.864671e-02   0.000000e+00
  -3.254385e-02   5.726827e-02   0.000000e+00
  -3.105215e-03   1.667434e-02   0.000000e+00
   1.016790e-02   6.688355e-02   0.000000e+00
  -1.749795e-02   1.497550e-02   0.000000e+00
  -7.999467e-03   2.533066e-02   0.000000e+00
   1.899048e-02  -2.318463e-02   0.000000e+00
   0.000000e+00   0.000000e+00   0.000000e+00
   4.809244e-02   8.175812e-02   0.000000e+00
   0.000000e+00   0.000000e+00   0.000000e+00
  -3.755272e-02  -2.765608e-02   0.000000e+00
  -2.798376e-02   5.474153e-02   0.000000e+00
   0.000000e+00   0.000000e+00   0.000000e+00
   0.000000e+00   0.000000e+00   0.000000e+00
  -2.905486e-02   5.816496e-02   0.000000e+00
   0.000000e+00   0.000000e+00   0.000000e+00
   0.000000e+00   0.000000e+00   0.000000e+00
  -6.874528e-02  -1.796408e-02   0.000000e+00
  -5.066693e-02  -5.496846e-02   0.000000e+00
  -3.724243e-02   9.142608e-02   0.000000e+00
   1.556034e-02  -2.381817e-02   0.000000e+00
