# vtk DataFile Version 2.0
Induction_Arrow_Iter1_PE3
ASCII
DATASET UNSTRUCTURED_GRID
POINTS 46 float
  -2.052000e+03    1.667000e+03   -4.526633e+02
  -1.265000e+03    2.333000e+03   -4.555885e+02
  -9.840000e+02    2.568000e+03   -4.612271e+02
   1.700000e+03   -1.757000e+03   -5.237752e+02
  -1.152000e+03    1.382000e+03   -4.549280e+02
   3.187000e+03    1.067000e+03   -8.370176e+02
   4.716000e+03    9.370000e+02   -8.015281e+02
  -1.855000e+03    5.260000e+02   -5.147377e+02
  -1.420000e+02   -1.905000e+03   -4.746368e+02
  -5.800000e+01    1.069000e+03   -4.555494e+02
  -2.802000e+03    3.302000e+03   -4.314337e+02
  -5.640000e+03   -1.532000e+03   -4.911771e+02
  -8.030000e+02   -5.610000e+02   -5.280929e+02
   1.008000e+03    4.130000e+02   -5.983358e+02
   1.960000e+02    2.246000e+03   -5.219413e+02
  -3.457000e+03    8.320000e+02   -4.470735e+02
   5.640000e+03    2.452000e+03   -7.393049e+02
  -1.334000e+03    3.332000e+03   -4.456136e+02
   1.244000e+03    1.880000e+03   -6.331107e+02
  -2.680000e+02    2.144000e+03   -4.891390e+02
  -4.063000e+03    6.620000e+02   -4.746103e+02
  -1.258000e+03    6.330000e+02   -4.856841e+02
  -2.141000e+03    3.194000e+03   -4.348461e+02
  -3.469000e+03   -3.059000e+03   -6.067613e+02
  -1.604000e+03   -2.570000e+02   -5.141257e+02
  -1.454000e+03    2.220000e+02   -5.386025e+02
   1.864000e+03    1.270000e+02   -7.404291e+02
   2.449000e+03    5.590000e+02   -7.805292e+02
  -1.834000e+03   -1.554000e+03   -6.273074e+02
   1.807000e+03    2.297000e+03   -6.825557e+02
  -2.560000e+03   -1.783000e+03   -6.131337e+02
  -2.741000e+03   -5.010000e+02   -5.080000e+02
   2.884000e+03   -2.179000e+03   -5.274708e+02
  -6.120000e+02   -8.960000e+02   -5.895389e+02
  -1.985000e+03   -2.653000e+03   -5.598834e+02
  -3.390000e+03   -4.000000e+02   -4.982361e+02
   1.586000e+03    1.342000e+03   -6.618442e+02
   1.047000e+03    2.401000e+03   -5.426792e+02
   8.380000e+02   -1.300000e+03   -4.783644e+02
   2.569000e+03    2.441000e+03   -6.035668e+02
  -2.028000e+03    2.833000e+03   -4.322286e+02
  -1.086000e+03    1.998000e+03   -4.563301e+02
   1.514000e+03   -3.332000e+03   -5.646205e+02
   7.040000e+02    1.116000e+03   -5.365099e+02
   1.990000e+03    6.360000e+02   -7.085272e+02
   3.722000e+03   -1.700000e+02   -6.745213e+02
CELLS 46 92
1 0
1 1
1 2
1 3
1 4
1 5
1 6
1 7
1 8
1 9
1 10
1 11
1 12
1 13
1 14
1 15
1 16
1 17
1 18
1 19
1 20
1 21
1 22
1 23
1 24
1 25
1 26
1 27
1 28
1 29
1 30
1 31
1 32
1 33
1 34
1 35
1 36
1 37
1 38
1 39
1 40
1 41
1 42
1 43
1 44
1 45
CELL_TYPES 46
1
1
1
1
1
1
1
1
1
1
1
1
1
1
1
1
1
1
1
1
1
1
1
1
1
1
1
1
1
1
1
1
1
1
1
1
1
1
1
1
1
1
1
1
1
1
POINT_DATA 46
VECTORS Real_Arrow_1.000000e+02(Hz) float
  -5.662463e-02  -8.734776e-02   0.000000e+00
  -1.533057e-01   1.969263e-01   0.000000e+00
  -8.198635e-02   1.289099e-01   0.000000e+00
   4.693366e-02  -1.798125e-01   0.000000e+00
  -1.406565e-02  -1.129320e-01   0.000000e+00
   2.766112e-02   5.895873e-03   0.000000e+00
   5.610366e-02  -2.446874e-02   0.000000e+00
  -6.897914e-02   5.442759e-02   0.000000e+00
   0.000000e+00   0.000000e+00   0.000000e+00
   9.260552e-02  -1.891273e-02   0.000000e+00
  -5.211719e-02   2.978499e-03   0.000000e+00
  -5.616733e-02   1.028311e-02   0.000000e+00
   0.000000e+00   0.000000e+00   0.000000e+00
   4.683199e-02   1.161178e-01   0.000000e+00
   5.744876e-02   4.054771e-02   0.000000e+00
   1.427246e-01   1.452049e-02   0.000000e+00
  -1.510709e-01  -2.773781e-01   0.000000e+00
   1.700370e-02   8.293670e-02   0.000000e+00
   0.000000e+00   0.000000e+00   0.000000e+00
   9.861370e-02   3.705504e-02   0.000000e+00
  -1.060487e-01   3.959328e-02   0.000000e+00
   4.010789e-03  -5.414759e-02   0.000000e+00
  -6.325982e-02   9.143417e-02   0.000000e+00
   3.543536e-02  -1.339910e-01   0.000000e+00
   0.000000e+00   0.000000e+00   0.000000e+00
  -4.071024e-03  -6.988527e-02   0.000000e+00
   6.276788e-02   1.079819e-01   0.000000e+00
   4.486971e-02   1.225227e-01   0.000000e+00
   3.056865e-02   3.148422e-03   0.000000e+00
   1.013581e-01  -1.343909e-01   0.000000e+00
   4.172690e-02  -3.114366e-02   0.000000e+00
  -2.795440e-02  -2.568704e-02   0.000000e+00
   7.678147e-02   7.533164e-02   0.000000e+00
   1.094201e-01   1.653015e-01   0.000000e+00
   6.453625e-02  -1.535802e-01   0.000000e+00
   7.188617e-02  -1.909667e-01   0.000000e+00
   5.599509e-02   2.636953e-01   0.000000e+00
   0.000000e+00   0.000000e+00   0.000000e+00
  -1.082972e-01  -4.594817e-02   0.000000e+00
   7.441336e-02  -8.361361e-02   0.000000e+00
   0.000000e+00   0.000000e+00   0.000000e+00
  -2.182055e-02   1.289449e-02   0.000000e+00
  -1.511103e-01  -6.227306e-02   0.000000e+00
   6.984989e-02  -3.381597e-02   0.000000e+00
   8.604938e-03   3.277012e-01   0.000000e+00
   1.495659e-02   8.002958e-02   0.000000e+00
VECTORS Imag_Arrow_1.000000e+02(Hz) float
   1.485383e-03  -4.842678e-02   0.000000e+00
   1.022509e-02  -3.611283e-02   0.000000e+00
   2.457365e-02  -9.925693e-03   0.000000e+00
  -1.345533e-02  -1.399355e-01   0.000000e+00
  -4.425249e-02  -5.093694e-02   0.000000e+00
  -3.191051e-02   1.924143e-02   0.000000e+00
   3.518765e-02  -8.524282e-02   0.000000e+00
  -2.869722e-02   2.339692e-02   0.000000e+00
   0.000000e+00   0.000000e+00   0.000000e+00
  -1.237592e-02  -3.453224e-02   0.000000e+00
  -4.486331e-02   2.247852e-02   0.000000e+00
  -1.548145e-02   1.020638e-02   0.000000e+00
   0.000000e+00   0.000000e+00   0.000000e+00
  -1.771644e-01   1.214930e-03   0.000000e+00
   1.522993e-02  -1.108958e-02   0.000000e+00
  -5.809784e-02   3.214821e-02   0.000000e+00
   2.420929e-02   4.845062e-02   0.000000e+00
   3.137087e-02  -4.160325e-02   0.000000e+00
   0.000000e+00   0.000000e+00   0.000000e+00
   1.057064e-02  -9.710874e-03   0.000000e+00
  -1.983698e-02  -2.147270e-02   0.000000e+00
  -2.268552e-02  -1.345681e-02   0.000000e+00
   5.768737e-03  -4.532728e-02   0.000000e+00
  -6.584492e-02  -1.945288e-04   0.000000e+00
   0.000000e+00   0.000000e+00   0.000000e+00
   5.068101e-03   2.551508e-02   0.000000e+00
  -8.769778e-02  -6.430318e-02   0.000000e+00
  -3.418278e-02  -4.318928e-02   0.000000e+00
  -2.973907e-02   1.524275e-02   0.000000e+00
   2.237274e-02  -4.323258e-03   0.000000e+00
  -3.335978e-02   2.009115e-02   0.000000e+00
  -8.349843e-02  -1.439083e-04   0.000000e+00
   7.819704e-03   1.456736e-02   0.000000e+00
   1.215240e-01   1.256013e-01   0.000000e+00
   2.144457e-02  -6.486818e-02   0.000000e+00
  -1.423407e-01  -3.840447e-02   0.000000e+00
  -3.564634e-02   8.451804e-02   0.000000e+00
   0.000000e+00   0.000000e+00   0.000000e+00
  -8.109999e-02  -1.420430e-01   0.000000e+00
  -4.160864e-02   1.508256e-01   0.000000e+00
   0.000000e+00   0.000000e+00   0.000000e+00
  -2.586627e-02   5.850014e-03   0.000000e+00
   1.533884e-02   4.690426e-02   0.000000e+00
  -8.786937e-02  -2.991870e-02   0.000000e+00
  -7.917248e-02  -5.482425e-02   0.000000e+00
   5.710262e-02  -7.803224e-02   0.000000e+00
VECTORS Real_Arrow_1.584800e+02(Hz) float
  -5.501822e-02  -6.689204e-02   0.000000e+00
  -1.522197e-01   2.047233e-01   0.000000e+00
  -9.055443e-02   1.257786e-01   0.000000e+00
   5.059579e-02  -1.442978e-01   0.000000e+00
   2.554259e-03  -8.965916e-02   0.000000e+00
   3.334801e-02  -4.653021e-03   0.000000e+00
   3.957719e-02   1.004735e-02   0.000000e+00
  -5.183177e-02   5.069204e-02   0.000000e+00
   0.000000e+00   0.000000e+00   0.000000e+00
   7.612561e-02  -5.879667e-03   0.000000e+00
  -4.394402e-02  -3.452271e-03   0.000000e+00
  -5.823022e-02   7.706178e-03   0.000000e+00
   0.000000e+00   0.000000e+00   0.000000e+00
   9.912892e-02   1.017764e-01   0.000000e+00
   4.585675e-02   4.290622e-02   0.000000e+00
   1.496170e-01  -1.759356e-03   0.000000e+00
  -1.579551e-01  -2.884179e-01   0.000000e+00
   9.223422e-04   1.036593e-01   0.000000e+00
   0.000000e+00   0.000000e+00   0.000000e+00
   8.490582e-02   3.766744e-02   0.000000e+00
  -9.883859e-02   4.360991e-02   0.000000e+00
  -1.380408e-03  -4.613399e-02   0.000000e+00
  -6.963733e-02   1.096075e-01   0.000000e+00
   5.477871e-02  -1.354073e-01   0.000000e+00
   0.000000e+00   0.000000e+00   0.000000e+00
  -1.283567e-02  -6.862039e-02   0.000000e+00
   8.644905e-02   1.255996e-01   0.000000e+00
   4.978156e-02   1.318511e-01   0.000000e+00
   4.059975e-02   3.798768e-03   0.000000e+00
   8.054886e-02  -1.173963e-01   0.000000e+00
   4.769320e-02  -3.625811e-02   0.000000e+00
   1.584696e-03  -2.165654e-02   0.000000e+00
   7.678766e-02   7.006846e-02   0.000000e+00
   6.145908e-02   1.059275e-01   0.000000e+00
   5.139384e-02  -1.197876e-01   0.000000e+00
   1.044399e-01  -1.717314e-01   0.000000e+00
   4.971619e-02   2.070378e-01   0.000000e+00
   0.000000e+00   0.000000e+00   0.000000e+00
  -7.803185e-02  -1.478993e-02   0.000000e+00
   8.586065e-02  -1.194180e-01   0.000000e+00
   0.000000e+00   0.000000e+00   0.000000e+00
  -6.756086e-03   6.622170e-03   0.000000e+00
  -1.516162e-01  -7.771794e-02   0.000000e+00
   8.500729e-02  -2.428190e-02   0.000000e+00
   2.954665e-02   3.364731e-01   0.000000e+00
  -5.552240e-03   1.002754e-01   0.000000e+00
VECTORS Imag_Arrow_1.584800e+02(Hz) float
  -7.863548e-03  -4.922367e-02   0.000000e+00
  -1.718104e-02  -2.881706e-03   0.000000e+00
   1.408094e-02   9.555636e-03   0.000000e+00
  -1.779910e-02  -1.255052e-01   0.000000e+00
  -4.222858e-02  -6.047254e-02   0.000000e+00
  -1.967181e-02   2.063472e-02   0.000000e+00
   3.431500e-02  -7.165446e-02   0.000000e+00
  -5.370030e-02   3.404518e-02   0.000000e+00
   0.000000e+00   0.000000e+00   0.000000e+00
   1.558942e-02  -3.151883e-02   0.000000e+00
  -3.260965e-02   2.547042e-02   0.000000e+00
  -9.233334e-03   1.550540e-03   0.000000e+00
   0.000000e+00   0.000000e+00   0.000000e+00
  -1.470984e-01   2.168412e-02   0.000000e+00
   2.136438e-02  -3.318486e-03   0.000000e+00
  -3.021280e-02   3.264656e-02   0.000000e+00
   1.683313e-02   1.740153e-02   0.000000e+00
   3.657941e-02  -3.844465e-02   0.000000e+00
   0.000000e+00   0.000000e+00   0.000000e+00
   1.160087e-02  -4.657295e-03   0.000000e+00
  -2.001371e-02  -1.585186e-02   0.000000e+00
   3.693711e-03  -4.170386e-03   0.000000e+00
   1.409359e-02  -3.265649e-02   0.000000e+00
  -5.724008e-02  -1.136181e-02   0.000000e+00
   0.000000e+00   0.000000e+00   0.000000e+00
   1.181791e-02  -2.761126e-03   0.000000e+00
  -7.736899e-02  -3.854173e-02   0.000000e+00
  -1.919724e-02  -2.754231e-02   0.000000e+00
  -1.992416e-02   2.470722e-02   0.000000e+00
   2.315399e-02  -1.700179e-02   0.000000e+00
  -1.530578e-02   2.202346e-02   0.000000e+00
  -6.834217e-02  -1.145656e-02   0.000000e+00
   2.084272e-03   1.615031e-02   0.000000e+00
   1.157911e-01   1.394446e-01   0.000000e+00
   3.708057e-02  -8.149383e-02   0.000000e+00
  -1.002606e-01  -4.568660e-02   0.000000e+00
  -1.150647e-02   9.857430e-02   0.000000e+00
   0.000000e+00   0.000000e+00   0.000000e+00
  -8.845154e-02  -1.070202e-01   0.000000e+00
  -4.079715e-02   1.052965e-01   0.000000e+00
   0.000000e+00   0.000000e+00   0.000000e+00
  -3.134074e-02   1.706802e-02   0.000000e+00
  -1.389053e-02   3.002697e-02   0.000000e+00
  -6.751643e-02  -4.299506e-02   0.000000e+00
  -7.234607e-02  -1.019980e-02   0.000000e+00
   3.720592e-02  -5.547955e-02   0.000000e+00
VECTORS Real_Arrow_2.511800e+02(Hz) float
  -4.828551e-02  -4.944284e-02   0.000000e+00
  -1.367423e-01   1.946288e-01   0.000000e+00
  -9.468050e-02   1.159447e-01   0.000000e+00
   5.791965e-02  -1.133955e-01   0.000000e+00
   1.628298e-02  -6.365382e-02   0.000000e+00
   3.221446e-02  -1.271011e-02   0.000000e+00
   2.543435e-02   3.300716e-02   0.000000e+00
  -2.336489e-02   3.604873e-02   0.000000e+00
   0.000000e+00   0.000000e+00   0.000000e+00
   5.672297e-02   4.323529e-03   0.000000e+00
  -3.938861e-02  -1.461663e-02   0.000000e+00
  -5.877841e-02   9.622538e-03   0.000000e+00
   5.412979e-02   2.748808e-01   0.000000e+00
   1.370390e-01   8.364565e-02   0.000000e+00
   3.548741e-02   4.127677e-02   0.000000e+00
   1.502211e-01  -1.403535e-02   0.000000e+00
  -1.642486e-01  -2.883259e-01   0.000000e+00
  -1.638771e-02   1.232608e-01   0.000000e+00
   0.000000e+00   0.000000e+00   0.000000e+00
   7.574280e-02   3.757214e-02   0.000000e+00
  -9.192480e-02   4.630098e-02   0.000000e+00
  -1.347119e-02  -4.740736e-02   0.000000e+00
  -8.036819e-02   1.178112e-01   0.000000e+00
   7.135682e-02  -1.306383e-01   0.000000e+00
   0.000000e+00   0.000000e+00   0.000000e+00
  -2.070893e-02  -5.563492e-02   0.000000e+00
   1.082261e-01   1.337781e-01   0.000000e+00
   4.924554e-02   1.362152e-01   0.000000e+00
   4.459918e-02  -2.218480e-03   0.000000e+00
   6.830956e-02  -1.020625e-01   0.000000e+00
   4.399319e-02  -4.310473e-02   0.000000e+00
   2.404115e-02  -1.275804e-02   0.000000e+00
   7.725863e-02   6.533262e-02   0.000000e+00
   2.245769e-02   4.979924e-02   0.000000e+00
   0.000000e+00   0.000000e+00   0.000000e+00
   1.174463e-01  -1.524118e-01   0.000000e+00
   3.722463e-02   1.618114e-01   0.000000e+00
   0.000000e+00   0.000000e+00   0.000000e+00
  -4.492610e-02   7.044496e-03   0.000000e+00
   9.801107e-02  -1.296270e-01   0.000000e+00
  -6.085539e-02  -1.744475e-01   0.000000e+00
   8.641264e-03  -6.556655e-03   0.000000e+00
  -1.384095e-01  -8.313589e-02   0.000000e+00
   9.489198e-02  -5.721823e-03   0.000000e+00
   5.062540e-02   3.266114e-01   0.000000e+00
  -7.991138e-03   1.069824e-01   0.000000e+00
VECTORS Imag_Arrow_2.511800e+02(Hz) float
  -1.275798e-02  -4.680451e-02   0.000000e+00
  -3.872145e-02   2.628010e-02   0.000000e+00
   1.986201e-03   2.254905e-02   0.000000e+00
  -2.063763e-02  -1.176398e-01   0.000000e+00
  -3.528840e-02  -6.367326e-02   0.000000e+00
  -1.213123e-02   1.846522e-02   0.000000e+00
   2.640264e-02  -4.784950e-02   0.000000e+00
  -6.394524e-02   4.505024e-02   0.000000e+00
   0.000000e+00   0.000000e+00   0.000000e+00
   2.652745e-02  -2.537773e-02   0.000000e+00
  -2.533465e-02   2.584752e-02   0.000000e+00
  -7.353538e-03  -4.813082e-03   0.000000e+00
   4.949364e-02   1.986601e-01   0.000000e+00
  -1.172311e-01   3.164582e-02   0.000000e+00
   2.460372e-02   1.454826e-03   0.000000e+00
  -8.934099e-03   2.817327e-02   0.000000e+00
   8.046146e-03  -1.256468e-02   0.000000e+00
   3.424248e-02  -2.416213e-02   0.000000e+00
   0.000000e+00   0.000000e+00   0.000000e+00
   5.094658e-03  -2.938037e-03   0.000000e+00
  -1.945168e-02  -1.218441e-02   0.000000e+00
   1.781289e-02   6.113649e-03   0.000000e+00
   1.600733e-02  -1.735879e-02   0.000000e+00
  -4.704780e-02  -2.471288e-02   0.000000e+00
   0.000000e+00   0.000000e+00   0.000000e+00
   1.410881e-02  -1.772822e-02   0.000000e+00
  -6.922751e-02  -9.432666e-03   0.000000e+00
  -9.121714e-03  -1.237765e-02   0.000000e+00
  -8.277874e-03   4.215427e-02   0.000000e+00
   1.334610e-02  -1.372160e-02   0.000000e+00
  -1.704567e-03   2.526750e-02   0.000000e+00
  -4.460543e-02  -1.581793e-02   0.000000e+00
  -2.471824e-03   1.797712e-02   0.000000e+00
   1.025302e-01   1.361270e-01   0.000000e+00
   0.000000e+00   0.000000e+00   0.000000e+00
  -6.986090e-02  -4.602934e-02   0.000000e+00
  -3.689777e-03   8.037301e-02   0.000000e+00
   0.000000e+00   0.000000e+00   0.000000e+00
  -8.951160e-02  -8.188207e-02   0.000000e+00
  -3.803039e-02   7.402867e-02   0.000000e+00
   1.404004e-02   3.099583e-02   0.000000e+00
  -2.618333e-02   2.087883e-02   0.000000e+00
  -4.049876e-02   1.132449e-02   0.000000e+00
  -5.772015e-02  -5.364289e-02   0.000000e+00
  -6.780134e-02   3.191318e-02   0.000000e+00
   1.772423e-02  -3.496366e-02   0.000000e+00
VECTORS Real_Arrow_3.981000e+02(Hz) float
  -4.129449e-02  -3.355888e-02   0.000000e+00
  -1.134325e-01   1.730043e-01   0.000000e+00
  -9.267690e-02   1.039810e-01   0.000000e+00
   6.661491e-02  -8.160327e-02   0.000000e+00
   2.588229e-02  -3.798881e-02   0.000000e+00
   2.874889e-02  -1.680580e-02   0.000000e+00
   1.897131e-02   3.963447e-02   0.000000e+00
   2.833092e-03   1.741368e-02   0.000000e+00
   0.000000e+00   0.000000e+00   0.000000e+00
   4.118487e-02   1.076436e-02   0.000000e+00
  -3.530863e-02  -2.574226e-02   0.000000e+00
  -5.675953e-02   1.229247e-02   0.000000e+00
   4.235892e-02   2.036625e-01   0.000000e+00
   1.629728e-01   6.501900e-02   0.000000e+00
   2.552085e-02   3.956776e-02   0.000000e+00
   1.461694e-01  -2.255400e-02   0.000000e+00
  -1.691333e-01  -2.792920e-01   0.000000e+00
  -2.980373e-02   1.324851e-01   0.000000e+00
   2.659898e-01  -1.658853e-01   0.000000e+00
   7.287461e-02   3.895207e-02   0.000000e+00
  -8.519887e-02   4.867259e-02   0.000000e+00
  -2.485357e-02  -5.298382e-02   0.000000e+00
  -8.937582e-02   1.183837e-01   0.000000e+00
   8.448980e-02  -1.189224e-01   0.000000e+00
  -2.164603e-02  -4.992286e-02   0.000000e+00
  -2.693177e-02  -4.364771e-02   0.000000e+00
   1.295806e-01   1.292229e-01   0.000000e+00
   4.585618e-02   1.359074e-01   0.000000e+00
   4.287710e-02  -2.097732e-02   0.000000e+00
   6.502187e-02  -9.560606e-02   0.000000e+00
   3.610172e-02  -5.223632e-02   0.000000e+00
   3.166775e-02  -6.839780e-03   0.000000e+00
   7.762683e-02   6.043792e-02   0.000000e+00
  -8.864138e-03   1.732060e-03   0.000000e+00
   0.000000e+00   0.000000e+00   0.000000e+00
   1.250519e-01  -1.357000e-01   0.000000e+00
   2.942176e-02   1.456843e-01   0.000000e+00
   0.000000e+00   0.000000e+00   0.000000e+00
  -1.248650e-02   2.526873e-02   0.000000e+00
   1.097787e-01  -1.358099e-01   0.000000e+00
  -6.900600e-02  -1.833038e-01   0.000000e+00
   1.743428e-02  -1.835650e-02   0.000000e+00
  -1.147789e-01  -7.959293e-02   0.000000e+00
   1.069447e-01   1.587032e-02   0.000000e+00
   7.204500e-02   3.005865e-01   0.000000e+00
  -2.369601e-03   1.062788e-01   0.000000e+00
VECTORS Imag_Arrow_3.981000e+02(Hz) float
  -1.312382e-02  -4.232461e-02   0.000000e+00
  -4.951416e-02   4.469811e-02   0.000000e+00
  -1.126287e-02   3.065267e-02   0.000000e+00
  -2.079918e-02  -1.144009e-01   0.000000e+00
  -2.766298e-02  -5.860149e-02   0.000000e+00
  -1.220641e-02   1.553890e-02   0.000000e+00
   1.478451e-02  -2.356186e-02   0.000000e+00
  -6.358686e-02   4.978993e-02   0.000000e+00
   0.000000e+00   0.000000e+00   0.000000e+00
   2.804212e-02  -1.865215e-02   0.000000e+00
  -2.161053e-02   2.092759e-02   0.000000e+00
  -6.482008e-03  -9.284187e-03   0.000000e+00
   3.434140e-02   1.900150e-01   0.000000e+00
  -9.074334e-02   3.217656e-02   0.000000e+00
   2.535299e-02   4.131440e-03   0.000000e+00
   8.663748e-03   2.278640e-02   0.000000e+00
  -4.261795e-03  -4.111915e-02   0.000000e+00
   2.558861e-02   9.576542e-05   0.000000e+00
   4.248309e-02  -6.844982e-03   0.000000e+00
  -5.659949e-03  -1.547051e-03   0.000000e+00
  -1.796689e-02  -9.678596e-03   0.000000e+00
   2.551404e-02   1.261167e-02   0.000000e+00
   1.114373e-02  -4.521930e-03   0.000000e+00
  -3.571063e-02  -3.748405e-02   0.000000e+00
  -3.799221e-02   2.950085e-02   0.000000e+00
   1.394062e-02  -2.337588e-02   0.000000e+00
  -5.967060e-02   1.940489e-02   0.000000e+00
  -3.525101e-03   5.166071e-04   0.000000e+00
   1.493327e-03   6.098997e-02   0.000000e+00
   2.046901e-03  -3.618232e-03   0.000000e+00
   3.512062e-03   2.782268e-02   0.000000e+00
  -1.683611e-02  -1.577393e-02   0.000000e+00
  -7.083767e-03   2.060472e-02   0.000000e+00
   8.632911e-02   1.217792e-01   0.000000e+00
   0.000000e+00   0.000000e+00   0.000000e+00
  -5.427974e-02  -4.238952e-02   0.000000e+00
  -1.028079e-02   5.700836e-02   0.000000e+00
   0.000000e+00   0.000000e+00   0.000000e+00
  -8.332343e-02  -6.058511e-02   0.000000e+00
  -3.467472e-02   6.294547e-02   0.000000e+00
   4.102781e-03   1.265338e-02   0.000000e+00
  -1.570723e-02   1.558854e-02   0.000000e+00
  -5.922449e-02  -3.817518e-03   0.000000e+00
  -5.556773e-02  -5.734583e-02   0.000000e+00
  -6.065817e-02   6.420917e-02   0.000000e+00
   1.127215e-02  -2.636431e-02   0.000000e+00
VECTORS Real_Arrow_6.309500e+02(Hz) float
  -3.589510e-02  -2.019289e-02   0.000000e+00
  -9.053925e-02   1.483287e-01   0.000000e+00
  -8.414158e-02   9.087996e-02   0.000000e+00
   7.488097e-02  -4.725746e-02   0.000000e+00
   3.277539e-02  -1.804872e-02   0.000000e+00
   2.853364e-02  -1.794030e-02   0.000000e+00
   1.946465e-02   3.580764e-02   0.000000e+00
   2.606633e-02  -1.327215e-03   0.000000e+00
   0.000000e+00   0.000000e+00   0.000000e+00
   2.991792e-02   1.441074e-02   0.000000e+00
  -3.094850e-02  -3.340985e-02   0.000000e+00
  -5.360405e-02   1.544810e-02   0.000000e+00
   3.446857e-02   1.437415e-01   0.000000e+00
   1.798324e-01   5.114859e-02   0.000000e+00
   1.698851e-02   3.785284e-02   0.000000e+00
   1.373693e-01  -2.878055e-02   0.000000e+00
  -1.700022e-01  -2.613056e-01   0.000000e+00
  -3.711459e-02   1.269311e-01   0.000000e+00
   2.429506e-01  -1.594952e-01   0.000000e+00
   7.677732e-02   4.070123e-02   0.000000e+00
  -7.878188e-02   5.110177e-02   0.000000e+00
  -3.672927e-02  -6.011738e-02   0.000000e+00
  -9.354366e-02   1.148645e-01   0.000000e+00
   9.357094e-02  -1.004525e-01   0.000000e+00
  -8.743926e-03  -4.446336e-02   0.000000e+00
  -3.155248e-02  -3.304407e-02   0.000000e+00
   1.478840e-01   1.138056e-01   0.000000e+00
   4.043957e-02   1.335727e-01   0.000000e+00
   3.762924e-02  -5.026085e-02   0.000000e+00
   6.669470e-02  -9.686181e-02   0.000000e+00
   2.974329e-02  -6.228114e-02   0.000000e+00
   2.592112e-02  -2.965913e-03   0.000000e+00
   7.810787e-02   5.436753e-02   0.000000e+00
  -3.392515e-02  -3.696152e-02   0.000000e+00
  -9.010047e-03  -2.126883e-02   0.000000e+00
   1.343053e-01  -1.210101e-01   0.000000e+00
   3.297019e-02   1.402537e-01   0.000000e+00
   0.000000e+00   0.000000e+00   0.000000e+00
   1.535450e-02   3.749069e-02   0.000000e+00
   1.203150e-01  -1.454948e-01   0.000000e+00
  -6.929970e-02  -1.838006e-01   0.000000e+00
   1.979399e-02  -2.399027e-02   0.000000e+00
  -8.676283e-02  -7.119597e-02   0.000000e+00
   1.234301e-01   3.568796e-02   0.000000e+00
   8.920879e-02   2.658745e-01   0.000000e+00
  -1.056727e-03   1.099947e-01   0.000000e+00
VECTORS Imag_Arrow_6.309500e+02(Hz) float
  -1.141924e-02  -3.539910e-02   0.000000e+00
  -4.959317e-02   5.068843e-02   0.000000e+00
  -2.220836e-02   3.569941e-02   0.000000e+00
  -1.818104e-02  -1.117168e-01   0.000000e+00
  -2.027267e-02  -4.679840e-02   0.000000e+00
  -1.930142e-02   1.561521e-02   0.000000e+00
   6.613736e-03  -8.673443e-03   0.000000e+00
  -5.883845e-02   5.042103e-02   0.000000e+00
   0.000000e+00   0.000000e+00   0.000000e+00
   2.588068e-02  -1.289261e-02   0.000000e+00
  -1.953923e-02   1.207036e-02   0.000000e+00
  -3.754858e-03  -1.383623e-02   0.000000e+00
   1.966512e-02   1.736559e-01   0.000000e+00
  -7.057393e-02   2.425508e-02   0.000000e+00
   2.428453e-02   6.975101e-03   0.000000e+00
   2.313231e-02   1.734056e-02   0.000000e+00
  -2.186477e-02  -6.921075e-02   0.000000e+00
   1.430884e-02   2.607258e-02   0.000000e+00
   4.522061e-02  -1.048594e-02   0.000000e+00
  -1.663921e-02   1.377772e-03   0.000000e+00
  -1.548854e-02  -7.566463e-03   0.000000e+00
   3.059942e-02   1.630536e-02   0.000000e+00
   2.637568e-03   4.468146e-03   0.000000e+00
  -2.326748e-02  -4.629513e-02   0.000000e+00
  -3.906776e-02   4.633092e-03   0.000000e+00
   1.300333e-02  -2.629354e-02   0.000000e+00
  -4.657313e-02   4.286556e-02   0.000000e+00
  -3.115178e-03   1.144770e-02   0.000000e+00
   7.807508e-03   7.102685e-02   0.000000e+00
  -7.418643e-03   6.318546e-03   0.000000e+00
   1.442914e-03   2.836599e-02   0.000000e+00
   3.494935e-03  -1.757598e-02   0.000000e+00
  -1.331925e-02   2.424024e-02   0.000000e+00
   6.820836e-02   1.009577e-01   0.000000e+00
   4.954083e-02  -7.560294e-02   0.000000e+00
  -4.566676e-02  -3.683335e-02   0.000000e+00
  -2.098046e-02   5.072107e-02   0.000000e+00
   0.000000e+00   0.000000e+00   0.000000e+00
  -7.071258e-02  -3.977334e-02   0.000000e+00
  -2.887928e-02   6.024836e-02   0.000000e+00
  -8.484033e-03  -6.513714e-03   0.000000e+00
  -5.500151e-03   5.984206e-03   0.000000e+00
  -6.776825e-02  -1.279233e-02   0.000000e+00
  -5.465008e-02  -5.686227e-02   0.000000e+00
  -5.014649e-02   8.357457e-02   0.000000e+00
   1.341926e-02  -2.581911e-02   0.000000e+00
VECTORS Real_Arrow_1.000000e+03(Hz) float
  -3.140367e-02  -1.040919e-02   0.000000e+00
  -7.248307e-02   1.267799e-01   0.000000e+00
  -7.171053e-02   7.691345e-02   0.000000e+00
   8.156951e-02  -1.126977e-02   0.000000e+00
   3.684495e-02  -6.105452e-03   0.000000e+00
   3.493137e-02  -1.972114e-02   0.000000e+00
   2.111783e-02   3.036858e-02   0.000000e+00
   4.665188e-02  -1.947137e-02   0.000000e+00
   0.000000e+00   0.000000e+00   0.000000e+00
   2.183217e-02   1.617617e-02   0.000000e+00
  -2.686713e-02  -3.612766e-02   0.000000e+00
  -5.176378e-02   1.972766e-02   0.000000e+00
   3.126816e-02   9.348442e-02   0.000000e+00
   1.918925e-01   4.646188e-02   0.000000e+00
   0.000000e+00   0.000000e+00   0.000000e+00
   1.243491e-01  -3.283332e-02   0.000000e+00
  -1.625266e-01  -2.325927e-01   0.000000e+00
  -3.884692e-02   1.096334e-01   0.000000e+00
   0.000000e+00   0.000000e+00   0.000000e+00
   8.502132e-02   4.166325e-02   0.000000e+00
  -7.272257e-02   5.323101e-02   0.000000e+00
  -4.921573e-02  -6.829678e-02   0.000000e+00
  -9.211494e-02   1.091652e-01   0.000000e+00
   0.000000e+00   0.000000e+00   0.000000e+00
   3.783224e-03  -3.271114e-02   0.000000e+00
  -3.510711e-02  -2.246546e-02   0.000000e+00
   1.602815e-01   9.189996e-02   0.000000e+00
   3.582646e-02   1.297242e-01   0.000000e+00
   3.034622e-02  -7.935017e-02   0.000000e+00
   7.093464e-02  -1.029151e-01   0.000000e+00
   2.778289e-02  -7.180032e-02   0.000000e+00
   1.750894e-02   3.082529e-03   0.000000e+00
   0.000000e+00   0.000000e+00   0.000000e+00
  -5.188651e-02  -6.510892e-02   0.000000e+00
   0.000000e+00   0.000000e+00   0.000000e+00
   1.435939e-01  -1.073871e-01   0.000000e+00
   4.179337e-02   1.299485e-01   0.000000e+00
   0.000000e+00   0.000000e+00   0.000000e+00
   0.000000e+00   0.000000e+00   0.000000e+00
   1.266545e-01  -1.561656e-01   0.000000e+00
   0.000000e+00   0.000000e+00   0.000000e+00
   0.000000e+00   0.000000e+00   0.000000e+00
  -6.004443e-02  -6.168114e-02   0.000000e+00
   1.413919e-01   5.420404e-02   0.000000e+00
   1.000114e-01   2.279266e-01   0.000000e+00
  -3.369027e-03   1.165618e-01   0.000000e+00
VECTORS Imag_Arrow_1.000000e+03(Hz) float
  -8.800672e-03  -2.743628e-02   0.000000e+00
  -4.419884e-02   4.836136e-02   0.000000e+00
  -2.834008e-02   3.804680e-02   0.000000e+00
  -1.350661e-02  -1.062243e-01   0.000000e+00
  -1.296863e-02  -3.319196e-02   0.000000e+00
  -2.905832e-02   2.011624e-02   0.000000e+00
   3.260087e-03  -2.389925e-03   0.000000e+00
  -4.986656e-02   4.734796e-02   0.000000e+00
   0.000000e+00   0.000000e+00   0.000000e+00
   2.275955e-02  -8.361271e-03   0.000000e+00
  -1.841745e-02   1.487877e-03   0.000000e+00
   1.036129e-03  -1.868012e-02   0.000000e+00
   4.678840e-03   1.554552e-01   0.000000e+00
  -5.751409e-02   1.406245e-02   0.000000e+00
   0.000000e+00   0.000000e+00   0.000000e+00
   3.395510e-02   1.177525e-02   0.000000e+00
  -4.452245e-02  -9.563379e-02   0.000000e+00
   3.351894e-03   4.626936e-02   0.000000e+00
   0.000000e+00   0.000000e+00   0.000000e+00
  -2.492559e-02   6.127543e-03   0.000000e+00
  -1.135193e-02  -4.865642e-03   0.000000e+00
   3.272415e-02   1.716779e-02   0.000000e+00
  -6.393816e-03   1.007914e-02   0.000000e+00
   0.000000e+00   0.000000e+00   0.000000e+00
  -3.863757e-02  -6.390202e-03   0.000000e+00
   1.222669e-02  -2.687485e-02   0.000000e+00
  -3.102123e-02   5.942262e-02   0.000000e+00
  -9.868387e-03   2.338384e-02   0.000000e+00
   9.891875e-03   6.866966e-02   0.000000e+00
  -1.501532e-02   1.319915e-02   0.000000e+00
  -4.412422e-03   2.734567e-02   0.000000e+00
   1.477587e-02  -2.065140e-02   0.000000e+00
   0.000000e+00   0.000000e+00   0.000000e+00
   4.798511e-02   7.668663e-02   0.000000e+00
   0.000000e+00   0.000000e+00   0.000000e+00
  -3.924982e-02  -2.888622e-02   0.000000e+00
  -2.739134e-02   5.242402e-02   0.000000e+00
   0.000000e+00   0.000000e+00   0.000000e+00
   0.000000e+00   0.000000e+00   0.000000e+00
  -2.298592e-02   6.312070e-02   0.000000e+00
   0.000000e+00   0.000000e+00   0.000000e+00
   0.000000e+00   0.000000e+00   0.000000e+00
  -6.812764e-02  -1.599189e-02   0.000000e+00
  -5.074215e-02  -5.505356e-02   0.000000e+00
  -4.047647e-02   9.149829e-02   0.000000e+00
   1.665648e-02  -2.452259e-02   0.000000e+00
