# vtk DataFile Version 2.0
Induction_Arrow_Iter0_PE1
ASCII
DATASET UNSTRUCTURED_GRID
POINTS 46 float
  -2.052000e+03    1.667000e+03   -4.526633e+02
  -1.265000e+03    2.333000e+03   -4.555885e+02
  -9.840000e+02    2.568000e+03   -4.612271e+02
   1.700000e+03   -1.757000e+03   -5.237752e+02
  -1.152000e+03    1.382000e+03   -4.549280e+02
   3.187000e+03    1.067000e+03   -8.370176e+02
   4.716000e+03    9.370000e+02   -8.015281e+02
  -1.855000e+03    5.260000e+02   -5.147377e+02
  -1.420000e+02   -1.905000e+03   -4.746368e+02
  -5.800000e+01    1.069000e+03   -4.555494e+02
  -2.802000e+03    3.302000e+03   -4.314337e+02
  -5.640000e+03   -1.532000e+03   -4.911771e+02
  -8.030000e+02   -5.610000e+02   -5.280929e+02
   1.008000e+03    4.130000e+02   -5.983358e+02
   1.960000e+02    2.246000e+03   -5.219413e+02
  -3.457000e+03    8.320000e+02   -4.470735e+02
   5.640000e+03    2.452000e+03   -7.393049e+02
  -1.334000e+03    3.332000e+03   -4.456136e+02
   1.244000e+03    1.880000e+03   -6.331107e+02
  -2.680000e+02    2.144000e+03   -4.891390e+02
  -4.063000e+03    6.620000e+02   -4.746103e+02
  -1.258000e+03    6.330000e+02   -4.856841e+02
  -2.141000e+03    3.194000e+03   -4.348461e+02
  -3.469000e+03   -3.059000e+03   -6.067613e+02
  -1.604000e+03   -2.570000e+02   -5.141257e+02
  -1.454000e+03    2.220000e+02   -5.386025e+02
   1.864000e+03    1.270000e+02   -7.404291e+02
   2.449000e+03    5.590000e+02   -7.805292e+02
  -1.834000e+03   -1.554000e+03   -6.273074e+02
   1.807000e+03    2.297000e+03   -6.825557e+02
  -2.560000e+03   -1.783000e+03   -6.131337e+02
  -2.741000e+03   -5.010000e+02   -5.080000e+02
   2.884000e+03   -2.179000e+03   -5.274708e+02
  -6.120000e+02   -8.960000e+02   -5.895389e+02
  -1.985000e+03   -2.653000e+03   -5.598834e+02
  -3.390000e+03   -4.000000e+02   -4.982361e+02
   1.586000e+03    1.342000e+03   -6.618442e+02
   1.047000e+03    2.401000e+03   -5.426792e+02
   8.380000e+02   -1.300000e+03   -4.783644e+02
   2.569000e+03    2.441000e+03   -6.035668e+02
  -2.028000e+03    2.833000e+03   -4.322286e+02
  -1.086000e+03    1.998000e+03   -4.563301e+02
   1.514000e+03   -3.332000e+03   -5.646205e+02
   7.040000e+02    1.116000e+03   -5.365099e+02
   1.990000e+03    6.360000e+02   -7.085272e+02
   3.722000e+03   -1.700000e+02   -6.745213e+02
CELLS 46 92
1 0
1 1
1 2
1 3
1 4
1 5
1 6
1 7
1 8
1 9
1 10
1 11
1 12
1 13
1 14
1 15
1 16
1 17
1 18
1 19
1 20
1 21
1 22
1 23
1 24
1 25
1 26
1 27
1 28
1 29
1 30
1 31
1 32
1 33
1 34
1 35
1 36
1 37
1 38
1 39
1 40
1 41
1 42
1 43
1 44
1 45
CELL_TYPES 46
1
1
1
1
1
1
1
1
1
1
1
1
1
1
1
1
1
1
1
1
1
1
1
1
1
1
1
1
1
1
1
1
1
1
1
1
1
1
1
1
1
1
1
1
1
1
POINT_DATA 46
VECTORS Real_Arrow_3.981000e-01(Hz) float
   0.000000e+00   0.000000e+00   0.000000e+00
   0.000000e+00   0.000000e+00   0.000000e+00
   0.000000e+00   0.000000e+00   0.000000e+00
   1.070580e-02  -3.762698e-01   0.000000e+00
   0.000000e+00   0.000000e+00   0.000000e+00
   0.000000e+00   0.000000e+00   0.000000e+00
   0.000000e+00   0.000000e+00   0.000000e+00
   0.000000e+00   0.000000e+00   0.000000e+00
   0.000000e+00   0.000000e+00   0.000000e+00
  -1.097561e-01  -1.160176e-01   0.000000e+00
  -1.636302e-01   4.769203e-03   0.000000e+00
   0.000000e+00   0.000000e+00   0.000000e+00
   0.000000e+00   0.000000e+00   0.000000e+00
   0.000000e+00   0.000000e+00   0.000000e+00
   0.000000e+00   0.000000e+00   0.000000e+00
   0.000000e+00   0.000000e+00   0.000000e+00
   6.248597e-02  -9.125779e-02   0.000000e+00
   0.000000e+00   0.000000e+00   0.000000e+00
   0.000000e+00   0.000000e+00   0.000000e+00
   0.000000e+00   0.000000e+00   0.000000e+00
   0.000000e+00   0.000000e+00   0.000000e+00
   0.000000e+00   0.000000e+00   0.000000e+00
   0.000000e+00   0.000000e+00   0.000000e+00
   0.000000e+00   0.000000e+00   0.000000e+00
   0.000000e+00   0.000000e+00   0.000000e+00
   0.000000e+00   0.000000e+00   0.000000e+00
  -1.747736e-02  -1.819722e-01   0.000000e+00
   1.104563e-02  -1.485678e-01   0.000000e+00
   0.000000e+00   0.000000e+00   0.000000e+00
  -6.644668e-03  -8.684440e-02   0.000000e+00
   0.000000e+00   0.000000e+00   0.000000e+00
   0.000000e+00   0.000000e+00   0.000000e+00
   0.000000e+00   0.000000e+00   0.000000e+00
   8.048331e-03  -9.442891e-02   0.000000e+00
   0.000000e+00   0.000000e+00   0.000000e+00
   0.000000e+00   0.000000e+00   0.000000e+00
   0.000000e+00   0.000000e+00   0.000000e+00
   0.000000e+00   0.000000e+00   0.000000e+00
  -7.414524e-02  -3.080871e-01   0.000000e+00
  -6.178290e-02   1.085272e-01   0.000000e+00
  -1.099965e-01  -3.795251e-02   0.000000e+00
   0.000000e+00   0.000000e+00   0.000000e+00
   0.000000e+00   0.000000e+00   0.000000e+00
   0.000000e+00   0.000000e+00   0.000000e+00
   0.000000e+00   0.000000e+00   0.000000e+00
   0.000000e+00   0.000000e+00   0.000000e+00
VECTORS Imag_Arrow_3.981000e-01(Hz) float
   0.000000e+00   0.000000e+00   0.000000e+00
   0.000000e+00   0.000000e+00   0.000000e+00
   0.000000e+00   0.000000e+00   0.000000e+00
   7.126897e-02   6.272702e-02   0.000000e+00
   0.000000e+00   0.000000e+00   0.000000e+00
   0.000000e+00   0.000000e+00   0.000000e+00
   0.000000e+00   0.000000e+00   0.000000e+00
   0.000000e+00   0.000000e+00   0.000000e+00
   0.000000e+00   0.000000e+00   0.000000e+00
   9.309632e-02  -1.623179e-02   0.000000e+00
   6.629784e-02  -4.947637e-02   0.000000e+00
   0.000000e+00   0.000000e+00   0.000000e+00
   0.000000e+00   0.000000e+00   0.000000e+00
   0.000000e+00   0.000000e+00   0.000000e+00
   0.000000e+00   0.000000e+00   0.000000e+00
   0.000000e+00   0.000000e+00   0.000000e+00
   9.785125e-02  -1.944567e-02   0.000000e+00
   0.000000e+00   0.000000e+00   0.000000e+00
   0.000000e+00   0.000000e+00   0.000000e+00
   0.000000e+00   0.000000e+00   0.000000e+00
   0.000000e+00   0.000000e+00   0.000000e+00
   0.000000e+00   0.000000e+00   0.000000e+00
   0.000000e+00   0.000000e+00   0.000000e+00
   0.000000e+00   0.000000e+00   0.000000e+00
   0.000000e+00   0.000000e+00   0.000000e+00
   0.000000e+00   0.000000e+00   0.000000e+00
   9.203498e-02   2.123738e-03   0.000000e+00
   8.428808e-02  -1.028162e-02   0.000000e+00
   0.000000e+00   0.000000e+00   0.000000e+00
   7.604037e-02  -1.340099e-02   0.000000e+00
   0.000000e+00   0.000000e+00   0.000000e+00
   0.000000e+00   0.000000e+00   0.000000e+00
   0.000000e+00   0.000000e+00   0.000000e+00
   1.687905e-02  -3.356682e-02   0.000000e+00
   0.000000e+00   0.000000e+00   0.000000e+00
   0.000000e+00   0.000000e+00   0.000000e+00
   0.000000e+00   0.000000e+00   0.000000e+00
   0.000000e+00   0.000000e+00   0.000000e+00
   1.085092e-01   4.670852e-02   0.000000e+00
   9.198203e-02  -8.356631e-02   0.000000e+00
   5.333675e-02  -3.446131e-02   0.000000e+00
   0.000000e+00   0.000000e+00   0.000000e+00
   0.000000e+00   0.000000e+00   0.000000e+00
   0.000000e+00   0.000000e+00   0.000000e+00
   0.000000e+00   0.000000e+00   0.000000e+00
   0.000000e+00   0.000000e+00   0.000000e+00
VECTORS Real_Arrow_6.309500e-01(Hz) float
   0.000000e+00   0.000000e+00   0.000000e+00
  -1.687631e-01  -5.857994e-03   0.000000e+00
   0.000000e+00   0.000000e+00   0.000000e+00
  -1.447089e-02  -3.977846e-01   0.000000e+00
  -1.538795e-01  -9.715230e-02   0.000000e+00
   0.000000e+00   0.000000e+00   0.000000e+00
   9.867298e-02  -1.499702e-01   0.000000e+00
   0.000000e+00   0.000000e+00   0.000000e+00
   0.000000e+00   0.000000e+00   0.000000e+00
  -1.422638e-01  -1.109115e-01   0.000000e+00
  -1.846465e-01   2.271816e-02   0.000000e+00
   0.000000e+00   0.000000e+00   0.000000e+00
   0.000000e+00   0.000000e+00   0.000000e+00
  -1.534971e-01  -1.410193e-01   0.000000e+00
  -1.062556e-01  -3.380748e-02   0.000000e+00
   0.000000e+00   0.000000e+00   0.000000e+00
   3.268115e-02  -8.296958e-02   0.000000e+00
   0.000000e+00   0.000000e+00   0.000000e+00
   0.000000e+00   0.000000e+00   0.000000e+00
   0.000000e+00   0.000000e+00   0.000000e+00
   0.000000e+00   0.000000e+00   0.000000e+00
   0.000000e+00   0.000000e+00   0.000000e+00
  -1.428734e-01   1.386743e-02   0.000000e+00
   0.000000e+00   0.000000e+00   0.000000e+00
   0.000000e+00   0.000000e+00   0.000000e+00
   0.000000e+00   0.000000e+00   0.000000e+00
  -4.899324e-02  -1.849075e-01   0.000000e+00
  -1.768157e-02  -1.476502e-01   0.000000e+00
   0.000000e+00   0.000000e+00   0.000000e+00
  -3.432231e-02  -8.190457e-02   0.000000e+00
  -9.599797e-02  -7.156491e-02   0.000000e+00
  -1.747791e-01  -7.236815e-02   0.000000e+00
   0.000000e+00   0.000000e+00   0.000000e+00
  -2.868722e-04  -8.793224e-02   0.000000e+00
   0.000000e+00   0.000000e+00   0.000000e+00
   0.000000e+00   0.000000e+00   0.000000e+00
  -1.123989e-01  -3.566581e-02   0.000000e+00
   0.000000e+00   0.000000e+00   0.000000e+00
   0.000000e+00   0.000000e+00   0.000000e+00
  -9.239075e-02   1.354124e-01   0.000000e+00
  -1.275078e-01  -2.424014e-02   0.000000e+00
  -1.436280e-01  -4.407430e-02   0.000000e+00
   0.000000e+00   0.000000e+00   0.000000e+00
  -1.467322e-01  -1.061578e-01   0.000000e+00
   0.000000e+00   0.000000e+00   0.000000e+00
   0.000000e+00   0.000000e+00   0.000000e+00
VECTORS Imag_Arrow_6.309500e-01(Hz) float
   0.000000e+00   0.000000e+00   0.000000e+00
   6.184889e-02  -5.598285e-02   0.000000e+00
   0.000000e+00   0.000000e+00   0.000000e+00
   5.748646e-02   6.528831e-02   0.000000e+00
   6.322790e-02  -1.567190e-02   0.000000e+00
   0.000000e+00   0.000000e+00   0.000000e+00
   4.938114e-02  -2.969866e-03   0.000000e+00
   0.000000e+00   0.000000e+00   0.000000e+00
   0.000000e+00   0.000000e+00   0.000000e+00
   7.641565e-02  -2.000888e-02   0.000000e+00
   4.690347e-02  -5.250205e-02   0.000000e+00
   0.000000e+00   0.000000e+00   0.000000e+00
   0.000000e+00   0.000000e+00   0.000000e+00
   1.193574e-01  -1.864515e-02   0.000000e+00
   5.688794e-02  -4.409606e-02   0.000000e+00
   0.000000e+00   0.000000e+00   0.000000e+00
   8.297847e-02  -1.858817e-02   0.000000e+00
   0.000000e+00   0.000000e+00   0.000000e+00
   0.000000e+00   0.000000e+00   0.000000e+00
   0.000000e+00   0.000000e+00   0.000000e+00
   0.000000e+00   0.000000e+00   0.000000e+00
   0.000000e+00   0.000000e+00   0.000000e+00
   3.597166e-02  -5.367132e-02   0.000000e+00
   0.000000e+00   0.000000e+00   0.000000e+00
   0.000000e+00   0.000000e+00   0.000000e+00
   0.000000e+00   0.000000e+00   0.000000e+00
   8.118354e-02  -3.090216e-03   0.000000e+00
   7.276778e-02  -1.735607e-02   0.000000e+00
   0.000000e+00   0.000000e+00   0.000000e+00
   6.210545e-02  -1.506442e-02   0.000000e+00
   3.881323e-02  -1.369039e-02   0.000000e+00
   6.908987e-02  -1.586249e-02   0.000000e+00
   0.000000e+00   0.000000e+00   0.000000e+00
  -2.855655e-04  -4.593233e-02   0.000000e+00
   0.000000e+00   0.000000e+00   0.000000e+00
   0.000000e+00   0.000000e+00   0.000000e+00
   9.235003e-02  -5.814196e-02   0.000000e+00
   0.000000e+00   0.000000e+00   0.000000e+00
   0.000000e+00   0.000000e+00   0.000000e+00
   7.325389e-02  -9.777964e-02   0.000000e+00
   3.425769e-02  -3.568776e-02   0.000000e+00
   5.519568e-02  -3.942110e-02   0.000000e+00
   0.000000e+00   0.000000e+00   0.000000e+00
   9.919549e-02  -2.137475e-02   0.000000e+00
   0.000000e+00   0.000000e+00   0.000000e+00
   0.000000e+00   0.000000e+00   0.000000e+00
VECTORS Real_Arrow_1.000000e+00(Hz) float
  -1.487932e-01  -7.602330e-02   0.000000e+00
  -1.883534e-01   1.343291e-02   0.000000e+00
   0.000000e+00   0.000000e+00   0.000000e+00
  -3.340973e-02  -4.233556e-01   0.000000e+00
  -1.746052e-01  -9.022538e-02   0.000000e+00
   0.000000e+00   0.000000e+00   0.000000e+00
   8.605928e-02  -1.496163e-01   0.000000e+00
  -1.911366e-01  -3.786269e-02   0.000000e+00
   0.000000e+00   0.000000e+00   0.000000e+00
  -1.685148e-01  -1.042519e-01   0.000000e+00
  -1.973376e-01   4.361568e-02   0.000000e+00
  -2.968349e-01  -1.015132e-01   0.000000e+00
   0.000000e+00   0.000000e+00   0.000000e+00
  -1.922666e-01  -1.381734e-01   0.000000e+00
   0.000000e+00   0.000000e+00   0.000000e+00
   0.000000e+00   0.000000e+00   0.000000e+00
   1.291693e-02  -7.410011e-02   0.000000e+00
   0.000000e+00   0.000000e+00   0.000000e+00
   0.000000e+00   0.000000e+00   0.000000e+00
   0.000000e+00   0.000000e+00   0.000000e+00
   0.000000e+00   0.000000e+00   0.000000e+00
   0.000000e+00   0.000000e+00   0.000000e+00
  -1.523780e-01   3.469760e-02   0.000000e+00
   0.000000e+00   0.000000e+00   0.000000e+00
   0.000000e+00   0.000000e+00   0.000000e+00
   0.000000e+00   0.000000e+00   0.000000e+00
  -7.502671e-02  -1.875832e-01   0.000000e+00
  -4.016087e-02  -1.453970e-01   0.000000e+00
   0.000000e+00   0.000000e+00   0.000000e+00
  -5.667392e-02  -7.582489e-02   0.000000e+00
  -1.103945e-01  -7.013785e-02   0.000000e+00
  -1.976658e-01  -6.975296e-02   0.000000e+00
   0.000000e+00   0.000000e+00   0.000000e+00
  -3.366953e-03  -7.850374e-02   0.000000e+00
   0.000000e+00   0.000000e+00   0.000000e+00
   0.000000e+00   0.000000e+00   0.000000e+00
  -1.425721e-01  -2.023904e-02   0.000000e+00
   0.000000e+00   0.000000e+00   0.000000e+00
  -1.417518e-01  -3.430039e-01   0.000000e+00
  -1.157041e-01   1.729931e-01   0.000000e+00
  -1.368173e-01  -8.184991e-03   0.000000e+00
  -1.618855e-01  -2.951177e-02   0.000000e+00
   0.000000e+00   0.000000e+00   0.000000e+00
  -1.802835e-01  -9.920001e-02   0.000000e+00
   0.000000e+00   0.000000e+00   0.000000e+00
   0.000000e+00   0.000000e+00   0.000000e+00
VECTORS Imag_Arrow_1.000000e+00(Hz) float
   1.886272e-02  -1.509546e-02   0.000000e+00
   3.680803e-02  -6.300788e-02   0.000000e+00
   0.000000e+00   0.000000e+00   0.000000e+00
   3.861829e-02   6.514164e-02   0.000000e+00
   4.075224e-02  -1.491964e-02   0.000000e+00
   0.000000e+00   0.000000e+00   0.000000e+00
   3.336564e-02  -5.259587e-03   0.000000e+00
   3.696686e-02  -5.310283e-02   0.000000e+00
   0.000000e+00   0.000000e+00   0.000000e+00
   5.327480e-02  -2.419840e-02   0.000000e+00
   2.364145e-02  -5.246703e-02   0.000000e+00
   3.709435e-02  -1.602097e-02   0.000000e+00
   0.000000e+00   0.000000e+00   0.000000e+00
   1.057859e-01  -2.842008e-02   0.000000e+00
   0.000000e+00   0.000000e+00   0.000000e+00
   0.000000e+00   0.000000e+00   0.000000e+00
   6.813239e-02  -1.517039e-02   0.000000e+00
   0.000000e+00   0.000000e+00   0.000000e+00
   0.000000e+00   0.000000e+00   0.000000e+00
   0.000000e+00   0.000000e+00   0.000000e+00
   0.000000e+00   0.000000e+00   0.000000e+00
   0.000000e+00   0.000000e+00   0.000000e+00
   1.164742e-02  -5.567110e-02   0.000000e+00
   0.000000e+00   0.000000e+00   0.000000e+00
   0.000000e+00   0.000000e+00   0.000000e+00
   0.000000e+00   0.000000e+00   0.000000e+00
   6.579091e-02  -1.160655e-02   0.000000e+00
   5.719356e-02  -2.789610e-02   0.000000e+00
   0.000000e+00   0.000000e+00   0.000000e+00
   4.166597e-02  -1.581283e-02   0.000000e+00
   2.896847e-02  -1.690799e-02   0.000000e+00
   5.864890e-02  -1.835422e-02   0.000000e+00
   0.000000e+00   0.000000e+00   0.000000e+00
  -2.392684e-02  -6.433960e-02   0.000000e+00
   0.000000e+00   0.000000e+00   0.000000e+00
   0.000000e+00   0.000000e+00   0.000000e+00
   7.404231e-02  -7.557379e-02   0.000000e+00
   0.000000e+00   0.000000e+00   0.000000e+00
   8.706351e-02   5.372575e-02   0.000000e+00
   5.041160e-02  -1.127354e-01   0.000000e+00
   1.097736e-02  -3.337242e-02   0.000000e+00
   3.026374e-02  -4.310320e-02   0.000000e+00
   0.000000e+00   0.000000e+00   0.000000e+00
   7.940829e-02  -2.644591e-02   0.000000e+00
   0.000000e+00   0.000000e+00   0.000000e+00
   0.000000e+00   0.000000e+00   0.000000e+00
VECTORS Real_Arrow_1.584800e+00(Hz) float
  -1.520539e-01  -6.839896e-02   0.000000e+00
  -1.967439e-01   3.777099e-02   0.000000e+00
   0.000000e+00   0.000000e+00   0.000000e+00
   0.000000e+00   0.000000e+00   0.000000e+00
  -1.863331e-01  -8.232199e-02   0.000000e+00
  -2.651770e-02  -9.631652e-02   0.000000e+00
   8.263595e-02  -1.485830e-01   0.000000e+00
  -2.037153e-01  -2.013135e-02   0.000000e+00
   0.000000e+00   0.000000e+00   0.000000e+00
  -1.861596e-01  -9.493552e-02   0.000000e+00
  -1.988810e-01   6.725259e-02   0.000000e+00
  -3.172164e-01  -1.057941e-01   0.000000e+00
   0.000000e+00   0.000000e+00   0.000000e+00
  -2.270362e-01  -1.319053e-01   0.000000e+00
   0.000000e+00   0.000000e+00   0.000000e+00
   0.000000e+00   0.000000e+00   0.000000e+00
   1.376454e-03  -6.490665e-02   0.000000e+00
   0.000000e+00   0.000000e+00   0.000000e+00
   0.000000e+00   0.000000e+00   0.000000e+00
   0.000000e+00   0.000000e+00   0.000000e+00
   0.000000e+00   0.000000e+00   0.000000e+00
  -2.211182e-01  -8.814822e-02   0.000000e+00
  -1.498431e-01   5.904088e-02   0.000000e+00
   0.000000e+00   0.000000e+00   0.000000e+00
   0.000000e+00   0.000000e+00   0.000000e+00
   0.000000e+00   0.000000e+00   0.000000e+00
  -9.439192e-02  -1.883765e-01   0.000000e+00
  -5.527742e-02  -1.395732e-01   0.000000e+00
  -1.094778e-01  -7.255876e-02   0.000000e+00
  -7.075733e-02  -6.873330e-02   0.000000e+00
  -1.229548e-01  -6.699596e-02   0.000000e+00
  -2.189800e-01  -6.627411e-02   0.000000e+00
   5.561953e-02  -4.763928e-02   0.000000e+00
   3.887051e-03  -6.144035e-02   0.000000e+00
   0.000000e+00   0.000000e+00   0.000000e+00
   0.000000e+00   0.000000e+00   0.000000e+00
  -1.664691e-01   3.452489e-03   0.000000e+00
  -1.432943e-01  -3.600364e-03   0.000000e+00
  -1.687919e-01  -3.678347e-01   0.000000e+00
  -1.324150e-01   2.275729e-01   0.000000e+00
   0.000000e+00   0.000000e+00   0.000000e+00
  -1.695252e-01  -1.134076e-02   0.000000e+00
   0.000000e+00   0.000000e+00   0.000000e+00
  -2.069306e-01  -8.903951e-02   0.000000e+00
   0.000000e+00   0.000000e+00   0.000000e+00
   0.000000e+00   0.000000e+00   0.000000e+00
VECTORS Imag_Arrow_1.584800e+00(Hz) float
  -5.519630e-03  -1.079168e-02   0.000000e+00
   7.323126e-03  -6.768264e-02   0.000000e+00
   0.000000e+00   0.000000e+00   0.000000e+00
   0.000000e+00   0.000000e+00   0.000000e+00
   1.348334e-02  -1.156614e-02   0.000000e+00
   4.248894e-02  -4.404614e-02   0.000000e+00
   1.974872e-02  -8.671679e-03   0.000000e+00
   9.031646e-03  -6.564739e-02   0.000000e+00
   0.000000e+00   0.000000e+00   0.000000e+00
   2.373306e-02  -2.825391e-02   0.000000e+00
  -9.118055e-04  -4.604774e-02   0.000000e+00
   2.344493e-03  -3.995143e-02   0.000000e+00
   0.000000e+00   0.000000e+00   0.000000e+00
   8.806956e-02  -4.289847e-02   0.000000e+00
   0.000000e+00   0.000000e+00   0.000000e+00
   0.000000e+00   0.000000e+00   0.000000e+00
   5.896340e-02  -7.805436e-03   0.000000e+00
   0.000000e+00   0.000000e+00   0.000000e+00
   0.000000e+00   0.000000e+00   0.000000e+00
   0.000000e+00   0.000000e+00   0.000000e+00
   0.000000e+00   0.000000e+00   0.000000e+00
   2.642810e-02  -2.666525e-02   0.000000e+00
  -1.423320e-02  -5.199936e-02   0.000000e+00
   0.000000e+00   0.000000e+00   0.000000e+00
   0.000000e+00   0.000000e+00   0.000000e+00
   0.000000e+00   0.000000e+00   0.000000e+00
   4.755135e-02  -2.574469e-02   0.000000e+00
   4.006572e-02  -4.353567e-02   0.000000e+00
   9.436565e-03  -3.179720e-02   0.000000e+00
   1.458502e-02  -1.487131e-02   0.000000e+00
   1.336528e-02  -2.449583e-02   0.000000e+00
   4.364833e-02  -2.424089e-02   0.000000e+00
  -4.669175e-02  -7.746979e-02   0.000000e+00
  -5.518504e-02  -9.084221e-02   0.000000e+00
   0.000000e+00   0.000000e+00   0.000000e+00
   0.000000e+00   0.000000e+00   0.000000e+00
   5.134164e-02  -9.744747e-02   0.000000e+00
   3.006986e-02  -5.593094e-02   0.000000e+00
   7.116385e-02   5.164648e-02   0.000000e+00
   2.369105e-02  -1.191045e-01   0.000000e+00
   0.000000e+00   0.000000e+00   0.000000e+00
   2.751592e-04  -4.398613e-02   0.000000e+00
   0.000000e+00   0.000000e+00   0.000000e+00
   5.338671e-02  -3.159851e-02   0.000000e+00
   0.000000e+00   0.000000e+00   0.000000e+00
   0.000000e+00   0.000000e+00   0.000000e+00
VECTORS Real_Arrow_2.511800e+00(Hz) float
  -1.446167e-01  -6.181702e-02   0.000000e+00
  -1.910281e-01   6.578849e-02   0.000000e+00
   0.000000e+00   0.000000e+00   0.000000e+00
  -4.276387e-02  -4.821695e-01   0.000000e+00
  -1.867250e-01  -7.484692e-02   0.000000e+00
  -3.567273e-02  -7.911121e-02   0.000000e+00
   8.396919e-02  -1.460556e-01   0.000000e+00
  -2.041329e-01   6.641593e-03   0.000000e+00
   1.008777e-01  -2.073999e-01   0.000000e+00
  -1.925357e-01  -8.269096e-02   0.000000e+00
  -1.886999e-01   8.955805e-02   0.000000e+00
  -3.196597e-01  -8.962910e-02   0.000000e+00
   0.000000e+00   0.000000e+00   0.000000e+00
  -2.584570e-01  -1.187414e-01   0.000000e+00
  -1.301412e-01   2.512133e-02   0.000000e+00
   0.000000e+00   0.000000e+00   0.000000e+00
  -8.059097e-03  -5.693314e-02   0.000000e+00
   0.000000e+00   0.000000e+00   0.000000e+00
   0.000000e+00   0.000000e+00   0.000000e+00
   0.000000e+00   0.000000e+00   0.000000e+00
   0.000000e+00   0.000000e+00   0.000000e+00
  -2.281499e-01  -7.621022e-02   0.000000e+00
  -1.341097e-01   8.325916e-02   0.000000e+00
  -1.967821e-01  -1.278359e-01   0.000000e+00
   0.000000e+00   0.000000e+00   0.000000e+00
   0.000000e+00   0.000000e+00   0.000000e+00
  -1.076462e-01  -1.835020e-01   0.000000e+00
  -6.437724e-02  -1.263411e-01   0.000000e+00
  -1.120231e-01  -6.074014e-02   0.000000e+00
  -7.301718e-02  -6.142548e-02   0.000000e+00
  -1.288247e-01  -5.755651e-02   0.000000e+00
  -2.362999e-01  -5.864862e-02   0.000000e+00
   9.709221e-02  -7.194750e-03   0.000000e+00
   2.853866e-02  -2.953292e-02   0.000000e+00
  -6.905938e-02  -1.143167e-01   0.000000e+00
   0.000000e+00   0.000000e+00   0.000000e+00
  -1.837314e-01   3.891005e-02   0.000000e+00
  -1.516872e-01   1.866589e-02   0.000000e+00
  -1.905408e-01  -3.959006e-01   0.000000e+00
  -1.418955e-01   2.955252e-01   0.000000e+00
   0.000000e+00   0.000000e+00   0.000000e+00
  -1.636472e-01   9.097492e-03   0.000000e+00
   0.000000e+00   0.000000e+00   0.000000e+00
  -2.249009e-01  -7.519305e-02   0.000000e+00
   0.000000e+00   0.000000e+00   0.000000e+00
   0.000000e+00   0.000000e+00   0.000000e+00
VECTORS Imag_Arrow_2.511800e+00(Hz) float
  -3.015570e-02  -1.394020e-03   0.000000e+00
  -2.255231e-02  -6.448943e-02   0.000000e+00
   0.000000e+00   0.000000e+00   0.000000e+00
  -7.267688e-03   3.463660e-02   0.000000e+00
  -1.653366e-02  -2.732829e-03   0.000000e+00
   3.174865e-02  -5.507149e-02   0.000000e+00
   1.364515e-02  -1.275979e-02   0.000000e+00
  -2.487324e-02  -7.677971e-02   0.000000e+00
  -1.049062e-01  -2.679213e-03   0.000000e+00
  -1.130447e-02  -2.931639e-02   0.000000e+00
  -2.093086e-02  -2.755752e-02   0.000000e+00
  -5.156127e-02  -7.905816e-02   0.000000e+00
   0.000000e+00   0.000000e+00   0.000000e+00
   6.473617e-02  -6.133763e-02   0.000000e+00
  -3.365288e-02  -4.322916e-02   0.000000e+00
   0.000000e+00   0.000000e+00   0.000000e+00
   5.971473e-02   6.426600e-03   0.000000e+00
   0.000000e+00   0.000000e+00   0.000000e+00
   0.000000e+00   0.000000e+00   0.000000e+00
   0.000000e+00   0.000000e+00   0.000000e+00
   0.000000e+00   0.000000e+00   0.000000e+00
  -5.633029e-03  -2.797290e-02   0.000000e+00
  -3.524774e-02  -3.668806e-02   0.000000e+00
   2.790381e-04   7.015027e-04   0.000000e+00
   0.000000e+00   0.000000e+00   0.000000e+00
   0.000000e+00   0.000000e+00   0.000000e+00
   2.825066e-02  -4.659581e-02   0.000000e+00
   2.411252e-02  -6.371981e-02   0.000000e+00
  -1.466355e-02  -4.376926e-02   0.000000e+00
  -1.739768e-02  -1.088942e-02   0.000000e+00
  -9.890712e-03  -3.505198e-02   0.000000e+00
   2.136202e-02  -3.322908e-02   0.000000e+00
  -7.109862e-02  -9.707401e-02   0.000000e+00
  -9.023205e-02  -1.228887e-01   0.000000e+00
  -2.814176e-02   3.945946e-03   0.000000e+00
   0.000000e+00   0.000000e+00   0.000000e+00
   2.373344e-02  -1.193248e-01   0.000000e+00
  -5.107752e-03  -5.455596e-02   0.000000e+00
   5.206566e-02   3.827450e-02   0.000000e+00
  -1.053298e-02  -9.542556e-02   0.000000e+00
   0.000000e+00   0.000000e+00   0.000000e+00
  -3.152448e-02  -3.722137e-02   0.000000e+00
   0.000000e+00   0.000000e+00   0.000000e+00
   2.089322e-02  -3.371219e-02   0.000000e+00
   0.000000e+00   0.000000e+00   0.000000e+00
   0.000000e+00   0.000000e+00   0.000000e+00
VECTORS Real_Arrow_3.981000e+00(Hz) float
  -1.262576e-01  -6.180058e-02   0.000000e+00
  -1.710212e-01   8.867857e-02   0.000000e+00
   0.000000e+00   0.000000e+00   0.000000e+00
  -3.257497e-02  -5.003225e-01   0.000000e+00
  -1.743574e-01  -7.369014e-02   0.000000e+00
  -4.508838e-02  -5.584385e-02   0.000000e+00
   8.265027e-02  -1.425439e-01   0.000000e+00
  -1.872288e-01   4.144093e-02   0.000000e+00
   1.538910e-01  -2.030055e-01   0.000000e+00
  -1.848335e-01  -7.159003e-02   0.000000e+00
  -1.723468e-01   9.849831e-02   0.000000e+00
  -2.829975e-01  -3.728731e-02   0.000000e+00
   0.000000e+00   0.000000e+00   0.000000e+00
  -2.849947e-01  -9.667250e-02   0.000000e+00
  -1.106365e-01   4.089408e-02   0.000000e+00
   0.000000e+00   0.000000e+00   0.000000e+00
  -2.405798e-02  -5.549715e-02   0.000000e+00
   0.000000e+00   0.000000e+00   0.000000e+00
  -3.619156e-02  -3.198649e-02   0.000000e+00
   0.000000e+00   0.000000e+00   0.000000e+00
   0.000000e+00   0.000000e+00   0.000000e+00
  -2.212020e-01  -6.343060e-02   0.000000e+00
  -1.101524e-01   9.520958e-02   0.000000e+00
  -1.970062e-01  -1.235836e-01   0.000000e+00
   0.000000e+00   0.000000e+00   0.000000e+00
   0.000000e+00   0.000000e+00   0.000000e+00
  -1.161651e-01  -1.687666e-01   0.000000e+00
  -7.030290e-02  -1.030896e-01   0.000000e+00
  -1.010030e-01  -4.011840e-02   0.000000e+00
  -6.081385e-02  -5.576398e-02   0.000000e+00
   0.000000e+00   0.000000e+00   0.000000e+00
  -2.444097e-01  -4.401261e-02   0.000000e+00
   1.481634e-01   4.269859e-02   0.000000e+00
   7.464640e-02   2.211182e-02   0.000000e+00
  -5.215190e-02  -1.105139e-01   0.000000e+00
   0.000000e+00   0.000000e+00   0.000000e+00
   0.000000e+00   0.000000e+00   0.000000e+00
  -1.443945e-01   3.860467e-02   0.000000e+00
  -2.055745e-01  -4.204311e-01   0.000000e+00
  -1.341270e-01   3.462776e-01   0.000000e+00
  -9.775374e-02   2.644031e-02   0.000000e+00
  -1.433230e-01   2.386813e-02   0.000000e+00
   0.000000e+00   0.000000e+00   0.000000e+00
  -2.310758e-01  -6.146342e-02   0.000000e+00
  -1.372144e-01  -4.707170e-02   0.000000e+00
   7.177589e-02  -1.828465e-01   0.000000e+00
VECTORS Imag_Arrow_3.981000e+00(Hz) float
  -5.154884e-02   1.379314e-02   0.000000e+00
  -4.673442e-02  -5.019407e-02   0.000000e+00
   0.000000e+00   0.000000e+00   0.000000e+00
  -2.616981e-02  -4.514993e-03   0.000000e+00
  -4.639154e-02   1.267913e-02   0.000000e+00
   2.224608e-02  -6.137649e-02   0.000000e+00
   1.336321e-02  -1.686329e-02   0.000000e+00
  -6.046333e-02  -7.895303e-02   0.000000e+00
  -1.245285e-01  -1.119168e-02   0.000000e+00
  -5.029921e-02  -2.492548e-02   0.000000e+00
  -3.071849e-02   4.104741e-03   0.000000e+00
  -1.107712e-01  -1.094329e-01   0.000000e+00
   0.000000e+00   0.000000e+00   0.000000e+00
   3.100900e-02  -8.061625e-02   0.000000e+00
  -6.664390e-02  -2.642273e-02   0.000000e+00
   0.000000e+00   0.000000e+00   0.000000e+00
   6.798519e-02   2.954609e-02   0.000000e+00
   0.000000e+00   0.000000e+00   0.000000e+00
  -1.018472e-01  -3.190223e-03   0.000000e+00
   0.000000e+00   0.000000e+00   0.000000e+00
   0.000000e+00   0.000000e+00   0.000000e+00
  -4.110704e-02  -2.366102e-02   0.000000e+00
  -4.438125e-02  -7.890304e-03   0.000000e+00
  -4.076646e-02  -6.871606e-03   0.000000e+00
   0.000000e+00   0.000000e+00   0.000000e+00
   0.000000e+00   0.000000e+00   0.000000e+00
   6.799839e-03  -7.261087e-02   0.000000e+00
   8.488295e-03  -8.501444e-02   0.000000e+00
  -4.080251e-02  -5.294342e-02   0.000000e+00
  -5.079663e-02  -3.256019e-03   0.000000e+00
   0.000000e+00   0.000000e+00   0.000000e+00
  -9.582448e-03  -4.211119e-02   0.000000e+00
  -5.923756e-02  -9.291292e-02   0.000000e+00
  -1.185192e-01  -1.515012e-01   0.000000e+00
  -5.377825e-02   4.707043e-03   0.000000e+00
   0.000000e+00   0.000000e+00   0.000000e+00
   0.000000e+00   0.000000e+00   0.000000e+00
  -4.460933e-02  -4.646368e-02   0.000000e+00
   2.922896e-02   7.968449e-03   0.000000e+00
  -5.540006e-02  -2.516918e-02   0.000000e+00
  -4.599588e-02   3.142875e-02   0.000000e+00
  -6.026536e-02  -1.978229e-02   0.000000e+00
   0.000000e+00   0.000000e+00   0.000000e+00
  -1.889305e-02  -2.980356e-02   0.000000e+00
   2.119596e-02  -1.294876e-01   0.000000e+00
  -5.539840e-03  -6.125092e-02   0.000000e+00
