# vtk DataFile Version 2.0
Induction_Arrow_Iter1_PE2
ASCII
DATASET UNSTRUCTURED_GRID
POINTS 46 float
  -2.052000e+03    1.667000e+03   -4.526633e+02
  -1.265000e+03    2.333000e+03   -4.555885e+02
  -9.840000e+02    2.568000e+03   -4.612271e+02
   1.700000e+03   -1.757000e+03   -5.237752e+02
  -1.152000e+03    1.382000e+03   -4.549280e+02
   3.187000e+03    1.067000e+03   -8.370176e+02
   4.716000e+03    9.370000e+02   -8.015281e+02
  -1.855000e+03    5.260000e+02   -5.147377e+02
  -1.420000e+02   -1.905000e+03   -4.746368e+02
  -5.800000e+01    1.069000e+03   -4.555494e+02
  -2.802000e+03    3.302000e+03   -4.314337e+02
  -5.640000e+03   -1.532000e+03   -4.911771e+02
  -8.030000e+02   -5.610000e+02   -5.280929e+02
   1.008000e+03    4.130000e+02   -5.983358e+02
   1.960000e+02    2.246000e+03   -5.219413e+02
  -3.457000e+03    8.320000e+02   -4.470735e+02
   5.640000e+03    2.452000e+03   -7.393049e+02
  -1.334000e+03    3.332000e+03   -4.456136e+02
   1.244000e+03    1.880000e+03   -6.331107e+02
  -2.680000e+02    2.144000e+03   -4.891390e+02
  -4.063000e+03    6.620000e+02   -4.746103e+02
  -1.258000e+03    6.330000e+02   -4.856841e+02
  -2.141000e+03    3.194000e+03   -4.348461e+02
  -3.469000e+03   -3.059000e+03   -6.067613e+02
  -1.604000e+03   -2.570000e+02   -5.141257e+02
  -1.454000e+03    2.220000e+02   -5.386025e+02
   1.864000e+03    1.270000e+02   -7.404291e+02
   2.449000e+03    5.590000e+02   -7.805292e+02
  -1.834000e+03   -1.554000e+03   -6.273074e+02
   1.807000e+03    2.297000e+03   -6.825557e+02
  -2.560000e+03   -1.783000e+03   -6.131337e+02
  -2.741000e+03   -5.010000e+02   -5.080000e+02
   2.884000e+03   -2.179000e+03   -5.274708e+02
  -6.120000e+02   -8.960000e+02   -5.895389e+02
  -1.985000e+03   -2.653000e+03   -5.598834e+02
  -3.390000e+03   -4.000000e+02   -4.982361e+02
   1.586000e+03    1.342000e+03   -6.618442e+02
   1.047000e+03    2.401000e+03   -5.426792e+02
   8.380000e+02   -1.300000e+03   -4.783644e+02
   2.569000e+03    2.441000e+03   -6.035668e+02
  -2.028000e+03    2.833000e+03   -4.322286e+02
  -1.086000e+03    1.998000e+03   -4.563301e+02
   1.514000e+03   -3.332000e+03   -5.646205e+02
   7.040000e+02    1.116000e+03   -5.365099e+02
   1.990000e+03    6.360000e+02   -7.085272e+02
   3.722000e+03   -1.700000e+02   -6.745213e+02
CELLS 46 92
1 0
1 1
1 2
1 3
1 4
1 5
1 6
1 7
1 8
1 9
1 10
1 11
1 12
1 13
1 14
1 15
1 16
1 17
1 18
1 19
1 20
1 21
1 22
1 23
1 24
1 25
1 26
1 27
1 28
1 29
1 30
1 31
1 32
1 33
1 34
1 35
1 36
1 37
1 38
1 39
1 40
1 41
1 42
1 43
1 44
1 45
CELL_TYPES 46
1
1
1
1
1
1
1
1
1
1
1
1
1
1
1
1
1
1
1
1
1
1
1
1
1
1
1
1
1
1
1
1
1
1
1
1
1
1
1
1
1
1
1
1
1
1
POINT_DATA 46
VECTORS Real_Arrow_6.309500e+00(Hz) float
  -1.014647e-01  -7.271551e-02   0.000000e+00
  -1.368597e-01   9.702806e-02   0.000000e+00
   0.000000e+00   0.000000e+00   0.000000e+00
  -1.276065e-02  -4.919027e-01   0.000000e+00
  -1.455138e-01  -8.193021e-02   0.000000e+00
  -5.699275e-02  -3.139725e-02   0.000000e+00
   8.125308e-02  -1.407612e-01   0.000000e+00
  -1.458707e-01   7.300103e-02   0.000000e+00
   2.064416e-01  -1.875127e-01   0.000000e+00
  -1.617116e-01  -6.288017e-02   0.000000e+00
  -1.698208e-01   9.338163e-02   0.000000e+00
  -2.135780e-01   2.134396e-02   0.000000e+00
   0.000000e+00   0.000000e+00   0.000000e+00
  -3.010959e-01  -6.356121e-02   0.000000e+00
  -7.207922e-02   4.359862e-02   0.000000e+00
   0.000000e+00   0.000000e+00   0.000000e+00
  -4.903397e-02  -6.226313e-02   0.000000e+00
   0.000000e+00   0.000000e+00   0.000000e+00
   7.910436e-03  -2.360920e-02   0.000000e+00
  -3.600933e-02   3.939697e-02   0.000000e+00
   0.000000e+00   0.000000e+00   0.000000e+00
  -1.947114e-01  -5.087338e-02   0.000000e+00
  -9.242649e-02   8.785372e-02   0.000000e+00
  -1.643604e-01  -1.138785e-01   0.000000e+00
   0.000000e+00   0.000000e+00   0.000000e+00
  -1.370366e-01   2.318953e-02   0.000000e+00
  -1.190415e-01  -1.420229e-01   0.000000e+00
  -7.361879e-02  -7.081685e-02   0.000000e+00
  -7.069223e-02  -1.327767e-02   0.000000e+00
  -2.484669e-02  -4.078627e-02   0.000000e+00
   0.000000e+00   0.000000e+00   0.000000e+00
  -2.355421e-01  -2.368524e-02   0.000000e+00
   1.811665e-01   7.980908e-02   0.000000e+00
   1.352274e-01   8.611109e-02   0.000000e+00
  -1.744138e-02  -1.112942e-01   0.000000e+00
  -3.038048e-01  -1.788115e-01   0.000000e+00
   0.000000e+00   0.000000e+00   0.000000e+00
  -1.068586e-01   5.336950e-02   0.000000e+00
  -2.021176e-01  -4.185714e-01   0.000000e+00
  -1.014683e-01   3.430763e-01   0.000000e+00
  -7.736258e-02   6.525180e-03   0.000000e+00
  -1.088228e-01   2.684168e-02   0.000000e+00
   4.518979e-04   3.670897e-02   0.000000e+00
  -2.150501e-01  -5.087098e-02   0.000000e+00
  -1.465603e-01  -1.264233e-04   0.000000e+00
   7.987355e-02  -1.631437e-01   0.000000e+00
VECTORS Imag_Arrow_6.309500e+00(Hz) float
  -6.978069e-02   3.032844e-02   0.000000e+00
  -6.241585e-02  -3.054885e-02   0.000000e+00
   0.000000e+00   0.000000e+00   0.000000e+00
  -4.204622e-02  -5.297152e-02   0.000000e+00
  -7.511911e-02   2.960037e-02   0.000000e+00
   7.556593e-03  -6.004101e-02   0.000000e+00
   1.031025e-02  -2.298692e-02   0.000000e+00
  -9.188385e-02  -6.192847e-02   0.000000e+00
  -1.186550e-01  -1.521560e-02   0.000000e+00
  -9.132387e-02  -1.800627e-02   0.000000e+00
  -3.818482e-02   3.418473e-02   0.000000e+00
  -1.389586e-01  -9.404374e-02   0.000000e+00
   0.000000e+00   0.000000e+00   0.000000e+00
  -1.937575e-02  -9.887070e-02   0.000000e+00
  -9.477466e-02  -4.132455e-03   0.000000e+00
   0.000000e+00   0.000000e+00   0.000000e+00
   7.622962e-02   5.817419e-02   0.000000e+00
   0.000000e+00   0.000000e+00   0.000000e+00
  -1.451110e-01   2.325359e-02   0.000000e+00
  -1.104974e-01  -2.573077e-03   0.000000e+00
   0.000000e+00   0.000000e+00   0.000000e+00
  -7.717358e-02  -1.303773e-02   0.000000e+00
  -4.443042e-02   2.137560e-02   0.000000e+00
  -7.878612e-02  -2.160013e-03   0.000000e+00
   0.000000e+00   0.000000e+00   0.000000e+00
  -8.692059e-02  -4.261282e-02   0.000000e+00
  -2.148135e-02  -9.973911e-02   0.000000e+00
  -1.186860e-02  -1.028599e-01   0.000000e+00
  -6.258782e-02  -5.501317e-02   0.000000e+00
  -8.430432e-02   1.007244e-02   0.000000e+00
   0.000000e+00   0.000000e+00   0.000000e+00
  -5.354891e-02  -4.316567e-02   0.000000e+00
  -1.399772e-02  -6.651144e-02   0.000000e+00
  -1.260286e-01  -1.632130e-01   0.000000e+00
  -7.038262e-02   1.298496e-02   0.000000e+00
  -4.607992e-02   2.716937e-02   0.000000e+00
   0.000000e+00   0.000000e+00   0.000000e+00
  -8.434931e-02  -3.012362e-02   0.000000e+00
   1.977989e-03  -4.250821e-02   0.000000e+00
  -1.020646e-01   6.320314e-02   0.000000e+00
  -5.021926e-02   6.511077e-02   0.000000e+00
  -8.312138e-02   2.061402e-03   0.000000e+00
   3.073768e-02  -3.196700e-02   0.000000e+00
  -6.866568e-02  -2.172456e-02   0.000000e+00
  -5.622567e-03  -1.562627e-01   0.000000e+00
  -1.049314e-02  -9.365728e-02   0.000000e+00
VECTORS Real_Arrow_1.000000e+01(Hz) float
  -6.433824e-02  -9.462672e-02   0.000000e+00
  -1.004052e-01   9.189651e-02   0.000000e+00
   0.000000e+00   0.000000e+00   0.000000e+00
   7.288890e-03  -4.642327e-01   0.000000e+00
  -1.069865e-01  -1.033919e-01   0.000000e+00
  -5.877767e-02  -8.848690e-03   0.000000e+00
   7.899518e-02  -1.363757e-01   0.000000e+00
  -9.511852e-02   9.534024e-02   0.000000e+00
   2.607216e-01  -1.794033e-01   0.000000e+00
  -1.186124e-01  -6.355488e-02   0.000000e+00
  -1.604582e-01   6.423860e-02   0.000000e+00
  -1.447216e-01   5.771654e-02   0.000000e+00
   0.000000e+00   0.000000e+00   0.000000e+00
  -2.921051e-01  -2.447898e-02   0.000000e+00
   0.000000e+00   0.000000e+00   0.000000e+00
  -8.566315e-02   1.826952e-02   0.000000e+00
  -7.831162e-02  -8.885414e-02   0.000000e+00
   3.202577e-02   5.722895e-02   0.000000e+00
   7.426857e-02  -3.715164e-02   0.000000e+00
   1.593368e-02   2.720913e-02   0.000000e+00
   0.000000e+00   0.000000e+00   0.000000e+00
  -1.552745e-01  -5.053469e-02   0.000000e+00
  -7.593172e-02   5.856717e-02   0.000000e+00
  -1.190590e-01  -1.117082e-01   0.000000e+00
   0.000000e+00   0.000000e+00   0.000000e+00
  -9.092687e-02   3.982648e-02   0.000000e+00
  -1.090798e-01  -1.016534e-01   0.000000e+00
  -6.686905e-02  -3.016904e-02   0.000000e+00
  -3.827393e-02   1.164365e-02   0.000000e+00
   0.000000e+00   0.000000e+00   0.000000e+00
   0.000000e+00   0.000000e+00   0.000000e+00
  -2.053135e-01  -2.739793e-03   0.000000e+00
   1.623557e-01   9.213976e-02   0.000000e+00
   1.984527e-01   1.604191e-01   0.000000e+00
   1.737809e-02  -1.173356e-01   0.000000e+00
  -2.841129e-01  -1.858794e-01   0.000000e+00
   0.000000e+00   0.000000e+00   0.000000e+00
  -5.904934e-02   5.979068e-02   0.000000e+00
  -1.975082e-01  -4.023180e-01   0.000000e+00
  -4.412063e-02   2.901262e-01   0.000000e+00
  -5.672501e-02  -3.410478e-02   0.000000e+00
  -6.635342e-02   1.337028e-02   0.000000e+00
  -2.017516e-02   4.954170e-02   0.000000e+00
  -1.809429e-01  -4.893046e-02   0.000000e+00
  -1.424003e-01   6.004780e-02   0.000000e+00
   9.158277e-02  -1.228726e-01   0.000000e+00
VECTORS Imag_Arrow_1.000000e+01(Hz) float
  -6.923594e-02   3.515597e-02   0.000000e+00
  -5.487802e-02  -2.410071e-02   0.000000e+00
   0.000000e+00   0.000000e+00   0.000000e+00
  -4.598230e-02  -1.032903e-01   0.000000e+00
  -8.697565e-02   3.643032e-02   0.000000e+00
  -1.063221e-02  -5.261419e-02   0.000000e+00
   7.697165e-03  -3.083639e-02   0.000000e+00
  -9.691560e-02  -3.546252e-02   0.000000e+00
  -8.528338e-02  -1.183411e-02   0.000000e+00
  -1.223473e-01  -1.620219e-02   0.000000e+00
  -4.147091e-02   5.014689e-02   0.000000e+00
  -1.288039e-01  -5.097827e-02   0.000000e+00
   0.000000e+00   0.000000e+00   0.000000e+00
  -7.702278e-02  -1.101033e-01   0.000000e+00
   0.000000e+00   0.000000e+00   0.000000e+00
  -1.145986e-01  -4.205052e-02   0.000000e+00
   7.410424e-02   8.476354e-02   0.000000e+00
  -4.662081e-02   2.945065e-02   0.000000e+00
  -1.735751e-01   5.059169e-02   0.000000e+00
  -1.174009e-01   8.400426e-03   0.000000e+00
   0.000000e+00   0.000000e+00   0.000000e+00
  -9.774051e-02  -1.168054e-03   0.000000e+00
  -3.250755e-02   3.215912e-02   0.000000e+00
  -1.033682e-01   1.262936e-03   0.000000e+00
   0.000000e+00   0.000000e+00   0.000000e+00
  -9.944878e-02  -1.556506e-02   0.000000e+00
  -4.953312e-02  -1.219531e-01   0.000000e+00
  -3.151449e-02  -1.136895e-01   0.000000e+00
  -6.454942e-02  -4.169647e-02   0.000000e+00
   0.000000e+00   0.000000e+00   0.000000e+00
   0.000000e+00   0.000000e+00   0.000000e+00
  -8.318185e-02  -3.369524e-02   0.000000e+00
   3.626028e-02  -3.688558e-02   0.000000e+00
  -1.000697e-01  -1.483882e-01   0.000000e+00
  -6.781303e-02   2.545857e-02   0.000000e+00
  -1.050979e-01   2.417305e-02   0.000000e+00
   0.000000e+00   0.000000e+00   0.000000e+00
  -1.051924e-01  -1.912636e-02   0.000000e+00
  -1.821574e-02  -1.011806e-01   0.000000e+00
  -1.181305e-01   1.383837e-01   0.000000e+00
  -4.150224e-02   8.128569e-02   0.000000e+00
  -8.573792e-02   1.453195e-02   0.000000e+00
   5.881414e-02  -2.728700e-03   0.000000e+00
  -1.100535e-01  -1.610851e-02   0.000000e+00
  -3.386653e-02  -1.761856e-01   0.000000e+00
  -5.610369e-03  -1.169560e-01   0.000000e+00
VECTORS Real_Arrow_1.584800e+01(Hz) float
  -3.208363e-02  -1.159091e-01   0.000000e+00
  -7.371893e-02   8.908460e-02   0.000000e+00
   0.000000e+00   0.000000e+00   0.000000e+00
   2.767579e-02  -4.136742e-01   0.000000e+00
  -6.739019e-02  -1.250972e-01   0.000000e+00
  -5.052720e-02   1.021577e-02   0.000000e+00
   8.035094e-02  -1.288014e-01   0.000000e+00
  -4.964617e-02   1.002562e-01   0.000000e+00
   2.913898e-01  -1.776457e-01   0.000000e+00
  -6.131237e-02  -6.184936e-02   0.000000e+00
  -1.504579e-01   3.813654e-02   0.000000e+00
   0.000000e+00   0.000000e+00   0.000000e+00
   0.000000e+00   0.000000e+00   0.000000e+00
  -2.544203e-01   2.113542e-02   0.000000e+00
   0.000000e+00   0.000000e+00   0.000000e+00
  -3.854591e-02   3.380420e-02   0.000000e+00
  -1.037715e-01  -1.274213e-01   0.000000e+00
   4.525768e-02   3.407630e-02   0.000000e+00
   1.521995e-01  -6.500411e-02   0.000000e+00
   6.804705e-02   1.517976e-02   0.000000e+00
  -1.201476e-01  -4.875665e-04   0.000000e+00
  -1.108612e-01  -5.674247e-02   0.000000e+00
  -6.883374e-02   3.326541e-02   0.000000e+00
  -7.121248e-02  -1.129124e-01   0.000000e+00
   0.000000e+00   0.000000e+00   0.000000e+00
  -4.391280e-02   3.992246e-02   0.000000e+00
  -8.606627e-02  -5.084479e-02   0.000000e+00
  -5.039050e-02   1.498982e-02   0.000000e+00
  -1.380972e-02   2.439099e-02   0.000000e+00
   0.000000e+00   0.000000e+00   0.000000e+00
   0.000000e+00   0.000000e+00   0.000000e+00
  -1.650871e-01   8.386153e-03   0.000000e+00
   1.219072e-01   9.364047e-02   0.000000e+00
   2.397386e-01   2.229813e-01   0.000000e+00
   4.357419e-02  -1.357533e-01   0.000000e+00
  -2.329211e-01  -1.965556e-01   0.000000e+00
   0.000000e+00   0.000000e+00   0.000000e+00
  -1.892157e-03   6.280507e-02   0.000000e+00
  -1.862134e-01  -3.543582e-01   0.000000e+00
   8.814996e-03   2.164347e-01   0.000000e+00
  -4.356180e-02  -7.153419e-02   0.000000e+00
  -2.814414e-02  -9.172667e-04   0.000000e+00
  -5.287617e-02   4.302495e-02   0.000000e+00
  -1.281438e-01  -4.777399e-02   0.000000e+00
  -1.244941e-01   1.300157e-01   0.000000e+00
   9.910250e-02  -7.356595e-02   0.000000e+00
VECTORS Imag_Arrow_1.584800e+01(Hz) float
  -4.934610e-02   2.555996e-02   0.000000e+00
  -2.626853e-02  -3.501271e-02   0.000000e+00
   0.000000e+00   0.000000e+00   0.000000e+00
  -4.325843e-02  -1.432175e-01   0.000000e+00
  -8.148401e-02   2.921157e-02   0.000000e+00
  -2.985218e-02  -3.993872e-02   0.000000e+00
   6.710775e-03  -4.289097e-02   0.000000e+00
  -7.564152e-02  -4.800488e-03   0.000000e+00
  -3.056359e-02  -5.276784e-03   0.000000e+00
  -1.394671e-01  -2.159144e-02   0.000000e+00
  -5.263252e-02   4.789174e-02   0.000000e+00
   0.000000e+00   0.000000e+00   0.000000e+00
   0.000000e+00   0.000000e+00   0.000000e+00
  -1.365041e-01  -1.118505e-01   0.000000e+00
   0.000000e+00   0.000000e+00   0.000000e+00
  -1.340916e-01  -2.643879e-02   0.000000e+00
   6.443280e-02   1.026368e-01   0.000000e+00
  -2.228443e-02   1.340605e-02   0.000000e+00
  -1.776263e-01   7.198974e-02   0.000000e+00
  -1.036410e-01   5.097743e-03   0.000000e+00
  -5.066034e-03  -4.043719e-02   0.000000e+00
  -1.028580e-01   6.422595e-03   0.000000e+00
  -1.984924e-02   1.723439e-02   0.000000e+00
  -1.056521e-01   5.593191e-03   0.000000e+00
   0.000000e+00   0.000000e+00   0.000000e+00
  -9.072046e-02   1.664744e-02   0.000000e+00
  -7.692404e-02  -1.340024e-01   0.000000e+00
  -4.990377e-02  -1.143716e-01   0.000000e+00
  -5.373609e-02  -1.907738e-02   0.000000e+00
   0.000000e+00   0.000000e+00   0.000000e+00
   0.000000e+00   0.000000e+00   0.000000e+00
  -9.878724e-02  -1.485473e-02   0.000000e+00
   5.123739e-02  -1.828366e-02   0.000000e+00
  -4.507252e-02  -1.039191e-01   0.000000e+00
  -5.304700e-02   3.390281e-02   0.000000e+00
  -1.613722e-01   2.118267e-02   0.000000e+00
   0.000000e+00   0.000000e+00   0.000000e+00
  -1.002748e-01  -9.466634e-03   0.000000e+00
  -3.569695e-02  -1.602079e-01   0.000000e+00
  -1.079283e-01   1.807533e-01   0.000000e+00
  -2.811887e-02   7.545054e-02   0.000000e+00
  -6.854425e-02   1.235299e-02   0.000000e+00
   7.108006e-02   3.021514e-02   0.000000e+00
  -1.399477e-01  -1.596468e-02   0.000000e+00
  -6.243510e-02  -1.827121e-01   0.000000e+00
   9.961714e-03  -1.272302e-01   0.000000e+00
VECTORS Real_Arrow_2.511800e+01(Hz) float
  -2.020946e-02  -1.278942e-01   0.000000e+00
  -7.353797e-02   1.016270e-01   0.000000e+00
   0.000000e+00   0.000000e+00   0.000000e+00
   4.402065e-02  -3.498816e-01   0.000000e+00
  -4.013640e-02  -1.392113e-01   0.000000e+00
  -3.242494e-02   2.256282e-02   0.000000e+00
   8.240020e-02  -1.152779e-01   0.000000e+00
  -2.862738e-02   8.839337e-02   0.000000e+00
   2.890304e-01  -1.833504e-01   0.000000e+00
   2.505247e-03  -5.402731e-02   0.000000e+00
  -1.288135e-01   2.128826e-02   0.000000e+00
  -7.567463e-02   4.465422e-02   0.000000e+00
   0.000000e+00   0.000000e+00   0.000000e+00
  -1.883269e-01   6.761637e-02   0.000000e+00
   6.186510e-02   1.698232e-02   0.000000e+00
   1.893822e-02   3.995895e-02   0.000000e+00
  -1.220312e-01  -1.722940e-01   0.000000e+00
   4.394402e-02   3.169924e-02   0.000000e+00
   2.241847e-01  -1.028572e-01   0.000000e+00
   1.059668e-01   1.216786e-02   0.000000e+00
  -1.219861e-01   1.019853e-02   0.000000e+00
  -7.007158e-02  -6.572833e-02   0.000000e+00
  -6.766010e-02   2.696295e-02   0.000000e+00
  -3.347749e-02  -1.168924e-01   0.000000e+00
   0.000000e+00   0.000000e+00   0.000000e+00
  -9.590042e-03   2.178238e-02   0.000000e+00
  -5.038116e-02   3.144382e-03   0.000000e+00
  -2.484111e-02   5.765689e-02   0.000000e+00
  -1.271154e-03   2.171548e-02   0.000000e+00
   0.000000e+00   0.000000e+00   0.000000e+00
  -1.496857e-02  -3.602469e-03   0.000000e+00
  -1.254586e-01   5.573999e-03   0.000000e+00
   9.430271e-02   9.301420e-02   0.000000e+00
   2.446410e-01   2.570434e-01   0.000000e+00
   5.942679e-02  -1.607822e-01   0.000000e+00
  -1.550278e-01  -2.078283e-01   0.000000e+00
   0.000000e+00   0.000000e+00   0.000000e+00
   4.328092e-02   6.219960e-02   0.000000e+00
  -1.700733e-01  -2.755710e-01   0.000000e+00
   4.513391e-02   1.387096e-01   0.000000e+00
  -3.908227e-02  -9.439090e-02   0.000000e+00
  -9.453172e-03  -5.960952e-03   0.000000e+00
  -8.517830e-02   1.858590e-02   0.000000e+00
  -6.513837e-02  -4.411394e-02   0.000000e+00
  -9.299516e-02   2.011133e-01   0.000000e+00
   9.496391e-02  -2.525511e-02   0.000000e+00
VECTORS Imag_Arrow_2.511800e+01(Hz) float
  -1.736260e-02   4.721186e-03   0.000000e+00
   1.316317e-02  -5.493041e-02   0.000000e+00
   0.000000e+00   0.000000e+00   0.000000e+00
  -3.281894e-02  -1.648176e-01   0.000000e+00
  -6.258258e-02   1.150615e-02   0.000000e+00
  -4.435396e-02  -2.180273e-02   0.000000e+00
   1.106556e-02  -5.803457e-02   0.000000e+00
  -3.756717e-02   1.931881e-02   0.000000e+00
   3.034796e-02  -2.290122e-03   0.000000e+00
  -1.349042e-01  -2.822122e-02   0.000000e+00
  -6.700435e-02   3.985844e-02   0.000000e+00
  -7.114516e-02   7.001925e-03   0.000000e+00
   0.000000e+00   0.000000e+00   0.000000e+00
  -1.833553e-01  -9.812968e-02   0.000000e+00
  -6.675051e-02  -1.390212e-03   0.000000e+00
  -1.412189e-01  -8.770893e-03   0.000000e+00
   5.180803e-02   1.078741e-01   0.000000e+00
  -3.824861e-05  -1.271868e-02   0.000000e+00
  -1.538781e-01   7.984375e-02   0.000000e+00
  -7.092557e-02  -5.683717e-03   0.000000e+00
  -7.162497e-03  -3.618479e-02   0.000000e+00
  -9.478633e-02   6.836270e-03   0.000000e+00
  -1.122739e-02  -1.041816e-02   0.000000e+00
  -9.499079e-02   8.545696e-03   0.000000e+00
   0.000000e+00   0.000000e+00   0.000000e+00
  -6.467842e-02   4.534837e-02   0.000000e+00
  -9.731862e-02  -1.303919e-01   0.000000e+00
  -6.177715e-02  -1.022015e-01   0.000000e+00
  -4.212292e-02   1.767608e-03   0.000000e+00
   0.000000e+00   0.000000e+00   0.000000e+00
  -6.368620e-02   1.351676e-02   0.000000e+00
  -1.011011e-01   3.431276e-03   0.000000e+00
   4.012497e-02  -4.492895e-03   0.000000e+00
   2.155427e-02  -3.781102e-02   0.000000e+00
  -3.497088e-02   2.723596e-02   0.000000e+00
  -1.978221e-01   1.044939e-02   0.000000e+00
   0.000000e+00   0.000000e+00   0.000000e+00
  -6.520847e-02  -1.427593e-03   0.000000e+00
  -4.907005e-02  -2.018565e-01   0.000000e+00
  -8.344115e-02   2.010606e-01   0.000000e+00
  -1.489433e-02   6.139960e-02   0.000000e+00
  -3.848748e-02   2.143074e-03   0.000000e+00
   7.000671e-02   5.384959e-02   0.000000e+00
  -1.501937e-01  -1.788360e-02   0.000000e+00
  -8.422094e-02  -1.695411e-01   0.000000e+00
   3.215503e-02  -1.236063e-01   0.000000e+00
VECTORS Real_Arrow_3.981000e+01(Hz) float
  -3.128085e-02  -1.253141e-01   0.000000e+00
  -1.013335e-01   1.320831e-01   0.000000e+00
  -4.176574e-02   9.354151e-02   0.000000e+00
   5.047662e-02  -2.844690e-01   0.000000e+00
  -3.009076e-02  -1.421341e-01   0.000000e+00
  -8.846844e-03   2.431247e-02   0.000000e+00
   8.005999e-02  -9.333546e-02   0.000000e+00
   0.000000e+00   0.000000e+00   0.000000e+00
   2.561524e-01  -1.928003e-01   0.000000e+00
   5.877780e-02  -4.306807e-02   0.000000e+00
  -9.688978e-02   1.027486e-02   0.000000e+00
  -6.203456e-02   3.198369e-02   0.000000e+00
   0.000000e+00   0.000000e+00   0.000000e+00
  -1.053027e-01   1.035718e-01   0.000000e+00
   7.692240e-02   2.007689e-02   0.000000e+00
   7.825571e-02   3.872880e-02   0.000000e+00
  -1.342361e-01  -2.166306e-01   0.000000e+00
   3.572575e-02   4.605335e-02   0.000000e+00
   0.000000e+00   0.000000e+00   0.000000e+00
   1.200767e-01   1.912570e-02   0.000000e+00
  -1.201150e-01   2.118016e-02   0.000000e+00
  -3.575904e-02  -7.164675e-02   0.000000e+00
  -6.689634e-02   4.020119e-02   0.000000e+00
  -6.558562e-03  -1.224135e-01   0.000000e+00
   0.000000e+00   0.000000e+00   0.000000e+00
   5.002278e-03  -1.144316e-02   0.000000e+00
  -7.855934e-03   4.971292e-02   0.000000e+00
   4.770573e-03   8.956659e-02   0.000000e+00
   0.000000e+00   0.000000e+00   0.000000e+00
   1.255369e-01  -1.171007e-01   0.000000e+00
   5.209619e-03  -1.611927e-02   0.000000e+00
  -9.111139e-02  -6.301859e-03   0.000000e+00
   0.000000e+00   0.000000e+00   0.000000e+00
   2.144459e-01   2.539807e-01   0.000000e+00
   6.821148e-02  -1.788196e-01   0.000000e+00
  -6.672415e-02  -2.113503e-01   0.000000e+00
   0.000000e+00   0.000000e+00   0.000000e+00
   5.578652e-02   6.089643e-02   0.000000e+00
  -1.523502e-01  -1.818028e-01   0.000000e+00
   6.234563e-02   5.837220e-02   0.000000e+00
  -3.927348e-02  -1.064663e-01   0.000000e+00
  -1.396857e-02  -5.765901e-04   0.000000e+00
  -1.140366e-01  -1.192841e-02   0.000000e+00
  -5.054183e-03  -3.966029e-02   0.000000e+00
  -5.423456e-02   2.607829e-01   0.000000e+00
   7.652353e-02   1.612840e-02   0.000000e+00
VECTORS Imag_Arrow_3.981000e+01(Hz) float
   6.205089e-03  -2.009883e-02   0.000000e+00
   3.831784e-02  -6.828707e-02   0.000000e+00
   3.121417e-02  -4.202215e-02   0.000000e+00
  -1.945507e-02  -1.677478e-01   0.000000e+00
  -4.560067e-02  -1.174464e-02   0.000000e+00
  -4.925825e-02  -2.310995e-03   0.000000e+00
   2.029010e-02  -7.389544e-02   0.000000e+00
   0.000000e+00   0.000000e+00   0.000000e+00
   7.955194e-02  -9.688781e-03   0.000000e+00
  -1.051768e-01  -3.207639e-02   0.000000e+00
  -7.064928e-02   3.116262e-02   0.000000e+00
  -4.765047e-02   1.512984e-02   0.000000e+00
   0.000000e+00   0.000000e+00   0.000000e+00
  -2.053038e-01  -6.827798e-02   0.000000e+00
  -2.904361e-02  -1.150557e-02   0.000000e+00
  -1.270924e-01   8.270287e-03   0.000000e+00
   4.055970e-02   9.885422e-02   0.000000e+00
   1.330478e-02  -3.159041e-02   0.000000e+00
   0.000000e+00   0.000000e+00   0.000000e+00
  -3.227902e-02  -1.484724e-02   0.000000e+00
  -1.312654e-02  -3.342305e-02   0.000000e+00
  -7.865425e-02  -1.121671e-03   0.000000e+00
  -7.120398e-03  -3.546562e-02   0.000000e+00
  -8.256506e-02   9.218689e-03   0.000000e+00
   0.000000e+00   0.000000e+00   0.000000e+00
  -3.354573e-02   6.010826e-02   0.000000e+00
  -1.048053e-01  -1.125037e-01   0.000000e+00
  -6.223004e-02  -8.134030e-02   0.000000e+00
   0.000000e+00   0.000000e+00   0.000000e+00
  -3.026804e-02   4.726846e-02   0.000000e+00
  -5.801691e-02   1.988177e-02   0.000000e+00
  -9.742992e-02   1.277958e-02   0.000000e+00
   0.000000e+00   0.000000e+00   0.000000e+00
   7.826141e-02   3.281128e-02   0.000000e+00
  -1.649107e-02   1.862309e-03   0.000000e+00
  -2.041884e-01  -6.765406e-03   0.000000e+00
   0.000000e+00   0.000000e+00   0.000000e+00
  -1.598970e-02   2.604427e-03   0.000000e+00
  -5.937099e-02  -2.093539e-01   0.000000e+00
  -5.867957e-02   2.043629e-01   0.000000e+00
  -6.809457e-03   5.245679e-02   0.000000e+00
  -1.594912e-02  -5.785522e-03   0.000000e+00
   5.989297e-02   6.165949e-02   0.000000e+00
  -1.395160e-01  -1.940629e-02   0.000000e+00
  -9.284719e-02  -1.383386e-01   0.000000e+00
   5.279980e-02  -1.118382e-01   0.000000e+00
VECTORS Real_Arrow_6.309500e+01(Hz) float
  -4.829136e-02  -1.092533e-01   0.000000e+00
  -1.350788e-01   1.696298e-01   0.000000e+00
  -6.642493e-02   1.182142e-01   0.000000e+00
   4.853724e-02  -2.261703e-01   0.000000e+00
  -2.569893e-02  -1.322017e-01   0.000000e+00
   1.307318e-02   1.691018e-02   0.000000e+00
   7.071331e-02  -6.176015e-02   0.000000e+00
   0.000000e+00   0.000000e+00   0.000000e+00
   0.000000e+00   0.000000e+00   0.000000e+00
   9.081744e-02  -3.158848e-02   0.000000e+00
  -6.886889e-02   5.216654e-03   0.000000e+00
  -5.601440e-02   1.957375e-02   0.000000e+00
   0.000000e+00   0.000000e+00   0.000000e+00
  -2.253902e-02   1.196132e-01   0.000000e+00
   7.091090e-02   3.083427e-02   0.000000e+00
   1.218274e-01   2.987419e-02   0.000000e+00
  -1.433634e-01  -2.532059e-01   0.000000e+00
   2.775844e-02   6.468744e-02   0.000000e+00
   0.000000e+00   0.000000e+00   0.000000e+00
   1.135971e-01   3.036780e-02   0.000000e+00
  -1.137686e-01   3.210761e-02   0.000000e+00
  -8.471290e-03  -6.695060e-02   0.000000e+00
  -6.397806e-02   6.540557e-02   0.000000e+00
   0.000000e+00   0.000000e+00   0.000000e+00
   0.000000e+00   0.000000e+00   0.000000e+00
   3.822071e-03  -4.790296e-02   0.000000e+00
   3.192103e-02   8.367256e-02   0.000000e+00
   3.004455e-02   1.094464e-01   0.000000e+00
   0.000000e+00   0.000000e+00   0.000000e+00
   1.209027e-01  -1.367934e-01   0.000000e+00
   2.575681e-02  -2.537161e-02   0.000000e+00
  -5.936879e-02  -1.932956e-02   0.000000e+00
   7.835336e-02   8.159557e-02   0.000000e+00
   1.637797e-01   2.188824e-01   0.000000e+00
   0.000000e+00   0.000000e+00   0.000000e+00
   1.337852e-02  -2.052365e-01   0.000000e+00
   4.495887e-02   3.038122e-01   0.000000e+00
   0.000000e+00   0.000000e+00   0.000000e+00
  -1.329117e-01  -9.987219e-02   0.000000e+00
   6.808780e-02  -1.974434e-02   0.000000e+00
  -3.832427e-02  -1.183819e-01   0.000000e+00
  -2.444419e-02   8.819510e-03   0.000000e+00
  -1.373756e-01  -3.956421e-02   0.000000e+00
   4.112516e-02  -3.671508e-02   0.000000e+00
  -1.835268e-02   3.025771e-01   0.000000e+00
   4.677557e-02   5.091223e-02   0.000000e+00
VECTORS Imag_Arrow_6.309500e+01(Hz) float
   9.893551e-03  -3.949350e-02   0.000000e+00
   3.420138e-02  -6.191304e-02   0.000000e+00
   3.317580e-02  -3.138901e-02   0.000000e+00
  -1.213849e-02  -1.568671e-01   0.000000e+00
  -4.161673e-02  -3.460740e-02   0.000000e+00
  -4.376931e-02   1.215665e-02   0.000000e+00
   2.981491e-02  -8.515566e-02   0.000000e+00
   0.000000e+00   0.000000e+00   0.000000e+00
   0.000000e+00   0.000000e+00   0.000000e+00
  -5.775031e-02  -3.401237e-02   0.000000e+00
  -6.010114e-02   2.377578e-02   0.000000e+00
  -2.855792e-02   1.614934e-02   0.000000e+00
   0.000000e+00   0.000000e+00   0.000000e+00
  -2.004251e-01  -3.094902e-02   0.000000e+00
   5.708473e-04  -1.603404e-02   0.000000e+00
  -9.384882e-02   2.326247e-02   0.000000e+00
   3.171766e-02   7.738296e-02   0.000000e+00
   2.230562e-02  -3.929997e-02   0.000000e+00
   0.000000e+00   0.000000e+00   0.000000e+00
  -2.889013e-03  -1.572132e-02   0.000000e+00
  -1.795048e-02  -2.834809e-02   0.000000e+00
  -5.428402e-02  -1.192567e-02   0.000000e+00
  -2.671585e-03  -4.797946e-02   0.000000e+00
   0.000000e+00   0.000000e+00   0.000000e+00
   0.000000e+00   0.000000e+00   0.000000e+00
  -9.110124e-03   5.247809e-02   0.000000e+00
  -9.928665e-02  -8.852734e-02   0.000000e+00
  -5.102481e-02  -6.038344e-02   0.000000e+00
   0.000000e+00   0.000000e+00   0.000000e+00
   3.699848e-03   2.283565e-02   0.000000e+00
  -4.889775e-02   2.013200e-02   0.000000e+00
  -9.212505e-02   1.070396e-02   0.000000e+00
   1.561863e-02   1.172193e-02   0.000000e+00
   1.116080e-01   9.013565e-02   0.000000e+00
   0.000000e+00   0.000000e+00   0.000000e+00
  -1.820455e-01  -2.438562e-02   0.000000e+00
  -7.167922e-02   3.936950e-02   0.000000e+00
   0.000000e+00   0.000000e+00   0.000000e+00
  -7.009429e-02  -1.827567e-01   0.000000e+00
  -4.469757e-02   1.876695e-01   0.000000e+00
  -1.020103e-03   5.162704e-02   0.000000e+00
  -1.480087e-02  -4.364479e-03   0.000000e+00
   4.128945e-02   5.798767e-02   0.000000e+00
  -1.150140e-01  -2.203358e-02   0.000000e+00
  -8.857309e-02  -9.799292e-02   0.000000e+00
   6.314839e-02  -9.660528e-02   0.000000e+00
