# vtk DataFile Version 2.0
Induction_Arrow_Iter10_PE3
ASCII
DATASET UNSTRUCTURED_GRID
POINTS 46 float
  -2.052000e+03    1.667000e+03   -4.526633e+02
  -1.265000e+03    2.333000e+03   -4.555885e+02
  -9.840000e+02    2.568000e+03   -4.612271e+02
   1.700000e+03   -1.757000e+03   -5.237752e+02
  -1.152000e+03    1.382000e+03   -4.549280e+02
   3.187000e+03    1.067000e+03   -8.370176e+02
   4.716000e+03    9.370000e+02   -8.015281e+02
  -1.855000e+03    5.260000e+02   -5.147377e+02
  -1.420000e+02   -1.905000e+03   -4.746368e+02
  -5.800000e+01    1.069000e+03   -4.555494e+02
  -2.802000e+03    3.302000e+03   -4.314337e+02
  -5.640000e+03   -1.532000e+03   -4.911771e+02
  -8.030000e+02   -5.610000e+02   -5.280929e+02
   1.008000e+03    4.130000e+02   -5.983358e+02
   1.960000e+02    2.246000e+03   -5.219413e+02
  -3.457000e+03    8.320000e+02   -4.470735e+02
   5.640000e+03    2.452000e+03   -7.393049e+02
  -1.334000e+03    3.332000e+03   -4.456136e+02
   1.244000e+03    1.880000e+03   -6.331107e+02
  -2.680000e+02    2.144000e+03   -4.891390e+02
  -4.063000e+03    6.620000e+02   -4.746103e+02
  -1.258000e+03    6.330000e+02   -4.856841e+02
  -2.141000e+03    3.194000e+03   -4.348461e+02
  -3.469000e+03   -3.059000e+03   -6.067613e+02
  -1.604000e+03   -2.570000e+02   -5.141257e+02
  -1.454000e+03    2.220000e+02   -5.386025e+02
   1.864000e+03    1.270000e+02   -7.404291e+02
   2.449000e+03    5.590000e+02   -7.805292e+02
  -1.834000e+03   -1.554000e+03   -6.273074e+02
   1.807000e+03    2.297000e+03   -6.825557e+02
  -2.560000e+03   -1.783000e+03   -6.131337e+02
  -2.741000e+03   -5.010000e+02   -5.080000e+02
   2.884000e+03   -2.179000e+03   -5.274708e+02
  -6.120000e+02   -8.960000e+02   -5.895389e+02
  -1.985000e+03   -2.653000e+03   -5.598834e+02
  -3.390000e+03   -4.000000e+02   -4.982361e+02
   1.586000e+03    1.342000e+03   -6.618442e+02
   1.047000e+03    2.401000e+03   -5.426792e+02
   8.380000e+02   -1.300000e+03   -4.783644e+02
   2.569000e+03    2.441000e+03   -6.035668e+02
  -2.028000e+03    2.833000e+03   -4.322286e+02
  -1.086000e+03    1.998000e+03   -4.563301e+02
   1.514000e+03   -3.332000e+03   -5.646205e+02
   7.040000e+02    1.116000e+03   -5.365099e+02
   1.990000e+03    6.360000e+02   -7.085272e+02
   3.722000e+03   -1.700000e+02   -6.745213e+02
CELLS 46 92
1 0
1 1
1 2
1 3
1 4
1 5
1 6
1 7
1 8
1 9
1 10
1 11
1 12
1 13
1 14
1 15
1 16
1 17
1 18
1 19
1 20
1 21
1 22
1 23
1 24
1 25
1 26
1 27
1 28
1 29
1 30
1 31
1 32
1 33
1 34
1 35
1 36
1 37
1 38
1 39
1 40
1 41
1 42
1 43
1 44
1 45
CELL_TYPES 46
1
1
1
1
1
1
1
1
1
1
1
1
1
1
1
1
1
1
1
1
1
1
1
1
1
1
1
1
1
1
1
1
1
1
1
1
1
1
1
1
1
1
1
1
1
1
POINT_DATA 46
VECTORS Real_Arrow_1.584800e+00(Hz) float
  -1.651564e-01  -6.503907e-02   0.000000e+00
  -2.097600e-01   3.934873e-02   0.000000e+00
   0.000000e+00   0.000000e+00   0.000000e+00
   0.000000e+00   0.000000e+00   0.000000e+00
  -1.934271e-01  -8.002233e-02   0.000000e+00
  -2.537048e-02  -9.729502e-02   0.000000e+00
   8.651334e-02  -1.511703e-01   0.000000e+00
  -2.048980e-01  -1.158408e-02   0.000000e+00
   0.000000e+00   0.000000e+00   0.000000e+00
  -1.924621e-01  -9.397855e-02   0.000000e+00
  -2.360137e-01   7.746697e-02   0.000000e+00
  -3.068446e-01  -9.937658e-02   0.000000e+00
   0.000000e+00   0.000000e+00   0.000000e+00
  -2.321336e-01  -1.327727e-01   0.000000e+00
   0.000000e+00   0.000000e+00   0.000000e+00
   0.000000e+00   0.000000e+00   0.000000e+00
   4.158814e-03  -6.674482e-02   0.000000e+00
   0.000000e+00   0.000000e+00   0.000000e+00
   0.000000e+00   0.000000e+00   0.000000e+00
   0.000000e+00   0.000000e+00   0.000000e+00
   0.000000e+00   0.000000e+00   0.000000e+00
  -2.242081e-01  -8.720079e-02   0.000000e+00
  -1.762432e-01   6.006324e-02   0.000000e+00
   0.000000e+00   0.000000e+00   0.000000e+00
   0.000000e+00   0.000000e+00   0.000000e+00
   0.000000e+00   0.000000e+00   0.000000e+00
  -9.734766e-02  -1.921542e-01   0.000000e+00
  -5.621586e-02  -1.423768e-01   0.000000e+00
  -1.076304e-01  -6.902656e-02   0.000000e+00
  -7.339709e-02  -9.515188e-02   0.000000e+00
  -1.177527e-01  -6.211910e-02   0.000000e+00
  -2.274162e-01  -6.606316e-02   0.000000e+00
   5.907421e-02  -4.144519e-02   0.000000e+00
   5.729299e-03  -6.281545e-02   0.000000e+00
   0.000000e+00   0.000000e+00   0.000000e+00
   0.000000e+00   0.000000e+00   0.000000e+00
  -1.730462e-01   4.057907e-03   0.000000e+00
  -1.579019e-01  -4.848814e-03   0.000000e+00
  -1.657815e-01  -3.615709e-01   0.000000e+00
  -1.376738e-01   2.479949e-01   0.000000e+00
   0.000000e+00   0.000000e+00   0.000000e+00
  -1.807217e-01  -9.431011e-03   0.000000e+00
   0.000000e+00   0.000000e+00   0.000000e+00
  -2.126798e-01  -9.198027e-02   0.000000e+00
   0.000000e+00   0.000000e+00   0.000000e+00
   0.000000e+00   0.000000e+00   0.000000e+00
VECTORS Imag_Arrow_1.584800e+00(Hz) float
  -2.753917e-03  -2.658432e-03   0.000000e+00
   6.510655e-03  -6.256611e-02   0.000000e+00
   0.000000e+00   0.000000e+00   0.000000e+00
   0.000000e+00   0.000000e+00   0.000000e+00
   1.358351e-02  -6.858524e-03   0.000000e+00
   4.183906e-02  -4.595743e-02   0.000000e+00
   1.959136e-02  -1.045984e-02   0.000000e+00
   1.098776e-02  -6.254186e-02   0.000000e+00
   0.000000e+00   0.000000e+00   0.000000e+00
   2.355887e-02  -2.563477e-02   0.000000e+00
  -1.770297e-03  -4.139095e-02   0.000000e+00
   1.204401e-02  -2.786375e-02   0.000000e+00
   0.000000e+00   0.000000e+00   0.000000e+00
   8.959086e-02  -4.228000e-02   0.000000e+00
   0.000000e+00   0.000000e+00   0.000000e+00
   0.000000e+00   0.000000e+00   0.000000e+00
   6.085489e-02  -6.297239e-03   0.000000e+00
   0.000000e+00   0.000000e+00   0.000000e+00
   0.000000e+00   0.000000e+00   0.000000e+00
   0.000000e+00   0.000000e+00   0.000000e+00
   0.000000e+00   0.000000e+00   0.000000e+00
   2.812158e-02  -2.087621e-02   0.000000e+00
  -1.621547e-02  -4.559810e-02   0.000000e+00
   0.000000e+00   0.000000e+00   0.000000e+00
   0.000000e+00   0.000000e+00   0.000000e+00
   0.000000e+00   0.000000e+00   0.000000e+00
   4.768964e-02  -2.594301e-02   0.000000e+00
   3.925027e-02  -4.482688e-02   0.000000e+00
   8.819760e-03  -3.106724e-02   0.000000e+00
   1.341047e-02  -4.648280e-03   0.000000e+00
   1.219295e-02  -2.313354e-02   0.000000e+00
   5.173556e-02  -1.600279e-02   0.000000e+00
  -5.080763e-02  -8.073195e-02   0.000000e+00
  -5.740249e-02  -9.019211e-02   0.000000e+00
   0.000000e+00   0.000000e+00   0.000000e+00
   0.000000e+00   0.000000e+00   0.000000e+00
   5.106980e-02  -9.639671e-02   0.000000e+00
   3.005926e-02  -5.077941e-02   0.000000e+00
   6.844298e-02   4.790910e-02   0.000000e+00
   1.995822e-02  -1.272774e-01   0.000000e+00
   0.000000e+00   0.000000e+00   0.000000e+00
  -5.135844e-04  -3.955880e-02   0.000000e+00
   0.000000e+00   0.000000e+00   0.000000e+00
   5.284723e-02  -2.717127e-02   0.000000e+00
   0.000000e+00   0.000000e+00   0.000000e+00
   0.000000e+00   0.000000e+00   0.000000e+00
VECTORS Real_Arrow_2.511800e+00(Hz) float
  -1.602896e-01  -6.312434e-02   0.000000e+00
  -2.051387e-01   6.413827e-02   0.000000e+00
   0.000000e+00   0.000000e+00   0.000000e+00
  -3.922647e-02  -4.740202e-01   0.000000e+00
  -1.951894e-01  -7.536716e-02   0.000000e+00
  -3.457494e-02  -7.896852e-02   0.000000e+00
   8.693504e-02  -1.475550e-01   0.000000e+00
  -2.076873e-01   1.350652e-02   0.000000e+00
   9.835540e-02  -1.873378e-01   0.000000e+00
  -1.994999e-01  -8.312871e-02   0.000000e+00
  -2.272229e-01   9.650390e-02   0.000000e+00
  -3.152210e-01  -8.993316e-02   0.000000e+00
   0.000000e+00   0.000000e+00   0.000000e+00
  -2.650106e-01  -1.198782e-01   0.000000e+00
  -1.383080e-01   2.972201e-02   0.000000e+00
   0.000000e+00   0.000000e+00   0.000000e+00
  -7.083776e-03  -5.968210e-02   0.000000e+00
   0.000000e+00   0.000000e+00   0.000000e+00
   0.000000e+00   0.000000e+00   0.000000e+00
   0.000000e+00   0.000000e+00   0.000000e+00
   0.000000e+00   0.000000e+00   0.000000e+00
  -2.333203e-01  -7.818732e-02   0.000000e+00
  -1.609356e-01   7.997567e-02   0.000000e+00
  -1.957485e-01  -1.250765e-01   0.000000e+00
   0.000000e+00   0.000000e+00   0.000000e+00
   0.000000e+00   0.000000e+00   0.000000e+00
  -1.110664e-01  -1.868744e-01   0.000000e+00
  -6.536745e-02  -1.282735e-01   0.000000e+00
  -1.109348e-01  -5.723051e-02   0.000000e+00
  -7.602326e-02  -9.517670e-02   0.000000e+00
  -1.242364e-01  -5.295387e-02   0.000000e+00
  -2.501857e-01  -6.345036e-02   0.000000e+00
   1.033197e-01   1.210266e-03   0.000000e+00
   3.032764e-02  -3.080286e-02   0.000000e+00
  -6.812372e-02  -1.060752e-01   0.000000e+00
   0.000000e+00   0.000000e+00   0.000000e+00
  -1.904692e-01   3.897514e-02   0.000000e+00
  -1.665232e-01   1.362151e-02   0.000000e+00
  -1.871921e-01  -3.872034e-01   0.000000e+00
  -1.443139e-01   3.227995e-01   0.000000e+00
   0.000000e+00   0.000000e+00   0.000000e+00
  -1.757208e-01   8.132603e-03   0.000000e+00
   0.000000e+00   0.000000e+00   0.000000e+00
  -2.313107e-01  -7.999147e-02   0.000000e+00
   0.000000e+00   0.000000e+00   0.000000e+00
   0.000000e+00   0.000000e+00   0.000000e+00
VECTORS Imag_Arrow_2.511800e+00(Hz) float
  -3.010318e-02   5.559492e-03   0.000000e+00
  -2.647808e-02  -6.122195e-02   0.000000e+00
   0.000000e+00   0.000000e+00   0.000000e+00
  -1.171619e-02   3.208126e-02   0.000000e+00
  -1.800081e-02   2.008195e-04   0.000000e+00
   3.261800e-02  -5.722724e-02   0.000000e+00
   1.467267e-02  -1.492611e-02   0.000000e+00
  -2.391291e-02  -7.403334e-02   0.000000e+00
  -9.803826e-02  -6.787483e-03   0.000000e+00
  -1.136462e-02  -2.772353e-02   0.000000e+00
  -3.066695e-02  -2.552200e-02   0.000000e+00
  -4.323389e-02  -6.814993e-02   0.000000e+00
   0.000000e+00   0.000000e+00   0.000000e+00
   6.756732e-02  -6.105133e-02   0.000000e+00
  -3.964545e-02  -4.017292e-02   0.000000e+00
   0.000000e+00   0.000000e+00   0.000000e+00
   6.315454e-02   7.588343e-03   0.000000e+00
   0.000000e+00   0.000000e+00   0.000000e+00
   0.000000e+00   0.000000e+00   0.000000e+00
   0.000000e+00   0.000000e+00   0.000000e+00
   0.000000e+00   0.000000e+00   0.000000e+00
  -4.481671e-03  -2.296856e-02   0.000000e+00
  -4.375110e-02  -3.312138e-02   0.000000e+00
   7.899791e-04   6.480549e-03   0.000000e+00
   0.000000e+00   0.000000e+00   0.000000e+00
   0.000000e+00   0.000000e+00   0.000000e+00
   2.972676e-02  -4.730595e-02   0.000000e+00
   2.453891e-02  -6.546292e-02   0.000000e+00
  -1.670551e-02  -4.264035e-02   0.000000e+00
  -1.875107e-02  -5.114424e-03   0.000000e+00
  -1.274493e-02  -3.293777e-02   0.000000e+00
   2.929817e-02  -2.599704e-02   0.000000e+00
  -7.299313e-02  -9.675248e-02   0.000000e+00
  -9.395039e-02  -1.215851e-01   0.000000e+00
  -2.962940e-02   3.732270e-03   0.000000e+00
   0.000000e+00   0.000000e+00   0.000000e+00
   2.392460e-02  -1.173721e-01   0.000000e+00
  -5.370549e-03  -4.946044e-02   0.000000e+00
   4.997298e-02   3.355150e-02   0.000000e+00
  -1.457367e-02  -9.619760e-02   0.000000e+00
   0.000000e+00   0.000000e+00   0.000000e+00
  -3.475754e-02  -3.466009e-02   0.000000e+00
   0.000000e+00   0.000000e+00   0.000000e+00
   2.056607e-02  -2.880720e-02   0.000000e+00
   0.000000e+00   0.000000e+00   0.000000e+00
   0.000000e+00   0.000000e+00   0.000000e+00
VECTORS Real_Arrow_3.981000e+00(Hz) float
  -1.413258e-01  -6.482027e-02   0.000000e+00
  -1.827826e-01   8.679879e-02   0.000000e+00
   0.000000e+00   0.000000e+00   0.000000e+00
  -2.670876e-02  -4.899351e-01   0.000000e+00
  -1.819488e-01  -7.407266e-02   0.000000e+00
  -4.482469e-02  -5.449664e-02   0.000000e+00
   8.456706e-02  -1.426871e-01   0.000000e+00
  -1.913410e-01   4.803038e-02   0.000000e+00
   1.488336e-01  -1.808550e-01   0.000000e+00
  -1.915643e-01  -7.165722e-02   0.000000e+00
  -2.044242e-01   1.067896e-01   0.000000e+00
  -2.814732e-01  -4.270627e-02   0.000000e+00
   0.000000e+00   0.000000e+00   0.000000e+00
  -2.937678e-01  -9.779398e-02   0.000000e+00
  -1.156276e-01   4.493522e-02   0.000000e+00
   0.000000e+00   0.000000e+00   0.000000e+00
  -2.542260e-02  -5.853116e-02   0.000000e+00
   0.000000e+00   0.000000e+00   0.000000e+00
  -4.375940e-02  -3.533774e-02   0.000000e+00
   0.000000e+00   0.000000e+00   0.000000e+00
   0.000000e+00   0.000000e+00   0.000000e+00
  -2.271049e-01  -6.671081e-02   0.000000e+00
  -1.311419e-01   9.199062e-02   0.000000e+00
  -1.957846e-01  -1.243467e-01   0.000000e+00
   0.000000e+00   0.000000e+00   0.000000e+00
   0.000000e+00   0.000000e+00   0.000000e+00
  -1.206971e-01  -1.712847e-01   0.000000e+00
  -7.196135e-02  -1.038945e-01   0.000000e+00
  -9.893574e-02  -3.752829e-02   0.000000e+00
  -6.352236e-02  -9.271888e-02   0.000000e+00
   0.000000e+00   0.000000e+00   0.000000e+00
  -2.633026e-01  -5.283834e-02   0.000000e+00
   1.545212e-01   4.944332e-02   0.000000e+00
   7.795943e-02   1.984856e-02   0.000000e+00
  -5.001662e-02  -1.020232e-01   0.000000e+00
   0.000000e+00   0.000000e+00   0.000000e+00
   0.000000e+00   0.000000e+00   0.000000e+00
  -1.588951e-01   3.052180e-02   0.000000e+00
  -2.018201e-01  -4.082989e-01   0.000000e+00
  -1.344240e-01   3.719816e-01   0.000000e+00
  -1.160112e-01   2.400903e-02   0.000000e+00
  -1.533776e-01   2.302484e-02   0.000000e+00
   0.000000e+00   0.000000e+00   0.000000e+00
  -2.378573e-01  -6.777712e-02   0.000000e+00
  -1.396824e-01  -4.786477e-02   0.000000e+00
   6.796355e-02  -1.755770e-01   0.000000e+00
VECTORS Imag_Arrow_3.981000e+00(Hz) float
  -5.678140e-02   1.708229e-02   0.000000e+00
  -5.591577e-02  -5.065740e-02   0.000000e+00
   0.000000e+00   0.000000e+00   0.000000e+00
  -3.016573e-02  -4.916046e-03   0.000000e+00
  -5.134968e-02   1.245039e-02   0.000000e+00
   2.440563e-02  -6.284723e-02   0.000000e+00
   1.442546e-02  -1.846002e-02   0.000000e+00
  -6.299066e-02  -7.756601e-02   0.000000e+00
  -1.148197e-01  -1.115478e-02   0.000000e+00
  -5.121236e-02  -2.476100e-02   0.000000e+00
  -5.245503e-02   1.591219e-03   0.000000e+00
  -1.068149e-01  -1.045821e-01   0.000000e+00
   0.000000e+00   0.000000e+00   0.000000e+00
   3.363087e-02  -8.060242e-02   0.000000e+00
  -7.377186e-02  -2.366408e-02   0.000000e+00
   0.000000e+00   0.000000e+00   0.000000e+00
   7.153178e-02   3.003434e-02   0.000000e+00
   0.000000e+00   0.000000e+00   0.000000e+00
  -1.034671e-01  -2.775950e-03   0.000000e+00
   0.000000e+00   0.000000e+00   0.000000e+00
   0.000000e+00   0.000000e+00   0.000000e+00
  -4.262413e-02  -2.066767e-02   0.000000e+00
  -6.143250e-02  -1.000247e-02   0.000000e+00
  -4.315898e-02   6.207483e-04   0.000000e+00
   0.000000e+00   0.000000e+00   0.000000e+00
   0.000000e+00   0.000000e+00   0.000000e+00
   9.015134e-03  -7.310771e-02   0.000000e+00
   9.761606e-03  -8.634675e-02   0.000000e+00
  -4.543296e-02  -5.179090e-02   0.000000e+00
  -5.351987e-02  -7.592463e-03   0.000000e+00
   0.000000e+00   0.000000e+00   0.000000e+00
  -6.036839e-03  -3.987567e-02   0.000000e+00
  -5.684109e-02  -8.805235e-02   0.000000e+00
  -1.246407e-01  -1.495344e-01   0.000000e+00
  -5.851518e-02   6.627673e-03   0.000000e+00
   0.000000e+00   0.000000e+00   0.000000e+00
   0.000000e+00   0.000000e+00   0.000000e+00
  -4.584979e-02  -4.414069e-02   0.000000e+00
   2.718686e-02   4.395485e-03   0.000000e+00
  -5.695062e-02  -1.224543e-02   0.000000e+00
  -6.009597e-02   2.957523e-02   0.000000e+00
  -6.768662e-02  -2.075322e-02   0.000000e+00
   0.000000e+00   0.000000e+00   0.000000e+00
  -2.033800e-02  -2.461937e-02   0.000000e+00
   2.257863e-02  -1.303050e-01   0.000000e+00
  -5.993053e-03  -6.271787e-02   0.000000e+00
