# vtk DataFile Version 2.0
Induction_Arrow_Iter5_PE6
ASCII
DATASET UNSTRUCTURED_GRID
POINTS 46 float
  -2.052000e+03    1.667000e+03   -4.526633e+02
  -1.265000e+03    2.333000e+03   -4.555885e+02
  -9.840000e+02    2.568000e+03   -4.612271e+02
   1.700000e+03   -1.757000e+03   -5.237752e+02
  -1.152000e+03    1.382000e+03   -4.549280e+02
   3.187000e+03    1.067000e+03   -8.370176e+02
   4.716000e+03    9.370000e+02   -8.015281e+02
  -1.855000e+03    5.260000e+02   -5.147377e+02
  -1.420000e+02   -1.905000e+03   -4.746368e+02
  -5.800000e+01    1.069000e+03   -4.555494e+02
  -2.802000e+03    3.302000e+03   -4.314337e+02
  -5.640000e+03   -1.532000e+03   -4.911771e+02
  -8.030000e+02   -5.610000e+02   -5.280929e+02
   1.008000e+03    4.130000e+02   -5.983358e+02
   1.960000e+02    2.246000e+03   -5.219413e+02
  -3.457000e+03    8.320000e+02   -4.470735e+02
   5.640000e+03    2.452000e+03   -7.393049e+02
  -1.334000e+03    3.332000e+03   -4.456136e+02
   1.244000e+03    1.880000e+03   -6.331107e+02
  -2.680000e+02    2.144000e+03   -4.891390e+02
  -4.063000e+03    6.620000e+02   -4.746103e+02
  -1.258000e+03    6.330000e+02   -4.856841e+02
  -2.141000e+03    3.194000e+03   -4.348461e+02
  -3.469000e+03   -3.059000e+03   -6.067613e+02
  -1.604000e+03   -2.570000e+02   -5.141257e+02
  -1.454000e+03    2.220000e+02   -5.386025e+02
   1.864000e+03    1.270000e+02   -7.404291e+02
   2.449000e+03    5.590000e+02   -7.805292e+02
  -1.834000e+03   -1.554000e+03   -6.273074e+02
   1.807000e+03    2.297000e+03   -6.825557e+02
  -2.560000e+03   -1.783000e+03   -6.131337e+02
  -2.741000e+03   -5.010000e+02   -5.080000e+02
   2.884000e+03   -2.179000e+03   -5.274708e+02
  -6.120000e+02   -8.960000e+02   -5.895389e+02
  -1.985000e+03   -2.653000e+03   -5.598834e+02
  -3.390000e+03   -4.000000e+02   -4.982361e+02
   1.586000e+03    1.342000e+03   -6.618442e+02
   1.047000e+03    2.401000e+03   -5.426792e+02
   8.380000e+02   -1.300000e+03   -4.783644e+02
   2.569000e+03    2.441000e+03   -6.035668e+02
  -2.028000e+03    2.833000e+03   -4.322286e+02
  -1.086000e+03    1.998000e+03   -4.563301e+02
   1.514000e+03   -3.332000e+03   -5.646205e+02
   7.040000e+02    1.116000e+03   -5.365099e+02
   1.990000e+03    6.360000e+02   -7.085272e+02
   3.722000e+03   -1.700000e+02   -6.745213e+02
CELLS 46 92
1 0
1 1
1 2
1 3
1 4
1 5
1 6
1 7
1 8
1 9
1 10
1 11
1 12
1 13
1 14
1 15
1 16
1 17
1 18
1 19
1 20
1 21
1 22
1 23
1 24
1 25
1 26
1 27
1 28
1 29
1 30
1 31
1 32
1 33
1 34
1 35
1 36
1 37
1 38
1 39
1 40
1 41
1 42
1 43
1 44
1 45
CELL_TYPES 46
1
1
1
1
1
1
1
1
1
1
1
1
1
1
1
1
1
1
1
1
1
1
1
1
1
1
1
1
1
1
1
1
1
1
1
1
1
1
1
1
1
1
1
1
1
1
POINT_DATA 46
VECTORS Real_Arrow_1.000000e+02(Hz) float
  -5.786562e-02  -8.921712e-02   0.000000e+00
  -1.567043e-01   2.008120e-01   0.000000e+00
  -8.524084e-02   1.328087e-01   0.000000e+00
   4.781086e-02  -1.841975e-01   0.000000e+00
  -1.147896e-02  -1.146323e-01   0.000000e+00
   2.738895e-02   8.206828e-03   0.000000e+00
   5.725557e-02  -2.579756e-02   0.000000e+00
  -6.697043e-02   5.304750e-02   0.000000e+00
   0.000000e+00   0.000000e+00   0.000000e+00
   9.386702e-02  -1.811892e-02   0.000000e+00
  -5.520286e-02   4.814673e-03   0.000000e+00
  -5.792921e-02   7.942090e-03   0.000000e+00
   0.000000e+00   0.000000e+00   0.000000e+00
   5.044481e-02   1.109030e-01   0.000000e+00
   5.678060e-02   4.061714e-02   0.000000e+00
   1.437426e-01   1.357593e-02   0.000000e+00
  -1.506311e-01  -2.764277e-01   0.000000e+00
   1.418400e-02   8.346364e-02   0.000000e+00
   0.000000e+00   0.000000e+00   0.000000e+00
   9.449915e-02   3.596262e-02   0.000000e+00
  -9.927058e-02   3.703043e-02   0.000000e+00
   9.652748e-03  -5.529537e-02   0.000000e+00
  -6.221050e-02   9.523329e-02   0.000000e+00
   3.616126e-02  -1.335701e-01   0.000000e+00
   0.000000e+00   0.000000e+00   0.000000e+00
  -5.203976e-03  -7.707229e-02   0.000000e+00
   5.645095e-02   1.076908e-01   0.000000e+00
   4.250076e-02   1.251422e-01   0.000000e+00
   3.677727e-02   1.083509e-02   0.000000e+00
   9.802580e-02  -1.249970e-01   0.000000e+00
   4.116856e-02  -3.641403e-02   0.000000e+00
  -1.831183e-02  -2.284231e-02   0.000000e+00
   7.735974e-02   7.834747e-02   0.000000e+00
   1.076945e-01   1.772712e-01   0.000000e+00
   6.388798e-02  -1.573979e-01   0.000000e+00
   8.850036e-02  -1.903679e-01   0.000000e+00
   5.199454e-02   2.710090e-01   0.000000e+00
   0.000000e+00   0.000000e+00   0.000000e+00
  -1.009757e-01  -4.298557e-02   0.000000e+00
   7.239721e-02  -8.464374e-02   0.000000e+00
   0.000000e+00   0.000000e+00   0.000000e+00
  -2.043287e-02   1.090561e-02   0.000000e+00
  -1.539872e-01  -6.443715e-02   0.000000e+00
   6.991781e-02  -3.416705e-02   0.000000e+00
   5.607417e-03   3.320468e-01   0.000000e+00
   1.644654e-02   7.918512e-02   0.000000e+00
VECTORS Imag_Arrow_1.000000e+02(Hz) float
  -2.853486e-03  -5.157253e-02   0.000000e+00
   1.046641e-02  -3.440319e-02   0.000000e+00
   2.425824e-02  -9.541419e-03   0.000000e+00
  -1.264201e-02  -1.408098e-01   0.000000e+00
  -4.621608e-02  -5.105449e-02   0.000000e+00
  -3.175081e-02   2.146886e-02   0.000000e+00
   3.230139e-02  -8.466425e-02   0.000000e+00
  -3.071896e-02   2.406888e-02   0.000000e+00
   0.000000e+00   0.000000e+00   0.000000e+00
  -1.698262e-02  -3.537339e-02   0.000000e+00
  -4.449632e-02   2.696573e-02   0.000000e+00
  -1.411495e-02   8.845759e-03   0.000000e+00
   0.000000e+00   0.000000e+00   0.000000e+00
  -1.800994e-01   1.908310e-03   0.000000e+00
   1.578108e-02  -8.585459e-03   0.000000e+00
  -5.648502e-02   3.321659e-02   0.000000e+00
   2.483495e-02   4.607733e-02   0.000000e+00
   3.195543e-02  -4.895095e-02   0.000000e+00
   0.000000e+00   0.000000e+00   0.000000e+00
   1.175636e-02  -8.739566e-03   0.000000e+00
  -1.681775e-02  -1.723075e-02   0.000000e+00
  -2.049177e-02  -1.794829e-02   0.000000e+00
   8.648477e-03  -4.371291e-02   0.000000e+00
  -6.409522e-02   6.279438e-03   0.000000e+00
   0.000000e+00   0.000000e+00   0.000000e+00
   5.235619e-03   2.503633e-02   0.000000e+00
  -9.069386e-02  -6.385467e-02   0.000000e+00
  -3.618024e-02  -4.234982e-02   0.000000e+00
  -2.395039e-02   1.433403e-02   0.000000e+00
   2.119365e-02  -8.833501e-03   0.000000e+00
  -2.246464e-02   2.173448e-02   0.000000e+00
  -8.867970e-02   1.009254e-02   0.000000e+00
   9.904351e-03   1.257033e-02   0.000000e+00
   1.340244e-01   1.282148e-01   0.000000e+00
   2.295354e-02  -6.301230e-02   0.000000e+00
  -1.449305e-01  -2.507316e-02   0.000000e+00
  -3.736570e-02   8.899883e-02   0.000000e+00
   0.000000e+00   0.000000e+00   0.000000e+00
  -7.775916e-02  -1.439599e-01   0.000000e+00
  -4.588153e-02   1.516741e-01   0.000000e+00
   0.000000e+00   0.000000e+00   0.000000e+00
  -2.512154e-02   7.588524e-03   0.000000e+00
   1.700799e-02   4.878503e-02   0.000000e+00
  -9.271972e-02  -3.757181e-02   0.000000e+00
  -8.262304e-02  -5.436589e-02   0.000000e+00
   5.692592e-02  -7.520725e-02   0.000000e+00
VECTORS Real_Arrow_1.584800e+02(Hz) float
  -5.420345e-02  -6.742921e-02   0.000000e+00
  -1.558680e-01   2.079514e-01   0.000000e+00
  -9.341761e-02   1.296116e-01   0.000000e+00
   5.133914e-02  -1.474708e-01   0.000000e+00
   4.810544e-03  -9.140844e-02   0.000000e+00
   3.428715e-02  -4.345257e-03   0.000000e+00
   4.215385e-02   8.741258e-03   0.000000e+00
  -4.991171e-02   5.229273e-02   0.000000e+00
   0.000000e+00   0.000000e+00   0.000000e+00
   7.940495e-02  -5.765606e-03   0.000000e+00
  -4.694477e-02  -3.322070e-03   0.000000e+00
  -6.014751e-02   7.029665e-03   0.000000e+00
   0.000000e+00   0.000000e+00   0.000000e+00
   1.037125e-01   9.626880e-02   0.000000e+00
   4.448806e-02   4.177631e-02   0.000000e+00
   1.488148e-01  -2.189133e-03   0.000000e+00
  -1.577790e-01  -2.865836e-01   0.000000e+00
  -2.518504e-03   1.074175e-01   0.000000e+00
   0.000000e+00   0.000000e+00   0.000000e+00
   8.028469e-02   3.603533e-02   0.000000e+00
  -9.428107e-02   4.114539e-02   0.000000e+00
   1.019140e-03  -4.585674e-02   0.000000e+00
  -7.064768e-02   1.119032e-01   0.000000e+00
   5.492245e-02  -1.391896e-01   0.000000e+00
   0.000000e+00   0.000000e+00   0.000000e+00
  -1.241746e-02  -7.494515e-02   0.000000e+00
   8.165632e-02   1.245166e-01   0.000000e+00
   4.935697e-02   1.330935e-01   0.000000e+00
   4.416160e-02   1.087657e-02   0.000000e+00
   7.697231e-02  -1.092760e-01   0.000000e+00
   4.262477e-02  -4.189226e-02   0.000000e+00
   1.114132e-02  -2.512731e-02   0.000000e+00
   7.675528e-02   7.290057e-02   0.000000e+00
   5.491809e-02   1.146250e-01   0.000000e+00
   5.139302e-02  -1.237493e-01   0.000000e+00
   1.164504e-01  -1.784529e-01   0.000000e+00
   4.670616e-02   2.109620e-01   0.000000e+00
   0.000000e+00   0.000000e+00   0.000000e+00
  -7.438945e-02  -1.233099e-02   0.000000e+00
   8.564037e-02  -1.216762e-01   0.000000e+00
   0.000000e+00   0.000000e+00   0.000000e+00
  -6.509899e-03   4.574834e-03   0.000000e+00
  -1.546582e-01  -8.039005e-02   0.000000e+00
   8.710972e-02  -2.206414e-02   0.000000e+00
   2.887560e-02   3.400184e-01   0.000000e+00
  -4.578152e-03   9.879636e-02   0.000000e+00
VECTORS Imag_Arrow_1.584800e+02(Hz) float
  -1.139810e-02  -5.185419e-02   0.000000e+00
  -1.872371e-02  -8.845842e-04   0.000000e+00
   1.326778e-02   1.028762e-02   0.000000e+00
  -1.794221e-02  -1.273412e-01   0.000000e+00
  -4.524602e-02  -6.233285e-02   0.000000e+00
  -1.922861e-02   2.299993e-02   0.000000e+00
   3.239101e-02  -7.202925e-02   0.000000e+00
  -5.508881e-02   3.160912e-02   0.000000e+00
   0.000000e+00   0.000000e+00   0.000000e+00
   1.411888e-02  -3.210198e-02   0.000000e+00
  -3.329556e-02   3.047878e-02   0.000000e+00
  -8.681077e-03  -5.424371e-05   0.000000e+00
   0.000000e+00   0.000000e+00   0.000000e+00
  -1.472803e-01   2.031618e-02   0.000000e+00
   2.229627e-02  -1.792446e-03   0.000000e+00
  -2.993633e-02   3.305032e-02   0.000000e+00
   1.800612e-02   1.776265e-02   0.000000e+00
   3.822338e-02  -4.571299e-02   0.000000e+00
   0.000000e+00   0.000000e+00   0.000000e+00
   1.131419e-02  -4.458360e-03   0.000000e+00
  -1.556735e-02  -1.431916e-02   0.000000e+00
   7.169086e-03  -7.673342e-03   0.000000e+00
   1.811574e-02  -3.099315e-02   0.000000e+00
  -5.700215e-02  -1.829608e-03   0.000000e+00
   0.000000e+00   0.000000e+00   0.000000e+00
   1.052763e-02  -5.570817e-03   0.000000e+00
  -8.195089e-02  -3.914546e-02   0.000000e+00
  -2.149038e-02  -2.700350e-02   0.000000e+00
  -1.326409e-02   2.780888e-02   0.000000e+00
   2.184820e-02  -1.624623e-02   0.000000e+00
  -9.132524e-03   2.072570e-02   0.000000e+00
  -6.922698e-02  -1.157793e-03   0.000000e+00
   3.870305e-03   1.486935e-02   0.000000e+00
   1.237616e-01   1.468885e-01   0.000000e+00
   3.693897e-02  -7.985331e-02   0.000000e+00
  -9.375803e-02  -3.483854e-02   0.000000e+00
  -1.308302e-02   1.047423e-01   0.000000e+00
   0.000000e+00   0.000000e+00   0.000000e+00
  -8.493046e-02  -1.075046e-01   0.000000e+00
  -4.806363e-02   1.052644e-01   0.000000e+00
   0.000000e+00   0.000000e+00   0.000000e+00
  -3.071724e-02   1.882024e-02   0.000000e+00
  -1.353136e-02   3.021939e-02   0.000000e+00
  -7.055240e-02  -4.681494e-02   0.000000e+00
  -7.720490e-02  -1.024256e-02   0.000000e+00
   3.724960e-02  -5.359480e-02   0.000000e+00
VECTORS Real_Arrow_2.511800e+02(Hz) float
  -4.647068e-02  -4.946436e-02   0.000000e+00
  -1.390865e-01   1.970930e-01   0.000000e+00
  -9.701419e-02   1.194452e-01   0.000000e+00
   5.939856e-02  -1.156226e-01   0.000000e+00
   2.011628e-02  -6.414006e-02   0.000000e+00
   3.375258e-02  -1.404939e-02   0.000000e+00
   2.836518e-02   3.234597e-02   0.000000e+00
  -2.106815e-02   4.041540e-02   0.000000e+00
   0.000000e+00   0.000000e+00   0.000000e+00
   5.895585e-02   4.566842e-03   0.000000e+00
  -4.181764e-02  -1.640482e-02   0.000000e+00
  -6.061385e-02   9.615592e-03   0.000000e+00
   4.293665e-02   3.015271e-01   0.000000e+00
   1.408831e-01   7.946882e-02   0.000000e+00
   3.328957e-02   3.997857e-02   0.000000e+00
   1.497589e-01  -1.407790e-02   0.000000e+00
  -1.645661e-01  -2.867035e-01   0.000000e+00
  -2.107713e-02   1.298909e-01   0.000000e+00
   0.000000e+00   0.000000e+00   0.000000e+00
   7.149032e-02   3.622466e-02   0.000000e+00
  -8.965125e-02   4.451775e-02   0.000000e+00
  -1.319284e-02  -4.629580e-02   0.000000e+00
  -8.344855e-02   1.195212e-01   0.000000e+00
   7.181396e-02  -1.399957e-01   0.000000e+00
   0.000000e+00   0.000000e+00   0.000000e+00
  -1.918145e-02  -5.966168e-02   0.000000e+00
   1.057461e-01   1.330787e-01   0.000000e+00
   5.073158e-02   1.366053e-01   0.000000e+00
   4.548680e-02   1.088003e-03   0.000000e+00
   6.484751e-02  -9.705497e-02   0.000000e+00
   3.823813e-02  -4.702538e-02   0.000000e+00
   3.240226e-02  -2.131576e-02   0.000000e+00
   7.703083e-02   6.807507e-02   0.000000e+00
   1.453771e-02   5.341280e-02   0.000000e+00
   0.000000e+00   0.000000e+00   0.000000e+00
   1.220321e-01  -1.621787e-01   0.000000e+00
   3.473802e-02   1.620834e-01   0.000000e+00
   0.000000e+00   0.000000e+00   0.000000e+00
  -4.324418e-02   8.414054e-03   0.000000e+00
   1.020982e-01  -1.318379e-01   0.000000e+00
  -6.979018e-02  -1.852357e-01   0.000000e+00
   8.697264e-03  -9.245911e-03   0.000000e+00
  -1.409547e-01  -8.530471e-02   0.000000e+00
   9.731337e-02  -3.896721e-03   0.000000e+00
   5.297430e-02   3.302856e-01   0.000000e+00
  -7.403874e-03   1.055302e-01   0.000000e+00
VECTORS Imag_Arrow_2.511800e+02(Hz) float
  -1.493717e-02  -4.899887e-02   0.000000e+00
  -4.163552e-02   2.856108e-02   0.000000e+00
   1.346919e-03   2.375635e-02   0.000000e+00
  -2.119058e-02  -1.197472e-01   0.000000e+00
  -3.963381e-02  -6.731711e-02   0.000000e+00
  -9.661198e-03   1.935761e-02   0.000000e+00
   2.598269e-02  -4.886805e-02   0.000000e+00
  -6.555748e-02   4.349632e-02   0.000000e+00
   0.000000e+00   0.000000e+00   0.000000e+00
   2.793668e-02  -2.679749e-02   0.000000e+00
  -2.700064e-02   3.137920e-02   0.000000e+00
  -7.288650e-03  -5.983177e-03   0.000000e+00
   4.872670e-02   2.034047e-01   0.000000e+00
  -1.145270e-01   2.861263e-02   0.000000e+00
   2.533317e-02   1.916232e-03   0.000000e+00
  -1.084300e-02   2.851338e-02   0.000000e+00
   9.837600e-03  -8.959531e-03   0.000000e+00
   3.630657e-02  -3.023241e-02   0.000000e+00
   0.000000e+00   0.000000e+00   0.000000e+00
   3.324725e-03  -3.550485e-03   0.000000e+00
  -1.418475e-02  -1.241778e-02   0.000000e+00
   2.010062e-02   3.424561e-03   0.000000e+00
   1.997986e-02  -1.634657e-02   0.000000e+00
  -4.825762e-02  -1.503262e-02   0.000000e+00
   0.000000e+00   0.000000e+00   0.000000e+00
   1.347685e-02  -2.174230e-02   0.000000e+00
  -7.485504e-02  -1.163541e-02   0.000000e+00
  -1.003409e-02  -1.334509e-02   0.000000e+00
  -1.047968e-03   4.742665e-02   0.000000e+00
   1.107655e-02  -1.036561e-02   0.000000e+00
  -1.048440e-03   2.098806e-02   0.000000e+00
  -4.290455e-02  -9.031402e-03   0.000000e+00
  -7.525691e-04   1.666973e-02   0.000000e+00
   1.052669e-01   1.452312e-01   0.000000e+00
   0.000000e+00   0.000000e+00   0.000000e+00
  -6.202342e-02  -4.041474e-02   0.000000e+00
  -4.484405e-03   8.560824e-02   0.000000e+00
   0.000000e+00   0.000000e+00   0.000000e+00
  -8.830455e-02  -8.314497e-02   0.000000e+00
  -4.709368e-02   7.221612e-02   0.000000e+00
   1.914309e-02   3.342659e-02   0.000000e+00
  -2.624787e-02   2.325084e-02   0.000000e+00
  -4.099623e-02   9.899179e-03   0.000000e+00
  -5.826410e-02  -5.408434e-02   0.000000e+00
  -7.260179e-02   3.099133e-02   0.000000e+00
   1.702954e-02  -3.351922e-02   0.000000e+00
