# vtk DataFile Version 2.0
Induction_Arrow_Iter9_PE7
ASCII
DATASET UNSTRUCTURED_GRID
POINTS 46 float
  -2.052000e+03    1.667000e+03   -4.526633e+02
  -1.265000e+03    2.333000e+03   -4.555885e+02
  -9.840000e+02    2.568000e+03   -4.612271e+02
   1.700000e+03   -1.757000e+03   -5.237752e+02
  -1.152000e+03    1.382000e+03   -4.549280e+02
   3.187000e+03    1.067000e+03   -8.370176e+02
   4.716000e+03    9.370000e+02   -8.015281e+02
  -1.855000e+03    5.260000e+02   -5.147377e+02
  -1.420000e+02   -1.905000e+03   -4.746368e+02
  -5.800000e+01    1.069000e+03   -4.555494e+02
  -2.802000e+03    3.302000e+03   -4.314337e+02
  -5.640000e+03   -1.532000e+03   -4.911771e+02
  -8.030000e+02   -5.610000e+02   -5.280929e+02
   1.008000e+03    4.130000e+02   -5.983358e+02
   1.960000e+02    2.246000e+03   -5.219413e+02
  -3.457000e+03    8.320000e+02   -4.470735e+02
   5.640000e+03    2.452000e+03   -7.393049e+02
  -1.334000e+03    3.332000e+03   -4.456136e+02
   1.244000e+03    1.880000e+03   -6.331107e+02
  -2.680000e+02    2.144000e+03   -4.891390e+02
  -4.063000e+03    6.620000e+02   -4.746103e+02
  -1.258000e+03    6.330000e+02   -4.856841e+02
  -2.141000e+03    3.194000e+03   -4.348461e+02
  -3.469000e+03   -3.059000e+03   -6.067613e+02
  -1.604000e+03   -2.570000e+02   -5.141257e+02
  -1.454000e+03    2.220000e+02   -5.386025e+02
   1.864000e+03    1.270000e+02   -7.404291e+02
   2.449000e+03    5.590000e+02   -7.805292e+02
  -1.834000e+03   -1.554000e+03   -6.273074e+02
   1.807000e+03    2.297000e+03   -6.825557e+02
  -2.560000e+03   -1.783000e+03   -6.131337e+02
  -2.741000e+03   -5.010000e+02   -5.080000e+02
   2.884000e+03   -2.179000e+03   -5.274708e+02
  -6.120000e+02   -8.960000e+02   -5.895389e+02
  -1.985000e+03   -2.653000e+03   -5.598834e+02
  -3.390000e+03   -4.000000e+02   -4.982361e+02
   1.586000e+03    1.342000e+03   -6.618442e+02
   1.047000e+03    2.401000e+03   -5.426792e+02
   8.380000e+02   -1.300000e+03   -4.783644e+02
   2.569000e+03    2.441000e+03   -6.035668e+02
  -2.028000e+03    2.833000e+03   -4.322286e+02
  -1.086000e+03    1.998000e+03   -4.563301e+02
   1.514000e+03   -3.332000e+03   -5.646205e+02
   7.040000e+02    1.116000e+03   -5.365099e+02
   1.990000e+03    6.360000e+02   -7.085272e+02
   3.722000e+03   -1.700000e+02   -6.745213e+02
CELLS 46 92
1 0
1 1
1 2
1 3
1 4
1 5
1 6
1 7
1 8
1 9
1 10
1 11
1 12
1 13
1 14
1 15
1 16
1 17
1 18
1 19
1 20
1 21
1 22
1 23
1 24
1 25
1 26
1 27
1 28
1 29
1 30
1 31
1 32
1 33
1 34
1 35
1 36
1 37
1 38
1 39
1 40
1 41
1 42
1 43
1 44
1 45
CELL_TYPES 46
1
1
1
1
1
1
1
1
1
1
1
1
1
1
1
1
1
1
1
1
1
1
1
1
1
1
1
1
1
1
1
1
1
1
1
1
1
1
1
1
1
1
1
1
1
1
POINT_DATA 46
VECTORS Real_Arrow_3.981000e+02(Hz) float
  -3.912679e-02  -3.288615e-02   0.000000e+00
  -1.141691e-01   1.749314e-01   0.000000e+00
  -9.477662e-02   1.071785e-01   0.000000e+00
   6.814181e-02  -8.302629e-02   0.000000e+00
   3.213452e-02  -3.616787e-02   0.000000e+00
   2.901633e-02  -1.866476e-02   0.000000e+00
   2.064307e-02   4.033774e-02   0.000000e+00
   6.411510e-03   2.240479e-02   0.000000e+00
   0.000000e+00   0.000000e+00   0.000000e+00
   4.155024e-02   1.200120e-02   0.000000e+00
  -3.666110e-02  -2.956242e-02   0.000000e+00
  -5.834183e-02   1.253836e-02   0.000000e+00
   3.367549e-02   2.271368e-01   0.000000e+00
   1.653747e-01   6.279160e-02   0.000000e+00
   2.264674e-02   3.853756e-02   0.000000e+00
   1.476322e-01  -2.203006e-02   0.000000e+00
  -1.702995e-01  -2.791287e-01   0.000000e+00
  -3.558598e-02   1.410582e-01   0.000000e+00
   2.655090e-01  -1.619265e-01   0.000000e+00
   6.943580e-02   3.859127e-02   0.000000e+00
  -8.632673e-02   4.782484e-02   0.000000e+00
  -2.496833e-02  -5.119834e-02   0.000000e+00
  -9.446425e-02   1.201071e-01   0.000000e+00
   8.539305e-02  -1.342435e-01   0.000000e+00
  -2.624151e-02  -6.566214e-02   0.000000e+00
  -2.505268e-02  -4.592221e-02   0.000000e+00
   1.301132e-01   1.301690e-01   0.000000e+00
   4.830573e-02   1.368045e-01   0.000000e+00
   4.076366e-02  -2.126083e-02   0.000000e+00
   6.224370e-02  -9.352168e-02   0.000000e+00
   3.282653e-02  -5.367878e-02   0.000000e+00
   3.838659e-02  -1.942780e-02   0.000000e+00
   7.733215e-02   6.354704e-02   0.000000e+00
  -1.758513e-02   1.546298e-03   0.000000e+00
   0.000000e+00   0.000000e+00   0.000000e+00
   1.267665e-01  -1.449567e-01   0.000000e+00
   2.716392e-02   1.440974e-01   0.000000e+00
   0.000000e+00   0.000000e+00   0.000000e+00
  -1.101941e-02   2.730811e-02   0.000000e+00
   1.187767e-01  -1.369801e-01   0.000000e+00
  -7.980976e-02  -1.944061e-01   0.000000e+00
   1.747040e-02  -2.228551e-02   0.000000e+00
  -1.163089e-01  -8.040439e-02   0.000000e+00
   1.084210e-01   1.657078e-02   0.000000e+00
   7.700243e-02   3.055461e-01   0.000000e+00
  -1.505361e-03   1.046062e-01   0.000000e+00
VECTORS Imag_Arrow_3.981000e+02(Hz) float
  -1.438675e-02  -4.476154e-02   0.000000e+00
  -5.264613e-02   4.699015e-02   0.000000e+00
  -1.143818e-02   3.232093e-02   0.000000e+00
  -2.114532e-02  -1.169164e-01   0.000000e+00
  -3.240490e-02  -6.343815e-02   0.000000e+00
  -6.961665e-03   1.386452e-02   0.000000e+00
   1.494504e-02  -2.484514e-02   0.000000e+00
  -6.478408e-02   4.954776e-02   0.000000e+00
   0.000000e+00   0.000000e+00   0.000000e+00
   3.043787e-02  -2.053368e-02   0.000000e+00
  -2.494132e-02   2.570563e-02   0.000000e+00
  -6.679982e-03  -1.018318e-02   0.000000e+00
   3.088060e-02   1.944667e-01   0.000000e+00
  -8.515124e-02   2.869530e-02   0.000000e+00
   2.548601e-02   4.155002e-03   0.000000e+00
   5.088987e-03   2.398222e-02   0.000000e+00
  -2.184032e-03  -3.380453e-02   0.000000e+00
   2.706958e-02  -3.851614e-03   0.000000e+00
   4.615405e-02  -7.716890e-03   0.000000e+00
  -8.715699e-03  -2.488513e-03   0.000000e+00
  -1.265917e-02  -1.093259e-02   0.000000e+00
   2.662199e-02   1.055636e-02   0.000000e+00
   1.386945e-02  -3.585903e-03   0.000000e+00
  -3.820720e-02  -2.965752e-02   0.000000e+00
  -4.127898e-02   2.407810e-02   0.000000e+00
   1.400541e-02  -2.751273e-02   0.000000e+00
  -6.572823e-02   1.486825e-02   0.000000e+00
  -1.253195e-03  -3.139512e-03   0.000000e+00
   9.510819e-03   6.453479e-02   0.000000e+00
  -1.475411e-03   3.449579e-04   0.000000e+00
  -1.704615e-05   2.182583e-02   0.000000e+00
  -1.223293e-02  -1.464477e-02   0.000000e+00
  -5.007833e-03   1.874166e-02   0.000000e+00
   8.648635e-02   1.289430e-01   0.000000e+00
   0.000000e+00   0.000000e+00   0.000000e+00
  -4.822370e-02  -4.059055e-02   0.000000e+00
  -1.067053e-02   5.998033e-02   0.000000e+00
   0.000000e+00   0.000000e+00   0.000000e+00
  -8.476933e-02  -6.384837e-02   0.000000e+00
  -4.213107e-02   5.903570e-02   0.000000e+00
   7.054061e-03   1.185801e-02   0.000000e+00
  -1.623880e-02   1.826663e-02   0.000000e+00
  -6.001078e-02  -6.500568e-03   0.000000e+00
  -5.442055e-02  -5.592936e-02   0.000000e+00
  -6.377566e-02   6.208337e-02   0.000000e+00
   9.331704e-03  -2.475297e-02   0.000000e+00
VECTORS Real_Arrow_6.309500e+02(Hz) float
  -3.387618e-02  -1.845035e-02   0.000000e+00
  -8.994940e-02   1.494587e-01   0.000000e+00
  -8.653066e-02   9.343474e-02   0.000000e+00
   7.672031e-02  -4.796312e-02   0.000000e+00
   4.122187e-02  -1.360120e-02   0.000000e+00
   2.546761e-02  -1.808024e-02   0.000000e+00
   2.086531e-02   3.697186e-02   0.000000e+00
   2.964007e-02   3.314063e-03   0.000000e+00
   0.000000e+00   0.000000e+00   0.000000e+00
   2.897986e-02   1.658853e-02   0.000000e+00
  -3.096260e-02  -3.915527e-02   0.000000e+00
  -5.502505e-02   1.600688e-02   0.000000e+00
   2.920089e-02   1.659930e-01   0.000000e+00
   1.786146e-01   5.026621e-02   0.000000e+00
   1.465026e-02   3.704642e-02   0.000000e+00
   1.410291e-01  -2.887224e-02   0.000000e+00
  -1.719355e-01  -2.657793e-01   0.000000e+00
  -4.348004e-02   1.362852e-01   0.000000e+00
   2.405635e-01  -1.553505e-01   0.000000e+00
   7.511903e-02   4.124012e-02   0.000000e+00
  -8.241103e-02   5.108498e-02   0.000000e+00
  -3.663233e-02  -5.767263e-02   0.000000e+00
  -9.937546e-02   1.164594e-01   0.000000e+00
   9.585450e-02  -1.184692e-01   0.000000e+00
  -1.227847e-02  -5.638457e-02   0.000000e+00
  -2.987955e-02  -3.398068e-02   0.000000e+00
   1.511932e-01   1.169574e-01   0.000000e+00
   4.132211e-02   1.363661e-01   0.000000e+00
   3.086021e-02  -5.116988e-02   0.000000e+00
   6.611384e-02  -9.607645e-02   0.000000e+00
   3.006946e-02  -6.010778e-02   0.000000e+00
   2.986206e-02  -1.219402e-02   0.000000e+00
   7.764846e-02   5.831253e-02   0.000000e+00
  -3.935738e-02  -3.868362e-02   0.000000e+00
  -5.988288e-03  -2.703144e-02   0.000000e+00
   1.343919e-01  -1.285956e-01   0.000000e+00
   3.033760e-02   1.392249e-01   0.000000e+00
   0.000000e+00   0.000000e+00   0.000000e+00
   1.861138e-02   4.255538e-02   0.000000e+00
   1.312556e-01  -1.449613e-01   0.000000e+00
  -8.064266e-02  -1.936007e-01   0.000000e+00
   2.025711e-02  -2.925357e-02   0.000000e+00
  -8.801143e-02  -7.047594e-02   0.000000e+00
   1.235732e-01   3.461664e-02   0.000000e+00
   9.522534e-02   2.724695e-01   0.000000e+00
   1.005917e-03   1.075421e-01   0.000000e+00
VECTORS Imag_Arrow_6.309500e+02(Hz) float
  -1.207942e-02  -3.771169e-02   0.000000e+00
  -5.246082e-02   5.327079e-02   0.000000e+00
  -2.238204e-02   3.755368e-02   0.000000e+00
  -1.794903e-02  -1.147691e-01   0.000000e+00
  -2.392778e-02  -5.101517e-02   0.000000e+00
  -1.214291e-02   1.152738e-02   0.000000e+00
   6.559202e-03  -9.090579e-03   0.000000e+00
  -5.942434e-02   5.142157e-02   0.000000e+00
   0.000000e+00   0.000000e+00   0.000000e+00
   2.746292e-02  -1.389848e-02   0.000000e+00
  -2.237213e-02   1.572546e-02   0.000000e+00
  -4.161793e-03  -1.457851e-02   0.000000e+00
   1.729333e-02   1.753763e-01   0.000000e+00
  -6.438106e-02   2.101651e-02   0.000000e+00
   2.346014e-02   6.904520e-03   0.000000e+00
   2.019901e-02   1.895730e-02   0.000000e+00
  -1.947317e-02  -5.856901e-02   0.000000e+00
   1.501842e-02   2.430321e-02   0.000000e+00
   4.936834e-02  -1.049653e-02   0.000000e+00
  -2.036515e-02   1.157885e-03   0.000000e+00
  -1.122599e-02  -8.956945e-03   0.000000e+00
   3.089356e-02   1.490111e-02   0.000000e+00
   4.274641e-03   5.489217e-03   0.000000e+00
  -2.653389e-02  -4.334878e-02   0.000000e+00
  -4.156683e-02  -1.043267e-03   0.000000e+00
   1.328995e-02  -2.956976e-02   0.000000e+00
  -5.140101e-02   3.825371e-02   0.000000e+00
   2.718607e-03   5.448509e-03   0.000000e+00
   1.412515e-02   7.083522e-02   0.000000e+00
  -1.134650e-02   9.202994e-03   0.000000e+00
  -3.268550e-03   2.272923e-02   0.000000e+00
   9.035842e-03  -2.118293e-02   0.000000e+00
  -1.020483e-02   2.196624e-02   0.000000e+00
   6.614548e-02   1.067925e-01   0.000000e+00
   5.018842e-02  -7.682501e-02   0.000000e+00
  -4.164550e-02  -3.613706e-02   0.000000e+00
  -2.115930e-02   5.231076e-02   0.000000e+00
   0.000000e+00   0.000000e+00   0.000000e+00
  -7.387407e-02  -4.441487e-02   0.000000e+00
  -3.496576e-02   5.577424e-02   0.000000e+00
  -7.421788e-03  -8.905066e-03   0.000000e+00
  -6.022684e-03   7.862157e-03   0.000000e+00
  -6.814729e-02  -1.543735e-02   0.000000e+00
  -5.355145e-02  -5.543250e-02   0.000000e+00
  -4.979580e-02   8.172122e-02   0.000000e+00
   1.166136e-02  -2.459453e-02   0.000000e+00
VECTORS Real_Arrow_1.000000e+03(Hz) float
  -2.962875e-02  -7.875592e-03   0.000000e+00
  -7.090580e-02   1.269989e-01   0.000000e+00
  -7.427295e-02   7.880944e-02   0.000000e+00
   8.307059e-02  -1.084712e-02   0.000000e+00
   4.660612e-02   7.675192e-06   0.000000e+00
   2.802380e-02  -1.719141e-02   0.000000e+00
   2.264937e-02   3.170427e-02   0.000000e+00
   5.001001e-02  -1.558641e-02   0.000000e+00
   0.000000e+00   0.000000e+00   0.000000e+00
   2.061780e-02   1.831323e-02   0.000000e+00
  -2.609159e-02  -4.290695e-02   0.000000e+00
  -5.301991e-02   2.054161e-02   0.000000e+00
   2.671734e-02   1.170872e-01   0.000000e+00
   1.876897e-01   4.677048e-02   0.000000e+00
   0.000000e+00   0.000000e+00   0.000000e+00
   1.292938e-01  -3.385723e-02   0.000000e+00
  -1.655720e-01  -2.435842e-01   0.000000e+00
  -4.541525e-02   1.187513e-01   0.000000e+00
   0.000000e+00   0.000000e+00   0.000000e+00
   8.503591e-02   4.247015e-02   0.000000e+00
  -7.840695e-02   5.389620e-02   0.000000e+00
  -4.886278e-02  -6.539498e-02   0.000000e+00
  -9.819031e-02   1.103448e-01   0.000000e+00
   0.000000e+00   0.000000e+00   0.000000e+00
   6.711550e-04  -4.268354e-02   0.000000e+00
  -3.364824e-02  -2.248790e-02   0.000000e+00
   1.653477e-01   9.692915e-02   0.000000e+00
   3.283980e-02   1.358305e-01   0.000000e+00
   2.115393e-02  -7.816101e-02   0.000000e+00
   7.217418e-02  -1.028728e-01   0.000000e+00
   3.096261e-02  -6.727620e-02   0.000000e+00
   1.912694e-02  -2.432372e-03   0.000000e+00
   0.000000e+00   0.000000e+00   0.000000e+00
  -5.483497e-02  -6.814229e-02   0.000000e+00
   0.000000e+00   0.000000e+00   0.000000e+00
   1.427548e-01  -1.138638e-01   0.000000e+00
   3.931618e-02   1.289716e-01   0.000000e+00
   0.000000e+00   0.000000e+00   0.000000e+00
   0.000000e+00   0.000000e+00   0.000000e+00
   1.388769e-01  -1.540811e-01   0.000000e+00
   0.000000e+00   0.000000e+00   0.000000e+00
   0.000000e+00   0.000000e+00   0.000000e+00
  -6.140097e-02  -5.993764e-02   0.000000e+00
   1.410395e-01   5.231602e-02   0.000000e+00
   1.043949e-01   2.360795e-01   0.000000e+00
  -8.669337e-04   1.139722e-01   0.000000e+00
VECTORS Imag_Arrow_1.000000e+03(Hz) float
  -9.212284e-03  -2.897920e-02   0.000000e+00
  -4.651750e-02   5.105845e-02   0.000000e+00
  -2.890068e-02   4.002916e-02   0.000000e+00
  -1.261742e-02  -1.097998e-01   0.000000e+00
  -1.476037e-02  -3.568751e-02   0.000000e+00
  -2.209631e-02   1.505966e-02   0.000000e+00
   3.044009e-03  -2.071355e-03   0.000000e+00
  -5.040642e-02   4.941089e-02   0.000000e+00
   0.000000e+00   0.000000e+00   0.000000e+00
   2.360170e-02  -8.428677e-03   0.000000e+00
  -2.072584e-02   3.580398e-03   0.000000e+00
   3.849122e-04  -1.913163e-02   0.000000e+00
   4.787016e-03   1.564525e-01   0.000000e+00
  -5.254690e-02   1.102038e-02   0.000000e+00
   0.000000e+00   0.000000e+00   0.000000e+00
   3.250204e-02   1.356887e-02   0.000000e+00
  -4.181601e-02  -8.491064e-02   0.000000e+00
   3.215403e-03   4.632045e-02   0.000000e+00
   0.000000e+00   0.000000e+00   0.000000e+00
  -2.842735e-02   7.168042e-03   0.000000e+00
  -9.422899e-03  -6.483311e-03   0.000000e+00
   3.266213e-02   1.672621e-02   0.000000e+00
  -5.747614e-03   1.120413e-02   0.000000e+00
   0.000000e+00   0.000000e+00   0.000000e+00
  -4.034130e-02  -1.054727e-02   0.000000e+00
   1.265957e-02  -2.939628e-02   0.000000e+00
  -3.350932e-02   5.528480e-02   0.000000e+00
  -1.564333e-03   1.594298e-02   0.000000e+00
   1.136013e-02   6.712235e-02   0.000000e+00
  -1.811375e-02   1.528161e-02   0.000000e+00
  -7.996776e-03   2.385542e-02   0.000000e+00
   1.962048e-02  -2.448085e-02   0.000000e+00
   0.000000e+00   0.000000e+00   0.000000e+00
   4.728066e-02   8.229801e-02   0.000000e+00
   0.000000e+00   0.000000e+00   0.000000e+00
  -3.697181e-02  -2.777435e-02   0.000000e+00
  -2.753584e-02   5.428935e-02   0.000000e+00
   0.000000e+00   0.000000e+00   0.000000e+00
   0.000000e+00   0.000000e+00   0.000000e+00
  -2.793721e-02   5.829489e-02   0.000000e+00
   0.000000e+00   0.000000e+00   0.000000e+00
   0.000000e+00   0.000000e+00   0.000000e+00
  -6.827985e-02  -1.811974e-02   0.000000e+00
  -5.028749e-02  -5.448390e-02   0.000000e+00
  -3.674008e-02   9.125847e-02   0.000000e+00
   1.534153e-02  -2.390156e-02   0.000000e+00
