# vtk DataFile Version 2.0
Induction_Arrow_Iter11_PE2
ASCII
DATASET UNSTRUCTURED_GRID
POINTS 46 float
  -2.052000e+03    1.667000e+03   -4.526633e+02
  -1.265000e+03    2.333000e+03   -4.555885e+02
  -9.840000e+02    2.568000e+03   -4.612271e+02
   1.700000e+03   -1.757000e+03   -5.237752e+02
  -1.152000e+03    1.382000e+03   -4.549280e+02
   3.187000e+03    1.067000e+03   -8.370176e+02
   4.716000e+03    9.370000e+02   -8.015281e+02
  -1.855000e+03    5.260000e+02   -5.147377e+02
  -1.420000e+02   -1.905000e+03   -4.746368e+02
  -5.800000e+01    1.069000e+03   -4.555494e+02
  -2.802000e+03    3.302000e+03   -4.314337e+02
  -5.640000e+03   -1.532000e+03   -4.911771e+02
  -8.030000e+02   -5.610000e+02   -5.280929e+02
   1.008000e+03    4.130000e+02   -5.983358e+02
   1.960000e+02    2.246000e+03   -5.219413e+02
  -3.457000e+03    8.320000e+02   -4.470735e+02
   5.640000e+03    2.452000e+03   -7.393049e+02
  -1.334000e+03    3.332000e+03   -4.456136e+02
   1.244000e+03    1.880000e+03   -6.331107e+02
  -2.680000e+02    2.144000e+03   -4.891390e+02
  -4.063000e+03    6.620000e+02   -4.746103e+02
  -1.258000e+03    6.330000e+02   -4.856841e+02
  -2.141000e+03    3.194000e+03   -4.348461e+02
  -3.469000e+03   -3.059000e+03   -6.067613e+02
  -1.604000e+03   -2.570000e+02   -5.141257e+02
  -1.454000e+03    2.220000e+02   -5.386025e+02
   1.864000e+03    1.270000e+02   -7.404291e+02
   2.449000e+03    5.590000e+02   -7.805292e+02
  -1.834000e+03   -1.554000e+03   -6.273074e+02
   1.807000e+03    2.297000e+03   -6.825557e+02
  -2.560000e+03   -1.783000e+03   -6.131337e+02
  -2.741000e+03   -5.010000e+02   -5.080000e+02
   2.884000e+03   -2.179000e+03   -5.274708e+02
  -6.120000e+02   -8.960000e+02   -5.895389e+02
  -1.985000e+03   -2.653000e+03   -5.598834e+02
  -3.390000e+03   -4.000000e+02   -4.982361e+02
   1.586000e+03    1.342000e+03   -6.618442e+02
   1.047000e+03    2.401000e+03   -5.426792e+02
   8.380000e+02   -1.300000e+03   -4.783644e+02
   2.569000e+03    2.441000e+03   -6.035668e+02
  -2.028000e+03    2.833000e+03   -4.322286e+02
  -1.086000e+03    1.998000e+03   -4.563301e+02
   1.514000e+03   -3.332000e+03   -5.646205e+02
   7.040000e+02    1.116000e+03   -5.365099e+02
   1.990000e+03    6.360000e+02   -7.085272e+02
   3.722000e+03   -1.700000e+02   -6.745213e+02
CELLS 46 92
1 0
1 1
1 2
1 3
1 4
1 5
1 6
1 7
1 8
1 9
1 10
1 11
1 12
1 13
1 14
1 15
1 16
1 17
1 18
1 19
1 20
1 21
1 22
1 23
1 24
1 25
1 26
1 27
1 28
1 29
1 30
1 31
1 32
1 33
1 34
1 35
1 36
1 37
1 38
1 39
1 40
1 41
1 42
1 43
1 44
1 45
CELL_TYPES 46
1
1
1
1
1
1
1
1
1
1
1
1
1
1
1
1
1
1
1
1
1
1
1
1
1
1
1
1
1
1
1
1
1
1
1
1
1
1
1
1
1
1
1
1
1
1
POINT_DATA 46
VECTORS Real_Arrow_3.981000e-01(Hz) float
   0.000000e+00   0.000000e+00   0.000000e+00
   0.000000e+00   0.000000e+00   0.000000e+00
   0.000000e+00   0.000000e+00   0.000000e+00
   7.693099e-03  -3.724513e-01   0.000000e+00
   0.000000e+00   0.000000e+00   0.000000e+00
   0.000000e+00   0.000000e+00   0.000000e+00
   0.000000e+00   0.000000e+00   0.000000e+00
   0.000000e+00   0.000000e+00   0.000000e+00
   0.000000e+00   0.000000e+00   0.000000e+00
  -1.182690e-01  -1.127195e-01   0.000000e+00
  -1.918149e-01   2.006374e-02   0.000000e+00
   0.000000e+00   0.000000e+00   0.000000e+00
   0.000000e+00   0.000000e+00   0.000000e+00
   0.000000e+00   0.000000e+00   0.000000e+00
   0.000000e+00   0.000000e+00   0.000000e+00
   0.000000e+00   0.000000e+00   0.000000e+00
   6.310529e-02  -9.328467e-02   0.000000e+00
   0.000000e+00   0.000000e+00   0.000000e+00
   0.000000e+00   0.000000e+00   0.000000e+00
   0.000000e+00   0.000000e+00   0.000000e+00
   0.000000e+00   0.000000e+00   0.000000e+00
   0.000000e+00   0.000000e+00   0.000000e+00
   0.000000e+00   0.000000e+00   0.000000e+00
   0.000000e+00   0.000000e+00   0.000000e+00
   0.000000e+00   0.000000e+00   0.000000e+00
   0.000000e+00   0.000000e+00   0.000000e+00
  -2.314733e-02  -1.858802e-01   0.000000e+00
   6.801665e-03  -1.524262e-01   0.000000e+00
   0.000000e+00   0.000000e+00   0.000000e+00
  -1.061016e-02  -1.040884e-01   0.000000e+00
   0.000000e+00   0.000000e+00   0.000000e+00
   0.000000e+00   0.000000e+00   0.000000e+00
   0.000000e+00   0.000000e+00   0.000000e+00
   8.761577e-03  -9.500141e-02   0.000000e+00
   0.000000e+00   0.000000e+00   0.000000e+00
   0.000000e+00   0.000000e+00   0.000000e+00
   0.000000e+00   0.000000e+00   0.000000e+00
   0.000000e+00   0.000000e+00   0.000000e+00
  -7.591149e-02  -3.038504e-01   0.000000e+00
  -6.967904e-02   1.165528e-01   0.000000e+00
  -1.280575e-01  -3.032685e-02   0.000000e+00
   0.000000e+00   0.000000e+00   0.000000e+00
   0.000000e+00   0.000000e+00   0.000000e+00
   0.000000e+00   0.000000e+00   0.000000e+00
   0.000000e+00   0.000000e+00   0.000000e+00
   0.000000e+00   0.000000e+00   0.000000e+00
VECTORS Imag_Arrow_3.981000e-01(Hz) float
   0.000000e+00   0.000000e+00   0.000000e+00
   0.000000e+00   0.000000e+00   0.000000e+00
   0.000000e+00   0.000000e+00   0.000000e+00
   6.805936e-02   6.217913e-02   0.000000e+00
   0.000000e+00   0.000000e+00   0.000000e+00
   0.000000e+00   0.000000e+00   0.000000e+00
   0.000000e+00   0.000000e+00   0.000000e+00
   0.000000e+00   0.000000e+00   0.000000e+00
   0.000000e+00   0.000000e+00   0.000000e+00
   9.294060e-02  -1.480735e-02   0.000000e+00
   7.456457e-02  -4.907607e-02   0.000000e+00
   0.000000e+00   0.000000e+00   0.000000e+00
   0.000000e+00   0.000000e+00   0.000000e+00
   0.000000e+00   0.000000e+00   0.000000e+00
   0.000000e+00   0.000000e+00   0.000000e+00
   0.000000e+00   0.000000e+00   0.000000e+00
   9.498272e-02  -1.859301e-02   0.000000e+00
   0.000000e+00   0.000000e+00   0.000000e+00
   0.000000e+00   0.000000e+00   0.000000e+00
   0.000000e+00   0.000000e+00   0.000000e+00
   0.000000e+00   0.000000e+00   0.000000e+00
   0.000000e+00   0.000000e+00   0.000000e+00
   0.000000e+00   0.000000e+00   0.000000e+00
   0.000000e+00   0.000000e+00   0.000000e+00
   0.000000e+00   0.000000e+00   0.000000e+00
   0.000000e+00   0.000000e+00   0.000000e+00
   9.169351e-02   3.589293e-03   0.000000e+00
   8.318476e-02  -9.292644e-03   0.000000e+00
   0.000000e+00   0.000000e+00   0.000000e+00
   7.598668e-02  -6.732844e-03   0.000000e+00
   0.000000e+00   0.000000e+00   0.000000e+00
   0.000000e+00   0.000000e+00   0.000000e+00
   0.000000e+00   0.000000e+00   0.000000e+00
   1.473061e-02  -3.035806e-02   0.000000e+00
   0.000000e+00   0.000000e+00   0.000000e+00
   0.000000e+00   0.000000e+00   0.000000e+00
   0.000000e+00   0.000000e+00   0.000000e+00
   0.000000e+00   0.000000e+00   0.000000e+00
   1.054946e-01   4.611898e-02   0.000000e+00
   9.265880e-02  -8.752782e-02   0.000000e+00
   5.785861e-02  -3.246529e-02   0.000000e+00
   0.000000e+00   0.000000e+00   0.000000e+00
   0.000000e+00   0.000000e+00   0.000000e+00
   0.000000e+00   0.000000e+00   0.000000e+00
   0.000000e+00   0.000000e+00   0.000000e+00
   0.000000e+00   0.000000e+00   0.000000e+00
VECTORS Real_Arrow_6.309500e-01(Hz) float
   0.000000e+00   0.000000e+00   0.000000e+00
  -1.806140e-01   4.197141e-04   0.000000e+00
   0.000000e+00   0.000000e+00   0.000000e+00
  -1.588161e-02  -3.932652e-01   0.000000e+00
  -1.603325e-01  -9.055928e-02   0.000000e+00
   0.000000e+00   0.000000e+00   0.000000e+00
   1.014199e-01  -1.542295e-01   0.000000e+00
   0.000000e+00   0.000000e+00   0.000000e+00
   0.000000e+00   0.000000e+00   0.000000e+00
  -1.498810e-01  -1.076535e-01   0.000000e+00
  -2.156572e-01   3.816267e-02   0.000000e+00
   0.000000e+00   0.000000e+00   0.000000e+00
   0.000000e+00   0.000000e+00   0.000000e+00
  -1.597471e-01  -1.413491e-01   0.000000e+00
  -1.189791e-01  -2.611839e-02   0.000000e+00
   0.000000e+00   0.000000e+00   0.000000e+00
   3.510434e-02  -8.440696e-02   0.000000e+00
   0.000000e+00   0.000000e+00   0.000000e+00
   0.000000e+00   0.000000e+00   0.000000e+00
   0.000000e+00   0.000000e+00   0.000000e+00
   0.000000e+00   0.000000e+00   0.000000e+00
   0.000000e+00   0.000000e+00   0.000000e+00
  -1.659317e-01   2.107405e-02   0.000000e+00
   0.000000e+00   0.000000e+00   0.000000e+00
   0.000000e+00   0.000000e+00   0.000000e+00
   0.000000e+00   0.000000e+00   0.000000e+00
  -5.376246e-02  -1.887578e-01   0.000000e+00
  -2.082384e-02  -1.512779e-01   0.000000e+00
   0.000000e+00   0.000000e+00   0.000000e+00
  -3.766743e-02  -1.005515e-01   0.000000e+00
  -8.996664e-02  -6.658512e-02   0.000000e+00
  -1.787071e-01  -6.599996e-02   0.000000e+00
   0.000000e+00   0.000000e+00   0.000000e+00
   1.301616e-03  -8.946822e-02   0.000000e+00
   0.000000e+00   0.000000e+00   0.000000e+00
   0.000000e+00   0.000000e+00   0.000000e+00
  -1.205618e-01  -3.524755e-02   0.000000e+00
   0.000000e+00   0.000000e+00   0.000000e+00
   0.000000e+00   0.000000e+00   0.000000e+00
  -1.004261e-01   1.455405e-01   0.000000e+00
  -1.469447e-01  -1.683286e-02   0.000000e+00
  -1.541585e-01  -3.795101e-02   0.000000e+00
   0.000000e+00   0.000000e+00   0.000000e+00
  -1.540759e-01  -1.071042e-01   0.000000e+00
   0.000000e+00   0.000000e+00   0.000000e+00
   0.000000e+00   0.000000e+00   0.000000e+00
VECTORS Imag_Arrow_6.309500e-01(Hz) float
   0.000000e+00   0.000000e+00   0.000000e+00
   6.253403e-02  -5.303289e-02   0.000000e+00
   0.000000e+00   0.000000e+00   0.000000e+00
   5.349682e-02   6.377708e-02   0.000000e+00
   6.307658e-02  -1.297566e-02   0.000000e+00
   0.000000e+00   0.000000e+00   0.000000e+00
   4.689281e-02  -3.956261e-03   0.000000e+00
   0.000000e+00   0.000000e+00   0.000000e+00
   0.000000e+00   0.000000e+00   0.000000e+00
   7.544372e-02  -1.840305e-02   0.000000e+00
   5.313909e-02  -5.047280e-02   0.000000e+00
   0.000000e+00   0.000000e+00   0.000000e+00
   0.000000e+00   0.000000e+00   0.000000e+00
   1.191942e-01  -1.802257e-02   0.000000e+00
   5.511380e-02  -4.402625e-02   0.000000e+00
   0.000000e+00   0.000000e+00   0.000000e+00
   8.115056e-02  -1.831759e-02   0.000000e+00
   0.000000e+00   0.000000e+00   0.000000e+00
   0.000000e+00   0.000000e+00   0.000000e+00
   0.000000e+00   0.000000e+00   0.000000e+00
   0.000000e+00   0.000000e+00   0.000000e+00
   0.000000e+00   0.000000e+00   0.000000e+00
   3.942980e-02  -4.992223e-02   0.000000e+00
   0.000000e+00   0.000000e+00   0.000000e+00
   0.000000e+00   0.000000e+00   0.000000e+00
   0.000000e+00   0.000000e+00   0.000000e+00
   8.023338e-02  -2.598793e-03   0.000000e+00
   7.108711e-02  -1.761793e-02   0.000000e+00
   0.000000e+00   0.000000e+00   0.000000e+00
   6.130459e-02  -7.197539e-03   0.000000e+00
   3.665273e-02  -1.065912e-02   0.000000e+00
   7.304665e-02  -9.525755e-03   0.000000e+00
   0.000000e+00   0.000000e+00   0.000000e+00
  -2.352039e-03  -4.385237e-02   0.000000e+00
   0.000000e+00   0.000000e+00   0.000000e+00
   0.000000e+00   0.000000e+00   0.000000e+00
   9.219663e-02  -5.782262e-02   0.000000e+00
   0.000000e+00   0.000000e+00   0.000000e+00
   0.000000e+00   0.000000e+00   0.000000e+00
   7.248008e-02  -1.046346e-01   0.000000e+00
   3.733845e-02  -3.217085e-02   0.000000e+00
   5.555272e-02  -3.693571e-02   0.000000e+00
   0.000000e+00   0.000000e+00   0.000000e+00
   9.840901e-02  -1.920026e-02   0.000000e+00
   0.000000e+00   0.000000e+00   0.000000e+00
   0.000000e+00   0.000000e+00   0.000000e+00
VECTORS Real_Arrow_1.000000e+00(Hz) float
  -1.593573e-01  -6.822602e-02   0.000000e+00
  -2.003659e-01   1.847176e-02   0.000000e+00
   0.000000e+00   0.000000e+00   0.000000e+00
  -3.305462e-02  -4.179663e-01   0.000000e+00
  -1.808111e-01  -8.477103e-02   0.000000e+00
   0.000000e+00   0.000000e+00   0.000000e+00
   9.005502e-02  -1.529603e-01   0.000000e+00
  -1.905810e-01  -2.737042e-02   0.000000e+00
   0.000000e+00   0.000000e+00   0.000000e+00
  -1.750844e-01  -1.014714e-01   0.000000e+00
  -2.311835e-01   5.777717e-02   0.000000e+00
  -2.811345e-01  -8.985812e-02   0.000000e+00
   0.000000e+00   0.000000e+00   0.000000e+00
  -1.975651e-01  -1.383909e-01   0.000000e+00
   0.000000e+00   0.000000e+00   0.000000e+00
   0.000000e+00   0.000000e+00   0.000000e+00
   1.624892e-02  -7.516479e-02   0.000000e+00
   0.000000e+00   0.000000e+00   0.000000e+00
   0.000000e+00   0.000000e+00   0.000000e+00
   0.000000e+00   0.000000e+00   0.000000e+00
   0.000000e+00   0.000000e+00   0.000000e+00
   0.000000e+00   0.000000e+00   0.000000e+00
  -1.769805e-01   4.012662e-02   0.000000e+00
   0.000000e+00   0.000000e+00   0.000000e+00
   0.000000e+00   0.000000e+00   0.000000e+00
   0.000000e+00   0.000000e+00   0.000000e+00
  -7.866482e-02  -1.911641e-01   0.000000e+00
  -4.201992e-02  -1.484275e-01   0.000000e+00
   0.000000e+00   0.000000e+00   0.000000e+00
  -5.923176e-02  -9.768341e-02   0.000000e+00
  -1.042612e-01  -6.565333e-02   0.000000e+00
  -2.029609e-01  -6.565953e-02   0.000000e+00
   0.000000e+00   0.000000e+00   0.000000e+00
  -1.388747e-03  -8.011612e-02   0.000000e+00
   0.000000e+00   0.000000e+00   0.000000e+00
   0.000000e+00   0.000000e+00   0.000000e+00
  -1.499596e-01  -1.919883e-02   0.000000e+00
   0.000000e+00   0.000000e+00   0.000000e+00
  -1.401227e-01  -3.376650e-01   0.000000e+00
  -1.232071e-01   1.876497e-01   0.000000e+00
  -1.575974e-01  -2.461455e-03   0.000000e+00
  -1.723752e-01  -2.444103e-02   0.000000e+00
   0.000000e+00   0.000000e+00   0.000000e+00
  -1.865795e-01  -1.004279e-01   0.000000e+00
   0.000000e+00   0.000000e+00   0.000000e+00
   0.000000e+00   0.000000e+00   0.000000e+00
VECTORS Imag_Arrow_1.000000e+00(Hz) float
   2.199494e-02  -8.402855e-03   0.000000e+00
   3.699718e-02  -5.841317e-02   0.000000e+00
   0.000000e+00   0.000000e+00   0.000000e+00
   3.427241e-02   6.314536e-02   0.000000e+00
   4.082603e-02  -1.066951e-02   0.000000e+00
   0.000000e+00   0.000000e+00   0.000000e+00
   3.204561e-02  -6.967376e-03   0.000000e+00
   3.802315e-02  -5.050281e-02   0.000000e+00
   0.000000e+00   0.000000e+00   0.000000e+00
   5.241373e-02  -2.183397e-02   0.000000e+00
   2.735747e-02  -4.820002e-02   0.000000e+00
   4.423324e-02  -4.882026e-03   0.000000e+00
   0.000000e+00   0.000000e+00   0.000000e+00
   1.060089e-01  -2.783973e-02   0.000000e+00
   0.000000e+00   0.000000e+00   0.000000e+00
   0.000000e+00   0.000000e+00   0.000000e+00
   6.816695e-02  -1.457091e-02   0.000000e+00
   0.000000e+00   0.000000e+00   0.000000e+00
   0.000000e+00   0.000000e+00   0.000000e+00
   0.000000e+00   0.000000e+00   0.000000e+00
   0.000000e+00   0.000000e+00   0.000000e+00
   0.000000e+00   0.000000e+00   0.000000e+00
   1.307073e-02  -4.972183e-02   0.000000e+00
   0.000000e+00   0.000000e+00   0.000000e+00
   0.000000e+00   0.000000e+00   0.000000e+00
   0.000000e+00   0.000000e+00   0.000000e+00
   6.501006e-02  -1.154496e-02   0.000000e+00
   5.563256e-02  -2.886651e-02   0.000000e+00
   0.000000e+00   0.000000e+00   0.000000e+00
   4.075493e-02  -5.689912e-03   0.000000e+00
   2.769754e-02  -1.512970e-02   0.000000e+00
   6.495043e-02  -1.080437e-02   0.000000e+00
   0.000000e+00   0.000000e+00   0.000000e+00
  -2.577788e-02  -6.332311e-02   0.000000e+00
   0.000000e+00   0.000000e+00   0.000000e+00
   0.000000e+00   0.000000e+00   0.000000e+00
   7.350089e-02  -7.524034e-02   0.000000e+00
   0.000000e+00   0.000000e+00   0.000000e+00
   8.371547e-02   5.127176e-02   0.000000e+00
   4.787366e-02  -1.217474e-01   0.000000e+00
   1.249860e-02  -2.757570e-02   0.000000e+00
   3.021163e-02  -3.911637e-02   0.000000e+00
   0.000000e+00   0.000000e+00   0.000000e+00
   7.841925e-02  -2.318659e-02   0.000000e+00
   0.000000e+00   0.000000e+00   0.000000e+00
   0.000000e+00   0.000000e+00   0.000000e+00
