# vtk DataFile Version 2.0
Induction_Arrow_Iter0_PE4
ASCII
DATASET UNSTRUCTURED_GRID
POINTS 46 float
  -2.052000e+03    1.667000e+03   -4.526633e+02
  -1.265000e+03    2.333000e+03   -4.555885e+02
  -9.840000e+02    2.568000e+03   -4.612271e+02
   1.700000e+03   -1.757000e+03   -5.237752e+02
  -1.152000e+03    1.382000e+03   -4.549280e+02
   3.187000e+03    1.067000e+03   -8.370176e+02
   4.716000e+03    9.370000e+02   -8.015281e+02
  -1.855000e+03    5.260000e+02   -5.147377e+02
  -1.420000e+02   -1.905000e+03   -4.746368e+02
  -5.800000e+01    1.069000e+03   -4.555494e+02
  -2.802000e+03    3.302000e+03   -4.314337e+02
  -5.640000e+03   -1.532000e+03   -4.911771e+02
  -8.030000e+02   -5.610000e+02   -5.280929e+02
   1.008000e+03    4.130000e+02   -5.983358e+02
   1.960000e+02    2.246000e+03   -5.219413e+02
  -3.457000e+03    8.320000e+02   -4.470735e+02
   5.640000e+03    2.452000e+03   -7.393049e+02
  -1.334000e+03    3.332000e+03   -4.456136e+02
   1.244000e+03    1.880000e+03   -6.331107e+02
  -2.680000e+02    2.144000e+03   -4.891390e+02
  -4.063000e+03    6.620000e+02   -4.746103e+02
  -1.258000e+03    6.330000e+02   -4.856841e+02
  -2.141000e+03    3.194000e+03   -4.348461e+02
  -3.469000e+03   -3.059000e+03   -6.067613e+02
  -1.604000e+03   -2.570000e+02   -5.141257e+02
  -1.454000e+03    2.220000e+02   -5.386025e+02
   1.864000e+03    1.270000e+02   -7.404291e+02
   2.449000e+03    5.590000e+02   -7.805292e+02
  -1.834000e+03   -1.554000e+03   -6.273074e+02
   1.807000e+03    2.297000e+03   -6.825557e+02
  -2.560000e+03   -1.783000e+03   -6.131337e+02
  -2.741000e+03   -5.010000e+02   -5.080000e+02
   2.884000e+03   -2.179000e+03   -5.274708e+02
  -6.120000e+02   -8.960000e+02   -5.895389e+02
  -1.985000e+03   -2.653000e+03   -5.598834e+02
  -3.390000e+03   -4.000000e+02   -4.982361e+02
   1.586000e+03    1.342000e+03   -6.618442e+02
   1.047000e+03    2.401000e+03   -5.426792e+02
   8.380000e+02   -1.300000e+03   -4.783644e+02
   2.569000e+03    2.441000e+03   -6.035668e+02
  -2.028000e+03    2.833000e+03   -4.322286e+02
  -1.086000e+03    1.998000e+03   -4.563301e+02
   1.514000e+03   -3.332000e+03   -5.646205e+02
   7.040000e+02    1.116000e+03   -5.365099e+02
   1.990000e+03    6.360000e+02   -7.085272e+02
   3.722000e+03   -1.700000e+02   -6.745213e+02
CELLS 46 92
1 0
1 1
1 2
1 3
1 4
1 5
1 6
1 7
1 8
1 9
1 10
1 11
1 12
1 13
1 14
1 15
1 16
1 17
1 18
1 19
1 20
1 21
1 22
1 23
1 24
1 25
1 26
1 27
1 28
1 29
1 30
1 31
1 32
1 33
1 34
1 35
1 36
1 37
1 38
1 39
1 40
1 41
1 42
1 43
1 44
1 45
CELL_TYPES 46
1
1
1
1
1
1
1
1
1
1
1
1
1
1
1
1
1
1
1
1
1
1
1
1
1
1
1
1
1
1
1
1
1
1
1
1
1
1
1
1
1
1
1
1
1
1
POINT_DATA 46
VECTORS Real_Arrow_6.309500e+00(Hz) float
  -9.758671e-02  -7.349100e-02   0.000000e+00
  -1.398919e-01   9.670020e-02   0.000000e+00
   0.000000e+00   0.000000e+00   0.000000e+00
  -1.646560e-02  -4.974062e-01   0.000000e+00
  -1.483068e-01  -8.467780e-02   0.000000e+00
  -5.348768e-02  -3.092716e-02   0.000000e+00
   7.805770e-02  -1.391034e-01   0.000000e+00
  -1.507980e-01   7.664289e-02   0.000000e+00
   2.171056e-01  -1.936246e-01   0.000000e+00
  -1.597276e-01  -6.694182e-02   0.000000e+00
  -1.592922e-01   8.388056e-02   0.000000e+00
  -2.117957e-01   2.950995e-02   0.000000e+00
   0.000000e+00   0.000000e+00   0.000000e+00
  -2.989860e-01  -6.590733e-02   0.000000e+00
  -7.585377e-02   4.308540e-02   0.000000e+00
   0.000000e+00   0.000000e+00   0.000000e+00
  -4.957504e-02  -6.729286e-02   0.000000e+00
   0.000000e+00   0.000000e+00   0.000000e+00
   9.437345e-03  -3.062498e-02   0.000000e+00
  -3.962622e-02   3.776453e-02   0.000000e+00
   0.000000e+00   0.000000e+00   0.000000e+00
  -1.972723e-01  -5.489698e-02   0.000000e+00
  -8.759791e-02   8.311244e-02   0.000000e+00
  -1.708096e-01  -1.156577e-01   0.000000e+00
   0.000000e+00   0.000000e+00   0.000000e+00
  -1.391053e-01   1.806825e-02   0.000000e+00
  -1.176087e-01  -1.413649e-01   0.000000e+00
  -7.184105e-02  -7.001203e-02   0.000000e+00
  -7.567289e-02  -1.378868e-02   0.000000e+00
  -3.248433e-02  -5.354802e-02   0.000000e+00
   0.000000e+00   0.000000e+00   0.000000e+00
  -2.366416e-01  -2.244057e-02   0.000000e+00
   1.751166e-01   7.848042e-02   0.000000e+00
   1.378707e-01   9.113897e-02   0.000000e+00
  -2.059975e-02  -1.078373e-01   0.000000e+00
  -3.058840e-01  -1.833785e-01   0.000000e+00
   0.000000e+00   0.000000e+00   0.000000e+00
  -1.166844e-01   5.247389e-02   0.000000e+00
  -2.110027e-01  -4.308410e-01   0.000000e+00
  -9.714941e-02   3.415267e-01   0.000000e+00
  -7.453380e-02   2.793774e-03   0.000000e+00
  -1.098589e-01   2.394078e-02   0.000000e+00
   2.240001e-03   3.720372e-02   0.000000e+00
  -2.196880e-01  -5.335418e-02   0.000000e+00
  -1.443474e-01   1.009824e-03   0.000000e+00
   8.111147e-02  -1.589606e-01   0.000000e+00
VECTORS Imag_Arrow_6.309500e+00(Hz) float
  -6.538249e-02   2.837812e-02   0.000000e+00
  -5.878431e-02  -3.297917e-02   0.000000e+00
   0.000000e+00   0.000000e+00   0.000000e+00
  -3.907056e-02  -5.530480e-02   0.000000e+00
  -7.172604e-02   2.833365e-02   0.000000e+00
   8.435434e-03  -6.038103e-02   0.000000e+00
   1.200027e-02  -2.189132e-02   0.000000e+00
  -8.803759e-02  -6.618433e-02   0.000000e+00
  -1.190246e-01  -1.481364e-02   0.000000e+00
  -8.953119e-02  -1.876372e-02   0.000000e+00
  -3.190638e-02   3.518020e-02   0.000000e+00
  -1.388361e-01  -9.513808e-02   0.000000e+00
   0.000000e+00   0.000000e+00   0.000000e+00
  -1.700480e-02  -9.748402e-02   0.000000e+00
  -9.315143e-02  -7.281771e-03   0.000000e+00
   0.000000e+00   0.000000e+00   0.000000e+00
   7.468917e-02   5.821744e-02   0.000000e+00
   0.000000e+00   0.000000e+00   0.000000e+00
  -1.461910e-01   2.110558e-02   0.000000e+00
  -1.078891e-01  -4.592704e-03   0.000000e+00
   0.000000e+00   0.000000e+00   0.000000e+00
  -7.447651e-02  -1.383048e-02   0.000000e+00
  -4.050976e-02   2.091142e-02   0.000000e+00
  -8.332898e-02  -8.340805e-03   0.000000e+00
   0.000000e+00   0.000000e+00   0.000000e+00
  -8.360603e-02  -4.228285e-02   0.000000e+00
  -1.922927e-02  -9.988477e-02   0.000000e+00
  -9.925542e-03  -1.031676e-01   0.000000e+00
  -6.002018e-02  -5.236050e-02   0.000000e+00
  -8.031411e-02   7.912952e-03   0.000000e+00
   0.000000e+00   0.000000e+00   0.000000e+00
  -4.586572e-02  -4.463628e-02   0.000000e+00
  -1.444242e-02  -6.565830e-02   0.000000e+00
  -1.254052e-01  -1.636732e-01   0.000000e+00
  -6.918694e-02   1.344627e-02   0.000000e+00
  -3.950090e-02   2.300263e-02   0.000000e+00
   0.000000e+00   0.000000e+00   0.000000e+00
  -8.264567e-02  -3.497734e-02   0.000000e+00
   3.860545e-03  -4.082994e-02   0.000000e+00
  -9.616301e-02   6.882085e-02   0.000000e+00
  -4.577773e-02   6.527277e-02   0.000000e+00
  -8.010212e-02   1.325854e-03   0.000000e+00
   3.620649e-02  -3.618531e-02   0.000000e+00
  -6.417941e-02  -2.233022e-02   0.000000e+00
  -3.542449e-03  -1.575382e-01   0.000000e+00
  -9.766779e-03  -9.028522e-02   0.000000e+00
VECTORS Real_Arrow_1.000000e+01(Hz) float
  -6.213400e-02  -9.377019e-02   0.000000e+00
  -1.043968e-01   9.293339e-02   0.000000e+00
   0.000000e+00   0.000000e+00   0.000000e+00
   3.431266e-03  -4.679113e-01   0.000000e+00
  -1.107056e-01  -1.051154e-01   0.000000e+00
  -5.500295e-02  -7.938235e-03   0.000000e+00
   7.562389e-02  -1.350161e-01   0.000000e+00
  -1.014178e-01   1.011535e-01   0.000000e+00
   2.724375e-01  -1.849022e-01   0.000000e+00
  -1.161482e-01  -6.702273e-02   0.000000e+00
  -1.528779e-01   5.513554e-02   0.000000e+00
  -1.458962e-01   6.205576e-02   0.000000e+00
   0.000000e+00   0.000000e+00   0.000000e+00
  -2.900834e-01  -2.694826e-02   0.000000e+00
   0.000000e+00   0.000000e+00   0.000000e+00
  -8.540989e-02   2.092449e-02   0.000000e+00
  -7.899277e-02  -9.447016e-02   0.000000e+00
   2.803295e-02   5.095310e-02   0.000000e+00
   7.779956e-02  -4.303732e-02   0.000000e+00
   1.252306e-02   2.695259e-02   0.000000e+00
   0.000000e+00   0.000000e+00   0.000000e+00
  -1.584145e-01  -5.383224e-02   0.000000e+00
  -7.283132e-02   5.447550e-02   0.000000e+00
  -1.230155e-01  -1.097073e-01   0.000000e+00
   0.000000e+00   0.000000e+00   0.000000e+00
  -9.403120e-02   3.486894e-02   0.000000e+00
  -1.075518e-01  -1.004682e-01   0.000000e+00
  -6.502540e-02  -2.880618e-02   0.000000e+00
  -4.425494e-02   9.452510e-03   0.000000e+00
   0.000000e+00   0.000000e+00   0.000000e+00
   0.000000e+00   0.000000e+00   0.000000e+00
  -2.103406e-01  -6.655922e-04   0.000000e+00
   1.610181e-01   9.016291e-02   0.000000e+00
   2.019131e-01   1.657970e-01   0.000000e+00
   1.413800e-02  -1.148662e-01   0.000000e+00
  -2.897556e-01  -1.880698e-01   0.000000e+00
   0.000000e+00   0.000000e+00   0.000000e+00
  -6.759317e-02   6.112166e-02   0.000000e+00
  -2.060917e-01  -4.152332e-01   0.000000e+00
  -4.288267e-02   2.854367e-01   0.000000e+00
  -5.544881e-02  -3.696978e-02   0.000000e+00
  -6.815528e-02   1.139607e-02   0.000000e+00
  -2.148410e-02   5.065250e-02   0.000000e+00
  -1.865468e-01  -5.083219e-02   0.000000e+00
  -1.402588e-01   6.219557e-02   0.000000e+00
   9.369322e-02  -1.196163e-01   0.000000e+00
VECTORS Imag_Arrow_1.000000e+01(Hz) float
  -6.497420e-02   3.321787e-02   0.000000e+00
  -5.258363e-02  -2.733759e-02   0.000000e+00
   0.000000e+00   0.000000e+00   0.000000e+00
  -4.580746e-02  -1.071543e-01   0.000000e+00
  -8.536189e-02   3.439855e-02   0.000000e+00
  -1.019635e-02  -5.319972e-02   0.000000e+00
   8.177107e-03  -3.011413e-02   0.000000e+00
  -9.531869e-02  -3.955774e-02   0.000000e+00
  -8.350823e-02  -1.088937e-02   0.000000e+00
  -1.217990e-01  -1.820191e-02   0.000000e+00
  -3.408686e-02   4.788853e-02   0.000000e+00
  -1.254514e-01  -4.617956e-02   0.000000e+00
   0.000000e+00   0.000000e+00   0.000000e+00
  -7.612592e-02  -1.091255e-01   0.000000e+00
   0.000000e+00   0.000000e+00   0.000000e+00
  -1.113417e-01  -4.005002e-02   0.000000e+00
   7.274141e-02   8.446714e-02   0.000000e+00
  -4.463535e-02   2.795776e-02   0.000000e+00
  -1.768508e-01   4.676902e-02   0.000000e+00
  -1.162588e-01   5.829250e-03   0.000000e+00
   0.000000e+00   0.000000e+00   0.000000e+00
  -9.725575e-02  -2.752490e-03   0.000000e+00
  -2.955967e-02   2.896487e-02   0.000000e+00
  -1.082856e-01  -3.602067e-03   0.000000e+00
   0.000000e+00   0.000000e+00   0.000000e+00
  -9.836594e-02  -1.603158e-02   0.000000e+00
  -4.824910e-02  -1.230819e-01   0.000000e+00
  -3.028415e-02  -1.146336e-01   0.000000e+00
  -6.436520e-02  -3.880167e-02   0.000000e+00
   0.000000e+00   0.000000e+00   0.000000e+00
   0.000000e+00   0.000000e+00   0.000000e+00
  -7.851481e-02  -3.508941e-02   0.000000e+00
   3.165140e-02  -3.623405e-02   0.000000e+00
  -9.928877e-02  -1.484607e-01   0.000000e+00
  -6.712619e-02   2.742497e-02   0.000000e+00
  -1.040068e-01   1.924261e-02   0.000000e+00
   0.000000e+00   0.000000e+00   0.000000e+00
  -1.073123e-01  -2.385942e-02   0.000000e+00
  -2.036383e-02  -1.032712e-01   0.000000e+00
  -1.121443e-01   1.412970e-01   0.000000e+00
  -3.771478e-02   7.983717e-02   0.000000e+00
  -8.422338e-02   1.329800e-02   0.000000e+00
   6.292098e-02  -4.206820e-03   0.000000e+00
  -1.075147e-01  -1.768459e-02   0.000000e+00
  -3.279465e-02  -1.782101e-01   0.000000e+00
  -4.912987e-03  -1.141080e-01   0.000000e+00
VECTORS Real_Arrow_1.584800e+01(Hz) float
  -3.130360e-02  -1.140220e-01   0.000000e+00
  -7.797821e-02   9.176837e-02   0.000000e+00
   0.000000e+00   0.000000e+00   0.000000e+00
   2.487407e-02  -4.146034e-01   0.000000e+00
  -7.116412e-02  -1.257910e-01   0.000000e+00
  -4.636219e-02   1.159282e-02   0.000000e+00
   7.729144e-02  -1.274988e-01   0.000000e+00
  -5.585644e-02   1.075770e-01   0.000000e+00
   3.016362e-01  -1.835597e-01   0.000000e+00
  -5.794489e-02  -6.429839e-02   0.000000e+00
  -1.459742e-01   3.121102e-02   0.000000e+00
   0.000000e+00   0.000000e+00   0.000000e+00
   0.000000e+00   0.000000e+00   0.000000e+00
  -2.515782e-01   1.884050e-02   0.000000e+00
   0.000000e+00   0.000000e+00   0.000000e+00
  -3.964218e-02   3.505815e-02   0.000000e+00
  -1.042668e-01  -1.332375e-01   0.000000e+00
   4.154261e-02   2.904436e-02   0.000000e+00
   1.584664e-01  -6.882449e-02   0.000000e+00
   6.523081e-02   1.652527e-02   0.000000e+00
  -1.176423e-01   3.698638e-03   0.000000e+00
  -1.132242e-01  -5.927449e-02   0.000000e+00
  -6.632459e-02   3.143858e-02   0.000000e+00
  -7.331461e-02  -1.089958e-01   0.000000e+00
   0.000000e+00   0.000000e+00   0.000000e+00
  -4.647851e-02   3.513101e-02   0.000000e+00
  -8.414549e-02  -4.851586e-02   0.000000e+00
  -4.836921e-02   1.715623e-02   0.000000e+00
  -1.912048e-02   2.021773e-02   0.000000e+00
   0.000000e+00   0.000000e+00   0.000000e+00
   0.000000e+00   0.000000e+00   0.000000e+00
  -1.713052e-01   1.100921e-02   0.000000e+00
   1.247366e-01   9.059160e-02   0.000000e+00
   2.434787e-01   2.283928e-01   0.000000e+00
   4.014864e-02  -1.347403e-01   0.000000e+00
  -2.372829e-01  -1.961704e-01   0.000000e+00
   0.000000e+00   0.000000e+00   0.000000e+00
  -7.208205e-03   6.660128e-02   0.000000e+00
  -1.925981e-01  -3.651568e-01   0.000000e+00
   7.591651e-03   2.118747e-01   0.000000e+00
  -4.302112e-02  -7.264631e-02   0.000000e+00
  -3.001948e-02  -1.900485e-03   0.000000e+00
  -5.486210e-02   4.306620e-02   0.000000e+00
  -1.339544e-01  -4.850792e-02   0.000000e+00
  -1.220981e-01   1.334631e-01   0.000000e+00
   1.010686e-01  -7.089256e-02   0.000000e+00
VECTORS Imag_Arrow_1.584800e+01(Hz) float
  -4.521280e-02   2.486321e-02   0.000000e+00
  -2.472026e-02  -3.825470e-02   0.000000e+00
   0.000000e+00   0.000000e+00   0.000000e+00
  -4.458515e-02  -1.467819e-01   0.000000e+00
  -8.113520e-02   2.718613e-02   0.000000e+00
  -2.913542e-02  -4.020914e-02   0.000000e+00
   6.483826e-03  -4.233162e-02   0.000000e+00
  -7.625384e-02  -8.011995e-03   0.000000e+00
  -2.582780e-02  -2.726741e-03   0.000000e+00
  -1.384123e-01  -2.427880e-02   0.000000e+00
  -4.456828e-02   4.350157e-02   0.000000e+00
   0.000000e+00   0.000000e+00   0.000000e+00
   0.000000e+00   0.000000e+00   0.000000e+00
  -1.358665e-01  -1.105260e-01   0.000000e+00
   0.000000e+00   0.000000e+00   0.000000e+00
  -1.317522e-01  -2.324871e-02   0.000000e+00
   6.234699e-02   1.013160e-01   0.000000e+00
  -2.165682e-02   1.011045e-02   0.000000e+00
  -1.809103e-01   6.712061e-02   0.000000e+00
  -1.023885e-01   3.076271e-03   0.000000e+00
  -6.618992e-03  -3.735472e-02   0.000000e+00
  -1.040057e-01   4.464469e-03   0.000000e+00
  -1.781526e-02   1.225262e-02   0.000000e+00
  -1.094421e-01   3.842356e-03   0.000000e+00
   0.000000e+00   0.000000e+00   0.000000e+00
  -9.158430e-02   1.550403e-02   0.000000e+00
  -7.539894e-02  -1.351425e-01   0.000000e+00
  -4.845834e-02  -1.151464e-01   0.000000e+00
  -5.621476e-02  -1.731366e-02   0.000000e+00
   0.000000e+00   0.000000e+00   0.000000e+00
   0.000000e+00   0.000000e+00   0.000000e+00
  -9.857862e-02  -1.609843e-02   0.000000e+00
   4.882038e-02  -1.864378e-02   0.000000e+00
  -4.287631e-02  -1.034861e-01   0.000000e+00
  -5.263677e-02   3.598868e-02   0.000000e+00
  -1.671155e-01   1.612687e-02   0.000000e+00
   0.000000e+00   0.000000e+00   0.000000e+00
  -1.038320e-01  -1.308549e-02   0.000000e+00
  -4.086138e-02  -1.658334e-01   0.000000e+00
  -1.036435e-01   1.802001e-01   0.000000e+00
  -2.456593e-02   7.389132e-02   0.000000e+00
  -6.796092e-02   1.158075e-02   0.000000e+00
   7.288293e-02   3.038810e-02   0.000000e+00
  -1.385154e-01  -1.777426e-02   0.000000e+00
  -6.149142e-02  -1.844556e-01   0.000000e+00
   1.195055e-02  -1.245386e-01   0.000000e+00
