# vtk DataFile Version 2.0
Induction_Arrow_Iter10_PE6
ASCII
DATASET UNSTRUCTURED_GRID
POINTS 46 float
  -2.052000e+03    1.667000e+03   -4.526633e+02
  -1.265000e+03    2.333000e+03   -4.555885e+02
  -9.840000e+02    2.568000e+03   -4.612271e+02
   1.700000e+03   -1.757000e+03   -5.237752e+02
  -1.152000e+03    1.382000e+03   -4.549280e+02
   3.187000e+03    1.067000e+03   -8.370176e+02
   4.716000e+03    9.370000e+02   -8.015281e+02
  -1.855000e+03    5.260000e+02   -5.147377e+02
  -1.420000e+02   -1.905000e+03   -4.746368e+02
  -5.800000e+01    1.069000e+03   -4.555494e+02
  -2.802000e+03    3.302000e+03   -4.314337e+02
  -5.640000e+03   -1.532000e+03   -4.911771e+02
  -8.030000e+02   -5.610000e+02   -5.280929e+02
   1.008000e+03    4.130000e+02   -5.983358e+02
   1.960000e+02    2.246000e+03   -5.219413e+02
  -3.457000e+03    8.320000e+02   -4.470735e+02
   5.640000e+03    2.452000e+03   -7.393049e+02
  -1.334000e+03    3.332000e+03   -4.456136e+02
   1.244000e+03    1.880000e+03   -6.331107e+02
  -2.680000e+02    2.144000e+03   -4.891390e+02
  -4.063000e+03    6.620000e+02   -4.746103e+02
  -1.258000e+03    6.330000e+02   -4.856841e+02
  -2.141000e+03    3.194000e+03   -4.348461e+02
  -3.469000e+03   -3.059000e+03   -6.067613e+02
  -1.604000e+03   -2.570000e+02   -5.141257e+02
  -1.454000e+03    2.220000e+02   -5.386025e+02
   1.864000e+03    1.270000e+02   -7.404291e+02
   2.449000e+03    5.590000e+02   -7.805292e+02
  -1.834000e+03   -1.554000e+03   -6.273074e+02
   1.807000e+03    2.297000e+03   -6.825557e+02
  -2.560000e+03   -1.783000e+03   -6.131337e+02
  -2.741000e+03   -5.010000e+02   -5.080000e+02
   2.884000e+03   -2.179000e+03   -5.274708e+02
  -6.120000e+02   -8.960000e+02   -5.895389e+02
  -1.985000e+03   -2.653000e+03   -5.598834e+02
  -3.390000e+03   -4.000000e+02   -4.982361e+02
   1.586000e+03    1.342000e+03   -6.618442e+02
   1.047000e+03    2.401000e+03   -5.426792e+02
   8.380000e+02   -1.300000e+03   -4.783644e+02
   2.569000e+03    2.441000e+03   -6.035668e+02
  -2.028000e+03    2.833000e+03   -4.322286e+02
  -1.086000e+03    1.998000e+03   -4.563301e+02
   1.514000e+03   -3.332000e+03   -5.646205e+02
   7.040000e+02    1.116000e+03   -5.365099e+02
   1.990000e+03    6.360000e+02   -7.085272e+02
   3.722000e+03   -1.700000e+02   -6.745213e+02
CELLS 46 92
1 0
1 1
1 2
1 3
1 4
1 5
1 6
1 7
1 8
1 9
1 10
1 11
1 12
1 13
1 14
1 15
1 16
1 17
1 18
1 19
1 20
1 21
1 22
1 23
1 24
1 25
1 26
1 27
1 28
1 29
1 30
1 31
1 32
1 33
1 34
1 35
1 36
1 37
1 38
1 39
1 40
1 41
1 42
1 43
1 44
1 45
CELL_TYPES 46
1
1
1
1
1
1
1
1
1
1
1
1
1
1
1
1
1
1
1
1
1
1
1
1
1
1
1
1
1
1
1
1
1
1
1
1
1
1
1
1
1
1
1
1
1
1
POINT_DATA 46
VECTORS Real_Arrow_1.000000e+02(Hz) float
  -5.804750e-02  -8.949489e-02   0.000000e+00
  -1.563562e-01   2.004132e-01   0.000000e+00
  -8.511560e-02   1.330097e-01   0.000000e+00
   4.773508e-02  -1.846535e-01   0.000000e+00
  -1.140959e-02  -1.148711e-01   0.000000e+00
   2.659382e-02   8.957751e-03   0.000000e+00
   5.719203e-02  -2.662246e-02   0.000000e+00
  -6.636781e-02   5.142271e-02   0.000000e+00
   0.000000e+00   0.000000e+00   0.000000e+00
   9.461427e-02  -1.835103e-02   0.000000e+00
  -5.751614e-02   4.189642e-03   0.000000e+00
  -5.785167e-02   7.830941e-03   0.000000e+00
   0.000000e+00   0.000000e+00   0.000000e+00
   5.104366e-02   1.111239e-01   0.000000e+00
   5.739882e-02   4.049300e-02   0.000000e+00
   1.428035e-01   1.394403e-02   0.000000e+00
  -1.506742e-01  -2.767602e-01   0.000000e+00
   1.384273e-02   8.334420e-02   0.000000e+00
   0.000000e+00   0.000000e+00   0.000000e+00
   9.448890e-02   3.573615e-02   0.000000e+00
  -9.963081e-02   3.628325e-02   0.000000e+00
   1.048858e-02  -5.518434e-02   0.000000e+00
  -6.300658e-02   9.564383e-02   0.000000e+00
   3.597107e-02  -1.328806e-01   0.000000e+00
   0.000000e+00   0.000000e+00   0.000000e+00
  -5.234077e-03  -7.830270e-02   0.000000e+00
   5.609513e-02   1.069719e-01   0.000000e+00
   4.233959e-02   1.254082e-01   0.000000e+00
   3.656456e-02   1.051516e-02   0.000000e+00
   9.860711e-02  -1.214521e-01   0.000000e+00
   4.021827e-02  -3.659448e-02   0.000000e+00
  -1.568390e-02  -2.223715e-02   0.000000e+00
   7.722576e-02   7.851403e-02   0.000000e+00
   1.101713e-01   1.779771e-01   0.000000e+00
   6.379245e-02  -1.582667e-01   0.000000e+00
   9.039696e-02  -1.893508e-01   0.000000e+00
   5.085374e-02   2.709096e-01   0.000000e+00
   0.000000e+00   0.000000e+00   0.000000e+00
  -1.002287e-01  -4.103411e-02   0.000000e+00
   7.357130e-02  -8.518330e-02   0.000000e+00
   0.000000e+00   0.000000e+00   0.000000e+00
  -2.031240e-02   1.085405e-02   0.000000e+00
  -1.543774e-01  -6.503913e-02   0.000000e+00
   7.060341e-02  -3.404199e-02   0.000000e+00
   5.037868e-03   3.320332e-01   0.000000e+00
   1.622734e-02   7.890878e-02   0.000000e+00
VECTORS Imag_Arrow_1.000000e+02(Hz) float
  -3.514138e-03  -5.196501e-02   0.000000e+00
   1.056298e-02  -3.434219e-02   0.000000e+00
   2.406040e-02  -9.444692e-03   0.000000e+00
  -1.139903e-02  -1.418992e-01   0.000000e+00
  -4.576608e-02  -5.109910e-02   0.000000e+00
  -3.217314e-02   2.232870e-02   0.000000e+00
   3.321527e-02  -8.467415e-02   0.000000e+00
  -3.108548e-02   2.401443e-02   0.000000e+00
   0.000000e+00   0.000000e+00   0.000000e+00
  -1.777977e-02  -3.515629e-02   0.000000e+00
  -4.492094e-02   2.701293e-02   0.000000e+00
  -1.404796e-02   8.834629e-03   0.000000e+00
   0.000000e+00   0.000000e+00   0.000000e+00
  -1.817581e-01   2.524876e-03   0.000000e+00
   1.636905e-02  -8.329741e-03   0.000000e+00
  -5.620739e-02   3.241096e-02   0.000000e+00
   2.495621e-02   4.587142e-02   0.000000e+00
   3.139483e-02  -4.927688e-02   0.000000e+00
   0.000000e+00   0.000000e+00   0.000000e+00
   1.224534e-02  -8.780749e-03   0.000000e+00
  -1.584723e-02  -1.723451e-02   0.000000e+00
  -2.022731e-02  -1.807924e-02   0.000000e+00
   8.766597e-03  -4.338861e-02   0.000000e+00
  -6.269230e-02   6.787904e-03   0.000000e+00
   0.000000e+00   0.000000e+00   0.000000e+00
   5.095378e-03   2.523446e-02   0.000000e+00
  -9.131606e-02  -6.375725e-02   0.000000e+00
  -3.650135e-02  -4.197593e-02   0.000000e+00
  -2.439157e-02   1.282829e-02   0.000000e+00
   2.318335e-02  -6.833730e-03   0.000000e+00
  -2.232973e-02   2.241596e-02   0.000000e+00
  -8.887451e-02   1.278505e-02   0.000000e+00
   9.982174e-03   1.229108e-02   0.000000e+00
   1.377822e-01   1.286213e-01   0.000000e+00
   2.191214e-02  -6.307671e-02   0.000000e+00
  -1.464036e-01  -2.344864e-02   0.000000e+00
  -3.847119e-02   8.799816e-02   0.000000e+00
   0.000000e+00   0.000000e+00   0.000000e+00
  -7.718048e-02  -1.449794e-01   0.000000e+00
  -4.705345e-02   1.518680e-01   0.000000e+00
   0.000000e+00   0.000000e+00   0.000000e+00
  -2.467133e-02   7.592961e-03   0.000000e+00
   1.691151e-02   4.958360e-02   0.000000e+00
  -9.322133e-02  -3.877687e-02   0.000000e+00
  -8.303686e-02  -5.398538e-02   0.000000e+00
   5.804669e-02  -7.568084e-02   0.000000e+00
VECTORS Real_Arrow_1.584800e+02(Hz) float
  -5.406497e-02  -6.742575e-02   0.000000e+00
  -1.556860e-01   2.077325e-01   0.000000e+00
  -9.314860e-02   1.299332e-01   0.000000e+00
   5.064807e-02  -1.472478e-01   0.000000e+00
   4.493012e-03  -9.165168e-02   0.000000e+00
   3.393762e-02  -4.228714e-03   0.000000e+00
   4.168613e-02   8.185615e-03   0.000000e+00
  -4.918963e-02   5.144136e-02   0.000000e+00
   0.000000e+00   0.000000e+00   0.000000e+00
   8.034599e-02  -6.232904e-03   0.000000e+00
  -4.869504e-02  -3.648046e-03   0.000000e+00
  -5.997410e-02   7.019661e-03   0.000000e+00
   0.000000e+00   0.000000e+00   0.000000e+00
   1.052067e-01   9.618307e-02   0.000000e+00
   4.472080e-02   4.169225e-02   0.000000e+00
   1.479903e-01  -1.200320e-03   0.000000e+00
  -1.579951e-01  -2.866267e-01   0.000000e+00
  -2.553929e-03   1.075415e-01   0.000000e+00
   0.000000e+00   0.000000e+00   0.000000e+00
   8.000215e-02   3.593323e-02   0.000000e+00
  -9.520822e-02   4.065811e-02   0.000000e+00
   1.435580e-03  -4.574810e-02   0.000000e+00
  -7.149846e-02   1.121551e-01   0.000000e+00
   5.429512e-02  -1.390903e-01   0.000000e+00
   0.000000e+00   0.000000e+00   0.000000e+00
  -1.204189e-02  -7.608476e-02   0.000000e+00
   8.168575e-02   1.235647e-01   0.000000e+00
   4.955940e-02   1.330063e-01   0.000000e+00
   4.442009e-02   1.125560e-02   0.000000e+00
   7.639438e-02  -1.078919e-01   0.000000e+00
   4.222990e-02  -4.237913e-02   0.000000e+00
   1.301190e-02  -2.646428e-02   0.000000e+00
   7.660963e-02   7.307727e-02   0.000000e+00
   5.507696e-02   1.145190e-01   0.000000e+00
   5.224234e-02  -1.243179e-01   0.000000e+00
   1.186399e-01  -1.786238e-01   0.000000e+00
   4.629871e-02   2.112855e-01   0.000000e+00
   0.000000e+00   0.000000e+00   0.000000e+00
  -7.416660e-02  -1.038322e-02   0.000000e+00
   8.727293e-02  -1.224333e-01   0.000000e+00
   0.000000e+00   0.000000e+00   0.000000e+00
  -6.845358e-03   4.655953e-03   0.000000e+00
  -1.548418e-01  -8.096565e-02   0.000000e+00
   8.784665e-02  -2.126605e-02   0.000000e+00
   2.861755e-02   3.397217e-01   0.000000e+00
  -5.466859e-03   9.895305e-02   0.000000e+00
VECTORS Imag_Arrow_1.584800e+02(Hz) float
  -1.187288e-02  -5.223291e-02   0.000000e+00
  -1.853655e-02  -1.112864e-03   0.000000e+00
   1.313233e-02   1.034087e-02   0.000000e+00
  -1.715998e-02  -1.280966e-01   0.000000e+00
  -4.512324e-02  -6.247750e-02   0.000000e+00
  -1.977527e-02   2.381400e-02   0.000000e+00
   3.305199e-02  -7.271518e-02   0.000000e+00
  -5.520061e-02   3.068775e-02   0.000000e+00
   0.000000e+00   0.000000e+00   0.000000e+00
   1.403185e-02  -3.200772e-02   0.000000e+00
  -3.451410e-02   2.981080e-02   0.000000e+00
  -8.634413e-03  -8.595706e-06   0.000000e+00
   0.000000e+00   0.000000e+00   0.000000e+00
  -1.481360e-01   2.062349e-02   0.000000e+00
   2.303129e-02  -1.632365e-03   0.000000e+00
  -3.023437e-02   3.272072e-02   0.000000e+00
   1.800493e-02   1.738242e-02   0.000000e+00
   3.780004e-02  -4.583147e-02   0.000000e+00
   0.000000e+00   0.000000e+00   0.000000e+00
   1.164464e-02  -4.586962e-03   0.000000e+00
  -1.492392e-02  -1.455163e-02   0.000000e+00
   7.644017e-03  -7.675084e-03   0.000000e+00
   1.798505e-02  -3.062943e-02   0.000000e+00
  -5.622831e-02  -5.952411e-04   0.000000e+00
   0.000000e+00   0.000000e+00   0.000000e+00
   1.020286e-02  -5.932313e-03   0.000000e+00
  -8.253081e-02  -3.962081e-02   0.000000e+00
  -2.173350e-02  -2.690083e-02   0.000000e+00
  -1.372743e-02   2.669754e-02   0.000000e+00
   2.321583e-02  -1.385311e-02   0.000000e+00
  -9.547351e-03   2.131466e-02   0.000000e+00
  -6.796121e-02   1.684032e-03   0.000000e+00
   3.873628e-03   1.471081e-02   0.000000e+00
   1.278687e-01   1.471965e-01   0.000000e+00
   3.571998e-02  -8.008235e-02   0.000000e+00
  -9.382785e-02  -3.340605e-02   0.000000e+00
  -1.434928e-02   1.044573e-01   0.000000e+00
   0.000000e+00   0.000000e+00   0.000000e+00
  -8.415957e-02  -1.071016e-01   0.000000e+00
  -4.865200e-02   1.051458e-01   0.000000e+00
   0.000000e+00   0.000000e+00   0.000000e+00
  -3.031230e-02   1.877245e-02   0.000000e+00
  -1.394042e-02   3.028481e-02   0.000000e+00
  -7.056959e-02  -4.755772e-02   0.000000e+00
  -7.758953e-02  -1.036383e-02   0.000000e+00
   3.790091e-02  -5.400714e-02   0.000000e+00
VECTORS Real_Arrow_2.511800e+02(Hz) float
  -4.624428e-02  -4.930012e-02   0.000000e+00
  -1.390347e-01   1.971421e-01   0.000000e+00
  -9.669586e-02   1.197878e-01   0.000000e+00
   5.857582e-02  -1.153079e-01   0.000000e+00
   1.990881e-02  -6.431673e-02   0.000000e+00
   3.380194e-02  -1.434214e-02   0.000000e+00
   2.765105e-02   3.252716e-02   0.000000e+00
  -2.039856e-02   4.038006e-02   0.000000e+00
   0.000000e+00   0.000000e+00   0.000000e+00
   5.956890e-02   4.130485e-03   0.000000e+00
  -4.267077e-02  -1.617506e-02   0.000000e+00
  -6.047429e-02   9.595356e-03   0.000000e+00
   4.117086e-02   3.036651e-01   0.000000e+00
   1.424566e-01   7.948067e-02   0.000000e+00
   3.308935e-02   3.990501e-02   0.000000e+00
   1.493072e-01  -1.314444e-02   0.000000e+00
  -1.647733e-01  -2.864380e-01   0.000000e+00
  -2.103063e-02   1.299891e-01   0.000000e+00
   0.000000e+00   0.000000e+00   0.000000e+00
   7.109853e-02   3.625619e-02   0.000000e+00
  -9.070601e-02   4.425066e-02   0.000000e+00
  -1.305479e-02  -4.625148e-02   0.000000e+00
  -8.418665e-02   1.196089e-01   0.000000e+00
   7.105105e-02  -1.408490e-01   0.000000e+00
   0.000000e+00   0.000000e+00   0.000000e+00
  -1.858973e-02  -6.037501e-02   0.000000e+00
   1.059212e-01   1.325072e-01   0.000000e+00
   5.110438e-02   1.365841e-01   0.000000e+00
   4.621500e-02   1.820020e-03   0.000000e+00
   6.395682e-02  -9.698683e-02   0.000000e+00
   3.820752e-02  -4.793501e-02   0.000000e+00
   3.289103e-02  -2.418909e-02   0.000000e+00
   7.694060e-02   6.822871e-02   0.000000e+00
   1.266430e-02   5.308968e-02   0.000000e+00
   0.000000e+00   0.000000e+00   0.000000e+00
   1.236246e-01  -1.629323e-01   0.000000e+00
   3.507646e-02   1.620698e-01   0.000000e+00
   0.000000e+00   0.000000e+00   0.000000e+00
  -4.368029e-02   9.055907e-03   0.000000e+00
   1.037982e-01  -1.324632e-01   0.000000e+00
  -6.995806e-02  -1.861389e-01   0.000000e+00
   8.181201e-03  -9.080153e-03   0.000000e+00
  -1.407230e-01  -8.556480e-02   0.000000e+00
   9.784048e-02  -2.974829e-03   0.000000e+00
   5.282539e-02   3.302955e-01   0.000000e+00
  -8.336084e-03   1.058299e-01   0.000000e+00
VECTORS Imag_Arrow_2.511800e+02(Hz) float
  -1.519261e-02  -4.923954e-02   0.000000e+00
  -4.149008e-02   2.827530e-02   0.000000e+00
   1.368120e-03   2.387492e-02   0.000000e+00
  -2.101911e-02  -1.200638e-01   0.000000e+00
  -3.992634e-02  -6.758821e-02   0.000000e+00
  -9.949715e-03   1.972105e-02   0.000000e+00
   2.617949e-02  -4.969650e-02   0.000000e+00
  -6.558255e-02   4.267925e-02   0.000000e+00
   0.000000e+00   0.000000e+00   0.000000e+00
   2.830280e-02  -2.700780e-02   0.000000e+00
  -2.858943e-02   3.053923e-02   0.000000e+00
  -7.187253e-03  -5.906991e-03   0.000000e+00
   4.886837e-02   2.037728e-01   0.000000e+00
  -1.142626e-01   2.862009e-02   0.000000e+00
   2.594219e-02   2.045532e-03   0.000000e+00
  -1.150457e-02   2.882483e-02   0.000000e+00
   9.659314e-03  -9.246120e-03   0.000000e+00
   3.605177e-02  -3.006958e-02   0.000000e+00
   0.000000e+00   0.000000e+00   0.000000e+00
   3.438531e-03  -3.692846e-03   0.000000e+00
  -1.396761e-02  -1.263582e-02   0.000000e+00
   2.051447e-02   3.492930e-03   0.000000e+00
   1.954673e-02  -1.602503e-02   0.000000e+00
  -4.806967e-02  -1.362725e-02   0.000000e+00
   0.000000e+00   0.000000e+00   0.000000e+00
   1.344126e-02  -2.239648e-02   0.000000e+00
  -7.526688e-02  -1.282342e-02   0.000000e+00
  -9.943721e-03  -1.366224e-02   0.000000e+00
  -1.059411e-03   4.690686e-02   0.000000e+00
   1.149194e-02  -8.781153e-03   0.000000e+00
  -1.492885e-03   2.123083e-02   0.000000e+00
  -4.133704e-02  -7.451426e-03   0.000000e+00
  -7.835720e-04   1.653145e-02   0.000000e+00
   1.085483e-01   1.447313e-01   0.000000e+00
   0.000000e+00   0.000000e+00   0.000000e+00
  -6.124510e-02  -4.003287e-02   0.000000e+00
  -5.377864e-03   8.596100e-02   0.000000e+00
   0.000000e+00   0.000000e+00   0.000000e+00
  -8.777387e-02  -8.222194e-02   0.000000e+00
  -4.685253e-02   7.162870e-02   0.000000e+00
   1.869645e-02   3.263008e-02   0.000000e+00
  -2.617374e-02   2.330393e-02   0.000000e+00
  -4.140536e-02   9.595994e-03   0.000000e+00
  -5.798681e-02  -5.411401e-02   0.000000e+00
  -7.286769e-02   3.034535e-02   0.000000e+00
   1.691615e-02  -3.365467e-02   0.000000e+00
