# vtk DataFile Version 2.0
Induction_Arrow_Iter10_PE5
ASCII
DATASET UNSTRUCTURED_GRID
POINTS 46 float
  -2.052000e+03    1.667000e+03   -4.526633e+02
  -1.265000e+03    2.333000e+03   -4.555885e+02
  -9.840000e+02    2.568000e+03   -4.612271e+02
   1.700000e+03   -1.757000e+03   -5.237752e+02
  -1.152000e+03    1.382000e+03   -4.549280e+02
   3.187000e+03    1.067000e+03   -8.370176e+02
   4.716000e+03    9.370000e+02   -8.015281e+02
  -1.855000e+03    5.260000e+02   -5.147377e+02
  -1.420000e+02   -1.905000e+03   -4.746368e+02
  -5.800000e+01    1.069000e+03   -4.555494e+02
  -2.802000e+03    3.302000e+03   -4.314337e+02
  -5.640000e+03   -1.532000e+03   -4.911771e+02
  -8.030000e+02   -5.610000e+02   -5.280929e+02
   1.008000e+03    4.130000e+02   -5.983358e+02
   1.960000e+02    2.246000e+03   -5.219413e+02
  -3.457000e+03    8.320000e+02   -4.470735e+02
   5.640000e+03    2.452000e+03   -7.393049e+02
  -1.334000e+03    3.332000e+03   -4.456136e+02
   1.244000e+03    1.880000e+03   -6.331107e+02
  -2.680000e+02    2.144000e+03   -4.891390e+02
  -4.063000e+03    6.620000e+02   -4.746103e+02
  -1.258000e+03    6.330000e+02   -4.856841e+02
  -2.141000e+03    3.194000e+03   -4.348461e+02
  -3.469000e+03   -3.059000e+03   -6.067613e+02
  -1.604000e+03   -2.570000e+02   -5.141257e+02
  -1.454000e+03    2.220000e+02   -5.386025e+02
   1.864000e+03    1.270000e+02   -7.404291e+02
   2.449000e+03    5.590000e+02   -7.805292e+02
  -1.834000e+03   -1.554000e+03   -6.273074e+02
   1.807000e+03    2.297000e+03   -6.825557e+02
  -2.560000e+03   -1.783000e+03   -6.131337e+02
  -2.741000e+03   -5.010000e+02   -5.080000e+02
   2.884000e+03   -2.179000e+03   -5.274708e+02
  -6.120000e+02   -8.960000e+02   -5.895389e+02
  -1.985000e+03   -2.653000e+03   -5.598834e+02
  -3.390000e+03   -4.000000e+02   -4.982361e+02
   1.586000e+03    1.342000e+03   -6.618442e+02
   1.047000e+03    2.401000e+03   -5.426792e+02
   8.380000e+02   -1.300000e+03   -4.783644e+02
   2.569000e+03    2.441000e+03   -6.035668e+02
  -2.028000e+03    2.833000e+03   -4.322286e+02
  -1.086000e+03    1.998000e+03   -4.563301e+02
   1.514000e+03   -3.332000e+03   -5.646205e+02
   7.040000e+02    1.116000e+03   -5.365099e+02
   1.990000e+03    6.360000e+02   -7.085272e+02
   3.722000e+03   -1.700000e+02   -6.745213e+02
CELLS 46 92
1 0
1 1
1 2
1 3
1 4
1 5
1 6
1 7
1 8
1 9
1 10
1 11
1 12
1 13
1 14
1 15
1 16
1 17
1 18
1 19
1 20
1 21
1 22
1 23
1 24
1 25
1 26
1 27
1 28
1 29
1 30
1 31
1 32
1 33
1 34
1 35
1 36
1 37
1 38
1 39
1 40
1 41
1 42
1 43
1 44
1 45
CELL_TYPES 46
1
1
1
1
1
1
1
1
1
1
1
1
1
1
1
1
1
1
1
1
1
1
1
1
1
1
1
1
1
1
1
1
1
1
1
1
1
1
1
1
1
1
1
1
1
1
POINT_DATA 46
VECTORS Real_Arrow_2.511800e+01(Hz) float
  -2.542561e-02  -1.322910e-01   0.000000e+00
  -7.455289e-02   1.073194e-01   0.000000e+00
   0.000000e+00   0.000000e+00   0.000000e+00
   4.735294e-02  -3.516356e-01   0.000000e+00
  -4.150681e-02  -1.385140e-01   0.000000e+00
  -3.224693e-02   2.584821e-02   0.000000e+00
   8.145390e-02  -1.142881e-01   0.000000e+00
  -2.963915e-02   9.921959e-02   0.000000e+00
   2.725826e-01  -1.807156e-01   0.000000e+00
  -3.784560e-03  -5.645785e-02   0.000000e+00
  -1.258064e-01   2.539603e-02   0.000000e+00
  -7.501010e-02   4.640324e-02   0.000000e+00
   0.000000e+00   0.000000e+00   0.000000e+00
  -1.934443e-01   6.593507e-02   0.000000e+00
   6.104765e-02   1.937447e-02   0.000000e+00
   2.179713e-02   4.352991e-02   0.000000e+00
  -1.224353e-01  -1.788253e-01   0.000000e+00
   3.861825e-02   2.552821e-02   0.000000e+00
   2.226220e-01  -1.037027e-01   0.000000e+00
   1.049852e-01   1.183094e-02   0.000000e+00
  -1.174425e-01   2.205449e-02   0.000000e+00
  -7.012625e-02  -7.290423e-02   0.000000e+00
  -6.656195e-02   3.054527e-02   0.000000e+00
  -2.346131e-02  -1.176006e-01   0.000000e+00
   0.000000e+00   0.000000e+00   0.000000e+00
  -5.423521e-03   1.843965e-02   0.000000e+00
  -5.691861e-02   2.866168e-03   0.000000e+00
  -2.730649e-02   6.001023e-02   0.000000e+00
   7.936478e-03   2.024964e-02   0.000000e+00
   0.000000e+00   0.000000e+00   0.000000e+00
   3.127822e-03  -7.338697e-04   0.000000e+00
  -1.326659e-01   1.675076e-02   0.000000e+00
   9.746790e-02   8.787572e-02   0.000000e+00
   2.654801e-01   2.586902e-01   0.000000e+00
   6.732878e-02  -1.622674e-01   0.000000e+00
  -1.659415e-01  -1.937574e-01   0.000000e+00
   0.000000e+00   0.000000e+00   0.000000e+00
   2.634256e-02   7.194809e-02   0.000000e+00
  -1.655786e-01  -2.781730e-01   0.000000e+00
   4.147026e-02   1.326990e-01   0.000000e+00
  -4.218466e-02  -9.372774e-02   0.000000e+00
  -9.671654e-03  -4.509887e-03   0.000000e+00
  -8.371912e-02   2.432752e-02   0.000000e+00
  -7.293274e-02  -5.897772e-02   0.000000e+00
  -9.605155e-02   2.052504e-01   0.000000e+00
   9.683486e-02  -2.295116e-02   0.000000e+00
VECTORS Imag_Arrow_2.511800e+01(Hz) float
  -1.776850e-02   6.647562e-03   0.000000e+00
   1.045148e-02  -5.604655e-02   0.000000e+00
   0.000000e+00   0.000000e+00   0.000000e+00
  -3.203200e-02  -1.583506e-01   0.000000e+00
  -6.861022e-02   1.231893e-02   0.000000e+00
  -4.243590e-02  -2.360176e-02   0.000000e+00
   1.019625e-02  -5.701812e-02   0.000000e+00
  -4.039980e-02   2.766321e-02   0.000000e+00
   3.665890e-02   1.206266e-02   0.000000e+00
  -1.359910e-01  -3.025752e-02   0.000000e+00
  -6.350304e-02   4.050352e-02   0.000000e+00
  -6.923850e-02   1.377240e-02   0.000000e+00
   0.000000e+00   0.000000e+00   0.000000e+00
  -1.884128e-01  -9.888755e-02   0.000000e+00
  -7.034348e-02  -1.321948e-03   0.000000e+00
  -1.449647e-01  -1.439178e-03   0.000000e+00
   4.891786e-02   1.033584e-01   0.000000e+00
   7.478280e-04  -1.544383e-02   0.000000e+00
  -1.570751e-01   7.169922e-02   0.000000e+00
  -7.185393e-02  -5.746194e-03   0.000000e+00
  -1.622441e-02  -2.195555e-02   0.000000e+00
  -1.017312e-01   4.839249e-03   0.000000e+00
  -1.124716e-02  -1.389023e-02   0.000000e+00
  -9.523565e-02   5.793935e-03   0.000000e+00
   0.000000e+00   0.000000e+00   0.000000e+00
  -6.371218e-02   4.893541e-02   0.000000e+00
  -9.603202e-02  -1.323629e-01   0.000000e+00
  -6.044785e-02  -1.050589e-01   0.000000e+00
  -4.459159e-02   7.149529e-04   0.000000e+00
   0.000000e+00   0.000000e+00   0.000000e+00
  -5.742425e-02   2.059866e-02   0.000000e+00
  -1.173707e-01   4.625712e-05   0.000000e+00
   3.956839e-02  -8.183607e-03   0.000000e+00
   2.481584e-02  -4.373125e-02   0.000000e+00
  -3.094348e-02   3.558149e-02   0.000000e+00
  -2.118393e-01   8.086910e-03   0.000000e+00
   0.000000e+00   0.000000e+00   0.000000e+00
  -6.589155e-02  -1.184041e-02   0.000000e+00
  -5.737082e-02  -2.030116e-01   0.000000e+00
  -8.390421e-02   2.011277e-01   0.000000e+00
  -1.494629e-02   6.493241e-02   0.000000e+00
  -4.262255e-02   3.496873e-03   0.000000e+00
   7.245363e-02   5.577846e-02   0.000000e+00
  -1.557698e-01  -2.336843e-02   0.000000e+00
  -8.271914e-02  -1.732663e-01   0.000000e+00
   3.065605e-02  -1.179054e-01   0.000000e+00
VECTORS Real_Arrow_3.981000e+01(Hz) float
  -3.693091e-02  -1.308667e-01   0.000000e+00
  -1.018117e-01   1.376788e-01   0.000000e+00
  -4.401757e-02   9.843690e-02   0.000000e+00
   5.383964e-02  -2.898538e-01   0.000000e+00
  -2.807410e-02  -1.423023e-01   0.000000e+00
  -9.565635e-03   2.886253e-02   0.000000e+00
   7.940169e-02  -9.300117e-02   0.000000e+00
   0.000000e+00   0.000000e+00   0.000000e+00
   2.393313e-01  -1.977365e-01   0.000000e+00
   5.315983e-02  -4.420242e-02   0.000000e+00
  -9.902816e-02   1.514465e-02   0.000000e+00
  -6.144879e-02   2.930423e-02   0.000000e+00
   0.000000e+00   0.000000e+00   0.000000e+00
  -1.078462e-01   1.021679e-01   0.000000e+00
   7.777980e-02   2.310975e-02   0.000000e+00
   8.179311e-02   3.851486e-02   0.000000e+00
  -1.333024e-01  -2.206174e-01   0.000000e+00
   3.070908e-02   4.106199e-02   0.000000e+00
   0.000000e+00   0.000000e+00   0.000000e+00
   1.195780e-01   1.921907e-02   0.000000e+00
  -1.114332e-01   2.436760e-02   0.000000e+00
  -3.140239e-02  -7.777595e-02   0.000000e+00
  -6.629247e-02   4.543929e-02   0.000000e+00
   5.258111e-04  -1.212280e-01   0.000000e+00
   0.000000e+00   0.000000e+00   0.000000e+00
   7.993768e-03  -1.686155e-02   0.000000e+00
  -1.520703e-02   5.050318e-02   0.000000e+00
   1.453049e-03   9.352632e-02   0.000000e+00
   0.000000e+00   0.000000e+00   0.000000e+00
   1.241999e-01  -1.097096e-01   0.000000e+00
   1.845074e-02  -1.724908e-02   0.000000e+00
  -8.972521e-02   5.563825e-03   0.000000e+00
   0.000000e+00   0.000000e+00   0.000000e+00
   2.322792e-01   2.608523e-01   0.000000e+00
   7.181466e-02  -1.828746e-01   0.000000e+00
  -6.698151e-02  -1.970225e-01   0.000000e+00
   0.000000e+00   0.000000e+00   0.000000e+00
   3.857521e-02   7.520080e-02   0.000000e+00
  -1.428676e-01  -1.831846e-01   0.000000e+00
   5.923111e-02   5.631114e-02   0.000000e+00
  -4.178663e-02  -1.074867e-01   0.000000e+00
  -1.198256e-02  -3.534955e-04   0.000000e+00
  -1.139962e-01  -8.708014e-03   0.000000e+00
  -9.962536e-03  -5.073068e-02   0.000000e+00
  -5.847080e-02   2.666839e-01   0.000000e+00
   7.869389e-02   1.677138e-02   0.000000e+00
VECTORS Imag_Arrow_3.981000e+01(Hz) float
   3.943799e-03  -2.045010e-02   0.000000e+00
   3.739406e-02  -6.767195e-02   0.000000e+00
   3.073320e-02  -4.186522e-02   0.000000e+00
  -1.801858e-02  -1.634810e-01   0.000000e+00
  -5.112149e-02  -1.062736e-02   0.000000e+00
  -4.739890e-02  -2.971809e-03   0.000000e+00
   1.907194e-02  -7.210555e-02   0.000000e+00
   0.000000e+00   0.000000e+00   0.000000e+00
   8.046276e-02   4.204876e-03   0.000000e+00
  -1.090019e-01  -3.456276e-02   0.000000e+00
  -6.619415e-02   3.324682e-02   0.000000e+00
  -4.559467e-02   1.996800e-02   0.000000e+00
   0.000000e+00   0.000000e+00   0.000000e+00
  -2.114721e-01  -6.739860e-02   0.000000e+00
  -3.091508e-02  -1.022238e-02   0.000000e+00
  -1.280580e-01   1.361528e-02   0.000000e+00
   3.908650e-02   9.379662e-02   0.000000e+00
   1.249522e-02  -3.645705e-02   0.000000e+00
   0.000000e+00   0.000000e+00   0.000000e+00
  -3.145804e-02  -1.451210e-02   0.000000e+00
  -1.804627e-02  -2.005746e-02   0.000000e+00
  -8.499581e-02  -5.097123e-03   0.000000e+00
  -7.176729e-03  -3.743336e-02   0.000000e+00
  -7.862273e-02   8.129219e-03   0.000000e+00
   0.000000e+00   0.000000e+00   0.000000e+00
  -3.070077e-02   6.366405e-02   0.000000e+00
  -1.045012e-01  -1.134508e-01   0.000000e+00
  -6.145148e-02  -8.312865e-02   0.000000e+00
   0.000000e+00   0.000000e+00   0.000000e+00
  -3.250801e-02   2.580437e-02   0.000000e+00
  -4.607199e-02   2.663685e-02   0.000000e+00
  -1.135399e-01   1.525383e-02   0.000000e+00
   0.000000e+00   0.000000e+00   0.000000e+00
   8.945806e-02   2.550216e-02   0.000000e+00
  -1.075973e-02   7.330130e-03   0.000000e+00
  -2.230890e-01  -2.027619e-03   0.000000e+00
   0.000000e+00   0.000000e+00   0.000000e+00
  -1.426606e-02   6.453719e-04   0.000000e+00
  -6.486555e-02  -2.131825e-01   0.000000e+00
  -6.093862e-02   2.029389e-01   0.000000e+00
  -7.007330e-03   5.764489e-02   0.000000e+00
  -1.901059e-02  -3.312506e-03   0.000000e+00
   6.323498e-02   6.648492e-02   0.000000e+00
  -1.458913e-01  -2.833092e-02   0.000000e+00
  -9.216622e-02  -1.404329e-01   0.000000e+00
   5.231980e-02  -1.073628e-01   0.000000e+00
VECTORS Real_Arrow_6.309500e+01(Hz) float
  -5.245843e-02  -1.136396e-01   0.000000e+00
  -1.365167e-01   1.741486e-01   0.000000e+00
  -6.921593e-02   1.225149e-01   0.000000e+00
   5.097480e-02  -2.325048e-01   0.000000e+00
  -2.198842e-02  -1.332889e-01   0.000000e+00
   1.154347e-02   2.155653e-02   0.000000e+00
   7.064588e-02  -6.285082e-02   0.000000e+00
   0.000000e+00   0.000000e+00   0.000000e+00
   0.000000e+00   0.000000e+00   0.000000e+00
   8.829509e-02  -3.128897e-02   0.000000e+00
  -7.379988e-02   8.673215e-03   0.000000e+00
  -5.665628e-02   1.561371e-02   0.000000e+00
   0.000000e+00   0.000000e+00   0.000000e+00
  -2.174227e-02   1.167027e-01   0.000000e+00
   7.168251e-02   3.270370e-02   0.000000e+00
   1.243215e-01   2.843221e-02   0.000000e+00
  -1.424279e-01  -2.546134e-01   0.000000e+00
   2.393880e-02   6.195078e-02   0.000000e+00
   0.000000e+00   0.000000e+00   0.000000e+00
   1.114691e-01   3.001948e-02   0.000000e+00
  -1.046641e-01   3.019705e-02   0.000000e+00
  -8.692662e-04  -7.052005e-02   0.000000e+00
  -6.287010e-02   7.092187e-02   0.000000e+00
   0.000000e+00   0.000000e+00   0.000000e+00
   0.000000e+00   0.000000e+00   0.000000e+00
   3.903295e-03  -5.533876e-02   0.000000e+00
   2.429932e-02   8.412686e-02   0.000000e+00
   2.636860e-02   1.136549e-01   0.000000e+00
   0.000000e+00   0.000000e+00   0.000000e+00
   1.195328e-01  -1.238988e-01   0.000000e+00
   3.127163e-02  -2.925020e-02   0.000000e+00
  -5.061165e-02  -9.851977e-03   0.000000e+00
   8.001629e-02   8.389319e-02   0.000000e+00
   1.737577e-01   2.309973e-01   0.000000e+00
   0.000000e+00   0.000000e+00   0.000000e+00
   2.560496e-02  -1.952269e-01   0.000000e+00
   3.878407e-02   3.118215e-01   0.000000e+00
   0.000000e+00   0.000000e+00   0.000000e+00
  -1.220322e-01  -9.789027e-02   0.000000e+00
   6.608418e-02  -2.020151e-02   0.000000e+00
  -3.999005e-02  -1.219000e-01   0.000000e+00
  -2.166004e-02   7.480477e-03   0.000000e+00
  -1.393569e-01  -4.008227e-02   0.000000e+00
   3.904402e-02  -4.254651e-02   0.000000e+00
  -2.313143e-02   3.084234e-01   0.000000e+00
   4.874415e-02   5.048603e-02   0.000000e+00
VECTORS Imag_Arrow_6.309500e+01(Hz) float
   5.568570e-03  -4.229450e-02   0.000000e+00
   3.479103e-02  -6.022269e-02   0.000000e+00
   3.312606e-02  -3.084997e-02   0.000000e+00
  -9.862101e-03  -1.562754e-01   0.000000e+00
  -4.458334e-02  -3.376467e-02   0.000000e+00
  -4.281009e-02   1.350858e-02   0.000000e+00
   2.801968e-02  -8.335395e-02   0.000000e+00
   0.000000e+00   0.000000e+00   0.000000e+00
   0.000000e+00   0.000000e+00   0.000000e+00
  -6.391524e-02  -3.595589e-02   0.000000e+00
  -5.778855e-02   2.788829e-02   0.000000e+00
  -2.619888e-02   1.727368e-02   0.000000e+00
   0.000000e+00   0.000000e+00   0.000000e+00
  -2.067744e-01  -2.887566e-02   0.000000e+00
   6.483295e-04  -1.328450e-02   0.000000e+00
  -9.251910e-02   2.553290e-02   0.000000e+00
   3.170596e-02   7.303513e-02   0.000000e+00
   2.140799e-02  -4.594612e-02   0.000000e+00
   0.000000e+00   0.000000e+00   0.000000e+00
  -6.028979e-04  -1.468521e-02   0.000000e+00
  -1.736989e-02  -1.961237e-02   0.000000e+00
  -5.666008e-02  -1.709953e-02   0.000000e+00
  -1.624842e-03  -4.767206e-02   0.000000e+00
   0.000000e+00   0.000000e+00   0.000000e+00
   0.000000e+00   0.000000e+00   0.000000e+00
  -6.238684e-03   5.472802e-02   0.000000e+00
  -1.008390e-01  -8.813517e-02   0.000000e+00
  -5.174773e-02  -6.032446e-02   0.000000e+00
   0.000000e+00   0.000000e+00   0.000000e+00
   3.618903e-03   1.146426e-02   0.000000e+00
  -3.519913e-02   2.483905e-02   0.000000e+00
  -1.041324e-01   1.914646e-02   0.000000e+00
   1.777095e-02   7.690811e-03   0.000000e+00
   1.278968e-01   8.653723e-02   0.000000e+00
   0.000000e+00   0.000000e+00   0.000000e+00
  -1.974731e-01  -1.272147e-02   0.000000e+00
  -7.363261e-02   3.972622e-02   0.000000e+00
   0.000000e+00   0.000000e+00   0.000000e+00
  -7.021738e-02  -1.877346e-01   0.000000e+00
  -4.855641e-02   1.876938e-01   0.000000e+00
   7.101499e-04   5.813757e-02   0.000000e+00
  -1.538924e-02  -1.891570e-03   0.000000e+00
   4.435896e-02   6.278439e-02   0.000000e+00
  -1.213509e-01  -3.241680e-02   0.000000e+00
  -9.000597e-02  -9.795881e-02   0.000000e+00
   6.349916e-02  -9.326051e-02   0.000000e+00
