# vtk DataFile Version 2.0
Induction_Arrow_Iter7_PE2
ASCII
DATASET UNSTRUCTURED_GRID
POINTS 46 float
  -2.052000e+03    1.667000e+03   -4.526633e+02
  -1.265000e+03    2.333000e+03   -4.555885e+02
  -9.840000e+02    2.568000e+03   -4.612271e+02
   1.700000e+03   -1.757000e+03   -5.237752e+02
  -1.152000e+03    1.382000e+03   -4.549280e+02
   3.187000e+03    1.067000e+03   -8.370176e+02
   4.716000e+03    9.370000e+02   -8.015281e+02
  -1.855000e+03    5.260000e+02   -5.147377e+02
  -1.420000e+02   -1.905000e+03   -4.746368e+02
  -5.800000e+01    1.069000e+03   -4.555494e+02
  -2.802000e+03    3.302000e+03   -4.314337e+02
  -5.640000e+03   -1.532000e+03   -4.911771e+02
  -8.030000e+02   -5.610000e+02   -5.280929e+02
   1.008000e+03    4.130000e+02   -5.983358e+02
   1.960000e+02    2.246000e+03   -5.219413e+02
  -3.457000e+03    8.320000e+02   -4.470735e+02
   5.640000e+03    2.452000e+03   -7.393049e+02
  -1.334000e+03    3.332000e+03   -4.456136e+02
   1.244000e+03    1.880000e+03   -6.331107e+02
  -2.680000e+02    2.144000e+03   -4.891390e+02
  -4.063000e+03    6.620000e+02   -4.746103e+02
  -1.258000e+03    6.330000e+02   -4.856841e+02
  -2.141000e+03    3.194000e+03   -4.348461e+02
  -3.469000e+03   -3.059000e+03   -6.067613e+02
  -1.604000e+03   -2.570000e+02   -5.141257e+02
  -1.454000e+03    2.220000e+02   -5.386025e+02
   1.864000e+03    1.270000e+02   -7.404291e+02
   2.449000e+03    5.590000e+02   -7.805292e+02
  -1.834000e+03   -1.554000e+03   -6.273074e+02
   1.807000e+03    2.297000e+03   -6.825557e+02
  -2.560000e+03   -1.783000e+03   -6.131337e+02
  -2.741000e+03   -5.010000e+02   -5.080000e+02
   2.884000e+03   -2.179000e+03   -5.274708e+02
  -6.120000e+02   -8.960000e+02   -5.895389e+02
  -1.985000e+03   -2.653000e+03   -5.598834e+02
  -3.390000e+03   -4.000000e+02   -4.982361e+02
   1.586000e+03    1.342000e+03   -6.618442e+02
   1.047000e+03    2.401000e+03   -5.426792e+02
   8.380000e+02   -1.300000e+03   -4.783644e+02
   2.569000e+03    2.441000e+03   -6.035668e+02
  -2.028000e+03    2.833000e+03   -4.322286e+02
  -1.086000e+03    1.998000e+03   -4.563301e+02
   1.514000e+03   -3.332000e+03   -5.646205e+02
   7.040000e+02    1.116000e+03   -5.365099e+02
   1.990000e+03    6.360000e+02   -7.085272e+02
   3.722000e+03   -1.700000e+02   -6.745213e+02
CELLS 46 92
1 0
1 1
1 2
1 3
1 4
1 5
1 6
1 7
1 8
1 9
1 10
1 11
1 12
1 13
1 14
1 15
1 16
1 17
1 18
1 19
1 20
1 21
1 22
1 23
1 24
1 25
1 26
1 27
1 28
1 29
1 30
1 31
1 32
1 33
1 34
1 35
1 36
1 37
1 38
1 39
1 40
1 41
1 42
1 43
1 44
1 45
CELL_TYPES 46
1
1
1
1
1
1
1
1
1
1
1
1
1
1
1
1
1
1
1
1
1
1
1
1
1
1
1
1
1
1
1
1
1
1
1
1
1
1
1
1
1
1
1
1
1
1
POINT_DATA 46
VECTORS Real_Arrow_3.981000e-01(Hz) float
   0.000000e+00   0.000000e+00   0.000000e+00
   0.000000e+00   0.000000e+00   0.000000e+00
   0.000000e+00   0.000000e+00   0.000000e+00
   5.407133e-03  -3.738796e-01   0.000000e+00
   0.000000e+00   0.000000e+00   0.000000e+00
   0.000000e+00   0.000000e+00   0.000000e+00
   0.000000e+00   0.000000e+00   0.000000e+00
   0.000000e+00   0.000000e+00   0.000000e+00
   0.000000e+00   0.000000e+00   0.000000e+00
  -1.193547e-01  -1.142564e-01   0.000000e+00
  -1.935428e-01   1.672574e-02   0.000000e+00
   0.000000e+00   0.000000e+00   0.000000e+00
   0.000000e+00   0.000000e+00   0.000000e+00
   0.000000e+00   0.000000e+00   0.000000e+00
   0.000000e+00   0.000000e+00   0.000000e+00
   0.000000e+00   0.000000e+00   0.000000e+00
   6.134231e-02  -9.260272e-02   0.000000e+00
   0.000000e+00   0.000000e+00   0.000000e+00
   0.000000e+00   0.000000e+00   0.000000e+00
   0.000000e+00   0.000000e+00   0.000000e+00
   0.000000e+00   0.000000e+00   0.000000e+00
   0.000000e+00   0.000000e+00   0.000000e+00
   0.000000e+00   0.000000e+00   0.000000e+00
   0.000000e+00   0.000000e+00   0.000000e+00
   0.000000e+00   0.000000e+00   0.000000e+00
   0.000000e+00   0.000000e+00   0.000000e+00
  -2.500960e-02  -1.863724e-01   0.000000e+00
   4.826024e-03  -1.529350e-01   0.000000e+00
   0.000000e+00   0.000000e+00   0.000000e+00
  -1.582554e-02  -1.003025e-01   0.000000e+00
   0.000000e+00   0.000000e+00   0.000000e+00
   0.000000e+00   0.000000e+00   0.000000e+00
   0.000000e+00   0.000000e+00   0.000000e+00
   7.213874e-03  -9.661427e-02   0.000000e+00
   0.000000e+00   0.000000e+00   0.000000e+00
   0.000000e+00   0.000000e+00   0.000000e+00
   0.000000e+00   0.000000e+00   0.000000e+00
   0.000000e+00   0.000000e+00   0.000000e+00
  -7.721177e-02  -3.043257e-01   0.000000e+00
  -6.682582e-02   1.122373e-01   0.000000e+00
  -1.298274e-01  -3.282993e-02   0.000000e+00
   0.000000e+00   0.000000e+00   0.000000e+00
   0.000000e+00   0.000000e+00   0.000000e+00
   0.000000e+00   0.000000e+00   0.000000e+00
   0.000000e+00   0.000000e+00   0.000000e+00
   0.000000e+00   0.000000e+00   0.000000e+00
VECTORS Imag_Arrow_3.981000e-01(Hz) float
   0.000000e+00   0.000000e+00   0.000000e+00
   0.000000e+00   0.000000e+00   0.000000e+00
   0.000000e+00   0.000000e+00   0.000000e+00
   6.561355e-02   6.301900e-02   0.000000e+00
   0.000000e+00   0.000000e+00   0.000000e+00
   0.000000e+00   0.000000e+00   0.000000e+00
   0.000000e+00   0.000000e+00   0.000000e+00
   0.000000e+00   0.000000e+00   0.000000e+00
   0.000000e+00   0.000000e+00   0.000000e+00
   9.155838e-02  -1.476758e-02   0.000000e+00
   7.352811e-02  -5.006497e-02   0.000000e+00
   0.000000e+00   0.000000e+00   0.000000e+00
   0.000000e+00   0.000000e+00   0.000000e+00
   0.000000e+00   0.000000e+00   0.000000e+00
   0.000000e+00   0.000000e+00   0.000000e+00
   0.000000e+00   0.000000e+00   0.000000e+00
   9.339448e-02  -1.675717e-02   0.000000e+00
   0.000000e+00   0.000000e+00   0.000000e+00
   0.000000e+00   0.000000e+00   0.000000e+00
   0.000000e+00   0.000000e+00   0.000000e+00
   0.000000e+00   0.000000e+00   0.000000e+00
   0.000000e+00   0.000000e+00   0.000000e+00
   0.000000e+00   0.000000e+00   0.000000e+00
   0.000000e+00   0.000000e+00   0.000000e+00
   0.000000e+00   0.000000e+00   0.000000e+00
   0.000000e+00   0.000000e+00   0.000000e+00
   8.965032e-02   4.186921e-03   0.000000e+00
   8.103755e-02  -8.627359e-03   0.000000e+00
   0.000000e+00   0.000000e+00   0.000000e+00
   7.368871e-02  -8.095052e-03   0.000000e+00
   0.000000e+00   0.000000e+00   0.000000e+00
   0.000000e+00   0.000000e+00   0.000000e+00
   0.000000e+00   0.000000e+00   0.000000e+00
   1.340460e-02  -3.098965e-02   0.000000e+00
   0.000000e+00   0.000000e+00   0.000000e+00
   0.000000e+00   0.000000e+00   0.000000e+00
   0.000000e+00   0.000000e+00   0.000000e+00
   0.000000e+00   0.000000e+00   0.000000e+00
   1.035396e-01   4.671142e-02   0.000000e+00
   9.239799e-02  -8.807146e-02   0.000000e+00
   5.628110e-02  -3.332560e-02   0.000000e+00
   0.000000e+00   0.000000e+00   0.000000e+00
   0.000000e+00   0.000000e+00   0.000000e+00
   0.000000e+00   0.000000e+00   0.000000e+00
   0.000000e+00   0.000000e+00   0.000000e+00
   0.000000e+00   0.000000e+00   0.000000e+00
VECTORS Real_Arrow_6.309500e-01(Hz) float
   0.000000e+00   0.000000e+00   0.000000e+00
  -1.810048e-01  -2.174370e-03   0.000000e+00
   0.000000e+00   0.000000e+00   0.000000e+00
  -1.712649e-02  -3.949629e-01   0.000000e+00
  -1.611803e-01  -9.271933e-02   0.000000e+00
   0.000000e+00   0.000000e+00   0.000000e+00
   9.804928e-02  -1.535852e-01   0.000000e+00
   0.000000e+00   0.000000e+00   0.000000e+00
   0.000000e+00   0.000000e+00   0.000000e+00
  -1.502997e-01  -1.093148e-01   0.000000e+00
  -2.167751e-01   3.504271e-02   0.000000e+00
   0.000000e+00   0.000000e+00   0.000000e+00
   0.000000e+00   0.000000e+00   0.000000e+00
  -1.600759e-01  -1.427490e-01   0.000000e+00
  -1.189051e-01  -2.865636e-02   0.000000e+00
   0.000000e+00   0.000000e+00   0.000000e+00
   3.389492e-02  -8.447590e-02   0.000000e+00
   0.000000e+00   0.000000e+00   0.000000e+00
   0.000000e+00   0.000000e+00   0.000000e+00
   0.000000e+00   0.000000e+00   0.000000e+00
   0.000000e+00   0.000000e+00   0.000000e+00
   0.000000e+00   0.000000e+00   0.000000e+00
  -1.665013e-01   1.859631e-02   0.000000e+00
   0.000000e+00   0.000000e+00   0.000000e+00
   0.000000e+00   0.000000e+00   0.000000e+00
   0.000000e+00   0.000000e+00   0.000000e+00
  -5.471760e-02  -1.895548e-01   0.000000e+00
  -2.185095e-02  -1.521260e-01   0.000000e+00
   0.000000e+00   0.000000e+00   0.000000e+00
  -4.184801e-02  -9.647583e-02   0.000000e+00
  -9.110320e-02  -6.766915e-02   0.000000e+00
  -1.787440e-01  -6.850132e-02   0.000000e+00
   0.000000e+00   0.000000e+00   0.000000e+00
   5.082285e-04  -9.087208e-02   0.000000e+00
   0.000000e+00   0.000000e+00   0.000000e+00
   0.000000e+00   0.000000e+00   0.000000e+00
  -1.200935e-01  -3.760915e-02   0.000000e+00
   0.000000e+00   0.000000e+00   0.000000e+00
   0.000000e+00   0.000000e+00   0.000000e+00
  -9.719017e-02   1.411447e-01   0.000000e+00
  -1.478906e-01  -1.913405e-02   0.000000e+00
  -1.545618e-01  -4.032325e-02   0.000000e+00
   0.000000e+00   0.000000e+00   0.000000e+00
  -1.544039e-01  -1.084109e-01   0.000000e+00
   0.000000e+00   0.000000e+00   0.000000e+00
   0.000000e+00   0.000000e+00   0.000000e+00
VECTORS Imag_Arrow_6.309500e-01(Hz) float
   0.000000e+00   0.000000e+00   0.000000e+00
   6.125654e-02  -5.400469e-02   0.000000e+00
   0.000000e+00   0.000000e+00   0.000000e+00
   5.128013e-02   6.435961e-02   0.000000e+00
   6.174857e-02  -1.366108e-02   0.000000e+00
   0.000000e+00   0.000000e+00   0.000000e+00
   4.404595e-02  -2.416995e-03   0.000000e+00
   0.000000e+00   0.000000e+00   0.000000e+00
   0.000000e+00   0.000000e+00   0.000000e+00
   7.421055e-02  -1.852945e-02   0.000000e+00
   5.206851e-02  -5.212849e-02   0.000000e+00
   0.000000e+00   0.000000e+00   0.000000e+00
   0.000000e+00   0.000000e+00   0.000000e+00
   1.179335e-01  -1.748216e-02   0.000000e+00
   5.344513e-02  -4.416176e-02   0.000000e+00
   0.000000e+00   0.000000e+00   0.000000e+00
   7.949144e-02  -1.593428e-02   0.000000e+00
   0.000000e+00   0.000000e+00   0.000000e+00
   0.000000e+00   0.000000e+00   0.000000e+00
   0.000000e+00   0.000000e+00   0.000000e+00
   0.000000e+00   0.000000e+00   0.000000e+00
   0.000000e+00   0.000000e+00   0.000000e+00
   3.798304e-02  -5.151534e-02   0.000000e+00
   0.000000e+00   0.000000e+00   0.000000e+00
   0.000000e+00   0.000000e+00   0.000000e+00
   0.000000e+00   0.000000e+00   0.000000e+00
   7.832190e-02  -1.880877e-03   0.000000e+00
   6.905967e-02  -1.672189e-02   0.000000e+00
   0.000000e+00   0.000000e+00   0.000000e+00
   5.861219e-02  -8.793701e-03   0.000000e+00
   3.623118e-02  -1.199435e-02   0.000000e+00
   7.161448e-02  -1.096565e-02   0.000000e+00
   0.000000e+00   0.000000e+00   0.000000e+00
  -3.696277e-03  -4.453067e-02   0.000000e+00
   0.000000e+00   0.000000e+00   0.000000e+00
   0.000000e+00   0.000000e+00   0.000000e+00
   9.102895e-02  -5.761615e-02   0.000000e+00
   0.000000e+00   0.000000e+00   0.000000e+00
   0.000000e+00   0.000000e+00   0.000000e+00
   7.280569e-02  -1.049647e-01   0.000000e+00
   3.586115e-02  -3.365637e-02   0.000000e+00
   5.414257e-02  -3.774871e-02   0.000000e+00
   0.000000e+00   0.000000e+00   0.000000e+00
   9.688248e-02  -1.898904e-02   0.000000e+00
   0.000000e+00   0.000000e+00   0.000000e+00
   0.000000e+00   0.000000e+00   0.000000e+00
VECTORS Real_Arrow_1.000000e+00(Hz) float
  -1.602648e-01  -7.070057e-02   0.000000e+00
  -2.002529e-01   1.627618e-02   0.000000e+00
   0.000000e+00   0.000000e+00   0.000000e+00
  -3.344327e-02  -4.198904e-01   0.000000e+00
  -1.811506e-01  -8.661369e-02   0.000000e+00
   0.000000e+00   0.000000e+00   0.000000e+00
   8.776347e-02  -1.531661e-01   0.000000e+00
  -1.915201e-01  -3.019832e-02   0.000000e+00
   0.000000e+00   0.000000e+00   0.000000e+00
  -1.750578e-01  -1.031339e-01   0.000000e+00
  -2.318370e-01   5.544692e-02   0.000000e+00
  -2.815159e-01  -9.224272e-02   0.000000e+00
   0.000000e+00   0.000000e+00   0.000000e+00
  -1.974390e-01  -1.401850e-01   0.000000e+00
   0.000000e+00   0.000000e+00   0.000000e+00
   0.000000e+00   0.000000e+00   0.000000e+00
   1.561287e-02  -7.638854e-02   0.000000e+00
   0.000000e+00   0.000000e+00   0.000000e+00
   0.000000e+00   0.000000e+00   0.000000e+00
   0.000000e+00   0.000000e+00   0.000000e+00
   0.000000e+00   0.000000e+00   0.000000e+00
   0.000000e+00   0.000000e+00   0.000000e+00
  -1.769587e-01   3.840331e-02   0.000000e+00
   0.000000e+00   0.000000e+00   0.000000e+00
   0.000000e+00   0.000000e+00   0.000000e+00
   0.000000e+00   0.000000e+00   0.000000e+00
  -7.890598e-02  -1.924034e-01   0.000000e+00
  -4.228637e-02  -1.498186e-01   0.000000e+00
   0.000000e+00   0.000000e+00   0.000000e+00
  -6.228874e-02  -9.299658e-02   0.000000e+00
  -1.050122e-01  -6.615177e-02   0.000000e+00
  -2.023260e-01  -6.752066e-02   0.000000e+00
   0.000000e+00   0.000000e+00   0.000000e+00
  -1.545388e-03  -8.129038e-02   0.000000e+00
   0.000000e+00   0.000000e+00   0.000000e+00
   0.000000e+00   0.000000e+00   0.000000e+00
  -1.490606e-01  -2.194369e-02   0.000000e+00
   0.000000e+00   0.000000e+00   0.000000e+00
  -1.399055e-01  -3.385625e-01   0.000000e+00
  -1.200414e-01   1.829231e-01   0.000000e+00
  -1.579530e-01  -4.033504e-03   0.000000e+00
  -1.722372e-01  -2.646639e-02   0.000000e+00
   0.000000e+00   0.000000e+00   0.000000e+00
  -1.863515e-01  -1.019775e-01   0.000000e+00
   0.000000e+00   0.000000e+00   0.000000e+00
   0.000000e+00   0.000000e+00   0.000000e+00
VECTORS Imag_Arrow_1.000000e+00(Hz) float
   2.100463e-02  -1.032728e-02   0.000000e+00
   3.597583e-02  -5.998330e-02   0.000000e+00
   0.000000e+00   0.000000e+00   0.000000e+00
   3.254161e-02   6.333076e-02   0.000000e+00
   3.973423e-02  -1.190542e-02   0.000000e+00
   0.000000e+00   0.000000e+00   0.000000e+00
   2.925378e-02  -5.227568e-03   0.000000e+00
   3.726032e-02  -5.171319e-02   0.000000e+00
   0.000000e+00   0.000000e+00   0.000000e+00
   5.152157e-02  -2.231317e-02   0.000000e+00
   2.648323e-02  -5.067340e-02   0.000000e+00
   4.321078e-02  -7.684474e-03   0.000000e+00
   0.000000e+00   0.000000e+00   0.000000e+00
   1.050131e-01  -2.749844e-02   0.000000e+00
   0.000000e+00   0.000000e+00   0.000000e+00
   0.000000e+00   0.000000e+00   0.000000e+00
   6.640148e-02  -1.190481e-02   0.000000e+00
   0.000000e+00   0.000000e+00   0.000000e+00
   0.000000e+00   0.000000e+00   0.000000e+00
   0.000000e+00   0.000000e+00   0.000000e+00
   0.000000e+00   0.000000e+00   0.000000e+00
   0.000000e+00   0.000000e+00   0.000000e+00
   1.202113e-02  -5.205238e-02   0.000000e+00
   0.000000e+00   0.000000e+00   0.000000e+00
   0.000000e+00   0.000000e+00   0.000000e+00
   0.000000e+00   0.000000e+00   0.000000e+00
   6.345631e-02  -1.090985e-02   0.000000e+00
   5.396395e-02  -2.794051e-02   0.000000e+00
   0.000000e+00   0.000000e+00   0.000000e+00
   3.792095e-02  -7.758518e-03   0.000000e+00
   2.732819e-02  -1.635321e-02   0.000000e+00
   6.327104e-02  -1.262708e-02   0.000000e+00
   0.000000e+00   0.000000e+00   0.000000e+00
  -2.680476e-02  -6.399806e-02   0.000000e+00
   0.000000e+00   0.000000e+00   0.000000e+00
   0.000000e+00   0.000000e+00   0.000000e+00
   7.273641e-02  -7.526220e-02   0.000000e+00
   0.000000e+00   0.000000e+00   0.000000e+00
   8.223814e-02   5.132655e-02   0.000000e+00
   4.913743e-02  -1.222401e-01   0.000000e+00
   1.143164e-02  -2.980035e-02   0.000000e+00
   2.913049e-02  -4.048553e-02   0.000000e+00
   0.000000e+00   0.000000e+00   0.000000e+00
   7.719810e-02  -2.328506e-02   0.000000e+00
   0.000000e+00   0.000000e+00   0.000000e+00
   0.000000e+00   0.000000e+00   0.000000e+00
