# vtk DataFile Version 2.0
Induction_Arrow_Iter3_PE6
ASCII
DATASET UNSTRUCTURED_GRID
POINTS 46 float
  -2.052000e+03    1.667000e+03   -4.526633e+02
  -1.265000e+03    2.333000e+03   -4.555885e+02
  -9.840000e+02    2.568000e+03   -4.612271e+02
   1.700000e+03   -1.757000e+03   -5.237752e+02
  -1.152000e+03    1.382000e+03   -4.549280e+02
   3.187000e+03    1.067000e+03   -8.370176e+02
   4.716000e+03    9.370000e+02   -8.015281e+02
  -1.855000e+03    5.260000e+02   -5.147377e+02
  -1.420000e+02   -1.905000e+03   -4.746368e+02
  -5.800000e+01    1.069000e+03   -4.555494e+02
  -2.802000e+03    3.302000e+03   -4.314337e+02
  -5.640000e+03   -1.532000e+03   -4.911771e+02
  -8.030000e+02   -5.610000e+02   -5.280929e+02
   1.008000e+03    4.130000e+02   -5.983358e+02
   1.960000e+02    2.246000e+03   -5.219413e+02
  -3.457000e+03    8.320000e+02   -4.470735e+02
   5.640000e+03    2.452000e+03   -7.393049e+02
  -1.334000e+03    3.332000e+03   -4.456136e+02
   1.244000e+03    1.880000e+03   -6.331107e+02
  -2.680000e+02    2.144000e+03   -4.891390e+02
  -4.063000e+03    6.620000e+02   -4.746103e+02
  -1.258000e+03    6.330000e+02   -4.856841e+02
  -2.141000e+03    3.194000e+03   -4.348461e+02
  -3.469000e+03   -3.059000e+03   -6.067613e+02
  -1.604000e+03   -2.570000e+02   -5.141257e+02
  -1.454000e+03    2.220000e+02   -5.386025e+02
   1.864000e+03    1.270000e+02   -7.404291e+02
   2.449000e+03    5.590000e+02   -7.805292e+02
  -1.834000e+03   -1.554000e+03   -6.273074e+02
   1.807000e+03    2.297000e+03   -6.825557e+02
  -2.560000e+03   -1.783000e+03   -6.131337e+02
  -2.741000e+03   -5.010000e+02   -5.080000e+02
   2.884000e+03   -2.179000e+03   -5.274708e+02
  -6.120000e+02   -8.960000e+02   -5.895389e+02
  -1.985000e+03   -2.653000e+03   -5.598834e+02
  -3.390000e+03   -4.000000e+02   -4.982361e+02
   1.586000e+03    1.342000e+03   -6.618442e+02
   1.047000e+03    2.401000e+03   -5.426792e+02
   8.380000e+02   -1.300000e+03   -4.783644e+02
   2.569000e+03    2.441000e+03   -6.035668e+02
  -2.028000e+03    2.833000e+03   -4.322286e+02
  -1.086000e+03    1.998000e+03   -4.563301e+02
   1.514000e+03   -3.332000e+03   -5.646205e+02
   7.040000e+02    1.116000e+03   -5.365099e+02
   1.990000e+03    6.360000e+02   -7.085272e+02
   3.722000e+03   -1.700000e+02   -6.745213e+02
CELLS 46 92
1 0
1 1
1 2
1 3
1 4
1 5
1 6
1 7
1 8
1 9
1 10
1 11
1 12
1 13
1 14
1 15
1 16
1 17
1 18
1 19
1 20
1 21
1 22
1 23
1 24
1 25
1 26
1 27
1 28
1 29
1 30
1 31
1 32
1 33
1 34
1 35
1 36
1 37
1 38
1 39
1 40
1 41
1 42
1 43
1 44
1 45
CELL_TYPES 46
1
1
1
1
1
1
1
1
1
1
1
1
1
1
1
1
1
1
1
1
1
1
1
1
1
1
1
1
1
1
1
1
1
1
1
1
1
1
1
1
1
1
1
1
1
1
POINT_DATA 46
VECTORS Real_Arrow_1.000000e+02(Hz) float
  -5.839623e-02  -8.892522e-02   0.000000e+00
  -1.572117e-01   2.018177e-01   0.000000e+00
  -8.572886e-02   1.330531e-01   0.000000e+00
   4.774060e-02  -1.837201e-01   0.000000e+00
  -1.244842e-02  -1.143645e-01   0.000000e+00
   2.835382e-02   7.332382e-03   0.000000e+00
   5.678596e-02  -2.468786e-02   0.000000e+00
  -6.788303e-02   5.688459e-02   0.000000e+00
   0.000000e+00   0.000000e+00   0.000000e+00
   9.254075e-02  -1.716391e-02   0.000000e+00
  -5.324609e-02   5.959040e-03   0.000000e+00
  -5.789145e-02   8.133569e-03   0.000000e+00
   0.000000e+00   0.000000e+00   0.000000e+00
   4.880732e-02   1.106704e-01   0.000000e+00
   5.647803e-02   4.077527e-02   0.000000e+00
   1.447183e-01   1.260950e-02   0.000000e+00
  -1.501263e-01  -2.763264e-01   0.000000e+00
   1.402641e-02   8.322653e-02   0.000000e+00
   0.000000e+00   0.000000e+00   0.000000e+00
   9.428114e-02   3.645761e-02   0.000000e+00
  -9.975989e-02   3.886294e-02   0.000000e+00
   8.330443e-03  -5.523985e-02   0.000000e+00
  -6.175834e-02   9.531377e-02   0.000000e+00
   3.700912e-02  -1.348714e-01   0.000000e+00
   0.000000e+00   0.000000e+00   0.000000e+00
  -5.245934e-03  -7.443110e-02   0.000000e+00
   5.691889e-02   1.093444e-01   0.000000e+00
   4.320144e-02   1.248087e-01   0.000000e+00
   3.555367e-02   9.291086e-03   0.000000e+00
   9.808304e-02  -1.276005e-01   0.000000e+00
   4.149275e-02  -3.444742e-02   0.000000e+00
  -2.107672e-02  -2.409071e-02   0.000000e+00
   7.708692e-02   7.779033e-02   0.000000e+00
   1.071388e-01   1.758497e-01   0.000000e+00
   6.429525e-02  -1.576079e-01   0.000000e+00
   8.574911e-02  -1.930122e-01   0.000000e+00
   5.342195e-02   2.709142e-01   0.000000e+00
   0.000000e+00   0.000000e+00   0.000000e+00
  -1.025265e-01  -4.560717e-02   0.000000e+00
   7.182543e-02  -8.432922e-02   0.000000e+00
   0.000000e+00   0.000000e+00   0.000000e+00
  -2.017332e-02   1.105069e-02   0.000000e+00
  -1.536015e-01  -6.409528e-02   0.000000e+00
   6.867164e-02  -3.429016e-02   0.000000e+00
   6.242700e-03   3.317285e-01   0.000000e+00
   1.616826e-02   7.903664e-02   0.000000e+00
VECTORS Imag_Arrow_1.000000e+02(Hz) float
  -1.335268e-03  -5.057485e-02   0.000000e+00
   1.003105e-02  -3.440040e-02   0.000000e+00
   2.411088e-02  -9.868009e-03   0.000000e+00
  -1.432308e-02  -1.394093e-01   0.000000e+00
  -4.701618e-02  -5.127990e-02   0.000000e+00
  -3.127364e-02   2.129183e-02   0.000000e+00
   3.224581e-02  -8.426575e-02   0.000000e+00
  -3.036275e-02   2.444775e-02   0.000000e+00
   0.000000e+00   0.000000e+00   0.000000e+00
  -1.525671e-02  -3.602624e-02   0.000000e+00
  -4.335320e-02   2.635944e-02   0.000000e+00
  -1.445955e-02   9.037874e-03   0.000000e+00
   0.000000e+00   0.000000e+00   0.000000e+00
  -1.776642e-01   1.200186e-03   0.000000e+00
   1.536083e-02  -8.943596e-03   0.000000e+00
  -5.679863e-02   3.433296e-02   0.000000e+00
   2.477627e-02   4.555348e-02   0.000000e+00
   3.235573e-02  -4.764031e-02   0.000000e+00
   0.000000e+00   0.000000e+00   0.000000e+00
   1.077309e-02  -8.795622e-03   0.000000e+00
  -1.865311e-02  -1.792620e-02   0.000000e+00
  -2.128274e-02  -1.727026e-02   0.000000e+00
   8.097464e-03  -4.409615e-02   0.000000e+00
  -6.604921e-02   5.851365e-03   0.000000e+00
   0.000000e+00   0.000000e+00   0.000000e+00
   5.529646e-03   2.432013e-02   0.000000e+00
  -8.928032e-02  -6.379650e-02   0.000000e+00
  -3.551880e-02  -4.236850e-02   0.000000e+00
  -2.526622e-02   1.402440e-02   0.000000e+00
   1.943085e-02  -8.965691e-03   0.000000e+00
  -2.403751e-02   2.095791e-02   0.000000e+00
  -8.869587e-02   6.181803e-03   0.000000e+00
   9.695197e-03   1.305262e-02   0.000000e+00
   1.292177e-01   1.291511e-01   0.000000e+00
   2.382997e-02  -6.272647e-02   0.000000e+00
  -1.443678e-01  -2.817421e-02   0.000000e+00
  -3.524812e-02   9.148985e-02   0.000000e+00
   0.000000e+00   0.000000e+00   0.000000e+00
  -7.983225e-02  -1.423787e-01   0.000000e+00
  -4.413535e-02   1.515537e-01   0.000000e+00
   0.000000e+00   0.000000e+00   0.000000e+00
  -2.615331e-02   7.706724e-03   0.000000e+00
   1.694451e-02   4.797917e-02   0.000000e+00
  -9.239537e-02  -3.531297e-02   0.000000e+00
  -8.174228e-02  -5.435764e-02   0.000000e+00
   5.596601e-02  -7.549659e-02   0.000000e+00
VECTORS Real_Arrow_1.584800e+02(Hz) float
  -5.537612e-02  -6.758138e-02   0.000000e+00
  -1.559468e-01   2.085429e-01   0.000000e+00
  -9.383950e-02   1.297247e-01   0.000000e+00
   5.210560e-02  -1.477392e-01   0.000000e+00
   4.568085e-03  -9.099755e-02   0.000000e+00
   3.470364e-02  -5.006288e-03   0.000000e+00
   4.178921e-02   9.232332e-03   0.000000e+00
  -5.072263e-02   5.430957e-02   0.000000e+00
   0.000000e+00   0.000000e+00   0.000000e+00
   7.762332e-02  -4.279338e-03   0.000000e+00
  -4.586832e-02  -2.478963e-03   0.000000e+00
  -6.017138e-02   6.926721e-03   0.000000e+00
   0.000000e+00   0.000000e+00   0.000000e+00
   1.010453e-01   9.641275e-02   0.000000e+00
   4.462024e-02   4.196479e-02   0.000000e+00
   1.498804e-01  -3.921511e-03   0.000000e+00
  -1.573016e-01  -2.859953e-01   0.000000e+00
  -2.658323e-03   1.067370e-01   0.000000e+00
   0.000000e+00   0.000000e+00   0.000000e+00
   8.070112e-02   3.643546e-02   0.000000e+00
  -9.379753e-02   4.247531e-02   0.000000e+00
   5.668503e-04  -4.605345e-02   0.000000e+00
  -6.990807e-02   1.119715e-01   0.000000e+00
   5.631335e-02  -1.396928e-01   0.000000e+00
   0.000000e+00   0.000000e+00   0.000000e+00
  -1.330039e-02  -7.235193e-02   0.000000e+00
   8.156241e-02   1.264294e-01   0.000000e+00
   4.962291e-02   1.328841e-01   0.000000e+00
   4.332041e-02   9.714057e-03   0.000000e+00
   7.780406e-02  -1.112441e-01   0.000000e+00
   4.326171e-02  -3.982308e-02   0.000000e+00
   9.547152e-03  -2.356692e-02   0.000000e+00
   7.654564e-02   7.235878e-02   0.000000e+00
   5.696957e-02   1.133450e-01   0.000000e+00
   5.082592e-02  -1.243942e-01   0.000000e+00
   1.144269e-01  -1.791849e-01   0.000000e+00
   4.663228e-02   2.098274e-01   0.000000e+00
   0.000000e+00   0.000000e+00   0.000000e+00
  -7.447429e-02  -1.497227e-02   0.000000e+00
   8.411215e-02  -1.213893e-01   0.000000e+00
   0.000000e+00   0.000000e+00   0.000000e+00
  -5.407855e-03   4.375711e-03   0.000000e+00
  -1.544209e-01  -7.991789e-02   0.000000e+00
   8.609300e-02  -2.323513e-02   0.000000e+00
   2.904084e-02   3.398575e-01   0.000000e+00
  -4.194851e-03   9.882404e-02   0.000000e+00
VECTORS Imag_Arrow_1.584800e+02(Hz) float
  -1.046981e-02  -5.105941e-02   0.000000e+00
  -1.918873e-02  -3.577819e-04   0.000000e+00
   1.312374e-02   1.025995e-02   0.000000e+00
  -1.909367e-02  -1.263883e-01   0.000000e+00
  -4.567501e-02  -6.228366e-02   0.000000e+00
  -1.854700e-02   2.268147e-02   0.000000e+00
   3.210802e-02  -7.105472e-02   0.000000e+00
  -5.499372e-02   3.382552e-02   0.000000e+00
   0.000000e+00   0.000000e+00   0.000000e+00
   1.441209e-02  -3.225276e-02   0.000000e+00
  -3.167492e-02   3.101166e-02   0.000000e+00
  -8.826142e-03  -2.438547e-05   0.000000e+00
   0.000000e+00   0.000000e+00   0.000000e+00
  -1.462525e-01   2.004212e-02   0.000000e+00
   2.164186e-02  -2.017831e-03   0.000000e+00
  -2.964088e-02   3.336070e-02   0.000000e+00
   1.812763e-02   1.719836e-02   0.000000e+00
   3.826463e-02  -4.520657e-02   0.000000e+00
   0.000000e+00   0.000000e+00   0.000000e+00
   1.052268e-02  -4.278745e-03   0.000000e+00
  -1.698162e-02  -1.409629e-02   0.000000e+00
   6.140276e-03  -7.394440e-03   0.000000e+00
   1.772783e-02  -3.109673e-02   0.000000e+00
  -5.798139e-02  -3.304920e-03   0.000000e+00
   0.000000e+00   0.000000e+00   0.000000e+00
   1.127172e-02  -4.997805e-03   0.000000e+00
  -8.088567e-02  -3.822548e-02   0.000000e+00
  -2.095592e-02  -2.685171e-02   0.000000e+00
  -1.458305e-02   2.641974e-02   0.000000e+00
   2.053688e-02  -1.734308e-02   0.000000e+00
  -9.740790e-03   2.107026e-02   0.000000e+00
  -7.092673e-02  -5.256597e-03   0.000000e+00
   3.741234e-03   1.517684e-02   0.000000e+00
   1.197522e-01   1.473278e-01   0.000000e+00
   3.814467e-02  -7.977994e-02   0.000000e+00
  -9.472169e-02  -3.733005e-02   0.000000e+00
  -1.098884e-02   1.056714e-01   0.000000e+00
   0.000000e+00   0.000000e+00   0.000000e+00
  -8.699692e-02  -1.079117e-01   0.000000e+00
  -4.676989e-02   1.052022e-01   0.000000e+00
   0.000000e+00   0.000000e+00   0.000000e+00
  -3.144861e-02   1.903807e-02   0.000000e+00
  -1.331981e-02   2.994362e-02   0.000000e+00
  -7.090646e-02  -4.543028e-02   0.000000e+00
  -7.640063e-02  -9.735274e-03   0.000000e+00
   3.650031e-02  -5.377546e-02   0.000000e+00
VECTORS Real_Arrow_2.511800e+02(Hz) float
  -4.773232e-02  -4.982699e-02   0.000000e+00
  -1.389157e-01   1.971528e-01   0.000000e+00
  -9.743019e-02   1.194200e-01   0.000000e+00
   6.033955e-02  -1.159923e-01   0.000000e+00
   1.984149e-02  -6.379639e-02   0.000000e+00
   3.365455e-02  -1.453722e-02   0.000000e+00
   2.829394e-02   3.200081e-02   0.000000e+00
  -2.185947e-02   4.062926e-02   0.000000e+00
   0.000000e+00   0.000000e+00   0.000000e+00
   5.782512e-02   5.878158e-03   0.000000e+00
  -4.163534e-02  -1.639635e-02   0.000000e+00
  -6.065514e-02   9.579640e-03   0.000000e+00
   4.724578e-02   2.984633e-01   0.000000e+00
   1.383329e-01   7.941186e-02   0.000000e+00
   3.389649e-02   4.015541e-02   0.000000e+00
   1.504116e-01  -1.562421e-02   0.000000e+00
  -1.641749e-01  -2.858028e-01   0.000000e+00
  -2.103893e-02   1.293601e-01   0.000000e+00
   0.000000e+00   0.000000e+00   0.000000e+00
   7.224643e-02   3.641409e-02   0.000000e+00
  -8.882206e-02   4.523669e-02   0.000000e+00
  -1.314343e-02  -4.641104e-02   0.000000e+00
  -8.257402e-02   1.194464e-01   0.000000e+00
   7.322129e-02  -1.392378e-01   0.000000e+00
   0.000000e+00   0.000000e+00   0.000000e+00
  -2.061244e-02  -5.795315e-02   0.000000e+00
   1.055093e-01   1.344307e-01   0.000000e+00
   5.078633e-02   1.362218e-01   0.000000e+00
   4.492576e-02   1.198181e-03   0.000000e+00
   6.610630e-02  -9.798063e-02   0.000000e+00
   3.871365e-02  -4.551367e-02   0.000000e+00
   3.244175e-02  -1.758398e-02   0.000000e+00
   7.678701e-02   6.757313e-02   0.000000e+00
   1.811762e-02   5.217517e-02   0.000000e+00
   0.000000e+00   0.000000e+00   0.000000e+00
   1.210763e-01  -1.622992e-01   0.000000e+00
   3.355144e-02   1.616541e-01   0.000000e+00
   0.000000e+00   0.000000e+00   0.000000e+00
  -4.216644e-02   7.346010e-03   0.000000e+00
   1.000449e-01  -1.315164e-01   0.000000e+00
  -6.956312e-02  -1.842654e-01   0.000000e+00
   1.001107e-02  -9.639012e-03   0.000000e+00
  -1.410137e-01  -8.492871e-02   0.000000e+00
   9.676137e-02  -5.278445e-03   0.000000e+00
   5.284233e-02   3.296562e-01   0.000000e+00
  -6.800814e-03   1.055544e-01   0.000000e+00
VECTORS Imag_Arrow_2.511800e+02(Hz) float
  -1.465478e-02  -4.846373e-02   0.000000e+00
  -4.191040e-02   2.910742e-02   0.000000e+00
   1.064744e-03   2.381561e-02   0.000000e+00
  -2.171107e-02  -1.192579e-01   0.000000e+00
  -3.948766e-02  -6.690666e-02   0.000000e+00
  -9.271886e-03   1.902422e-02   0.000000e+00
   2.565241e-02  -4.795264e-02   0.000000e+00
  -6.535287e-02   4.537351e-02   0.000000e+00
   0.000000e+00   0.000000e+00   0.000000e+00
   2.723752e-02  -2.613703e-02   0.000000e+00
  -2.537946e-02   3.223324e-02   0.000000e+00
  -7.394522e-03  -6.094581e-03   0.000000e+00
   4.920895e-02   2.038441e-01   0.000000e+00
  -1.150894e-01   2.871873e-02   0.000000e+00
   2.482106e-02   1.778361e-03   0.000000e+00
  -9.994855e-03   2.794179e-02   0.000000e+00
   1.011945e-02  -9.255818e-03   0.000000e+00
   3.619141e-02  -3.040049e-02   0.000000e+00
   0.000000e+00   0.000000e+00   0.000000e+00
   2.952761e-03  -3.227617e-03   0.000000e+00
  -1.520193e-02  -1.193995e-02   0.000000e+00
   1.931094e-02   3.374486e-03   0.000000e+00
   1.989173e-02  -1.636480e-02   0.000000e+00
  -4.835856e-02  -1.671446e-02   0.000000e+00
   0.000000e+00   0.000000e+00   0.000000e+00
   1.369320e-02  -2.039727e-02   0.000000e+00
  -7.412259e-02  -9.625434e-03   0.000000e+00
  -9.786131e-03  -1.306926e-02   0.000000e+00
  -2.596448e-03   4.555827e-02   0.000000e+00
   1.053073e-02  -1.188747e-02   0.000000e+00
  -8.873645e-04   2.235603e-02   0.000000e+00
  -4.473217e-02  -1.133074e-02   0.000000e+00
  -8.375798e-04   1.698236e-02   0.000000e+00
   1.031454e-01   1.455697e-01   0.000000e+00
   0.000000e+00   0.000000e+00   0.000000e+00
  -6.320132e-02  -4.141569e-02   0.000000e+00
  -3.502580e-03   8.509590e-02   0.000000e+00
   0.000000e+00   0.000000e+00   0.000000e+00
  -8.943812e-02  -8.421473e-02   0.000000e+00
  -4.687024e-02   7.223600e-02   0.000000e+00
   1.895975e-02   3.517855e-02   0.000000e+00
  -2.630202e-02   2.320923e-02   0.000000e+00
  -4.076204e-02   1.006806e-02   0.000000e+00
  -5.891604e-02  -5.387053e-02   0.000000e+00
  -7.195068e-02   3.194009e-02   0.000000e+00
   1.686441e-02  -3.347667e-02   0.000000e+00
