# vtk DataFile Version 2.0
Induction_Arrow_Iter11_PE5
ASCII
DATASET UNSTRUCTURED_GRID
POINTS 46 float
  -2.052000e+03    1.667000e+03   -4.526633e+02
  -1.265000e+03    2.333000e+03   -4.555885e+02
  -9.840000e+02    2.568000e+03   -4.612271e+02
   1.700000e+03   -1.757000e+03   -5.237752e+02
  -1.152000e+03    1.382000e+03   -4.549280e+02
   3.187000e+03    1.067000e+03   -8.370176e+02
   4.716000e+03    9.370000e+02   -8.015281e+02
  -1.855000e+03    5.260000e+02   -5.147377e+02
  -1.420000e+02   -1.905000e+03   -4.746368e+02
  -5.800000e+01    1.069000e+03   -4.555494e+02
  -2.802000e+03    3.302000e+03   -4.314337e+02
  -5.640000e+03   -1.532000e+03   -4.911771e+02
  -8.030000e+02   -5.610000e+02   -5.280929e+02
   1.008000e+03    4.130000e+02   -5.983358e+02
   1.960000e+02    2.246000e+03   -5.219413e+02
  -3.457000e+03    8.320000e+02   -4.470735e+02
   5.640000e+03    2.452000e+03   -7.393049e+02
  -1.334000e+03    3.332000e+03   -4.456136e+02
   1.244000e+03    1.880000e+03   -6.331107e+02
  -2.680000e+02    2.144000e+03   -4.891390e+02
  -4.063000e+03    6.620000e+02   -4.746103e+02
  -1.258000e+03    6.330000e+02   -4.856841e+02
  -2.141000e+03    3.194000e+03   -4.348461e+02
  -3.469000e+03   -3.059000e+03   -6.067613e+02
  -1.604000e+03   -2.570000e+02   -5.141257e+02
  -1.454000e+03    2.220000e+02   -5.386025e+02
   1.864000e+03    1.270000e+02   -7.404291e+02
   2.449000e+03    5.590000e+02   -7.805292e+02
  -1.834000e+03   -1.554000e+03   -6.273074e+02
   1.807000e+03    2.297000e+03   -6.825557e+02
  -2.560000e+03   -1.783000e+03   -6.131337e+02
  -2.741000e+03   -5.010000e+02   -5.080000e+02
   2.884000e+03   -2.179000e+03   -5.274708e+02
  -6.120000e+02   -8.960000e+02   -5.895389e+02
  -1.985000e+03   -2.653000e+03   -5.598834e+02
  -3.390000e+03   -4.000000e+02   -4.982361e+02
   1.586000e+03    1.342000e+03   -6.618442e+02
   1.047000e+03    2.401000e+03   -5.426792e+02
   8.380000e+02   -1.300000e+03   -4.783644e+02
   2.569000e+03    2.441000e+03   -6.035668e+02
  -2.028000e+03    2.833000e+03   -4.322286e+02
  -1.086000e+03    1.998000e+03   -4.563301e+02
   1.514000e+03   -3.332000e+03   -5.646205e+02
   7.040000e+02    1.116000e+03   -5.365099e+02
   1.990000e+03    6.360000e+02   -7.085272e+02
   3.722000e+03   -1.700000e+02   -6.745213e+02
CELLS 46 92
1 0
1 1
1 2
1 3
1 4
1 5
1 6
1 7
1 8
1 9
1 10
1 11
1 12
1 13
1 14
1 15
1 16
1 17
1 18
1 19
1 20
1 21
1 22
1 23
1 24
1 25
1 26
1 27
1 28
1 29
1 30
1 31
1 32
1 33
1 34
1 35
1 36
1 37
1 38
1 39
1 40
1 41
1 42
1 43
1 44
1 45
CELL_TYPES 46
1
1
1
1
1
1
1
1
1
1
1
1
1
1
1
1
1
1
1
1
1
1
1
1
1
1
1
1
1
1
1
1
1
1
1
1
1
1
1
1
1
1
1
1
1
1
POINT_DATA 46
VECTORS Real_Arrow_2.511800e+01(Hz) float
  -2.566431e-02  -1.323348e-01   0.000000e+00
  -7.457404e-02   1.074975e-01   0.000000e+00
   0.000000e+00   0.000000e+00   0.000000e+00
   4.752536e-02  -3.516274e-01   0.000000e+00
  -4.154251e-02  -1.385598e-01   0.000000e+00
  -3.236826e-02   2.589272e-02   0.000000e+00
   8.138889e-02  -1.143698e-01   0.000000e+00
  -2.959312e-02   9.930684e-02   0.000000e+00
   2.721421e-01  -1.809703e-01   0.000000e+00
  -3.875657e-03  -5.644963e-02   0.000000e+00
  -1.260123e-01   2.554557e-02   0.000000e+00
  -7.483191e-02   4.656250e-02   0.000000e+00
   0.000000e+00   0.000000e+00   0.000000e+00
  -1.935710e-01   6.603786e-02   0.000000e+00
   6.119201e-02   1.942180e-02   0.000000e+00
   2.220986e-02   4.363154e-02   0.000000e+00
  -1.225104e-01  -1.785601e-01   0.000000e+00
   3.838832e-02   2.558539e-02   0.000000e+00
   2.225580e-01  -1.033106e-01   0.000000e+00
   1.049952e-01   1.185593e-02   0.000000e+00
  -1.172569e-01   2.207738e-02   0.000000e+00
  -7.011262e-02  -7.291649e-02   0.000000e+00
  -6.662794e-02   3.072503e-02   0.000000e+00
  -2.307177e-02  -1.177224e-01   0.000000e+00
   0.000000e+00   0.000000e+00   0.000000e+00
  -5.283486e-03   1.831159e-02   0.000000e+00
  -5.694973e-02   2.784416e-03   0.000000e+00
  -2.733940e-02   5.998649e-02   0.000000e+00
   7.835885e-03   1.965000e-02   0.000000e+00
   0.000000e+00   0.000000e+00   0.000000e+00
   3.372968e-03  -6.421850e-04   0.000000e+00
  -1.326837e-01   1.709843e-02   0.000000e+00
   9.753688e-02   8.775592e-02   0.000000e+00
   2.660710e-01   2.586335e-01   0.000000e+00
   6.740693e-02  -1.624016e-01   0.000000e+00
  -1.660629e-01  -1.934572e-01   0.000000e+00
   0.000000e+00   0.000000e+00   0.000000e+00
   2.621836e-02   7.201273e-02   0.000000e+00
  -1.655118e-01  -2.781668e-01   0.000000e+00
   4.097051e-02   1.322473e-01   0.000000e+00
  -4.231504e-02  -9.373644e-02   0.000000e+00
  -9.699431e-03  -4.442540e-03   0.000000e+00
  -8.361667e-02   2.474078e-02   0.000000e+00
  -7.295313e-02  -5.927392e-02   0.000000e+00
  -9.610075e-02   2.052424e-01   0.000000e+00
   9.695582e-02  -2.299872e-02   0.000000e+00
VECTORS Imag_Arrow_2.511800e+01(Hz) float
  -1.763241e-02   6.727920e-03   0.000000e+00
   1.037490e-02  -5.591112e-02   0.000000e+00
   0.000000e+00   0.000000e+00   0.000000e+00
  -3.191929e-02  -1.580335e-01   0.000000e+00
  -6.870255e-02   1.232886e-02   0.000000e+00
  -4.245013e-02  -2.346680e-02   0.000000e+00
   1.014663e-02  -5.682151e-02   0.000000e+00
  -4.028692e-02   2.797649e-02   0.000000e+00
   3.735689e-02   1.206379e-02   0.000000e+00
  -1.360869e-01  -3.026822e-02   0.000000e+00
  -6.310533e-02   4.052970e-02   0.000000e+00
  -6.927003e-02   1.398818e-02   0.000000e+00
   0.000000e+00   0.000000e+00   0.000000e+00
  -1.884910e-01  -9.894072e-02   0.000000e+00
  -7.047113e-02  -1.138348e-03   0.000000e+00
  -1.446280e-01  -1.223930e-03   0.000000e+00
   4.882785e-02   1.036832e-01   0.000000e+00
   8.869648e-04  -1.524657e-02   0.000000e+00
  -1.571049e-01   7.162665e-02   0.000000e+00
  -7.193445e-02  -5.560361e-03   0.000000e+00
  -1.638676e-02  -2.195772e-02   0.000000e+00
  -1.019256e-01   4.782816e-03   0.000000e+00
  -1.107474e-02  -1.389030e-02   0.000000e+00
  -9.522333e-02   5.583245e-03   0.000000e+00
   0.000000e+00   0.000000e+00   0.000000e+00
  -6.365119e-02   4.908298e-02   0.000000e+00
  -9.601294e-02  -1.322935e-01   0.000000e+00
  -6.044538e-02  -1.049676e-01   0.000000e+00
  -4.454840e-02   6.278556e-04   0.000000e+00
   0.000000e+00   0.000000e+00   0.000000e+00
  -5.698280e-02   2.064097e-02   0.000000e+00
  -1.180715e-01  -3.307665e-05   0.000000e+00
   3.957147e-02  -8.198212e-03   0.000000e+00
   2.449708e-02  -4.391724e-02   0.000000e+00
  -3.080517e-02   3.572780e-02   0.000000e+00
  -2.118119e-01   8.146425e-03   0.000000e+00
   0.000000e+00   0.000000e+00   0.000000e+00
  -6.603543e-02  -1.235547e-02   0.000000e+00
  -5.749960e-02  -2.033210e-01   0.000000e+00
  -8.398772e-02   2.012396e-01   0.000000e+00
  -1.485210e-02   6.505584e-02   0.000000e+00
  -4.273167e-02   3.620013e-03   0.000000e+00
   7.244444e-02   5.587109e-02   0.000000e+00
  -1.560017e-01  -2.343211e-02   0.000000e+00
  -8.271063e-02  -1.731994e-01   0.000000e+00
   3.049162e-02  -1.176775e-01   0.000000e+00
VECTORS Real_Arrow_3.981000e+01(Hz) float
  -3.720132e-02  -1.309523e-01   0.000000e+00
  -1.018018e-01   1.377441e-01   0.000000e+00
  -4.409403e-02   9.853714e-02   0.000000e+00
   5.395006e-02  -2.900368e-01   0.000000e+00
  -2.802609e-02  -1.423411e-01   0.000000e+00
  -9.693855e-03   2.890981e-02   0.000000e+00
   7.938504e-02  -9.315685e-02   0.000000e+00
   0.000000e+00   0.000000e+00   0.000000e+00
   2.386497e-01  -1.979145e-01   0.000000e+00
   5.312514e-02  -4.415835e-02   0.000000e+00
  -9.943155e-02   1.527803e-02   0.000000e+00
  -6.135042e-02   2.926530e-02   0.000000e+00
   0.000000e+00   0.000000e+00   0.000000e+00
  -1.079696e-01   1.023301e-01   0.000000e+00
   7.797049e-02   2.312182e-02   0.000000e+00
   8.192991e-02   3.847148e-02   0.000000e+00
  -1.333680e-01  -2.204684e-01   0.000000e+00
   3.048659e-02   4.098725e-02   0.000000e+00
   0.000000e+00   0.000000e+00   0.000000e+00
   1.196353e-01   1.918130e-02   0.000000e+00
  -1.112915e-01   2.436365e-02   0.000000e+00
  -3.124892e-02  -7.773050e-02   0.000000e+00
  -6.639496e-02   4.558141e-02   0.000000e+00
   8.836462e-04  -1.212273e-01   0.000000e+00
   0.000000e+00   0.000000e+00   0.000000e+00
   8.077254e-03  -1.706566e-02   0.000000e+00
  -1.527942e-02   5.043483e-02   0.000000e+00
   1.391184e-03   9.352330e-02   0.000000e+00
   0.000000e+00   0.000000e+00   0.000000e+00
   1.245908e-01  -1.089551e-01   0.000000e+00
   1.836296e-02  -1.721128e-02   0.000000e+00
  -8.946910e-02   5.943435e-03   0.000000e+00
   0.000000e+00   0.000000e+00   0.000000e+00
   2.330463e-01   2.610031e-01   0.000000e+00
   7.176380e-02  -1.830906e-01   0.000000e+00
  -6.718652e-02  -1.967384e-01   0.000000e+00
   0.000000e+00   0.000000e+00   0.000000e+00
   3.840104e-02   7.547206e-02   0.000000e+00
  -1.427775e-01  -1.830381e-01   0.000000e+00
   5.887654e-02   5.605259e-02   0.000000e+00
  -4.186234e-02  -1.075842e-01   0.000000e+00
  -1.193217e-02  -3.660518e-04   0.000000e+00
  -1.139506e-01  -8.414284e-03   0.000000e+00
  -9.884871e-03  -5.094619e-02   0.000000e+00
  -5.856250e-02   2.667102e-01   0.000000e+00
   7.886871e-02   1.667371e-02   0.000000e+00
VECTORS Imag_Arrow_3.981000e+01(Hz) float
   3.920448e-03  -2.041752e-02   0.000000e+00
   3.730465e-02  -6.748605e-02   0.000000e+00
   3.069150e-02  -4.165778e-02   0.000000e+00
  -1.786953e-02  -1.632579e-01   0.000000e+00
  -5.118491e-02  -1.062643e-02   0.000000e+00
  -4.742056e-02  -2.926552e-03   0.000000e+00
   1.898035e-02  -7.197448e-02   0.000000e+00
   0.000000e+00   0.000000e+00   0.000000e+00
   8.099545e-02   3.603614e-03   0.000000e+00
  -1.091252e-01  -3.453988e-02   0.000000e+00
  -6.595108e-02   3.335393e-02   0.000000e+00
  -4.552317e-02   2.014413e-02   0.000000e+00
   0.000000e+00   0.000000e+00   0.000000e+00
  -2.116086e-01  -6.741139e-02   0.000000e+00
  -3.095163e-02  -1.008316e-02   0.000000e+00
  -1.276286e-01   1.376933e-02   0.000000e+00
   3.905893e-02   9.408296e-02   0.000000e+00
   1.245617e-02  -3.634536e-02   0.000000e+00
   0.000000e+00   0.000000e+00   0.000000e+00
  -3.147780e-02  -1.439536e-02   0.000000e+00
  -1.797338e-02  -1.997401e-02   0.000000e+00
  -8.517515e-02  -5.162923e-03   0.000000e+00
  -7.092296e-03  -3.739455e-02   0.000000e+00
  -7.843485e-02   7.956860e-03   0.000000e+00
   0.000000e+00   0.000000e+00   0.000000e+00
  -3.060601e-02   6.377575e-02   0.000000e+00
  -1.044983e-01  -1.134246e-01   0.000000e+00
  -6.145003e-02  -8.310662e-02   0.000000e+00
   0.000000e+00   0.000000e+00   0.000000e+00
  -3.235414e-02   2.477201e-02   0.000000e+00
  -4.561163e-02   2.673037e-02   0.000000e+00
  -1.141044e-01   1.537589e-02   0.000000e+00
   0.000000e+00   0.000000e+00   0.000000e+00
   8.940071e-02   2.528545e-02   0.000000e+00
  -1.066002e-02   7.470829e-03   0.000000e+00
  -2.232503e-01  -1.897208e-03   0.000000e+00
   0.000000e+00   0.000000e+00   0.000000e+00
  -1.438039e-02   4.680533e-04   0.000000e+00
  -6.493083e-02  -2.134633e-01   0.000000e+00
  -6.129217e-02   2.027509e-01   0.000000e+00
  -7.032256e-03   5.773733e-02   0.000000e+00
  -1.911465e-02  -3.176779e-03   0.000000e+00
   6.330253e-02   6.679870e-02   0.000000e+00
  -1.460678e-01  -2.847447e-02   0.000000e+00
  -9.216467e-02  -1.404309e-01   0.000000e+00
   5.229055e-02  -1.072733e-01   0.000000e+00
VECTORS Real_Arrow_6.309500e+01(Hz) float
  -5.263974e-02  -1.137188e-01   0.000000e+00
  -1.364604e-01   1.741032e-01   0.000000e+00
  -6.925587e-02   1.225290e-01   0.000000e+00
   5.101170e-02  -2.327515e-01   0.000000e+00
  -2.192911e-02  -1.333290e-01   0.000000e+00
   1.141473e-02   2.164700e-02   0.000000e+00
   7.070405e-02  -6.306684e-02   0.000000e+00
   0.000000e+00   0.000000e+00   0.000000e+00
   0.000000e+00   0.000000e+00   0.000000e+00
   8.833257e-02  -3.126763e-02   0.000000e+00
  -7.427128e-02   8.668622e-03   0.000000e+00
  -5.664338e-02   1.554276e-02   0.000000e+00
   0.000000e+00   0.000000e+00   0.000000e+00
  -2.178242e-02   1.168612e-01   0.000000e+00
   7.185272e-02   3.268116e-02   0.000000e+00
   1.242212e-01   2.834849e-02   0.000000e+00
  -1.425232e-01  -2.545551e-01   0.000000e+00
   2.380913e-02   6.187662e-02   0.000000e+00
   0.000000e+00   0.000000e+00   0.000000e+00
   1.114934e-01   2.996698e-02   0.000000e+00
  -1.046653e-01   3.010776e-02   0.000000e+00
  -6.172977e-04  -7.042307e-02   0.000000e+00
  -6.297889e-02   7.103428e-02   0.000000e+00
   0.000000e+00   0.000000e+00   0.000000e+00
   0.000000e+00   0.000000e+00   0.000000e+00
   3.909091e-03  -5.559417e-02   0.000000e+00
   2.422895e-02   8.406747e-02   0.000000e+00
   2.630259e-02   1.136908e-01   0.000000e+00
   0.000000e+00   0.000000e+00   0.000000e+00
   1.198087e-01  -1.229811e-01   0.000000e+00
   3.093749e-02  -2.926954e-02   0.000000e+00
  -5.012755e-02  -9.548533e-03   0.000000e+00
   8.008067e-02   8.389638e-02   0.000000e+00
   1.745046e-01   2.312847e-01   0.000000e+00
   0.000000e+00   0.000000e+00   0.000000e+00
   2.558730e-02  -1.949789e-01   0.000000e+00
   3.849079e-02   3.117694e-01   0.000000e+00
   0.000000e+00   0.000000e+00   0.000000e+00
  -1.219452e-01  -9.761130e-02   0.000000e+00
   6.600247e-02  -2.020968e-02   0.000000e+00
  -4.000830e-02  -1.220240e-01   0.000000e+00
  -2.155516e-02   7.399323e-03   0.000000e+00
  -1.394002e-01  -4.005502e-02   0.000000e+00
   3.917840e-02  -4.267522e-02   0.000000e+00
  -2.322446e-02   3.084908e-01   0.000000e+00
   4.887102e-02   5.042521e-02   0.000000e+00
VECTORS Imag_Arrow_6.309500e+01(Hz) float
   5.422195e-03  -4.232498e-02   0.000000e+00
   3.471633e-02  -6.008153e-02   0.000000e+00
   3.306131e-02  -3.072963e-02   0.000000e+00
  -9.692106e-03  -1.562430e-01   0.000000e+00
  -4.454956e-02  -3.376772e-02   0.000000e+00
  -4.286580e-02   1.352573e-02   0.000000e+00
   2.792925e-02  -8.331534e-02   0.000000e+00
   0.000000e+00   0.000000e+00   0.000000e+00
   0.000000e+00   0.000000e+00   0.000000e+00
  -6.404163e-02  -3.588172e-02   0.000000e+00
  -5.773044e-02   2.801601e-02   0.000000e+00
  -2.614873e-02   1.730711e-02   0.000000e+00
   0.000000e+00   0.000000e+00   0.000000e+00
  -2.069910e-01  -2.881804e-02   0.000000e+00
   6.996592e-04  -1.319656e-02   0.000000e+00
  -9.218299e-02   2.552705e-02   0.000000e+00
   3.168895e-02   7.328557e-02   0.000000e+00
   2.129675e-02  -4.594415e-02   0.000000e+00
   0.000000e+00   0.000000e+00   0.000000e+00
  -5.485247e-04  -1.464568e-02   0.000000e+00
  -1.721144e-02  -1.952508e-02   0.000000e+00
  -5.669540e-02  -1.712026e-02   0.000000e+00
  -1.556061e-03  -4.762138e-02   0.000000e+00
   0.000000e+00   0.000000e+00   0.000000e+00
   0.000000e+00   0.000000e+00   0.000000e+00
  -6.166125e-03   5.474692e-02   0.000000e+00
  -1.008899e-01  -8.810756e-02   0.000000e+00
  -5.178304e-02  -6.030555e-02   0.000000e+00
   0.000000e+00   0.000000e+00   0.000000e+00
   3.910090e-03   1.114139e-02   0.000000e+00
  -3.497252e-02   2.491820e-02   0.000000e+00
  -1.044665e-01   1.950067e-02   0.000000e+00
   1.783174e-02   7.620383e-03   0.000000e+00
   1.282031e-01   8.650529e-02   0.000000e+00
   0.000000e+00   0.000000e+00   0.000000e+00
  -1.978474e-01  -1.248395e-02   0.000000e+00
  -7.369999e-02   3.962507e-02   0.000000e+00
   0.000000e+00   0.000000e+00   0.000000e+00
  -7.023447e-02  -1.879533e-01   0.000000e+00
  -4.900311e-02   1.874864e-01   0.000000e+00
   7.074476e-04   5.817297e-02   0.000000e+00
  -1.541942e-02  -1.798560e-03   0.000000e+00
   4.442229e-02   6.312561e-02   0.000000e+00
  -1.214602e-01  -3.262586e-02   0.000000e+00
  -9.005484e-02  -9.795303e-02   0.000000e+00
   6.359433e-02  -9.327654e-02   0.000000e+00
