# vtk DataFile Version 2.0
Induction_Arrow_Iter6_PE4
ASCII
DATASET UNSTRUCTURED_GRID
POINTS 46 float
  -2.052000e+03    1.667000e+03   -4.526633e+02
  -1.265000e+03    2.333000e+03   -4.555885e+02
  -9.840000e+02    2.568000e+03   -4.612271e+02
   1.700000e+03   -1.757000e+03   -5.237752e+02
  -1.152000e+03    1.382000e+03   -4.549280e+02
   3.187000e+03    1.067000e+03   -8.370176e+02
   4.716000e+03    9.370000e+02   -8.015281e+02
  -1.855000e+03    5.260000e+02   -5.147377e+02
  -1.420000e+02   -1.905000e+03   -4.746368e+02
  -5.800000e+01    1.069000e+03   -4.555494e+02
  -2.802000e+03    3.302000e+03   -4.314337e+02
  -5.640000e+03   -1.532000e+03   -4.911771e+02
  -8.030000e+02   -5.610000e+02   -5.280929e+02
   1.008000e+03    4.130000e+02   -5.983358e+02
   1.960000e+02    2.246000e+03   -5.219413e+02
  -3.457000e+03    8.320000e+02   -4.470735e+02
   5.640000e+03    2.452000e+03   -7.393049e+02
  -1.334000e+03    3.332000e+03   -4.456136e+02
   1.244000e+03    1.880000e+03   -6.331107e+02
  -2.680000e+02    2.144000e+03   -4.891390e+02
  -4.063000e+03    6.620000e+02   -4.746103e+02
  -1.258000e+03    6.330000e+02   -4.856841e+02
  -2.141000e+03    3.194000e+03   -4.348461e+02
  -3.469000e+03   -3.059000e+03   -6.067613e+02
  -1.604000e+03   -2.570000e+02   -5.141257e+02
  -1.454000e+03    2.220000e+02   -5.386025e+02
   1.864000e+03    1.270000e+02   -7.404291e+02
   2.449000e+03    5.590000e+02   -7.805292e+02
  -1.834000e+03   -1.554000e+03   -6.273074e+02
   1.807000e+03    2.297000e+03   -6.825557e+02
  -2.560000e+03   -1.783000e+03   -6.131337e+02
  -2.741000e+03   -5.010000e+02   -5.080000e+02
   2.884000e+03   -2.179000e+03   -5.274708e+02
  -6.120000e+02   -8.960000e+02   -5.895389e+02
  -1.985000e+03   -2.653000e+03   -5.598834e+02
  -3.390000e+03   -4.000000e+02   -4.982361e+02
   1.586000e+03    1.342000e+03   -6.618442e+02
   1.047000e+03    2.401000e+03   -5.426792e+02
   8.380000e+02   -1.300000e+03   -4.783644e+02
   2.569000e+03    2.441000e+03   -6.035668e+02
  -2.028000e+03    2.833000e+03   -4.322286e+02
  -1.086000e+03    1.998000e+03   -4.563301e+02
   1.514000e+03   -3.332000e+03   -5.646205e+02
   7.040000e+02    1.116000e+03   -5.365099e+02
   1.990000e+03    6.360000e+02   -7.085272e+02
   3.722000e+03   -1.700000e+02   -6.745213e+02
CELLS 46 92
1 0
1 1
1 2
1 3
1 4
1 5
1 6
1 7
1 8
1 9
1 10
1 11
1 12
1 13
1 14
1 15
1 16
1 17
1 18
1 19
1 20
1 21
1 22
1 23
1 24
1 25
1 26
1 27
1 28
1 29
1 30
1 31
1 32
1 33
1 34
1 35
1 36
1 37
1 38
1 39
1 40
1 41
1 42
1 43
1 44
1 45
CELL_TYPES 46
1
1
1
1
1
1
1
1
1
1
1
1
1
1
1
1
1
1
1
1
1
1
1
1
1
1
1
1
1
1
1
1
1
1
1
1
1
1
1
1
1
1
1
1
1
1
POINT_DATA 46
VECTORS Real_Arrow_6.309500e+00(Hz) float
  -1.076448e-01  -7.484261e-02   0.000000e+00
  -1.439902e-01   9.780910e-02   0.000000e+00
   0.000000e+00   0.000000e+00   0.000000e+00
  -8.805405e-03  -4.870624e-01   0.000000e+00
  -1.514875e-01  -8.261308e-02   0.000000e+00
  -5.366192e-02  -3.127777e-02   0.000000e+00
   8.058521e-02  -1.403843e-01   0.000000e+00
  -1.519365e-01   8.382038e-02   0.000000e+00
   2.057276e-01  -1.746675e-01   0.000000e+00
  -1.647649e-01  -6.598008e-02   0.000000e+00
  -1.764333e-01   9.800245e-02   0.000000e+00
  -2.094053e-01   2.518348e-02   0.000000e+00
   0.000000e+00   0.000000e+00   0.000000e+00
  -3.081029e-01  -6.747927e-02   0.000000e+00
  -7.654266e-02   4.599350e-02   0.000000e+00
   0.000000e+00   0.000000e+00   0.000000e+00
  -5.055712e-02  -7.423851e-02   0.000000e+00
   0.000000e+00   0.000000e+00   0.000000e+00
   4.204078e-03  -3.339554e-02   0.000000e+00
  -3.804900e-02   3.896604e-02   0.000000e+00
   0.000000e+00   0.000000e+00   0.000000e+00
  -2.007123e-01  -5.797258e-02   0.000000e+00
  -9.612810e-02   8.586285e-02   0.000000e+00
  -1.681910e-01  -1.199593e-01   0.000000e+00
   0.000000e+00   0.000000e+00   0.000000e+00
  -1.361454e-01   2.086193e-02   0.000000e+00
  -1.224933e-01  -1.443751e-01   0.000000e+00
  -7.355538e-02  -7.186127e-02   0.000000e+00
  -7.013382e-02  -1.041869e-02   0.000000e+00
  -3.421282e-02  -7.882991e-02   0.000000e+00
   0.000000e+00   0.000000e+00   0.000000e+00
  -2.531893e-01  -2.968893e-02   0.000000e+00
   1.769699e-01   8.144742e-02   0.000000e+00
   1.445070e-01   8.743364e-02   0.000000e+00
  -1.517363e-02  -1.003359e-01   0.000000e+00
  -3.152694e-01  -1.837098e-01   0.000000e+00
   0.000000e+00   0.000000e+00   0.000000e+00
  -1.281004e-01   4.604236e-02   0.000000e+00
  -2.055698e-01  -4.159344e-01   0.000000e+00
  -9.968599e-02   3.524285e-01   0.000000e+00
  -8.268359e-02   6.064912e-03   0.000000e+00
  -1.135918e-01   2.602060e-02   0.000000e+00
   2.092852e-03   3.994632e-02   0.000000e+00
  -2.243230e-01  -6.168916e-02   0.000000e+00
  -1.467707e-01  -1.027095e-03   0.000000e+00
   7.888475e-02  -1.534817e-01   0.000000e+00
VECTORS Imag_Arrow_6.309500e+00(Hz) float
  -7.390153e-02   3.011441e-02   0.000000e+00
  -6.959274e-02  -3.471090e-02   0.000000e+00
   0.000000e+00   0.000000e+00   0.000000e+00
  -4.020299e-02  -5.262675e-02   0.000000e+00
  -7.820115e-02   2.726304e-02   0.000000e+00
   1.122390e-02  -6.284298e-02   0.000000e+00
   1.163220e-02  -2.417500e-02   0.000000e+00
  -9.315732e-02  -6.544945e-02   0.000000e+00
  -1.083033e-01  -1.203419e-02   0.000000e+00
  -8.981860e-02  -1.904041e-02   0.000000e+00
  -5.863516e-02   3.391373e-02   0.000000e+00
  -1.381552e-01  -9.847589e-02   0.000000e+00
   0.000000e+00   0.000000e+00   0.000000e+00
  -1.607362e-02  -9.925603e-02   0.000000e+00
  -9.826805e-02  -4.311356e-03   0.000000e+00
   0.000000e+00   0.000000e+00   0.000000e+00
   7.672650e-02   5.779719e-02   0.000000e+00
   0.000000e+00   0.000000e+00   0.000000e+00
  -1.467829e-01   2.034007e-02   0.000000e+00
  -1.137540e-01  -3.511823e-03   0.000000e+00
   0.000000e+00   0.000000e+00   0.000000e+00
  -7.803852e-02  -1.244529e-02   0.000000e+00
  -5.884846e-02   1.787975e-02   0.000000e+00
  -8.767048e-02  -2.331281e-03   0.000000e+00
   0.000000e+00   0.000000e+00   0.000000e+00
  -8.709400e-02  -4.229427e-02   0.000000e+00
  -1.684766e-02  -1.012326e-01   0.000000e+00
  -8.203228e-03  -1.054796e-01   0.000000e+00
  -6.613476e-02  -5.290273e-02   0.000000e+00
  -8.436258e-02  -5.822005e-03   0.000000e+00
   0.000000e+00   0.000000e+00   0.000000e+00
  -4.869503e-02  -4.940633e-02   0.000000e+00
  -1.012680e-02  -6.029382e-02   0.000000e+00
  -1.322220e-01  -1.632485e-01   0.000000e+00
  -7.572391e-02   1.732734e-02   0.000000e+00
  -3.519659e-02   1.962337e-02   0.000000e+00
   0.000000e+00   0.000000e+00   0.000000e+00
  -8.396278e-02  -3.712942e-02   0.000000e+00
   2.658575e-03  -4.137301e-02   0.000000e+00
  -9.380354e-02   8.708535e-02   0.000000e+00
  -6.078393e-02   6.302542e-02   0.000000e+00
  -8.851740e-02  -7.422715e-04   0.000000e+00
   3.334691e-02  -3.589378e-02   0.000000e+00
  -6.659102e-02  -1.784855e-02   0.000000e+00
  -1.455307e-03  -1.597407e-01   0.000000e+00
  -1.135516e-02  -9.039128e-02   0.000000e+00
VECTORS Real_Arrow_1.000000e+01(Hz) float
  -6.787123e-02  -9.583327e-02   0.000000e+00
  -1.037560e-01   9.481190e-02   0.000000e+00
   0.000000e+00   0.000000e+00   0.000000e+00
   1.000113e-02  -4.602115e-01   0.000000e+00
  -1.114666e-01  -1.025350e-01   0.000000e+00
  -5.740256e-02  -7.917571e-03   0.000000e+00
   7.773481e-02  -1.355876e-01   0.000000e+00
  -9.925450e-02   1.088230e-01   0.000000e+00
   2.547247e-01  -1.681519e-01   0.000000e+00
  -1.224756e-01  -6.642234e-02   0.000000e+00
  -1.567802e-01   6.899173e-02   0.000000e+00
  -1.414157e-01   6.459070e-02   0.000000e+00
   0.000000e+00   0.000000e+00   0.000000e+00
  -3.001166e-01  -2.820154e-02   0.000000e+00
   0.000000e+00   0.000000e+00   0.000000e+00
  -9.144932e-02   2.721528e-02   0.000000e+00
  -8.072272e-02  -1.005000e-01   0.000000e+00
   3.220849e-02   5.152423e-02   0.000000e+00
   7.118109e-02  -4.562502e-02   0.000000e+00
   1.478265e-02   2.680265e-02   0.000000e+00
   0.000000e+00   0.000000e+00   0.000000e+00
  -1.602272e-01  -5.734684e-02   0.000000e+00
  -7.314769e-02   5.863633e-02   0.000000e+00
  -1.169407e-01  -1.162050e-01   0.000000e+00
   0.000000e+00   0.000000e+00   0.000000e+00
  -8.889779e-02   3.833997e-02   0.000000e+00
  -1.144145e-01  -1.037049e-01   0.000000e+00
  -6.847896e-02  -3.048224e-02   0.000000e+00
  -3.509956e-02   1.358743e-02   0.000000e+00
   0.000000e+00   0.000000e+00   0.000000e+00
   0.000000e+00   0.000000e+00   0.000000e+00
  -2.237824e-01  -2.381950e-03   0.000000e+00
   1.594622e-01   8.944498e-02   0.000000e+00
   2.120113e-01   1.611579e-01   0.000000e+00
   2.393020e-02  -1.091721e-01   0.000000e+00
  -2.999788e-01  -1.833724e-01   0.000000e+00
   0.000000e+00   0.000000e+00   0.000000e+00
  -7.882990e-02   5.632197e-02   0.000000e+00
  -2.010441e-01  -4.015211e-01   0.000000e+00
  -4.763667e-02   2.846654e-01   0.000000e+00
  -5.752157e-02  -3.268134e-02   0.000000e+00
  -6.859566e-02   1.427810e-02   0.000000e+00
  -1.911324e-02   5.300724e-02   0.000000e+00
  -1.910023e-01  -6.249412e-02   0.000000e+00
  -1.444048e-01   6.037473e-02   0.000000e+00
   9.117563e-02  -1.155757e-01   0.000000e+00
VECTORS Imag_Arrow_1.000000e+01(Hz) float
  -7.212524e-02   3.608297e-02   0.000000e+00
  -6.059099e-02  -2.763976e-02   0.000000e+00
   0.000000e+00   0.000000e+00   0.000000e+00
  -4.429556e-02  -1.004870e-01   0.000000e+00
  -9.059554e-02   3.504944e-02   0.000000e+00
  -7.383494e-03  -5.549117e-02   0.000000e+00
   8.134424e-03  -3.187605e-02   0.000000e+00
  -9.986204e-02  -3.611235e-02   0.000000e+00
  -7.372198e-02  -5.024314e-03   0.000000e+00
  -1.205470e-01  -1.703901e-02   0.000000e+00
  -5.543289e-02   5.152138e-02   0.000000e+00
  -1.259885e-01  -5.167118e-02   0.000000e+00
   0.000000e+00   0.000000e+00   0.000000e+00
  -7.707467e-02  -1.110087e-01   0.000000e+00
   0.000000e+00   0.000000e+00   0.000000e+00
  -1.206153e-01  -4.027150e-02   0.000000e+00
   7.378205e-02   8.217271e-02   0.000000e+00
  -4.863730e-02   2.950393e-02   0.000000e+00
  -1.756156e-01   4.551683e-02   0.000000e+00
  -1.188478e-01   8.278205e-03   0.000000e+00
   0.000000e+00   0.000000e+00   0.000000e+00
  -1.009476e-01  -1.165136e-03   0.000000e+00
  -4.117637e-02   2.872193e-02   0.000000e+00
  -1.131473e-01  -1.325882e-03   0.000000e+00
   0.000000e+00   0.000000e+00   0.000000e+00
  -1.004779e-01  -1.467108e-02   0.000000e+00
  -4.613928e-02  -1.238735e-01   0.000000e+00
  -2.866142e-02  -1.167149e-01   0.000000e+00
  -6.970639e-02  -3.986570e-02   0.000000e+00
   0.000000e+00   0.000000e+00   0.000000e+00
   0.000000e+00   0.000000e+00   0.000000e+00
  -8.678236e-02  -4.325601e-02   0.000000e+00
   3.402524e-02  -3.164879e-02   0.000000e+00
  -1.057397e-01  -1.492230e-01   0.000000e+00
  -7.236355e-02   3.325001e-02   0.000000e+00
  -1.018819e-01   1.366036e-02   0.000000e+00
   0.000000e+00   0.000000e+00   0.000000e+00
  -1.068554e-01  -2.944239e-02   0.000000e+00
  -2.117548e-02  -9.886267e-02   0.000000e+00
  -1.125239e-01   1.547230e-01   0.000000e+00
  -4.706090e-02   8.076150e-02   0.000000e+00
  -9.013353e-02   1.281855e-02   0.000000e+00
   6.048441e-02  -5.182094e-03   0.000000e+00
  -1.101756e-01  -1.351438e-02   0.000000e+00
  -3.072181e-02  -1.803217e-01   0.000000e+00
  -7.103883e-03  -1.119013e-01   0.000000e+00
VECTORS Real_Arrow_1.584800e+01(Hz) float
  -3.547221e-02  -1.181966e-01   0.000000e+00
  -7.563887e-02   9.327169e-02   0.000000e+00
   0.000000e+00   0.000000e+00   0.000000e+00
   2.986917e-02  -4.116995e-01   0.000000e+00
  -7.085952e-02  -1.239912e-01   0.000000e+00
  -5.003994e-02   1.237685e-02   0.000000e+00
   7.932020e-02  -1.273589e-01   0.000000e+00
  -5.207490e-02   1.136028e-01   0.000000e+00
   2.794739e-01  -1.692503e-01   0.000000e+00
  -6.665049e-02  -6.479932e-02   0.000000e+00
  -1.438996e-01   4.154346e-02   0.000000e+00
   0.000000e+00   0.000000e+00   0.000000e+00
   0.000000e+00   0.000000e+00   0.000000e+00
  -2.613403e-01   1.824225e-02   0.000000e+00
   0.000000e+00   0.000000e+00   0.000000e+00
  -4.001324e-02   4.128039e-02   0.000000e+00
  -1.057507e-01  -1.375376e-01   0.000000e+00
   4.282433e-02   2.771949e-02   0.000000e+00
   1.499363e-01  -7.076664e-02   0.000000e+00
   6.658123e-02   1.439291e-02   0.000000e+00
  -1.214423e-01   1.859156e-02   0.000000e+00
  -1.139709e-01  -6.375558e-02   0.000000e+00
  -6.581294e-02   3.452171e-02   0.000000e+00
  -6.371873e-02  -1.149885e-01   0.000000e+00
   0.000000e+00   0.000000e+00   0.000000e+00
  -4.066728e-02   3.808971e-02   0.000000e+00
  -9.215190e-02  -5.191519e-02   0.000000e+00
  -5.266758e-02   1.600549e-02   0.000000e+00
  -7.306293e-03   2.511972e-02   0.000000e+00
   0.000000e+00   0.000000e+00   0.000000e+00
   0.000000e+00   0.000000e+00   0.000000e+00
  -1.792075e-01   1.503100e-02   0.000000e+00
   1.233014e-01   8.780913e-02   0.000000e+00
   2.571892e-01   2.234903e-01   0.000000e+00
   5.248473e-02  -1.324339e-01   0.000000e+00
  -2.486582e-01  -1.873077e-01   0.000000e+00
   0.000000e+00   0.000000e+00   0.000000e+00
  -1.948318e-02   6.580841e-02   0.000000e+00
  -1.872493e-01  -3.556131e-01   0.000000e+00
   4.497091e-03   2.083599e-01   0.000000e+00
  -4.501160e-02  -7.000450e-02   0.000000e+00
  -2.956204e-02   4.834338e-04   0.000000e+00
  -5.154786e-02   4.743312e-02   0.000000e+00
  -1.377912e-01  -6.293783e-02   0.000000e+00
  -1.272106e-01   1.322722e-01   0.000000e+00
   9.964772e-02  -6.890206e-02   0.000000e+00
VECTORS Imag_Arrow_1.584800e+01(Hz) float
  -5.038822e-02   2.760553e-02   0.000000e+00
  -2.997804e-02  -3.770750e-02   0.000000e+00
   0.000000e+00   0.000000e+00   0.000000e+00
  -4.236472e-02  -1.383460e-01   0.000000e+00
  -8.592792e-02   2.903491e-02   0.000000e+00
  -2.746382e-02  -4.286694e-02   0.000000e+00
   6.405322e-03  -4.353590e-02   0.000000e+00
  -7.881325e-02  -1.278305e-03   0.000000e+00
  -2.107007e-02   5.190498e-03   0.000000e+00
  -1.382709e-01  -2.282729e-02   0.000000e+00
  -5.733389e-02   4.928655e-02   0.000000e+00
   0.000000e+00   0.000000e+00   0.000000e+00
   0.000000e+00   0.000000e+00   0.000000e+00
  -1.394906e-01  -1.130080e-01   0.000000e+00
   0.000000e+00   0.000000e+00   0.000000e+00
  -1.407243e-01  -2.101000e-02   0.000000e+00
   6.262033e-02   9.794864e-02   0.000000e+00
  -2.101523e-02   1.235200e-02   0.000000e+00
  -1.805097e-01   6.496489e-02   0.000000e+00
  -1.043814e-01   4.830076e-03   0.000000e+00
  -1.430282e-02  -3.171230e-02   0.000000e+00
  -1.079183e-01   5.796602e-03   0.000000e+00
  -2.265221e-02   1.373076e-02   0.000000e+00
  -1.118886e-01   2.645946e-03   0.000000e+00
   0.000000e+00   0.000000e+00   0.000000e+00
  -9.132910e-02   1.877042e-02   0.000000e+00
  -7.483910e-02  -1.363809e-01   0.000000e+00
  -4.802434e-02  -1.177837e-01   0.000000e+00
  -5.871459e-02  -1.788452e-02   0.000000e+00
   0.000000e+00   0.000000e+00   0.000000e+00
   0.000000e+00   0.000000e+00   0.000000e+00
  -1.093952e-01  -2.256538e-02   0.000000e+00
   4.853922e-02  -1.653902e-02   0.000000e+00
  -4.722660e-02  -1.065241e-01   0.000000e+00
  -5.385321e-02   4.323809e-02   0.000000e+00
  -1.669925e-01   1.326191e-02   0.000000e+00
   0.000000e+00   0.000000e+00   0.000000e+00
  -1.023281e-01  -2.099426e-02   0.000000e+00
  -4.216205e-02  -1.584518e-01   0.000000e+00
  -1.067457e-01   1.858435e-01   0.000000e+00
  -2.942468e-02   7.685586e-02   0.000000e+00
  -7.216109e-02   1.200504e-02   0.000000e+00
   7.255248e-02   2.914644e-02   0.000000e+00
  -1.426807e-01  -1.691750e-02   0.000000e+00
  -6.036524e-02  -1.871409e-01   0.000000e+00
   8.431292e-03  -1.217425e-01   0.000000e+00
