# vtk DataFile Version 2.0
Induction_Arrow_Iter9_PE5
ASCII
DATASET UNSTRUCTURED_GRID
POINTS 46 float
  -2.052000e+03    1.667000e+03   -4.526633e+02
  -1.265000e+03    2.333000e+03   -4.555885e+02
  -9.840000e+02    2.568000e+03   -4.612271e+02
   1.700000e+03   -1.757000e+03   -5.237752e+02
  -1.152000e+03    1.382000e+03   -4.549280e+02
   3.187000e+03    1.067000e+03   -8.370176e+02
   4.716000e+03    9.370000e+02   -8.015281e+02
  -1.855000e+03    5.260000e+02   -5.147377e+02
  -1.420000e+02   -1.905000e+03   -4.746368e+02
  -5.800000e+01    1.069000e+03   -4.555494e+02
  -2.802000e+03    3.302000e+03   -4.314337e+02
  -5.640000e+03   -1.532000e+03   -4.911771e+02
  -8.030000e+02   -5.610000e+02   -5.280929e+02
   1.008000e+03    4.130000e+02   -5.983358e+02
   1.960000e+02    2.246000e+03   -5.219413e+02
  -3.457000e+03    8.320000e+02   -4.470735e+02
   5.640000e+03    2.452000e+03   -7.393049e+02
  -1.334000e+03    3.332000e+03   -4.456136e+02
   1.244000e+03    1.880000e+03   -6.331107e+02
  -2.680000e+02    2.144000e+03   -4.891390e+02
  -4.063000e+03    6.620000e+02   -4.746103e+02
  -1.258000e+03    6.330000e+02   -4.856841e+02
  -2.141000e+03    3.194000e+03   -4.348461e+02
  -3.469000e+03   -3.059000e+03   -6.067613e+02
  -1.604000e+03   -2.570000e+02   -5.141257e+02
  -1.454000e+03    2.220000e+02   -5.386025e+02
   1.864000e+03    1.270000e+02   -7.404291e+02
   2.449000e+03    5.590000e+02   -7.805292e+02
  -1.834000e+03   -1.554000e+03   -6.273074e+02
   1.807000e+03    2.297000e+03   -6.825557e+02
  -2.560000e+03   -1.783000e+03   -6.131337e+02
  -2.741000e+03   -5.010000e+02   -5.080000e+02
   2.884000e+03   -2.179000e+03   -5.274708e+02
  -6.120000e+02   -8.960000e+02   -5.895389e+02
  -1.985000e+03   -2.653000e+03   -5.598834e+02
  -3.390000e+03   -4.000000e+02   -4.982361e+02
   1.586000e+03    1.342000e+03   -6.618442e+02
   1.047000e+03    2.401000e+03   -5.426792e+02
   8.380000e+02   -1.300000e+03   -4.783644e+02
   2.569000e+03    2.441000e+03   -6.035668e+02
  -2.028000e+03    2.833000e+03   -4.322286e+02
  -1.086000e+03    1.998000e+03   -4.563301e+02
   1.514000e+03   -3.332000e+03   -5.646205e+02
   7.040000e+02    1.116000e+03   -5.365099e+02
   1.990000e+03    6.360000e+02   -7.085272e+02
   3.722000e+03   -1.700000e+02   -6.745213e+02
CELLS 46 92
1 0
1 1
1 2
1 3
1 4
1 5
1 6
1 7
1 8
1 9
1 10
1 11
1 12
1 13
1 14
1 15
1 16
1 17
1 18
1 19
1 20
1 21
1 22
1 23
1 24
1 25
1 26
1 27
1 28
1 29
1 30
1 31
1 32
1 33
1 34
1 35
1 36
1 37
1 38
1 39
1 40
1 41
1 42
1 43
1 44
1 45
CELL_TYPES 46
1
1
1
1
1
1
1
1
1
1
1
1
1
1
1
1
1
1
1
1
1
1
1
1
1
1
1
1
1
1
1
1
1
1
1
1
1
1
1
1
1
1
1
1
1
1
POINT_DATA 46
VECTORS Real_Arrow_2.511800e+01(Hz) float
  -2.520582e-02  -1.322527e-01   0.000000e+00
  -7.453727e-02   1.071613e-01   0.000000e+00
   0.000000e+00   0.000000e+00   0.000000e+00
   4.716854e-02  -3.516035e-01   0.000000e+00
  -4.148595e-02  -1.384957e-01   0.000000e+00
  -3.217065e-02   2.584440e-02   0.000000e+00
   8.146302e-02  -1.141704e-01   0.000000e+00
  -2.968420e-02   9.913603e-02   0.000000e+00
   2.729390e-01  -1.805073e-01   0.000000e+00
  -3.733720e-03  -5.649440e-02   0.000000e+00
  -1.255882e-01   2.523610e-02   0.000000e+00
  -7.516154e-02   4.626035e-02   0.000000e+00
   0.000000e+00   0.000000e+00   0.000000e+00
  -1.933422e-01   6.584595e-02   0.000000e+00
   6.092879e-02   1.935155e-02   0.000000e+00
   2.145889e-02   4.344452e-02   0.000000e+00
  -1.223290e-01  -1.790806e-01   0.000000e+00
   3.880404e-02   2.548942e-02   0.000000e+00
   2.227204e-01  -1.040171e-01   0.000000e+00
   1.049694e-01   1.181796e-02   0.000000e+00
  -1.176055e-01   2.202716e-02   0.000000e+00
  -7.015069e-02  -7.290024e-02   0.000000e+00
  -6.647947e-02   3.036191e-02   0.000000e+00
  -2.381695e-02  -1.175034e-01   0.000000e+00
   0.000000e+00   0.000000e+00   0.000000e+00
  -5.548571e-03   1.854151e-02   0.000000e+00
  -5.689953e-02   2.959462e-03   0.000000e+00
  -2.730384e-02   6.004978e-02   0.000000e+00
   8.005298e-03   2.068356e-02   0.000000e+00
   0.000000e+00   0.000000e+00   0.000000e+00
   2.895225e-03  -8.527891e-04   0.000000e+00
  -1.326471e-01   1.646092e-02   0.000000e+00
   9.739709e-02   8.797797e-02   0.000000e+00
   2.649655e-01   2.587576e-01   0.000000e+00
   6.726343e-02  -1.621809e-01   0.000000e+00
  -1.658218e-01  -1.940355e-01   0.000000e+00
   0.000000e+00   0.000000e+00   0.000000e+00
   2.649175e-02   7.193178e-02   0.000000e+00
  -1.656670e-01  -2.781632e-01   0.000000e+00
   4.186550e-02   1.331022e-01   0.000000e+00
  -4.206215e-02  -9.370779e-02   0.000000e+00
  -9.647549e-03  -4.576759e-03   0.000000e+00
  -8.380040e-02   2.397317e-02   0.000000e+00
  -7.292441e-02  -5.873129e-02   0.000000e+00
  -9.602274e-02   2.052730e-01   0.000000e+00
   9.669992e-02  -2.289340e-02   0.000000e+00
VECTORS Imag_Arrow_2.511800e+01(Hz) float
  -1.788501e-02   6.595255e-03   0.000000e+00
   1.051717e-02  -5.615337e-02   0.000000e+00
   0.000000e+00   0.000000e+00   0.000000e+00
  -3.213754e-02  -1.586281e-01   0.000000e+00
  -6.851993e-02   1.230192e-02   0.000000e+00
  -4.239860e-02  -2.373818e-02   0.000000e+00
   1.021497e-02  -5.715621e-02   0.000000e+00
  -4.048385e-02   2.738203e-02   0.000000e+00
   3.611868e-02   1.200517e-02   0.000000e+00
  -1.358974e-01  -3.025653e-02   0.000000e+00
  -6.390775e-02   4.048108e-02   0.000000e+00
  -6.921352e-02   1.356399e-02   0.000000e+00
   0.000000e+00   0.000000e+00   0.000000e+00
  -1.883272e-01  -9.883462e-02   0.000000e+00
  -7.022135e-02  -1.442454e-03   0.000000e+00
  -1.452652e-01  -1.623097e-03   0.000000e+00
   4.903122e-02   1.029802e-01   0.000000e+00
   6.305298e-04  -1.557799e-02   0.000000e+00
  -1.570451e-01   7.181260e-02   0.000000e+00
  -7.177084e-02  -5.888356e-03   0.000000e+00
  -1.607663e-02  -2.196138e-02   0.000000e+00
  -1.015619e-01   4.877441e-03   0.000000e+00
  -1.140807e-02  -1.389017e-02   0.000000e+00
  -9.528077e-02   5.962836e-03   0.000000e+00
   0.000000e+00   0.000000e+00   0.000000e+00
  -6.376300e-02   4.879520e-02   0.000000e+00
  -9.603842e-02  -1.324157e-01   0.000000e+00
  -6.043393e-02  -1.051337e-01   0.000000e+00
  -4.462607e-02   7.772629e-04   0.000000e+00
   0.000000e+00   0.000000e+00   0.000000e+00
  -5.777629e-02   2.054386e-02   0.000000e+00
  -1.167836e-01   1.280890e-04   0.000000e+00
   3.956902e-02  -8.161851e-03   0.000000e+00
   2.508270e-02  -4.361897e-02   0.000000e+00
  -3.106641e-02   3.546846e-02   0.000000e+00
  -2.118518e-01   8.047797e-03   0.000000e+00
   0.000000e+00   0.000000e+00   0.000000e+00
  -6.579224e-02  -1.135474e-02   0.000000e+00
  -5.725357e-02  -2.027704e-01   0.000000e+00
  -8.383711e-02   2.010152e-01   0.000000e+00
  -1.503524e-02   6.483311e-02   0.000000e+00
  -4.252429e-02   3.398836e-03   0.000000e+00
   7.245351e-02   5.571208e-02   0.000000e+00
  -1.555581e-01  -2.330386e-02   0.000000e+00
  -8.271327e-02  -1.733177e-01   0.000000e+00
   3.077546e-02  -1.180788e-01   0.000000e+00
VECTORS Real_Arrow_3.981000e+01(Hz) float
  -3.669491e-02  -1.308006e-01   0.000000e+00
  -1.018237e-01   1.376151e-01   0.000000e+00
  -4.395950e-02   9.834016e-02   0.000000e+00
   5.371033e-02  -2.896665e-01   0.000000e+00
  -2.813198e-02  -1.422831e-01   0.000000e+00
  -9.482619e-03   2.884348e-02   0.000000e+00
   7.938857e-02  -9.285713e-02   0.000000e+00
   0.000000e+00   0.000000e+00   0.000000e+00
   2.398519e-01  -1.975606e-01   0.000000e+00
   5.316094e-02  -4.426470e-02   0.000000e+00
  -9.864205e-02   1.500784e-02   0.000000e+00
  -6.153944e-02   2.932981e-02   0.000000e+00
   0.000000e+00   0.000000e+00   0.000000e+00
  -1.077504e-01   1.020157e-01   0.000000e+00
   7.761514e-02   2.309221e-02   0.000000e+00
   8.169929e-02   3.854938e-02   0.000000e+00
  -1.331994e-01  -2.207589e-01   0.000000e+00
   3.087694e-02   4.112435e-02   0.000000e+00
   0.000000e+00   0.000000e+00   0.000000e+00
   1.195153e-01   1.924912e-02   0.000000e+00
  -1.115545e-01   2.436370e-02   0.000000e+00
  -3.154844e-02  -7.781787e-02   0.000000e+00
  -6.619369e-02   4.529652e-02   0.000000e+00
   2.192154e-04  -1.212385e-01   0.000000e+00
   0.000000e+00   0.000000e+00   0.000000e+00
   7.914935e-03  -1.669123e-02   0.000000e+00
  -1.515013e-02   5.056667e-02   0.000000e+00
   1.482674e-03   9.352996e-02   0.000000e+00
   0.000000e+00   0.000000e+00   0.000000e+00
   1.239241e-01  -1.102413e-01   0.000000e+00
   1.848728e-02  -1.731218e-02   0.000000e+00
  -8.994185e-02   5.234675e-03   0.000000e+00
   0.000000e+00   0.000000e+00   0.000000e+00
   2.316088e-01   2.607638e-01   0.000000e+00
   7.185760e-02  -1.827270e-01   0.000000e+00
  -6.681053e-02  -1.972932e-01   0.000000e+00
   0.000000e+00   0.000000e+00   0.000000e+00
   3.876190e-02   7.496771e-02   0.000000e+00
  -1.429832e-01  -1.832946e-01   0.000000e+00
   5.950285e-02   5.653110e-02   0.000000e+00
  -4.172834e-02  -1.073879e-01   0.000000e+00
  -1.202972e-02  -3.542926e-04   0.000000e+00
  -1.140302e-01  -8.961751e-03   0.000000e+00
  -1.003979e-02  -5.056022e-02   0.000000e+00
  -5.840112e-02   2.666573e-01   0.000000e+00
   7.852362e-02   1.685064e-02   0.000000e+00
VECTORS Imag_Arrow_3.981000e+01(Hz) float
   3.975205e-03  -2.046547e-02   0.000000e+00
   3.747233e-02  -6.783078e-02   0.000000e+00
   3.077009e-02  -4.204156e-02   0.000000e+00
  -1.816205e-02  -1.636592e-01   0.000000e+00
  -5.105633e-02  -1.064265e-02   0.000000e+00
  -4.736864e-02  -3.013290e-03   0.000000e+00
   1.911767e-02  -7.217877e-02   0.000000e+00
   0.000000e+00   0.000000e+00   0.000000e+00
   8.005571e-02   4.627391e-03   0.000000e+00
  -1.088945e-01  -3.460188e-02   0.000000e+00
  -6.640628e-02   3.313837e-02   0.000000e+00
  -4.565752e-02   1.980668e-02   0.000000e+00
   0.000000e+00   0.000000e+00   0.000000e+00
  -2.113413e-01  -6.738876e-02   0.000000e+00
  -3.087419e-02  -1.030792e-02   0.000000e+00
  -1.284222e-01   1.348652e-02   0.000000e+00
   3.913164e-02   9.348694e-02   0.000000e+00
   1.252608e-02  -3.652686e-02   0.000000e+00
   0.000000e+00   0.000000e+00   0.000000e+00
  -3.143527e-02  -1.460012e-02   0.000000e+00
  -1.810090e-02  -2.013377e-02   0.000000e+00
  -8.484555e-02  -5.049406e-03   0.000000e+00
  -7.239132e-03  -3.748019e-02   0.000000e+00
  -7.881604e-02   8.274126e-03   0.000000e+00
   0.000000e+00   0.000000e+00   0.000000e+00
  -3.078200e-02   6.355538e-02   0.000000e+00
  -1.044987e-01  -1.134633e-01   0.000000e+00
  -6.144732e-02  -8.313595e-02   0.000000e+00
   0.000000e+00   0.000000e+00   0.000000e+00
  -3.264203e-02   2.672453e-02   0.000000e+00
  -4.644690e-02   2.653335e-02   0.000000e+00
  -1.130602e-01   1.517379e-02   0.000000e+00
   0.000000e+00   0.000000e+00   0.000000e+00
   8.949512e-02   2.565278e-02   0.000000e+00
  -1.084659e-02   7.222385e-03   0.000000e+00
  -2.229255e-01  -2.126598e-03   0.000000e+00
   0.000000e+00   0.000000e+00   0.000000e+00
  -1.415881e-02   8.655264e-04   0.000000e+00
  -6.480686e-02  -2.129438e-01   0.000000e+00
  -6.063322e-02   2.031155e-01   0.000000e+00
  -6.976149e-03   5.757017e-02   0.000000e+00
  -1.891816e-02  -3.427685e-03   0.000000e+00
   6.317581e-02   6.622271e-02   0.000000e+00
  -1.457322e-01  -2.820538e-02   0.000000e+00
  -9.216614e-02  -1.404267e-01   0.000000e+00
   5.232524e-02  -1.074186e-01   0.000000e+00
VECTORS Real_Arrow_6.309500e+01(Hz) float
  -5.230910e-02  -1.135828e-01   0.000000e+00
  -1.365695e-01   1.741839e-01   0.000000e+00
  -6.918829e-02   1.224963e-01   0.000000e+00
   5.091728e-02  -2.322788e-01   0.000000e+00
  -2.206092e-02  -1.332594e-01   0.000000e+00
   1.162582e-02   2.149159e-02   0.000000e+00
   7.058543e-02  -6.267973e-02   0.000000e+00
   0.000000e+00   0.000000e+00   0.000000e+00
   0.000000e+00   0.000000e+00   0.000000e+00
   8.823793e-02  -3.131756e-02   0.000000e+00
  -7.338616e-02   8.671651e-03   0.000000e+00
  -5.667111e-02   1.566574e-02   0.000000e+00
   0.000000e+00   0.000000e+00   0.000000e+00
  -2.172128e-02   1.165591e-01   0.000000e+00
   7.153393e-02   3.270227e-02   0.000000e+00
   1.244217e-01   2.849839e-02   0.000000e+00
  -1.422955e-01  -2.546723e-01   0.000000e+00
   2.402955e-02   6.200527e-02   0.000000e+00
   0.000000e+00   0.000000e+00   0.000000e+00
   1.114368e-01   3.006000e-02   0.000000e+00
  -1.046673e-01   3.026471e-02   0.000000e+00
  -1.094851e-03  -7.060411e-02   0.000000e+00
  -6.278271e-02   7.081829e-02   0.000000e+00
   0.000000e+00   0.000000e+00   0.000000e+00
   0.000000e+00   0.000000e+00   0.000000e+00
   3.893091e-03  -5.512033e-02   0.000000e+00
   2.435524e-02   8.417725e-02   0.000000e+00
   2.640313e-02   1.136165e-01   0.000000e+00
   0.000000e+00   0.000000e+00   0.000000e+00
   1.193364e-01  -1.246108e-01   0.000000e+00
   3.151039e-02  -2.925235e-02   0.000000e+00
  -5.102718e-02  -1.013412e-02   0.000000e+00
   7.995017e-02   8.388797e-02   0.000000e+00
   1.731112e-01   2.308058e-01   0.000000e+00
   0.000000e+00   0.000000e+00   0.000000e+00
   2.559485e-02  -1.954709e-01   0.000000e+00
   3.902393e-02   3.119163e-01   0.000000e+00
   0.000000e+00   0.000000e+00   0.000000e+00
  -1.221482e-01  -9.812559e-02   0.000000e+00
   6.611685e-02  -2.022753e-02   0.000000e+00
  -3.999558e-02  -1.217779e-01   0.000000e+00
  -2.175433e-02   7.540762e-03   0.000000e+00
  -1.393190e-01  -4.010933e-02   0.000000e+00
   3.891786e-02  -4.244631e-02   0.000000e+00
  -2.305530e-02   3.083574e-01   0.000000e+00
   4.861956e-02   5.052381e-02   0.000000e+00
VECTORS Imag_Arrow_6.309500e+01(Hz) float
   5.703292e-03  -4.226364e-02   0.000000e+00
   3.485717e-02  -6.034897e-02   0.000000e+00
   3.318093e-02  -3.095797e-02   0.000000e+00
  -1.003063e-02  -1.562811e-01   0.000000e+00
  -4.460647e-02  -3.377540e-02   0.000000e+00
  -4.275415e-02   1.349421e-02   0.000000e+00
   2.806819e-02  -8.336273e-02   0.000000e+00
   0.000000e+00   0.000000e+00   0.000000e+00
   0.000000e+00   0.000000e+00   0.000000e+00
  -6.381164e-02  -3.604146e-02   0.000000e+00
  -5.781848e-02   2.775584e-02   0.000000e+00
  -2.624811e-02   1.723781e-02   0.000000e+00
   0.000000e+00   0.000000e+00   0.000000e+00
  -2.065793e-01  -2.893473e-02   0.000000e+00
   6.108245e-04  -1.334338e-02   0.000000e+00
  -9.279252e-02   2.553934e-02   0.000000e+00
   3.175250e-02   7.277655e-02   0.000000e+00
   2.148814e-02  -4.592869e-02   0.000000e+00
   0.000000e+00   0.000000e+00   0.000000e+00
  -6.503695e-04  -1.471524e-02   0.000000e+00
  -1.750183e-02  -1.969157e-02   0.000000e+00
  -5.664004e-02  -1.708605e-02   0.000000e+00
  -1.675304e-03  -4.773145e-02   0.000000e+00
   0.000000e+00   0.000000e+00   0.000000e+00
   0.000000e+00   0.000000e+00   0.000000e+00
  -6.303420e-03   5.470045e-02   0.000000e+00
  -1.007901e-01  -8.815485e-02   0.000000e+00
  -5.171527e-02  -6.033190e-02   0.000000e+00
   0.000000e+00   0.000000e+00   0.000000e+00
   3.394252e-03   1.180607e-02   0.000000e+00
  -3.539294e-02   2.474620e-02   0.000000e+00
  -1.038500e-01   1.886758e-02   0.000000e+00
   1.771345e-02   7.751641e-03   0.000000e+00
   1.276112e-01   8.655424e-02   0.000000e+00
   0.000000e+00   0.000000e+00   0.000000e+00
  -1.971432e-01  -1.291625e-02   0.000000e+00
  -7.357733e-02   3.984527e-02   0.000000e+00
   0.000000e+00   0.000000e+00   0.000000e+00
  -7.021160e-02  -1.875338e-01   0.000000e+00
  -4.818641e-02   1.878705e-01   0.000000e+00
   7.162980e-04   5.811562e-02   0.000000e+00
  -1.536426e-02  -1.974288e-03   0.000000e+00
   4.430697e-02   6.249695e-02   0.000000e+00
  -1.212535e-01  -3.224299e-02   0.000000e+00
  -8.996518e-02  -9.796361e-02   0.000000e+00
   6.340237e-02  -9.323869e-02   0.000000e+00
