# vtk DataFile Version 2.0
Induction_Arrow_Iter7_PE1
ASCII
DATASET UNSTRUCTURED_GRID
POINTS 46 float
  -2.052000e+03    1.667000e+03   -4.526633e+02
  -1.265000e+03    2.333000e+03   -4.555885e+02
  -9.840000e+02    2.568000e+03   -4.612271e+02
   1.700000e+03   -1.757000e+03   -5.237752e+02
  -1.152000e+03    1.382000e+03   -4.549280e+02
   3.187000e+03    1.067000e+03   -8.370176e+02
   4.716000e+03    9.370000e+02   -8.015281e+02
  -1.855000e+03    5.260000e+02   -5.147377e+02
  -1.420000e+02   -1.905000e+03   -4.746368e+02
  -5.800000e+01    1.069000e+03   -4.555494e+02
  -2.802000e+03    3.302000e+03   -4.314337e+02
  -5.640000e+03   -1.532000e+03   -4.911771e+02
  -8.030000e+02   -5.610000e+02   -5.280929e+02
   1.008000e+03    4.130000e+02   -5.983358e+02
   1.960000e+02    2.246000e+03   -5.219413e+02
  -3.457000e+03    8.320000e+02   -4.470735e+02
   5.640000e+03    2.452000e+03   -7.393049e+02
  -1.334000e+03    3.332000e+03   -4.456136e+02
   1.244000e+03    1.880000e+03   -6.331107e+02
  -2.680000e+02    2.144000e+03   -4.891390e+02
  -4.063000e+03    6.620000e+02   -4.746103e+02
  -1.258000e+03    6.330000e+02   -4.856841e+02
  -2.141000e+03    3.194000e+03   -4.348461e+02
  -3.469000e+03   -3.059000e+03   -6.067613e+02
  -1.604000e+03   -2.570000e+02   -5.141257e+02
  -1.454000e+03    2.220000e+02   -5.386025e+02
   1.864000e+03    1.270000e+02   -7.404291e+02
   2.449000e+03    5.590000e+02   -7.805292e+02
  -1.834000e+03   -1.554000e+03   -6.273074e+02
   1.807000e+03    2.297000e+03   -6.825557e+02
  -2.560000e+03   -1.783000e+03   -6.131337e+02
  -2.741000e+03   -5.010000e+02   -5.080000e+02
   2.884000e+03   -2.179000e+03   -5.274708e+02
  -6.120000e+02   -8.960000e+02   -5.895389e+02
  -1.985000e+03   -2.653000e+03   -5.598834e+02
  -3.390000e+03   -4.000000e+02   -4.982361e+02
   1.586000e+03    1.342000e+03   -6.618442e+02
   1.047000e+03    2.401000e+03   -5.426792e+02
   8.380000e+02   -1.300000e+03   -4.783644e+02
   2.569000e+03    2.441000e+03   -6.035668e+02
  -2.028000e+03    2.833000e+03   -4.322286e+02
  -1.086000e+03    1.998000e+03   -4.563301e+02
   1.514000e+03   -3.332000e+03   -5.646205e+02
   7.040000e+02    1.116000e+03   -5.365099e+02
   1.990000e+03    6.360000e+02   -7.085272e+02
   3.722000e+03   -1.700000e+02   -6.745213e+02
CELLS 46 92
1 0
1 1
1 2
1 3
1 4
1 5
1 6
1 7
1 8
1 9
1 10
1 11
1 12
1 13
1 14
1 15
1 16
1 17
1 18
1 19
1 20
1 21
1 22
1 23
1 24
1 25
1 26
1 27
1 28
1 29
1 30
1 31
1 32
1 33
1 34
1 35
1 36
1 37
1 38
1 39
1 40
1 41
1 42
1 43
1 44
1 45
CELL_TYPES 46
1
1
1
1
1
1
1
1
1
1
1
1
1
1
1
1
1
1
1
1
1
1
1
1
1
1
1
1
1
1
1
1
1
1
1
1
1
1
1
1
1
1
1
1
1
1
POINT_DATA 46
VECTORS Real_Arrow_1.000000e-01(Hz) float
   0.000000e+00   0.000000e+00   0.000000e+00
   0.000000e+00   0.000000e+00   0.000000e+00
   0.000000e+00   0.000000e+00   0.000000e+00
   0.000000e+00   0.000000e+00   0.000000e+00
   0.000000e+00   0.000000e+00   0.000000e+00
   0.000000e+00   0.000000e+00   0.000000e+00
   0.000000e+00   0.000000e+00   0.000000e+00
   0.000000e+00   0.000000e+00   0.000000e+00
   0.000000e+00   0.000000e+00   0.000000e+00
  -9.063882e-03  -1.211827e-01   0.000000e+00
  -9.493870e-02  -2.409064e-02   0.000000e+00
   0.000000e+00   0.000000e+00   0.000000e+00
   0.000000e+00   0.000000e+00   0.000000e+00
   0.000000e+00   0.000000e+00   0.000000e+00
   0.000000e+00   0.000000e+00   0.000000e+00
   0.000000e+00   0.000000e+00   0.000000e+00
   0.000000e+00   0.000000e+00   0.000000e+00
   0.000000e+00   0.000000e+00   0.000000e+00
   0.000000e+00   0.000000e+00   0.000000e+00
   0.000000e+00   0.000000e+00   0.000000e+00
   0.000000e+00   0.000000e+00   0.000000e+00
   0.000000e+00   0.000000e+00   0.000000e+00
   0.000000e+00   0.000000e+00   0.000000e+00
   0.000000e+00   0.000000e+00   0.000000e+00
   0.000000e+00   0.000000e+00   0.000000e+00
   0.000000e+00   0.000000e+00   0.000000e+00
   7.465583e-02  -1.724258e-01   0.000000e+00
   0.000000e+00   0.000000e+00   0.000000e+00
   0.000000e+00   0.000000e+00   0.000000e+00
   0.000000e+00   0.000000e+00   0.000000e+00
  -2.980601e-02  -7.493121e-02   0.000000e+00
   0.000000e+00   0.000000e+00   0.000000e+00
   0.000000e+00   0.000000e+00   0.000000e+00
   4.455987e-02  -1.032287e-01   0.000000e+00
   0.000000e+00   0.000000e+00   0.000000e+00
   0.000000e+00   0.000000e+00   0.000000e+00
   0.000000e+00   0.000000e+00   0.000000e+00
   0.000000e+00   0.000000e+00   0.000000e+00
   0.000000e+00   0.000000e+00   0.000000e+00
   5.019831e-02   5.955739e-02   0.000000e+00
   0.000000e+00   0.000000e+00   0.000000e+00
   0.000000e+00   0.000000e+00   0.000000e+00
   0.000000e+00   0.000000e+00   0.000000e+00
   0.000000e+00   0.000000e+00   0.000000e+00
   0.000000e+00   0.000000e+00   0.000000e+00
   0.000000e+00   0.000000e+00   0.000000e+00
VECTORS Imag_Arrow_1.000000e-01(Hz) float
   0.000000e+00   0.000000e+00   0.000000e+00
   0.000000e+00   0.000000e+00   0.000000e+00
   0.000000e+00   0.000000e+00   0.000000e+00
   0.000000e+00   0.000000e+00   0.000000e+00
   0.000000e+00   0.000000e+00   0.000000e+00
   0.000000e+00   0.000000e+00   0.000000e+00
   0.000000e+00   0.000000e+00   0.000000e+00
   0.000000e+00   0.000000e+00   0.000000e+00
   0.000000e+00   0.000000e+00   0.000000e+00
   1.022270e-01  -2.994774e-03   0.000000e+00
   1.047072e-01  -3.498516e-02   0.000000e+00
   0.000000e+00   0.000000e+00   0.000000e+00
   0.000000e+00   0.000000e+00   0.000000e+00
   0.000000e+00   0.000000e+00   0.000000e+00
   0.000000e+00   0.000000e+00   0.000000e+00
   0.000000e+00   0.000000e+00   0.000000e+00
   0.000000e+00   0.000000e+00   0.000000e+00
   0.000000e+00   0.000000e+00   0.000000e+00
   0.000000e+00   0.000000e+00   0.000000e+00
   0.000000e+00   0.000000e+00   0.000000e+00
   0.000000e+00   0.000000e+00   0.000000e+00
   0.000000e+00   0.000000e+00   0.000000e+00
   0.000000e+00   0.000000e+00   0.000000e+00
   0.000000e+00   0.000000e+00   0.000000e+00
   0.000000e+00   0.000000e+00   0.000000e+00
   0.000000e+00   0.000000e+00   0.000000e+00
   8.427865e-02   1.524370e-02   0.000000e+00
   0.000000e+00   0.000000e+00   0.000000e+00
   0.000000e+00   0.000000e+00   0.000000e+00
   0.000000e+00   0.000000e+00   0.000000e+00
   6.132894e-02  -9.136973e-03   0.000000e+00
   0.000000e+00   0.000000e+00   0.000000e+00
   0.000000e+00   0.000000e+00   0.000000e+00
   4.129701e-02  -1.018343e-02   0.000000e+00
   0.000000e+00   0.000000e+00   0.000000e+00
   0.000000e+00   0.000000e+00   0.000000e+00
   0.000000e+00   0.000000e+00   0.000000e+00
   0.000000e+00   0.000000e+00   0.000000e+00
   0.000000e+00   0.000000e+00   0.000000e+00
   1.058534e-01  -5.518090e-02   0.000000e+00
   0.000000e+00   0.000000e+00   0.000000e+00
   0.000000e+00   0.000000e+00   0.000000e+00
   0.000000e+00   0.000000e+00   0.000000e+00
   0.000000e+00   0.000000e+00   0.000000e+00
   0.000000e+00   0.000000e+00   0.000000e+00
   0.000000e+00   0.000000e+00   0.000000e+00
VECTORS Real_Arrow_1.584800e-01(Hz) float
   0.000000e+00   0.000000e+00   0.000000e+00
   0.000000e+00   0.000000e+00   0.000000e+00
   0.000000e+00   0.000000e+00   0.000000e+00
   0.000000e+00   0.000000e+00   0.000000e+00
   0.000000e+00   0.000000e+00   0.000000e+00
   0.000000e+00   0.000000e+00   0.000000e+00
   0.000000e+00   0.000000e+00   0.000000e+00
   0.000000e+00   0.000000e+00   0.000000e+00
   0.000000e+00   0.000000e+00   0.000000e+00
  -4.511613e-02  -1.208528e-01   0.000000e+00
  -1.296540e-01  -1.331179e-02   0.000000e+00
   0.000000e+00   0.000000e+00   0.000000e+00
   0.000000e+00   0.000000e+00   0.000000e+00
   0.000000e+00   0.000000e+00   0.000000e+00
   0.000000e+00   0.000000e+00   0.000000e+00
   0.000000e+00   0.000000e+00   0.000000e+00
   0.000000e+00   0.000000e+00   0.000000e+00
   0.000000e+00   0.000000e+00   0.000000e+00
   0.000000e+00   0.000000e+00   0.000000e+00
   0.000000e+00   0.000000e+00   0.000000e+00
   0.000000e+00   0.000000e+00   0.000000e+00
   0.000000e+00   0.000000e+00   0.000000e+00
   0.000000e+00   0.000000e+00   0.000000e+00
   0.000000e+00   0.000000e+00   0.000000e+00
   0.000000e+00   0.000000e+00   0.000000e+00
   0.000000e+00   0.000000e+00   0.000000e+00
   4.392394e-02  -1.785274e-01   0.000000e+00
   0.000000e+00   0.000000e+00   0.000000e+00
   0.000000e+00   0.000000e+00   0.000000e+00
   4.639256e-02  -1.047823e-01   0.000000e+00
  -4.740102e-02  -7.311940e-02   0.000000e+00
   0.000000e+00   0.000000e+00   0.000000e+00
   0.000000e+00   0.000000e+00   0.000000e+00
   3.062613e-02  -1.026525e-01   0.000000e+00
   0.000000e+00   0.000000e+00   0.000000e+00
   0.000000e+00   0.000000e+00   0.000000e+00
   0.000000e+00   0.000000e+00   0.000000e+00
   0.000000e+00   0.000000e+00   0.000000e+00
   0.000000e+00   0.000000e+00   0.000000e+00
   1.101548e-02   7.315273e-02   0.000000e+00
  -7.706991e-02  -5.410257e-02   0.000000e+00
   0.000000e+00   0.000000e+00   0.000000e+00
   0.000000e+00   0.000000e+00   0.000000e+00
   0.000000e+00   0.000000e+00   0.000000e+00
   0.000000e+00   0.000000e+00   0.000000e+00
   0.000000e+00   0.000000e+00   0.000000e+00
VECTORS Imag_Arrow_1.584800e-01(Hz) float
   0.000000e+00   0.000000e+00   0.000000e+00
   0.000000e+00   0.000000e+00   0.000000e+00
   0.000000e+00   0.000000e+00   0.000000e+00
   0.000000e+00   0.000000e+00   0.000000e+00
   0.000000e+00   0.000000e+00   0.000000e+00
   0.000000e+00   0.000000e+00   0.000000e+00
   0.000000e+00   0.000000e+00   0.000000e+00
   0.000000e+00   0.000000e+00   0.000000e+00
   0.000000e+00   0.000000e+00   0.000000e+00
   1.062896e-01  -7.158656e-03   0.000000e+00
   1.002748e-01  -4.107402e-02   0.000000e+00
   0.000000e+00   0.000000e+00   0.000000e+00
   0.000000e+00   0.000000e+00   0.000000e+00
   0.000000e+00   0.000000e+00   0.000000e+00
   0.000000e+00   0.000000e+00   0.000000e+00
   0.000000e+00   0.000000e+00   0.000000e+00
   0.000000e+00   0.000000e+00   0.000000e+00
   0.000000e+00   0.000000e+00   0.000000e+00
   0.000000e+00   0.000000e+00   0.000000e+00
   0.000000e+00   0.000000e+00   0.000000e+00
   0.000000e+00   0.000000e+00   0.000000e+00
   0.000000e+00   0.000000e+00   0.000000e+00
   0.000000e+00   0.000000e+00   0.000000e+00
   0.000000e+00   0.000000e+00   0.000000e+00
   0.000000e+00   0.000000e+00   0.000000e+00
   0.000000e+00   0.000000e+00   0.000000e+00
   9.380606e-02   1.235850e-02   0.000000e+00
   0.000000e+00   0.000000e+00   0.000000e+00
   0.000000e+00   0.000000e+00   0.000000e+00
   8.413362e-02  -3.859288e-03   0.000000e+00
   5.617293e-02  -9.355068e-03   0.000000e+00
   0.000000e+00   0.000000e+00   0.000000e+00
   0.000000e+00   0.000000e+00   0.000000e+00
   3.614646e-02  -1.479304e-02   0.000000e+00
   0.000000e+00   0.000000e+00   0.000000e+00
   0.000000e+00   0.000000e+00   0.000000e+00
   0.000000e+00   0.000000e+00   0.000000e+00
   0.000000e+00   0.000000e+00   0.000000e+00
   0.000000e+00   0.000000e+00   0.000000e+00
   1.105203e-01  -6.315472e-02   0.000000e+00
   8.156808e-02  -2.675288e-02   0.000000e+00
   0.000000e+00   0.000000e+00   0.000000e+00
   0.000000e+00   0.000000e+00   0.000000e+00
   0.000000e+00   0.000000e+00   0.000000e+00
   0.000000e+00   0.000000e+00   0.000000e+00
   0.000000e+00   0.000000e+00   0.000000e+00
VECTORS Real_Arrow_2.511800e-01(Hz) float
   0.000000e+00   0.000000e+00   0.000000e+00
   0.000000e+00   0.000000e+00   0.000000e+00
   0.000000e+00   0.000000e+00   0.000000e+00
   0.000000e+00   0.000000e+00   0.000000e+00
   0.000000e+00   0.000000e+00   0.000000e+00
   0.000000e+00   0.000000e+00   0.000000e+00
   0.000000e+00   0.000000e+00   0.000000e+00
   0.000000e+00   0.000000e+00   0.000000e+00
   0.000000e+00   0.000000e+00   0.000000e+00
  -8.338252e-02  -1.180394e-01   0.000000e+00
   0.000000e+00   0.000000e+00   0.000000e+00
   0.000000e+00   0.000000e+00   0.000000e+00
   0.000000e+00   0.000000e+00   0.000000e+00
   0.000000e+00   0.000000e+00   0.000000e+00
  -6.177599e-02  -5.334651e-02   0.000000e+00
   0.000000e+00   0.000000e+00   0.000000e+00
   0.000000e+00   0.000000e+00   0.000000e+00
   0.000000e+00   0.000000e+00   0.000000e+00
   0.000000e+00   0.000000e+00   0.000000e+00
   0.000000e+00   0.000000e+00   0.000000e+00
   0.000000e+00   0.000000e+00   0.000000e+00
   0.000000e+00   0.000000e+00   0.000000e+00
   0.000000e+00   0.000000e+00   0.000000e+00
   0.000000e+00   0.000000e+00   0.000000e+00
   0.000000e+00   0.000000e+00   0.000000e+00
   0.000000e+00   0.000000e+00   0.000000e+00
   0.000000e+00   0.000000e+00   0.000000e+00
   0.000000e+00   0.000000e+00   0.000000e+00
   0.000000e+00   0.000000e+00   0.000000e+00
   1.441565e-02  -1.031511e-01   0.000000e+00
   0.000000e+00   0.000000e+00   0.000000e+00
   0.000000e+00   0.000000e+00   0.000000e+00
   0.000000e+00   0.000000e+00   0.000000e+00
   1.737221e-02  -1.002923e-01   0.000000e+00
   0.000000e+00   0.000000e+00   0.000000e+00
   0.000000e+00   0.000000e+00   0.000000e+00
   0.000000e+00   0.000000e+00   0.000000e+00
   0.000000e+00   0.000000e+00   0.000000e+00
  -4.017269e-02  -2.912309e-01   0.000000e+00
  -2.972102e-02   9.047927e-02   0.000000e+00
  -1.054271e-01  -4.442213e-02   0.000000e+00
   0.000000e+00   0.000000e+00   0.000000e+00
   0.000000e+00   0.000000e+00   0.000000e+00
   0.000000e+00   0.000000e+00   0.000000e+00
   0.000000e+00   0.000000e+00   0.000000e+00
   0.000000e+00   0.000000e+00   0.000000e+00
VECTORS Imag_Arrow_2.511800e-01(Hz) float
   0.000000e+00   0.000000e+00   0.000000e+00
   0.000000e+00   0.000000e+00   0.000000e+00
   0.000000e+00   0.000000e+00   0.000000e+00
   0.000000e+00   0.000000e+00   0.000000e+00
   0.000000e+00   0.000000e+00   0.000000e+00
   0.000000e+00   0.000000e+00   0.000000e+00
   0.000000e+00   0.000000e+00   0.000000e+00
   0.000000e+00   0.000000e+00   0.000000e+00
   0.000000e+00   0.000000e+00   0.000000e+00
   1.027020e-01  -1.114277e-02   0.000000e+00
   0.000000e+00   0.000000e+00   0.000000e+00
   0.000000e+00   0.000000e+00   0.000000e+00
   0.000000e+00   0.000000e+00   0.000000e+00
   0.000000e+00   0.000000e+00   0.000000e+00
   8.806494e-02  -3.300053e-02   0.000000e+00
   0.000000e+00   0.000000e+00   0.000000e+00
   0.000000e+00   0.000000e+00   0.000000e+00
   0.000000e+00   0.000000e+00   0.000000e+00
   0.000000e+00   0.000000e+00   0.000000e+00
   0.000000e+00   0.000000e+00   0.000000e+00
   0.000000e+00   0.000000e+00   0.000000e+00
   0.000000e+00   0.000000e+00   0.000000e+00
   0.000000e+00   0.000000e+00   0.000000e+00
   0.000000e+00   0.000000e+00   0.000000e+00
   0.000000e+00   0.000000e+00   0.000000e+00
   0.000000e+00   0.000000e+00   0.000000e+00
   0.000000e+00   0.000000e+00   0.000000e+00
   0.000000e+00   0.000000e+00   0.000000e+00
   0.000000e+00   0.000000e+00   0.000000e+00
   8.264087e-02  -6.251980e-03   0.000000e+00
   0.000000e+00   0.000000e+00   0.000000e+00
   0.000000e+00   0.000000e+00   0.000000e+00
   0.000000e+00   0.000000e+00   0.000000e+00
   2.665109e-02  -2.157249e-02   0.000000e+00
   0.000000e+00   0.000000e+00   0.000000e+00
   0.000000e+00   0.000000e+00   0.000000e+00
   0.000000e+00   0.000000e+00   0.000000e+00
   0.000000e+00   0.000000e+00   0.000000e+00
   1.082987e-01   4.433044e-02   0.000000e+00
   1.057390e-01  -7.422447e-02   0.000000e+00
   7.189064e-02  -3.073561e-02   0.000000e+00
   0.000000e+00   0.000000e+00   0.000000e+00
   0.000000e+00   0.000000e+00   0.000000e+00
   0.000000e+00   0.000000e+00   0.000000e+00
   0.000000e+00   0.000000e+00   0.000000e+00
   0.000000e+00   0.000000e+00   0.000000e+00
