# vtk DataFile Version 2.0
Induction_Arrow_Iter1_PE1
ASCII
DATASET UNSTRUCTURED_GRID
POINTS 46 float
  -2.052000e+03    1.667000e+03   -4.526633e+02
  -1.265000e+03    2.333000e+03   -4.555885e+02
  -9.840000e+02    2.568000e+03   -4.612271e+02
   1.700000e+03   -1.757000e+03   -5.237752e+02
  -1.152000e+03    1.382000e+03   -4.549280e+02
   3.187000e+03    1.067000e+03   -8.370176e+02
   4.716000e+03    9.370000e+02   -8.015281e+02
  -1.855000e+03    5.260000e+02   -5.147377e+02
  -1.420000e+02   -1.905000e+03   -4.746368e+02
  -5.800000e+01    1.069000e+03   -4.555494e+02
  -2.802000e+03    3.302000e+03   -4.314337e+02
  -5.640000e+03   -1.532000e+03   -4.911771e+02
  -8.030000e+02   -5.610000e+02   -5.280929e+02
   1.008000e+03    4.130000e+02   -5.983358e+02
   1.960000e+02    2.246000e+03   -5.219413e+02
  -3.457000e+03    8.320000e+02   -4.470735e+02
   5.640000e+03    2.452000e+03   -7.393049e+02
  -1.334000e+03    3.332000e+03   -4.456136e+02
   1.244000e+03    1.880000e+03   -6.331107e+02
  -2.680000e+02    2.144000e+03   -4.891390e+02
  -4.063000e+03    6.620000e+02   -4.746103e+02
  -1.258000e+03    6.330000e+02   -4.856841e+02
  -2.141000e+03    3.194000e+03   -4.348461e+02
  -3.469000e+03   -3.059000e+03   -6.067613e+02
  -1.604000e+03   -2.570000e+02   -5.141257e+02
  -1.454000e+03    2.220000e+02   -5.386025e+02
   1.864000e+03    1.270000e+02   -7.404291e+02
   2.449000e+03    5.590000e+02   -7.805292e+02
  -1.834000e+03   -1.554000e+03   -6.273074e+02
   1.807000e+03    2.297000e+03   -6.825557e+02
  -2.560000e+03   -1.783000e+03   -6.131337e+02
  -2.741000e+03   -5.010000e+02   -5.080000e+02
   2.884000e+03   -2.179000e+03   -5.274708e+02
  -6.120000e+02   -8.960000e+02   -5.895389e+02
  -1.985000e+03   -2.653000e+03   -5.598834e+02
  -3.390000e+03   -4.000000e+02   -4.982361e+02
   1.586000e+03    1.342000e+03   -6.618442e+02
   1.047000e+03    2.401000e+03   -5.426792e+02
   8.380000e+02   -1.300000e+03   -4.783644e+02
   2.569000e+03    2.441000e+03   -6.035668e+02
  -2.028000e+03    2.833000e+03   -4.322286e+02
  -1.086000e+03    1.998000e+03   -4.563301e+02
   1.514000e+03   -3.332000e+03   -5.646205e+02
   7.040000e+02    1.116000e+03   -5.365099e+02
   1.990000e+03    6.360000e+02   -7.085272e+02
   3.722000e+03   -1.700000e+02   -6.745213e+02
CELLS 46 92
1 0
1 1
1 2
1 3
1 4
1 5
1 6
1 7
1 8
1 9
1 10
1 11
1 12
1 13
1 14
1 15
1 16
1 17
1 18
1 19
1 20
1 21
1 22
1 23
1 24
1 25
1 26
1 27
1 28
1 29
1 30
1 31
1 32
1 33
1 34
1 35
1 36
1 37
1 38
1 39
1 40
1 41
1 42
1 43
1 44
1 45
CELL_TYPES 46
1
1
1
1
1
1
1
1
1
1
1
1
1
1
1
1
1
1
1
1
1
1
1
1
1
1
1
1
1
1
1
1
1
1
1
1
1
1
1
1
1
1
1
1
1
1
POINT_DATA 46
VECTORS Real_Arrow_3.981000e-01(Hz) float
   0.000000e+00   0.000000e+00   0.000000e+00
   0.000000e+00   0.000000e+00   0.000000e+00
   0.000000e+00   0.000000e+00   0.000000e+00
   4.764293e-03  -3.685750e-01   0.000000e+00
   0.000000e+00   0.000000e+00   0.000000e+00
   0.000000e+00   0.000000e+00   0.000000e+00
   0.000000e+00   0.000000e+00   0.000000e+00
   0.000000e+00   0.000000e+00   0.000000e+00
   0.000000e+00   0.000000e+00   0.000000e+00
  -1.158379e-01  -1.122385e-01   0.000000e+00
  -1.700083e-01   6.104264e-03   0.000000e+00
   0.000000e+00   0.000000e+00   0.000000e+00
   0.000000e+00   0.000000e+00   0.000000e+00
   0.000000e+00   0.000000e+00   0.000000e+00
   0.000000e+00   0.000000e+00   0.000000e+00
   0.000000e+00   0.000000e+00   0.000000e+00
   6.857641e-02  -8.463699e-02   0.000000e+00
   0.000000e+00   0.000000e+00   0.000000e+00
   0.000000e+00   0.000000e+00   0.000000e+00
   0.000000e+00   0.000000e+00   0.000000e+00
   0.000000e+00   0.000000e+00   0.000000e+00
   0.000000e+00   0.000000e+00   0.000000e+00
   0.000000e+00   0.000000e+00   0.000000e+00
   0.000000e+00   0.000000e+00   0.000000e+00
   0.000000e+00   0.000000e+00   0.000000e+00
   0.000000e+00   0.000000e+00   0.000000e+00
  -2.351171e-02  -1.809765e-01   0.000000e+00
   5.309560e-03  -1.478816e-01   0.000000e+00
   0.000000e+00   0.000000e+00   0.000000e+00
  -1.267280e-02  -7.712523e-02   0.000000e+00
   0.000000e+00   0.000000e+00   0.000000e+00
   0.000000e+00   0.000000e+00   0.000000e+00
   0.000000e+00   0.000000e+00   0.000000e+00
   1.911171e-03  -9.762374e-02   0.000000e+00
   0.000000e+00   0.000000e+00   0.000000e+00
   0.000000e+00   0.000000e+00   0.000000e+00
   0.000000e+00   0.000000e+00   0.000000e+00
   0.000000e+00   0.000000e+00   0.000000e+00
  -7.774771e-02  -3.001509e-01   0.000000e+00
  -6.678424e-02   1.052241e-01   0.000000e+00
  -1.138153e-01  -3.749613e-02   0.000000e+00
   0.000000e+00   0.000000e+00   0.000000e+00
   0.000000e+00   0.000000e+00   0.000000e+00
   0.000000e+00   0.000000e+00   0.000000e+00
   0.000000e+00   0.000000e+00   0.000000e+00
   0.000000e+00   0.000000e+00   0.000000e+00
VECTORS Imag_Arrow_3.981000e-01(Hz) float
   0.000000e+00   0.000000e+00   0.000000e+00
   0.000000e+00   0.000000e+00   0.000000e+00
   0.000000e+00   0.000000e+00   0.000000e+00
   7.337249e-02   6.272646e-02   0.000000e+00
   0.000000e+00   0.000000e+00   0.000000e+00
   0.000000e+00   0.000000e+00   0.000000e+00
   0.000000e+00   0.000000e+00   0.000000e+00
   0.000000e+00   0.000000e+00   0.000000e+00
   0.000000e+00   0.000000e+00   0.000000e+00
   9.638496e-02  -1.663164e-02   0.000000e+00
   7.341109e-02  -5.161985e-02   0.000000e+00
   0.000000e+00   0.000000e+00   0.000000e+00
   0.000000e+00   0.000000e+00   0.000000e+00
   0.000000e+00   0.000000e+00   0.000000e+00
   0.000000e+00   0.000000e+00   0.000000e+00
   0.000000e+00   0.000000e+00   0.000000e+00
   9.803850e-02  -2.057094e-02   0.000000e+00
   0.000000e+00   0.000000e+00   0.000000e+00
   0.000000e+00   0.000000e+00   0.000000e+00
   0.000000e+00   0.000000e+00   0.000000e+00
   0.000000e+00   0.000000e+00   0.000000e+00
   0.000000e+00   0.000000e+00   0.000000e+00
   0.000000e+00   0.000000e+00   0.000000e+00
   0.000000e+00   0.000000e+00   0.000000e+00
   0.000000e+00   0.000000e+00   0.000000e+00
   0.000000e+00   0.000000e+00   0.000000e+00
   9.500776e-02   2.690687e-03   0.000000e+00
   8.703943e-02  -9.838025e-03   0.000000e+00
   0.000000e+00   0.000000e+00   0.000000e+00
   7.628531e-02  -1.598903e-02   0.000000e+00
   0.000000e+00   0.000000e+00   0.000000e+00
   0.000000e+00   0.000000e+00   0.000000e+00
   0.000000e+00   0.000000e+00   0.000000e+00
   2.009049e-02  -3.240862e-02   0.000000e+00
   0.000000e+00   0.000000e+00   0.000000e+00
   0.000000e+00   0.000000e+00   0.000000e+00
   0.000000e+00   0.000000e+00   0.000000e+00
   0.000000e+00   0.000000e+00   0.000000e+00
   1.094003e-01   4.574249e-02   0.000000e+00
   9.733838e-02  -8.346711e-02   0.000000e+00
   5.811143e-02  -3.569031e-02   0.000000e+00
   0.000000e+00   0.000000e+00   0.000000e+00
   0.000000e+00   0.000000e+00   0.000000e+00
   0.000000e+00   0.000000e+00   0.000000e+00
   0.000000e+00   0.000000e+00   0.000000e+00
   0.000000e+00   0.000000e+00   0.000000e+00
VECTORS Real_Arrow_6.309500e-01(Hz) float
   0.000000e+00   0.000000e+00   0.000000e+00
  -1.718800e-01  -4.889324e-03   0.000000e+00
   0.000000e+00   0.000000e+00   0.000000e+00
  -2.134760e-02  -3.912827e-01   0.000000e+00
  -1.575989e-01  -9.499046e-02   0.000000e+00
   0.000000e+00   0.000000e+00   0.000000e+00
   9.623654e-02  -1.513689e-01   0.000000e+00
   0.000000e+00   0.000000e+00   0.000000e+00
   0.000000e+00   0.000000e+00   0.000000e+00
  -1.494671e-01  -1.077453e-01   0.000000e+00
  -1.933435e-01   2.422710e-02   0.000000e+00
   0.000000e+00   0.000000e+00   0.000000e+00
   0.000000e+00   0.000000e+00   0.000000e+00
  -1.610278e-01  -1.388270e-01   0.000000e+00
  -1.111426e-01  -3.075529e-02   0.000000e+00
   0.000000e+00   0.000000e+00   0.000000e+00
   3.780995e-02  -7.621774e-02   0.000000e+00
   0.000000e+00   0.000000e+00   0.000000e+00
   0.000000e+00   0.000000e+00   0.000000e+00
   0.000000e+00   0.000000e+00   0.000000e+00
   0.000000e+00   0.000000e+00   0.000000e+00
   0.000000e+00   0.000000e+00   0.000000e+00
  -1.491775e-01   1.407271e-02   0.000000e+00
   0.000000e+00   0.000000e+00   0.000000e+00
   0.000000e+00   0.000000e+00   0.000000e+00
   0.000000e+00   0.000000e+00   0.000000e+00
  -5.622613e-02  -1.849645e-01   0.000000e+00
  -2.457491e-02  -1.478619e-01   0.000000e+00
   0.000000e+00   0.000000e+00   0.000000e+00
  -4.045539e-02  -7.180708e-02   0.000000e+00
  -1.004346e-01  -7.452335e-02   0.000000e+00
  -1.824270e-01  -7.425553e-02   0.000000e+00
   0.000000e+00   0.000000e+00   0.000000e+00
  -7.075264e-03  -9.222127e-02   0.000000e+00
   0.000000e+00   0.000000e+00   0.000000e+00
   0.000000e+00   0.000000e+00   0.000000e+00
  -1.192345e-01  -3.483148e-02   0.000000e+00
   0.000000e+00   0.000000e+00   0.000000e+00
   0.000000e+00   0.000000e+00   0.000000e+00
  -1.002694e-01   1.319293e-01   0.000000e+00
  -1.327987e-01  -2.395213e-02   0.000000e+00
  -1.482302e-01  -4.194692e-02   0.000000e+00
   0.000000e+00   0.000000e+00   0.000000e+00
  -1.518263e-01  -1.033421e-01   0.000000e+00
   0.000000e+00   0.000000e+00   0.000000e+00
   0.000000e+00   0.000000e+00   0.000000e+00
VECTORS Imag_Arrow_6.309500e-01(Hz) float
   0.000000e+00   0.000000e+00   0.000000e+00
   6.289009e-02  -5.572308e-02   0.000000e+00
   0.000000e+00   0.000000e+00   0.000000e+00
   5.778187e-02   6.667621e-02   0.000000e+00
   6.446981e-02  -1.568193e-02   0.000000e+00
   0.000000e+00   0.000000e+00   0.000000e+00
   4.894591e-02  -1.675222e-03   0.000000e+00
   0.000000e+00   0.000000e+00   0.000000e+00
   0.000000e+00   0.000000e+00   0.000000e+00
   7.827340e-02  -1.973500e-02   0.000000e+00
   5.301002e-02  -5.488627e-02   0.000000e+00
   0.000000e+00   0.000000e+00   0.000000e+00
   0.000000e+00   0.000000e+00   0.000000e+00
   1.215392e-01  -1.767346e-02   0.000000e+00
   5.679495e-02  -4.369229e-02   0.000000e+00
   0.000000e+00   0.000000e+00   0.000000e+00
   8.485812e-02  -1.884029e-02   0.000000e+00
   0.000000e+00   0.000000e+00   0.000000e+00
   0.000000e+00   0.000000e+00   0.000000e+00
   0.000000e+00   0.000000e+00   0.000000e+00
   0.000000e+00   0.000000e+00   0.000000e+00
   0.000000e+00   0.000000e+00   0.000000e+00
   4.021383e-02  -5.487992e-02   0.000000e+00
   0.000000e+00   0.000000e+00   0.000000e+00
   0.000000e+00   0.000000e+00   0.000000e+00
   0.000000e+00   0.000000e+00   0.000000e+00
   8.277613e-02  -1.567624e-03   0.000000e+00
   7.429404e-02  -1.613813e-02   0.000000e+00
   0.000000e+00   0.000000e+00   0.000000e+00
   5.978532e-02  -1.682789e-02   0.000000e+00
   4.089369e-02  -1.283119e-02   0.000000e+00
   7.168731e-02  -1.584554e-02   0.000000e+00
   0.000000e+00   0.000000e+00   0.000000e+00
   8.174713e-04  -4.481036e-02   0.000000e+00
   0.000000e+00   0.000000e+00   0.000000e+00
   0.000000e+00   0.000000e+00   0.000000e+00
   9.370613e-02  -5.717777e-02   0.000000e+00
   0.000000e+00   0.000000e+00   0.000000e+00
   0.000000e+00   0.000000e+00   0.000000e+00
   7.799343e-02  -9.797728e-02   0.000000e+00
   3.776449e-02  -3.673922e-02   0.000000e+00
   5.685308e-02  -3.974576e-02   0.000000e+00
   0.000000e+00   0.000000e+00   0.000000e+00
   9.938194e-02  -2.067654e-02   0.000000e+00
   0.000000e+00   0.000000e+00   0.000000e+00
   0.000000e+00   0.000000e+00   0.000000e+00
VECTORS Real_Arrow_1.000000e+00(Hz) float
  -1.559345e-01  -7.497486e-02   0.000000e+00
  -1.914744e-01   1.426148e-02   0.000000e+00
   0.000000e+00   0.000000e+00   0.000000e+00
  -4.005052e-02  -4.182266e-01   0.000000e+00
  -1.784290e-01  -8.835958e-02   0.000000e+00
   0.000000e+00   0.000000e+00   0.000000e+00
   8.383946e-02  -1.519923e-01   0.000000e+00
  -1.938827e-01  -3.935933e-02   0.000000e+00
   0.000000e+00   0.000000e+00   0.000000e+00
  -1.759818e-01  -1.016028e-01   0.000000e+00
  -2.080261e-01   4.584470e-02   0.000000e+00
  -2.869329e-01  -9.557932e-02   0.000000e+00
   0.000000e+00   0.000000e+00   0.000000e+00
  -2.003386e-01  -1.369643e-01   0.000000e+00
   0.000000e+00   0.000000e+00   0.000000e+00
   0.000000e+00   0.000000e+00   0.000000e+00
   1.673848e-02  -6.755964e-02   0.000000e+00
   0.000000e+00   0.000000e+00   0.000000e+00
   0.000000e+00   0.000000e+00   0.000000e+00
   0.000000e+00   0.000000e+00   0.000000e+00
   0.000000e+00   0.000000e+00   0.000000e+00
   0.000000e+00   0.000000e+00   0.000000e+00
  -1.598717e-01   3.525288e-02   0.000000e+00
   0.000000e+00   0.000000e+00   0.000000e+00
   0.000000e+00   0.000000e+00   0.000000e+00
   0.000000e+00   0.000000e+00   0.000000e+00
  -8.252276e-02  -1.888338e-01   0.000000e+00
  -4.733326e-02  -1.465620e-01   0.000000e+00
   0.000000e+00   0.000000e+00   0.000000e+00
  -6.121811e-02  -6.545799e-02   0.000000e+00
  -1.150017e-01  -7.321924e-02   0.000000e+00
  -2.060325e-01  -7.149965e-02   0.000000e+00
   0.000000e+00   0.000000e+00   0.000000e+00
  -9.657013e-03  -8.318890e-02   0.000000e+00
   0.000000e+00   0.000000e+00   0.000000e+00
   0.000000e+00   0.000000e+00   0.000000e+00
  -1.497111e-01  -1.986536e-02   0.000000e+00
   0.000000e+00   0.000000e+00   0.000000e+00
  -1.450792e-01  -3.370877e-01   0.000000e+00
  -1.257894e-01   1.695009e-01   0.000000e+00
  -1.430516e-01  -7.701039e-03   0.000000e+00
  -1.666907e-01  -2.746165e-02   0.000000e+00
   0.000000e+00   0.000000e+00   0.000000e+00
  -1.851858e-01  -9.710811e-02   0.000000e+00
   0.000000e+00   0.000000e+00   0.000000e+00
   0.000000e+00   0.000000e+00   0.000000e+00
VECTORS Imag_Arrow_1.000000e+00(Hz) float
   2.076255e-02  -1.542806e-02   0.000000e+00
   3.622002e-02  -6.273381e-02   0.000000e+00
   0.000000e+00   0.000000e+00   0.000000e+00
   3.638945e-02   6.674009e-02   0.000000e+00
   4.033775e-02  -1.499063e-02   0.000000e+00
   0.000000e+00   0.000000e+00   0.000000e+00
   3.167930e-02  -3.962881e-03   0.000000e+00
   3.596444e-02  -5.269332e-02   0.000000e+00
   0.000000e+00   0.000000e+00   0.000000e+00
   5.331031e-02  -2.394831e-02   0.000000e+00
   2.848258e-02  -5.557177e-02   0.000000e+00
   4.270034e-02  -1.519831e-02   0.000000e+00
   0.000000e+00   0.000000e+00   0.000000e+00
   1.059941e-01  -2.743820e-02   0.000000e+00
   0.000000e+00   0.000000e+00   0.000000e+00
   0.000000e+00   0.000000e+00   0.000000e+00
   7.047579e-02  -1.459893e-02   0.000000e+00
   0.000000e+00   0.000000e+00   0.000000e+00
   0.000000e+00   0.000000e+00   0.000000e+00
   0.000000e+00   0.000000e+00   0.000000e+00
   0.000000e+00   0.000000e+00   0.000000e+00
   0.000000e+00   0.000000e+00   0.000000e+00
   1.452595e-02  -5.725750e-02   0.000000e+00
   0.000000e+00   0.000000e+00   0.000000e+00
   0.000000e+00   0.000000e+00   0.000000e+00
   0.000000e+00   0.000000e+00   0.000000e+00
   6.533752e-02  -9.986839e-03   0.000000e+00
   5.680327e-02  -2.661868e-02   0.000000e+00
   0.000000e+00   0.000000e+00   0.000000e+00
   3.647363e-02  -1.708287e-02   0.000000e+00
   2.983862e-02  -1.703482e-02   0.000000e+00
   5.913569e-02  -1.906080e-02   0.000000e+00
   0.000000e+00   0.000000e+00   0.000000e+00
  -2.472183e-02  -6.383580e-02   0.000000e+00
   0.000000e+00   0.000000e+00   0.000000e+00
   0.000000e+00   0.000000e+00   0.000000e+00
   7.309008e-02  -7.438979e-02   0.000000e+00
   0.000000e+00   0.000000e+00   0.000000e+00
   8.358360e-02   5.350484e-02   0.000000e+00
   5.278121e-02  -1.133304e-01   0.000000e+00
   1.306656e-02  -3.471405e-02   0.000000e+00
   3.024150e-02  -4.352574e-02   0.000000e+00
   0.000000e+00   0.000000e+00   0.000000e+00
   7.735411e-02  -2.556544e-02   0.000000e+00
   0.000000e+00   0.000000e+00   0.000000e+00
   0.000000e+00   0.000000e+00   0.000000e+00
VECTORS Real_Arrow_1.584800e+00(Hz) float
  -1.597740e-01  -6.712476e-02   0.000000e+00
  -1.993152e-01   3.861417e-02   0.000000e+00
   0.000000e+00   0.000000e+00   0.000000e+00
   0.000000e+00   0.000000e+00   0.000000e+00
  -1.896830e-01  -8.045689e-02   0.000000e+00
  -3.290108e-02  -9.713502e-02   0.000000e+00
   8.149481e-02  -1.518162e-01   0.000000e+00
  -2.057334e-01  -2.126587e-02   0.000000e+00
   0.000000e+00   0.000000e+00   0.000000e+00
  -1.930916e-01  -9.252541e-02   0.000000e+00
  -2.115475e-01   7.072725e-02   0.000000e+00
  -3.106013e-01  -9.917664e-02   0.000000e+00
   0.000000e+00   0.000000e+00   0.000000e+00
  -2.345925e-01  -1.314717e-01   0.000000e+00
   0.000000e+00   0.000000e+00   0.000000e+00
   0.000000e+00   0.000000e+00   0.000000e+00
   4.254341e-03  -5.908534e-02   0.000000e+00
   0.000000e+00   0.000000e+00   0.000000e+00
   0.000000e+00   0.000000e+00   0.000000e+00
   0.000000e+00   0.000000e+00   0.000000e+00
   0.000000e+00   0.000000e+00   0.000000e+00
  -2.248562e-01  -8.572348e-02   0.000000e+00
  -1.583116e-01   6.026694e-02   0.000000e+00
   0.000000e+00   0.000000e+00   0.000000e+00
   0.000000e+00   0.000000e+00   0.000000e+00
   0.000000e+00   0.000000e+00   0.000000e+00
  -1.010184e-01  -1.906055e-01   0.000000e+00
  -6.160904e-02  -1.415007e-01   0.000000e+00
  -1.104841e-01  -7.404261e-02   0.000000e+00
  -7.222719e-02  -5.812617e-02   0.000000e+00
  -1.276542e-01  -6.941452e-02   0.000000e+00
  -2.274593e-01  -6.718840e-02   0.000000e+00
   4.998818e-02  -4.697434e-02   0.000000e+00
  -1.191976e-03  -6.595650e-02   0.000000e+00
   0.000000e+00   0.000000e+00   0.000000e+00
   0.000000e+00   0.000000e+00   0.000000e+00
  -1.725438e-01   3.422222e-03   0.000000e+00
  -1.434403e-01   2.063432e-03   0.000000e+00
  -1.699587e-01  -3.622931e-01   0.000000e+00
  -1.429736e-01   2.238579e-01   0.000000e+00
   0.000000e+00   0.000000e+00   0.000000e+00
  -1.739379e-01  -9.140041e-03   0.000000e+00
   0.000000e+00   0.000000e+00   0.000000e+00
  -2.105197e-01  -8.755780e-02   0.000000e+00
   0.000000e+00   0.000000e+00   0.000000e+00
   0.000000e+00   0.000000e+00   0.000000e+00
VECTORS Imag_Arrow_1.584800e+00(Hz) float
  -5.211839e-03  -1.095458e-02   0.000000e+00
   5.274592e-03  -6.719444e-02   0.000000e+00
   0.000000e+00   0.000000e+00   0.000000e+00
   0.000000e+00   0.000000e+00   0.000000e+00
   1.148738e-02  -1.177314e-02   0.000000e+00
   4.153362e-02  -4.320934e-02   0.000000e+00
   1.699081e-02  -7.979042e-03   0.000000e+00
   6.382307e-03  -6.490908e-02   0.000000e+00
   0.000000e+00   0.000000e+00   0.000000e+00
   2.213418e-02  -2.831382e-02   0.000000e+00
   2.214874e-03  -4.969737e-02   0.000000e+00
   9.684774e-03  -3.605329e-02   0.000000e+00
   0.000000e+00   0.000000e+00   0.000000e+00
   8.637408e-02  -4.255713e-02   0.000000e+00
   0.000000e+00   0.000000e+00   0.000000e+00
   0.000000e+00   0.000000e+00   0.000000e+00
   6.132485e-02  -6.609877e-03   0.000000e+00
   0.000000e+00   0.000000e+00   0.000000e+00
   0.000000e+00   0.000000e+00   0.000000e+00
   0.000000e+00   0.000000e+00   0.000000e+00
   0.000000e+00   0.000000e+00   0.000000e+00
   2.421800e-02  -2.767345e-02   0.000000e+00
  -1.286953e-02  -5.376596e-02   0.000000e+00
   0.000000e+00   0.000000e+00   0.000000e+00
   0.000000e+00   0.000000e+00   0.000000e+00
   0.000000e+00   0.000000e+00   0.000000e+00
   4.524693e-02  -2.473636e-02   0.000000e+00
   3.794823e-02  -4.273405e-02   0.000000e+00
   6.598065e-03  -3.330999e-02   0.000000e+00
   7.557601e-03  -1.580626e-02   0.000000e+00
   1.326850e-02  -2.493991e-02   0.000000e+00
   4.167345e-02  -2.507892e-02   0.000000e+00
  -5.395543e-02  -7.664597e-02   0.000000e+00
  -5.708249e-02  -9.062869e-02   0.000000e+00
   0.000000e+00   0.000000e+00   0.000000e+00
   0.000000e+00   0.000000e+00   0.000000e+00
   4.814690e-02  -9.604725e-02   0.000000e+00
   2.279476e-02  -5.293541e-02   0.000000e+00
   6.550188e-02   5.006346e-02   0.000000e+00
   2.276582e-02  -1.201738e-01   0.000000e+00
   0.000000e+00   0.000000e+00   0.000000e+00
  -1.294697e-03  -4.444035e-02   0.000000e+00
   0.000000e+00   0.000000e+00   0.000000e+00
   4.926548e-02  -3.095722e-02   0.000000e+00
   0.000000e+00   0.000000e+00   0.000000e+00
   0.000000e+00   0.000000e+00   0.000000e+00
VECTORS Real_Arrow_2.511800e+00(Hz) float
  -1.522375e-01  -6.035665e-02   0.000000e+00
  -1.924203e-01   6.659095e-02   0.000000e+00
   0.000000e+00   0.000000e+00   0.000000e+00
  -4.488596e-02  -4.775870e-01   0.000000e+00
  -1.888074e-01  -7.267685e-02   0.000000e+00
  -4.094694e-02  -8.015255e-02   0.000000e+00
   8.440354e-02  -1.494241e-01   0.000000e+00
  -2.045973e-01   5.589058e-03   0.000000e+00
   9.155732e-02  -2.013545e-01   0.000000e+00
  -1.981276e-01  -8.000382e-02   0.000000e+00
  -2.027811e-01   9.471730e-02   0.000000e+00
  -3.172083e-01  -8.631882e-02   0.000000e+00
   0.000000e+00   0.000000e+00   0.000000e+00
  -2.645497e-01  -1.183354e-01   0.000000e+00
  -1.304126e-01   2.703110e-02   0.000000e+00
   0.000000e+00   0.000000e+00   0.000000e+00
  -6.038204e-03  -5.206183e-02   0.000000e+00
   0.000000e+00   0.000000e+00   0.000000e+00
   0.000000e+00   0.000000e+00   0.000000e+00
   0.000000e+00   0.000000e+00   0.000000e+00
   0.000000e+00   0.000000e+00   0.000000e+00
  -2.303909e-01  -7.302211e-02   0.000000e+00
  -1.429642e-01   8.534591e-02   0.000000e+00
  -1.880598e-01  -1.209425e-01   0.000000e+00
   0.000000e+00   0.000000e+00   0.000000e+00
   0.000000e+00   0.000000e+00   0.000000e+00
  -1.125311e-01  -1.858434e-01   0.000000e+00
  -6.906414e-02  -1.283336e-01   0.000000e+00
  -1.114442e-01  -6.152746e-02   0.000000e+00
  -7.090977e-02  -5.028941e-02   0.000000e+00
  -1.334082e-01  -5.972164e-02   0.000000e+00
  -2.436272e-01  -5.892827e-02   0.000000e+00
   9.584401e-02  -7.088506e-03   0.000000e+00
   2.486414e-02  -3.396254e-02   0.000000e+00
  -6.772336e-02  -1.158496e-01   0.000000e+00
   0.000000e+00   0.000000e+00   0.000000e+00
  -1.875299e-01   3.857521e-02   0.000000e+00
  -1.477861e-01   2.299971e-02   0.000000e+00
  -1.881880e-01  -3.891246e-01   0.000000e+00
  -1.508561e-01   2.916145e-01   0.000000e+00
   0.000000e+00   0.000000e+00   0.000000e+00
  -1.669481e-01   1.156217e-02   0.000000e+00
   0.000000e+00   0.000000e+00   0.000000e+00
  -2.261578e-01  -7.381132e-02   0.000000e+00
   0.000000e+00   0.000000e+00   0.000000e+00
   0.000000e+00   0.000000e+00   0.000000e+00
VECTORS Imag_Arrow_2.511800e+00(Hz) float
  -3.195390e-02  -1.224094e-03   0.000000e+00
  -2.605933e-02  -6.371378e-02   0.000000e+00
   0.000000e+00   0.000000e+00   0.000000e+00
  -1.307989e-02   3.475282e-02   0.000000e+00
  -2.015137e-02  -3.091378e-03   0.000000e+00
   2.998190e-02  -5.486043e-02   0.000000e+00
   1.042913e-02  -1.325518e-02   0.000000e+00
  -2.909927e-02  -7.502712e-02   0.000000e+00
  -1.057338e-01  -4.043014e-03   0.000000e+00
  -1.426321e-02  -2.987803e-02   0.000000e+00
  -2.081672e-02  -3.156900e-02   0.000000e+00
  -4.464217e-02  -7.078762e-02   0.000000e+00
   0.000000e+00   0.000000e+00   0.000000e+00
   6.154146e-02  -6.220569e-02   0.000000e+00
  -3.822162e-02  -4.142254e-02   0.000000e+00
   0.000000e+00   0.000000e+00   0.000000e+00
   6.209693e-02   7.468250e-03   0.000000e+00
   0.000000e+00   0.000000e+00   0.000000e+00
   0.000000e+00   0.000000e+00   0.000000e+00
   0.000000e+00   0.000000e+00   0.000000e+00
   0.000000e+00   0.000000e+00   0.000000e+00
  -9.314987e-03  -2.907258e-02   0.000000e+00
  -3.613632e-02  -3.857731e-02   0.000000e+00
   2.530340e-03   2.162767e-03   0.000000e+00
   0.000000e+00   0.000000e+00   0.000000e+00
   0.000000e+00   0.000000e+00   0.000000e+00
   2.475393e-02  -4.676220e-02   0.000000e+00
   2.097703e-02  -6.382922e-02   0.000000e+00
  -1.841055e-02  -4.551200e-02   0.000000e+00
  -2.477597e-02  -1.163035e-02   0.000000e+00
  -1.125547e-02  -3.499804e-02   0.000000e+00
   1.629561e-02  -3.338294e-02   0.000000e+00
  -7.933532e-02  -9.684733e-02   0.000000e+00
  -9.237245e-02  -1.225627e-01   0.000000e+00
  -3.063325e-02   5.422217e-03   0.000000e+00
   0.000000e+00   0.000000e+00   0.000000e+00
   1.903957e-02  -1.177396e-01   0.000000e+00
  -1.270542e-02  -5.066366e-02   0.000000e+00
   4.530830e-02   3.492501e-02   0.000000e+00
  -1.432832e-02  -9.802900e-02   0.000000e+00
   0.000000e+00   0.000000e+00   0.000000e+00
  -3.463017e-02  -3.771044e-02   0.000000e+00
   0.000000e+00   0.000000e+00   0.000000e+00
   1.518160e-02  -3.372592e-02   0.000000e+00
   0.000000e+00   0.000000e+00   0.000000e+00
   0.000000e+00   0.000000e+00   0.000000e+00
VECTORS Real_Arrow_3.981000e+00(Hz) float
  -1.323547e-01  -6.022389e-02   0.000000e+00
  -1.702183e-01   8.950515e-02   0.000000e+00
   0.000000e+00   0.000000e+00   0.000000e+00
  -3.127349e-02  -4.947648e-01   0.000000e+00
  -1.739766e-01  -7.088034e-02   0.000000e+00
  -4.912523e-02  -5.646752e-02   0.000000e+00
   8.475361e-02  -1.450467e-01   0.000000e+00
  -1.850243e-01   3.965991e-02   0.000000e+00
   1.446910e-01  -1.965965e-01   0.000000e+00
  -1.882485e-01  -6.798405e-02   0.000000e+00
  -1.856823e-01   1.060875e-01   0.000000e+00
  -2.838896e-01  -4.144263e-02   0.000000e+00
   0.000000e+00   0.000000e+00   0.000000e+00
  -2.888351e-01  -9.526848e-02   0.000000e+00
  -1.082736e-01   4.232035e-02   0.000000e+00
   0.000000e+00   0.000000e+00   0.000000e+00
  -2.298714e-02  -5.090443e-02   0.000000e+00
   0.000000e+00   0.000000e+00   0.000000e+00
  -3.815693e-02  -2.497355e-02   0.000000e+00
   0.000000e+00   0.000000e+00   0.000000e+00
   0.000000e+00   0.000000e+00   0.000000e+00
  -2.208994e-01  -5.940852e-02   0.000000e+00
  -1.176249e-01   9.875258e-02   0.000000e+00
  -1.890949e-01  -1.180964e-01   0.000000e+00
   0.000000e+00   0.000000e+00   0.000000e+00
   0.000000e+00   0.000000e+00   0.000000e+00
  -1.189012e-01  -1.701192e-01   0.000000e+00
  -7.311062e-02  -1.042939e-01   0.000000e+00
  -9.816923e-02  -4.043911e-02   0.000000e+00
  -5.537414e-02  -4.362771e-02   0.000000e+00
   0.000000e+00   0.000000e+00   0.000000e+00
  -2.482739e-01  -4.441646e-02   0.000000e+00
   1.523448e-01   4.314424e-02   0.000000e+00
   7.203882e-02   1.748406e-02   0.000000e+00
  -4.955494e-02  -1.133469e-01   0.000000e+00
   0.000000e+00   0.000000e+00   0.000000e+00
   0.000000e+00   0.000000e+00   0.000000e+00
  -1.365215e-01   4.136269e-02   0.000000e+00
  -1.991331e-01  -4.108279e-01   0.000000e+00
  -1.406778e-01   3.439776e-01   0.000000e+00
  -1.031571e-01   2.929902e-02   0.000000e+00
  -1.444316e-01   2.682035e-02   0.000000e+00
   0.000000e+00   0.000000e+00   0.000000e+00
  -2.291067e-01  -5.940466e-02   0.000000e+00
  -1.407425e-01  -4.827070e-02   0.000000e+00
   7.050931e-02  -1.887872e-01   0.000000e+00
VECTORS Imag_Arrow_3.981000e+00(Hz) float
  -5.530366e-02   1.470737e-02   0.000000e+00
  -5.106996e-02  -4.882833e-02   0.000000e+00
   0.000000e+00   0.000000e+00   0.000000e+00
  -3.154564e-02  -3.914860e-03   0.000000e+00
  -5.081168e-02   1.276361e-02   0.000000e+00
   2.060465e-02  -6.142613e-02   0.000000e+00
   1.052743e-02  -1.811634e-02   0.000000e+00
  -6.540102e-02  -7.575314e-02   0.000000e+00
  -1.242956e-01  -1.199114e-02   0.000000e+00
  -5.350212e-02  -2.534531e-02   0.000000e+00
  -3.443652e-02   6.256718e-04   0.000000e+00
  -1.065303e-01  -1.012872e-01   0.000000e+00
   0.000000e+00   0.000000e+00   0.000000e+00
   2.744461e-02  -8.224728e-02   0.000000e+00
  -7.047920e-02  -2.409381e-02   0.000000e+00
   0.000000e+00   0.000000e+00   0.000000e+00
   7.013522e-02   2.987213e-02   0.000000e+00
   0.000000e+00   0.000000e+00   0.000000e+00
  -1.036804e-01  -2.566233e-03   0.000000e+00
   0.000000e+00   0.000000e+00   0.000000e+00
   0.000000e+00   0.000000e+00   0.000000e+00
  -4.522839e-02  -2.407957e-02   0.000000e+00
  -4.765557e-02  -9.364400e-03   0.000000e+00
  -3.749351e-02  -2.190145e-03   0.000000e+00
   0.000000e+00   0.000000e+00   0.000000e+00
   0.000000e+00   0.000000e+00   0.000000e+00
   3.335271e-03  -7.326714e-02   0.000000e+00
   5.491855e-03  -8.541451e-02   0.000000e+00
  -4.467932e-02  -5.497553e-02   0.000000e+00
  -5.706558e-02  -3.161184e-03   0.000000e+00
   0.000000e+00   0.000000e+00   0.000000e+00
  -1.726240e-02  -4.124862e-02   0.000000e+00
  -6.531064e-02  -9.365593e-02   0.000000e+00
  -1.200277e-01  -1.510040e-01   0.000000e+00
  -5.583252e-02   5.868644e-03   0.000000e+00
   0.000000e+00   0.000000e+00   0.000000e+00
   0.000000e+00   0.000000e+00   0.000000e+00
  -5.029317e-02  -4.195765e-02   0.000000e+00
   2.371090e-02   4.252852e-03   0.000000e+00
  -6.049673e-02  -3.013959e-02   0.000000e+00
  -4.989817e-02   2.980130e-02   0.000000e+00
  -6.416009e-02  -1.993383e-02   0.000000e+00
   0.000000e+00   0.000000e+00   0.000000e+00
  -2.490202e-02  -3.000413e-02   0.000000e+00
   1.799761e-02  -1.291234e-01   0.000000e+00
  -7.561954e-03  -6.488326e-02   0.000000e+00
