# vtk DataFile Version 2.0
Induction_Arrow_Iter11_PE4
ASCII
DATASET UNSTRUCTURED_GRID
POINTS 46 float
  -2.052000e+03    1.667000e+03   -4.526633e+02
  -1.265000e+03    2.333000e+03   -4.555885e+02
  -9.840000e+02    2.568000e+03   -4.612271e+02
   1.700000e+03   -1.757000e+03   -5.237752e+02
  -1.152000e+03    1.382000e+03   -4.549280e+02
   3.187000e+03    1.067000e+03   -8.370176e+02
   4.716000e+03    9.370000e+02   -8.015281e+02
  -1.855000e+03    5.260000e+02   -5.147377e+02
  -1.420000e+02   -1.905000e+03   -4.746368e+02
  -5.800000e+01    1.069000e+03   -4.555494e+02
  -2.802000e+03    3.302000e+03   -4.314337e+02
  -5.640000e+03   -1.532000e+03   -4.911771e+02
  -8.030000e+02   -5.610000e+02   -5.280929e+02
   1.008000e+03    4.130000e+02   -5.983358e+02
   1.960000e+02    2.246000e+03   -5.219413e+02
  -3.457000e+03    8.320000e+02   -4.470735e+02
   5.640000e+03    2.452000e+03   -7.393049e+02
  -1.334000e+03    3.332000e+03   -4.456136e+02
   1.244000e+03    1.880000e+03   -6.331107e+02
  -2.680000e+02    2.144000e+03   -4.891390e+02
  -4.063000e+03    6.620000e+02   -4.746103e+02
  -1.258000e+03    6.330000e+02   -4.856841e+02
  -2.141000e+03    3.194000e+03   -4.348461e+02
  -3.469000e+03   -3.059000e+03   -6.067613e+02
  -1.604000e+03   -2.570000e+02   -5.141257e+02
  -1.454000e+03    2.220000e+02   -5.386025e+02
   1.864000e+03    1.270000e+02   -7.404291e+02
   2.449000e+03    5.590000e+02   -7.805292e+02
  -1.834000e+03   -1.554000e+03   -6.273074e+02
   1.807000e+03    2.297000e+03   -6.825557e+02
  -2.560000e+03   -1.783000e+03   -6.131337e+02
  -2.741000e+03   -5.010000e+02   -5.080000e+02
   2.884000e+03   -2.179000e+03   -5.274708e+02
  -6.120000e+02   -8.960000e+02   -5.895389e+02
  -1.985000e+03   -2.653000e+03   -5.598834e+02
  -3.390000e+03   -4.000000e+02   -4.982361e+02
   1.586000e+03    1.342000e+03   -6.618442e+02
   1.047000e+03    2.401000e+03   -5.426792e+02
   8.380000e+02   -1.300000e+03   -4.783644e+02
   2.569000e+03    2.441000e+03   -6.035668e+02
  -2.028000e+03    2.833000e+03   -4.322286e+02
  -1.086000e+03    1.998000e+03   -4.563301e+02
   1.514000e+03   -3.332000e+03   -5.646205e+02
   7.040000e+02    1.116000e+03   -5.365099e+02
   1.990000e+03    6.360000e+02   -7.085272e+02
   3.722000e+03   -1.700000e+02   -6.745213e+02
CELLS 46 92
1 0
1 1
1 2
1 3
1 4
1 5
1 6
1 7
1 8
1 9
1 10
1 11
1 12
1 13
1 14
1 15
1 16
1 17
1 18
1 19
1 20
1 21
1 22
1 23
1 24
1 25
1 26
1 27
1 28
1 29
1 30
1 31
1 32
1 33
1 34
1 35
1 36
1 37
1 38
1 39
1 40
1 41
1 42
1 43
1 44
1 45
CELL_TYPES 46
1
1
1
1
1
1
1
1
1
1
1
1
1
1
1
1
1
1
1
1
1
1
1
1
1
1
1
1
1
1
1
1
1
1
1
1
1
1
1
1
1
1
1
1
1
1
POINT_DATA 46
VECTORS Real_Arrow_6.309500e+00(Hz) float
  -1.074944e-01  -7.524063e-02   0.000000e+00
  -1.450948e-01   9.748893e-02   0.000000e+00
   0.000000e+00   0.000000e+00   0.000000e+00
  -8.516650e-03  -4.866115e-01   0.000000e+00
  -1.521932e-01  -8.276610e-02   0.000000e+00
  -5.502071e-02  -2.916632e-02   0.000000e+00
   7.929851e-02  -1.386535e-01   0.000000e+00
  -1.519032e-01   8.492316e-02   0.000000e+00
   2.075668e-01  -1.717898e-01   0.000000e+00
  -1.654786e-01  -6.593402e-02   0.000000e+00
  -1.755205e-01   9.720377e-02   0.000000e+00
  -2.097639e-01   2.540017e-02   0.000000e+00
   0.000000e+00   0.000000e+00   0.000000e+00
  -3.095914e-01  -6.718606e-02   0.000000e+00
  -7.730590e-02   4.709218e-02   0.000000e+00
   0.000000e+00   0.000000e+00   0.000000e+00
  -5.312547e-02  -6.976088e-02   0.000000e+00
   0.000000e+00   0.000000e+00   0.000000e+00
   2.780126e-03  -3.343407e-02   0.000000e+00
  -3.886345e-02   3.977776e-02   0.000000e+00
   0.000000e+00   0.000000e+00   0.000000e+00
  -2.015930e-01  -5.816163e-02   0.000000e+00
  -9.582507e-02   8.452553e-02   0.000000e+00
  -1.671243e-01  -1.212435e-01   0.000000e+00
   0.000000e+00   0.000000e+00   0.000000e+00
  -1.361082e-01   2.103420e-02   0.000000e+00
  -1.236414e-01  -1.438006e-01   0.000000e+00
  -7.473437e-02  -7.050521e-02   0.000000e+00
  -7.055281e-02  -1.226812e-02   0.000000e+00
  -3.374886e-02  -8.857727e-02   0.000000e+00
   0.000000e+00   0.000000e+00   0.000000e+00
  -2.575298e-01  -3.048997e-02   0.000000e+00
   1.777432e-01   8.058567e-02   0.000000e+00
   1.444456e-01   8.721150e-02   0.000000e+00
  -1.446724e-02  -1.002406e-01   0.000000e+00
  -3.164395e-01  -1.832828e-01   0.000000e+00
   0.000000e+00   0.000000e+00   0.000000e+00
  -1.302994e-01   4.275380e-02   0.000000e+00
  -2.068938e-01  -4.171462e-01   0.000000e+00
  -9.898704e-02   3.542591e-01   0.000000e+00
  -8.200295e-02   5.014275e-03   0.000000e+00
  -1.145929e-01   2.586693e-02   0.000000e+00
   1.288269e-03   4.043867e-02   0.000000e+00
  -2.260276e-01  -6.197884e-02   0.000000e+00
  -1.480120e-01   1.954743e-04   0.000000e+00
   7.697609e-02  -1.513738e-01   0.000000e+00
VECTORS Imag_Arrow_6.309500e+00(Hz) float
  -7.346630e-02   3.034860e-02   0.000000e+00
  -7.036226e-02  -3.490659e-02   0.000000e+00
   0.000000e+00   0.000000e+00   0.000000e+00
  -4.091001e-02  -5.172872e-02   0.000000e+00
  -7.830399e-02   2.761309e-02   0.000000e+00
   1.134406e-02  -6.049831e-02   0.000000e+00
   1.276119e-02  -2.214781e-02   0.000000e+00
  -9.336065e-02  -6.440786e-02   0.000000e+00
  -1.061621e-01  -9.483625e-03   0.000000e+00
  -8.990480e-02  -1.807155e-02   0.000000e+00
  -5.913579e-02   3.290635e-02   0.000000e+00
  -1.387364e-01  -9.809058e-02   0.000000e+00
   0.000000e+00   0.000000e+00   0.000000e+00
  -1.608028e-02  -9.752609e-02   0.000000e+00
  -9.911923e-02  -3.202563e-03   0.000000e+00
   0.000000e+00   0.000000e+00   0.000000e+00
   7.698724e-02   5.822043e-02   0.000000e+00
   0.000000e+00   0.000000e+00   0.000000e+00
  -1.466541e-01   2.024651e-02   0.000000e+00
  -1.144691e-01  -2.963191e-03   0.000000e+00
   0.000000e+00   0.000000e+00   0.000000e+00
  -7.817009e-02  -1.168812e-02   0.000000e+00
  -5.997062e-02   1.635752e-02   0.000000e+00
  -8.809562e-02  -2.358525e-03   0.000000e+00
   0.000000e+00   0.000000e+00   0.000000e+00
  -8.728117e-02  -4.120448e-02   0.000000e+00
  -1.690245e-02  -9.926171e-02   0.000000e+00
  -8.338415e-03  -1.033301e-01   0.000000e+00
  -6.630949e-02  -5.208966e-02   0.000000e+00
  -8.413685e-02  -8.844189e-03   0.000000e+00
   0.000000e+00   0.000000e+00   0.000000e+00
  -4.988921e-02  -4.954260e-02   0.000000e+00
  -9.249272e-03  -5.893895e-02   0.000000e+00
  -1.333323e-01  -1.619112e-01   0.000000e+00
  -7.573320e-02   1.733304e-02   0.000000e+00
  -3.562346e-02   1.968264e-02   0.000000e+00
   0.000000e+00   0.000000e+00   0.000000e+00
  -8.416167e-02  -3.703135e-02   0.000000e+00
   1.754962e-03  -4.061966e-02   0.000000e+00
  -9.520048e-02   9.046525e-02   0.000000e+00
  -6.136742e-02   6.186847e-02   0.000000e+00
  -8.905191e-02  -6.846104e-04   0.000000e+00
   3.292362e-02  -3.471508e-02   0.000000e+00
  -6.678775e-02  -1.604599e-02   0.000000e+00
  -1.875439e-03  -1.573630e-01   0.000000e+00
  -1.139853e-02  -8.816104e-02   0.000000e+00
VECTORS Real_Arrow_1.000000e+01(Hz) float
  -6.762362e-02  -9.578846e-02   0.000000e+00
  -1.039972e-01   9.532665e-02   0.000000e+00
   0.000000e+00   0.000000e+00   0.000000e+00
   1.102180e-02  -4.596458e-01   0.000000e+00
  -1.118170e-01  -1.025222e-01   0.000000e+00
  -5.817774e-02  -7.162675e-03   0.000000e+00
   7.677673e-02  -1.352104e-01   0.000000e+00
  -9.866739e-02   1.099137e-01   0.000000e+00
   2.554863e-01  -1.667896e-01   0.000000e+00
  -1.228851e-01  -6.663456e-02   0.000000e+00
  -1.549445e-01   6.946504e-02   0.000000e+00
  -1.412561e-01   6.514687e-02   0.000000e+00
   0.000000e+00   0.000000e+00   0.000000e+00
  -3.010257e-01  -2.853961e-02   0.000000e+00
   0.000000e+00   0.000000e+00   0.000000e+00
  -8.972567e-02   2.796542e-02   0.000000e+00
  -8.276246e-02  -9.702246e-02   0.000000e+00
   3.287949e-02   5.208372e-02   0.000000e+00
   7.016463e-02  -4.545077e-02   0.000000e+00
   1.444233e-02   2.765971e-02   0.000000e+00
   0.000000e+00   0.000000e+00   0.000000e+00
  -1.607058e-01  -5.760881e-02   0.000000e+00
  -7.175061e-02   5.905332e-02   0.000000e+00
  -1.156189e-01  -1.174868e-01   0.000000e+00
   0.000000e+00   0.000000e+00   0.000000e+00
  -8.840962e-02   3.837041e-02   0.000000e+00
  -1.148920e-01  -1.040457e-01   0.000000e+00
  -6.894101e-02  -3.026027e-02   0.000000e+00
  -3.518759e-02   1.158679e-02   0.000000e+00
   0.000000e+00   0.000000e+00   0.000000e+00
   0.000000e+00   0.000000e+00   0.000000e+00
  -2.267804e-01  -2.445103e-03   0.000000e+00
   1.597156e-01   8.862413e-02   0.000000e+00
   2.126620e-01   1.603992e-01   0.000000e+00
   2.473991e-02  -1.090168e-01   0.000000e+00
  -3.001709e-01  -1.825043e-01   0.000000e+00
   0.000000e+00   0.000000e+00   0.000000e+00
  -8.022133e-02   5.332583e-02   0.000000e+00
  -2.013774e-01  -4.028883e-01   0.000000e+00
  -4.691036e-02   2.850875e-01   0.000000e+00
  -5.627333e-02  -3.236998e-02   0.000000e+00
  -6.898538e-02   1.465701e-02   0.000000e+00
  -1.903779e-02   5.343994e-02   0.000000e+00
  -1.921416e-01  -6.356571e-02   0.000000e+00
  -1.448293e-01   6.040109e-02   0.000000e+00
   9.029705e-02  -1.145809e-01   0.000000e+00
VECTORS Imag_Arrow_1.000000e+01(Hz) float
  -7.128898e-02   3.637204e-02   0.000000e+00
  -6.137513e-02  -2.790536e-02   0.000000e+00
   0.000000e+00   0.000000e+00   0.000000e+00
  -4.474883e-02  -9.972985e-02   0.000000e+00
  -9.079188e-02   3.535883e-02   0.000000e+00
  -7.909704e-03  -5.331132e-02   0.000000e+00
   8.281062e-03  -2.980116e-02   0.000000e+00
  -1.000522e-01  -3.509348e-02   0.000000e+00
  -7.096467e-02  -2.399136e-03   0.000000e+00
  -1.207911e-01  -1.642828e-02   0.000000e+00
  -5.461039e-02   5.088377e-02   0.000000e+00
  -1.266707e-01  -5.167368e-02   0.000000e+00
   0.000000e+00   0.000000e+00   0.000000e+00
  -7.764474e-02  -1.102058e-01   0.000000e+00
   0.000000e+00   0.000000e+00   0.000000e+00
  -1.212688e-01  -3.984029e-02   0.000000e+00
   7.282060e-02   8.382350e-02   0.000000e+00
  -4.841405e-02   2.857040e-02   0.000000e+00
  -1.755356e-01   4.504947e-02   0.000000e+00
  -1.193656e-01   9.112375e-03   0.000000e+00
   0.000000e+00   0.000000e+00   0.000000e+00
  -1.014046e-01  -7.491032e-04   0.000000e+00
  -4.125694e-02   2.740772e-02   0.000000e+00
  -1.134569e-01  -1.654780e-03   0.000000e+00
   0.000000e+00   0.000000e+00   0.000000e+00
  -1.006959e-01  -1.380789e-02   0.000000e+00
  -4.665713e-02  -1.223906e-01   0.000000e+00
  -2.931047e-02  -1.149146e-01   0.000000e+00
  -6.989655e-02  -3.952609e-02   0.000000e+00
   0.000000e+00   0.000000e+00   0.000000e+00
   0.000000e+00   0.000000e+00   0.000000e+00
  -8.938560e-02  -4.419407e-02   0.000000e+00
   3.476309e-02  -3.126020e-02   0.000000e+00
  -1.073296e-01  -1.484978e-01   0.000000e+00
  -7.213539e-02   3.351364e-02   0.000000e+00
  -1.024457e-01   1.336348e-02   0.000000e+00
   0.000000e+00   0.000000e+00   0.000000e+00
  -1.074425e-01  -3.074262e-02   0.000000e+00
  -2.246140e-02  -9.905197e-02   0.000000e+00
  -1.126418e-01   1.581791e-01   0.000000e+00
  -4.658870e-02   8.016465e-02   0.000000e+00
  -9.065889e-02   1.289401e-02   0.000000e+00
   5.988236e-02  -4.975488e-03   0.000000e+00
  -1.109624e-01  -1.224955e-02   0.000000e+00
  -3.155507e-02  -1.785521e-01   0.000000e+00
  -8.167440e-03  -1.098278e-01   0.000000e+00
VECTORS Real_Arrow_1.584800e+01(Hz) float
  -3.592750e-02  -1.182715e-01   0.000000e+00
  -7.568567e-02   9.405071e-02   0.000000e+00
   0.000000e+00   0.000000e+00   0.000000e+00
   3.103163e-02  -4.113024e-01   0.000000e+00
  -7.118784e-02  -1.240329e-01   0.000000e+00
  -5.020157e-02   1.228044e-02   0.000000e+00
   7.876377e-02  -1.278913e-01   0.000000e+00
  -5.143465e-02   1.144686e-01   0.000000e+00
   2.789391e-01  -1.692720e-01   0.000000e+00
  -6.697165e-02  -6.501305e-02   0.000000e+00
  -1.432258e-01   4.206702e-02   0.000000e+00
   0.000000e+00   0.000000e+00   0.000000e+00
   0.000000e+00   0.000000e+00   0.000000e+00
  -2.617962e-01   1.807426e-02   0.000000e+00
   0.000000e+00   0.000000e+00   0.000000e+00
  -3.785877e-02   4.208670e-02   0.000000e+00
  -1.066052e-01  -1.352589e-01   0.000000e+00
   4.256041e-02   2.833240e-02   0.000000e+00
   1.487539e-01  -7.020350e-02   0.000000e+00
   6.624852e-02   1.476728e-02   0.000000e+00
  -1.213115e-01   1.855635e-02   0.000000e+00
  -1.142112e-01  -6.399248e-02   0.000000e+00
  -6.512973e-02   3.533744e-02   0.000000e+00
  -6.213385e-02  -1.160308e-01   0.000000e+00
   0.000000e+00   0.000000e+00   0.000000e+00
  -4.005643e-02   3.798541e-02   0.000000e+00
  -9.214994e-02  -5.264132e-02   0.000000e+00
  -5.254273e-02   1.562344e-02   0.000000e+00
  -7.252019e-03   2.315504e-02   0.000000e+00
   0.000000e+00   0.000000e+00   0.000000e+00
   0.000000e+00   0.000000e+00   0.000000e+00
  -1.805892e-01   1.593974e-02   0.000000e+00
   1.234841e-01   8.727103e-02   0.000000e+00
   2.588219e-01   2.226268e-01   0.000000e+00
   5.314384e-02  -1.324427e-01   0.000000e+00
  -2.486843e-01  -1.859808e-01   0.000000e+00
   0.000000e+00   0.000000e+00   0.000000e+00
  -2.060363e-02   6.385740e-02   0.000000e+00
  -1.868562e-01  -3.564986e-01   0.000000e+00
   4.415617e-03   2.069648e-01   0.000000e+00
  -4.477294e-02  -6.975668e-02   0.000000e+00
  -2.988285e-02   9.037360e-04   0.000000e+00
  -5.107452e-02   4.851903e-02   0.000000e+00
  -1.383993e-01  -6.433275e-02   0.000000e+00
  -1.270220e-01   1.318366e-01   0.000000e+00
   9.982868e-02  -6.869758e-02   0.000000e+00
VECTORS Imag_Arrow_1.584800e+01(Hz) float
  -4.936541e-02   2.799789e-02   0.000000e+00
  -3.044636e-02  -3.757361e-02   0.000000e+00
   0.000000e+00   0.000000e+00   0.000000e+00
  -4.232014e-02  -1.372402e-01   0.000000e+00
  -8.623944e-02   2.923474e-02   0.000000e+00
  -2.795078e-02  -4.141166e-02   0.000000e+00
   6.182569e-03  -4.205094e-02   0.000000e+00
  -7.861119e-02  -5.113579e-05   0.000000e+00
  -1.829854e-02   7.059217e-03   0.000000e+00
  -1.386253e-01  -2.267308e-02   0.000000e+00
  -5.506805e-02   4.915387e-02   0.000000e+00
   0.000000e+00   0.000000e+00   0.000000e+00
   0.000000e+00   0.000000e+00   0.000000e+00
  -1.399247e-01  -1.130537e-01   0.000000e+00
   0.000000e+00   0.000000e+00   0.000000e+00
  -1.402387e-01  -2.027142e-02   0.000000e+00
   6.137666e-02   9.998632e-02   0.000000e+00
  -2.014651e-02   1.258921e-02   0.000000e+00
  -1.803290e-01   6.407710e-02   0.000000e+00
  -1.048506e-01   5.755344e-03   0.000000e+00
  -1.594683e-02  -3.182366e-02   0.000000e+00
  -1.085366e-01   5.878074e-03   0.000000e+00
  -2.161229e-02   1.327938e-02   0.000000e+00
  -1.120516e-01   1.930252e-03   0.000000e+00
   0.000000e+00   0.000000e+00   0.000000e+00
  -9.129667e-02   1.954276e-02   0.000000e+00
  -7.511225e-02  -1.356264e-01   0.000000e+00
  -4.846096e-02  -1.167467e-01   0.000000e+00
  -5.866424e-02  -1.791509e-02   0.000000e+00
   0.000000e+00   0.000000e+00   0.000000e+00
   0.000000e+00   0.000000e+00   0.000000e+00
  -1.123370e-01  -2.348128e-02   0.000000e+00
   4.868489e-02  -1.653465e-02   0.000000e+00
  -4.900288e-02  -1.065478e-01   0.000000e+00
  -5.334748e-02   4.374509e-02   0.000000e+00
  -1.669355e-01   1.308061e-02   0.000000e+00
   0.000000e+00   0.000000e+00   0.000000e+00
  -1.026231e-01  -2.341923e-02   0.000000e+00
  -4.314927e-02  -1.594027e-01   0.000000e+00
  -1.060470e-01   1.883925e-01   0.000000e+00
  -2.832361e-02   7.710305e-02   0.000000e+00
  -7.259414e-02   1.230144e-02   0.000000e+00
   7.236891e-02   2.899436e-02   0.000000e+00
  -1.436189e-01  -1.653290e-02   0.000000e+00
  -6.083467e-02  -1.863348e-01   0.000000e+00
   7.314593e-03  -1.202113e-01   0.000000e+00
