# vtk DataFile Version 2.0
Induction_Arrow_Iter4_PE4
ASCII
DATASET UNSTRUCTURED_GRID
POINTS 46 float
  -2.052000e+03    1.667000e+03   -4.526633e+02
  -1.265000e+03    2.333000e+03   -4.555885e+02
  -9.840000e+02    2.568000e+03   -4.612271e+02
   1.700000e+03   -1.757000e+03   -5.237752e+02
  -1.152000e+03    1.382000e+03   -4.549280e+02
   3.187000e+03    1.067000e+03   -8.370176e+02
   4.716000e+03    9.370000e+02   -8.015281e+02
  -1.855000e+03    5.260000e+02   -5.147377e+02
  -1.420000e+02   -1.905000e+03   -4.746368e+02
  -5.800000e+01    1.069000e+03   -4.555494e+02
  -2.802000e+03    3.302000e+03   -4.314337e+02
  -5.640000e+03   -1.532000e+03   -4.911771e+02
  -8.030000e+02   -5.610000e+02   -5.280929e+02
   1.008000e+03    4.130000e+02   -5.983358e+02
   1.960000e+02    2.246000e+03   -5.219413e+02
  -3.457000e+03    8.320000e+02   -4.470735e+02
   5.640000e+03    2.452000e+03   -7.393049e+02
  -1.334000e+03    3.332000e+03   -4.456136e+02
   1.244000e+03    1.880000e+03   -6.331107e+02
  -2.680000e+02    2.144000e+03   -4.891390e+02
  -4.063000e+03    6.620000e+02   -4.746103e+02
  -1.258000e+03    6.330000e+02   -4.856841e+02
  -2.141000e+03    3.194000e+03   -4.348461e+02
  -3.469000e+03   -3.059000e+03   -6.067613e+02
  -1.604000e+03   -2.570000e+02   -5.141257e+02
  -1.454000e+03    2.220000e+02   -5.386025e+02
   1.864000e+03    1.270000e+02   -7.404291e+02
   2.449000e+03    5.590000e+02   -7.805292e+02
  -1.834000e+03   -1.554000e+03   -6.273074e+02
   1.807000e+03    2.297000e+03   -6.825557e+02
  -2.560000e+03   -1.783000e+03   -6.131337e+02
  -2.741000e+03   -5.010000e+02   -5.080000e+02
   2.884000e+03   -2.179000e+03   -5.274708e+02
  -6.120000e+02   -8.960000e+02   -5.895389e+02
  -1.985000e+03   -2.653000e+03   -5.598834e+02
  -3.390000e+03   -4.000000e+02   -4.982361e+02
   1.586000e+03    1.342000e+03   -6.618442e+02
   1.047000e+03    2.401000e+03   -5.426792e+02
   8.380000e+02   -1.300000e+03   -4.783644e+02
   2.569000e+03    2.441000e+03   -6.035668e+02
  -2.028000e+03    2.833000e+03   -4.322286e+02
  -1.086000e+03    1.998000e+03   -4.563301e+02
   1.514000e+03   -3.332000e+03   -5.646205e+02
   7.040000e+02    1.116000e+03   -5.365099e+02
   1.990000e+03    6.360000e+02   -7.085272e+02
   3.722000e+03   -1.700000e+02   -6.745213e+02
CELLS 46 92
1 0
1 1
1 2
1 3
1 4
1 5
1 6
1 7
1 8
1 9
1 10
1 11
1 12
1 13
1 14
1 15
1 16
1 17
1 18
1 19
1 20
1 21
1 22
1 23
1 24
1 25
1 26
1 27
1 28
1 29
1 30
1 31
1 32
1 33
1 34
1 35
1 36
1 37
1 38
1 39
1 40
1 41
1 42
1 43
1 44
1 45
CELL_TYPES 46
1
1
1
1
1
1
1
1
1
1
1
1
1
1
1
1
1
1
1
1
1
1
1
1
1
1
1
1
1
1
1
1
1
1
1
1
1
1
1
1
1
1
1
1
1
1
POINT_DATA 46
VECTORS Real_Arrow_6.309500e+00(Hz) float
  -1.069374e-01  -7.556137e-02   0.000000e+00
  -1.428957e-01   9.669923e-02   0.000000e+00
   0.000000e+00   0.000000e+00   0.000000e+00
  -1.021823e-02  -4.884116e-01   0.000000e+00
  -1.511683e-01  -8.342790e-02   0.000000e+00
  -5.540939e-02  -3.049899e-02   0.000000e+00
   7.900028e-02  -1.404005e-01   0.000000e+00
  -1.518717e-01   8.131188e-02   0.000000e+00
   2.047763e-01  -1.784976e-01   0.000000e+00
  -1.646322e-01  -6.661120e-02   0.000000e+00
  -1.762671e-01   9.647680e-02   0.000000e+00
  -2.085808e-01   2.558881e-02   0.000000e+00
   0.000000e+00   0.000000e+00   0.000000e+00
  -3.073822e-01  -6.781397e-02   0.000000e+00
  -7.650431e-02   4.285700e-02   0.000000e+00
   0.000000e+00   0.000000e+00   0.000000e+00
  -5.252460e-02  -6.839729e-02   0.000000e+00
   0.000000e+00   0.000000e+00   0.000000e+00
   5.062782e-03  -3.564167e-02   0.000000e+00
  -3.830467e-02   3.673084e-02   0.000000e+00
   0.000000e+00   0.000000e+00   0.000000e+00
  -2.002171e-01  -5.801216e-02   0.000000e+00
  -9.600300e-02   8.548232e-02   0.000000e+00
  -1.687406e-01  -1.180936e-01   0.000000e+00
   0.000000e+00   0.000000e+00   0.000000e+00
  -1.369342e-01   1.997063e-02   0.000000e+00
  -1.228838e-01  -1.434700e-01   0.000000e+00
  -7.472800e-02  -7.119368e-02   0.000000e+00
  -7.009232e-02  -9.939766e-03   0.000000e+00
  -3.306663e-02  -7.244777e-02   0.000000e+00
   0.000000e+00   0.000000e+00   0.000000e+00
  -2.485612e-01  -2.851880e-02   0.000000e+00
   1.767480e-01   8.133375e-02   0.000000e+00
   1.445135e-01   8.785042e-02   0.000000e+00
  -1.518096e-02  -1.015958e-01   0.000000e+00
  -3.153629e-01  -1.850928e-01   0.000000e+00
   0.000000e+00   0.000000e+00   0.000000e+00
  -1.247260e-01   4.615030e-02   0.000000e+00
  -2.064388e-01  -4.166925e-01   0.000000e+00
  -9.956058e-02   3.489444e-01   0.000000e+00
  -8.255306e-02   5.740682e-03   0.000000e+00
  -1.125087e-01   2.483992e-02   0.000000e+00
   2.677620e-03   3.918295e-02   0.000000e+00
  -2.235393e-01  -6.187441e-02   0.000000e+00
  -1.477292e-01  -6.363962e-04   0.000000e+00
   7.865636e-02  -1.547907e-01   0.000000e+00
VECTORS Imag_Arrow_6.309500e+00(Hz) float
  -7.373270e-02   3.099503e-02   0.000000e+00
  -6.824445e-02  -3.310675e-02   0.000000e+00
   0.000000e+00   0.000000e+00   0.000000e+00
  -3.981321e-02  -5.294250e-02   0.000000e+00
  -7.793625e-02   2.845839e-02   0.000000e+00
   9.195702e-03  -5.950958e-02   0.000000e+00
   1.121177e-02  -2.106905e-02   0.000000e+00
  -9.339263e-02  -6.506996e-02   0.000000e+00
  -1.111069e-01  -1.432301e-02   0.000000e+00
  -9.050009e-02  -1.771489e-02   0.000000e+00
  -5.562226e-02   3.562217e-02   0.000000e+00
  -1.373077e-01  -9.758435e-02   0.000000e+00
   0.000000e+00   0.000000e+00   0.000000e+00
  -1.733097e-02  -9.665902e-02   0.000000e+00
  -9.710564e-02  -4.196085e-03   0.000000e+00
   0.000000e+00   0.000000e+00   0.000000e+00
   7.467551e-02   6.169489e-02   0.000000e+00
   0.000000e+00   0.000000e+00   0.000000e+00
  -1.457667e-01   2.169171e-02   0.000000e+00
  -1.129870e-01  -2.789968e-03   0.000000e+00
   0.000000e+00   0.000000e+00   0.000000e+00
  -7.851087e-02  -1.191156e-02   0.000000e+00
  -5.604970e-02   2.047602e-02   0.000000e+00
  -8.671656e-02  -2.427261e-03   0.000000e+00
   0.000000e+00   0.000000e+00   0.000000e+00
  -8.755124e-02  -4.193726e-02   0.000000e+00
  -1.801589e-02  -9.910515e-02   0.000000e+00
  -9.533111e-03  -1.027632e-01   0.000000e+00
  -6.534239e-02  -5.243927e-02   0.000000e+00
  -8.069431e-02  -1.783756e-04   0.000000e+00
   0.000000e+00   0.000000e+00   0.000000e+00
  -4.805083e-02  -4.794557e-02   0.000000e+00
  -1.117248e-02  -6.057543e-02   0.000000e+00
  -1.311854e-01  -1.635385e-01   0.000000e+00
  -7.504742e-02   1.757336e-02   0.000000e+00
  -3.552062e-02   2.103142e-02   0.000000e+00
   0.000000e+00   0.000000e+00   0.000000e+00
  -8.196005e-02  -3.631371e-02   0.000000e+00
   2.285931e-03  -4.059075e-02   0.000000e+00
  -9.747340e-02   8.540224e-02   0.000000e+00
  -5.887634e-02   6.492679e-02   0.000000e+00
  -8.773375e-02   8.683922e-04   0.000000e+00
   3.344293e-02  -3.641296e-02   0.000000e+00
  -6.661265e-02  -1.710639e-02   0.000000e+00
  -2.967933e-03  -1.569417e-01   0.000000e+00
  -1.051521e-02  -8.855839e-02   0.000000e+00
VECTORS Real_Arrow_1.000000e+01(Hz) float
  -6.736942e-02  -9.666208e-02   0.000000e+00
  -1.034034e-01   9.332157e-02   0.000000e+00
   0.000000e+00   0.000000e+00   0.000000e+00
   8.999533e-03  -4.610191e-01   0.000000e+00
  -1.112125e-01  -1.034232e-01   0.000000e+00
  -5.783769e-02  -8.215189e-03   0.000000e+00
   7.655031e-02  -1.367391e-01   0.000000e+00
  -9.935702e-02   1.063468e-01   0.000000e+00
   2.554619e-01  -1.702029e-01   0.000000e+00
  -1.217407e-01  -6.704039e-02   0.000000e+00
  -1.583948e-01   6.699360e-02   0.000000e+00
  -1.415928e-01   6.376461e-02   0.000000e+00
   0.000000e+00   0.000000e+00   0.000000e+00
  -2.987216e-01  -2.922502e-02   0.000000e+00
   0.000000e+00   0.000000e+00   0.000000e+00
  -9.223350e-02   2.565259e-02   0.000000e+00
  -8.170551e-02  -9.678715e-02   0.000000e+00
   3.103288e-02   5.114378e-02   0.000000e+00
   7.173604e-02  -4.813761e-02   0.000000e+00
   1.448429e-02   2.481780e-02   0.000000e+00
   0.000000e+00   0.000000e+00   0.000000e+00
  -1.595607e-01  -5.723127e-02   0.000000e+00
  -7.453884e-02   5.712023e-02   0.000000e+00
  -1.180848e-01  -1.141836e-01   0.000000e+00
   0.000000e+00   0.000000e+00   0.000000e+00
  -8.963970e-02   3.752681e-02   0.000000e+00
  -1.139457e-01  -1.033100e-01   0.000000e+00
  -6.869940e-02  -3.055471e-02   0.000000e+00
  -3.562257e-02   1.405042e-02   0.000000e+00
   0.000000e+00   0.000000e+00   0.000000e+00
   0.000000e+00   0.000000e+00   0.000000e+00
  -2.198421e-01  -2.151438e-03   0.000000e+00
   1.600057e-01   8.954705e-02   0.000000e+00
   2.113365e-01   1.621783e-01   0.000000e+00
   2.340259e-02  -1.102363e-01   0.000000e+00
  -3.001153e-01  -1.855018e-01   0.000000e+00
   0.000000e+00   0.000000e+00   0.000000e+00
  -7.658107e-02   5.602138e-02   0.000000e+00
  -2.013818e-01  -4.019587e-01   0.000000e+00
  -4.602811e-02   2.836483e-01   0.000000e+00
  -5.824998e-02  -3.376337e-02   0.000000e+00
  -6.789998e-02   1.276546e-02   0.000000e+00
  -1.885200e-02   5.256354e-02   0.000000e+00
  -1.900658e-01  -6.220411e-02   0.000000e+00
  -1.443923e-01   6.001324e-02   0.000000e+00
   9.092087e-02  -1.170865e-01   0.000000e+00
VECTORS Imag_Arrow_1.000000e+01(Hz) float
  -7.215862e-02   3.571057e-02   0.000000e+00
  -5.952979e-02  -2.742089e-02   0.000000e+00
   0.000000e+00   0.000000e+00   0.000000e+00
  -4.445073e-02  -1.016604e-01   0.000000e+00
  -9.038249e-02   3.501919e-02   0.000000e+00
  -9.594509e-03  -5.309970e-02   0.000000e+00
   7.479351e-03  -3.002892e-02   0.000000e+00
  -9.984195e-02  -3.683274e-02   0.000000e+00
  -7.698844e-02  -8.175872e-03   0.000000e+00
  -1.216614e-01  -1.701061e-02   0.000000e+00
  -5.421750e-02   5.163256e-02   0.000000e+00
  -1.246917e-01  -5.043516e-02   0.000000e+00
   0.000000e+00   0.000000e+00   0.000000e+00
  -7.798431e-02  -1.095346e-01   0.000000e+00
   0.000000e+00   0.000000e+00   0.000000e+00
  -1.202647e-01  -4.040951e-02   0.000000e+00
   7.203279e-02   8.633587e-02   0.000000e+00
  -4.872727e-02   2.963313e-02   0.000000e+00
  -1.751563e-01   4.593031e-02   0.000000e+00
  -1.187121e-01   7.437981e-03   0.000000e+00
   0.000000e+00   0.000000e+00   0.000000e+00
  -1.010942e-01  -1.260815e-03   0.000000e+00
  -3.992320e-02   2.990939e-02   0.000000e+00
  -1.119627e-01  -5.858533e-04   0.000000e+00
   0.000000e+00   0.000000e+00   0.000000e+00
  -1.007746e-01  -1.499648e-02   0.000000e+00
  -4.736887e-02  -1.227334e-01   0.000000e+00
  -3.013652e-02  -1.149492e-01   0.000000e+00
  -6.875107e-02  -3.950439e-02   0.000000e+00
   0.000000e+00   0.000000e+00   0.000000e+00
   0.000000e+00   0.000000e+00   0.000000e+00
  -8.463171e-02  -4.119438e-02   0.000000e+00
   3.365895e-02  -3.207322e-02   0.000000e+00
  -1.038194e-01  -1.496042e-01   0.000000e+00
  -7.181078e-02   3.296201e-02   0.000000e+00
  -1.023977e-01   1.519741e-02   0.000000e+00
   0.000000e+00   0.000000e+00   0.000000e+00
  -1.050540e-01  -2.850204e-02   0.000000e+00
  -2.143040e-02  -9.911460e-02   0.000000e+00
  -1.144932e-01   1.526006e-01   0.000000e+00
  -4.643318e-02   8.102155e-02   0.000000e+00
  -8.957700e-02   1.302193e-02   0.000000e+00
   6.096268e-02  -4.954838e-03   0.000000e+00
  -1.101928e-01  -1.401697e-02   0.000000e+00
  -3.222270e-02  -1.785795e-01   0.000000e+00
  -6.470654e-03  -1.114940e-01   0.000000e+00
VECTORS Real_Arrow_1.584800e+01(Hz) float
  -3.469741e-02  -1.182073e-01   0.000000e+00
  -7.543385e-02   9.232096e-02   0.000000e+00
   0.000000e+00   0.000000e+00   0.000000e+00
   2.919305e-02  -4.115470e-01   0.000000e+00
  -7.052091e-02  -1.242349e-01   0.000000e+00
  -4.951535e-02   1.157380e-02   0.000000e+00
   7.846074e-02  -1.288065e-01   0.000000e+00
  -5.225973e-02   1.116769e-01   0.000000e+00
   2.818800e-01  -1.695481e-01   0.000000e+00
  -6.495534e-02  -6.474595e-02   0.000000e+00
  -1.451228e-01   4.023374e-02   0.000000e+00
   0.000000e+00   0.000000e+00   0.000000e+00
   0.000000e+00   0.000000e+00   0.000000e+00
  -2.595375e-01   1.712456e-02   0.000000e+00
   0.000000e+00   0.000000e+00   0.000000e+00
  -4.099169e-02   4.021268e-02   0.000000e+00
  -1.061782e-01  -1.356380e-01   0.000000e+00
   4.291244e-02   2.814116e-02   0.000000e+00
   1.506460e-01  -7.313201e-02   0.000000e+00
   6.666921e-02   1.354580e-02   0.000000e+00
  -1.217670e-01   1.628655e-02   0.000000e+00
  -1.132494e-01  -6.325500e-02   0.000000e+00
  -6.678631e-02   3.321868e-02   0.000000e+00
  -6.576280e-02  -1.135905e-01   0.000000e+00
   0.000000e+00   0.000000e+00   0.000000e+00
  -4.138003e-02   3.761062e-02   0.000000e+00
  -9.108669e-02  -5.148841e-02   0.000000e+00
  -5.221895e-02   1.570920e-02   0.000000e+00
  -8.409942e-03   2.554299e-02   0.000000e+00
   0.000000e+00   0.000000e+00   0.000000e+00
   0.000000e+00   0.000000e+00   0.000000e+00
  -1.766597e-01   1.396597e-02   0.000000e+00
   1.235900e-01   8.845847e-02   0.000000e+00
   2.550727e-01   2.250135e-01   0.000000e+00
   5.172857e-02  -1.331066e-01   0.000000e+00
  -2.481613e-01  -1.902867e-01   0.000000e+00
   0.000000e+00   0.000000e+00   0.000000e+00
  -1.789338e-02   6.476630e-02   0.000000e+00
  -1.874746e-01  -3.551987e-01   0.000000e+00
   6.098923e-03   2.082633e-01   0.000000e+00
  -4.511713e-02  -7.040431e-02   0.000000e+00
  -2.882883e-02  -4.132646e-04   0.000000e+00
  -5.170478e-02   4.625060e-02   0.000000e+00
  -1.366751e-01  -6.164032e-02   0.000000e+00
  -1.265954e-01   1.317389e-01   0.000000e+00
   9.918791e-02  -6.990722e-02   0.000000e+00
VECTORS Imag_Arrow_1.584800e+01(Hz) float
  -5.046645e-02   2.667394e-02   0.000000e+00
  -2.913632e-02  -3.831147e-02   0.000000e+00
   0.000000e+00   0.000000e+00   0.000000e+00
  -4.239971e-02  -1.399336e-01   0.000000e+00
  -8.542392e-02   2.856983e-02   0.000000e+00
  -2.922696e-02  -4.120074e-02   0.000000e+00
   5.770325e-03  -4.296352e-02   0.000000e+00
  -7.874506e-02  -2.854342e-03   0.000000e+00
  -2.373221e-02   2.381860e-03   0.000000e+00
  -1.390692e-01  -2.321370e-02   0.000000e+00
  -5.826540e-02   4.861653e-02   0.000000e+00
   0.000000e+00   0.000000e+00   0.000000e+00
   0.000000e+00   0.000000e+00   0.000000e+00
  -1.398250e-01  -1.122910e-01   0.000000e+00
   0.000000e+00   0.000000e+00   0.000000e+00
  -1.412040e-01  -2.203073e-02   0.000000e+00
   6.155210e-02   1.015934e-01   0.000000e+00
  -2.206045e-02   1.161475e-02   0.000000e+00
  -1.803587e-01   6.483025e-02   0.000000e+00
  -1.042401e-01   3.390117e-03   0.000000e+00
  -1.217222e-02  -3.198104e-02   0.000000e+00
  -1.075924e-01   5.633178e-03   0.000000e+00
  -2.291886e-02   1.380528e-02   0.000000e+00
  -1.110772e-01   4.040500e-03   0.000000e+00
   0.000000e+00   0.000000e+00   0.000000e+00
  -9.156404e-02   1.806591e-02   0.000000e+00
  -7.568925e-02  -1.358135e-01   0.000000e+00
  -4.917855e-02  -1.166041e-01   0.000000e+00
  -5.806294e-02  -1.757992e-02   0.000000e+00
   0.000000e+00   0.000000e+00   0.000000e+00
   0.000000e+00   0.000000e+00   0.000000e+00
  -1.064167e-01  -2.066969e-02   0.000000e+00
   4.869107e-02  -1.698430e-02   0.000000e+00
  -4.493729e-02  -1.062700e-01   0.000000e+00
  -5.385806e-02   4.259992e-02   0.000000e+00
  -1.677821e-01   1.433056e-02   0.000000e+00
   0.000000e+00   0.000000e+00   0.000000e+00
  -1.012233e-01  -2.016614e-02   0.000000e+00
  -4.189159e-02  -1.589074e-01   0.000000e+00
  -1.073176e-01   1.845362e-01   0.000000e+00
  -2.958405e-02   7.597056e-02   0.000000e+00
  -7.157223e-02   1.146734e-02   0.000000e+00
   7.290788e-02   2.975961e-02   0.000000e+00
  -1.423694e-01  -1.747394e-02   0.000000e+00
  -6.145224e-02  -1.860807e-01   0.000000e+00
   9.059588e-03  -1.221977e-01   0.000000e+00
