# vtk DataFile Version 2.0
Induction_Arrow_Iter3_PE4
ASCII
DATASET UNSTRUCTURED_GRID
POINTS 46 float
  -2.052000e+03    1.667000e+03   -4.526633e+02
  -1.265000e+03    2.333000e+03   -4.555885e+02
  -9.840000e+02    2.568000e+03   -4.612271e+02
   1.700000e+03   -1.757000e+03   -5.237752e+02
  -1.152000e+03    1.382000e+03   -4.549280e+02
   3.187000e+03    1.067000e+03   -8.370176e+02
   4.716000e+03    9.370000e+02   -8.015281e+02
  -1.855000e+03    5.260000e+02   -5.147377e+02
  -1.420000e+02   -1.905000e+03   -4.746368e+02
  -5.800000e+01    1.069000e+03   -4.555494e+02
  -2.802000e+03    3.302000e+03   -4.314337e+02
  -5.640000e+03   -1.532000e+03   -4.911771e+02
  -8.030000e+02   -5.610000e+02   -5.280929e+02
   1.008000e+03    4.130000e+02   -5.983358e+02
   1.960000e+02    2.246000e+03   -5.219413e+02
  -3.457000e+03    8.320000e+02   -4.470735e+02
   5.640000e+03    2.452000e+03   -7.393049e+02
  -1.334000e+03    3.332000e+03   -4.456136e+02
   1.244000e+03    1.880000e+03   -6.331107e+02
  -2.680000e+02    2.144000e+03   -4.891390e+02
  -4.063000e+03    6.620000e+02   -4.746103e+02
  -1.258000e+03    6.330000e+02   -4.856841e+02
  -2.141000e+03    3.194000e+03   -4.348461e+02
  -3.469000e+03   -3.059000e+03   -6.067613e+02
  -1.604000e+03   -2.570000e+02   -5.141257e+02
  -1.454000e+03    2.220000e+02   -5.386025e+02
   1.864000e+03    1.270000e+02   -7.404291e+02
   2.449000e+03    5.590000e+02   -7.805292e+02
  -1.834000e+03   -1.554000e+03   -6.273074e+02
   1.807000e+03    2.297000e+03   -6.825557e+02
  -2.560000e+03   -1.783000e+03   -6.131337e+02
  -2.741000e+03   -5.010000e+02   -5.080000e+02
   2.884000e+03   -2.179000e+03   -5.274708e+02
  -6.120000e+02   -8.960000e+02   -5.895389e+02
  -1.985000e+03   -2.653000e+03   -5.598834e+02
  -3.390000e+03   -4.000000e+02   -4.982361e+02
   1.586000e+03    1.342000e+03   -6.618442e+02
   1.047000e+03    2.401000e+03   -5.426792e+02
   8.380000e+02   -1.300000e+03   -4.783644e+02
   2.569000e+03    2.441000e+03   -6.035668e+02
  -2.028000e+03    2.833000e+03   -4.322286e+02
  -1.086000e+03    1.998000e+03   -4.563301e+02
   1.514000e+03   -3.332000e+03   -5.646205e+02
   7.040000e+02    1.116000e+03   -5.365099e+02
   1.990000e+03    6.360000e+02   -7.085272e+02
   3.722000e+03   -1.700000e+02   -6.745213e+02
CELLS 46 92
1 0
1 1
1 2
1 3
1 4
1 5
1 6
1 7
1 8
1 9
1 10
1 11
1 12
1 13
1 14
1 15
1 16
1 17
1 18
1 19
1 20
1 21
1 22
1 23
1 24
1 25
1 26
1 27
1 28
1 29
1 30
1 31
1 32
1 33
1 34
1 35
1 36
1 37
1 38
1 39
1 40
1 41
1 42
1 43
1 44
1 45
CELL_TYPES 46
1
1
1
1
1
1
1
1
1
1
1
1
1
1
1
1
1
1
1
1
1
1
1
1
1
1
1
1
1
1
1
1
1
1
1
1
1
1
1
1
1
1
1
1
1
1
POINT_DATA 46
VECTORS Real_Arrow_6.309500e+00(Hz) float
  -1.062807e-01  -7.559663e-02   0.000000e+00
  -1.421523e-01   9.639474e-02   0.000000e+00
   0.000000e+00   0.000000e+00   0.000000e+00
  -1.111472e-02  -4.895295e-01   0.000000e+00
  -1.509031e-01  -8.374089e-02   0.000000e+00
  -5.566058e-02  -3.087369e-02   0.000000e+00
   7.819346e-02  -1.405006e-01   0.000000e+00
  -1.518832e-01   7.986943e-02   0.000000e+00
   2.050633e-01  -1.811347e-01   0.000000e+00
  -1.645137e-01  -6.680009e-02   0.000000e+00
  -1.759090e-01   9.500844e-02   0.000000e+00
  -2.084610e-01   2.572795e-02   0.000000e+00
   0.000000e+00   0.000000e+00   0.000000e+00
  -3.059822e-01  -6.782977e-02   0.000000e+00
  -7.613154e-02   4.209485e-02   0.000000e+00
   0.000000e+00   0.000000e+00   0.000000e+00
  -5.180913e-02  -6.896552e-02   0.000000e+00
   0.000000e+00   0.000000e+00   0.000000e+00
   5.880299e-03  -3.556096e-02   0.000000e+00
  -3.866445e-02   3.623962e-02   0.000000e+00
   0.000000e+00   0.000000e+00   0.000000e+00
  -1.997932e-01  -5.765895e-02   0.000000e+00
  -9.599897e-02   8.511426e-02   0.000000e+00
  -1.692484e-01  -1.165490e-01   0.000000e+00
   0.000000e+00   0.000000e+00   0.000000e+00
  -1.377663e-01   1.957020e-02   0.000000e+00
  -1.222542e-01  -1.430460e-01   0.000000e+00
  -7.460474e-02  -7.118555e-02   0.000000e+00
  -7.060861e-02  -1.029618e-02   0.000000e+00
  -3.212732e-02  -6.712331e-02   0.000000e+00
   0.000000e+00   0.000000e+00   0.000000e+00
  -2.456693e-01  -2.737635e-02   0.000000e+00
   1.770402e-01   8.124170e-02   0.000000e+00
   1.442315e-01   8.849022e-02   0.000000e+00
  -1.559599e-02  -1.028047e-01   0.000000e+00
  -3.153336e-01  -1.854830e-01   0.000000e+00
   0.000000e+00   0.000000e+00   0.000000e+00
  -1.225684e-01   4.727656e-02   0.000000e+00
  -2.073067e-01  -4.179383e-01   0.000000e+00
  -9.867528e-02   3.471445e-01   0.000000e+00
  -8.243286e-02   5.549263e-03   0.000000e+00
  -1.118459e-01   2.446554e-02   0.000000e+00
   2.992473e-03   3.851240e-02   0.000000e+00
  -2.224720e-01  -6.097828e-02   0.000000e+00
  -1.473945e-01  -6.849887e-04   0.000000e+00
   7.846307e-02  -1.552423e-01   0.000000e+00
VECTORS Imag_Arrow_6.309500e+00(Hz) float
  -7.285231e-02   3.104856e-02   0.000000e+00
  -6.677855e-02  -3.254363e-02   0.000000e+00
   0.000000e+00   0.000000e+00   0.000000e+00
  -3.914846e-02  -5.384299e-02   0.000000e+00
  -7.706362e-02   2.880787e-02   0.000000e+00
   8.550123e-03  -5.926408e-02   0.000000e+00
   1.136059e-02  -2.093800e-02   0.000000e+00
  -9.301767e-02  -6.503267e-02   0.000000e+00
  -1.128293e-01  -1.543428e-02   0.000000e+00
  -9.044858e-02  -1.762765e-02   0.000000e+00
  -5.237444e-02   3.642319e-02   0.000000e+00
  -1.369244e-01  -9.667139e-02   0.000000e+00
   0.000000e+00   0.000000e+00   0.000000e+00
  -1.752524e-02  -9.635660e-02   0.000000e+00
  -9.644637e-02  -4.509702e-03   0.000000e+00
   0.000000e+00   0.000000e+00   0.000000e+00
   7.378197e-02   6.011041e-02   0.000000e+00
   0.000000e+00   0.000000e+00   0.000000e+00
  -1.457140e-01   2.216325e-02   0.000000e+00
  -1.122362e-01  -2.755603e-03   0.000000e+00
   0.000000e+00   0.000000e+00   0.000000e+00
  -7.818010e-02  -1.199288e-02   0.000000e+00
  -5.354682e-02   2.170510e-02   0.000000e+00
  -8.573534e-02  -2.633288e-03   0.000000e+00
   0.000000e+00   0.000000e+00   0.000000e+00
  -8.725075e-02  -4.193696e-02   0.000000e+00
  -1.825108e-02  -9.910284e-02   0.000000e+00
  -9.823772e-03  -1.024881e-01   0.000000e+00
  -6.448919e-02  -5.235810e-02   0.000000e+00
  -8.067710e-02   2.468208e-03   0.000000e+00
   0.000000e+00   0.000000e+00   0.000000e+00
  -4.767858e-02  -4.685101e-02   0.000000e+00
  -1.203798e-02  -6.079679e-02   0.000000e+00
  -1.302390e-01  -1.640698e-01   0.000000e+00
  -7.442489e-02   1.721960e-02   0.000000e+00
  -3.592889e-02   2.230100e-02   0.000000e+00
   0.000000e+00   0.000000e+00   0.000000e+00
  -8.202003e-02  -3.609759e-02   0.000000e+00
   2.739022e-03  -4.119224e-02   0.000000e+00
  -9.949570e-02   8.164108e-02   0.000000e+00
  -5.698031e-02   6.567641e-02   0.000000e+00
  -8.663821e-02   1.395866e-03   0.000000e+00
   3.348433e-02  -3.660306e-02   0.000000e+00
  -6.623235e-02  -1.763513e-02   0.000000e+00
  -3.353155e-03  -1.567336e-01   0.000000e+00
  -9.884601e-03  -8.833780e-02   0.000000e+00
VECTORS Real_Arrow_1.000000e+01(Hz) float
  -6.699405e-02  -9.667025e-02   0.000000e+00
  -1.032617e-01   9.279965e-02   0.000000e+00
   0.000000e+00   0.000000e+00   0.000000e+00
   8.109504e-03  -4.614930e-01   0.000000e+00
  -1.111965e-01  -1.038356e-01   0.000000e+00
  -5.755925e-02  -8.552657e-03   0.000000e+00
   7.575561e-02  -1.368516e-01   0.000000e+00
  -9.961845e-02   1.047906e-01   0.000000e+00
   2.569335e-01  -1.720783e-01   0.000000e+00
  -1.213604e-01  -6.715267e-02   0.000000e+00
  -1.593924e-01   6.535482e-02   0.000000e+00
  -1.418485e-01   6.287331e-02   0.000000e+00
   0.000000e+00   0.000000e+00   0.000000e+00
  -2.970990e-01  -2.928664e-02   0.000000e+00
   0.000000e+00   0.000000e+00   0.000000e+00
  -9.208888e-02   2.438997e-02   0.000000e+00
  -8.062182e-02  -9.679026e-02   0.000000e+00
   3.031818e-02   5.179047e-02   0.000000e+00
   7.255755e-02  -4.831567e-02   0.000000e+00
   1.405369e-02   2.444125e-02   0.000000e+00
   0.000000e+00   0.000000e+00   0.000000e+00
  -1.592419e-01  -5.683097e-02   0.000000e+00
  -7.544847e-02   5.625373e-02   0.000000e+00
  -1.192468e-01  -1.128086e-01   0.000000e+00
   0.000000e+00   0.000000e+00   0.000000e+00
  -9.061938e-02   3.706404e-02   0.000000e+00
  -1.130019e-01  -1.027156e-01   0.000000e+00
  -6.822731e-02  -3.048800e-02   0.000000e+00
  -3.662495e-02   1.362526e-02   0.000000e+00
   0.000000e+00   0.000000e+00   0.000000e+00
   0.000000e+00   0.000000e+00   0.000000e+00
  -2.173773e-01  -2.027748e-03   0.000000e+00
   1.605700e-01   8.961555e-02   0.000000e+00
   2.106161e-01   1.633008e-01   0.000000e+00
   2.250934e-02  -1.111811e-01   0.000000e+00
  -3.000159e-01  -1.869418e-01   0.000000e+00
   0.000000e+00   0.000000e+00   0.000000e+00
  -7.465126e-02   5.692429e-02   0.000000e+00
  -2.022106e-01  -4.025742e-01   0.000000e+00
  -4.397580e-02   2.843589e-01   0.000000e+00
  -5.865573e-02  -3.423483e-02   0.000000e+00
  -6.760837e-02   1.221322e-02   0.000000e+00
  -1.870188e-02   5.224110e-02   0.000000e+00
  -1.890762e-01  -6.086092e-02   0.000000e+00
  -1.436700e-01   6.004428e-02   0.000000e+00
   9.061330e-02  -1.173580e-01   0.000000e+00
VECTORS Imag_Arrow_1.000000e+01(Hz) float
  -7.168523e-02   3.538829e-02   0.000000e+00
  -5.850286e-02  -2.722123e-02   0.000000e+00
   0.000000e+00   0.000000e+00   0.000000e+00
  -4.420078e-02  -1.027905e-01   0.000000e+00
  -8.973881e-02   3.501015e-02   0.000000e+00
  -1.028611e-02  -5.286829e-02   0.000000e+00
   7.421477e-03  -2.994285e-02   0.000000e+00
  -9.958462e-02  -3.731777e-02   0.000000e+00
  -7.895079e-02  -9.868239e-03   0.000000e+00
  -1.220134e-01  -1.725547e-02   0.000000e+00
  -5.258180e-02   5.157197e-02   0.000000e+00
  -1.241957e-01  -4.965809e-02   0.000000e+00
   0.000000e+00   0.000000e+00   0.000000e+00
  -7.785999e-02  -1.092363e-01   0.000000e+00
   0.000000e+00   0.000000e+00   0.000000e+00
  -1.195724e-01  -4.072394e-02   0.000000e+00
   7.139284e-02   8.519954e-02   0.000000e+00
  -4.856461e-02   2.984262e-02   0.000000e+00
  -1.750319e-01   4.666725e-02   0.000000e+00
  -1.183771e-01   7.165905e-03   0.000000e+00
   0.000000e+00   0.000000e+00   0.000000e+00
  -1.007418e-01  -1.432883e-03   0.000000e+00
  -3.885272e-02   3.053565e-02   0.000000e+00
  -1.110491e-01  -8.772920e-05   0.000000e+00
   0.000000e+00   0.000000e+00   0.000000e+00
  -1.006874e-01  -1.523394e-02   0.000000e+00
  -4.760337e-02  -1.227940e-01   0.000000e+00
  -3.047687e-02  -1.146976e-01   0.000000e+00
  -6.792899e-02  -3.941864e-02   0.000000e+00
   0.000000e+00   0.000000e+00   0.000000e+00
   0.000000e+00   0.000000e+00   0.000000e+00
  -8.331190e-02  -3.954624e-02   0.000000e+00
   3.354253e-02  -3.239967e-02   0.000000e+00
  -1.027251e-01  -1.499939e-01   0.000000e+00
  -7.142759e-02   3.226713e-02   0.000000e+00
  -1.027295e-01   1.669562e-02   0.000000e+00
   0.000000e+00   0.000000e+00   0.000000e+00
  -1.047119e-01  -2.754159e-02   0.000000e+00
  -2.109256e-02  -1.001496e-01   0.000000e+00
  -1.152209e-01   1.499110e-01   0.000000e+00
  -4.572255e-02   8.112613e-02   0.000000e+00
  -8.887008e-02   1.317380e-02   0.000000e+00
   6.117545e-02  -4.915098e-03   0.000000e+00
  -1.096257e-01  -1.456849e-02   0.000000e+00
  -3.261684e-02  -1.784170e-01   0.000000e+00
  -6.060153e-03  -1.115690e-01   0.000000e+00
VECTORS Real_Arrow_1.584800e+01(Hz) float
  -3.421135e-02  -1.178537e-01   0.000000e+00
  -7.544268e-02   9.183302e-02   0.000000e+00
   0.000000e+00   0.000000e+00   0.000000e+00
   2.834171e-02  -4.113989e-01   0.000000e+00
  -7.058492e-02  -1.244741e-01   0.000000e+00
  -4.893785e-02   1.117593e-02   0.000000e+00
   7.769495e-02  -1.289670e-01   0.000000e+00
  -5.255302e-02   1.103552e-01   0.000000e+00
   2.844945e-01  -1.705957e-01   0.000000e+00
  -6.408811e-02  -6.458028e-02   0.000000e+00
  -1.460045e-01   3.895158e-02   0.000000e+00
   0.000000e+00   0.000000e+00   0.000000e+00
   0.000000e+00   0.000000e+00   0.000000e+00
  -2.579630e-01   1.694108e-02   0.000000e+00
   0.000000e+00   0.000000e+00   0.000000e+00
  -4.120384e-02   3.930511e-02   0.000000e+00
  -1.048692e-01  -1.353892e-01   0.000000e+00
   4.287083e-02   2.887395e-02   0.000000e+00
   1.513225e-01  -7.379481e-02   0.000000e+00
   6.629346e-02   1.343147e-02   0.000000e+00
  -1.220935e-01   1.368964e-02   0.000000e+00
  -1.130179e-01  -6.270756e-02   0.000000e+00
  -6.733791e-02   3.233281e-02   0.000000e+00
  -6.745910e-02  -1.126992e-01   0.000000e+00
   0.000000e+00   0.000000e+00   0.000000e+00
  -4.234613e-02   3.724703e-02   0.000000e+00
  -9.000276e-02  -5.081002e-02   0.000000e+00
  -5.158363e-02   1.573250e-02   0.000000e+00
  -9.826538e-03   2.509955e-02   0.000000e+00
   0.000000e+00   0.000000e+00   0.000000e+00
   0.000000e+00   0.000000e+00   0.000000e+00
  -1.750660e-01   1.303016e-02   0.000000e+00
   1.238375e-01   8.899480e-02   0.000000e+00
   2.536321e-01   2.264318e-01   0.000000e+00
   5.071477e-02  -1.335388e-01   0.000000e+00
  -2.477297e-01  -1.925515e-01   0.000000e+00
   0.000000e+00   0.000000e+00   0.000000e+00
  -1.639217e-02   6.479165e-02   0.000000e+00
  -1.884051e-01  -3.550229e-01   0.000000e+00
   7.850879e-03   2.094739e-01   0.000000e+00
  -4.509232e-02  -7.066512e-02   0.000000e+00
  -2.859086e-02  -8.610696e-04   0.000000e+00
  -5.173514e-02   4.564053e-02   0.000000e+00
  -1.359352e-01  -5.988764e-02   0.000000e+00
  -1.257055e-01   1.317641e-01   0.000000e+00
   9.875667e-02  -6.998474e-02   0.000000e+00
VECTORS Imag_Arrow_1.584800e+01(Hz) float
  -5.020038e-02   2.623745e-02   0.000000e+00
  -2.845987e-02  -3.838310e-02   0.000000e+00
   0.000000e+00   0.000000e+00   0.000000e+00
  -4.229988e-02  -1.410238e-01   0.000000e+00
  -8.481236e-02   2.835463e-02   0.000000e+00
  -2.959825e-02  -4.087417e-02   0.000000e+00
   5.607217e-03  -4.293965e-02   0.000000e+00
  -7.869227e-02  -3.926387e-03   0.000000e+00
  -2.504413e-02   5.442827e-04   0.000000e+00
  -1.393766e-01  -2.356298e-02   0.000000e+00
  -5.812478e-02   4.812502e-02   0.000000e+00
   0.000000e+00   0.000000e+00   0.000000e+00
   0.000000e+00   0.000000e+00   0.000000e+00
  -1.392098e-01  -1.119451e-01   0.000000e+00
   0.000000e+00   0.000000e+00   0.000000e+00
  -1.408595e-01  -2.287851e-02   0.000000e+00
   6.149392e-02   1.009034e-01   0.000000e+00
  -2.245914e-02   1.181767e-02   0.000000e+00
  -1.801043e-01   6.566863e-02   0.000000e+00
  -1.039901e-01   3.065165e-03   0.000000e+00
  -1.103561e-02  -3.298768e-02   0.000000e+00
  -1.071460e-01   5.473885e-03   0.000000e+00
  -2.289308e-02   1.397496e-02   0.000000e+00
  -1.107500e-01   4.929848e-03   0.000000e+00
   0.000000e+00   0.000000e+00   0.000000e+00
  -9.173797e-02   1.756674e-02   0.000000e+00
  -7.566345e-02  -1.357582e-01   0.000000e+00
  -4.929595e-02  -1.162293e-01   0.000000e+00
  -5.753554e-02  -1.752677e-02   0.000000e+00
   0.000000e+00   0.000000e+00   0.000000e+00
   0.000000e+00   0.000000e+00   0.000000e+00
  -1.045678e-01  -1.926643e-02   0.000000e+00
   4.882988e-02  -1.732229e-02   0.000000e+00
  -4.389456e-02  -1.060688e-01   0.000000e+00
  -5.402376e-02   4.181744e-02   0.000000e+00
  -1.680313e-01   1.533118e-02   0.000000e+00
   0.000000e+00   0.000000e+00   0.000000e+00
  -1.007841e-01  -1.870746e-02   0.000000e+00
  -4.146334e-02  -1.598620e-01   0.000000e+00
  -1.067006e-01   1.837874e-01   0.000000e+00
  -2.947194e-02   7.563211e-02   0.000000e+00
  -7.106015e-02   1.137613e-02   0.000000e+00
   7.308422e-02   3.004248e-02   0.000000e+00
  -1.415191e-01  -1.762466e-02   0.000000e+00
  -6.159050e-02  -1.858061e-01   0.000000e+00
   9.339071e-03  -1.223257e-01   0.000000e+00
