# vtk DataFile Version 2.0
Induction_Arrow_Iter7_PE7
ASCII
DATASET UNSTRUCTURED_GRID
POINTS 46 float
  -2.052000e+03    1.667000e+03   -4.526633e+02
  -1.265000e+03    2.333000e+03   -4.555885e+02
  -9.840000e+02    2.568000e+03   -4.612271e+02
   1.700000e+03   -1.757000e+03   -5.237752e+02
  -1.152000e+03    1.382000e+03   -4.549280e+02
   3.187000e+03    1.067000e+03   -8.370176e+02
   4.716000e+03    9.370000e+02   -8.015281e+02
  -1.855000e+03    5.260000e+02   -5.147377e+02
  -1.420000e+02   -1.905000e+03   -4.746368e+02
  -5.800000e+01    1.069000e+03   -4.555494e+02
  -2.802000e+03    3.302000e+03   -4.314337e+02
  -5.640000e+03   -1.532000e+03   -4.911771e+02
  -8.030000e+02   -5.610000e+02   -5.280929e+02
   1.008000e+03    4.130000e+02   -5.983358e+02
   1.960000e+02    2.246000e+03   -5.219413e+02
  -3.457000e+03    8.320000e+02   -4.470735e+02
   5.640000e+03    2.452000e+03   -7.393049e+02
  -1.334000e+03    3.332000e+03   -4.456136e+02
   1.244000e+03    1.880000e+03   -6.331107e+02
  -2.680000e+02    2.144000e+03   -4.891390e+02
  -4.063000e+03    6.620000e+02   -4.746103e+02
  -1.258000e+03    6.330000e+02   -4.856841e+02
  -2.141000e+03    3.194000e+03   -4.348461e+02
  -3.469000e+03   -3.059000e+03   -6.067613e+02
  -1.604000e+03   -2.570000e+02   -5.141257e+02
  -1.454000e+03    2.220000e+02   -5.386025e+02
   1.864000e+03    1.270000e+02   -7.404291e+02
   2.449000e+03    5.590000e+02   -7.805292e+02
  -1.834000e+03   -1.554000e+03   -6.273074e+02
   1.807000e+03    2.297000e+03   -6.825557e+02
  -2.560000e+03   -1.783000e+03   -6.131337e+02
  -2.741000e+03   -5.010000e+02   -5.080000e+02
   2.884000e+03   -2.179000e+03   -5.274708e+02
  -6.120000e+02   -8.960000e+02   -5.895389e+02
  -1.985000e+03   -2.653000e+03   -5.598834e+02
  -3.390000e+03   -4.000000e+02   -4.982361e+02
   1.586000e+03    1.342000e+03   -6.618442e+02
   1.047000e+03    2.401000e+03   -5.426792e+02
   8.380000e+02   -1.300000e+03   -4.783644e+02
   2.569000e+03    2.441000e+03   -6.035668e+02
  -2.028000e+03    2.833000e+03   -4.322286e+02
  -1.086000e+03    1.998000e+03   -4.563301e+02
   1.514000e+03   -3.332000e+03   -5.646205e+02
   7.040000e+02    1.116000e+03   -5.365099e+02
   1.990000e+03    6.360000e+02   -7.085272e+02
   3.722000e+03   -1.700000e+02   -6.745213e+02
CELLS 46 92
1 0
1 1
1 2
1 3
1 4
1 5
1 6
1 7
1 8
1 9
1 10
1 11
1 12
1 13
1 14
1 15
1 16
1 17
1 18
1 19
1 20
1 21
1 22
1 23
1 24
1 25
1 26
1 27
1 28
1 29
1 30
1 31
1 32
1 33
1 34
1 35
1 36
1 37
1 38
1 39
1 40
1 41
1 42
1 43
1 44
1 45
CELL_TYPES 46
1
1
1
1
1
1
1
1
1
1
1
1
1
1
1
1
1
1
1
1
1
1
1
1
1
1
1
1
1
1
1
1
1
1
1
1
1
1
1
1
1
1
1
1
1
1
POINT_DATA 46
VECTORS Real_Arrow_3.981000e+02(Hz) float
  -3.918147e-02  -3.297219e-02   0.000000e+00
  -1.142499e-01   1.749374e-01   0.000000e+00
  -9.482760e-02   1.071023e-01   0.000000e+00
   6.829307e-02  -8.307424e-02   0.000000e+00
   3.208852e-02  -3.619799e-02   0.000000e+00
   2.896344e-02  -1.869563e-02   0.000000e+00
   2.069104e-02   4.008730e-02   0.000000e+00
   6.172952e-03   2.240182e-02   0.000000e+00
   0.000000e+00   0.000000e+00   0.000000e+00
   4.148783e-02   1.204905e-02   0.000000e+00
  -3.672521e-02  -2.979486e-02   0.000000e+00
  -5.839278e-02   1.251480e-02   0.000000e+00
   3.386249e-02   2.266678e-01   0.000000e+00
   1.651323e-01   6.272463e-02   0.000000e+00
   2.271618e-02   3.856177e-02   0.000000e+00
   1.476526e-01  -2.219370e-02   0.000000e+00
  -1.703755e-01  -2.790781e-01   0.000000e+00
  -3.557582e-02   1.410983e-01   0.000000e+00
   2.653459e-01  -1.620193e-01   0.000000e+00
   6.950588e-02   3.850512e-02   0.000000e+00
  -8.601095e-02   4.788465e-02   0.000000e+00
  -2.492908e-02  -5.115656e-02   0.000000e+00
  -9.434692e-02   1.201123e-01   0.000000e+00
   8.554007e-02  -1.337589e-01   0.000000e+00
  -2.613106e-02  -6.548932e-02   0.000000e+00
  -2.517924e-02  -4.587174e-02   0.000000e+00
   1.300401e-01   1.301418e-01   0.000000e+00
   4.823024e-02   1.367589e-01   0.000000e+00
   4.057032e-02  -2.155030e-02   0.000000e+00
   6.248094e-02  -9.357354e-02   0.000000e+00
   3.272718e-02  -5.339152e-02   0.000000e+00
   3.851832e-02  -1.853250e-02   0.000000e+00
   7.728346e-02   6.349939e-02   0.000000e+00
  -1.671994e-02   1.496844e-03   0.000000e+00
   0.000000e+00   0.000000e+00   0.000000e+00
   1.265173e-01  -1.447385e-01   0.000000e+00
   2.700608e-02   1.442027e-01   0.000000e+00
   0.000000e+00   0.000000e+00   0.000000e+00
  -1.087005e-02   2.736875e-02   0.000000e+00
   1.184089e-01  -1.369766e-01   0.000000e+00
  -7.985816e-02  -1.943534e-01   0.000000e+00
   1.754935e-02  -2.224605e-02   0.000000e+00
  -1.164577e-01  -8.042223e-02   0.000000e+00
   1.083296e-01   1.639322e-02   0.000000e+00
   7.699291e-02   3.053627e-01   0.000000e+00
  -1.438623e-03   1.045891e-01   0.000000e+00
VECTORS Imag_Arrow_3.981000e+02(Hz) float
  -1.437529e-02  -4.473955e-02   0.000000e+00
  -5.268854e-02   4.702265e-02   0.000000e+00
  -1.144279e-02   3.227884e-02   0.000000e+00
  -2.111945e-02  -1.168036e-01   0.000000e+00
  -3.231867e-02  -6.337021e-02   0.000000e+00
  -7.127164e-03   1.386083e-02   0.000000e+00
   1.490811e-02  -2.477566e-02   0.000000e+00
  -6.484972e-02   4.965919e-02   0.000000e+00
   0.000000e+00   0.000000e+00   0.000000e+00
   3.028933e-02  -2.042761e-02   0.000000e+00
  -2.460681e-02   2.591023e-02   0.000000e+00
  -6.695103e-03  -1.022230e-02   0.000000e+00
   3.118550e-02   1.943683e-01   0.000000e+00
  -8.544319e-02   2.865465e-02   0.000000e+00
   2.540186e-02   4.078401e-03   0.000000e+00
   5.316692e-03   2.381481e-02   0.000000e+00
  -1.940460e-03  -3.385493e-02   0.000000e+00
   2.714222e-02  -4.012640e-03   0.000000e+00
   4.623338e-02  -7.876403e-03   0.000000e+00
  -8.667250e-03  -2.482489e-03   0.000000e+00
  -1.263834e-02  -1.089929e-02   0.000000e+00
   2.652626e-02   1.050508e-02   0.000000e+00
   1.405188e-02  -3.644627e-03   0.000000e+00
  -3.811714e-02  -2.998699e-02   0.000000e+00
  -4.060115e-02   2.443416e-02   0.000000e+00
   1.395586e-02  -2.736808e-02   0.000000e+00
  -6.569701e-02   1.523859e-02   0.000000e+00
  -1.402250e-03  -3.117727e-03   0.000000e+00
   9.284711e-03   6.452958e-02   0.000000e+00
  -1.409183e-03   8.618228e-06   0.000000e+00
   1.631754e-04   2.195725e-02   0.000000e+00
  -1.252510e-02  -1.459550e-02   0.000000e+00
  -5.044331e-03   1.878039e-02   0.000000e+00
   8.592895e-02   1.293569e-01   0.000000e+00
   0.000000e+00   0.000000e+00   0.000000e+00
  -4.851257e-02  -4.043558e-02   0.000000e+00
  -1.059820e-02   5.998020e-02   0.000000e+00
   0.000000e+00   0.000000e+00   0.000000e+00
  -8.483760e-02  -6.382694e-02   0.000000e+00
  -4.236798e-02   5.912994e-02   0.000000e+00
   7.188482e-03   1.211805e-02   0.000000e+00
  -1.623576e-02   1.830016e-02   0.000000e+00
  -6.002061e-02  -6.403818e-03   0.000000e+00
  -5.454412e-02  -5.605049e-02   0.000000e+00
  -6.377382e-02   6.221357e-02   0.000000e+00
   9.330758e-03  -2.472174e-02   0.000000e+00
VECTORS Real_Arrow_6.309500e+02(Hz) float
  -3.391708e-02  -1.852747e-02   0.000000e+00
  -9.001121e-02   1.494511e-01   0.000000e+00
  -8.656686e-02   9.338058e-02   0.000000e+00
   7.680048e-02  -4.802034e-02   0.000000e+00
   4.111783e-02  -1.366024e-02   0.000000e+00
   2.553018e-02  -1.813446e-02   0.000000e+00
   2.087890e-02   3.677400e-02   0.000000e+00
   2.945167e-02   3.280717e-03   0.000000e+00
   0.000000e+00   0.000000e+00   0.000000e+00
   2.896760e-02   1.657608e-02   0.000000e+00
  -3.109239e-02  -3.945487e-02   0.000000e+00
  -5.506826e-02   1.599643e-02   0.000000e+00
   2.905798e-02   1.654969e-01   0.000000e+00
   1.785863e-01   5.022398e-02   0.000000e+00
   1.470197e-02   3.711093e-02   0.000000e+00
   1.409201e-01  -2.894129e-02   0.000000e+00
  -1.721133e-01  -2.657849e-01   0.000000e+00
  -4.350625e-02   1.364143e-01   0.000000e+00
   2.404012e-01  -1.553926e-01   0.000000e+00
   7.515235e-02   4.114830e-02   0.000000e+00
  -8.210418e-02   5.112281e-02   0.000000e+00
  -3.657565e-02  -5.762097e-02   0.000000e+00
  -9.936544e-02   1.164740e-01   0.000000e+00
   9.588340e-02  -1.178034e-01   0.000000e+00
  -1.231356e-02  -5.641644e-02   0.000000e+00
  -2.997694e-02  -3.397099e-02   0.000000e+00
   1.511423e-01   1.167511e-01   0.000000e+00
   4.130202e-02   1.363298e-01   0.000000e+00
   3.091458e-02  -5.133287e-02   0.000000e+00
   6.621667e-02  -9.601916e-02   0.000000e+00
   2.984535e-02  -5.999780e-02   0.000000e+00
   2.997908e-02  -1.163026e-02   0.000000e+00
   7.759494e-02   5.825009e-02   0.000000e+00
  -3.847578e-02  -3.907677e-02   0.000000e+00
  -6.492660e-03  -2.677212e-02   0.000000e+00
   1.342940e-01  -1.285388e-01   0.000000e+00
   3.026278e-02   1.393409e-01   0.000000e+00
   0.000000e+00   0.000000e+00   0.000000e+00
   1.876963e-02   4.248821e-02   0.000000e+00
   1.310721e-01  -1.450438e-01   0.000000e+00
  -8.075784e-02  -1.936770e-01   0.000000e+00
   2.029778e-02  -2.922687e-02   0.000000e+00
  -8.809184e-02  -7.054749e-02   0.000000e+00
   1.235352e-01   3.456302e-02   0.000000e+00
   9.520232e-02   2.722023e-01   0.000000e+00
   1.055551e-03   1.074801e-01   0.000000e+00
VECTORS Imag_Arrow_6.309500e+02(Hz) float
  -1.206554e-02  -3.772680e-02   0.000000e+00
  -5.250385e-02   5.326882e-02   0.000000e+00
  -2.240042e-02   3.750736e-02   0.000000e+00
  -1.788284e-02  -1.146632e-01   0.000000e+00
  -2.387932e-02  -5.096688e-02   0.000000e+00
  -1.235000e-02   1.152911e-02   0.000000e+00
   6.606714e-03  -9.174867e-03   0.000000e+00
  -5.950541e-02   5.149675e-02   0.000000e+00
   0.000000e+00   0.000000e+00   0.000000e+00
   2.737283e-02  -1.383352e-02   0.000000e+00
  -2.216622e-02   1.588415e-02   0.000000e+00
  -4.182345e-03  -1.460809e-02   0.000000e+00
   1.758076e-02   1.752689e-01   0.000000e+00
  -6.467544e-02   2.094366e-02   0.000000e+00
   2.343058e-02   6.831258e-03   0.000000e+00
   2.038744e-02   1.877021e-02   0.000000e+00
  -1.931865e-02  -5.867362e-02   0.000000e+00
   1.509461e-02   2.416030e-02   0.000000e+00
   4.942212e-02  -1.064156e-02   0.000000e+00
  -2.028447e-02   1.104716e-03   0.000000e+00
  -1.113697e-02  -8.968852e-03   0.000000e+00
   3.084039e-02   1.487715e-02   0.000000e+00
   4.466689e-03   5.463029e-03   0.000000e+00
  -2.637746e-02  -4.344232e-02   0.000000e+00
  -4.118238e-02  -7.841026e-04   0.000000e+00
   1.322566e-02  -2.945690e-02   0.000000e+00
  -5.133128e-02   3.861232e-02   0.000000e+00
   2.506742e-03   5.481002e-03   0.000000e+00
   1.373476e-02   7.067132e-02   0.000000e+00
  -1.120055e-02   9.015196e-03   0.000000e+00
  -3.110749e-03   2.306491e-02   0.000000e+00
   8.911033e-03  -2.087330e-02   0.000000e+00
  -1.025551e-02   2.201858e-02   0.000000e+00
   6.604412e-02   1.071936e-01   0.000000e+00
   5.000042e-02  -7.656341e-02   0.000000e+00
  -4.186899e-02  -3.590937e-02   0.000000e+00
  -2.120861e-02   5.235092e-02   0.000000e+00
   0.000000e+00   0.000000e+00   0.000000e+00
  -7.370830e-02  -4.400324e-02   0.000000e+00
  -3.523554e-02   5.582230e-02   0.000000e+00
  -7.305815e-03  -8.646680e-03   0.000000e+00
  -5.992049e-03   7.893442e-03   0.000000e+00
  -6.825250e-02  -1.537781e-02   0.000000e+00
  -5.367065e-02  -5.556572e-02   0.000000e+00
  -4.980506e-02   8.180296e-02   0.000000e+00
   1.165960e-02  -2.455591e-02   0.000000e+00
VECTORS Real_Arrow_1.000000e+03(Hz) float
  -2.967875e-02  -7.930616e-03   0.000000e+00
  -7.095181e-02   1.270065e-01   0.000000e+00
  -7.429133e-02   7.877158e-02   0.000000e+00
   8.309974e-02  -1.091181e-02   0.000000e+00
   4.649625e-02  -6.597572e-05   0.000000e+00
   2.819558e-02  -1.725807e-02   0.000000e+00
   2.261252e-02   3.154804e-02   0.000000e+00
   4.987020e-02  -1.564104e-02   0.000000e+00
   0.000000e+00   0.000000e+00   0.000000e+00
   2.061036e-02   1.829731e-02   0.000000e+00
  -2.623471e-02  -4.325839e-02   0.000000e+00
  -5.305150e-02   2.053578e-02   0.000000e+00
   2.644199e-02   1.165936e-01   0.000000e+00
   1.877835e-01   4.677862e-02   0.000000e+00
   0.000000e+00   0.000000e+00   0.000000e+00
   1.291103e-01  -3.384331e-02   0.000000e+00
  -1.658108e-01  -2.435555e-01   0.000000e+00
  -4.547358e-02   1.189364e-01   0.000000e+00
   0.000000e+00   0.000000e+00   0.000000e+00
   8.503090e-02   4.239951e-02   0.000000e+00
  -7.812365e-02   5.396313e-02   0.000000e+00
  -4.880652e-02  -6.534769e-02   0.000000e+00
  -9.827267e-02   1.103606e-01   0.000000e+00
   0.000000e+00   0.000000e+00   0.000000e+00
   6.343360e-04  -4.276801e-02   0.000000e+00
  -3.371482e-02  -2.250612e-02   0.000000e+00
   1.652759e-01   9.659379e-02   0.000000e+00
   3.291619e-02   1.357925e-01   0.000000e+00
   2.146348e-02  -7.817397e-02   0.000000e+00
   7.215205e-02  -1.028118e-01   0.000000e+00
   3.066985e-02  -6.742623e-02   0.000000e+00
   1.922463e-02  -2.088376e-03   0.000000e+00
   0.000000e+00   0.000000e+00   0.000000e+00
  -5.414748e-02  -6.874604e-02   0.000000e+00
   0.000000e+00   0.000000e+00   0.000000e+00
   1.427115e-01  -1.138755e-01   0.000000e+00
   3.930839e-02   1.290662e-01   0.000000e+00
   0.000000e+00   0.000000e+00   0.000000e+00
   0.000000e+00   0.000000e+00   0.000000e+00
   1.388223e-01  -1.541692e-01   0.000000e+00
   0.000000e+00   0.000000e+00   0.000000e+00
   0.000000e+00   0.000000e+00   0.000000e+00
  -6.139192e-02  -6.002479e-02   0.000000e+00
   1.410421e-01   5.232184e-02   0.000000e+00
   1.043584e-01   2.357534e-01   0.000000e+00
  -8.320416e-04   1.139040e-01   0.000000e+00
VECTORS Imag_Arrow_1.000000e+03(Hz) float
  -9.198105e-03  -2.901659e-02   0.000000e+00
  -4.655925e-02   5.102979e-02   0.000000e+00
  -2.891733e-02   3.999035e-02   0.000000e+00
  -1.257116e-02  -1.096745e-01   0.000000e+00
  -1.476673e-02  -3.566621e-02   0.000000e+00
  -2.228093e-02   1.504230e-02   0.000000e+00
   3.115880e-03  -2.208100e-03   0.000000e+00
  -5.046895e-02   4.943848e-02   0.000000e+00
   0.000000e+00   0.000000e+00   0.000000e+00
   2.355322e-02  -8.402473e-03   0.000000e+00
  -2.058345e-02   3.691992e-03   0.000000e+00
   3.676697e-04  -1.915335e-02   0.000000e+00
   4.862581e-03   1.562400e-01   0.000000e+00
  -5.274353e-02   1.096131e-02   0.000000e+00
   0.000000e+00   0.000000e+00   0.000000e+00
   3.260415e-02   1.337598e-02   0.000000e+00
  -4.180654e-02  -8.513507e-02   0.000000e+00
   3.277693e-03   4.623069e-02   0.000000e+00
   0.000000e+00   0.000000e+00   0.000000e+00
  -2.833655e-02   7.055728e-03   0.000000e+00
  -9.251808e-03  -6.534743e-03   0.000000e+00
   3.264463e-02   1.672513e-02   0.000000e+00
  -5.593739e-03   1.120315e-02   0.000000e+00
   0.000000e+00   0.000000e+00   0.000000e+00
  -4.011741e-02  -1.044012e-02   0.000000e+00
   1.258509e-02  -2.931137e-02   0.000000e+00
  -3.337256e-02   5.559275e-02   0.000000e+00
  -1.849856e-03   1.602541e-02   0.000000e+00
   1.106055e-02   6.694102e-02   0.000000e+00
  -1.801578e-02   1.520493e-02   0.000000e+00
  -7.966878e-03   2.419012e-02   0.000000e+00
   1.953429e-02  -2.423997e-02   0.000000e+00
   0.000000e+00   0.000000e+00   0.000000e+00
   4.740908e-02   8.243363e-02   0.000000e+00
   0.000000e+00   0.000000e+00   0.000000e+00
  -3.711876e-02  -2.751634e-02   0.000000e+00
  -2.758816e-02   5.434434e-02   0.000000e+00
   0.000000e+00   0.000000e+00   0.000000e+00
   0.000000e+00   0.000000e+00   0.000000e+00
  -2.815774e-02   5.828461e-02   0.000000e+00
   0.000000e+00   0.000000e+00   0.000000e+00
   0.000000e+00   0.000000e+00   0.000000e+00
  -6.838782e-02  -1.809994e-02   0.000000e+00
  -5.038979e-02  -5.456918e-02   0.000000e+00
  -3.679405e-02   9.124974e-02   0.000000e+00
   1.533888e-02  -2.388288e-02   0.000000e+00
