# vtk DataFile Version 2.0
Induction_Arrow_Iter6_PE6
ASCII
DATASET UNSTRUCTURED_GRID
POINTS 46 float
  -2.052000e+03    1.667000e+03   -4.526633e+02
  -1.265000e+03    2.333000e+03   -4.555885e+02
  -9.840000e+02    2.568000e+03   -4.612271e+02
   1.700000e+03   -1.757000e+03   -5.237752e+02
  -1.152000e+03    1.382000e+03   -4.549280e+02
   3.187000e+03    1.067000e+03   -8.370176e+02
   4.716000e+03    9.370000e+02   -8.015281e+02
  -1.855000e+03    5.260000e+02   -5.147377e+02
  -1.420000e+02   -1.905000e+03   -4.746368e+02
  -5.800000e+01    1.069000e+03   -4.555494e+02
  -2.802000e+03    3.302000e+03   -4.314337e+02
  -5.640000e+03   -1.532000e+03   -4.911771e+02
  -8.030000e+02   -5.610000e+02   -5.280929e+02
   1.008000e+03    4.130000e+02   -5.983358e+02
   1.960000e+02    2.246000e+03   -5.219413e+02
  -3.457000e+03    8.320000e+02   -4.470735e+02
   5.640000e+03    2.452000e+03   -7.393049e+02
  -1.334000e+03    3.332000e+03   -4.456136e+02
   1.244000e+03    1.880000e+03   -6.331107e+02
  -2.680000e+02    2.144000e+03   -4.891390e+02
  -4.063000e+03    6.620000e+02   -4.746103e+02
  -1.258000e+03    6.330000e+02   -4.856841e+02
  -2.141000e+03    3.194000e+03   -4.348461e+02
  -3.469000e+03   -3.059000e+03   -6.067613e+02
  -1.604000e+03   -2.570000e+02   -5.141257e+02
  -1.454000e+03    2.220000e+02   -5.386025e+02
   1.864000e+03    1.270000e+02   -7.404291e+02
   2.449000e+03    5.590000e+02   -7.805292e+02
  -1.834000e+03   -1.554000e+03   -6.273074e+02
   1.807000e+03    2.297000e+03   -6.825557e+02
  -2.560000e+03   -1.783000e+03   -6.131337e+02
  -2.741000e+03   -5.010000e+02   -5.080000e+02
   2.884000e+03   -2.179000e+03   -5.274708e+02
  -6.120000e+02   -8.960000e+02   -5.895389e+02
  -1.985000e+03   -2.653000e+03   -5.598834e+02
  -3.390000e+03   -4.000000e+02   -4.982361e+02
   1.586000e+03    1.342000e+03   -6.618442e+02
   1.047000e+03    2.401000e+03   -5.426792e+02
   8.380000e+02   -1.300000e+03   -4.783644e+02
   2.569000e+03    2.441000e+03   -6.035668e+02
  -2.028000e+03    2.833000e+03   -4.322286e+02
  -1.086000e+03    1.998000e+03   -4.563301e+02
   1.514000e+03   -3.332000e+03   -5.646205e+02
   7.040000e+02    1.116000e+03   -5.365099e+02
   1.990000e+03    6.360000e+02   -7.085272e+02
   3.722000e+03   -1.700000e+02   -6.745213e+02
CELLS 46 92
1 0
1 1
1 2
1 3
1 4
1 5
1 6
1 7
1 8
1 9
1 10
1 11
1 12
1 13
1 14
1 15
1 16
1 17
1 18
1 19
1 20
1 21
1 22
1 23
1 24
1 25
1 26
1 27
1 28
1 29
1 30
1 31
1 32
1 33
1 34
1 35
1 36
1 37
1 38
1 39
1 40
1 41
1 42
1 43
1 44
1 45
CELL_TYPES 46
1
1
1
1
1
1
1
1
1
1
1
1
1
1
1
1
1
1
1
1
1
1
1
1
1
1
1
1
1
1
1
1
1
1
1
1
1
1
1
1
1
1
1
1
1
1
POINT_DATA 46
VECTORS Real_Arrow_1.000000e+02(Hz) float
  -5.802129e-02  -8.934157e-02   0.000000e+00
  -1.566887e-01   2.007988e-01   0.000000e+00
  -8.518963e-02   1.330338e-01   0.000000e+00
   4.763655e-02  -1.840859e-01   0.000000e+00
  -1.157318e-02  -1.146680e-01   0.000000e+00
   2.670097e-02   8.751126e-03   0.000000e+00
   5.655393e-02  -2.614287e-02   0.000000e+00
  -6.686769e-02   5.231767e-02   0.000000e+00
   0.000000e+00   0.000000e+00   0.000000e+00
   9.395247e-02  -1.804137e-02   0.000000e+00
  -5.628362e-02   4.570245e-03   0.000000e+00
  -5.789384e-02   7.808808e-03   0.000000e+00
   0.000000e+00   0.000000e+00   0.000000e+00
   5.054525e-02   1.108326e-01   0.000000e+00
   5.694803e-02   4.050735e-02   0.000000e+00
   1.434880e-01   1.384022e-02   0.000000e+00
  -1.497906e-01  -2.768497e-01   0.000000e+00
   1.386400e-02   8.318752e-02   0.000000e+00
   0.000000e+00   0.000000e+00   0.000000e+00
   9.445987e-02   3.589827e-02   0.000000e+00
  -9.934071e-02   3.668913e-02   0.000000e+00
   9.790649e-03  -5.536481e-02   0.000000e+00
  -6.262267e-02   9.550065e-02   0.000000e+00
   3.607924e-02  -1.332602e-01   0.000000e+00
   0.000000e+00   0.000000e+00   0.000000e+00
  -5.217546e-03  -7.753959e-02   0.000000e+00
   5.605203e-02   1.072768e-01   0.000000e+00
   4.226148e-02   1.252677e-01   0.000000e+00
   3.674212e-02   1.084282e-02   0.000000e+00
   9.855498e-02  -1.233767e-01   0.000000e+00
   4.082589e-02  -3.643837e-02   0.000000e+00
  -1.744373e-02  -2.255360e-02   0.000000e+00
   7.701369e-02   7.837550e-02   0.000000e+00
   1.085664e-01   1.776199e-01   0.000000e+00
   6.387942e-02  -1.574956e-01   0.000000e+00
   8.935774e-02  -1.898416e-01   0.000000e+00
   5.160605e-02   2.712225e-01   0.000000e+00
   0.000000e+00   0.000000e+00   0.000000e+00
  -1.008476e-01  -4.226676e-02   0.000000e+00
   7.306512e-02  -8.572459e-02   0.000000e+00
   0.000000e+00   0.000000e+00   0.000000e+00
  -2.056410e-02   1.118685e-02   0.000000e+00
  -1.541206e-01  -6.467844e-02   0.000000e+00
   7.007008e-02  -3.406013e-02   0.000000e+00
   5.048861e-03   3.317416e-01   0.000000e+00
   1.601226e-02   7.875087e-02   0.000000e+00
VECTORS Imag_Arrow_1.000000e+02(Hz) float
  -3.021778e-03  -5.173376e-02   0.000000e+00
   1.052587e-02  -3.444099e-02   0.000000e+00
   2.413940e-02  -9.599674e-03   0.000000e+00
  -1.214317e-02  -1.414223e-01   0.000000e+00
  -4.608222e-02  -5.116778e-02   0.000000e+00
  -3.199106e-02   2.236372e-02   0.000000e+00
   3.342054e-02  -8.420213e-02   0.000000e+00
  -3.070658e-02   2.408163e-02   0.000000e+00
   0.000000e+00   0.000000e+00   0.000000e+00
  -1.759896e-02  -3.546852e-02   0.000000e+00
  -4.441589e-02   2.707007e-02   0.000000e+00
  -1.420171e-02   8.946532e-03   0.000000e+00
   0.000000e+00   0.000000e+00   0.000000e+00
  -1.809825e-01   2.140373e-03   0.000000e+00
   1.609932e-02  -8.447444e-03   0.000000e+00
  -5.659126e-02   3.283175e-02   0.000000e+00
   2.522757e-02   4.506233e-02   0.000000e+00
   3.155424e-02  -4.910357e-02   0.000000e+00
   0.000000e+00   0.000000e+00   0.000000e+00
   1.200399e-02  -8.722191e-03   0.000000e+00
  -1.636746e-02  -1.731854e-02   0.000000e+00
  -2.069696e-02  -1.820312e-02   0.000000e+00
   8.571606e-03  -4.354178e-02   0.000000e+00
  -6.357552e-02   6.535333e-03   0.000000e+00
   0.000000e+00   0.000000e+00   0.000000e+00
   5.148507e-03   2.534894e-02   0.000000e+00
  -9.096809e-02  -6.380807e-02   0.000000e+00
  -3.635022e-02  -4.206881e-02   0.000000e+00
  -2.411187e-02   1.392023e-02   0.000000e+00
   2.246965e-02  -5.737162e-03   0.000000e+00
  -2.234314e-02   2.220301e-02   0.000000e+00
  -8.892763e-02   1.099883e-02   0.000000e+00
   9.723928e-03   1.239421e-02   0.000000e+00
   1.355209e-01   1.283064e-01   0.000000e+00
   2.254277e-02  -6.302246e-02   0.000000e+00
  -1.454882e-01  -2.455623e-02   0.000000e+00
  -3.800625e-02   8.870849e-02   0.000000e+00
   0.000000e+00   0.000000e+00   0.000000e+00
  -7.749116e-02  -1.445996e-01   0.000000e+00
  -4.616086e-02   1.519020e-01   0.000000e+00
   0.000000e+00   0.000000e+00   0.000000e+00
  -2.495092e-02   7.512340e-03   0.000000e+00
   1.697388e-02   4.908021e-02   0.000000e+00
  -9.307491e-02  -3.811560e-02   0.000000e+00
  -8.287472e-02  -5.408597e-02   0.000000e+00
   5.750563e-02  -7.582360e-02   0.000000e+00
VECTORS Real_Arrow_1.584800e+02(Hz) float
  -5.424717e-02  -6.743803e-02   0.000000e+00
  -1.559143e-01   2.079890e-01   0.000000e+00
  -9.321741e-02   1.298612e-01   0.000000e+00
   5.093176e-02  -1.470728e-01   0.000000e+00
   4.600016e-03  -9.147043e-02   0.000000e+00
   3.381142e-02  -4.404056e-03   0.000000e+00
   4.109516e-02   8.295714e-03   0.000000e+00
  -4.987165e-02   5.194930e-02   0.000000e+00
   0.000000e+00   0.000000e+00   0.000000e+00
   7.968174e-02  -5.777035e-03   0.000000e+00
  -4.790826e-02  -3.533402e-03   0.000000e+00
  -6.004419e-02   6.879464e-03   0.000000e+00
   0.000000e+00   0.000000e+00   0.000000e+00
   1.043003e-01   9.613363e-02   0.000000e+00
   4.451649e-02   4.169921e-02   0.000000e+00
   1.486268e-01  -1.721403e-03   0.000000e+00
  -1.573369e-01  -2.864448e-01   0.000000e+00
  -2.517518e-03   1.073404e-01   0.000000e+00
   0.000000e+00   0.000000e+00   0.000000e+00
   8.014374e-02   3.597204e-02   0.000000e+00
  -9.460855e-02   4.097235e-02   0.000000e+00
   1.215371e-03  -4.579115e-02   0.000000e+00
  -7.102476e-02   1.120730e-01   0.000000e+00
   5.465779e-02  -1.391578e-01   0.000000e+00
   0.000000e+00   0.000000e+00   0.000000e+00
  -1.226229e-02  -7.555823e-02   0.000000e+00
   8.145178e-02   1.240382e-01   0.000000e+00
   4.931929e-02   1.329939e-01   0.000000e+00
   4.430618e-02   1.104855e-02   0.000000e+00
   7.677201e-02  -1.096013e-01   0.000000e+00
   4.243760e-02  -4.213665e-02   0.000000e+00
   1.181295e-02  -2.553854e-02   0.000000e+00
   7.647241e-02   7.294146e-02   0.000000e+00
   5.484811e-02   1.146768e-01   0.000000e+00
   5.173067e-02  -1.237769e-01   0.000000e+00
   1.173383e-01  -1.783140e-01   0.000000e+00
   4.665967e-02   2.113108e-01   0.000000e+00
   0.000000e+00   0.000000e+00   0.000000e+00
  -7.452878e-02  -1.149253e-02   0.000000e+00
   8.637241e-02  -1.226254e-01   0.000000e+00
   0.000000e+00   0.000000e+00   0.000000e+00
  -6.795274e-03   4.901513e-03   0.000000e+00
  -1.547722e-01  -8.062617e-02   0.000000e+00
   8.737495e-02  -2.168699e-02   0.000000e+00
   2.850268e-02   3.396053e-01   0.000000e+00
  -5.323162e-03   9.890610e-02   0.000000e+00
VECTORS Imag_Arrow_1.584800e+02(Hz) float
  -1.159775e-02  -5.199564e-02   0.000000e+00
  -1.864949e-02  -9.990425e-04   0.000000e+00
   1.317363e-02   1.032357e-02   0.000000e+00
  -1.770710e-02  -1.276157e-01   0.000000e+00
  -4.527399e-02  -6.239473e-02   0.000000e+00
  -1.961033e-02   2.377214e-02   0.000000e+00
   3.282903e-02  -7.205272e-02   0.000000e+00
  -5.510274e-02   3.111493e-02   0.000000e+00
   0.000000e+00   0.000000e+00   0.000000e+00
   1.387116e-02  -3.207741e-02   0.000000e+00
  -3.367804e-02   3.030739e-02   0.000000e+00
  -8.683729e-03   5.594136e-06   0.000000e+00
   0.000000e+00   0.000000e+00   0.000000e+00
  -1.478058e-01   2.035782e-02   0.000000e+00
   2.264287e-02  -1.743955e-03   0.000000e+00
  -3.012219e-02   3.295507e-02   0.000000e+00
   1.856478e-02   1.673861e-02   0.000000e+00
   3.785902e-02  -4.590320e-02   0.000000e+00
   0.000000e+00   0.000000e+00   0.000000e+00
   1.149059e-02  -4.442637e-03   0.000000e+00
  -1.528988e-02  -1.447635e-02   0.000000e+00
   7.099752e-03  -7.866053e-03   0.000000e+00
   1.797135e-02  -3.076232e-02   0.000000e+00
  -5.670966e-02  -1.304122e-03   0.000000e+00
   0.000000e+00   0.000000e+00   0.000000e+00
   1.036989e-02  -5.580709e-03   0.000000e+00
  -8.231322e-02  -3.944943e-02   0.000000e+00
  -2.169780e-02  -2.700326e-02   0.000000e+00
  -1.342972e-02   2.758912e-02   0.000000e+00
   2.250482e-02  -1.400412e-02   0.000000e+00
  -9.220059e-03   2.105475e-02   0.000000e+00
  -6.893522e-02  -1.614750e-04   0.000000e+00
   3.693927e-03   1.476127e-02   0.000000e+00
   1.253214e-01   1.469777e-01   0.000000e+00
   3.650203e-02  -7.985127e-02   0.000000e+00
  -9.371963e-02  -3.438506e-02   0.000000e+00
  -1.363065e-02   1.048425e-01   0.000000e+00
   0.000000e+00   0.000000e+00   0.000000e+00
  -8.462715e-02  -1.074370e-01   0.000000e+00
  -4.814613e-02   1.048031e-01   0.000000e+00
   0.000000e+00   0.000000e+00   0.000000e+00
  -3.061444e-02   1.883962e-02   0.000000e+00
  -1.366067e-02   3.024662e-02   0.000000e+00
  -7.067950e-02  -4.709212e-02   0.000000e+00
  -7.752001e-02  -1.036190e-02   0.000000e+00
   3.750740e-02  -5.419920e-02   0.000000e+00
VECTORS Real_Arrow_2.511800e+02(Hz) float
  -4.642897e-02  -4.942460e-02   0.000000e+00
  -1.391856e-01   1.972337e-01   0.000000e+00
  -9.676842e-02   1.196363e-01   0.000000e+00
   5.899052e-02  -1.152961e-01   0.000000e+00
   1.998950e-02  -6.423857e-02   0.000000e+00
   3.357483e-02  -1.449399e-02   0.000000e+00
   2.743097e-02   3.217282e-02   0.000000e+00
  -2.099089e-02   4.053337e-02   0.000000e+00
   0.000000e+00   0.000000e+00   0.000000e+00
   5.914932e-02   4.493659e-03   0.000000e+00
  -4.241929e-02  -1.646970e-02   0.000000e+00
  -6.057803e-02   9.495464e-03   0.000000e+00
   4.219720e-02   3.024408e-01   0.000000e+00
   1.415672e-01   7.944510e-02   0.000000e+00
   3.312964e-02   3.993889e-02   0.000000e+00
   1.496679e-01  -1.369470e-02   0.000000e+00
  -1.644265e-01  -2.860890e-01   0.000000e+00
  -2.095157e-02   1.299256e-01   0.000000e+00
   0.000000e+00   0.000000e+00   0.000000e+00
   7.129193e-02   3.616201e-02   0.000000e+00
  -9.001411e-02   4.444751e-02   0.000000e+00
  -1.303822e-02  -4.619103e-02   0.000000e+00
  -8.377130e-02   1.195700e-01   0.000000e+00
   7.149073e-02  -1.403565e-01   0.000000e+00
   0.000000e+00   0.000000e+00   0.000000e+00
  -1.892369e-02  -6.009926e-02   0.000000e+00
   1.056846e-01   1.328712e-01   0.000000e+00
   5.086160e-02   1.366017e-01   0.000000e+00
   4.580602e-02   1.260482e-03   0.000000e+00
   6.465839e-02  -9.794621e-02   0.000000e+00
   3.816931e-02  -4.741017e-02   0.000000e+00
   3.266089e-02  -2.228421e-02   0.000000e+00
   7.682272e-02   6.811686e-02   0.000000e+00
   1.371408e-02   5.338809e-02   0.000000e+00
   0.000000e+00   0.000000e+00   0.000000e+00
   1.226394e-01  -1.622046e-01   0.000000e+00
   3.492664e-02   1.621381e-01   0.000000e+00
   0.000000e+00   0.000000e+00   0.000000e+00
  -4.368261e-02   8.656170e-03   0.000000e+00
   1.027812e-01  -1.323163e-01   0.000000e+00
  -6.993205e-02  -1.858038e-01   0.000000e+00
   8.383415e-03  -8.934793e-03   0.000000e+00
  -1.409447e-01  -8.544070e-02   0.000000e+00
   9.752556e-02  -3.521629e-03   0.000000e+00
   5.272923e-02   3.301062e-01   0.000000e+00
  -8.152326e-03   1.059306e-01   0.000000e+00
VECTORS Imag_Arrow_2.511800e+02(Hz) float
  -1.510775e-02  -4.908063e-02   0.000000e+00
  -4.159927e-02   2.842993e-02   0.000000e+00
   1.379398e-03   2.386410e-02   0.000000e+00
  -2.124961e-02  -1.197224e-01   0.000000e+00
  -3.983708e-02  -6.742669e-02   0.000000e+00
  -1.002010e-02   1.968268e-02   0.000000e+00
   2.576522e-02  -4.913197e-02   0.000000e+00
  -6.566729e-02   4.306549e-02   0.000000e+00
   0.000000e+00   0.000000e+00   0.000000e+00
   2.792326e-02  -2.681792e-02   0.000000e+00
  -2.770283e-02   3.106762e-02   0.000000e+00
  -7.208731e-03  -5.961761e-03   0.000000e+00
   4.883592e-02   2.034697e-01   0.000000e+00
  -1.145128e-01   2.853914e-02   0.000000e+00
   2.561218e-02   1.914839e-03   0.000000e+00
  -1.110427e-02   2.868175e-02   0.000000e+00
   1.034496e-02  -9.640017e-03   0.000000e+00
   3.610524e-02  -3.029742e-02   0.000000e+00
   0.000000e+00   0.000000e+00   0.000000e+00
   3.401208e-03  -3.558075e-03   0.000000e+00
  -1.409437e-02  -1.253049e-02   0.000000e+00
   2.014544e-02   3.346420e-03   0.000000e+00
   1.974474e-02  -1.611923e-02   0.000000e+00
  -4.818848e-02  -1.449806e-02   0.000000e+00
   0.000000e+00   0.000000e+00   0.000000e+00
   1.344541e-02  -2.202215e-02   0.000000e+00
  -7.521266e-02  -1.226485e-02   0.000000e+00
  -1.011381e-02  -1.368281e-02   0.000000e+00
  -1.025945e-03   4.740825e-02   0.000000e+00
   1.112702e-02  -9.615618e-03   0.000000e+00
  -1.170712e-03   2.106790e-02   0.000000e+00
  -4.247491e-02  -8.469800e-03   0.000000e+00
  -8.984405e-04   1.657269e-02   0.000000e+00
   1.064041e-01   1.450423e-01   0.000000e+00
   0.000000e+00   0.000000e+00   0.000000e+00
  -6.169787e-02  -4.030063e-02   0.000000e+00
  -4.774161e-03   8.602956e-02   0.000000e+00
   0.000000e+00   0.000000e+00   0.000000e+00
  -8.821734e-02  -8.278754e-02   0.000000e+00
  -4.681196e-02   7.142994e-02   0.000000e+00
   1.887137e-02   3.303050e-02   0.000000e+00
  -2.630046e-02   2.340111e-02   0.000000e+00
  -4.115661e-02   9.765380e-03   0.000000e+00
  -5.822273e-02  -5.405871e-02   0.000000e+00
  -7.290824e-02   3.055954e-02   0.000000e+00
   1.680639e-02  -3.371111e-02   0.000000e+00
