# vtk DataFile Version 2.0
Induction_Arrow_Iter1_PE4
ASCII
DATASET UNSTRUCTURED_GRID
POINTS 46 float
  -2.052000e+03    1.667000e+03   -4.526633e+02
  -1.265000e+03    2.333000e+03   -4.555885e+02
  -9.840000e+02    2.568000e+03   -4.612271e+02
   1.700000e+03   -1.757000e+03   -5.237752e+02
  -1.152000e+03    1.382000e+03   -4.549280e+02
   3.187000e+03    1.067000e+03   -8.370176e+02
   4.716000e+03    9.370000e+02   -8.015281e+02
  -1.855000e+03    5.260000e+02   -5.147377e+02
  -1.420000e+02   -1.905000e+03   -4.746368e+02
  -5.800000e+01    1.069000e+03   -4.555494e+02
  -2.802000e+03    3.302000e+03   -4.314337e+02
  -5.640000e+03   -1.532000e+03   -4.911771e+02
  -8.030000e+02   -5.610000e+02   -5.280929e+02
   1.008000e+03    4.130000e+02   -5.983358e+02
   1.960000e+02    2.246000e+03   -5.219413e+02
  -3.457000e+03    8.320000e+02   -4.470735e+02
   5.640000e+03    2.452000e+03   -7.393049e+02
  -1.334000e+03    3.332000e+03   -4.456136e+02
   1.244000e+03    1.880000e+03   -6.331107e+02
  -2.680000e+02    2.144000e+03   -4.891390e+02
  -4.063000e+03    6.620000e+02   -4.746103e+02
  -1.258000e+03    6.330000e+02   -4.856841e+02
  -2.141000e+03    3.194000e+03   -4.348461e+02
  -3.469000e+03   -3.059000e+03   -6.067613e+02
  -1.604000e+03   -2.570000e+02   -5.141257e+02
  -1.454000e+03    2.220000e+02   -5.386025e+02
   1.864000e+03    1.270000e+02   -7.404291e+02
   2.449000e+03    5.590000e+02   -7.805292e+02
  -1.834000e+03   -1.554000e+03   -6.273074e+02
   1.807000e+03    2.297000e+03   -6.825557e+02
  -2.560000e+03   -1.783000e+03   -6.131337e+02
  -2.741000e+03   -5.010000e+02   -5.080000e+02
   2.884000e+03   -2.179000e+03   -5.274708e+02
  -6.120000e+02   -8.960000e+02   -5.895389e+02
  -1.985000e+03   -2.653000e+03   -5.598834e+02
  -3.390000e+03   -4.000000e+02   -4.982361e+02
   1.586000e+03    1.342000e+03   -6.618442e+02
   1.047000e+03    2.401000e+03   -5.426792e+02
   8.380000e+02   -1.300000e+03   -4.783644e+02
   2.569000e+03    2.441000e+03   -6.035668e+02
  -2.028000e+03    2.833000e+03   -4.322286e+02
  -1.086000e+03    1.998000e+03   -4.563301e+02
   1.514000e+03   -3.332000e+03   -5.646205e+02
   7.040000e+02    1.116000e+03   -5.365099e+02
   1.990000e+03    6.360000e+02   -7.085272e+02
   3.722000e+03   -1.700000e+02   -6.745213e+02
CELLS 46 92
1 0
1 1
1 2
1 3
1 4
1 5
1 6
1 7
1 8
1 9
1 10
1 11
1 12
1 13
1 14
1 15
1 16
1 17
1 18
1 19
1 20
1 21
1 22
1 23
1 24
1 25
1 26
1 27
1 28
1 29
1 30
1 31
1 32
1 33
1 34
1 35
1 36
1 37
1 38
1 39
1 40
1 41
1 42
1 43
1 44
1 45
CELL_TYPES 46
1
1
1
1
1
1
1
1
1
1
1
1
1
1
1
1
1
1
1
1
1
1
1
1
1
1
1
1
1
1
1
1
1
1
1
1
1
1
1
1
1
1
1
1
1
1
POINT_DATA 46
VECTORS Real_Arrow_6.309500e+00(Hz) float
  -1.030376e-01  -7.509376e-02   0.000000e+00
  -1.405882e-01   9.635973e-02   0.000000e+00
   0.000000e+00   0.000000e+00   0.000000e+00
  -1.354014e-02  -4.931004e-01   0.000000e+00
  -1.497597e-01  -8.414659e-02   0.000000e+00
  -5.522778e-02  -3.119833e-02   0.000000e+00
   7.819860e-02  -1.408882e-01   0.000000e+00
  -1.517952e-01   7.735308e-02   0.000000e+00
   2.090996e-01  -1.888859e-01   0.000000e+00
  -1.632174e-01  -6.667108e-02   0.000000e+00
  -1.702965e-01   9.041906e-02   0.000000e+00
  -2.090349e-01   2.666898e-02   0.000000e+00
   0.000000e+00   0.000000e+00   0.000000e+00
  -3.019719e-01  -6.674764e-02   0.000000e+00
  -7.567780e-02   4.182904e-02   0.000000e+00
   0.000000e+00   0.000000e+00   0.000000e+00
  -4.975766e-02  -6.944433e-02   0.000000e+00
   0.000000e+00   0.000000e+00   0.000000e+00
   7.515558e-03  -3.373896e-02   0.000000e+00
  -3.939411e-02   3.641770e-02   0.000000e+00
   0.000000e+00   0.000000e+00   0.000000e+00
  -1.985589e-01  -5.571861e-02   0.000000e+00
  -9.339371e-02   8.441437e-02   0.000000e+00
  -1.700143e-01  -1.127259e-01   0.000000e+00
   0.000000e+00   0.000000e+00   0.000000e+00
  -1.395844e-01   1.867327e-02   0.000000e+00
  -1.195616e-01  -1.420296e-01   0.000000e+00
  -7.303431e-02  -7.072182e-02   0.000000e+00
  -7.193200e-02  -1.190108e-02   0.000000e+00
  -3.193552e-02  -5.959631e-02   0.000000e+00
   0.000000e+00   0.000000e+00   0.000000e+00
  -2.410894e-01  -2.512082e-02   0.000000e+00
   1.791281e-01   8.075693e-02   0.000000e+00
   1.430609e-01   9.131444e-02   0.000000e+00
  -1.837990e-02  -1.074673e-01   0.000000e+00
  -3.147590e-01  -1.839308e-01   0.000000e+00
   0.000000e+00   0.000000e+00   0.000000e+00
  -1.187688e-01   4.928646e-02   0.000000e+00
  -2.094889e-01  -4.232944e-01   0.000000e+00
  -9.659964e-02   3.437075e-01   0.000000e+00
  -7.956836e-02   4.446235e-03   0.000000e+00
  -1.104422e-01   2.411542e-02   0.000000e+00
   2.825281e-03   3.678115e-02   0.000000e+00
  -2.202562e-01  -5.729504e-02   0.000000e+00
  -1.456848e-01   8.772813e-05   0.000000e+00
   8.038588e-02  -1.570345e-01   0.000000e+00
VECTORS Imag_Arrow_6.309500e+00(Hz) float
  -6.971174e-02   3.003274e-02   0.000000e+00
  -6.296889e-02  -3.256192e-02   0.000000e+00
   0.000000e+00   0.000000e+00   0.000000e+00
  -3.808760e-02  -5.586066e-02   0.000000e+00
  -7.464112e-02   2.868182e-02   0.000000e+00
   7.453597e-03  -6.025526e-02   0.000000e+00
   1.060940e-02  -2.212320e-02   0.000000e+00
  -9.145057e-02  -6.507573e-02   0.000000e+00
  -1.163258e-01  -1.562238e-02   0.000000e+00
  -9.030609e-02  -1.848733e-02   0.000000e+00
  -4.264854e-02   3.625175e-02   0.000000e+00
  -1.374941e-01  -9.462897e-02   0.000000e+00
   0.000000e+00   0.000000e+00   0.000000e+00
  -1.771927e-02  -9.734064e-02   0.000000e+00
  -9.511231e-02  -6.015601e-03   0.000000e+00
   0.000000e+00   0.000000e+00   0.000000e+00
   7.293775e-02   5.801332e-02   0.000000e+00
   0.000000e+00   0.000000e+00   0.000000e+00
  -1.463045e-01   2.214090e-02   0.000000e+00
  -1.103136e-01  -3.595498e-03   0.000000e+00
   0.000000e+00   0.000000e+00   0.000000e+00
  -7.686614e-02  -1.290028e-02   0.000000e+00
  -4.731901e-02   2.201831e-02   0.000000e+00
  -8.392635e-02  -1.632559e-03   0.000000e+00
   0.000000e+00   0.000000e+00   0.000000e+00
  -8.598942e-02  -4.177298e-02   0.000000e+00
  -1.900933e-02  -1.004845e-01   0.000000e+00
  -1.048988e-02  -1.035022e-01   0.000000e+00
  -6.263876e-02  -5.254835e-02   0.000000e+00
  -8.057658e-02   6.379596e-03   0.000000e+00
   0.000000e+00   0.000000e+00   0.000000e+00
  -4.755412e-02  -4.419081e-02   0.000000e+00
  -1.430952e-02  -6.173107e-02   0.000000e+00
  -1.273903e-01  -1.647083e-01   0.000000e+00
  -7.261471e-02   1.505533e-02   0.000000e+00
  -3.819388e-02   2.491101e-02   0.000000e+00
   0.000000e+00   0.000000e+00   0.000000e+00
  -8.244311e-02  -3.568310e-02   0.000000e+00
   4.265486e-03  -4.254829e-02   0.000000e+00
  -9.986803e-02   7.396934e-02   0.000000e+00
  -5.181814e-02   6.586667e-02   0.000000e+00
  -8.366391e-02   1.495159e-03   0.000000e+00
   3.386311e-02  -3.698510e-02   0.000000e+00
  -6.554319e-02  -2.021165e-02   0.000000e+00
  -3.997375e-03  -1.578915e-01   0.000000e+00
  -9.906674e-03  -9.017539e-02   0.000000e+00
VECTORS Real_Arrow_1.000000e+01(Hz) float
  -6.518323e-02  -9.589163e-02   0.000000e+00
  -1.032669e-01   9.258007e-02   0.000000e+00
   0.000000e+00   0.000000e+00   0.000000e+00
   5.215496e-03  -4.639015e-01   0.000000e+00
  -1.109473e-01  -1.044436e-01   0.000000e+00
  -5.671748e-02  -8.374896e-03   0.000000e+00
   7.585224e-02  -1.367168e-01   0.000000e+00
  -1.004393e-01   1.017408e-01   0.000000e+00
   2.631369e-01  -1.798336e-01   0.000000e+00
  -1.197301e-01  -6.675586e-02   0.000000e+00
  -1.582760e-01   6.094989e-02   0.000000e+00
  -1.429450e-01   6.116628e-02   0.000000e+00
   0.000000e+00   0.000000e+00   0.000000e+00
  -2.931082e-01  -2.789411e-02   0.000000e+00
   0.000000e+00   0.000000e+00   0.000000e+00
  -9.006256e-02   2.137577e-02   0.000000e+00
  -7.814062e-02  -9.627995e-02   0.000000e+00
   2.943407e-02   5.223288e-02   0.000000e+00
   7.484666e-02  -4.666229e-02   0.000000e+00
   1.313856e-02   2.507150e-02   0.000000e+00
   0.000000e+00   0.000000e+00   0.000000e+00
  -1.585933e-01  -5.482498e-02   0.000000e+00
  -7.533144e-02   5.529801e-02   0.000000e+00
  -1.213243e-01  -1.104953e-01   0.000000e+00
   0.000000e+00   0.000000e+00   0.000000e+00
  -9.314133e-02   3.558773e-02   0.000000e+00
  -1.101074e-01  -1.010316e-01   0.000000e+00
  -6.648337e-02  -2.950353e-02   0.000000e+00
  -3.899393e-02   1.183580e-02   0.000000e+00
   0.000000e+00   0.000000e+00   0.000000e+00
   0.000000e+00   0.000000e+00   0.000000e+00
  -2.132897e-01  -2.440746e-03   0.000000e+00
   1.624342e-01   8.969634e-02   0.000000e+00
   2.078091e-01   1.665631e-01   0.000000e+00
   1.843046e-02  -1.147029e-01   0.000000e+00
  -2.984865e-01  -1.880229e-01   0.000000e+00
   0.000000e+00   0.000000e+00   0.000000e+00
  -7.063383e-02   5.843681e-02   0.000000e+00
  -2.051645e-01  -4.069763e-01   0.000000e+00
  -4.180845e-02   2.853166e-01   0.000000e+00
  -5.764448e-02  -3.551406e-02   0.000000e+00
  -6.730551e-02   1.166090e-02   0.000000e+00
  -1.939308e-02   5.104979e-02   0.000000e+00
  -1.870545e-01  -5.589010e-02   0.000000e+00
  -1.418250e-01   6.135328e-02   0.000000e+00
   9.213029e-02  -1.181402e-01   0.000000e+00
VECTORS Imag_Arrow_1.000000e+01(Hz) float
  -6.916425e-02   3.424797e-02   0.000000e+00
  -5.568986e-02  -2.723487e-02   0.000000e+00
   0.000000e+00   0.000000e+00   0.000000e+00
  -4.404182e-02  -1.056772e-01   0.000000e+00
  -8.772047e-02   3.466997e-02   0.000000e+00
  -1.093514e-02  -5.332099e-02   0.000000e+00
   7.458313e-03  -3.093173e-02   0.000000e+00
  -9.847553e-02  -3.835334e-02   0.000000e+00
  -8.238449e-02  -1.154618e-02   0.000000e+00
  -1.223876e-01  -1.811639e-02   0.000000e+00
  -4.486694e-02   5.021444e-02   0.000000e+00
  -1.242742e-01  -4.778667e-02   0.000000e+00
   0.000000e+00   0.000000e+00   0.000000e+00
  -7.703005e-02  -1.093062e-01   0.000000e+00
   0.000000e+00   0.000000e+00   0.000000e+00
  -1.167433e-01  -4.131826e-02   0.000000e+00
   7.128430e-02   8.361417e-02   0.000000e+00
  -4.741084e-02   2.899046e-02   0.000000e+00
  -1.761026e-01   4.748087e-02   0.000000e+00
  -1.174883e-01   6.391516e-03   0.000000e+00
   0.000000e+00   0.000000e+00   0.000000e+00
  -9.946364e-02  -2.190120e-03   0.000000e+00
  -3.511522e-02   3.038151e-02   0.000000e+00
  -1.090188e-01   2.211308e-03   0.000000e+00
   0.000000e+00   0.000000e+00   0.000000e+00
  -1.002313e-01  -1.554297e-02   0.000000e+00
  -4.783378e-02  -1.236088e-01   0.000000e+00
  -3.062653e-02  -1.150755e-01   0.000000e+00
  -6.620716e-02  -3.958672e-02   0.000000e+00
   0.000000e+00   0.000000e+00   0.000000e+00
   0.000000e+00   0.000000e+00   0.000000e+00
  -8.148384e-02  -3.597011e-02   0.000000e+00
   3.383173e-02  -3.338415e-02   0.000000e+00
  -1.000040e-01  -1.498223e-01   0.000000e+00
  -7.032735e-02   2.855585e-02   0.000000e+00
  -1.041547e-01   2.016712e-02   0.000000e+00
   0.000000e+00   0.000000e+00   0.000000e+00
  -1.054301e-01  -2.573960e-02   0.000000e+00
  -1.972655e-02  -1.027448e-01   0.000000e+00
  -1.142256e-01   1.445268e-01   0.000000e+00
  -4.258048e-02   8.071561e-02   0.000000e+00
  -8.676656e-02   1.320374e-02   0.000000e+00
   6.144009e-02  -5.310320e-03   0.000000e+00
  -1.084700e-01  -1.625903e-02   0.000000e+00
  -3.287905e-02  -1.788293e-01   0.000000e+00
  -5.013059e-03  -1.131888e-01   0.000000e+00
VECTORS Real_Arrow_1.584800e+01(Hz) float
  -3.289818e-02  -1.164394e-01   0.000000e+00
  -7.605723e-02   9.154377e-02   0.000000e+00
   0.000000e+00   0.000000e+00   0.000000e+00
   2.559898e-02  -4.122184e-01   0.000000e+00
  -7.080661e-02  -1.249568e-01   0.000000e+00
  -4.806134e-02   1.133007e-02   0.000000e+00
   7.735389e-02  -1.285739e-01   0.000000e+00
  -5.356314e-02   1.077208e-01   0.000000e+00
   2.925905e-01  -1.777479e-01   0.000000e+00
  -6.170679e-02  -6.383260e-02   0.000000e+00
  -1.470747e-01   3.548989e-02   0.000000e+00
   0.000000e+00   0.000000e+00   0.000000e+00
   0.000000e+00   0.000000e+00   0.000000e+00
  -2.544260e-01   1.801313e-02   0.000000e+00
   0.000000e+00   0.000000e+00   0.000000e+00
  -4.080425e-02   3.686328e-02   0.000000e+00
  -1.026576e-01  -1.344117e-01   0.000000e+00
   4.299425e-02   2.983494e-02   0.000000e+00
   1.543598e-01  -7.283676e-02   0.000000e+00
   6.560109e-02   1.443779e-02   0.000000e+00
  -1.221504e-01   6.060285e-03   0.000000e+00
  -1.126963e-01  -6.036805e-02   0.000000e+00
  -6.737164e-02   3.154049e-02   0.000000e+00
  -7.093933e-02  -1.119218e-01   0.000000e+00
   0.000000e+00   0.000000e+00   0.000000e+00
  -4.485869e-02   3.578529e-02   0.000000e+00
  -8.713270e-02  -4.899408e-02   0.000000e+00
  -4.997143e-02   1.665778e-02   0.000000e+00
  -1.306097e-02   2.343660e-02   0.000000e+00
   0.000000e+00   0.000000e+00   0.000000e+00
   0.000000e+00   0.000000e+00   0.000000e+00
  -1.723393e-01   1.039665e-02   0.000000e+00
   1.243905e-01   9.004217e-02   0.000000e+00
   2.491880e-01   2.297159e-01   0.000000e+00
   4.605578e-02  -1.346072e-01   0.000000e+00
  -2.455732e-01  -1.956572e-01   0.000000e+00
   0.000000e+00   0.000000e+00   0.000000e+00
  -1.195386e-02   6.490294e-02   0.000000e+00
  -1.920174e-01  -3.577404e-01   0.000000e+00
   8.852832e-03   2.113930e-01   0.000000e+00
  -4.407389e-02  -7.161668e-02   0.000000e+00
  -2.864996e-02  -1.420260e-03   0.000000e+00
  -5.255218e-02   4.433258e-02   0.000000e+00
  -1.344100e-01  -5.419159e-02   0.000000e+00
  -1.239178e-01   1.329837e-01   0.000000e+00
   9.924764e-02  -7.022514e-02   0.000000e+00
VECTORS Imag_Arrow_1.584800e+01(Hz) float
  -4.833278e-02   2.523383e-02   0.000000e+00
  -2.648667e-02  -3.840359e-02   0.000000e+00
   0.000000e+00   0.000000e+00   0.000000e+00
  -4.297240e-02  -1.442465e-01   0.000000e+00
  -8.290335e-02   2.767303e-02   0.000000e+00
  -2.986416e-02  -4.070163e-02   0.000000e+00
   6.136806e-03  -4.371972e-02   0.000000e+00
  -7.823579e-02  -6.462925e-03   0.000000e+00
  -2.673060e-02  -2.939290e-03   0.000000e+00
  -1.394715e-01  -2.432897e-02   0.000000e+00
  -5.326039e-02   4.626325e-02   0.000000e+00
   0.000000e+00   0.000000e+00   0.000000e+00
   0.000000e+00   0.000000e+00   0.000000e+00
  -1.373418e-01  -1.112139e-01   0.000000e+00
   0.000000e+00   0.000000e+00   0.000000e+00
  -1.381004e-01  -2.462978e-02   0.000000e+00
   6.204123e-02   1.000905e-01   0.000000e+00
  -2.246888e-02   1.129973e-02   0.000000e+00
  -1.808287e-01   6.710171e-02   0.000000e+00
  -1.032052e-01   2.790919e-03   0.000000e+00
  -9.687192e-03  -3.693034e-02   0.000000e+00
  -1.058094e-01   4.747976e-03   0.000000e+00
  -2.132886e-02   1.359502e-02   0.000000e+00
  -1.096530e-01   7.243618e-03   0.000000e+00
   0.000000e+00   0.000000e+00   0.000000e+00
  -9.228846e-02   1.627505e-02   0.000000e+00
  -7.537248e-02  -1.358491e-01   0.000000e+00
  -4.901494e-02  -1.158562e-01   0.000000e+00
  -5.640690e-02  -1.788382e-02   0.000000e+00
   0.000000e+00   0.000000e+00   0.000000e+00
   0.000000e+00   0.000000e+00   0.000000e+00
  -1.015569e-01  -1.685021e-02   0.000000e+00
   4.981534e-02  -1.785779e-02   0.000000e+00
  -4.219681e-02  -1.046662e-01   0.000000e+00
  -5.443728e-02   3.736141e-02   0.000000e+00
  -1.680353e-01   1.780849e-02   0.000000e+00
   0.000000e+00   0.000000e+00   0.000000e+00
  -1.015074e-01  -1.598458e-02   0.000000e+00
  -4.042198e-02  -1.630910e-01   0.000000e+00
  -1.048840e-01   1.818033e-01   0.000000e+00
  -2.771119e-02   7.487122e-02   0.000000e+00
  -6.946644e-02   1.134004e-02   0.000000e+00
   7.296805e-02   2.978960e-02   0.000000e+00
  -1.396560e-01  -1.776337e-02   0.000000e+00
  -6.159438e-02  -1.854061e-01   0.000000e+00
   1.090540e-02  -1.234064e-01   0.000000e+00
