# vtk DataFile Version 2.0
Induction_Arrow_Iter9_PE6
ASCII
DATASET UNSTRUCTURED_GRID
POINTS 46 float
  -2.052000e+03    1.667000e+03   -4.526633e+02
  -1.265000e+03    2.333000e+03   -4.555885e+02
  -9.840000e+02    2.568000e+03   -4.612271e+02
   1.700000e+03   -1.757000e+03   -5.237752e+02
  -1.152000e+03    1.382000e+03   -4.549280e+02
   3.187000e+03    1.067000e+03   -8.370176e+02
   4.716000e+03    9.370000e+02   -8.015281e+02
  -1.855000e+03    5.260000e+02   -5.147377e+02
  -1.420000e+02   -1.905000e+03   -4.746368e+02
  -5.800000e+01    1.069000e+03   -4.555494e+02
  -2.802000e+03    3.302000e+03   -4.314337e+02
  -5.640000e+03   -1.532000e+03   -4.911771e+02
  -8.030000e+02   -5.610000e+02   -5.280929e+02
   1.008000e+03    4.130000e+02   -5.983358e+02
   1.960000e+02    2.246000e+03   -5.219413e+02
  -3.457000e+03    8.320000e+02   -4.470735e+02
   5.640000e+03    2.452000e+03   -7.393049e+02
  -1.334000e+03    3.332000e+03   -4.456136e+02
   1.244000e+03    1.880000e+03   -6.331107e+02
  -2.680000e+02    2.144000e+03   -4.891390e+02
  -4.063000e+03    6.620000e+02   -4.746103e+02
  -1.258000e+03    6.330000e+02   -4.856841e+02
  -2.141000e+03    3.194000e+03   -4.348461e+02
  -3.469000e+03   -3.059000e+03   -6.067613e+02
  -1.604000e+03   -2.570000e+02   -5.141257e+02
  -1.454000e+03    2.220000e+02   -5.386025e+02
   1.864000e+03    1.270000e+02   -7.404291e+02
   2.449000e+03    5.590000e+02   -7.805292e+02
  -1.834000e+03   -1.554000e+03   -6.273074e+02
   1.807000e+03    2.297000e+03   -6.825557e+02
  -2.560000e+03   -1.783000e+03   -6.131337e+02
  -2.741000e+03   -5.010000e+02   -5.080000e+02
   2.884000e+03   -2.179000e+03   -5.274708e+02
  -6.120000e+02   -8.960000e+02   -5.895389e+02
  -1.985000e+03   -2.653000e+03   -5.598834e+02
  -3.390000e+03   -4.000000e+02   -4.982361e+02
   1.586000e+03    1.342000e+03   -6.618442e+02
   1.047000e+03    2.401000e+03   -5.426792e+02
   8.380000e+02   -1.300000e+03   -4.783644e+02
   2.569000e+03    2.441000e+03   -6.035668e+02
  -2.028000e+03    2.833000e+03   -4.322286e+02
  -1.086000e+03    1.998000e+03   -4.563301e+02
   1.514000e+03   -3.332000e+03   -5.646205e+02
   7.040000e+02    1.116000e+03   -5.365099e+02
   1.990000e+03    6.360000e+02   -7.085272e+02
   3.722000e+03   -1.700000e+02   -6.745213e+02
CELLS 46 92
1 0
1 1
1 2
1 3
1 4
1 5
1 6
1 7
1 8
1 9
1 10
1 11
1 12
1 13
1 14
1 15
1 16
1 17
1 18
1 19
1 20
1 21
1 22
1 23
1 24
1 25
1 26
1 27
1 28
1 29
1 30
1 31
1 32
1 33
1 34
1 35
1 36
1 37
1 38
1 39
1 40
1 41
1 42
1 43
1 44
1 45
CELL_TYPES 46
1
1
1
1
1
1
1
1
1
1
1
1
1
1
1
1
1
1
1
1
1
1
1
1
1
1
1
1
1
1
1
1
1
1
1
1
1
1
1
1
1
1
1
1
1
1
POINT_DATA 46
VECTORS Real_Arrow_1.000000e+02(Hz) float
  -5.801265e-02  -8.947293e-02   0.000000e+00
  -1.564314e-01   2.004852e-01   0.000000e+00
  -8.511764e-02   1.329969e-01   0.000000e+00
   4.776797e-02  -1.845158e-01   0.000000e+00
  -1.140940e-02  -1.148333e-01   0.000000e+00
   2.663606e-02   8.880412e-03   0.000000e+00
   5.709856e-02  -2.645803e-02   0.000000e+00
  -6.647206e-02   5.161945e-02   0.000000e+00
   0.000000e+00   0.000000e+00   0.000000e+00
   9.449787e-02  -1.831189e-02   0.000000e+00
  -5.714505e-02   4.275960e-03   0.000000e+00
  -5.786055e-02   7.827942e-03   0.000000e+00
   0.000000e+00   0.000000e+00   0.000000e+00
   5.093105e-02   1.110417e-01   0.000000e+00
   5.729188e-02   4.049236e-02   0.000000e+00
   1.429942e-01   1.391533e-02   0.000000e+00
  -1.505546e-01  -2.767364e-01   0.000000e+00
   1.387779e-02   8.333516e-02   0.000000e+00
   0.000000e+00   0.000000e+00   0.000000e+00
   9.451967e-02   3.575946e-02   0.000000e+00
  -9.953386e-02   3.638433e-02   0.000000e+00
   1.033168e-02  -5.525806e-02   0.000000e+00
  -6.288522e-02   9.556371e-02   0.000000e+00
   3.598026e-02  -1.329787e-01   0.000000e+00
   0.000000e+00   0.000000e+00   0.000000e+00
  -5.229993e-03  -7.810884e-02   0.000000e+00
   5.610435e-02   1.070575e-01   0.000000e+00
   4.233712e-02   1.253768e-01   0.000000e+00
   3.662909e-02   1.065407e-02   0.000000e+00
   9.856640e-02  -1.220257e-01   0.000000e+00
   4.044910e-02  -3.657994e-02   0.000000e+00
  -1.615627e-02  -2.231941e-02   0.000000e+00
   7.719189e-02   7.848890e-02   0.000000e+00
   1.097577e-01   1.778769e-01   0.000000e+00
   6.382004e-02  -1.580441e-01   0.000000e+00
   9.012537e-02  -1.894626e-01   0.000000e+00
   5.106851e-02   2.709145e-01   0.000000e+00
   0.000000e+00   0.000000e+00   0.000000e+00
  -1.003318e-01  -4.136755e-02   0.000000e+00
   7.340513e-02  -8.528196e-02   0.000000e+00
   0.000000e+00   0.000000e+00   0.000000e+00
  -2.038261e-02   1.093419e-02   0.000000e+00
  -1.543115e-01  -6.492590e-02   0.000000e+00
   7.045655e-02  -3.405684e-02   0.000000e+00
   5.072006e-03   3.319882e-01   0.000000e+00
   1.620280e-02   7.888660e-02   0.000000e+00
VECTORS Imag_Arrow_1.000000e+02(Hz) float
  -3.372999e-03  -5.190887e-02   0.000000e+00
   1.059347e-02  -3.439575e-02   0.000000e+00
   2.410903e-02  -9.484427e-03   0.000000e+00
  -1.155947e-02  -1.417814e-01   0.000000e+00
  -4.583431e-02  -5.108982e-02   0.000000e+00
  -3.208894e-02   2.229097e-02   0.000000e+00
   3.322048e-02  -8.457852e-02   0.000000e+00
  -3.095191e-02   2.402163e-02   0.000000e+00
   0.000000e+00   0.000000e+00   0.000000e+00
  -1.772191e-02  -3.524683e-02   0.000000e+00
  -4.479863e-02   2.700631e-02   0.000000e+00
  -1.405330e-02   8.841551e-03   0.000000e+00
   0.000000e+00   0.000000e+00   0.000000e+00
  -1.815680e-01   2.433148e-03   0.000000e+00
   1.628132e-02  -8.366056e-03   0.000000e+00
  -5.632952e-02   3.250814e-02   0.000000e+00
   2.503946e-02   4.566729e-02   0.000000e+00
   3.146872e-02  -4.924090e-02   0.000000e+00
   0.000000e+00   0.000000e+00   0.000000e+00
   1.219183e-02  -8.772346e-03   0.000000e+00
  -1.597576e-02  -1.726428e-02   0.000000e+00
  -2.034270e-02  -1.812519e-02   0.000000e+00
   8.726025e-03  -4.345500e-02   0.000000e+00
  -6.291325e-02   6.719226e-03   0.000000e+00
   0.000000e+00   0.000000e+00   0.000000e+00
   5.106477e-03   2.530401e-02   0.000000e+00
  -9.124226e-02  -6.377695e-02   0.000000e+00
  -3.645106e-02  -4.201166e-02   0.000000e+00
  -2.426842e-02   1.318033e-02   0.000000e+00
   2.291043e-02  -6.908921e-03   0.000000e+00
  -2.229188e-02   2.233948e-02   0.000000e+00
  -8.887978e-02   1.232041e-02   0.000000e+00
   9.931371e-03   1.232941e-02   0.000000e+00
   1.372354e-01   1.285005e-01   0.000000e+00
   2.209262e-02  -6.305197e-02   0.000000e+00
  -1.461369e-01  -2.375051e-02   0.000000e+00
  -3.833894e-02   8.808558e-02   0.000000e+00
   0.000000e+00   0.000000e+00   0.000000e+00
  -7.721599e-02  -1.449079e-01   0.000000e+00
  -4.675399e-02   1.519138e-01   0.000000e+00
   0.000000e+00   0.000000e+00   0.000000e+00
  -2.472412e-02   7.562899e-03   0.000000e+00
   1.692539e-02   4.943414e-02   0.000000e+00
  -9.319748e-02  -3.858557e-02   0.000000e+00
  -8.297334e-02  -5.401480e-02   0.000000e+00
   5.790810e-02  -7.564749e-02   0.000000e+00
VECTORS Real_Arrow_1.584800e+02(Hz) float
  -5.409430e-02  -6.744296e-02   0.000000e+00
  -1.557553e-01   2.077914e-01   0.000000e+00
  -9.316673e-02   1.298982e-01   0.000000e+00
   5.075346e-02  -1.472224e-01   0.000000e+00
   4.553859e-03  -9.162775e-02   0.000000e+00
   3.391653e-02  -4.278237e-03   0.000000e+00
   4.161316e-02   8.248196e-03   0.000000e+00
  -4.936458e-02   5.155360e-02   0.000000e+00
   0.000000e+00   0.000000e+00   0.000000e+00
   8.022227e-02  -6.141145e-03   0.000000e+00
  -4.843736e-02  -3.623379e-03   0.000000e+00
  -6.000168e-02   6.994162e-03   0.000000e+00
   0.000000e+00   0.000000e+00   0.000000e+00
   1.049928e-01   9.615654e-02   0.000000e+00
   4.467703e-02   4.169024e-02   0.000000e+00
   1.481688e-01  -1.336456e-03   0.000000e+00
  -1.579176e-01  -2.865461e-01   0.000000e+00
  -2.544344e-03   1.074980e-01   0.000000e+00
   0.000000e+00   0.000000e+00   0.000000e+00
   8.006330e-02   3.593010e-02   0.000000e+00
  -9.504580e-02   4.074678e-02   0.000000e+00
   1.394420e-03  -4.577047e-02   0.000000e+00
  -7.135037e-02   1.121079e-01   0.000000e+00
   5.437483e-02  -1.391074e-01   0.000000e+00
   0.000000e+00   0.000000e+00   0.000000e+00
  -1.209915e-02  -7.596784e-02   0.000000e+00
   8.165121e-02   1.236873e-01   0.000000e+00
   4.951425e-02   1.330096e-01   0.000000e+00
   4.438595e-02   1.121972e-02   0.000000e+00
   7.650947e-02  -1.082171e-01   0.000000e+00
   4.232963e-02  -4.233119e-02   0.000000e+00
   1.268592e-02  -2.622352e-02   0.000000e+00
   7.659131e-02   7.304876e-02   0.000000e+00
   5.499813e-02   1.145774e-01   0.000000e+00
   5.210121e-02  -1.241519e-01   0.000000e+00
   1.182754e-01  -1.785126e-01   0.000000e+00
   4.641868e-02   2.112698e-01   0.000000e+00
   0.000000e+00   0.000000e+00   0.000000e+00
  -7.423519e-02  -1.067164e-02   0.000000e+00
   8.699214e-02  -1.224792e-01   0.000000e+00
   0.000000e+00   0.000000e+00   0.000000e+00
  -6.847164e-03   4.724735e-03   0.000000e+00
  -1.548202e-01  -8.085984e-02   0.000000e+00
   8.772652e-02  -2.139030e-02   0.000000e+00
   2.861375e-02   3.397137e-01   0.000000e+00
  -5.399845e-03   9.891238e-02   0.000000e+00
VECTORS Imag_Arrow_1.584800e+02(Hz) float
  -1.178914e-02  -5.217952e-02   0.000000e+00
  -1.853562e-02  -1.114669e-03   0.000000e+00
   1.316620e-02   1.032815e-02   0.000000e+00
  -1.725853e-02  -1.279704e-01   0.000000e+00
  -4.514497e-02  -6.244430e-02   0.000000e+00
  -1.970520e-02   2.376496e-02   0.000000e+00
   3.300193e-02  -7.252936e-02   0.000000e+00
  -5.515260e-02   3.077497e-02   0.000000e+00
   0.000000e+00   0.000000e+00   0.000000e+00
   1.400964e-02  -3.204545e-02   0.000000e+00
  -3.427660e-02   2.993131e-02   0.000000e+00
  -8.634648e-03  -1.998081e-05   0.000000e+00
   0.000000e+00   0.000000e+00   0.000000e+00
  -1.480495e-01   2.055915e-02   0.000000e+00
   2.291368e-02  -1.662692e-03   0.000000e+00
  -3.021262e-02   3.277397e-02   0.000000e+00
   1.810550e-02   1.726125e-02   0.000000e+00
   3.785260e-02  -4.584168e-02   0.000000e+00
   0.000000e+00   0.000000e+00   0.000000e+00
   1.162840e-02  -4.561493e-03   0.000000e+00
  -1.500142e-02  -1.454160e-02   0.000000e+00
   7.518160e-03  -7.740475e-03   0.000000e+00
   1.799954e-02  -3.070344e-02   0.000000e+00
  -5.635783e-02  -7.797360e-04   0.000000e+00
   0.000000e+00   0.000000e+00   0.000000e+00
   1.023822e-02  -5.820390e-03   0.000000e+00
  -8.247762e-02  -3.957687e-02   0.000000e+00
  -2.170994e-02  -2.692877e-02   0.000000e+00
  -1.360497e-02   2.701064e-02   0.000000e+00
   2.302266e-02  -1.410804e-02   0.000000e+00
  -9.411629e-03   2.121666e-02   0.000000e+00
  -6.821194e-02   1.200151e-03   0.000000e+00
   3.839112e-03   1.473207e-02   0.000000e+00
   1.272250e-01   1.471111e-01   0.000000e+00
   3.594657e-02  -8.000929e-02   0.000000e+00
  -9.378362e-02  -3.368532e-02   0.000000e+00
  -1.415449e-02   1.044795e-01   0.000000e+00
   0.000000e+00   0.000000e+00   0.000000e+00
  -8.423869e-02  -1.072045e-01   0.000000e+00
  -4.849957e-02   1.051144e-01   0.000000e+00
   0.000000e+00   0.000000e+00   0.000000e+00
  -3.038762e-02   1.877951e-02   0.000000e+00
  -1.386788e-02   3.027782e-02   0.000000e+00
  -7.060904e-02  -4.743813e-02   0.000000e+00
  -7.754781e-02  -1.035858e-02   0.000000e+00
   3.780710e-02  -5.400867e-02   0.000000e+00
VECTORS Real_Arrow_2.511800e+02(Hz) float
  -4.627875e-02  -4.934205e-02   0.000000e+00
  -1.390936e-01   1.971740e-01   0.000000e+00
  -9.672172e-02   1.197385e-01   0.000000e+00
   5.869491e-02  -1.153324e-01   0.000000e+00
   1.995511e-02  -6.431868e-02   0.000000e+00
   3.374444e-02  -1.436781e-02   0.000000e+00
   2.763851e-02   3.244299e-02   0.000000e+00
  -2.055122e-02   4.041676e-02   0.000000e+00
   0.000000e+00   0.000000e+00   0.000000e+00
   5.949734e-02   4.209990e-03   0.000000e+00
  -4.257403e-02  -1.625041e-02   0.000000e+00
  -6.050067e-02   9.578461e-03   0.000000e+00
   4.138862e-02   3.033972e-01   0.000000e+00
   1.422420e-01   7.945617e-02   0.000000e+00
   3.311816e-02   3.990677e-02   0.000000e+00
   1.494115e-01  -1.328672e-02   0.000000e+00
  -1.647348e-01  -2.863603e-01   0.000000e+00
  -2.102689e-02   1.299658e-01   0.000000e+00
   0.000000e+00   0.000000e+00   0.000000e+00
   7.115600e-02   3.622426e-02   0.000000e+00
  -9.053018e-02   4.431580e-02   0.000000e+00
  -1.304514e-02  -4.623990e-02   0.000000e+00
  -8.406171e-02   1.195972e-01   0.000000e+00
   7.115947e-02  -1.407225e-01   0.000000e+00
   0.000000e+00   0.000000e+00   0.000000e+00
  -1.866957e-02  -6.031990e-02   0.000000e+00
   1.058797e-01   1.325953e-01   0.000000e+00
   5.105020e-02   1.365943e-01   0.000000e+00
   4.608347e-02   1.644779e-03   0.000000e+00
   6.411851e-02  -9.710220e-02   0.000000e+00
   3.822178e-02  -4.779201e-02   0.000000e+00
   3.282140e-02  -2.368787e-02   0.000000e+00
   7.692453e-02   6.820426e-02   0.000000e+00
   1.291584e-02   5.319657e-02   0.000000e+00
   0.000000e+00   0.000000e+00   0.000000e+00
   1.233414e-01  -1.626885e-01   0.000000e+00
   3.506340e-02   1.620783e-01   0.000000e+00
   0.000000e+00   0.000000e+00   0.000000e+00
  -4.367219e-02   8.953775e-03   0.000000e+00
   1.035044e-01  -1.324456e-01   0.000000e+00
  -6.992611e-02  -1.860462e-01   0.000000e+00
   8.225332e-03  -9.031030e-03   0.000000e+00
  -1.407787e-01  -8.552685e-02   0.000000e+00
   9.776454e-02  -3.119030e-03   0.000000e+00
   5.281747e-02   3.302642e-01   0.000000e+00
  -8.260825e-03   1.058166e-01   0.000000e+00
VECTORS Imag_Arrow_2.511800e+02(Hz) float
  -1.516410e-02  -4.920887e-02   0.000000e+00
  -4.150239e-02   2.829372e-02   0.000000e+00
   1.388867e-03   2.385885e-02   0.000000e+00
  -2.103781e-02  -1.199814e-01   0.000000e+00
  -3.988403e-02  -6.755024e-02   0.000000e+00
  -9.941093e-03   1.969042e-02   0.000000e+00
   2.611835e-02  -4.952788e-02   0.000000e+00
  -6.559973e-02   4.276160e-02   0.000000e+00
   0.000000e+00   0.000000e+00   0.000000e+00
   2.822906e-02  -2.697549e-02   0.000000e+00
  -2.832145e-02   3.068358e-02   0.000000e+00
  -7.196734e-03  -5.930120e-03   0.000000e+00
   4.888077e-02   2.036642e-01   0.000000e+00
  -1.143180e-01   2.859606e-02   0.000000e+00
   2.584306e-02   2.014718e-03   0.000000e+00
  -1.139971e-02   2.878062e-02   0.000000e+00
   9.759596e-03  -9.285708e-03   0.000000e+00
   3.609373e-02  -3.013059e-02   0.000000e+00
   0.000000e+00   0.000000e+00   0.000000e+00
   3.458719e-03  -3.671796e-03   0.000000e+00
  -1.398432e-02  -1.261320e-02   0.000000e+00
   2.043275e-02   3.446218e-03   0.000000e+00
   1.963013e-02  -1.608771e-02   0.000000e+00
  -4.811278e-02  -1.385326e-02   0.000000e+00
   0.000000e+00   0.000000e+00   0.000000e+00
   1.343392e-02  -2.229645e-02   0.000000e+00
  -7.524790e-02  -1.268239e-02   0.000000e+00
  -9.972480e-03  -1.365687e-02   0.000000e+00
  -1.020294e-03   4.711306e-02   0.000000e+00
   1.143320e-02  -9.030013e-03   0.000000e+00
  -1.364764e-03   2.115832e-02   0.000000e+00
  -4.163771e-02  -7.724896e-03   0.000000e+00
  -8.050688e-04   1.654776e-02   0.000000e+00
   1.079751e-01   1.448090e-01   0.000000e+00
   0.000000e+00   0.000000e+00   0.000000e+00
  -6.137081e-02  -4.011658e-02   0.000000e+00
  -5.210858e-03   8.594383e-02   0.000000e+00
   0.000000e+00   0.000000e+00   0.000000e+00
  -8.786682e-02  -8.237302e-02   0.000000e+00
  -4.685988e-02   7.163333e-02   0.000000e+00
   1.877424e-02   3.274138e-02   0.000000e+00
  -2.621649e-02   2.332830e-02   0.000000e+00
  -4.134103e-02   9.648513e-03   0.000000e+00
  -5.804964e-02  -5.411505e-02   0.000000e+00
  -7.285480e-02   3.040877e-02   0.000000e+00
   1.690022e-02  -3.366485e-02   0.000000e+00
