# vtk DataFile Version 2.0
Induction_Arrow_Iter7_PE3
ASCII
DATASET UNSTRUCTURED_GRID
POINTS 46 float
  -2.052000e+03    1.667000e+03   -4.526633e+02
  -1.265000e+03    2.333000e+03   -4.555885e+02
  -9.840000e+02    2.568000e+03   -4.612271e+02
   1.700000e+03   -1.757000e+03   -5.237752e+02
  -1.152000e+03    1.382000e+03   -4.549280e+02
   3.187000e+03    1.067000e+03   -8.370176e+02
   4.716000e+03    9.370000e+02   -8.015281e+02
  -1.855000e+03    5.260000e+02   -5.147377e+02
  -1.420000e+02   -1.905000e+03   -4.746368e+02
  -5.800000e+01    1.069000e+03   -4.555494e+02
  -2.802000e+03    3.302000e+03   -4.314337e+02
  -5.640000e+03   -1.532000e+03   -4.911771e+02
  -8.030000e+02   -5.610000e+02   -5.280929e+02
   1.008000e+03    4.130000e+02   -5.983358e+02
   1.960000e+02    2.246000e+03   -5.219413e+02
  -3.457000e+03    8.320000e+02   -4.470735e+02
   5.640000e+03    2.452000e+03   -7.393049e+02
  -1.334000e+03    3.332000e+03   -4.456136e+02
   1.244000e+03    1.880000e+03   -6.331107e+02
  -2.680000e+02    2.144000e+03   -4.891390e+02
  -4.063000e+03    6.620000e+02   -4.746103e+02
  -1.258000e+03    6.330000e+02   -4.856841e+02
  -2.141000e+03    3.194000e+03   -4.348461e+02
  -3.469000e+03   -3.059000e+03   -6.067613e+02
  -1.604000e+03   -2.570000e+02   -5.141257e+02
  -1.454000e+03    2.220000e+02   -5.386025e+02
   1.864000e+03    1.270000e+02   -7.404291e+02
   2.449000e+03    5.590000e+02   -7.805292e+02
  -1.834000e+03   -1.554000e+03   -6.273074e+02
   1.807000e+03    2.297000e+03   -6.825557e+02
  -2.560000e+03   -1.783000e+03   -6.131337e+02
  -2.741000e+03   -5.010000e+02   -5.080000e+02
   2.884000e+03   -2.179000e+03   -5.274708e+02
  -6.120000e+02   -8.960000e+02   -5.895389e+02
  -1.985000e+03   -2.653000e+03   -5.598834e+02
  -3.390000e+03   -4.000000e+02   -4.982361e+02
   1.586000e+03    1.342000e+03   -6.618442e+02
   1.047000e+03    2.401000e+03   -5.426792e+02
   8.380000e+02   -1.300000e+03   -4.783644e+02
   2.569000e+03    2.441000e+03   -6.035668e+02
  -2.028000e+03    2.833000e+03   -4.322286e+02
  -1.086000e+03    1.998000e+03   -4.563301e+02
   1.514000e+03   -3.332000e+03   -5.646205e+02
   7.040000e+02    1.116000e+03   -5.365099e+02
   1.990000e+03    6.360000e+02   -7.085272e+02
   3.722000e+03   -1.700000e+02   -6.745213e+02
CELLS 46 92
1 0
1 1
1 2
1 3
1 4
1 5
1 6
1 7
1 8
1 9
1 10
1 11
1 12
1 13
1 14
1 15
1 16
1 17
1 18
1 19
1 20
1 21
1 22
1 23
1 24
1 25
1 26
1 27
1 28
1 29
1 30
1 31
1 32
1 33
1 34
1 35
1 36
1 37
1 38
1 39
1 40
1 41
1 42
1 43
1 44
1 45
CELL_TYPES 46
1
1
1
1
1
1
1
1
1
1
1
1
1
1
1
1
1
1
1
1
1
1
1
1
1
1
1
1
1
1
1
1
1
1
1
1
1
1
1
1
1
1
1
1
1
1
POINT_DATA 46
VECTORS Real_Arrow_1.584800e+00(Hz) float
  -1.655659e-01  -6.591603e-02   0.000000e+00
  -2.094282e-01   3.847795e-02   0.000000e+00
   0.000000e+00   0.000000e+00   0.000000e+00
   0.000000e+00   0.000000e+00   0.000000e+00
  -1.934173e-01  -8.079427e-02   0.000000e+00
  -2.530756e-02  -9.926291e-02   0.000000e+00
   8.549785e-02  -1.522345e-01   0.000000e+00
  -2.053065e-01  -1.318020e-02   0.000000e+00
   0.000000e+00   0.000000e+00   0.000000e+00
  -1.923247e-01  -9.502925e-02   0.000000e+00
  -2.363426e-01   7.704010e-02   0.000000e+00
  -3.065536e-01  -1.000715e-01   0.000000e+00
   0.000000e+00   0.000000e+00   0.000000e+00
  -2.318927e-01  -1.343956e-01   0.000000e+00
   0.000000e+00   0.000000e+00   0.000000e+00
   0.000000e+00   0.000000e+00   0.000000e+00
   4.247841e-03  -6.896627e-02   0.000000e+00
   0.000000e+00   0.000000e+00   0.000000e+00
   0.000000e+00   0.000000e+00   0.000000e+00
   0.000000e+00   0.000000e+00   0.000000e+00
   0.000000e+00   0.000000e+00   0.000000e+00
  -2.242849e-01  -8.813244e-02   0.000000e+00
  -1.759914e-01   5.994636e-02   0.000000e+00
   0.000000e+00   0.000000e+00   0.000000e+00
   0.000000e+00   0.000000e+00   0.000000e+00
   0.000000e+00   0.000000e+00   0.000000e+00
  -9.724677e-02  -1.934961e-01   0.000000e+00
  -5.609154e-02  -1.439861e-01   0.000000e+00
  -1.075382e-01  -6.874368e-02   0.000000e+00
  -7.512229e-02  -9.119174e-02   0.000000e+00
  -1.181590e-01  -6.217782e-02   0.000000e+00
  -2.264127e-01  -6.673754e-02   0.000000e+00
   5.892552e-02  -4.259248e-02   0.000000e+00
   5.828671e-03  -6.356865e-02   0.000000e+00
   0.000000e+00   0.000000e+00   0.000000e+00
   0.000000e+00   0.000000e+00   0.000000e+00
  -1.723544e-01   1.779209e-03   0.000000e+00
  -1.577480e-01  -4.625693e-03   0.000000e+00
  -1.654025e-01  -3.623506e-01   0.000000e+00
  -1.358589e-01   2.443610e-01   0.000000e+00
   0.000000e+00   0.000000e+00   0.000000e+00
  -1.803752e-01  -1.027192e-02   0.000000e+00
   0.000000e+00   0.000000e+00   0.000000e+00
  -2.123161e-01  -9.315332e-02   0.000000e+00
   0.000000e+00   0.000000e+00   0.000000e+00
   0.000000e+00   0.000000e+00   0.000000e+00
VECTORS Imag_Arrow_1.584800e+00(Hz) float
  -3.394833e-03  -4.471176e-03   0.000000e+00
   5.892720e-03  -6.411782e-02   0.000000e+00
   0.000000e+00   0.000000e+00   0.000000e+00
   0.000000e+00   0.000000e+00   0.000000e+00
   1.290407e-02  -8.082660e-03   0.000000e+00
   4.066757e-02  -4.523027e-02   0.000000e+00
   1.754746e-02  -9.369296e-03   0.000000e+00
   1.039066e-02  -6.374239e-02   0.000000e+00
   0.000000e+00   0.000000e+00   0.000000e+00
   2.307865e-02  -2.629190e-02   0.000000e+00
  -2.319497e-03  -4.355680e-02   0.000000e+00
   1.127475e-02  -2.992594e-02   0.000000e+00
   0.000000e+00   0.000000e+00   0.000000e+00
   8.897065e-02  -4.240648e-02   0.000000e+00
   0.000000e+00   0.000000e+00   0.000000e+00
   0.000000e+00   0.000000e+00   0.000000e+00
   5.938761e-02  -4.317688e-03   0.000000e+00
   0.000000e+00   0.000000e+00   0.000000e+00
   0.000000e+00   0.000000e+00   0.000000e+00
   0.000000e+00   0.000000e+00   0.000000e+00
   0.000000e+00   0.000000e+00   0.000000e+00
   2.743133e-02  -2.199115e-02   0.000000e+00
  -1.673087e-02  -4.763723e-02   0.000000e+00
   0.000000e+00   0.000000e+00   0.000000e+00
   0.000000e+00   0.000000e+00   0.000000e+00
   0.000000e+00   0.000000e+00   0.000000e+00
   4.674872e-02  -2.574249e-02   0.000000e+00
   3.823405e-02  -4.437420e-02   0.000000e+00
   8.219595e-03  -3.214488e-02   0.000000e+00
   1.132194e-02  -6.320524e-03   0.000000e+00
   1.197041e-02  -2.396282e-02   0.000000e+00
   5.036125e-02  -1.757527e-02   0.000000e+00
  -5.207799e-02  -8.168390e-02   0.000000e+00
  -5.787861e-02  -9.073975e-02   0.000000e+00
   0.000000e+00   0.000000e+00   0.000000e+00
   0.000000e+00   0.000000e+00   0.000000e+00
   5.075622e-02  -9.699343e-02   0.000000e+00
   2.853998e-02  -5.179286e-02   0.000000e+00
   6.758261e-02   4.763362e-02   0.000000e+00
   2.161375e-02  -1.284302e-01   0.000000e+00
   0.000000e+00   0.000000e+00   0.000000e+00
  -1.116704e-03  -4.092224e-02   0.000000e+00
   0.000000e+00   0.000000e+00   0.000000e+00
   5.209581e-02  -2.765671e-02   0.000000e+00
   0.000000e+00   0.000000e+00   0.000000e+00
   0.000000e+00   0.000000e+00   0.000000e+00
VECTORS Real_Arrow_2.511800e+00(Hz) float
  -1.605243e-01  -6.300173e-02   0.000000e+00
  -2.045648e-01   6.418065e-02   0.000000e+00
   0.000000e+00   0.000000e+00   0.000000e+00
  -3.902335e-02  -4.752336e-01   0.000000e+00
  -1.949541e-01  -7.543396e-02   0.000000e+00
  -3.412061e-02  -8.130255e-02   0.000000e+00
   8.672369e-02  -1.491073e-01   0.000000e+00
  -2.078136e-01   1.248755e-02   0.000000e+00
   9.692622e-02  -1.896727e-01   0.000000e+00
  -1.992526e-01  -8.377360e-02   0.000000e+00
  -2.273313e-01   9.731756e-02   0.000000e+00
  -3.145980e-01  -8.997470e-02   0.000000e+00
   0.000000e+00   0.000000e+00   0.000000e+00
  -2.645721e-01  -1.213442e-01   0.000000e+00
  -1.376193e-01   2.866052e-02   0.000000e+00
   0.000000e+00   0.000000e+00   0.000000e+00
  -6.290692e-03  -6.280611e-02   0.000000e+00
   0.000000e+00   0.000000e+00   0.000000e+00
   0.000000e+00   0.000000e+00   0.000000e+00
   0.000000e+00   0.000000e+00   0.000000e+00
   0.000000e+00   0.000000e+00   0.000000e+00
  -2.331048e-01  -7.851926e-02   0.000000e+00
  -1.605427e-01   8.105737e-02   0.000000e+00
  -1.958948e-01  -1.242830e-01   0.000000e+00
   0.000000e+00   0.000000e+00   0.000000e+00
   0.000000e+00   0.000000e+00   0.000000e+00
  -1.106930e-01  -1.882686e-01   0.000000e+00
  -6.493358e-02  -1.300914e-01   0.000000e+00
  -1.106493e-01  -5.661652e-02   0.000000e+00
  -7.687681e-02  -9.006014e-02   0.000000e+00
  -1.245997e-01  -5.280989e-02   0.000000e+00
  -2.484206e-01  -6.338187e-02   0.000000e+00
   1.031321e-01   4.216802e-04   0.000000e+00
   3.050226e-02  -3.145563e-02   0.000000e+00
  -6.829733e-02  -1.056262e-01   0.000000e+00
   0.000000e+00   0.000000e+00   0.000000e+00
  -1.897622e-01   3.698486e-02   0.000000e+00
  -1.658413e-01   1.457701e-02   0.000000e+00
  -1.865241e-01  -3.876814e-01   0.000000e+00
  -1.436149e-01   3.197394e-01   0.000000e+00
   0.000000e+00   0.000000e+00   0.000000e+00
  -1.751938e-01   8.085679e-03   0.000000e+00
   0.000000e+00   0.000000e+00   0.000000e+00
  -2.306923e-01  -8.084476e-02   0.000000e+00
   0.000000e+00   0.000000e+00   0.000000e+00
   0.000000e+00   0.000000e+00   0.000000e+00
VECTORS Imag_Arrow_2.511800e+00(Hz) float
  -3.067285e-02   4.023431e-03   0.000000e+00
  -2.694825e-02  -6.256188e-02   0.000000e+00
   0.000000e+00   0.000000e+00   0.000000e+00
  -1.204884e-02   3.136732e-02   0.000000e+00
  -1.855461e-02  -8.945017e-04   0.000000e+00
   3.170609e-02  -5.723679e-02   0.000000e+00
   1.297466e-02  -1.460818e-02   0.000000e+00
  -2.444011e-02  -7.515444e-02   0.000000e+00
  -9.848409e-02  -7.090276e-03   0.000000e+00
  -1.173909e-02  -2.854273e-02   0.000000e+00
  -3.101725e-02  -2.707957e-02   0.000000e+00
  -4.351110e-02  -6.935155e-02   0.000000e+00
   0.000000e+00   0.000000e+00   0.000000e+00
   6.699580e-02  -6.174748e-02   0.000000e+00
  -3.983819e-02  -4.117626e-02   0.000000e+00
   0.000000e+00   0.000000e+00   0.000000e+00
   6.176793e-02   8.776746e-03   0.000000e+00
   0.000000e+00   0.000000e+00   0.000000e+00
   0.000000e+00   0.000000e+00   0.000000e+00
   0.000000e+00   0.000000e+00   0.000000e+00
   0.000000e+00   0.000000e+00   0.000000e+00
  -5.092296e-03  -2.402539e-02   0.000000e+00
  -4.395471e-02  -3.459969e-02   0.000000e+00
   7.149208e-04   6.147773e-03   0.000000e+00
   0.000000e+00   0.000000e+00   0.000000e+00
   0.000000e+00   0.000000e+00   0.000000e+00
   2.903859e-02  -4.769811e-02   0.000000e+00
   2.381060e-02  -6.565398e-02   0.000000e+00
  -1.711235e-02  -4.347784e-02   0.000000e+00
  -2.066574e-02  -6.408072e-03   0.000000e+00
  -1.270337e-02  -3.335229e-02   0.000000e+00
   2.808546e-02  -2.725513e-02   0.000000e+00
  -7.355614e-02  -9.797493e-02   0.000000e+00
  -9.407476e-02  -1.221790e-01   0.000000e+00
  -2.993006e-02   3.627318e-03   0.000000e+00
   0.000000e+00   0.000000e+00   0.000000e+00
   2.373030e-02  -1.187675e-01   0.000000e+00
  -6.674380e-03  -5.068297e-02   0.000000e+00
   4.945034e-02   3.286933e-02   0.000000e+00
  -1.269487e-02  -9.820733e-02   0.000000e+00
   0.000000e+00   0.000000e+00   0.000000e+00
  -3.518449e-02  -3.586531e-02   0.000000e+00
   0.000000e+00   0.000000e+00   0.000000e+00
   1.991270e-02  -2.972456e-02   0.000000e+00
   0.000000e+00   0.000000e+00   0.000000e+00
   0.000000e+00   0.000000e+00   0.000000e+00
VECTORS Real_Arrow_3.981000e+00(Hz) float
  -1.413812e-01  -6.420615e-02   0.000000e+00
  -1.819766e-01   8.733186e-02   0.000000e+00
   0.000000e+00   0.000000e+00   0.000000e+00
  -2.666931e-02  -4.906330e-01   0.000000e+00
  -1.814938e-01  -7.377520e-02   0.000000e+00
  -4.407183e-02  -5.660230e-02   0.000000e+00
   8.490716e-02  -1.440986e-01   0.000000e+00
  -1.912214e-01   4.735963e-02   0.000000e+00
   1.474025e-01  -1.831177e-01   0.000000e+00
  -1.911679e-01  -7.191569e-02   0.000000e+00
  -2.044954e-01   1.080010e-01   0.000000e+00
  -2.809973e-01  -4.275374e-02   0.000000e+00
   0.000000e+00   0.000000e+00   0.000000e+00
  -2.930310e-01  -9.870750e-02   0.000000e+00
  -1.149174e-01   4.429529e-02   0.000000e+00
   0.000000e+00   0.000000e+00   0.000000e+00
  -2.399068e-02  -6.198423e-02   0.000000e+00
   0.000000e+00   0.000000e+00   0.000000e+00
  -4.294080e-02  -3.527481e-02   0.000000e+00
   0.000000e+00   0.000000e+00   0.000000e+00
   0.000000e+00   0.000000e+00   0.000000e+00
  -2.266005e-01  -6.667135e-02   0.000000e+00
  -1.307758e-01   9.353637e-02   0.000000e+00
  -1.960380e-01  -1.237083e-01   0.000000e+00
   0.000000e+00   0.000000e+00   0.000000e+00
   0.000000e+00   0.000000e+00   0.000000e+00
  -1.201117e-01  -1.722972e-01   0.000000e+00
  -7.131073e-02  -1.054158e-01   0.000000e+00
  -9.854480e-02  -3.673192e-02   0.000000e+00
  -6.355933e-02  -8.678275e-02   0.000000e+00
   0.000000e+00   0.000000e+00   0.000000e+00
  -2.608382e-01  -5.234177e-02   0.000000e+00
   1.540853e-01   4.935119e-02   0.000000e+00
   7.811791e-02   1.940153e-02   0.000000e+00
  -5.019822e-02  -1.018377e-01   0.000000e+00
   0.000000e+00   0.000000e+00   0.000000e+00
   0.000000e+00   0.000000e+00   0.000000e+00
  -1.576551e-01   3.223461e-02   0.000000e+00
  -2.010164e-01  -4.082582e-01   0.000000e+00
  -1.347694e-01   3.700221e-01   0.000000e+00
  -1.160092e-01   2.548859e-02   0.000000e+00
  -1.526816e-01   2.340770e-02   0.000000e+00
   0.000000e+00   0.000000e+00   0.000000e+00
  -2.369019e-01  -6.809518e-02   0.000000e+00
  -1.389148e-01  -4.947118e-02   0.000000e+00
   6.889899e-02  -1.771692e-01   0.000000e+00
VECTORS Imag_Arrow_3.981000e+00(Hz) float
  -5.714418e-02   1.645256e-02   0.000000e+00
  -5.595532e-02  -5.113947e-02   0.000000e+00
   0.000000e+00   0.000000e+00   0.000000e+00
  -2.995152e-02  -5.709314e-03   0.000000e+00
  -5.158447e-02   1.195468e-02   0.000000e+00
   2.392452e-02  -6.368102e-02   0.000000e+00
   1.341288e-02  -1.900015e-02   0.000000e+00
  -6.320874e-02  -7.832927e-02   0.000000e+00
  -1.156303e-01  -1.200287e-02   0.000000e+00
  -5.135995e-02  -2.541689e-02   0.000000e+00
  -5.229511e-02   1.455314e-03   0.000000e+00
  -1.065991e-01  -1.050937e-01   0.000000e+00
   0.000000e+00   0.000000e+00   0.000000e+00
   3.326229e-02  -8.163599e-02   0.000000e+00
  -7.361011e-02  -2.445008e-02   0.000000e+00
   0.000000e+00   0.000000e+00   0.000000e+00
   7.065864e-02   3.008579e-02   0.000000e+00
   0.000000e+00   0.000000e+00   0.000000e+00
  -1.040189e-01  -3.072179e-03   0.000000e+00
   0.000000e+00   0.000000e+00   0.000000e+00
   0.000000e+00   0.000000e+00   0.000000e+00
  -4.292357e-02  -2.132933e-02   0.000000e+00
  -6.108767e-02  -1.005557e-02   0.000000e+00
  -4.289572e-02   5.467195e-04   0.000000e+00
   0.000000e+00   0.000000e+00   0.000000e+00
   0.000000e+00   0.000000e+00   0.000000e+00
   8.695869e-03  -7.398422e-02   0.000000e+00
   9.456057e-03  -8.717115e-02   0.000000e+00
  -4.558623e-02  -5.237971e-02   0.000000e+00
  -5.477555e-02  -7.510629e-03   0.000000e+00
   0.000000e+00   0.000000e+00   0.000000e+00
  -6.521300e-03  -4.048780e-02   0.000000e+00
  -5.717455e-02  -8.925114e-02   0.000000e+00
  -1.244184e-01  -1.502148e-01   0.000000e+00
  -5.857791e-02   6.771022e-03   0.000000e+00
   0.000000e+00   0.000000e+00   0.000000e+00
   0.000000e+00   0.000000e+00   0.000000e+00
  -4.663662e-02  -4.495761e-02   0.000000e+00
   2.714362e-02   3.642061e-03   0.000000e+00
  -5.569446e-02  -1.460504e-02   0.000000e+00
  -5.990031e-02   2.949203e-02   0.000000e+00
  -6.774192e-02  -2.123600e-02   0.000000e+00
   0.000000e+00   0.000000e+00   0.000000e+00
  -2.067905e-02  -2.567905e-02   0.000000e+00
   2.242942e-02  -1.313307e-01   0.000000e+00
  -6.594594e-03  -6.341753e-02   0.000000e+00
