# vtk DataFile Version 2.0
Induction_Arrow_Iter5_PE1
ASCII
DATASET UNSTRUCTURED_GRID
POINTS 46 float
  -2.052000e+03    1.667000e+03   -4.526633e+02
  -1.265000e+03    2.333000e+03   -4.555885e+02
  -9.840000e+02    2.568000e+03   -4.612271e+02
   1.700000e+03   -1.757000e+03   -5.237752e+02
  -1.152000e+03    1.382000e+03   -4.549280e+02
   3.187000e+03    1.067000e+03   -8.370176e+02
   4.716000e+03    9.370000e+02   -8.015281e+02
  -1.855000e+03    5.260000e+02   -5.147377e+02
  -1.420000e+02   -1.905000e+03   -4.746368e+02
  -5.800000e+01    1.069000e+03   -4.555494e+02
  -2.802000e+03    3.302000e+03   -4.314337e+02
  -5.640000e+03   -1.532000e+03   -4.911771e+02
  -8.030000e+02   -5.610000e+02   -5.280929e+02
   1.008000e+03    4.130000e+02   -5.983358e+02
   1.960000e+02    2.246000e+03   -5.219413e+02
  -3.457000e+03    8.320000e+02   -4.470735e+02
   5.640000e+03    2.452000e+03   -7.393049e+02
  -1.334000e+03    3.332000e+03   -4.456136e+02
   1.244000e+03    1.880000e+03   -6.331107e+02
  -2.680000e+02    2.144000e+03   -4.891390e+02
  -4.063000e+03    6.620000e+02   -4.746103e+02
  -1.258000e+03    6.330000e+02   -4.856841e+02
  -2.141000e+03    3.194000e+03   -4.348461e+02
  -3.469000e+03   -3.059000e+03   -6.067613e+02
  -1.604000e+03   -2.570000e+02   -5.141257e+02
  -1.454000e+03    2.220000e+02   -5.386025e+02
   1.864000e+03    1.270000e+02   -7.404291e+02
   2.449000e+03    5.590000e+02   -7.805292e+02
  -1.834000e+03   -1.554000e+03   -6.273074e+02
   1.807000e+03    2.297000e+03   -6.825557e+02
  -2.560000e+03   -1.783000e+03   -6.131337e+02
  -2.741000e+03   -5.010000e+02   -5.080000e+02
   2.884000e+03   -2.179000e+03   -5.274708e+02
  -6.120000e+02   -8.960000e+02   -5.895389e+02
  -1.985000e+03   -2.653000e+03   -5.598834e+02
  -3.390000e+03   -4.000000e+02   -4.982361e+02
   1.586000e+03    1.342000e+03   -6.618442e+02
   1.047000e+03    2.401000e+03   -5.426792e+02
   8.380000e+02   -1.300000e+03   -4.783644e+02
   2.569000e+03    2.441000e+03   -6.035668e+02
  -2.028000e+03    2.833000e+03   -4.322286e+02
  -1.086000e+03    1.998000e+03   -4.563301e+02
   1.514000e+03   -3.332000e+03   -5.646205e+02
   7.040000e+02    1.116000e+03   -5.365099e+02
   1.990000e+03    6.360000e+02   -7.085272e+02
   3.722000e+03   -1.700000e+02   -6.745213e+02
CELLS 46 92
1 0
1 1
1 2
1 3
1 4
1 5
1 6
1 7
1 8
1 9
1 10
1 11
1 12
1 13
1 14
1 15
1 16
1 17
1 18
1 19
1 20
1 21
1 22
1 23
1 24
1 25
1 26
1 27
1 28
1 29
1 30
1 31
1 32
1 33
1 34
1 35
1 36
1 37
1 38
1 39
1 40
1 41
1 42
1 43
1 44
1 45
CELL_TYPES 46
1
1
1
1
1
1
1
1
1
1
1
1
1
1
1
1
1
1
1
1
1
1
1
1
1
1
1
1
1
1
1
1
1
1
1
1
1
1
1
1
1
1
1
1
1
1
POINT_DATA 46
VECTORS Real_Arrow_3.981000e-01(Hz) float
   0.000000e+00   0.000000e+00   0.000000e+00
   0.000000e+00   0.000000e+00   0.000000e+00
   0.000000e+00   0.000000e+00   0.000000e+00
   6.400204e-03  -3.630816e-01   0.000000e+00
   0.000000e+00   0.000000e+00   0.000000e+00
   0.000000e+00   0.000000e+00   0.000000e+00
   0.000000e+00   0.000000e+00   0.000000e+00
   0.000000e+00   0.000000e+00   0.000000e+00
   0.000000e+00   0.000000e+00   0.000000e+00
  -1.170662e-01  -1.098216e-01   0.000000e+00
  -1.780481e-01   1.187361e-02   0.000000e+00
   0.000000e+00   0.000000e+00   0.000000e+00
   0.000000e+00   0.000000e+00   0.000000e+00
   0.000000e+00   0.000000e+00   0.000000e+00
   0.000000e+00   0.000000e+00   0.000000e+00
   0.000000e+00   0.000000e+00   0.000000e+00
   7.278027e-02  -8.307448e-02   0.000000e+00
   0.000000e+00   0.000000e+00   0.000000e+00
   0.000000e+00   0.000000e+00   0.000000e+00
   0.000000e+00   0.000000e+00   0.000000e+00
   0.000000e+00   0.000000e+00   0.000000e+00
   0.000000e+00   0.000000e+00   0.000000e+00
   0.000000e+00   0.000000e+00   0.000000e+00
   0.000000e+00   0.000000e+00   0.000000e+00
   0.000000e+00   0.000000e+00   0.000000e+00
   0.000000e+00   0.000000e+00   0.000000e+00
  -2.161248e-02  -1.836164e-01   0.000000e+00
   8.264807e-03  -1.511254e-01   0.000000e+00
   0.000000e+00   0.000000e+00   0.000000e+00
  -1.079116e-02  -6.730783e-02   0.000000e+00
   0.000000e+00   0.000000e+00   0.000000e+00
   0.000000e+00   0.000000e+00   0.000000e+00
   0.000000e+00   0.000000e+00   0.000000e+00
  -2.944221e-03  -1.030050e-01   0.000000e+00
   0.000000e+00   0.000000e+00   0.000000e+00
   0.000000e+00   0.000000e+00   0.000000e+00
   0.000000e+00   0.000000e+00   0.000000e+00
   0.000000e+00   0.000000e+00   0.000000e+00
  -7.498916e-02  -2.963218e-01   0.000000e+00
  -6.570735e-02   9.651145e-02   0.000000e+00
  -1.144360e-01  -3.594861e-02   0.000000e+00
   0.000000e+00   0.000000e+00   0.000000e+00
   0.000000e+00   0.000000e+00   0.000000e+00
   0.000000e+00   0.000000e+00   0.000000e+00
   0.000000e+00   0.000000e+00   0.000000e+00
   0.000000e+00   0.000000e+00   0.000000e+00
VECTORS Imag_Arrow_3.981000e-01(Hz) float
   0.000000e+00   0.000000e+00   0.000000e+00
   0.000000e+00   0.000000e+00   0.000000e+00
   0.000000e+00   0.000000e+00   0.000000e+00
   7.463913e-02   6.213847e-02   0.000000e+00
   0.000000e+00   0.000000e+00   0.000000e+00
   0.000000e+00   0.000000e+00   0.000000e+00
   0.000000e+00   0.000000e+00   0.000000e+00
   0.000000e+00   0.000000e+00   0.000000e+00
   0.000000e+00   0.000000e+00   0.000000e+00
   9.911387e-02  -1.500445e-02   0.000000e+00
   8.237041e-02  -4.993689e-02   0.000000e+00
   0.000000e+00   0.000000e+00   0.000000e+00
   0.000000e+00   0.000000e+00   0.000000e+00
   0.000000e+00   0.000000e+00   0.000000e+00
   0.000000e+00   0.000000e+00   0.000000e+00
   0.000000e+00   0.000000e+00   0.000000e+00
   9.272600e-02  -2.187891e-02   0.000000e+00
   0.000000e+00   0.000000e+00   0.000000e+00
   0.000000e+00   0.000000e+00   0.000000e+00
   0.000000e+00   0.000000e+00   0.000000e+00
   0.000000e+00   0.000000e+00   0.000000e+00
   0.000000e+00   0.000000e+00   0.000000e+00
   0.000000e+00   0.000000e+00   0.000000e+00
   0.000000e+00   0.000000e+00   0.000000e+00
   0.000000e+00   0.000000e+00   0.000000e+00
   0.000000e+00   0.000000e+00   0.000000e+00
   9.590153e-02   4.142446e-03   0.000000e+00
   8.652315e-02  -8.664579e-03   0.000000e+00
   0.000000e+00   0.000000e+00   0.000000e+00
   7.453626e-02  -1.907747e-02   0.000000e+00
   0.000000e+00   0.000000e+00   0.000000e+00
   0.000000e+00   0.000000e+00   0.000000e+00
   0.000000e+00   0.000000e+00   0.000000e+00
   2.770708e-02  -2.834535e-02   0.000000e+00
   0.000000e+00   0.000000e+00   0.000000e+00
   0.000000e+00   0.000000e+00   0.000000e+00
   0.000000e+00   0.000000e+00   0.000000e+00
   0.000000e+00   0.000000e+00   0.000000e+00
   1.099108e-01   4.517406e-02   0.000000e+00
   9.837142e-02  -8.308165e-02   0.000000e+00
   6.323715e-02  -3.242867e-02   0.000000e+00
   0.000000e+00   0.000000e+00   0.000000e+00
   0.000000e+00   0.000000e+00   0.000000e+00
   0.000000e+00   0.000000e+00   0.000000e+00
   0.000000e+00   0.000000e+00   0.000000e+00
   0.000000e+00   0.000000e+00   0.000000e+00
VECTORS Real_Arrow_6.309500e-01(Hz) float
   0.000000e+00   0.000000e+00   0.000000e+00
  -1.714532e-01  -3.167508e-03   0.000000e+00
   0.000000e+00   0.000000e+00   0.000000e+00
  -1.922622e-02  -3.841638e-01   0.000000e+00
  -1.565243e-01  -9.176453e-02   0.000000e+00
   0.000000e+00   0.000000e+00   0.000000e+00
   1.053481e-01  -1.552639e-01   0.000000e+00
   0.000000e+00   0.000000e+00   0.000000e+00
   0.000000e+00   0.000000e+00   0.000000e+00
  -1.503298e-01  -1.048557e-01   0.000000e+00
  -2.036687e-01   2.995914e-02   0.000000e+00
   0.000000e+00   0.000000e+00   0.000000e+00
   0.000000e+00   0.000000e+00   0.000000e+00
  -1.606269e-01  -1.371529e-01   0.000000e+00
  -1.093744e-01  -2.560941e-02   0.000000e+00
   0.000000e+00   0.000000e+00   0.000000e+00
   4.529933e-02  -7.240368e-02   0.000000e+00
   0.000000e+00   0.000000e+00   0.000000e+00
   0.000000e+00   0.000000e+00   0.000000e+00
   0.000000e+00   0.000000e+00   0.000000e+00
   0.000000e+00   0.000000e+00   0.000000e+00
   0.000000e+00   0.000000e+00   0.000000e+00
  -1.533447e-01   1.574518e-02   0.000000e+00
   0.000000e+00   0.000000e+00   0.000000e+00
   0.000000e+00   0.000000e+00   0.000000e+00
   0.000000e+00   0.000000e+00   0.000000e+00
  -5.338466e-02  -1.866773e-01   0.000000e+00
  -2.021150e-02  -1.500961e-01   0.000000e+00
   0.000000e+00   0.000000e+00   0.000000e+00
  -3.645409e-02  -5.922685e-02   0.000000e+00
  -9.671273e-02  -7.612754e-02   0.000000e+00
  -1.855090e-01  -7.194527e-02   0.000000e+00
   0.000000e+00   0.000000e+00   0.000000e+00
  -1.382471e-02  -9.820445e-02   0.000000e+00
   0.000000e+00   0.000000e+00   0.000000e+00
   0.000000e+00   0.000000e+00   0.000000e+00
  -1.157062e-01  -3.617903e-02   0.000000e+00
   0.000000e+00   0.000000e+00   0.000000e+00
   0.000000e+00   0.000000e+00   0.000000e+00
  -9.834486e-02   1.239037e-01   0.000000e+00
  -1.343452e-01  -2.279586e-02   0.000000e+00
  -1.492302e-01  -3.920746e-02   0.000000e+00
   0.000000e+00   0.000000e+00   0.000000e+00
  -1.498703e-01  -1.009759e-01   0.000000e+00
   0.000000e+00   0.000000e+00   0.000000e+00
   0.000000e+00   0.000000e+00   0.000000e+00
VECTORS Imag_Arrow_6.309500e-01(Hz) float
   0.000000e+00   0.000000e+00   0.000000e+00
   6.622613e-02  -5.197765e-02   0.000000e+00
   0.000000e+00   0.000000e+00   0.000000e+00
   5.983855e-02   6.517124e-02   0.000000e+00
   6.771679e-02  -1.361149e-02   0.000000e+00
   0.000000e+00   0.000000e+00   0.000000e+00
   4.637179e-02  -3.301747e-03   0.000000e+00
   0.000000e+00   0.000000e+00   0.000000e+00
   0.000000e+00   0.000000e+00   0.000000e+00
   8.105286e-02  -1.808874e-02   0.000000e+00
   6.139852e-02  -5.259223e-02   0.000000e+00
   0.000000e+00   0.000000e+00   0.000000e+00
   0.000000e+00   0.000000e+00   0.000000e+00
   1.241526e-01  -1.743054e-02   0.000000e+00
   5.770373e-02  -4.277259e-02   0.000000e+00
   0.000000e+00   0.000000e+00   0.000000e+00
   8.158660e-02  -2.114917e-02   0.000000e+00
   0.000000e+00   0.000000e+00   0.000000e+00
   0.000000e+00   0.000000e+00   0.000000e+00
   0.000000e+00   0.000000e+00   0.000000e+00
   0.000000e+00   0.000000e+00   0.000000e+00
   0.000000e+00   0.000000e+00   0.000000e+00
   4.606688e-02  -5.097469e-02   0.000000e+00
   0.000000e+00   0.000000e+00   0.000000e+00
   0.000000e+00   0.000000e+00   0.000000e+00
   0.000000e+00   0.000000e+00   0.000000e+00
   8.428232e-02  -8.201048e-04   0.000000e+00
   7.442830e-02  -1.581752e-02   0.000000e+00
   0.000000e+00   0.000000e+00   0.000000e+00
   5.800427e-02  -2.015197e-02   0.000000e+00
   4.258588e-02  -1.014367e-02   0.000000e+00
   7.485251e-02  -1.553068e-02   0.000000e+00
   0.000000e+00   0.000000e+00   0.000000e+00
   8.165288e-03  -4.115484e-02   0.000000e+00
   0.000000e+00   0.000000e+00   0.000000e+00
   0.000000e+00   0.000000e+00   0.000000e+00
   9.425741e-02  -5.517208e-02   0.000000e+00
   0.000000e+00   0.000000e+00   0.000000e+00
   0.000000e+00   0.000000e+00   0.000000e+00
   7.927648e-02  -9.815267e-02   0.000000e+00
   4.267330e-02  -3.284293e-02   0.000000e+00
   6.105369e-02  -3.700461e-02   0.000000e+00
   0.000000e+00   0.000000e+00   0.000000e+00
   1.005742e-01  -2.009589e-02   0.000000e+00
   0.000000e+00   0.000000e+00   0.000000e+00
   0.000000e+00   0.000000e+00   0.000000e+00
VECTORS Real_Arrow_1.000000e+00(Hz) float
  -1.605671e-01  -7.198464e-02   0.000000e+00
  -1.920883e-01   1.440183e-02   0.000000e+00
   0.000000e+00   0.000000e+00   0.000000e+00
  -3.891148e-02  -4.093887e-01   0.000000e+00
  -1.783873e-01  -8.600548e-02   0.000000e+00
   0.000000e+00   0.000000e+00   0.000000e+00
   9.370902e-02  -1.544899e-01   0.000000e+00
  -1.907842e-01  -3.783174e-02   0.000000e+00
   0.000000e+00   0.000000e+00   0.000000e+00
  -1.774355e-01  -9.919609e-02   0.000000e+00
  -2.214620e-01   5.005255e-02   0.000000e+00
  -2.744966e-01  -8.569890e-02   0.000000e+00
   0.000000e+00   0.000000e+00   0.000000e+00
  -2.003866e-01  -1.349143e-01   0.000000e+00
   0.000000e+00   0.000000e+00   0.000000e+00
   0.000000e+00   0.000000e+00   0.000000e+00
   2.541636e-02  -6.195681e-02   0.000000e+00
   0.000000e+00   0.000000e+00   0.000000e+00
   0.000000e+00   0.000000e+00   0.000000e+00
   0.000000e+00   0.000000e+00   0.000000e+00
   0.000000e+00   0.000000e+00   0.000000e+00
   0.000000e+00   0.000000e+00   0.000000e+00
  -1.661765e-01   3.495514e-02   0.000000e+00
   0.000000e+00   0.000000e+00   0.000000e+00
   0.000000e+00   0.000000e+00   0.000000e+00
   0.000000e+00   0.000000e+00   0.000000e+00
  -7.997581e-02  -1.900209e-01   0.000000e+00
  -4.285731e-02  -1.481833e-01   0.000000e+00
   0.000000e+00   0.000000e+00   0.000000e+00
  -5.600960e-02  -5.071560e-02   0.000000e+00
  -1.113353e-01  -7.557416e-02   0.000000e+00
  -2.098868e-01  -6.943856e-02   0.000000e+00
   0.000000e+00   0.000000e+00   0.000000e+00
  -1.883618e-02  -9.011873e-02   0.000000e+00
   0.000000e+00   0.000000e+00   0.000000e+00
   0.000000e+00   0.000000e+00   0.000000e+00
  -1.459502e-01  -2.117147e-02   0.000000e+00
   0.000000e+00   0.000000e+00   0.000000e+00
  -1.419387e-01  -3.304647e-01   0.000000e+00
  -1.238123e-01   1.608183e-01   0.000000e+00
  -1.464047e-01  -8.428327e-03   0.000000e+00
  -1.689898e-01  -2.592227e-02   0.000000e+00
   0.000000e+00   0.000000e+00   0.000000e+00
  -1.833413e-01  -9.464867e-02   0.000000e+00
   0.000000e+00   0.000000e+00   0.000000e+00
   0.000000e+00   0.000000e+00   0.000000e+00
VECTORS Imag_Arrow_1.000000e+00(Hz) float
   2.635650e-02  -1.131113e-02   0.000000e+00
   4.036280e-02  -5.762813e-02   0.000000e+00
   0.000000e+00   0.000000e+00   0.000000e+00
   3.982873e-02   6.560495e-02   0.000000e+00
   4.424399e-02  -1.215692e-02   0.000000e+00
   0.000000e+00   0.000000e+00   0.000000e+00
   3.198844e-02  -6.144823e-03   0.000000e+00
   3.788168e-02  -5.015307e-02   0.000000e+00
   0.000000e+00   0.000000e+00   0.000000e+00
   5.716023e-02  -2.149007e-02   0.000000e+00
   3.651727e-02  -5.244882e-02   0.000000e+00
   4.997611e-02  -1.116292e-02   0.000000e+00
   0.000000e+00   0.000000e+00   0.000000e+00
   1.100644e-01  -2.647953e-02   0.000000e+00
   0.000000e+00   0.000000e+00   0.000000e+00
   0.000000e+00   0.000000e+00   0.000000e+00
   7.073721e-02  -1.612015e-02   0.000000e+00
   0.000000e+00   0.000000e+00   0.000000e+00
   0.000000e+00   0.000000e+00   0.000000e+00
   0.000000e+00   0.000000e+00   0.000000e+00
   0.000000e+00   0.000000e+00   0.000000e+00
   0.000000e+00   0.000000e+00   0.000000e+00
   2.052567e-02  -5.220074e-02   0.000000e+00
   0.000000e+00   0.000000e+00   0.000000e+00
   0.000000e+00   0.000000e+00   0.000000e+00
   0.000000e+00   0.000000e+00   0.000000e+00
   6.848335e-02  -8.708424e-03   0.000000e+00
   5.862263e-02  -2.592191e-02   0.000000e+00
   0.000000e+00   0.000000e+00   0.000000e+00
   3.615541e-02  -1.872147e-02   0.000000e+00
   3.101872e-02  -1.464746e-02   0.000000e+00
   6.128485e-02  -1.935583e-02   0.000000e+00
   0.000000e+00   0.000000e+00   0.000000e+00
  -1.743947e-02  -6.011703e-02   0.000000e+00
   0.000000e+00   0.000000e+00   0.000000e+00
   0.000000e+00   0.000000e+00   0.000000e+00
   7.490507e-02  -7.073725e-02   0.000000e+00
   0.000000e+00   0.000000e+00   0.000000e+00
   8.489852e-02   5.148943e-02   0.000000e+00
   5.515188e-02  -1.135359e-01   0.000000e+00
   1.820910e-02  -2.974562e-02   0.000000e+00
   3.525702e-02  -3.975941e-02   0.000000e+00
   0.000000e+00   0.000000e+00   0.000000e+00
   7.966194e-02  -2.409217e-02   0.000000e+00
   0.000000e+00   0.000000e+00   0.000000e+00
   0.000000e+00   0.000000e+00   0.000000e+00
VECTORS Real_Arrow_1.584800e+00(Hz) float
  -1.672906e-01  -6.683747e-02   0.000000e+00
  -2.026026e-01   3.539496e-02   0.000000e+00
   0.000000e+00   0.000000e+00   0.000000e+00
   0.000000e+00   0.000000e+00   0.000000e+00
  -1.920537e-01  -8.034583e-02   0.000000e+00
  -2.828506e-02  -9.923893e-02   0.000000e+00
   8.979842e-02  -1.534888e-01   0.000000e+00
  -2.039098e-01  -2.124749e-02   0.000000e+00
   0.000000e+00   0.000000e+00   0.000000e+00
  -1.967283e-01  -9.195398e-02   0.000000e+00
  -2.293800e-01   7.191145e-02   0.000000e+00
  -3.014428e-01  -9.031997e-02   0.000000e+00
   0.000000e+00   0.000000e+00   0.000000e+00
  -2.367850e-01  -1.303055e-01   0.000000e+00
   0.000000e+00   0.000000e+00   0.000000e+00
   0.000000e+00   0.000000e+00   0.000000e+00
   1.152102e-02  -5.316339e-02   0.000000e+00
   0.000000e+00   0.000000e+00   0.000000e+00
   0.000000e+00   0.000000e+00   0.000000e+00
   0.000000e+00   0.000000e+00   0.000000e+00
   0.000000e+00   0.000000e+00   0.000000e+00
  -2.263984e-01  -8.607824e-02   0.000000e+00
  -1.681504e-01   5.615762e-02   0.000000e+00
   0.000000e+00   0.000000e+00   0.000000e+00
   0.000000e+00   0.000000e+00   0.000000e+00
   0.000000e+00   0.000000e+00   0.000000e+00
  -1.005144e-01  -1.923550e-01   0.000000e+00
  -5.873834e-02  -1.435993e-01   0.000000e+00
  -1.176468e-01  -7.930447e-02   0.000000e+00
  -6.769241e-02  -4.310006e-02   0.000000e+00
  -1.243126e-01  -7.270921e-02   0.000000e+00
  -2.323889e-01  -6.547362e-02   0.000000e+00
   5.365314e-02  -5.040238e-02   0.000000e+00
  -1.363209e-02  -7.440061e-02   0.000000e+00
   0.000000e+00   0.000000e+00   0.000000e+00
   0.000000e+00   0.000000e+00   0.000000e+00
  -1.699044e-01   5.507398e-04   0.000000e+00
  -1.374827e-01   1.050472e-02   0.000000e+00
  -1.683205e-01  -3.543986e-01   0.000000e+00
  -1.416999e-01   2.128302e-01   0.000000e+00
   0.000000e+00   0.000000e+00   0.000000e+00
  -1.790722e-01  -1.042095e-02   0.000000e+00
   0.000000e+00   0.000000e+00   0.000000e+00
  -2.104815e-01  -8.645396e-02   0.000000e+00
   0.000000e+00   0.000000e+00   0.000000e+00
   0.000000e+00   0.000000e+00   0.000000e+00
VECTORS Imag_Arrow_1.584800e+00(Hz) float
  -4.156536e-06  -6.710165e-03   0.000000e+00
   9.581348e-03  -6.188711e-02   0.000000e+00
   0.000000e+00   0.000000e+00   0.000000e+00
   0.000000e+00   0.000000e+00   0.000000e+00
   1.540861e-02  -9.110545e-03   0.000000e+00
   4.447866e-02  -4.247741e-02   0.000000e+00
   1.952450e-02  -1.033063e-02   0.000000e+00
   8.048606e-03  -6.251463e-02   0.000000e+00
   0.000000e+00   0.000000e+00   0.000000e+00
   2.674242e-02  -2.562949e-02   0.000000e+00
   8.441972e-03  -4.746196e-02   0.000000e+00
   2.056987e-02  -2.963591e-02   0.000000e+00
   0.000000e+00   0.000000e+00   0.000000e+00
   9.176871e-02  -4.080971e-02   0.000000e+00
   0.000000e+00   0.000000e+00   0.000000e+00
   0.000000e+00   0.000000e+00   0.000000e+00
   6.482224e-02  -6.607814e-03   0.000000e+00
   0.000000e+00   0.000000e+00   0.000000e+00
   0.000000e+00   0.000000e+00   0.000000e+00
   0.000000e+00   0.000000e+00   0.000000e+00
   0.000000e+00   0.000000e+00   0.000000e+00
   2.766166e-02  -2.539325e-02   0.000000e+00
  -7.856875e-03  -4.918236e-02   0.000000e+00
   0.000000e+00   0.000000e+00   0.000000e+00
   0.000000e+00   0.000000e+00   0.000000e+00
   0.000000e+00   0.000000e+00   0.000000e+00
   4.963976e-02  -2.250372e-02   0.000000e+00
   4.101253e-02  -4.134700e-02   0.000000e+00
   1.028918e-02  -3.166252e-02   0.000000e+00
   9.002359e-03  -1.472089e-02   0.000000e+00
   1.420022e-02  -2.305804e-02   0.000000e+00
   4.248250e-02  -2.663176e-02   0.000000e+00
  -4.566265e-02  -7.592617e-02   0.000000e+00
  -5.050444e-02  -8.700148e-02   0.000000e+00
   0.000000e+00   0.000000e+00   0.000000e+00
   0.000000e+00   0.000000e+00   0.000000e+00
   5.109507e-02  -9.041053e-02   0.000000e+00
   2.295750e-02  -4.747290e-02   0.000000e+00
   6.665385e-02   4.841022e-02   0.000000e+00
   2.626828e-02  -1.224243e-01   0.000000e+00
   0.000000e+00   0.000000e+00   0.000000e+00
   3.912535e-03  -4.073000e-02   0.000000e+00
   0.000000e+00   0.000000e+00   0.000000e+00
   5.239427e-02  -2.883889e-02   0.000000e+00
   0.000000e+00   0.000000e+00   0.000000e+00
   0.000000e+00   0.000000e+00   0.000000e+00
VECTORS Real_Arrow_2.511800e+00(Hz) float
  -1.626296e-01  -6.253689e-02   0.000000e+00
  -1.987666e-01   6.019485e-02   0.000000e+00
   0.000000e+00   0.000000e+00   0.000000e+00
  -4.877533e-02  -4.671290e-01   0.000000e+00
  -1.937318e-01  -7.442066e-02   0.000000e+00
  -3.798276e-02  -8.331412e-02   0.000000e+00
   9.061777e-02  -1.502936e-01   0.000000e+00
  -2.041292e-01   4.548063e-03   0.000000e+00
   8.346048e-02  -1.915500e-01   0.000000e+00
  -2.044191e-01  -8.119729e-02   0.000000e+00
  -2.244215e-01   9.389013e-02   0.000000e+00
  -3.149258e-01  -8.133932e-02   0.000000e+00
   0.000000e+00   0.000000e+00   0.000000e+00
  -2.696729e-01  -1.187824e-01   0.000000e+00
  -1.317320e-01   2.855637e-02   0.000000e+00
   0.000000e+00   0.000000e+00   0.000000e+00
  -1.316031e-03  -4.711560e-02   0.000000e+00
   0.000000e+00   0.000000e+00   0.000000e+00
   0.000000e+00   0.000000e+00   0.000000e+00
   0.000000e+00   0.000000e+00   0.000000e+00
   0.000000e+00   0.000000e+00   0.000000e+00
  -2.339723e-01  -7.460794e-02   0.000000e+00
  -1.560890e-01   7.793174e-02   0.000000e+00
  -1.701980e-01  -1.312812e-01   0.000000e+00
   0.000000e+00   0.000000e+00   0.000000e+00
   0.000000e+00   0.000000e+00   0.000000e+00
  -1.145419e-01  -1.889424e-01   0.000000e+00
  -6.809845e-02  -1.315392e-01   0.000000e+00
  -1.203511e-01  -6.772201e-02   0.000000e+00
  -6.841937e-02  -3.693483e-02   0.000000e+00
  -1.308389e-01  -6.390292e-02   0.000000e+00
  -2.493133e-01  -5.674110e-02   0.000000e+00
   9.410881e-02  -1.249658e-02   0.000000e+00
   9.000706e-03  -4.407404e-02   0.000000e+00
  -6.626658e-02  -1.114382e-01   0.000000e+00
   0.000000e+00   0.000000e+00   0.000000e+00
  -1.862722e-01   3.308948e-02   0.000000e+00
  -1.429076e-01   2.864892e-02   0.000000e+00
  -1.876573e-01  -3.800359e-01   0.000000e+00
  -1.504519e-01   2.800077e-01   0.000000e+00
   0.000000e+00   0.000000e+00   0.000000e+00
  -1.752248e-01   7.718833e-03   0.000000e+00
   0.000000e+00   0.000000e+00   0.000000e+00
  -2.285796e-01  -7.443421e-02   0.000000e+00
   0.000000e+00   0.000000e+00   0.000000e+00
   0.000000e+00   0.000000e+00   0.000000e+00
VECTORS Imag_Arrow_2.511800e+00(Hz) float
  -2.937845e-02   4.688581e-04   0.000000e+00
  -2.420696e-02  -6.141428e-02   0.000000e+00
   0.000000e+00   0.000000e+00   0.000000e+00
  -1.181919e-02   3.788663e-02   0.000000e+00
  -1.851155e-02  -3.227433e-03   0.000000e+00
   3.302381e-02  -5.472747e-02   0.000000e+00
   1.303473e-02  -1.620395e-02   0.000000e+00
  -2.919172e-02  -7.422520e-02   0.000000e+00
  -1.022679e-01  -8.210074e-03   0.000000e+00
  -1.088447e-02  -2.914565e-02   0.000000e+00
  -2.012878e-02  -3.393005e-02   0.000000e+00
  -3.173320e-02  -6.131556e-02   0.000000e+00
   0.000000e+00   0.000000e+00   0.000000e+00
   6.661632e-02  -6.094931e-02   0.000000e+00
  -3.790187e-02  -4.050904e-02   0.000000e+00
   0.000000e+00   0.000000e+00   0.000000e+00
   6.696956e-02   8.243602e-03   0.000000e+00
   0.000000e+00   0.000000e+00   0.000000e+00
   0.000000e+00   0.000000e+00   0.000000e+00
   0.000000e+00   0.000000e+00   0.000000e+00
   0.000000e+00   0.000000e+00   0.000000e+00
  -7.694319e-03  -2.874362e-02   0.000000e+00
  -3.537135e-02  -3.848380e-02   0.000000e+00
   3.906210e-03   8.042738e-03   0.000000e+00
   0.000000e+00   0.000000e+00   0.000000e+00
   0.000000e+00   0.000000e+00   0.000000e+00
   2.852655e-02  -4.429334e-02   0.000000e+00
   2.350452e-02  -6.265545e-02   0.000000e+00
  -1.620291e-02  -4.526831e-02   0.000000e+00
  -2.313855e-02  -8.653752e-03   0.000000e+00
  -1.091986e-02  -3.412922e-02   0.000000e+00
   1.447638e-02  -3.716255e-02   0.000000e+00
  -7.253474e-02  -9.674230e-02   0.000000e+00
  -8.840041e-02  -1.198318e-01   0.000000e+00
  -3.058483e-02   4.598847e-03   0.000000e+00
   0.000000e+00   0.000000e+00   0.000000e+00
   2.199692e-02  -1.111445e-01   0.000000e+00
  -1.241976e-02  -4.337501e-02   0.000000e+00
   4.435006e-02   3.423069e-02   0.000000e+00
  -9.248251e-03  -1.072302e-01   0.000000e+00
   0.000000e+00   0.000000e+00   0.000000e+00
  -3.167751e-02  -3.710817e-02   0.000000e+00
   0.000000e+00   0.000000e+00   0.000000e+00
   1.707795e-02  -3.285830e-02   0.000000e+00
   0.000000e+00   0.000000e+00   0.000000e+00
   0.000000e+00   0.000000e+00   0.000000e+00
VECTORS Real_Arrow_3.981000e+00(Hz) float
  -1.429012e-01  -6.111208e-02   0.000000e+00
  -1.767993e-01   8.414964e-02   0.000000e+00
   0.000000e+00   0.000000e+00   0.000000e+00
  -3.441173e-02  -4.857673e-01   0.000000e+00
  -1.787820e-01  -7.064770e-02   0.000000e+00
  -4.659640e-02  -5.961452e-02   0.000000e+00
   9.036960e-02  -1.441877e-01   0.000000e+00
  -1.839818e-01   3.987898e-02   0.000000e+00
   1.362735e-01  -1.844685e-01   0.000000e+00
  -1.951206e-01  -6.789691e-02   0.000000e+00
  -2.059231e-01   1.090343e-01   0.000000e+00
  -2.898982e-01  -4.417368e-02   0.000000e+00
   0.000000e+00   0.000000e+00   0.000000e+00
  -2.958493e-01  -9.632764e-02   0.000000e+00
  -1.090968e-01   4.492990e-02   0.000000e+00
   0.000000e+00   0.000000e+00   0.000000e+00
  -2.016357e-02  -4.682885e-02   0.000000e+00
   0.000000e+00   0.000000e+00   0.000000e+00
  -4.269225e-02  -1.729777e-02   0.000000e+00
   0.000000e+00   0.000000e+00   0.000000e+00
   0.000000e+00   0.000000e+00   0.000000e+00
  -2.243961e-01  -5.954335e-02   0.000000e+00
  -1.296520e-01   9.363396e-02   0.000000e+00
  -1.723169e-01  -1.315887e-01   0.000000e+00
   0.000000e+00   0.000000e+00   0.000000e+00
   0.000000e+00   0.000000e+00   0.000000e+00
  -1.218954e-01  -1.741757e-01   0.000000e+00
  -7.249726e-02  -1.078516e-01   0.000000e+00
  -1.078128e-01  -4.665836e-02   0.000000e+00
  -5.411292e-02  -3.211704e-02   0.000000e+00
   0.000000e+00   0.000000e+00   0.000000e+00
  -2.524862e-01  -3.975279e-02   0.000000e+00
   1.482357e-01   3.732616e-02   0.000000e+00
   5.456707e-02   6.398311e-03   0.000000e+00
  -4.789477e-02  -1.080635e-01   0.000000e+00
   0.000000e+00   0.000000e+00   0.000000e+00
   0.000000e+00   0.000000e+00   0.000000e+00
  -1.318809e-01   4.415557e-02   0.000000e+00
  -1.972810e-01  -4.009188e-01   0.000000e+00
  -1.434827e-01   3.405912e-01   0.000000e+00
  -1.114928e-01   2.415515e-02   0.000000e+00
  -1.531521e-01   2.456038e-02   0.000000e+00
   0.000000e+00   0.000000e+00   0.000000e+00
  -2.322042e-01  -5.946240e-02   0.000000e+00
  -1.401017e-01  -5.177519e-02   0.000000e+00
   6.866090e-02  -1.912896e-01   0.000000e+00
VECTORS Imag_Arrow_3.981000e+00(Hz) float
  -5.711220e-02   1.267682e-02   0.000000e+00
  -5.403914e-02  -5.126917e-02   0.000000e+00
   0.000000e+00   0.000000e+00   0.000000e+00
  -3.382032e-02   2.706612e-03   0.000000e+00
  -5.319977e-02   8.789119e-03   0.000000e+00
   2.359566e-02  -6.295187e-02   0.000000e+00
   1.245922e-02  -2.153037e-02   0.000000e+00
  -6.849229e-02  -7.671407e-02   0.000000e+00
  -1.220839e-01  -1.492128e-02   0.000000e+00
  -5.279854e-02  -2.754514e-02   0.000000e+00
  -4.223486e-02  -7.741502e-03   0.000000e+00
  -9.738675e-02  -9.279961e-02   0.000000e+00
   0.000000e+00   0.000000e+00   0.000000e+00
   3.080065e-02  -8.287352e-02   0.000000e+00
  -7.284383e-02  -2.558217e-02   0.000000e+00
   0.000000e+00   0.000000e+00   0.000000e+00
   7.545819e-02   3.005407e-02   0.000000e+00
   0.000000e+00   0.000000e+00   0.000000e+00
  -1.017842e-01  -4.208007e-03   0.000000e+00
   0.000000e+00   0.000000e+00   0.000000e+00
   0.000000e+00   0.000000e+00   0.000000e+00
  -4.670921e-02  -2.604041e-02   0.000000e+00
  -5.379875e-02  -1.616661e-02   0.000000e+00
  -3.370624e-02   8.925238e-05   0.000000e+00
   0.000000e+00   0.000000e+00   0.000000e+00
   0.000000e+00   0.000000e+00   0.000000e+00
   5.456251e-03  -7.135409e-02   0.000000e+00
   6.857963e-03  -8.525794e-02   0.000000e+00
  -4.519500e-02  -5.694134e-02   0.000000e+00
  -5.731701e-02  -6.320591e-05   0.000000e+00
   0.000000e+00   0.000000e+00   0.000000e+00
  -2.287208e-02  -4.736245e-02   0.000000e+00
  -6.374466e-02  -9.693358e-02   0.000000e+00
  -1.207614e-01  -1.499011e-01   0.000000e+00
  -5.753049e-02   5.108701e-03   0.000000e+00
   0.000000e+00   0.000000e+00   0.000000e+00
   0.000000e+00   0.000000e+00   0.000000e+00
  -5.108148e-02  -3.390383e-02   0.000000e+00
   2.000289e-02   5.620071e-03   0.000000e+00
  -5.280015e-02  -4.745487e-02   0.000000e+00
  -5.558307e-02   2.345920e-02   0.000000e+00
  -6.552623e-02  -2.402363e-02   0.000000e+00
   0.000000e+00   0.000000e+00   0.000000e+00
  -2.609545e-02  -3.165028e-02   0.000000e+00
   1.869806e-02  -1.274703e-01   0.000000e+00
  -5.242756e-03  -6.727119e-02   0.000000e+00
