# vtk DataFile Version 2.0
Induction_Arrow_Iter2_PE3
ASCII
DATASET UNSTRUCTURED_GRID
POINTS 46 float
  -2.052000e+03    1.667000e+03   -4.526633e+02
  -1.265000e+03    2.333000e+03   -4.555885e+02
  -9.840000e+02    2.568000e+03   -4.612271e+02
   1.700000e+03   -1.757000e+03   -5.237752e+02
  -1.152000e+03    1.382000e+03   -4.549280e+02
   3.187000e+03    1.067000e+03   -8.370176e+02
   4.716000e+03    9.370000e+02   -8.015281e+02
  -1.855000e+03    5.260000e+02   -5.147377e+02
  -1.420000e+02   -1.905000e+03   -4.746368e+02
  -5.800000e+01    1.069000e+03   -4.555494e+02
  -2.802000e+03    3.302000e+03   -4.314337e+02
  -5.640000e+03   -1.532000e+03   -4.911771e+02
  -8.030000e+02   -5.610000e+02   -5.280929e+02
   1.008000e+03    4.130000e+02   -5.983358e+02
   1.960000e+02    2.246000e+03   -5.219413e+02
  -3.457000e+03    8.320000e+02   -4.470735e+02
   5.640000e+03    2.452000e+03   -7.393049e+02
  -1.334000e+03    3.332000e+03   -4.456136e+02
   1.244000e+03    1.880000e+03   -6.331107e+02
  -2.680000e+02    2.144000e+03   -4.891390e+02
  -4.063000e+03    6.620000e+02   -4.746103e+02
  -1.258000e+03    6.330000e+02   -4.856841e+02
  -2.141000e+03    3.194000e+03   -4.348461e+02
  -3.469000e+03   -3.059000e+03   -6.067613e+02
  -1.604000e+03   -2.570000e+02   -5.141257e+02
  -1.454000e+03    2.220000e+02   -5.386025e+02
   1.864000e+03    1.270000e+02   -7.404291e+02
   2.449000e+03    5.590000e+02   -7.805292e+02
  -1.834000e+03   -1.554000e+03   -6.273074e+02
   1.807000e+03    2.297000e+03   -6.825557e+02
  -2.560000e+03   -1.783000e+03   -6.131337e+02
  -2.741000e+03   -5.010000e+02   -5.080000e+02
   2.884000e+03   -2.179000e+03   -5.274708e+02
  -6.120000e+02   -8.960000e+02   -5.895389e+02
  -1.985000e+03   -2.653000e+03   -5.598834e+02
  -3.390000e+03   -4.000000e+02   -4.982361e+02
   1.586000e+03    1.342000e+03   -6.618442e+02
   1.047000e+03    2.401000e+03   -5.426792e+02
   8.380000e+02   -1.300000e+03   -4.783644e+02
   2.569000e+03    2.441000e+03   -6.035668e+02
  -2.028000e+03    2.833000e+03   -4.322286e+02
  -1.086000e+03    1.998000e+03   -4.563301e+02
   1.514000e+03   -3.332000e+03   -5.646205e+02
   7.040000e+02    1.116000e+03   -5.365099e+02
   1.990000e+03    6.360000e+02   -7.085272e+02
   3.722000e+03   -1.700000e+02   -6.745213e+02
CELLS 46 92
1 0
1 1
1 2
1 3
1 4
1 5
1 6
1 7
1 8
1 9
1 10
1 11
1 12
1 13
1 14
1 15
1 16
1 17
1 18
1 19
1 20
1 21
1 22
1 23
1 24
1 25
1 26
1 27
1 28
1 29
1 30
1 31
1 32
1 33
1 34
1 35
1 36
1 37
1 38
1 39
1 40
1 41
1 42
1 43
1 44
1 45
CELL_TYPES 46
1
1
1
1
1
1
1
1
1
1
1
1
1
1
1
1
1
1
1
1
1
1
1
1
1
1
1
1
1
1
1
1
1
1
1
1
1
1
1
1
1
1
1
1
1
1
POINT_DATA 46
VECTORS Real_Arrow_1.000000e+02(Hz) float
  -5.507451e-02  -8.733430e-02   0.000000e+00
  -1.506406e-01   1.937409e-01   0.000000e+00
  -7.948382e-02   1.272879e-01   0.000000e+00
   4.511138e-02  -1.806806e-01   0.000000e+00
  -1.290125e-02  -1.136874e-01   0.000000e+00
   2.664124e-02   6.714056e-03   0.000000e+00
   5.679142e-02  -2.592675e-02   0.000000e+00
  -6.837548e-02   4.722152e-02   0.000000e+00
   0.000000e+00   0.000000e+00   0.000000e+00
   9.367555e-02  -2.182363e-02   0.000000e+00
  -5.011338e-02   2.098867e-03   0.000000e+00
  -5.551203e-02   1.095530e-02   0.000000e+00
   0.000000e+00   0.000000e+00   0.000000e+00
   4.770475e-02   1.196116e-01   0.000000e+00
   5.860204e-02   3.996649e-02   0.000000e+00
   1.422376e-01   1.544980e-02   0.000000e+00
  -1.521430e-01  -2.780579e-01   0.000000e+00
   1.837298e-02   8.211791e-02   0.000000e+00
   0.000000e+00   0.000000e+00   0.000000e+00
   1.020364e-01   3.702928e-02   0.000000e+00
  -1.077656e-01   3.672509e-02   0.000000e+00
   3.955849e-03  -5.562402e-02   0.000000e+00
  -6.444961e-02   8.777298e-02   0.000000e+00
   3.470038e-02  -1.290380e-01   0.000000e+00
   0.000000e+00   0.000000e+00   0.000000e+00
  -4.180008e-03  -7.142597e-02   0.000000e+00
   6.402526e-02   1.071187e-01   0.000000e+00
   4.569225e-02   1.225885e-01   0.000000e+00
   2.791852e-02   4.097396e-03   0.000000e+00
   1.032322e-01  -1.359869e-01   0.000000e+00
   4.471329e-02  -3.274328e-02   0.000000e+00
  -2.952881e-02  -2.513213e-02   0.000000e+00
   7.676462e-02   7.556881e-02   0.000000e+00
   1.094896e-01   1.631416e-01   0.000000e+00
   6.328393e-02  -1.510253e-01   0.000000e+00
   6.895752e-02  -1.889153e-01   0.000000e+00
   5.603708e-02   2.617370e-01   0.000000e+00
   0.000000e+00   0.000000e+00   0.000000e+00
  -1.081134e-01  -4.531696e-02   0.000000e+00
   7.768083e-02  -8.427244e-02   0.000000e+00
   0.000000e+00   0.000000e+00   0.000000e+00
  -2.275002e-02   1.447240e-02   0.000000e+00
  -1.499246e-01  -6.182470e-02   0.000000e+00
   7.237202e-02  -3.415128e-02   0.000000e+00
   8.853313e-03   3.263013e-01   0.000000e+00
   1.513364e-02   8.064917e-02   0.000000e+00
VECTORS Imag_Arrow_1.000000e+02(Hz) float
   1.978762e-04  -4.901194e-02   0.000000e+00
   1.193745e-02  -3.754848e-02   0.000000e+00
   2.525264e-02  -9.414598e-03   0.000000e+00
  -1.151658e-02  -1.414390e-01   0.000000e+00
  -4.213524e-02  -5.029506e-02   0.000000e+00
  -3.287671e-02   1.912172e-02   0.000000e+00
   3.750878e-02  -8.585609e-02   0.000000e+00
  -2.641570e-02   2.200757e-02   0.000000e+00
   0.000000e+00   0.000000e+00   0.000000e+00
  -1.383707e-02  -3.287852e-02   0.000000e+00
  -4.621474e-02   2.332530e-02   0.000000e+00
  -1.480215e-02   1.057566e-02   0.000000e+00
   0.000000e+00   0.000000e+00   0.000000e+00
  -1.790637e-01   7.911080e-04   0.000000e+00
   1.638570e-02  -1.211685e-02   0.000000e+00
  -5.793478e-02   3.092674e-02   0.000000e+00
   2.290926e-02   4.860792e-02   0.000000e+00
   3.001021e-02  -3.960474e-02   0.000000e+00
   0.000000e+00   0.000000e+00   0.000000e+00
   1.155557e-02  -1.055103e-02   0.000000e+00
  -1.932350e-02  -2.144493e-02   0.000000e+00
  -2.218733e-02  -1.458657e-02   0.000000e+00
   4.083245e-03  -4.469896e-02   0.000000e+00
  -6.269656e-02  -3.207877e-03   0.000000e+00
   0.000000e+00   0.000000e+00   0.000000e+00
   4.219591e-03   2.892594e-02   0.000000e+00
  -8.902454e-02  -6.519896e-02   0.000000e+00
  -3.448963e-02  -4.338109e-02   0.000000e+00
  -3.257062e-02   1.613927e-02   0.000000e+00
   2.393772e-02  -1.443354e-03   0.000000e+00
  -3.145700e-02   2.057098e-02   0.000000e+00
  -8.026589e-02   2.020578e-03   0.000000e+00
   7.551038e-03   1.519974e-02   0.000000e+00
   1.230411e-01   1.246349e-01   0.000000e+00
   2.465292e-02  -7.108890e-02   0.000000e+00
  -1.391315e-01  -4.170918e-02   0.000000e+00
  -3.840089e-02   7.956125e-02   0.000000e+00
   0.000000e+00   0.000000e+00   0.000000e+00
  -7.792399e-02  -1.420406e-01   0.000000e+00
  -4.151698e-02   1.515068e-01   0.000000e+00
   0.000000e+00   0.000000e+00   0.000000e+00
  -2.414372e-02   4.215856e-03   0.000000e+00
   1.475585e-02   4.680269e-02   0.000000e+00
  -8.537496e-02  -3.050050e-02   0.000000e+00
  -7.869704e-02  -5.545749e-02   0.000000e+00
   5.865863e-02  -7.944858e-02   0.000000e+00
VECTORS Real_Arrow_1.584800e+02(Hz) float
  -5.295398e-02  -6.644775e-02   0.000000e+00
  -1.507065e-01   2.025734e-01   0.000000e+00
  -8.832689e-02   1.240462e-01   0.000000e+00
   4.804354e-02  -1.443685e-01   0.000000e+00
   2.623500e-03  -9.065248e-02   0.000000e+00
   3.266620e-02  -3.634809e-03   0.000000e+00
   3.889423e-02   9.432475e-03   0.000000e+00
  -5.247756e-02   4.595331e-02   0.000000e+00
   0.000000e+00   0.000000e+00   0.000000e+00
   7.732921e-02  -9.420273e-03   0.000000e+00
  -4.158112e-02  -4.286914e-03   0.000000e+00
  -5.755122e-02   8.456326e-03   0.000000e+00
   0.000000e+00   0.000000e+00   0.000000e+00
   1.004326e-01   1.053059e-01   0.000000e+00
   4.620135e-02   4.299492e-02   0.000000e+00
   1.489662e-01  -2.874689e-04   0.000000e+00
  -1.584684e-01  -2.890728e-01   0.000000e+00
   2.980995e-03   1.019858e-01   0.000000e+00
   0.000000e+00   0.000000e+00   0.000000e+00
   8.740106e-02   3.802567e-02   0.000000e+00
  -1.005133e-01   4.168938e-02   0.000000e+00
  -1.608281e-03  -4.641953e-02   0.000000e+00
  -6.985261e-02   1.063985e-01   0.000000e+00
   5.292588e-02  -1.298946e-01   0.000000e+00
   0.000000e+00   0.000000e+00   0.000000e+00
  -1.200667e-02  -7.151531e-02   0.000000e+00
   8.790288e-02   1.248732e-01   0.000000e+00
   5.053095e-02   1.321360e-01   0.000000e+00
   3.954598e-02   4.280983e-03   0.000000e+00
   8.176701e-02  -1.195986e-01   0.000000e+00
   5.023494e-02  -3.781891e-02   0.000000e+00
  -1.884066e-03  -2.197397e-02   0.000000e+00
   7.692604e-02   7.003181e-02   0.000000e+00
   5.998386e-02   1.039038e-01   0.000000e+00
   4.918828e-02  -1.138167e-01   0.000000e+00
   1.005544e-01  -1.676441e-01   0.000000e+00
   5.171369e-02   2.075998e-01   0.000000e+00
   0.000000e+00   0.000000e+00   0.000000e+00
  -7.926567e-02  -1.426865e-02   0.000000e+00
   8.896742e-02  -1.199368e-01   0.000000e+00
   0.000000e+00   0.000000e+00   0.000000e+00
  -8.751516e-03   9.056479e-03   0.000000e+00
  -1.501592e-01  -7.691071e-02   0.000000e+00
   8.563136e-02  -2.410074e-02   0.000000e+00
   2.937270e-02   3.353510e-01   0.000000e+00
  -6.246576e-03   1.013041e-01   0.000000e+00
VECTORS Imag_Arrow_1.584800e+02(Hz) float
  -8.584376e-03  -4.953756e-02   0.000000e+00
  -1.484799e-02  -5.074446e-03   0.000000e+00
   1.473626e-02   9.675787e-03   0.000000e+00
  -1.658087e-02  -1.270150e-01   0.000000e+00
  -3.996170e-02  -5.977217e-02   0.000000e+00
  -2.082824e-02   2.064717e-02   0.000000e+00
   3.655857e-02  -7.290367e-02   0.000000e+00
  -5.226587e-02   3.064584e-02   0.000000e+00
   0.000000e+00   0.000000e+00   0.000000e+00
   1.511401e-02  -3.119976e-02   0.000000e+00
  -3.324703e-02   2.467107e-02   0.000000e+00
  -9.082981e-03   1.999953e-03   0.000000e+00
   0.000000e+00   0.000000e+00   0.000000e+00
  -1.482908e-01   2.192347e-02   0.000000e+00
   2.260807e-02  -4.023506e-03   0.000000e+00
  -2.952519e-02   3.230980e-02   0.000000e+00
   1.523151e-02   1.590512e-02   0.000000e+00
   3.522447e-02  -3.602777e-02   0.000000e+00
   0.000000e+00   0.000000e+00   0.000000e+00
   1.344479e-02  -5.091758e-03   0.000000e+00
  -2.025499e-02  -1.643163e-02   0.000000e+00
   4.095339e-03  -5.127495e-03   0.000000e+00
   1.179694e-02  -3.308236e-02   0.000000e+00
  -5.429315e-02  -1.432010e-02   0.000000e+00
   0.000000e+00   0.000000e+00   0.000000e+00
   1.083018e-02  -1.361116e-03   0.000000e+00
  -7.798124e-02  -3.972937e-02   0.000000e+00
  -1.893988e-02  -2.759064e-02   0.000000e+00
  -2.331444e-02   2.687747e-02   0.000000e+00
   2.470194e-02  -1.548713e-02   0.000000e+00
  -1.320226e-02   2.192192e-02   0.000000e+00
  -6.539592e-02  -1.058833e-02   0.000000e+00
   1.962872e-03   1.655986e-02   0.000000e+00
   1.172355e-01   1.386003e-01   0.000000e+00
   3.934172e-02  -8.616763e-02   0.000000e+00
  -9.932394e-02  -4.917959e-02   0.000000e+00
  -1.383568e-02   9.519452e-02   0.000000e+00
   0.000000e+00   0.000000e+00   0.000000e+00
  -8.585789e-02  -1.069353e-01   0.000000e+00
  -3.801740e-02   1.056087e-01   0.000000e+00
   0.000000e+00   0.000000e+00   0.000000e+00
  -3.039357e-02   1.578488e-02   0.000000e+00
  -1.410095e-02   3.006539e-02   0.000000e+00
  -6.491974e-02  -4.368835e-02   0.000000e+00
  -7.120658e-02  -1.118523e-02   0.000000e+00
   3.864320e-02  -5.658983e-02   0.000000e+00
VECTORS Real_Arrow_2.511800e+02(Hz) float
  -4.620160e-02  -4.894255e-02   0.000000e+00
  -1.365068e-01   1.937309e-01   0.000000e+00
  -9.255621e-02   1.142395e-01   0.000000e+00
   5.516877e-02  -1.128372e-01   0.000000e+00
   1.552375e-02  -6.502893e-02   0.000000e+00
   3.193967e-02  -1.148377e-02   0.000000e+00
   2.367655e-02   3.343690e-02   0.000000e+00
  -2.404299e-02   3.352569e-02   0.000000e+00
   0.000000e+00   0.000000e+00   0.000000e+00
   5.748550e-02   1.324536e-03   0.000000e+00
  -3.704640e-02  -1.448174e-02   0.000000e+00
  -5.779788e-02   1.004360e-02   0.000000e+00
   5.269953e-02   2.733663e-01   0.000000e+00
   1.383237e-01   8.711411e-02   0.000000e+00
   3.522997e-02   4.153118e-02   0.000000e+00
   1.491026e-01  -1.276770e-02   0.000000e+00
  -1.640599e-01  -2.878992e-01   0.000000e+00
  -1.376325e-02   1.204739e-01   0.000000e+00
   0.000000e+00   0.000000e+00   0.000000e+00
   7.716433e-02   3.785302e-02   0.000000e+00
  -9.325138e-02   4.508989e-02   0.000000e+00
  -1.377994e-02  -4.739140e-02   0.000000e+00
  -7.951322e-02   1.153018e-01   0.000000e+00
   6.844618e-02  -1.242055e-01   0.000000e+00
   0.000000e+00   0.000000e+00   0.000000e+00
  -1.943226e-02  -5.802660e-02   0.000000e+00
   1.093048e-01   1.335487e-01   0.000000e+00
   4.952508e-02   1.368534e-01   0.000000e+00
   4.542313e-02  -3.151421e-03   0.000000e+00
   6.897336e-02  -1.042894e-01   0.000000e+00
   4.561625e-02  -4.443538e-02   0.000000e+00
   1.920211e-02  -1.268246e-02   0.000000e+00
   7.746997e-02   6.518242e-02   0.000000e+00
   2.017694e-02   4.791790e-02   0.000000e+00
   0.000000e+00   0.000000e+00   0.000000e+00
   1.143315e-01  -1.466565e-01   0.000000e+00
   4.040115e-02   1.626162e-01   0.000000e+00
   0.000000e+00   0.000000e+00   0.000000e+00
  -4.712818e-02   7.309513e-03   0.000000e+00
   9.883617e-02  -1.298932e-01   0.000000e+00
  -5.521148e-02  -1.709633e-01   0.000000e+00
   6.545270e-03  -3.659521e-03   0.000000e+00
  -1.369532e-01  -8.231274e-02   0.000000e+00
   9.442546e-02  -5.108277e-03   0.000000e+00
   4.958126e-02   3.261352e-01   0.000000e+00
  -9.147924e-03   1.082412e-01   0.000000e+00
VECTORS Imag_Arrow_2.511800e+02(Hz) float
  -1.279317e-02  -4.658955e-02   0.000000e+00
  -3.642439e-02   2.392739e-02   0.000000e+00
   2.804881e-03   2.220381e-02   0.000000e+00
  -2.013661e-02  -1.189021e-01   0.000000e+00
  -3.309224e-02  -6.308560e-02   0.000000e+00
  -1.351244e-02   1.894206e-02   0.000000e+00
   2.770820e-02  -4.881213e-02   0.000000e+00
  -6.360442e-02   4.224976e-02   0.000000e+00
   0.000000e+00   0.000000e+00   0.000000e+00
   2.647837e-02  -2.627913e-02   0.000000e+00
  -2.520924e-02   2.379585e-02   0.000000e+00
  -7.277675e-03  -4.207709e-03   0.000000e+00
   4.627527e-02   1.984784e-01   0.000000e+00
  -1.180134e-01   3.255778e-02   0.000000e+00
   2.544730e-02   1.257591e-03   0.000000e+00
  -8.049928e-03   2.856139e-02   0.000000e+00
   6.290253e-03  -1.561631e-02   0.000000e+00
   3.318673e-02  -2.171698e-02   0.000000e+00
   0.000000e+00   0.000000e+00   0.000000e+00
   7.202785e-03  -3.076316e-03   0.000000e+00
  -2.032182e-02  -1.252653e-02   0.000000e+00
   1.813874e-02   5.998676e-03   0.000000e+00
   1.360750e-02  -1.812511e-02   0.000000e+00
  -4.465760e-02  -2.793068e-02   0.000000e+00
   0.000000e+00   0.000000e+00   0.000000e+00
   1.369646e-02  -1.809434e-02   0.000000e+00
  -6.957616e-02  -1.102773e-02   0.000000e+00
  -8.641768e-03  -1.186301e-02   0.000000e+00
  -1.122310e-02   4.518186e-02   0.000000e+00
   1.481417e-02  -1.314053e-02   0.000000e+00
   6.673039e-04   2.460142e-02   0.000000e+00
  -4.339789e-02  -1.622990e-02   0.000000e+00
  -2.391818e-03   1.811004e-02   0.000000e+00
   1.028845e-01   1.352374e-01   0.000000e+00
   0.000000e+00   0.000000e+00   0.000000e+00
  -7.084850e-02  -4.855888e-02   0.000000e+00
  -4.226714e-03   7.931972e-02   0.000000e+00
   0.000000e+00   0.000000e+00   0.000000e+00
  -8.786182e-02  -8.227767e-02   0.000000e+00
  -3.289136e-02   7.428255e-02   0.000000e+00
   1.117467e-02   2.829412e-02   0.000000e+00
  -2.631903e-02   2.028574e-02   0.000000e+00
  -4.024564e-02   1.174885e-02   0.000000e+00
  -5.619109e-02  -5.399955e-02   0.000000e+00
  -6.649553e-02   3.080520e-02   0.000000e+00
   1.879186e-02  -3.587855e-02   0.000000e+00
VECTORS Real_Arrow_3.981000e+02(Hz) float
  -3.952517e-02  -3.341925e-02   0.000000e+00
  -1.141391e-01   1.731871e-01   0.000000e+00
  -9.090309e-02   1.025582e-01   0.000000e+00
   6.393371e-02  -8.065416e-02   0.000000e+00
   2.430110e-02  -3.960962e-02   0.000000e+00
   2.900820e-02  -1.571742e-02   0.000000e+00
   1.712297e-02   4.037891e-02   0.000000e+00
   2.538374e-03   1.558047e-02   0.000000e+00
   0.000000e+00   0.000000e+00   0.000000e+00
   4.171601e-02   8.735736e-03   0.000000e+00
  -3.332342e-02  -2.421833e-02   0.000000e+00
  -5.559631e-02   1.234801e-02   0.000000e+00
   4.288640e-02   2.015608e-01   0.000000e+00
   1.641964e-01   6.811676e-02   0.000000e+00
   2.508345e-02   3.964890e-02   0.000000e+00
   1.447280e-01  -2.172442e-02   0.000000e+00
  -1.681622e-01  -2.770187e-01   0.000000e+00
  -2.686651e-02   1.286465e-01   0.000000e+00
   2.648612e-01  -1.677665e-01   0.000000e+00
   7.333185e-02   3.908005e-02   0.000000e+00
  -8.594135e-02   4.762127e-02   0.000000e+00
  -2.521175e-02  -5.328253e-02   0.000000e+00
  -8.755000e-02   1.162994e-01   0.000000e+00
   8.085386e-02  -1.110905e-01   0.000000e+00
  -2.160356e-02  -4.564375e-02   0.000000e+00
  -2.571656e-02  -4.510328e-02   0.000000e+00
   1.303693e-01   1.297330e-01   0.000000e+00
   4.576942e-02   1.363812e-01   0.000000e+00
   4.488730e-02  -2.361027e-02   0.000000e+00
   6.515294e-02  -9.771478e-02   0.000000e+00
   3.657029e-02  -5.297998e-02   0.000000e+00
   2.726017e-02  -5.802730e-03   0.000000e+00
   7.785915e-02   6.032761e-02   0.000000e+00
  -1.078330e-02   2.073472e-04   0.000000e+00
   0.000000e+00   0.000000e+00   0.000000e+00
   1.233487e-01  -1.291435e-01   0.000000e+00
   3.186876e-02   1.453742e-01   0.000000e+00
   0.000000e+00   0.000000e+00   0.000000e+00
  -1.519119e-02   2.593273e-02   0.000000e+00
   1.074430e-01  -1.359545e-01   0.000000e+00
  -6.247632e-02  -1.786173e-01   0.000000e+00
   1.585579e-02  -1.545542e-02   0.000000e+00
  -1.135966e-01  -7.904199e-02   0.000000e+00
   1.064374e-01   1.643487e-02   0.000000e+00
   7.034814e-02   3.006705e-01   0.000000e+00
  -3.773661e-03   1.078521e-01   0.000000e+00
VECTORS Imag_Arrow_3.981000e+02(Hz) float
  -1.276324e-02  -4.176453e-02   0.000000e+00
  -4.782140e-02   4.278881e-02   0.000000e+00
  -1.013753e-02   2.986574e-02   0.000000e+00
  -2.085046e-02  -1.152723e-01   0.000000e+00
  -2.557890e-02  -5.838616e-02   0.000000e+00
  -1.374737e-02   1.677297e-02   0.000000e+00
   1.481573e-02  -2.353835e-02   0.000000e+00
  -6.354607e-02   4.788712e-02   0.000000e+00
   0.000000e+00   0.000000e+00   0.000000e+00
   2.778471e-02  -1.986570e-02   0.000000e+00
  -2.089898e-02   1.839583e-02   0.000000e+00
  -6.094785e-03  -8.907912e-03   0.000000e+00
   3.143434e-02   1.897574e-01   0.000000e+00
  -9.155778e-02   3.401005e-02   0.000000e+00
   2.568632e-02   4.258644e-03   0.000000e+00
   9.532955e-03   2.352117e-02   0.000000e+00
  -5.948814e-03  -4.503113e-02   0.000000e+00
   2.496242e-02   2.117129e-03   0.000000e+00
   3.908821e-02  -6.376583e-03   0.000000e+00
  -3.714731e-03  -1.689211e-03   0.000000e+00
  -1.917006e-02  -9.430343e-03   0.000000e+00
   2.580911e-02   1.294774e-02   0.000000e+00
   8.960540e-03  -5.201924e-03   0.000000e+00
  -3.411387e-02  -4.065727e-02   0.000000e+00
  -4.074665e-02   2.933207e-02   0.000000e+00
   1.395006e-02  -2.425416e-02   0.000000e+00
  -6.045461e-02   1.768912e-02   0.000000e+00
  -3.313928e-03   2.161719e-03   0.000000e+00
   2.248398e-05   6.389833e-02   0.000000e+00
   3.328344e-03  -3.762562e-03   0.000000e+00
   5.589783e-03   2.677109e-02   0.000000e+00
  -1.753087e-02  -1.644271e-02   0.000000e+00
  -6.751542e-03   2.045782e-02   0.000000e+00
   8.550437e-02   1.207430e-01   0.000000e+00
   0.000000e+00   0.000000e+00   0.000000e+00
  -5.585126e-02  -4.351968e-02   0.000000e+00
  -8.780156e-03   5.640646e-02   0.000000e+00
   0.000000e+00   0.000000e+00   0.000000e+00
  -8.289905e-02  -6.171430e-02   0.000000e+00
  -2.924105e-02   6.351918e-02   0.000000e+00
   2.426047e-03   1.063682e-02   0.000000e+00
  -1.650017e-02   1.568438e-02   0.000000e+00
  -5.859694e-02  -3.067225e-03   0.000000e+00
  -5.493067e-02  -5.724261e-02   0.000000e+00
  -5.984784e-02   6.346040e-02   0.000000e+00
   1.208622e-02  -2.713310e-02   0.000000e+00
VECTORS Real_Arrow_6.309500e+02(Hz) float
  -3.446126e-02  -2.046669e-02   0.000000e+00
  -9.161171e-02   1.490603e-01   0.000000e+00
  -8.293762e-02   8.992959e-02   0.000000e+00
   7.245526e-02  -4.618330e-02   0.000000e+00
   3.037487e-02  -1.961263e-02   0.000000e+00
   2.936615e-02  -1.748395e-02   0.000000e+00
   1.828939e-02   3.599165e-02   0.000000e+00
   2.583475e-02  -2.752449e-03   0.000000e+00
   0.000000e+00   0.000000e+00   0.000000e+00
   3.067120e-02   1.296818e-02   0.000000e+00
  -2.950156e-02  -3.061034e-02   0.000000e+00
  -5.262070e-02   1.540730e-02   0.000000e+00
   3.615114e-02   1.417933e-01   0.000000e+00
   1.813051e-01   5.320312e-02   0.000000e+00
   1.660293e-02   3.770971e-02   0.000000e+00
   1.356444e-01  -2.838030e-02   0.000000e+00
  -1.682959e-01  -2.569204e-01   0.000000e+00
  -3.407102e-02   1.223845e-01   0.000000e+00
   2.432533e-01  -1.612415e-01   0.000000e+00
   7.654376e-02   4.079921e-02   0.000000e+00
  -7.910724e-02   4.967940e-02   0.000000e+00
  -3.713699e-02  -6.069174e-02   0.000000e+00
  -9.096843e-02   1.129387e-01   0.000000e+00
   8.966132e-02  -9.124134e-02   0.000000e+00
  -7.980907e-03  -3.999672e-02   0.000000e+00
  -3.047399e-02  -3.395597e-02   0.000000e+00
   1.489298e-01   1.149373e-01   0.000000e+00
   4.045018e-02   1.328917e-01   0.000000e+00
   3.954336e-02  -5.406007e-02   0.000000e+00
   6.643164e-02  -9.854246e-02   0.000000e+00
   2.947290e-02  -6.230107e-02   0.000000e+00
   2.262698e-02  -1.480590e-03   0.000000e+00
   7.826118e-02   5.445535e-02   0.000000e+00
  -3.479212e-02  -3.795957e-02   0.000000e+00
  -1.228611e-02  -1.460196e-02   0.000000e+00
   1.335633e-01  -1.143411e-01   0.000000e+00
   3.371006e-02   1.399394e-01   0.000000e+00
   0.000000e+00   0.000000e+00   0.000000e+00
   1.284286e-02   3.907314e-02   0.000000e+00
   1.158635e-01  -1.458474e-01   0.000000e+00
  -6.256275e-02  -1.784761e-01   0.000000e+00
   1.880725e-02  -2.135104e-02   0.000000e+00
  -8.599230e-02  -7.109644e-02   0.000000e+00
   1.230810e-01   3.598563e-02   0.000000e+00
   8.754576e-02   2.661276e-01   0.000000e+00
  -2.635038e-03   1.117992e-01   0.000000e+00
VECTORS Imag_Arrow_6.309500e+02(Hz) float
  -1.095596e-02  -3.486671e-02   0.000000e+00
  -4.860935e-02   4.951216e-02   0.000000e+00
  -2.099279e-02   3.465290e-02   0.000000e+00
  -1.862239e-02  -1.122245e-01   0.000000e+00
  -1.855349e-02  -4.698933e-02   0.000000e+00
  -2.088206e-02   1.760147e-02   0.000000e+00
   6.004175e-03  -8.098595e-03   0.000000e+00
  -5.882404e-02   4.893631e-02   0.000000e+00
   0.000000e+00   0.000000e+00   0.000000e+00
   2.544943e-02  -1.387027e-02   0.000000e+00
  -1.853777e-02   9.751996e-03   0.000000e+00
  -2.910381e-03  -1.379193e-02   0.000000e+00
   1.808975e-02   1.727977e-01   0.000000e+00
  -7.166677e-02   2.693811e-02   0.000000e+00
   2.426715e-02   7.138686e-03   0.000000e+00
   2.404014e-02   1.817522e-02   0.000000e+00
  -2.315884e-02  -7.301708e-02   0.000000e+00
   1.407674e-02   2.729508e-02   0.000000e+00
   4.174107e-02  -1.068400e-02   0.000000e+00
  -1.513298e-02   1.071876e-03   0.000000e+00
  -1.673951e-02  -6.889681e-03   0.000000e+00
   3.092717e-02   1.674133e-02   0.000000e+00
   9.107575e-04   3.826598e-03   0.000000e+00
  -2.256994e-02  -4.879282e-02   0.000000e+00
  -4.100266e-02   4.659686e-03   0.000000e+00
   1.325819e-02  -2.720457e-02   0.000000e+00
  -4.809589e-02   4.128277e-02   0.000000e+00
  -3.281138e-03   1.409933e-02   0.000000e+00
   7.951256e-03   7.298720e-02   0.000000e+00
  -6.442933e-03   5.607014e-03   0.000000e+00
   2.677649e-03   2.739720e-02   0.000000e+00
   2.194551e-03  -1.770457e-02   0.000000e+00
  -1.266454e-02   2.392977e-02   0.000000e+00
   6.705845e-02   1.000657e-01   0.000000e+00
   4.903673e-02  -7.338821e-02   0.000000e+00
  -4.689231e-02  -3.657970e-02   0.000000e+00
  -1.909615e-02   4.945151e-02   0.000000e+00
   0.000000e+00   0.000000e+00   0.000000e+00
  -7.161780e-02  -4.107697e-02   0.000000e+00
  -2.454124e-02   6.122524e-02   0.000000e+00
  -8.986661e-03  -7.405895e-03   0.000000e+00
  -6.461991e-03   6.577888e-03   0.000000e+00
  -6.698603e-02  -1.191347e-02   0.000000e+00
  -5.434458e-02  -5.664158e-02   0.000000e+00
  -4.994259e-02   8.329483e-02   0.000000e+00
   1.396817e-02  -2.622912e-02   0.000000e+00
VECTORS Real_Arrow_1.000000e+03(Hz) float
  -3.021002e-02  -1.090366e-02   0.000000e+00
  -7.362531e-02   1.276280e-01   0.000000e+00
  -7.103038e-02   7.649281e-02   0.000000e+00
   7.947094e-02  -1.021647e-02   0.000000e+00
   3.387771e-02  -7.431008e-03   0.000000e+00
   3.633994e-02  -2.029943e-02   0.000000e+00
   2.045961e-02   3.022591e-02   0.000000e+00
   4.640266e-02  -2.054936e-02   0.000000e+00
   0.000000e+00   0.000000e+00   0.000000e+00
   2.284751e-02   1.499061e-02   0.000000e+00
  -2.593571e-02  -3.241066e-02   0.000000e+00
  -5.119529e-02   1.967323e-02   0.000000e+00
   3.306441e-02   9.231696e-02   0.000000e+00
   1.939889e-01   4.700058e-02   0.000000e+00
   0.000000e+00   0.000000e+00   0.000000e+00
   1.223411e-01  -3.286437e-02   0.000000e+00
  -1.603932e-01  -2.264583e-01   0.000000e+00
  -3.580035e-02   1.049171e-01   0.000000e+00
   0.000000e+00   0.000000e+00   0.000000e+00
   8.443791e-02   4.185914e-02   0.000000e+00
  -7.279867e-02   5.136055e-02   0.000000e+00
  -4.975155e-02  -6.903813e-02   0.000000e+00
  -8.907131e-02   1.074406e-01   0.000000e+00
   0.000000e+00   0.000000e+00   0.000000e+00
   4.903935e-03  -2.819868e-02   0.000000e+00
  -3.425466e-02  -2.298087e-02   0.000000e+00
   1.620617e-01   9.353500e-02   0.000000e+00
   3.617962e-02   1.273515e-01   0.000000e+00
   3.127580e-02  -8.340131e-02   0.000000e+00
   7.044261e-02  -1.040094e-01   0.000000e+00
   2.744159e-02  -7.135472e-02   0.000000e+00
   1.486644e-02   4.338353e-03   0.000000e+00
   0.000000e+00   0.000000e+00   0.000000e+00
  -5.207189e-02  -6.587029e-02   0.000000e+00
   0.000000e+00   0.000000e+00   0.000000e+00
   1.432122e-01  -1.011160e-01   0.000000e+00
   4.173527e-02   1.301621e-01   0.000000e+00
   0.000000e+00   0.000000e+00   0.000000e+00
   0.000000e+00   0.000000e+00   0.000000e+00
   1.212388e-01  -1.568817e-01   0.000000e+00
   0.000000e+00   0.000000e+00   0.000000e+00
   0.000000e+00   0.000000e+00   0.000000e+00
  -5.965254e-02  -6.199040e-02   0.000000e+00
   1.410932e-01   5.439701e-02   0.000000e+00
   9.875502e-02   2.282229e-01   0.000000e+00
  -4.919531e-03   1.182536e-01   0.000000e+00
VECTORS Imag_Arrow_1.000000e+03(Hz) float
  -8.382219e-03  -2.711421e-02   0.000000e+00
  -4.367446e-02   4.775004e-02   0.000000e+00
  -2.728504e-02   3.696725e-02   0.000000e+00
  -1.412359e-02  -1.065428e-01   0.000000e+00
  -1.189400e-02  -3.362126e-02   0.000000e+00
  -3.058879e-02   2.256041e-02   0.000000e+00
   2.671119e-03  -1.899282e-03   0.000000e+00
  -4.999413e-02   4.629099e-02   0.000000e+00
   0.000000e+00   0.000000e+00   0.000000e+00
   2.242712e-02  -9.133896e-03   0.000000e+00
  -1.739555e-02  -2.183226e-04   0.000000e+00
   2.161269e-03  -1.891604e-02   0.000000e+00
   4.436627e-03   1.545454e-01   0.000000e+00
  -5.870120e-02   1.693258e-02   0.000000e+00
   0.000000e+00   0.000000e+00   0.000000e+00
   3.483787e-02   1.257959e-02   0.000000e+00
  -4.513644e-02  -9.830394e-02   0.000000e+00
   3.470268e-03   4.660952e-02   0.000000e+00
   0.000000e+00   0.000000e+00   0.000000e+00
  -2.390049e-02   5.639732e-03   0.000000e+00
  -1.288279e-02  -4.210187e-03   0.000000e+00
   3.312344e-02   1.765358e-02   0.000000e+00
  -7.594126e-03   9.344471e-03   0.000000e+00
   0.000000e+00   0.000000e+00   0.000000e+00
  -3.987444e-02  -5.986885e-03   0.000000e+00
   1.263455e-02  -2.778583e-02   0.000000e+00
  -3.312688e-02   5.798892e-02   0.000000e+00
  -1.002006e-02   2.608189e-02   0.000000e+00
   1.081518e-02   6.959053e-02   0.000000e+00
  -1.435430e-02   1.230347e-02   0.000000e+00
  -4.034068e-03   2.689796e-02   0.000000e+00
   1.342386e-02  -2.037599e-02   0.000000e+00
   0.000000e+00   0.000000e+00   0.000000e+00
   4.741646e-02   7.619141e-02   0.000000e+00
   0.000000e+00   0.000000e+00   0.000000e+00
  -3.996762e-02  -2.739395e-02   0.000000e+00
  -2.612219e-02   5.090924e-02   0.000000e+00
   0.000000e+00   0.000000e+00   0.000000e+00
   0.000000e+00   0.000000e+00   0.000000e+00
  -1.976376e-02   6.439228e-02   0.000000e+00
   0.000000e+00   0.000000e+00   0.000000e+00
   0.000000e+00   0.000000e+00   0.000000e+00
  -6.740073e-02  -1.524805e-02   0.000000e+00
  -5.059141e-02  -5.487826e-02   0.000000e+00
  -4.032328e-02   9.155855e-02   0.000000e+00
   1.701648e-02  -2.462598e-02   0.000000e+00
