# vtk DataFile Version 2.0
Induction_Arrow_Iter3_PE2
ASCII
DATASET UNSTRUCTURED_GRID
POINTS 46 float
  -2.052000e+03    1.667000e+03   -4.526633e+02
  -1.265000e+03    2.333000e+03   -4.555885e+02
  -9.840000e+02    2.568000e+03   -4.612271e+02
   1.700000e+03   -1.757000e+03   -5.237752e+02
  -1.152000e+03    1.382000e+03   -4.549280e+02
   3.187000e+03    1.067000e+03   -8.370176e+02
   4.716000e+03    9.370000e+02   -8.015281e+02
  -1.855000e+03    5.260000e+02   -5.147377e+02
  -1.420000e+02   -1.905000e+03   -4.746368e+02
  -5.800000e+01    1.069000e+03   -4.555494e+02
  -2.802000e+03    3.302000e+03   -4.314337e+02
  -5.640000e+03   -1.532000e+03   -4.911771e+02
  -8.030000e+02   -5.610000e+02   -5.280929e+02
   1.008000e+03    4.130000e+02   -5.983358e+02
   1.960000e+02    2.246000e+03   -5.219413e+02
  -3.457000e+03    8.320000e+02   -4.470735e+02
   5.640000e+03    2.452000e+03   -7.393049e+02
  -1.334000e+03    3.332000e+03   -4.456136e+02
   1.244000e+03    1.880000e+03   -6.331107e+02
  -2.680000e+02    2.144000e+03   -4.891390e+02
  -4.063000e+03    6.620000e+02   -4.746103e+02
  -1.258000e+03    6.330000e+02   -4.856841e+02
  -2.141000e+03    3.194000e+03   -4.348461e+02
  -3.469000e+03   -3.059000e+03   -6.067613e+02
  -1.604000e+03   -2.570000e+02   -5.141257e+02
  -1.454000e+03    2.220000e+02   -5.386025e+02
   1.864000e+03    1.270000e+02   -7.404291e+02
   2.449000e+03    5.590000e+02   -7.805292e+02
  -1.834000e+03   -1.554000e+03   -6.273074e+02
   1.807000e+03    2.297000e+03   -6.825557e+02
  -2.560000e+03   -1.783000e+03   -6.131337e+02
  -2.741000e+03   -5.010000e+02   -5.080000e+02
   2.884000e+03   -2.179000e+03   -5.274708e+02
  -6.120000e+02   -8.960000e+02   -5.895389e+02
  -1.985000e+03   -2.653000e+03   -5.598834e+02
  -3.390000e+03   -4.000000e+02   -4.982361e+02
   1.586000e+03    1.342000e+03   -6.618442e+02
   1.047000e+03    2.401000e+03   -5.426792e+02
   8.380000e+02   -1.300000e+03   -4.783644e+02
   2.569000e+03    2.441000e+03   -6.035668e+02
  -2.028000e+03    2.833000e+03   -4.322286e+02
  -1.086000e+03    1.998000e+03   -4.563301e+02
   1.514000e+03   -3.332000e+03   -5.646205e+02
   7.040000e+02    1.116000e+03   -5.365099e+02
   1.990000e+03    6.360000e+02   -7.085272e+02
   3.722000e+03   -1.700000e+02   -6.745213e+02
CELLS 46 92
1 0
1 1
1 2
1 3
1 4
1 5
1 6
1 7
1 8
1 9
1 10
1 11
1 12
1 13
1 14
1 15
1 16
1 17
1 18
1 19
1 20
1 21
1 22
1 23
1 24
1 25
1 26
1 27
1 28
1 29
1 30
1 31
1 32
1 33
1 34
1 35
1 36
1 37
1 38
1 39
1 40
1 41
1 42
1 43
1 44
1 45
CELL_TYPES 46
1
1
1
1
1
1
1
1
1
1
1
1
1
1
1
1
1
1
1
1
1
1
1
1
1
1
1
1
1
1
1
1
1
1
1
1
1
1
1
1
1
1
1
1
1
1
POINT_DATA 46
VECTORS Real_Arrow_6.309500e+00(Hz) float
  -1.058741e-01  -7.044941e-02   0.000000e+00
  -1.376997e-01   9.705917e-02   0.000000e+00
   0.000000e+00   0.000000e+00   0.000000e+00
  -1.171735e-02  -4.887241e-01   0.000000e+00
  -1.456181e-01  -7.901921e-02   0.000000e+00
  -5.621842e-02  -3.180929e-02   0.000000e+00
   8.527468e-02  -1.395609e-01   0.000000e+00
  -1.431676e-01   7.293200e-02   0.000000e+00
   1.983783e-01  -1.791586e-01   0.000000e+00
  -1.644226e-01  -6.019630e-02   0.000000e+00
  -1.787619e-01   1.016822e-01   0.000000e+00
  -2.186416e-01   1.691610e-02   0.000000e+00
   0.000000e+00   0.000000e+00   0.000000e+00
  -3.047542e-01  -6.275183e-02   0.000000e+00
  -7.090432e-02   4.631942e-02   0.000000e+00
   0.000000e+00   0.000000e+00   0.000000e+00
  -4.891590e-02  -5.788583e-02   0.000000e+00
   0.000000e+00   0.000000e+00   0.000000e+00
   6.251831e-03  -1.779999e-02   0.000000e+00
  -3.558763e-02   4.196928e-02   0.000000e+00
   0.000000e+00   0.000000e+00   0.000000e+00
  -1.946116e-01  -4.886941e-02   0.000000e+00
  -9.666484e-02   9.097065e-02   0.000000e+00
  -1.556764e-01  -1.228057e-01   0.000000e+00
   0.000000e+00   0.000000e+00   0.000000e+00
  -1.364533e-01   2.858132e-02   0.000000e+00
  -1.204934e-01  -1.440921e-01   0.000000e+00
  -7.322064e-02  -7.215281e-02   0.000000e+00
  -7.588230e-02  -1.543921e-02   0.000000e+00
  -2.224240e-02  -3.231478e-02   0.000000e+00
   0.000000e+00   0.000000e+00   0.000000e+00
  -2.341455e-01  -1.832427e-02   0.000000e+00
   1.804135e-01   7.870714e-02   0.000000e+00
   1.251389e-01   7.886622e-02   0.000000e+00
  -1.323393e-02  -1.072449e-01   0.000000e+00
  -2.952820e-01  -1.742512e-01   0.000000e+00
   0.000000e+00   0.000000e+00   0.000000e+00
  -1.019668e-01   5.413845e-02   0.000000e+00
  -1.975325e-01  -4.105190e-01   0.000000e+00
  -1.070606e-01   3.492205e-01   0.000000e+00
  -7.981650e-02   9.333472e-03   0.000000e+00
  -1.114653e-01   2.910533e-02   0.000000e+00
  -5.200774e-04   4.006005e-02   0.000000e+00
  -2.143378e-01  -4.914446e-02   0.000000e+00
  -1.460876e-01  -1.746610e-03   0.000000e+00
   7.901519e-02  -1.649655e-01   0.000000e+00
VECTORS Imag_Arrow_6.309500e+00(Hz) float
  -7.294935e-02   3.005281e-02   0.000000e+00
  -6.640740e-02  -3.131193e-02   0.000000e+00
   0.000000e+00   0.000000e+00   0.000000e+00
  -4.436863e-02  -4.720373e-02   0.000000e+00
  -7.813750e-02   2.841366e-02   0.000000e+00
   9.546319e-03  -6.049233e-02   0.000000e+00
   1.100736e-02  -2.344036e-02   0.000000e+00
  -9.464229e-02  -6.123326e-02   0.000000e+00
  -1.184573e-01  -1.626377e-02   0.000000e+00
  -9.184749e-02  -1.831685e-02   0.000000e+00
  -4.653366e-02   3.025122e-02   0.000000e+00
  -1.384479e-01  -9.400996e-02   0.000000e+00
   0.000000e+00   0.000000e+00   0.000000e+00
  -1.920737e-02  -9.978200e-02   0.000000e+00
  -9.654477e-02  -3.630977e-03   0.000000e+00
   0.000000e+00   0.000000e+00   0.000000e+00
   7.923132e-02   5.981685e-02   0.000000e+00
   0.000000e+00   0.000000e+00   0.000000e+00
  -1.439600e-01   2.357838e-02   0.000000e+00
  -1.127380e-01  -3.174974e-03   0.000000e+00
   0.000000e+00   0.000000e+00   0.000000e+00
  -7.932130e-02  -1.340607e-02   0.000000e+00
  -5.036331e-02   1.762945e-02   0.000000e+00
  -7.519421e-02  -6.139199e-03   0.000000e+00
   0.000000e+00   0.000000e+00   0.000000e+00
  -8.949259e-02  -4.540257e-02   0.000000e+00
  -2.143476e-02  -9.823907e-02   0.000000e+00
  -1.156266e-02  -1.023259e-01   0.000000e+00
  -6.354577e-02  -5.726774e-02   0.000000e+00
  -8.585506e-02   1.216645e-02   0.000000e+00
   0.000000e+00   0.000000e+00   0.000000e+00
  -5.716820e-02  -4.697219e-02   0.000000e+00
  -1.558694e-02  -7.111657e-02   0.000000e+00
  -1.292554e-01  -1.630244e-01   0.000000e+00
  -7.226626e-02   1.339430e-02   0.000000e+00
  -4.925522e-02   2.640326e-02   0.000000e+00
   0.000000e+00   0.000000e+00   0.000000e+00
  -8.524292e-02  -2.487683e-02   0.000000e+00
  -1.389529e-03  -3.954656e-02   0.000000e+00
  -9.919076e-02   5.553734e-02   0.000000e+00
  -5.569289e-02   6.171851e-02   0.000000e+00
  -8.582855e-02   1.381846e-04   0.000000e+00
   2.924146e-02  -2.867961e-02   0.000000e+00
  -7.139629e-02  -2.206309e-02   0.000000e+00
  -5.649810e-03  -1.546570e-01   0.000000e+00
  -1.030713e-02  -9.417346e-02   0.000000e+00
VECTORS Real_Arrow_1.000000e+01(Hz) float
  -6.730197e-02  -9.289301e-02   0.000000e+00
  -9.927693e-02   9.232551e-02   0.000000e+00
   0.000000e+00   0.000000e+00   0.000000e+00
   9.267033e-03  -4.643634e-01   0.000000e+00
  -1.057288e-01  -1.003063e-01   0.000000e+00
  -5.941833e-02  -9.120686e-03   0.000000e+00
   8.227777e-02  -1.349624e-01   0.000000e+00
  -9.097170e-02   9.509171e-02   0.000000e+00
   2.519501e-01  -1.708525e-01   0.000000e+00
  -1.215510e-01  -6.083389e-02   0.000000e+00
  -1.650259e-01   7.368753e-02   0.000000e+00
  -1.466907e-01   5.724802e-02   0.000000e+00
   0.000000e+00   0.000000e+00   0.000000e+00
  -2.959861e-01  -2.328680e-02   0.000000e+00
   0.000000e+00   0.000000e+00   0.000000e+00
  -8.643828e-02   2.094555e-02   0.000000e+00
  -7.979615e-02  -8.468946e-02   0.000000e+00
   3.332207e-02   6.041430e-02   0.000000e+00
   7.186778e-02  -3.144830e-02   0.000000e+00
   1.685500e-02   2.976741e-02   0.000000e+00
   0.000000e+00   0.000000e+00   0.000000e+00
  -1.540195e-01  -4.857832e-02   0.000000e+00
  -7.673025e-02   6.364598e-02   0.000000e+00
  -1.116415e-01  -1.174524e-01   0.000000e+00
   0.000000e+00   0.000000e+00   0.000000e+00
  -8.894333e-02   4.646464e-02   0.000000e+00
  -1.108199e-01  -1.046811e-01   0.000000e+00
  -6.696504e-02  -3.199391e-02   0.000000e+00
  -4.265697e-02   1.108700e-02   0.000000e+00
   0.000000e+00   0.000000e+00   0.000000e+00
   0.000000e+00   0.000000e+00   0.000000e+00
  -2.017226e-01   4.697131e-03   0.000000e+00
   1.636655e-01   9.392947e-02   0.000000e+00
   1.901767e-01   1.528828e-01   0.000000e+00
   2.293314e-02  -1.132387e-01   0.000000e+00
  -2.739390e-01  -1.811437e-01   0.000000e+00
   0.000000e+00   0.000000e+00   0.000000e+00
  -5.440645e-02   5.804359e-02   0.000000e+00
  -1.914045e-01  -3.963814e-01   0.000000e+00
  -5.055625e-02   2.990169e-01   0.000000e+00
  -5.651883e-02  -3.021534e-02   0.000000e+00
  -6.761438e-02   1.616845e-02   0.000000e+00
  -1.947256e-02   5.157043e-02   0.000000e+00
  -1.790391e-01  -4.701584e-02   0.000000e+00
  -1.422100e-01   5.743689e-02   0.000000e+00
   9.054144e-02  -1.251414e-01   0.000000e+00
VECTORS Imag_Arrow_1.000000e+01(Hz) float
  -7.238664e-02   3.699540e-02   0.000000e+00
  -5.849699e-02  -2.247451e-02   0.000000e+00
   0.000000e+00   0.000000e+00   0.000000e+00
  -4.669123e-02  -9.742930e-02   0.000000e+00
  -8.927776e-02   3.749120e-02   0.000000e+00
  -8.078386e-03  -5.321187e-02   0.000000e+00
   8.939110e-03  -3.042506e-02   0.000000e+00
  -9.888332e-02  -3.301200e-02   0.000000e+00
  -8.613258e-02  -1.169213e-02   0.000000e+00
  -1.219472e-01  -1.447345e-02   0.000000e+00
  -4.920399e-02   5.056163e-02   0.000000e+00
  -1.326178e-01  -5.527732e-02   0.000000e+00
   0.000000e+00   0.000000e+00   0.000000e+00
  -7.689873e-02  -1.112729e-01   0.000000e+00
   0.000000e+00   0.000000e+00   0.000000e+00
  -1.152630e-01  -4.104939e-02   0.000000e+00
   7.716315e-02   8.604001e-02   0.000000e+00
  -4.952371e-02   2.832366e-02   0.000000e+00
  -1.714495e-01   5.225869e-02   0.000000e+00
  -1.190404e-01   1.007013e-02   0.000000e+00
   0.000000e+00   0.000000e+00   0.000000e+00
  -9.902519e-02   2.204471e-04   0.000000e+00
  -3.684497e-02   3.234092e-02   0.000000e+00
  -9.988195e-02  -5.780563e-03   0.000000e+00
   0.000000e+00   0.000000e+00   0.000000e+00
  -1.011269e-01  -1.658018e-02   0.000000e+00
  -4.927859e-02  -1.206452e-01   0.000000e+00
  -3.080391e-02  -1.133513e-01   0.000000e+00
  -6.582992e-02  -4.407957e-02   0.000000e+00
   0.000000e+00   0.000000e+00   0.000000e+00
   0.000000e+00   0.000000e+00   0.000000e+00
  -8.518177e-02  -3.583825e-02   0.000000e+00
   3.572696e-02  -3.999372e-02   0.000000e+00
  -1.055933e-01  -1.489153e-01   0.000000e+00
  -6.883030e-02   2.755522e-02   0.000000e+00
  -1.048391e-01   2.445281e-02   0.000000e+00
   0.000000e+00   0.000000e+00   0.000000e+00
  -1.051867e-01  -1.376068e-02   0.000000e+00
  -1.999515e-02  -9.625645e-02   0.000000e+00
  -1.193121e-01   1.371799e-01   0.000000e+00
  -4.578108e-02   8.138209e-02   0.000000e+00
  -8.790111e-02   1.474388e-02   0.000000e+00
   5.759031e-02  -3.256619e-04   0.000000e+00
  -1.125796e-01  -1.509201e-02   0.000000e+00
  -3.333972e-02  -1.745668e-01   0.000000e+00
  -6.314454e-03  -1.174520e-01   0.000000e+00
VECTORS Real_Arrow_1.584800e+01(Hz) float
  -3.401739e-02  -1.161674e-01   0.000000e+00
  -7.139371e-02   8.768102e-02   0.000000e+00
   0.000000e+00   0.000000e+00   0.000000e+00
   2.933129e-02  -4.165051e-01   0.000000e+00
  -6.558577e-02  -1.235335e-01   0.000000e+00
  -5.257129e-02   1.011830e-02   0.000000e+00
   8.296980e-02  -1.277654e-01   0.000000e+00
  -4.481562e-02   9.877026e-02   0.000000e+00
   2.829545e-01  -1.692615e-01   0.000000e+00
  -6.558088e-02  -6.063340e-02   0.000000e+00
  -1.524853e-01   4.564870e-02   0.000000e+00
   0.000000e+00   0.000000e+00   0.000000e+00
   0.000000e+00   0.000000e+00   0.000000e+00
  -2.589450e-01   2.258679e-02   0.000000e+00
   0.000000e+00   0.000000e+00   0.000000e+00
  -3.938453e-02   3.525816e-02   0.000000e+00
  -1.066990e-01  -1.232614e-01   0.000000e+00
   4.692079e-02   3.647860e-02   0.000000e+00
   1.485260e-01  -6.036570e-02   0.000000e+00
   6.900184e-02   1.573935e-02   0.000000e+00
  -1.163346e-01   5.067827e-03   0.000000e+00
  -1.093833e-01  -5.607366e-02   0.000000e+00
  -6.862450e-02   3.671372e-02   0.000000e+00
  -6.428391e-02  -1.148358e-01   0.000000e+00
   0.000000e+00   0.000000e+00   0.000000e+00
  -4.149844e-02   4.670094e-02   0.000000e+00
  -8.838233e-02  -5.463473e-02   0.000000e+00
  -5.111359e-02   1.290847e-02   0.000000e+00
  -1.750920e-02   2.504709e-02   0.000000e+00
   0.000000e+00   0.000000e+00   0.000000e+00
   0.000000e+00   0.000000e+00   0.000000e+00
  -1.610233e-01   1.642201e-02   0.000000e+00
   1.224016e-01   9.560943e-02   0.000000e+00
   2.348119e-01   2.154706e-01   0.000000e+00
   4.979642e-02  -1.336791e-01   0.000000e+00
  -2.238854e-01  -1.926292e-01   0.000000e+00
   0.000000e+00   0.000000e+00   0.000000e+00
   1.872947e-03   5.833586e-02   0.000000e+00
  -1.797011e-01  -3.515616e-01   0.000000e+00
   4.485116e-03   2.225717e-01   0.000000e+00
  -4.249961e-02  -6.975000e-02   0.000000e+00
  -2.877522e-02   3.926740e-04   0.000000e+00
  -5.203782e-02   4.480833e-02   0.000000e+00
  -1.254471e-01  -4.702332e-02   0.000000e+00
  -1.248657e-01   1.264786e-01   0.000000e+00
   9.899007e-02  -7.590427e-02   0.000000e+00
VECTORS Imag_Arrow_1.584800e+01(Hz) float
  -5.274265e-02   2.782504e-02   0.000000e+00
  -2.953042e-02  -3.171232e-02   0.000000e+00
   0.000000e+00   0.000000e+00   0.000000e+00
  -4.281981e-02  -1.389458e-01   0.000000e+00
  -8.337145e-02   3.143388e-02   0.000000e+00
  -2.780238e-02  -4.092261e-02   0.000000e+00
   7.702822e-03  -4.155159e-02   0.000000e+00
  -7.655744e-02  -8.605013e-04   0.000000e+00
  -3.377687e-02  -3.932897e-03   0.000000e+00
  -1.395034e-01  -1.862739e-02   0.000000e+00
  -5.908478e-02   5.111125e-02   0.000000e+00
   0.000000e+00   0.000000e+00   0.000000e+00
   0.000000e+00   0.000000e+00   0.000000e+00
  -1.371080e-01  -1.134939e-01   0.000000e+00
   0.000000e+00   0.000000e+00   0.000000e+00
  -1.336861e-01  -2.395926e-02   0.000000e+00
   6.668920e-02   1.040660e-01   0.000000e+00
  -2.374994e-02   1.508988e-02   0.000000e+00
  -1.754331e-01   7.471550e-02   0.000000e+00
  -1.056979e-01   7.945639e-03   0.000000e+00
  -2.431048e-03  -3.671512e-02   0.000000e+00
  -1.031562e-01   8.928746e-03   0.000000e+00
  -2.192245e-02   2.095677e-02   0.000000e+00
  -1.017831e-01  -2.369126e-03   0.000000e+00
   0.000000e+00   0.000000e+00   0.000000e+00
  -9.112976e-02   1.749415e-02   0.000000e+00
  -7.716588e-02  -1.337412e-01   0.000000e+00
  -4.950018e-02  -1.148734e-01   0.000000e+00
  -5.489389e-02  -2.055552e-02   0.000000e+00
   0.000000e+00   0.000000e+00   0.000000e+00
   0.000000e+00   0.000000e+00   0.000000e+00
  -9.831202e-02  -1.438737e-02   0.000000e+00
   5.258578e-02  -1.933226e-02   0.000000e+00
  -5.218354e-02  -1.058525e-01   0.000000e+00
  -5.231052e-02   3.776190e-02   0.000000e+00
  -1.574772e-01   2.232851e-02   0.000000e+00
   0.000000e+00   0.000000e+00   0.000000e+00
  -1.005408e-01  -5.314241e-03   0.000000e+00
  -3.570740e-02  -1.548401e-01   0.000000e+00
  -1.117852e-01   1.842784e-01   0.000000e+00
  -3.132536e-02   7.758491e-02   0.000000e+00
  -7.039052e-02   1.362624e-02   0.000000e+00
   7.078786e-02   3.171616e-02   0.000000e+00
  -1.424075e-01  -1.406431e-02   0.000000e+00
  -6.196511e-02  -1.819960e-01   0.000000e+00
   8.166072e-03  -1.284874e-01   0.000000e+00
VECTORS Real_Arrow_2.511800e+01(Hz) float
  -2.065560e-02  -1.293911e-01   0.000000e+00
  -6.968619e-02   9.787509e-02   0.000000e+00
   0.000000e+00   0.000000e+00   0.000000e+00
   4.539410e-02  -3.540058e-01   0.000000e+00
  -3.739341e-02  -1.389975e-01   0.000000e+00
  -3.525434e-02   2.312847e-02   0.000000e+00
   8.506314e-02  -1.151807e-01   0.000000e+00
  -2.342143e-02   8.506853e-02   0.000000e+00
   2.830928e-01  -1.757649e-01   0.000000e+00
  -2.072264e-03  -5.423245e-02   0.000000e+00
  -1.288631e-01   2.658373e-02   0.000000e+00
  -7.129376e-02   4.856305e-02   0.000000e+00
   0.000000e+00   0.000000e+00   0.000000e+00
  -1.927952e-01   6.986279e-02   0.000000e+00
   6.420038e-02   1.531819e-02   0.000000e+00
   1.724514e-02   3.903462e-02   0.000000e+00
  -1.257620e-01  -1.684720e-01   0.000000e+00
   4.534823e-02   3.216047e-02   0.000000e+00
   2.195968e-01  -9.956707e-02   0.000000e+00
   1.080396e-01   1.075732e-02   0.000000e+00
  -1.204825e-01   1.256608e-02   0.000000e+00
  -6.883620e-02  -6.665951e-02   0.000000e+00
  -6.766411e-02   2.745445e-02   0.000000e+00
  -2.769127e-02  -1.156510e-01   0.000000e+00
   0.000000e+00   0.000000e+00   0.000000e+00
  -7.552731e-03   2.817126e-02   0.000000e+00
  -5.273840e-02  -3.457890e-04   0.000000e+00
  -2.573937e-02   5.625624e-02   0.000000e+00
  -4.759450e-03   2.260669e-02   0.000000e+00
   0.000000e+00   0.000000e+00   0.000000e+00
  -7.348710e-03  -2.267751e-03   0.000000e+00
  -1.224184e-01   1.255900e-02   0.000000e+00
   9.324128e-02   9.473633e-02   0.000000e+00
   2.438629e-01   2.508163e-01   0.000000e+00
   6.509942e-02  -1.623731e-01   0.000000e+00
  -1.486309e-01  -2.053018e-01   0.000000e+00
   0.000000e+00   0.000000e+00   0.000000e+00
   4.707540e-02   5.595881e-02   0.000000e+00
  -1.637449e-01  -2.756786e-01   0.000000e+00
   4.352194e-02   1.412041e-01   0.000000e+00
  -3.741201e-02  -9.488934e-02   0.000000e+00
  -9.020048e-03  -6.041394e-03   0.000000e+00
  -8.479244e-02   2.032076e-02   0.000000e+00
  -6.117591e-02  -4.464318e-02   0.000000e+00
  -9.358459e-02   1.977170e-01   0.000000e+00
   9.661989e-02  -2.687215e-02   0.000000e+00
VECTORS Imag_Arrow_2.511800e+01(Hz) float
  -2.078691e-02   5.872316e-03   0.000000e+00
   1.038241e-02  -5.169842e-02   0.000000e+00
   0.000000e+00   0.000000e+00   0.000000e+00
  -3.177844e-02  -1.629468e-01   0.000000e+00
  -6.422270e-02   1.352192e-02   0.000000e+00
  -4.336614e-02  -2.311447e-02   0.000000e+00
   1.171465e-02  -5.598691e-02   0.000000e+00
  -3.732360e-02   2.454545e-02   0.000000e+00
   2.511953e-02   4.044937e-04   0.000000e+00
  -1.370419e-01  -2.512912e-02   0.000000e+00
  -7.217717e-02   4.421301e-02   0.000000e+00
  -7.303670e-02   7.341111e-03   0.000000e+00
   0.000000e+00   0.000000e+00   0.000000e+00
  -1.856645e-01  -1.004871e-01   0.000000e+00
  -6.762736e-02   1.119286e-03   0.000000e+00
  -1.404701e-01  -6.302863e-03   0.000000e+00
   5.269588e-02   1.099624e-01   0.000000e+00
  -7.888146e-04  -1.012592e-02   0.000000e+00
  -1.520535e-01   8.296116e-02   0.000000e+00
  -7.378738e-02  -3.565620e-03   0.000000e+00
  -3.460365e-03  -2.932441e-02   0.000000e+00
  -9.437687e-02   9.561965e-03   0.000000e+00
  -1.167057e-02  -5.143650e-03   0.000000e+00
  -8.980892e-02   8.644559e-04   0.000000e+00
   0.000000e+00   0.000000e+00   0.000000e+00
  -6.396957e-02   4.807896e-02   0.000000e+00
  -9.872613e-02  -1.315172e-01   0.000000e+00
  -6.209984e-02  -1.035815e-01   0.000000e+00
  -4.289062e-02   1.492283e-03   0.000000e+00
   0.000000e+00   0.000000e+00   0.000000e+00
  -6.286265e-02   1.616172e-02   0.000000e+00
  -9.861322e-02   6.254422e-03   0.000000e+00
   4.091699e-02  -4.965507e-03   0.000000e+00
   1.502856e-02  -4.137321e-02   0.000000e+00
  -3.202278e-02   3.050890e-02   0.000000e+00
  -1.917380e-01   1.139649e-02   0.000000e+00
   0.000000e+00   0.000000e+00   0.000000e+00
  -6.656788e-02   2.373910e-04   0.000000e+00
  -4.738104e-02  -1.980133e-01   0.000000e+00
  -8.830225e-02   2.054163e-01   0.000000e+00
  -1.756103e-02   6.299294e-02   0.000000e+00
  -3.996266e-02   2.616037e-03   0.000000e+00
   6.969904e-02   5.537193e-02   0.000000e+00
  -1.526025e-01  -1.627299e-02   0.000000e+00
  -8.424068e-02  -1.701040e-01   0.000000e+00
   3.055048e-02  -1.255873e-01   0.000000e+00
VECTORS Real_Arrow_3.981000e+01(Hz) float
  -3.054726e-02  -1.268082e-01   0.000000e+00
  -9.611119e-02   1.265805e-01   0.000000e+00
  -3.634991e-02   9.217769e-02   0.000000e+00
   5.155841e-02  -2.884437e-01   0.000000e+00
  -2.621253e-02  -1.425104e-01   0.000000e+00
  -1.172817e-02   2.563077e-02   0.000000e+00
   8.314757e-02  -9.470445e-02   0.000000e+00
   0.000000e+00   0.000000e+00   0.000000e+00
   2.539065e-01  -1.868983e-01   0.000000e+00
   5.602708e-02  -4.423667e-02   0.000000e+00
  -9.575992e-02   1.315643e-02   0.000000e+00
  -5.779577e-02   3.440445e-02   0.000000e+00
   0.000000e+00   0.000000e+00   0.000000e+00
  -1.083090e-01   1.072331e-01   0.000000e+00
   7.992039e-02   1.749921e-02   0.000000e+00
   7.607063e-02   3.635370e-02   0.000000e+00
  -1.378770e-01  -2.140177e-01   0.000000e+00
   3.667763e-02   4.519210e-02   0.000000e+00
   0.000000e+00   0.000000e+00   0.000000e+00
   1.240872e-01   1.697080e-02   0.000000e+00
  -1.204767e-01   1.861105e-02   0.000000e+00
  -3.499268e-02  -7.425943e-02   0.000000e+00
  -6.799340e-02   3.755857e-02   0.000000e+00
  -3.069794e-03  -1.185039e-01   0.000000e+00
   0.000000e+00   0.000000e+00   0.000000e+00
   5.954419e-03  -6.406617e-03   0.000000e+00
  -9.295211e-03   4.733616e-02   0.000000e+00
   4.325494e-03   8.927894e-02   0.000000e+00
   0.000000e+00   0.000000e+00   0.000000e+00
   1.305816e-01  -1.144416e-01   0.000000e+00
   1.157295e-02  -1.722824e-02   0.000000e+00
  -8.965602e-02  -1.283953e-03   0.000000e+00
   0.000000e+00   0.000000e+00   0.000000e+00
   2.166646e-01   2.501259e-01   0.000000e+00
   7.190439e-02  -1.828265e-01   0.000000e+00
  -6.329765e-02  -2.097486e-01   0.000000e+00
   0.000000e+00   0.000000e+00   0.000000e+00
   6.034272e-02   5.412120e-02   0.000000e+00
  -1.469088e-01  -1.829596e-01   0.000000e+00
   6.353241e-02   5.860188e-02   0.000000e+00
  -3.747551e-02  -1.079609e-01   0.000000e+00
  -1.262561e-02  -7.635887e-04   0.000000e+00
  -1.135698e-01  -1.100985e-02   0.000000e+00
   5.087421e-04  -4.082632e-02   0.000000e+00
  -5.448198e-02   2.582322e-01   0.000000e+00
   7.914427e-02   1.547228e-02   0.000000e+00
VECTORS Imag_Arrow_3.981000e+01(Hz) float
   3.398592e-03  -2.018246e-02   0.000000e+00
   3.702307e-02  -6.644658e-02   0.000000e+00
   3.045957e-02  -3.928360e-02   0.000000e+00
  -1.745099e-02  -1.681678e-01   0.000000e+00
  -4.607815e-02  -1.021399e-02   0.000000e+00
  -4.943231e-02  -3.346488e-03   0.000000e+00
   2.133187e-02  -7.177861e-02   0.000000e+00
   0.000000e+00   0.000000e+00   0.000000e+00
   7.434274e-02  -6.085041e-03   0.000000e+00
  -1.093570e-01  -2.885394e-02   0.000000e+00
  -7.440415e-02   3.593188e-02   0.000000e+00
  -4.688413e-02   1.669424e-02   0.000000e+00
   0.000000e+00   0.000000e+00   0.000000e+00
  -2.093174e-01  -7.081100e-02   0.000000e+00
  -2.920452e-02  -1.063580e-02   0.000000e+00
  -1.269382e-01   8.465940e-03   0.000000e+00
   3.998831e-02   1.016480e-01   0.000000e+00
   1.248456e-02  -2.939475e-02   0.000000e+00
   0.000000e+00   0.000000e+00   0.000000e+00
  -3.491000e-02  -1.437662e-02   0.000000e+00
  -1.008107e-02  -2.673753e-02   0.000000e+00
  -7.783929e-02   9.456642e-04   0.000000e+00
  -6.806206e-03  -3.030657e-02   0.000000e+00
  -7.642327e-02   2.219653e-03   0.000000e+00
   0.000000e+00   0.000000e+00   0.000000e+00
  -3.227277e-02   6.512342e-02   0.000000e+00
  -1.074481e-01  -1.142799e-01   0.000000e+00
  -6.327519e-02  -8.270729e-02   0.000000e+00
   0.000000e+00   0.000000e+00   0.000000e+00
  -2.957559e-02   5.348671e-02   0.000000e+00
  -5.587970e-02   2.308054e-02   0.000000e+00
  -9.391502e-02   1.702221e-02   0.000000e+00
   0.000000e+00   0.000000e+00   0.000000e+00
   7.465107e-02   2.876955e-02   0.000000e+00
  -1.172687e-02   1.018131e-03   0.000000e+00
  -1.968642e-01  -7.283444e-03   0.000000e+00
   0.000000e+00   0.000000e+00   0.000000e+00
  -1.813695e-02   1.172458e-03   0.000000e+00
  -5.577832e-02  -2.084200e-01   0.000000e+00
  -6.315158e-02   2.078031e-01   0.000000e+00
  -9.181438e-03   5.215791e-02   0.000000e+00
  -1.596041e-02  -6.876072e-03   0.000000e+00
   5.908759e-02   6.319458e-02   0.000000e+00
  -1.408514e-01  -1.861980e-02   0.000000e+00
  -9.334250e-02  -1.394197e-01   0.000000e+00
   5.289437e-02  -1.140289e-01   0.000000e+00
VECTORS Real_Arrow_6.309500e+01(Hz) float
  -4.690541e-02  -1.101611e-01   0.000000e+00
  -1.296393e-01   1.635603e-01   0.000000e+00
  -6.143047e-02   1.160386e-01   0.000000e+00
   4.843381e-02  -2.289789e-01   0.000000e+00
  -2.182920e-02  -1.328691e-01   0.000000e+00
   1.069088e-02   1.850450e-02   0.000000e+00
   7.362304e-02  -6.447339e-02   0.000000e+00
   0.000000e+00   0.000000e+00   0.000000e+00
   0.000000e+00   0.000000e+00   0.000000e+00
   9.098220e-02  -3.422514e-02   0.000000e+00
  -6.711475e-02   5.484381e-03   0.000000e+00
  -5.360842e-02   2.072055e-02   0.000000e+00
   0.000000e+00   0.000000e+00   0.000000e+00
  -2.312775e-02   1.246068e-01   0.000000e+00
   7.386933e-02   2.860330e-02   0.000000e+00
   1.200895e-01   2.873714e-02   0.000000e+00
  -1.462907e-01  -2.525090e-01   0.000000e+00
   2.882360e-02   6.357237e-02   0.000000e+00
   0.000000e+00   0.000000e+00   0.000000e+00
   1.190122e-01   2.881420e-02   0.000000e+00
  -1.150999e-01   2.668048e-02   0.000000e+00
  -8.215829e-03  -7.046596e-02   0.000000e+00
  -6.621329e-02   6.030203e-02   0.000000e+00
   0.000000e+00   0.000000e+00   0.000000e+00
   0.000000e+00   0.000000e+00   0.000000e+00
   3.491414e-03  -4.602363e-02   0.000000e+00
   3.221018e-02   8.217452e-02   0.000000e+00
   3.054841e-02   1.097414e-01   0.000000e+00
   0.000000e+00   0.000000e+00   0.000000e+00
   1.252720e-01  -1.369139e-01   0.000000e+00
   3.077426e-02  -2.823618e-02   0.000000e+00
  -5.932854e-02  -1.675522e-02   0.000000e+00
   7.796576e-02   8.269467e-02   0.000000e+00
   1.664109e-01   2.169929e-01   0.000000e+00
   0.000000e+00   0.000000e+00   0.000000e+00
   1.303706e-02  -2.033074e-01   0.000000e+00
   4.136760e-02   2.949958e-01   0.000000e+00
   0.000000e+00   0.000000e+00   0.000000e+00
  -1.295803e-01  -9.976080e-02   0.000000e+00
   7.159920e-02  -2.059331e-02   0.000000e+00
  -3.649648e-02  -1.194064e-01   0.000000e+00
  -2.377375e-02   9.682459e-03   0.000000e+00
  -1.363567e-01  -3.925737e-02   0.000000e+00
   4.729206e-02  -3.797891e-02   0.000000e+00
  -1.784189e-02   3.005242e-01   0.000000e+00
   4.870832e-02   5.111017e-02   0.000000e+00
VECTORS Imag_Arrow_6.309500e+01(Hz) float
   7.539489e-03  -4.023533e-02   0.000000e+00
   3.506314e-02  -6.220034e-02   0.000000e+00
   3.369862e-02  -2.971926e-02   0.000000e+00
  -9.012385e-03  -1.588428e-01   0.000000e+00
  -3.997358e-02  -3.330454e-02   0.000000e+00
  -4.476251e-02   1.164728e-02   0.000000e+00
   3.211447e-02  -8.415081e-02   0.000000e+00
   0.000000e+00   0.000000e+00   0.000000e+00
   0.000000e+00   0.000000e+00   0.000000e+00
  -6.206090e-02  -3.044332e-02   0.000000e+00
  -6.297685e-02   2.775877e-02   0.000000e+00
  -2.668622e-02   1.744609e-02   0.000000e+00
   0.000000e+00   0.000000e+00   0.000000e+00
  -2.050642e-01  -3.274388e-02   0.000000e+00
   1.680335e-03  -1.683562e-02   0.000000e+00
  -9.419767e-02   2.108560e-02   0.000000e+00
   3.012386e-02   7.987878e-02   0.000000e+00
   2.073209e-02  -3.749345e-02   0.000000e+00
   0.000000e+00   0.000000e+00   0.000000e+00
  -3.793014e-03  -1.671390e-02   0.000000e+00
  -1.566078e-02  -2.495938e-02   0.000000e+00
  -5.336966e-02  -1.183300e-02   0.000000e+00
  -3.123004e-03  -4.455877e-02   0.000000e+00
   0.000000e+00   0.000000e+00   0.000000e+00
   0.000000e+00   0.000000e+00   0.000000e+00
  -8.506418e-03   5.926697e-02   0.000000e+00
  -1.024327e-01  -9.010424e-02   0.000000e+00
  -5.224870e-02  -6.108622e-02   0.000000e+00
   0.000000e+00   0.000000e+00   0.000000e+00
   5.632643e-03   2.856220e-02   0.000000e+00
  -4.677792e-02   2.210234e-02   0.000000e+00
  -8.802864e-02   1.551068e-02   0.000000e+00
   1.511255e-02   1.245178e-02   0.000000e+00
   1.118221e-01   8.715279e-02   0.000000e+00
   0.000000e+00   0.000000e+00   0.000000e+00
  -1.743517e-01  -2.702172e-02   0.000000e+00
  -7.471850e-02   3.120673e-02   0.000000e+00
   0.000000e+00   0.000000e+00   0.000000e+00
  -6.485594e-02  -1.839678e-01   0.000000e+00
  -4.759878e-02   1.897768e-01   0.000000e+00
  -4.211484e-03   4.922483e-02   0.000000e+00
  -1.275613e-02  -6.636148e-03   0.000000e+00
   4.017094e-02   5.870150e-02   0.000000e+00
  -1.139038e-01  -2.210457e-02   0.000000e+00
  -8.898718e-02  -9.894601e-02   0.000000e+00
   6.509216e-02  -9.873455e-02   0.000000e+00
