# vtk DataFile Version 2.0
Induction_Arrow_Iter8_PE4
ASCII
DATASET UNSTRUCTURED_GRID
POINTS 46 float
  -2.052000e+03    1.667000e+03   -4.526633e+02
  -1.265000e+03    2.333000e+03   -4.555885e+02
  -9.840000e+02    2.568000e+03   -4.612271e+02
   1.700000e+03   -1.757000e+03   -5.237752e+02
  -1.152000e+03    1.382000e+03   -4.549280e+02
   3.187000e+03    1.067000e+03   -8.370176e+02
   4.716000e+03    9.370000e+02   -8.015281e+02
  -1.855000e+03    5.260000e+02   -5.147377e+02
  -1.420000e+02   -1.905000e+03   -4.746368e+02
  -5.800000e+01    1.069000e+03   -4.555494e+02
  -2.802000e+03    3.302000e+03   -4.314337e+02
  -5.640000e+03   -1.532000e+03   -4.911771e+02
  -8.030000e+02   -5.610000e+02   -5.280929e+02
   1.008000e+03    4.130000e+02   -5.983358e+02
   1.960000e+02    2.246000e+03   -5.219413e+02
  -3.457000e+03    8.320000e+02   -4.470735e+02
   5.640000e+03    2.452000e+03   -7.393049e+02
  -1.334000e+03    3.332000e+03   -4.456136e+02
   1.244000e+03    1.880000e+03   -6.331107e+02
  -2.680000e+02    2.144000e+03   -4.891390e+02
  -4.063000e+03    6.620000e+02   -4.746103e+02
  -1.258000e+03    6.330000e+02   -4.856841e+02
  -2.141000e+03    3.194000e+03   -4.348461e+02
  -3.469000e+03   -3.059000e+03   -6.067613e+02
  -1.604000e+03   -2.570000e+02   -5.141257e+02
  -1.454000e+03    2.220000e+02   -5.386025e+02
   1.864000e+03    1.270000e+02   -7.404291e+02
   2.449000e+03    5.590000e+02   -7.805292e+02
  -1.834000e+03   -1.554000e+03   -6.273074e+02
   1.807000e+03    2.297000e+03   -6.825557e+02
  -2.560000e+03   -1.783000e+03   -6.131337e+02
  -2.741000e+03   -5.010000e+02   -5.080000e+02
   2.884000e+03   -2.179000e+03   -5.274708e+02
  -6.120000e+02   -8.960000e+02   -5.895389e+02
  -1.985000e+03   -2.653000e+03   -5.598834e+02
  -3.390000e+03   -4.000000e+02   -4.982361e+02
   1.586000e+03    1.342000e+03   -6.618442e+02
   1.047000e+03    2.401000e+03   -5.426792e+02
   8.380000e+02   -1.300000e+03   -4.783644e+02
   2.569000e+03    2.441000e+03   -6.035668e+02
  -2.028000e+03    2.833000e+03   -4.322286e+02
  -1.086000e+03    1.998000e+03   -4.563301e+02
   1.514000e+03   -3.332000e+03   -5.646205e+02
   7.040000e+02    1.116000e+03   -5.365099e+02
   1.990000e+03    6.360000e+02   -7.085272e+02
   3.722000e+03   -1.700000e+02   -6.745213e+02
CELLS 46 92
1 0
1 1
1 2
1 3
1 4
1 5
1 6
1 7
1 8
1 9
1 10
1 11
1 12
1 13
1 14
1 15
1 16
1 17
1 18
1 19
1 20
1 21
1 22
1 23
1 24
1 25
1 26
1 27
1 28
1 29
1 30
1 31
1 32
1 33
1 34
1 35
1 36
1 37
1 38
1 39
1 40
1 41
1 42
1 43
1 44
1 45
CELL_TYPES 46
1
1
1
1
1
1
1
1
1
1
1
1
1
1
1
1
1
1
1
1
1
1
1
1
1
1
1
1
1
1
1
1
1
1
1
1
1
1
1
1
1
1
1
1
1
1
POINT_DATA 46
VECTORS Real_Arrow_6.309500e+00(Hz) float
  -1.076026e-01  -7.502020e-02   0.000000e+00
  -1.445259e-01   9.753882e-02   0.000000e+00
   0.000000e+00   0.000000e+00   0.000000e+00
  -8.971076e-03  -4.871850e-01   0.000000e+00
  -1.518190e-01  -8.265045e-02   0.000000e+00
  -5.440751e-02  -3.057013e-02   0.000000e+00
   7.963018e-02  -1.395313e-01   0.000000e+00
  -1.518892e-01   8.420001e-02   0.000000e+00
   2.063295e-01  -1.737594e-01   0.000000e+00
  -1.651329e-01  -6.607153e-02   0.000000e+00
  -1.759918e-01   9.742538e-02   0.000000e+00
  -2.093534e-01   2.536845e-02   0.000000e+00
   0.000000e+00   0.000000e+00   0.000000e+00
  -3.088672e-01  -6.750867e-02   0.000000e+00
  -7.689395e-02   4.625480e-02   0.000000e+00
   0.000000e+00   0.000000e+00   0.000000e+00
  -5.187638e-02  -7.234206e-02   0.000000e+00
   0.000000e+00   0.000000e+00   0.000000e+00
   3.553625e-03  -3.356424e-02   0.000000e+00
  -3.849146e-02   3.915683e-02   0.000000e+00
   0.000000e+00   0.000000e+00   0.000000e+00
  -2.010678e-01  -5.806610e-02   0.000000e+00
  -9.604919e-02   8.512678e-02   0.000000e+00
  -1.676599e-01  -1.205815e-01   0.000000e+00
   0.000000e+00   0.000000e+00   0.000000e+00
  -1.361748e-01   2.098515e-02   0.000000e+00
  -1.232388e-01  -1.442666e-01   0.000000e+00
  -7.427777e-02  -7.142507e-02   0.000000e+00
  -7.011984e-02  -1.112511e-02   0.000000e+00
  -3.325890e-02  -8.240054e-02   0.000000e+00
   0.000000e+00   0.000000e+00   0.000000e+00
  -2.547074e-01  -2.998770e-02   0.000000e+00
   1.772643e-01   8.096715e-02   0.000000e+00
   1.445334e-01   8.711727e-02   0.000000e+00
  -1.477391e-02  -1.002661e-01   0.000000e+00
  -3.156888e-01  -1.835876e-01   0.000000e+00
   0.000000e+00   0.000000e+00   0.000000e+00
  -1.287521e-01   4.487991e-02   0.000000e+00
  -2.062366e-01  -4.165922e-01   0.000000e+00
  -9.952222e-02   3.530614e-01   0.000000e+00
  -8.246835e-02   5.549154e-03   0.000000e+00
  -1.141002e-01   2.587229e-02   0.000000e+00
   1.964510e-03   4.013620e-02   0.000000e+00
  -2.250869e-01  -6.189300e-02   0.000000e+00
  -1.474744e-01  -7.156581e-04   0.000000e+00
   7.778355e-02  -1.525969e-01   0.000000e+00
VECTORS Imag_Arrow_6.309500e+00(Hz) float
  -7.375746e-02   3.033289e-02   0.000000e+00
  -6.994121e-02  -3.466421e-02   0.000000e+00
   0.000000e+00   0.000000e+00   0.000000e+00
  -4.044211e-02  -5.216690e-02   0.000000e+00
  -7.824556e-02   2.752754e-02   0.000000e+00
   1.127095e-02  -6.146659e-02   0.000000e+00
   1.240081e-02  -2.279342e-02   0.000000e+00
  -9.325196e-02  -6.489832e-02   0.000000e+00
  -1.075107e-01  -1.096588e-02   0.000000e+00
  -8.981868e-02  -1.844353e-02   0.000000e+00
  -5.872609e-02   3.359884e-02   0.000000e+00
  -1.383981e-01  -9.826990e-02   0.000000e+00
   0.000000e+00   0.000000e+00   0.000000e+00
  -1.604294e-02  -9.823895e-02   0.000000e+00
  -9.854350e-02  -3.832167e-03   0.000000e+00
   0.000000e+00   0.000000e+00   0.000000e+00
   7.682330e-02   5.767321e-02   0.000000e+00
   0.000000e+00   0.000000e+00   0.000000e+00
  -1.465120e-01   2.041859e-02   0.000000e+00
  -1.140443e-01  -3.224005e-03   0.000000e+00
   0.000000e+00   0.000000e+00   0.000000e+00
  -7.808714e-02  -1.198844e-02   0.000000e+00
  -5.932229e-02   1.738976e-02   0.000000e+00
  -8.765684e-02  -2.359592e-03   0.000000e+00
   0.000000e+00   0.000000e+00   0.000000e+00
  -8.716778e-02  -4.174912e-02   0.000000e+00
  -1.679890e-02  -1.000204e-01   0.000000e+00
  -8.222675e-03  -1.041731e-01   0.000000e+00
  -6.620987e-02  -5.253521e-02   0.000000e+00
  -8.395296e-02  -6.167178e-03   0.000000e+00
   0.000000e+00   0.000000e+00   0.000000e+00
  -4.924355e-02  -4.947917e-02   0.000000e+00
  -9.726200e-03  -5.965813e-02   0.000000e+00
  -1.326663e-01  -1.625034e-01   0.000000e+00
  -7.559925e-02   1.740983e-02   0.000000e+00
  -3.554040e-02   1.951421e-02   0.000000e+00
   0.000000e+00   0.000000e+00   0.000000e+00
  -8.389672e-02  -3.684405e-02   0.000000e+00
   2.235714e-03  -4.093776e-02   0.000000e+00
  -9.536615e-02   8.791830e-02   0.000000e+00
  -6.106715e-02   6.266666e-02   0.000000e+00
  -8.874699e-02  -5.910877e-04   0.000000e+00
   3.321421e-02  -3.521311e-02   0.000000e+00
  -6.658617e-02  -1.699319e-02   0.000000e+00
  -1.663886e-03  -1.583610e-01   0.000000e+00
  -1.116416e-02  -8.896146e-02   0.000000e+00
VECTORS Real_Arrow_1.000000e+01(Hz) float
  -6.774850e-02  -9.585541e-02   0.000000e+00
  -1.038750e-01   9.491776e-02   0.000000e+00
   0.000000e+00   0.000000e+00   0.000000e+00
   1.029755e-02  -4.602113e-01   0.000000e+00
  -1.116092e-01  -1.025130e-01   0.000000e+00
  -5.770411e-02  -7.870800e-03   0.000000e+00
   7.696894e-02  -1.355184e-01   0.000000e+00
  -9.897060e-02   1.091931e-01   0.000000e+00
   2.549449e-01  -1.677412e-01   0.000000e+00
  -1.226415e-01  -6.663452e-02   0.000000e+00
  -1.559380e-01   6.896030e-02   0.000000e+00
  -1.411631e-01   6.477018e-02   0.000000e+00
   0.000000e+00   0.000000e+00   0.000000e+00
  -3.004813e-01  -2.852546e-02   0.000000e+00
   0.000000e+00   0.000000e+00   0.000000e+00
  -9.071984e-02   2.750006e-02   0.000000e+00
  -8.172982e-02  -9.897998e-02   0.000000e+00
   3.227599e-02   5.155823e-02   0.000000e+00
   7.059601e-02  -4.573055e-02   0.000000e+00
   1.455344e-02   2.706498e-02   0.000000e+00
   0.000000e+00   0.000000e+00   0.000000e+00
  -1.603826e-01  -5.748994e-02   0.000000e+00
  -7.253295e-02   5.864980e-02   0.000000e+00
  -1.163756e-01  -1.167796e-01   0.000000e+00
   0.000000e+00   0.000000e+00   0.000000e+00
  -8.872784e-02   3.841426e-02   0.000000e+00
  -1.147095e-01  -1.040604e-01   0.000000e+00
  -6.871593e-02  -3.060959e-02   0.000000e+00
  -3.495768e-02   1.286497e-02   0.000000e+00
   0.000000e+00   0.000000e+00   0.000000e+00
   0.000000e+00   0.000000e+00   0.000000e+00
  -2.247351e-01  -2.341823e-03   0.000000e+00
   1.596041e-01   8.899720e-02   0.000000e+00
   2.123415e-01   1.606214e-01   0.000000e+00
   2.427023e-02  -1.090657e-01   0.000000e+00
  -2.999336e-01  -1.829857e-01   0.000000e+00
   0.000000e+00   0.000000e+00   0.000000e+00
  -7.926611e-02   5.515099e-02   0.000000e+00
  -2.011096e-01  -4.022038e-01   0.000000e+00
  -4.670696e-02   2.850599e-01   0.000000e+00
  -5.698644e-02  -3.263768e-02   0.000000e+00
  -6.880573e-02   1.436046e-02   0.000000e+00
  -1.890573e-02   5.315270e-02   0.000000e+00
  -1.914549e-01  -6.296182e-02   0.000000e+00
  -1.445504e-01   6.011189e-02   0.000000e+00
   9.067337e-02  -1.152551e-01   0.000000e+00
VECTORS Imag_Arrow_1.000000e+01(Hz) float
  -7.178043e-02   3.629436e-02   0.000000e+00
  -6.095078e-02  -2.769531e-02   0.000000e+00
   0.000000e+00   0.000000e+00   0.000000e+00
  -4.458402e-02  -1.002107e-01   0.000000e+00
  -9.068177e-02   3.523755e-02   0.000000e+00
  -7.787855e-03  -5.437312e-02   0.000000e+00
   8.200982e-03  -3.063225e-02   0.000000e+00
  -9.991335e-02  -3.563638e-02   0.000000e+00
  -7.276122e-02  -4.044754e-03   0.000000e+00
  -1.206795e-01  -1.671481e-02   0.000000e+00
  -5.498395e-02   5.126078e-02   0.000000e+00
  -1.261247e-01  -5.151871e-02   0.000000e+00
   0.000000e+00   0.000000e+00   0.000000e+00
  -7.736519e-02  -1.105833e-01   0.000000e+00
   0.000000e+00   0.000000e+00   0.000000e+00
  -1.208525e-01  -4.007838e-02   0.000000e+00
   7.314221e-02   8.270273e-02   0.000000e+00
  -4.867774e-02   2.913486e-02   0.000000e+00
  -1.752816e-01   4.536794e-02   0.000000e+00
  -1.190531e-01   8.623246e-03   0.000000e+00
   0.000000e+00   0.000000e+00   0.000000e+00
  -1.011061e-01  -9.085663e-04   0.000000e+00
  -4.123948e-02   2.824024e-02   0.000000e+00
  -1.131232e-01  -1.481484e-03   0.000000e+00
   0.000000e+00   0.000000e+00   0.000000e+00
  -1.005341e-01  -1.427730e-02   0.000000e+00
  -4.644492e-02  -1.230822e-01   0.000000e+00
  -2.906287e-02  -1.157679e-01   0.000000e+00
  -6.973138e-02  -3.975938e-02   0.000000e+00
   0.000000e+00   0.000000e+00   0.000000e+00
   0.000000e+00   0.000000e+00   0.000000e+00
  -8.770829e-02  -4.361360e-02   0.000000e+00
   3.435065e-02  -3.151047e-02   0.000000e+00
  -1.063702e-01  -1.488973e-01   0.000000e+00
  -7.212292e-02   3.338223e-02   0.000000e+00
  -1.020895e-01   1.346131e-02   0.000000e+00
   0.000000e+00   0.000000e+00   0.000000e+00
  -1.067600e-01  -2.972402e-02   0.000000e+00
  -2.182032e-02  -9.891321e-02   0.000000e+00
  -1.132910e-01   1.559265e-01   0.000000e+00
  -4.691792e-02   8.059388e-02   0.000000e+00
  -9.036160e-02   1.290197e-02   0.000000e+00
   6.038366e-02  -4.937486e-03   0.000000e+00
  -1.104554e-01  -1.300960e-02   0.000000e+00
  -3.124070e-02  -1.794501e-01   0.000000e+00
  -7.602719e-03  -1.108131e-01   0.000000e+00
VECTORS Real_Arrow_1.584800e+01(Hz) float
  -3.565974e-02  -1.182791e-01   0.000000e+00
  -7.566545e-02   9.350280e-02   0.000000e+00
   0.000000e+00   0.000000e+00   0.000000e+00
   3.034192e-02  -4.116958e-01   0.000000e+00
  -7.099398e-02  -1.239665e-01   0.000000e+00
  -4.989112e-02   1.206776e-02   0.000000e+00
   7.884861e-02  -1.277578e-01   0.000000e+00
  -5.180475e-02   1.138987e-01   0.000000e+00
   2.792642e-01  -1.692475e-01   0.000000e+00
  -6.673204e-02  -6.496378e-02   0.000000e+00
  -1.435847e-01   4.159766e-02   0.000000e+00
   0.000000e+00   0.000000e+00   0.000000e+00
   0.000000e+00   0.000000e+00   0.000000e+00
  -2.614567e-01   1.806127e-02   0.000000e+00
   0.000000e+00   0.000000e+00   0.000000e+00
  -3.922361e-02   4.155885e-02   0.000000e+00
  -1.059912e-01  -1.365286e-01   0.000000e+00
   4.258872e-02   2.776371e-02   0.000000e+00
   1.490556e-01  -7.072087e-02   0.000000e+00
   6.633177e-02   1.448857e-02   0.000000e+00
  -1.213149e-01   1.870892e-02   0.000000e+00
  -1.140537e-01  -6.387893e-02   0.000000e+00
  -6.546214e-02   3.472012e-02   0.000000e+00
  -6.306165e-02  -1.154479e-01   0.000000e+00
   0.000000e+00   0.000000e+00   0.000000e+00
  -4.048305e-02   3.813831e-02   0.000000e+00
  -9.212886e-02  -5.239650e-02   0.000000e+00
  -5.250885e-02   1.564758e-02   0.000000e+00
  -7.140458e-03   2.447674e-02   0.000000e+00
   0.000000e+00   0.000000e+00   0.000000e+00
   0.000000e+00   0.000000e+00   0.000000e+00
  -1.796611e-01   1.543736e-02   0.000000e+00
   1.234283e-01   8.756256e-02   0.000000e+00
   2.579240e-01   2.229898e-01   0.000000e+00
   5.270277e-02  -1.323594e-01   0.000000e+00
  -2.486726e-01  -1.867302e-01   0.000000e+00
   0.000000e+00   0.000000e+00   0.000000e+00
  -2.010473e-02   6.486236e-02   0.000000e+00
  -1.869412e-01  -3.560543e-01   0.000000e+00
   5.278850e-03   2.078875e-01   0.000000e+00
  -4.485409e-02  -6.999834e-02   0.000000e+00
  -2.974260e-02   6.043885e-04   0.000000e+00
  -5.128383e-02   4.778697e-02   0.000000e+00
  -1.380281e-01  -6.345189e-02   0.000000e+00
  -1.269482e-01   1.318814e-01   0.000000e+00
   9.975954e-02  -6.885315e-02   0.000000e+00
VECTORS Imag_Arrow_1.584800e+01(Hz) float
  -4.999155e-02   2.780960e-02   0.000000e+00
  -3.023075e-02  -3.762556e-02   0.000000e+00
   0.000000e+00   0.000000e+00   0.000000e+00
  -4.245730e-02  -1.379634e-01   0.000000e+00
  -8.609052e-02   2.913603e-02   0.000000e+00
  -2.779241e-02  -4.218364e-02   0.000000e+00
   6.194679e-03  -4.272119e-02   0.000000e+00
  -7.873155e-02  -7.527224e-04   0.000000e+00
  -2.017915e-02   5.902145e-03   0.000000e+00
  -1.384628e-01  -2.275557e-02   0.000000e+00
  -5.630959e-02   4.917213e-02   0.000000e+00
   0.000000e+00   0.000000e+00   0.000000e+00
   0.000000e+00   0.000000e+00   0.000000e+00
  -1.396469e-01  -1.130407e-01   0.000000e+00
   0.000000e+00   0.000000e+00   0.000000e+00
  -1.404353e-01  -2.068058e-02   0.000000e+00
   6.187028e-02   9.874468e-02   0.000000e+00
  -2.086126e-02   1.242003e-02   0.000000e+00
  -1.801839e-01   6.453971e-02   0.000000e+00
  -1.046178e-01   5.193485e-03   0.000000e+00
  -1.488169e-02  -3.169612e-02   0.000000e+00
  -1.081401e-01   5.882135e-03   0.000000e+00
  -2.224768e-02   1.355704e-02   0.000000e+00
  -1.118706e-01   2.327515e-03   0.000000e+00
   0.000000e+00   0.000000e+00   0.000000e+00
  -9.130113e-02   1.911019e-02   0.000000e+00
  -7.500470e-02  -1.360440e-01   0.000000e+00
  -4.828964e-02  -1.173040e-01   0.000000e+00
  -5.863554e-02  -1.793844e-02   0.000000e+00
   0.000000e+00   0.000000e+00   0.000000e+00
   0.000000e+00   0.000000e+00   0.000000e+00
  -1.103775e-01  -2.287705e-02   0.000000e+00
   4.858936e-02  -1.664523e-02   0.000000e+00
  -4.794458e-02  -1.065797e-01   0.000000e+00
  -5.357146e-02   4.344647e-02   0.000000e+00
  -1.668900e-01   1.316069e-02   0.000000e+00
   0.000000e+00   0.000000e+00   0.000000e+00
  -1.020984e-01  -2.185378e-02   0.000000e+00
  -4.260796e-02  -1.588245e-01   0.000000e+00
  -1.065110e-01   1.869232e-01   0.000000e+00
  -2.902206e-02   7.697744e-02   0.000000e+00
  -7.238069e-02   1.213217e-02   0.000000e+00
   7.264516e-02   2.921081e-02   0.000000e+00
  -1.429811e-01  -1.678591e-02   0.000000e+00
  -6.064841e-02  -1.868438e-01   0.000000e+00
   7.895837e-03  -1.210669e-01   0.000000e+00
