# vtk DataFile Version 2.0
Induction_Arrow_Iter3_PE5
ASCII
DATASET UNSTRUCTURED_GRID
POINTS 46 float
  -2.052000e+03    1.667000e+03   -4.526633e+02
  -1.265000e+03    2.333000e+03   -4.555885e+02
  -9.840000e+02    2.568000e+03   -4.612271e+02
   1.700000e+03   -1.757000e+03   -5.237752e+02
  -1.152000e+03    1.382000e+03   -4.549280e+02
   3.187000e+03    1.067000e+03   -8.370176e+02
   4.716000e+03    9.370000e+02   -8.015281e+02
  -1.855000e+03    5.260000e+02   -5.147377e+02
  -1.420000e+02   -1.905000e+03   -4.746368e+02
  -5.800000e+01    1.069000e+03   -4.555494e+02
  -2.802000e+03    3.302000e+03   -4.314337e+02
  -5.640000e+03   -1.532000e+03   -4.911771e+02
  -8.030000e+02   -5.610000e+02   -5.280929e+02
   1.008000e+03    4.130000e+02   -5.983358e+02
   1.960000e+02    2.246000e+03   -5.219413e+02
  -3.457000e+03    8.320000e+02   -4.470735e+02
   5.640000e+03    2.452000e+03   -7.393049e+02
  -1.334000e+03    3.332000e+03   -4.456136e+02
   1.244000e+03    1.880000e+03   -6.331107e+02
  -2.680000e+02    2.144000e+03   -4.891390e+02
  -4.063000e+03    6.620000e+02   -4.746103e+02
  -1.258000e+03    6.330000e+02   -4.856841e+02
  -2.141000e+03    3.194000e+03   -4.348461e+02
  -3.469000e+03   -3.059000e+03   -6.067613e+02
  -1.604000e+03   -2.570000e+02   -5.141257e+02
  -1.454000e+03    2.220000e+02   -5.386025e+02
   1.864000e+03    1.270000e+02   -7.404291e+02
   2.449000e+03    5.590000e+02   -7.805292e+02
  -1.834000e+03   -1.554000e+03   -6.273074e+02
   1.807000e+03    2.297000e+03   -6.825557e+02
  -2.560000e+03   -1.783000e+03   -6.131337e+02
  -2.741000e+03   -5.010000e+02   -5.080000e+02
   2.884000e+03   -2.179000e+03   -5.274708e+02
  -6.120000e+02   -8.960000e+02   -5.895389e+02
  -1.985000e+03   -2.653000e+03   -5.598834e+02
  -3.390000e+03   -4.000000e+02   -4.982361e+02
   1.586000e+03    1.342000e+03   -6.618442e+02
   1.047000e+03    2.401000e+03   -5.426792e+02
   8.380000e+02   -1.300000e+03   -4.783644e+02
   2.569000e+03    2.441000e+03   -6.035668e+02
  -2.028000e+03    2.833000e+03   -4.322286e+02
  -1.086000e+03    1.998000e+03   -4.563301e+02
   1.514000e+03   -3.332000e+03   -5.646205e+02
   7.040000e+02    1.116000e+03   -5.365099e+02
   1.990000e+03    6.360000e+02   -7.085272e+02
   3.722000e+03   -1.700000e+02   -6.745213e+02
CELLS 46 92
1 0
1 1
1 2
1 3
1 4
1 5
1 6
1 7
1 8
1 9
1 10
1 11
1 12
1 13
1 14
1 15
1 16
1 17
1 18
1 19
1 20
1 21
1 22
1 23
1 24
1 25
1 26
1 27
1 28
1 29
1 30
1 31
1 32
1 33
1 34
1 35
1 36
1 37
1 38
1 39
1 40
1 41
1 42
1 43
1 44
1 45
CELL_TYPES 46
1
1
1
1
1
1
1
1
1
1
1
1
1
1
1
1
1
1
1
1
1
1
1
1
1
1
1
1
1
1
1
1
1
1
1
1
1
1
1
1
1
1
1
1
1
1
POINT_DATA 46
VECTORS Real_Arrow_2.511800e+01(Hz) float
  -2.318117e-02  -1.306409e-01   0.000000e+00
  -7.490196e-02   1.061319e-01   0.000000e+00
   0.000000e+00   0.000000e+00   0.000000e+00
   4.464589e-02  -3.492827e-01   0.000000e+00
  -4.197986e-02  -1.384480e-01   0.000000e+00
  -3.076172e-02   2.442850e-02   0.000000e+00
   8.028401e-02  -1.147843e-01   0.000000e+00
  -3.028963e-02   9.716755e-02   0.000000e+00
   2.798818e-01  -1.796431e-01   0.000000e+00
  -4.899454e-04  -5.574974e-02   0.000000e+00
  -1.248754e-01   2.309102e-02   0.000000e+00
  -7.733414e-02   4.456245e-02   0.000000e+00
   0.000000e+00   0.000000e+00   0.000000e+00
  -1.898711e-01   6.412671e-02   0.000000e+00
   6.042564e-02   1.869198e-02   0.000000e+00
   2.030217e-02   4.318718e-02   0.000000e+00
  -1.217424e-01  -1.789209e-01   0.000000e+00
   4.077275e-02   2.767564e-02   0.000000e+00
   2.251885e-01  -1.082161e-01   0.000000e+00
   1.043538e-01   1.191182e-02   0.000000e+00
  -1.200317e-01   1.880339e-02   0.000000e+00
  -6.985071e-02  -7.149865e-02   0.000000e+00
  -6.665129e-02   2.835478e-02   0.000000e+00
  -2.907163e-02  -1.163157e-01   0.000000e+00
   0.000000e+00   0.000000e+00   0.000000e+00
  -7.349548e-03   1.838052e-02   0.000000e+00
  -5.450882e-02   4.472830e-03   0.000000e+00
  -2.610290e-02   5.967711e-02   0.000000e+00
   5.091186e-03   2.161479e-02   0.000000e+00
   0.000000e+00   0.000000e+00   0.000000e+00
  -2.576777e-03  -3.178061e-03   0.000000e+00
  -1.308575e-01   1.207774e-02   0.000000e+00
   9.717976e-02   8.976332e-02   0.000000e+00
   2.573309e-01   2.615143e-01   0.000000e+00
   6.609909e-02  -1.623489e-01   0.000000e+00
  -1.632973e-01  -2.007637e-01   0.000000e+00
   0.000000e+00   0.000000e+00   0.000000e+00
   3.026626e-02   6.947851e-02   0.000000e+00
  -1.681916e-01  -2.761577e-01   0.000000e+00
   4.448120e-02   1.347985e-01   0.000000e+00
  -4.135255e-02  -9.293440e-02   0.000000e+00
  -9.208912e-03  -5.334647e-03   0.000000e+00
  -8.441052e-02   2.034309e-02   0.000000e+00
  -7.165454e-02  -5.465551e-02   0.000000e+00
  -9.448011e-02   2.046698e-01   0.000000e+00
   9.473949e-02  -2.314938e-02   0.000000e+00
VECTORS Imag_Arrow_2.511800e+01(Hz) float
  -1.752754e-02   5.499055e-03   0.000000e+00
   1.222872e-02  -5.760483e-02   0.000000e+00
   0.000000e+00   0.000000e+00   0.000000e+00
  -3.231707e-02  -1.612975e-01   0.000000e+00
  -6.656048e-02   1.167379e-02   0.000000e+00
  -4.362544e-02  -2.268382e-02   0.000000e+00
   9.602766e-03  -5.821202e-02   0.000000e+00
  -4.055529e-02   2.262595e-02   0.000000e+00
   3.350167e-02   7.938231e-03   0.000000e+00
  -1.351547e-01  -3.070669e-02   0.000000e+00
  -6.765248e-02   3.899828e-02   0.000000e+00
  -6.949370e-02   1.104840e-02   0.000000e+00
   0.000000e+00   0.000000e+00   0.000000e+00
  -1.866714e-01  -9.812948e-02   0.000000e+00
  -6.886686e-02  -3.396532e-03   0.000000e+00
  -1.472290e-01  -4.120494e-03   0.000000e+00
   4.943276e-02   1.041026e-01   0.000000e+00
  -8.807028e-06  -1.578067e-02   0.000000e+00
  -1.567754e-01   7.244075e-02   0.000000e+00
  -7.066188e-02  -7.658556e-03   0.000000e+00
  -1.371557e-02  -2.595886e-02   0.000000e+00
  -9.965751e-02   4.918209e-03   0.000000e+00
  -1.269312e-02  -1.436245e-02   0.000000e+00
  -9.643190e-02   9.036469e-03   0.000000e+00
   0.000000e+00   0.000000e+00   0.000000e+00
  -6.451339e-02   4.658243e-02   0.000000e+00
  -9.614697e-02  -1.320158e-01   0.000000e+00
  -6.112057e-02  -1.040129e-01   0.000000e+00
  -4.478886e-02   1.352375e-03   0.000000e+00
   0.000000e+00   0.000000e+00   0.000000e+00
  -6.094107e-02   1.826588e-02   0.000000e+00
  -1.102365e-01   2.001556e-03   0.000000e+00
   3.986265e-02  -7.366420e-03   0.000000e+00
   2.761910e-02  -4.093116e-02   0.000000e+00
  -3.262019e-02   3.392901e-02   0.000000e+00
  -2.114752e-01   8.538236e-03   0.000000e+00
   0.000000e+00   0.000000e+00   0.000000e+00
  -6.524691e-02  -8.601855e-03   0.000000e+00
  -5.588402e-02  -2.022377e-01   0.000000e+00
  -8.288383e-02   1.998694e-01   0.000000e+00
  -1.498248e-02   6.293376e-02   0.000000e+00
  -4.080673e-02   2.373797e-03   0.000000e+00
   7.230055e-02   5.515772e-02   0.000000e+00
  -1.532913e-01  -2.250746e-02   0.000000e+00
  -8.337259e-02  -1.722542e-01   0.000000e+00
   3.154071e-02  -1.193664e-01   0.000000e+00
VECTORS Real_Arrow_3.981000e+01(Hz) float
  -3.493942e-02  -1.287958e-01   0.000000e+00
  -1.029837e-01   1.376553e-01   0.000000e+00
  -4.473433e-02   9.754916e-02   0.000000e+00
   5.105299e-02  -2.861416e-01   0.000000e+00
  -3.010884e-02  -1.420794e-01   0.000000e+00
  -7.682791e-03   2.682964e-02   0.000000e+00
   7.835648e-02  -9.255501e-02   0.000000e+00
   0.000000e+00   0.000000e+00   0.000000e+00
   2.463109e-01  -1.954525e-01   0.000000e+00
   5.558173e-02  -4.362402e-02   0.000000e+00
  -9.520647e-02   1.372142e-02   0.000000e+00
  -6.283023e-02   2.984627e-02   0.000000e+00
   0.000000e+00   0.000000e+00   0.000000e+00
  -1.050712e-01   1.000471e-01   0.000000e+00
   7.639180e-02   2.290010e-02   0.000000e+00
   8.207761e-02   3.971963e-02   0.000000e+00
  -1.331733e-01  -2.207984e-01   0.000000e+00
   3.259682e-02   4.336538e-02   0.000000e+00
   0.000000e+00   0.000000e+00   0.000000e+00
   1.179770e-01   1.988030e-02   0.000000e+00
  -1.145708e-01   2.434530e-02   0.000000e+00
  -3.275862e-02  -7.652340e-02   0.000000e+00
  -6.569362e-02   4.399667e-02   0.000000e+00
  -3.606734e-03  -1.217681e-01   0.000000e+00
   0.000000e+00   0.000000e+00   0.000000e+00
   6.609937e-03  -1.569689e-02   0.000000e+00
  -1.267661e-02   5.176495e-02   0.000000e+00
   3.012722e-03   9.248035e-02   0.000000e+00
   0.000000e+00   0.000000e+00   0.000000e+00
   1.193752e-01  -1.174692e-01   0.000000e+00
   1.573989e-02  -1.782118e-02   0.000000e+00
  -9.120775e-02   1.787169e-04   0.000000e+00
   0.000000e+00   0.000000e+00   0.000000e+00
   2.227198e-01   2.610201e-01   0.000000e+00
   7.223564e-02  -1.822915e-01   0.000000e+00
  -6.521076e-02  -2.040334e-01   0.000000e+00
   0.000000e+00   0.000000e+00   0.000000e+00
   4.326477e-02   7.155815e-02   0.000000e+00
  -1.465689e-01  -1.818326e-01   0.000000e+00
   6.121870e-02   5.743128e-02   0.000000e+00
  -4.153061e-02  -1.054156e-01   0.000000e+00
  -1.279889e-02  -4.861904e-04   0.000000e+00
  -1.142263e-01  -1.150363e-02   0.000000e+00
  -9.971074e-03  -4.724792e-02   0.000000e+00
  -5.645904e-02   2.654129e-01   0.000000e+00
   7.643348e-02   1.711702e-02   0.000000e+00
VECTORS Imag_Arrow_3.981000e+01(Hz) float
   5.265078e-03  -2.037983e-02   0.000000e+00
   3.853329e-02  -6.949507e-02   0.000000e+00
   3.127437e-02  -4.380685e-02   0.000000e+00
  -1.935198e-02  -1.642213e-01   0.000000e+00
  -4.966672e-02  -1.100062e-02   0.000000e+00
  -4.812936e-02  -2.457096e-03   0.000000e+00
   1.833219e-02  -7.358071e-02   0.000000e+00
   0.000000e+00   0.000000e+00   0.000000e+00
   7.973659e-02   2.699261e-03   0.000000e+00
  -1.063414e-01  -3.486353e-02   0.000000e+00
  -6.910116e-02   3.088608e-02   0.000000e+00
  -4.682037e-02   1.781761e-02   0.000000e+00
   0.000000e+00   0.000000e+00   0.000000e+00
  -2.081860e-01  -6.759460e-02   0.000000e+00
  -3.019219e-02  -1.178208e-02   0.000000e+00
  -1.303481e-01   1.269661e-02   0.000000e+00
   3.931727e-02   9.394238e-02   0.000000e+00
   1.322019e-02  -3.549795e-02   0.000000e+00
   0.000000e+00   0.000000e+00   0.000000e+00
  -3.105950e-02  -1.566521e-02   0.000000e+00
  -1.781152e-02  -2.454348e-02   0.000000e+00
  -8.283902e-02  -4.452200e-03   0.000000e+00
  -8.147224e-03  -3.843856e-02   0.000000e+00
  -8.230534e-02   1.083227e-02   0.000000e+00
   0.000000e+00   0.000000e+00   0.000000e+00
  -3.189939e-02   6.094342e-02   0.000000e+00
  -1.038174e-01  -1.132627e-01   0.000000e+00
  -6.170403e-02  -8.236706e-02   0.000000e+00
   0.000000e+00   0.000000e+00   0.000000e+00
  -3.419945e-02   3.337947e-02   0.000000e+00
  -5.091100e-02   2.351117e-02   0.000000e+00
  -1.071742e-01   1.461729e-02   0.000000e+00
   0.000000e+00   0.000000e+00   0.000000e+00
   8.798999e-02   2.933290e-02   0.000000e+00
  -1.220241e-02   6.198339e-03   0.000000e+00
  -2.195994e-01  -3.241334e-03   0.000000e+00
   0.000000e+00   0.000000e+00   0.000000e+00
  -1.391728e-02   7.700041e-04   0.000000e+00
  -6.439515e-02  -2.101779e-01   0.000000e+00
  -5.819740e-02   2.027209e-01   0.000000e+00
  -6.445601e-03   5.607698e-02   0.000000e+00
  -1.786909e-02  -4.271680e-03   0.000000e+00
   6.255030e-02   6.363854e-02   0.000000e+00
  -1.433983e-01  -2.596312e-02   0.000000e+00
  -9.234938e-02  -1.398217e-01   0.000000e+00
   5.180173e-02  -1.081961e-01   0.000000e+00
VECTORS Real_Arrow_6.309500e+01(Hz) float
  -5.143051e-02  -1.121495e-01   0.000000e+00
  -1.378385e-01   1.752507e-01   0.000000e+00
  -6.994635e-02   1.224625e-01   0.000000e+00
   4.913164e-02  -2.295369e-01   0.000000e+00
  -2.434261e-02  -1.330069e-01   0.000000e+00
   1.367297e-02   1.938650e-02   0.000000e+00
   6.987350e-02  -6.130284e-02   0.000000e+00
   0.000000e+00   0.000000e+00   0.000000e+00
   0.000000e+00   0.000000e+00   0.000000e+00
   8.850608e-02  -3.072263e-02   0.000000e+00
  -6.894890e-02   9.165239e-03   0.000000e+00
  -5.696474e-02   1.663092e-02   0.000000e+00
   0.000000e+00   0.000000e+00   0.000000e+00
  -2.110062e-02   1.151351e-01   0.000000e+00
   7.027993e-02   3.288866e-02   0.000000e+00
   1.256539e-01   2.910726e-02   0.000000e+00
  -1.422268e-01  -2.545131e-01   0.000000e+00
   2.488021e-02   6.319658e-02   0.000000e+00
   0.000000e+00   0.000000e+00   0.000000e+00
   1.101223e-01   3.083106e-02   0.000000e+00
  -1.069059e-01   3.243855e-02   0.000000e+00
  -3.524074e-03  -6.988034e-02   0.000000e+00
  -6.200979e-02   7.020984e-02   0.000000e+00
   0.000000e+00   0.000000e+00   0.000000e+00
   0.000000e+00   0.000000e+00   0.000000e+00
   3.608799e-03  -5.259536e-02   0.000000e+00
   2.628268e-02   8.561389e-02   0.000000e+00
   2.789745e-02   1.124650e-01   0.000000e+00
   0.000000e+00   0.000000e+00   0.000000e+00
   1.165994e-01  -1.322565e-01   0.000000e+00
   3.143123e-02  -2.806643e-02   0.000000e+00
  -5.505546e-02  -1.461345e-02   0.000000e+00
   7.961972e-02   8.348537e-02   0.000000e+00
   1.661777e-01   2.289015e-01   0.000000e+00
   0.000000e+00   0.000000e+00   0.000000e+00
   2.371814e-02  -2.014112e-01   0.000000e+00
   4.281375e-02   3.145538e-01   0.000000e+00
   0.000000e+00   0.000000e+00   0.000000e+00
  -1.257026e-01  -9.937636e-02   0.000000e+00
   6.605931e-02  -1.956035e-02   0.000000e+00
  -4.016135e-02  -1.191952e-01   0.000000e+00
  -2.268491e-02   7.763323e-03   0.000000e+00
  -1.388782e-01  -4.043932e-02   0.000000e+00
   3.783900e-02  -4.062783e-02   0.000000e+00
  -2.116298e-02   3.072241e-01   0.000000e+00
   4.729369e-02   5.089203e-02   0.000000e+00
VECTORS Imag_Arrow_6.309500e+01(Hz) float
   7.702036e-03  -4.119964e-02   0.000000e+00
   3.491688e-02  -6.145127e-02   0.000000e+00
   3.328584e-02  -3.205665e-02   0.000000e+00
  -1.245514e-02  -1.546073e-01   0.000000e+00
  -4.488905e-02  -3.406418e-02   0.000000e+00
  -4.279368e-02   1.318161e-02   0.000000e+00
   2.713622e-02  -8.430266e-02   0.000000e+00
   0.000000e+00   0.000000e+00   0.000000e+00
   0.000000e+00   0.000000e+00   0.000000e+00
  -6.036486e-02  -3.656115e-02   0.000000e+00
  -5.831360e-02   2.552472e-02   0.000000e+00
  -2.724559e-02   1.678376e-02   0.000000e+00
   0.000000e+00   0.000000e+00   0.000000e+00
  -2.022530e-01  -3.002358e-02   0.000000e+00
   3.673849e-04  -1.434760e-02   0.000000e+00
  -9.406429e-02   2.680318e-02   0.000000e+00
   3.152636e-02   7.277421e-02   0.000000e+00
   2.260183e-02  -4.409037e-02   0.000000e+00
   0.000000e+00   0.000000e+00   0.000000e+00
  -1.569107e-03  -1.517344e-02   0.000000e+00
  -1.934569e-02  -2.239508e-02   0.000000e+00
  -5.593589e-02  -1.606945e-02   0.000000e+00
  -2.435793e-03  -4.866075e-02   0.000000e+00
   0.000000e+00   0.000000e+00   0.000000e+00
   0.000000e+00   0.000000e+00   0.000000e+00
  -7.198325e-03   5.239655e-02   0.000000e+00
  -9.919104e-02  -8.839196e-02   0.000000e+00
  -5.126610e-02  -6.033106e-02   0.000000e+00
   0.000000e+00   0.000000e+00   0.000000e+00
   1.386853e-04   1.306364e-02   0.000000e+00
  -3.899440e-02   2.227254e-02   0.000000e+00
  -1.001257e-01   1.540379e-02   0.000000e+00
   1.744973e-02   8.948295e-03   0.000000e+00
   1.218152e-01   8.896220e-02   0.000000e+00
   0.000000e+00   0.000000e+00   0.000000e+00
  -1.929659e-01  -1.598306e-02   0.000000e+00
  -7.177265e-02   4.363231e-02   0.000000e+00
   0.000000e+00   0.000000e+00   0.000000e+00
  -7.153207e-02  -1.833976e-01   0.000000e+00
  -4.518454e-02   1.874196e-01   0.000000e+00
   8.296628e-04   5.742701e-02   0.000000e+00
  -1.585500e-02  -2.356894e-03   0.000000e+00
   4.375941e-02   5.981193e-02   0.000000e+00
  -1.193909e-01  -2.899072e-02   0.000000e+00
  -8.929696e-02  -9.819071e-02   0.000000e+00
   6.181519e-02  -9.343832e-02   0.000000e+00
