# vtk DataFile Version 2.0
Induction_Arrow_Iter5_PE3
ASCII
DATASET UNSTRUCTURED_GRID
POINTS 46 float
  -2.052000e+03    1.667000e+03   -4.526633e+02
  -1.265000e+03    2.333000e+03   -4.555885e+02
  -9.840000e+02    2.568000e+03   -4.612271e+02
   1.700000e+03   -1.757000e+03   -5.237752e+02
  -1.152000e+03    1.382000e+03   -4.549280e+02
   3.187000e+03    1.067000e+03   -8.370176e+02
   4.716000e+03    9.370000e+02   -8.015281e+02
  -1.855000e+03    5.260000e+02   -5.147377e+02
  -1.420000e+02   -1.905000e+03   -4.746368e+02
  -5.800000e+01    1.069000e+03   -4.555494e+02
  -2.802000e+03    3.302000e+03   -4.314337e+02
  -5.640000e+03   -1.532000e+03   -4.911771e+02
  -8.030000e+02   -5.610000e+02   -5.280929e+02
   1.008000e+03    4.130000e+02   -5.983358e+02
   1.960000e+02    2.246000e+03   -5.219413e+02
  -3.457000e+03    8.320000e+02   -4.470735e+02
   5.640000e+03    2.452000e+03   -7.393049e+02
  -1.334000e+03    3.332000e+03   -4.456136e+02
   1.244000e+03    1.880000e+03   -6.331107e+02
  -2.680000e+02    2.144000e+03   -4.891390e+02
  -4.063000e+03    6.620000e+02   -4.746103e+02
  -1.258000e+03    6.330000e+02   -4.856841e+02
  -2.141000e+03    3.194000e+03   -4.348461e+02
  -3.469000e+03   -3.059000e+03   -6.067613e+02
  -1.604000e+03   -2.570000e+02   -5.141257e+02
  -1.454000e+03    2.220000e+02   -5.386025e+02
   1.864000e+03    1.270000e+02   -7.404291e+02
   2.449000e+03    5.590000e+02   -7.805292e+02
  -1.834000e+03   -1.554000e+03   -6.273074e+02
   1.807000e+03    2.297000e+03   -6.825557e+02
  -2.560000e+03   -1.783000e+03   -6.131337e+02
  -2.741000e+03   -5.010000e+02   -5.080000e+02
   2.884000e+03   -2.179000e+03   -5.274708e+02
  -6.120000e+02   -8.960000e+02   -5.895389e+02
  -1.985000e+03   -2.653000e+03   -5.598834e+02
  -3.390000e+03   -4.000000e+02   -4.982361e+02
   1.586000e+03    1.342000e+03   -6.618442e+02
   1.047000e+03    2.401000e+03   -5.426792e+02
   8.380000e+02   -1.300000e+03   -4.783644e+02
   2.569000e+03    2.441000e+03   -6.035668e+02
  -2.028000e+03    2.833000e+03   -4.322286e+02
  -1.086000e+03    1.998000e+03   -4.563301e+02
   1.514000e+03   -3.332000e+03   -5.646205e+02
   7.040000e+02    1.116000e+03   -5.365099e+02
   1.990000e+03    6.360000e+02   -7.085272e+02
   3.722000e+03   -1.700000e+02   -6.745213e+02
CELLS 46 92
1 0
1 1
1 2
1 3
1 4
1 5
1 6
1 7
1 8
1 9
1 10
1 11
1 12
1 13
1 14
1 15
1 16
1 17
1 18
1 19
1 20
1 21
1 22
1 23
1 24
1 25
1 26
1 27
1 28
1 29
1 30
1 31
1 32
1 33
1 34
1 35
1 36
1 37
1 38
1 39
1 40
1 41
1 42
1 43
1 44
1 45
CELL_TYPES 46
1
1
1
1
1
1
1
1
1
1
1
1
1
1
1
1
1
1
1
1
1
1
1
1
1
1
1
1
1
1
1
1
1
1
1
1
1
1
1
1
1
1
1
1
1
1
POINT_DATA 46
VECTORS Real_Arrow_1.000000e+02(Hz) float
  -5.390238e-02  -8.813005e-02   0.000000e+00
  -1.465583e-01   1.885309e-01   0.000000e+00
  -7.535011e-02   1.261392e-01   0.000000e+00
   4.553039e-02  -1.815943e-01   0.000000e+00
  -9.409185e-03  -1.138201e-01   0.000000e+00
   2.446083e-02   9.590813e-03   0.000000e+00
   5.882932e-02  -2.977910e-02   0.000000e+00
  -6.637990e-02   3.519545e-02   0.000000e+00
   0.000000e+00   0.000000e+00   0.000000e+00
   9.662176e-02  -2.675704e-02   0.000000e+00
  -5.057447e-02   5.310851e-04   0.000000e+00
  -5.460603e-02   1.148612e-02   0.000000e+00
   0.000000e+00   0.000000e+00   0.000000e+00
   5.043953e-02   1.247566e-01   0.000000e+00
   6.080125e-02   3.914444e-02   0.000000e+00
   1.400309e-01   1.533445e-02   0.000000e+00
  -1.543137e-01  -2.783363e-01   0.000000e+00
   1.900963e-02   8.107262e-02   0.000000e+00
   0.000000e+00   0.000000e+00   0.000000e+00
   1.056792e-01   3.586388e-02   0.000000e+00
  -1.081125e-01   3.080476e-02   0.000000e+00
   4.557330e-03  -5.777761e-02   0.000000e+00
  -6.727562e-02   8.299245e-02   0.000000e+00
   3.401658e-02  -1.244925e-01   0.000000e+00
   0.000000e+00   0.000000e+00   0.000000e+00
  -4.401891e-03  -7.354979e-02   0.000000e+00
   6.520593e-02   1.063345e-01   0.000000e+00
   4.691549e-02   1.234703e-01   0.000000e+00
   2.773635e-02   3.978551e-03   0.000000e+00
   1.062770e-01  -1.369952e-01   0.000000e+00
   4.771190e-02  -3.844075e-02   0.000000e+00
  -2.939419e-02  -2.872928e-02   0.000000e+00
   7.649096e-02   7.644815e-02   0.000000e+00
   1.139685e-01   1.688193e-01   0.000000e+00
   6.325263e-02  -1.513908e-01   0.000000e+00
   6.624835e-02  -1.845269e-01   0.000000e+00
   5.111998e-02   2.583342e-01   0.000000e+00
   0.000000e+00   0.000000e+00   0.000000e+00
  -1.068313e-01  -4.133782e-02   0.000000e+00
   8.211284e-02  -8.538669e-02   0.000000e+00
   0.000000e+00   0.000000e+00   0.000000e+00
  -2.424628e-02   1.598446e-02   0.000000e+00
  -1.491785e-01  -6.175054e-02   0.000000e+00
   7.844540e-02  -3.611827e-02   0.000000e+00
   1.155822e-02   3.248005e-01   0.000000e+00
   1.557917e-02   8.133589e-02   0.000000e+00
VECTORS Imag_Arrow_1.000000e+02(Hz) float
  -1.569689e-03  -4.985280e-02   0.000000e+00
   1.434147e-02  -3.932333e-02   0.000000e+00
   2.582225e-02  -8.074752e-03   0.000000e+00
  -7.998945e-03  -1.445758e-01   0.000000e+00
  -3.990104e-02  -4.838865e-02   0.000000e+00
  -3.386705e-02   1.935293e-02   0.000000e+00
   3.984671e-02  -8.580162e-02   0.000000e+00
  -2.057165e-02   2.206733e-02   0.000000e+00
   0.000000e+00   0.000000e+00   0.000000e+00
  -1.757034e-02  -3.017048e-02   0.000000e+00
  -4.891647e-02   2.620841e-02   0.000000e+00
  -1.364449e-02   1.083458e-02   0.000000e+00
   0.000000e+00   0.000000e+00   0.000000e+00
  -1.855379e-01   1.108942e-03   0.000000e+00
   1.957563e-02  -1.321272e-02   0.000000e+00
  -5.830996e-02   2.787295e-02   0.000000e+00
   2.090515e-02   5.067900e-02   0.000000e+00
   2.836942e-02  -3.960645e-02   0.000000e+00
   0.000000e+00   0.000000e+00   0.000000e+00
   1.163263e-02  -1.161937e-02   0.000000e+00
  -1.591500e-02  -2.085484e-02   0.000000e+00
  -2.149089e-02  -1.656970e-02   0.000000e+00
   4.060016e-03  -4.395841e-02   0.000000e+00
  -5.515273e-02  -6.843344e-03   0.000000e+00
   0.000000e+00   0.000000e+00   0.000000e+00
   3.873864e-03   3.663158e-02   0.000000e+00
  -9.214838e-02  -6.640361e-02   0.000000e+00
  -3.535445e-02  -4.319292e-02   0.000000e+00
  -3.330657e-02   1.752175e-02   0.000000e+00
   2.674230e-02   1.656107e-03   0.000000e+00
  -3.230607e-02   2.017520e-02   0.000000e+00
  -7.560417e-02   8.961439e-03   0.000000e+00
   7.306972e-03   1.499920e-02   0.000000e+00
   1.277858e-01   1.244621e-01   0.000000e+00
   2.489125e-02  -7.442195e-02   0.000000e+00
  -1.323654e-01  -4.459967e-02   0.000000e+00
  -4.394834e-02   6.940805e-02   0.000000e+00
   0.000000e+00   0.000000e+00   0.000000e+00
  -7.232458e-02  -1.468227e-01   0.000000e+00
  -4.285828e-02   1.519591e-01   0.000000e+00
   0.000000e+00   0.000000e+00   0.000000e+00
  -2.165021e-02   2.213106e-03   0.000000e+00
   1.378210e-02   4.750965e-02   0.000000e+00
  -8.378723e-02  -3.075857e-02   0.000000e+00
  -7.912210e-02  -5.649659e-02   0.000000e+00
   6.191340e-02  -8.039646e-02   0.000000e+00
VECTORS Real_Arrow_1.584800e+02(Hz) float
  -5.127419e-02  -6.659435e-02   0.000000e+00
  -1.483567e-01   1.988197e-01   0.000000e+00
  -8.428919e-02   1.226653e-01   0.000000e+00
   4.637792e-02  -1.437489e-01   0.000000e+00
   4.332207e-03  -9.158085e-02   0.000000e+00
   3.090347e-02  -1.043584e-03   0.000000e+00
   3.917329e-02   6.893756e-03   0.000000e+00
  -5.402896e-02   3.774082e-02   0.000000e+00
   0.000000e+00   0.000000e+00   0.000000e+00
   8.085665e-02  -1.532474e-02   0.000000e+00
  -4.074874e-02  -6.415064e-03   0.000000e+00
  -5.669108e-02   9.303276e-03   0.000000e+00
   0.000000e+00   0.000000e+00   0.000000e+00
   1.057868e-01   1.097483e-01   0.000000e+00
   4.651730e-02   4.343083e-02   0.000000e+00
   1.470465e-01   1.587471e-03   0.000000e+00
  -1.597246e-01  -2.900584e-01   0.000000e+00
   4.672014e-03   1.010915e-01   0.000000e+00
   0.000000e+00   0.000000e+00   0.000000e+00
   9.050791e-02   3.775742e-02   0.000000e+00
  -1.024588e-01   3.729779e-02   0.000000e+00
  -1.254513e-03  -4.638099e-02   0.000000e+00
  -7.186045e-02   1.026853e-01   0.000000e+00
   4.974784e-02  -1.251711e-01   0.000000e+00
   0.000000e+00   0.000000e+00   0.000000e+00
  -1.070823e-02  -7.722183e-02   0.000000e+00
   9.019281e-02   1.237045e-01   0.000000e+00
   5.193120e-02   1.326455e-01   0.000000e+00
   4.006439e-02   3.602030e-03   0.000000e+00
   8.325503e-02  -1.212633e-01   0.000000e+00
   5.445902e-02  -4.258650e-02   0.000000e+00
  -4.363465e-03  -2.882508e-02   0.000000e+00
   7.692675e-02   7.069522e-02   0.000000e+00
   6.058281e-02   1.077524e-01   0.000000e+00
   5.001401e-02  -1.111639e-01   0.000000e+00
   9.518507e-02  -1.607078e-01   0.000000e+00
   5.094834e-02   2.095845e-01   0.000000e+00
   0.000000e+00   0.000000e+00   0.000000e+00
  -8.100546e-02  -8.687425e-03   0.000000e+00
   9.347964e-02  -1.205431e-01   0.000000e+00
   0.000000e+00   0.000000e+00   0.000000e+00
  -1.216085e-02   1.173070e-02   0.000000e+00
  -1.487258e-01  -7.634858e-02   0.000000e+00
   8.943733e-02  -2.521738e-02   0.000000e+00
   3.199539e-02   3.337924e-01   0.000000e+00
  -7.744615e-03   1.022363e-01   0.000000e+00
VECTORS Imag_Arrow_1.584800e+02(Hz) float
  -9.519882e-03  -5.019087e-02   0.000000e+00
  -1.126618e-02  -8.257084e-03   0.000000e+00
   1.551595e-02   1.057533e-02   0.000000e+00
  -1.347664e-02  -1.291106e-01   0.000000e+00
  -3.745220e-02  -5.812652e-02   0.000000e+00
  -2.201039e-02   2.140243e-02   0.000000e+00
   3.961693e-02  -7.532648e-02   0.000000e+00
  -4.803939e-02   2.517185e-02   0.000000e+00
   0.000000e+00   0.000000e+00   0.000000e+00
   1.423786e-02  -3.079326e-02   0.000000e+00
  -3.553225e-02   2.463122e-02   0.000000e+00
  -8.645164e-03   2.531028e-03   0.000000e+00
   0.000000e+00   0.000000e+00   0.000000e+00
  -1.518909e-01   2.338750e-02   0.000000e+00
   2.555356e-02  -4.880323e-03   0.000000e+00
  -2.962045e-02   3.036472e-02   0.000000e+00
   1.314796e-02   1.613932e-02   0.000000e+00
   3.370360e-02  -3.495750e-02   0.000000e+00
   0.000000e+00   0.000000e+00   0.000000e+00
   1.473424e-02  -5.725825e-03   0.000000e+00
  -1.794931e-02  -1.772106e-02   0.000000e+00
   4.862742e-03  -7.048382e-03   0.000000e+00
   1.000313e-02  -3.429402e-02   0.000000e+00
  -4.857663e-02  -1.633994e-02   0.000000e+00
   0.000000e+00   0.000000e+00   0.000000e+00
   9.150003e-03   2.680841e-03   0.000000e+00
  -7.936011e-02  -4.139102e-02   0.000000e+00
  -1.861854e-02  -2.725404e-02   0.000000e+00
  -2.483950e-02   2.858975e-02   0.000000e+00
   2.726066e-02  -1.331656e-02   0.000000e+00
  -1.337806e-02   1.962332e-02   0.000000e+00
  -6.066657e-02  -8.067113e-03   0.000000e+00
   1.741551e-03   1.643581e-02   0.000000e+00
   1.245144e-01   1.409466e-01   0.000000e+00
   3.885316e-02  -8.960631e-02   0.000000e+00
  -9.610898e-02  -5.241709e-02   0.000000e+00
  -2.011271e-02   8.819286e-02   0.000000e+00
   0.000000e+00   0.000000e+00   0.000000e+00
  -8.123491e-02  -1.092036e-01   0.000000e+00
  -3.590018e-02   1.059617e-01   0.000000e+00
   0.000000e+00   0.000000e+00   0.000000e+00
  -2.886871e-02   1.415057e-02   0.000000e+00
  -1.493806e-02   3.029944e-02   0.000000e+00
  -6.181872e-02  -4.503946e-02   0.000000e+00
  -6.998615e-02  -1.313462e-02   0.000000e+00
   4.122622e-02  -5.757624e-02   0.000000e+00
VECTORS Real_Arrow_2.511800e+02(Hz) float
  -4.466915e-02  -4.883155e-02   0.000000e+00
  -1.362862e-01   1.919716e-01   0.000000e+00
  -8.866582e-02   1.125959e-01   0.000000e+00
   5.238407e-02  -1.119685e-01   0.000000e+00
   1.630640e-02  -6.662851e-02   0.000000e+00
   3.064037e-02  -9.205382e-03   0.000000e+00
   2.204577e-02   3.353661e-02   0.000000e+00
  -2.626275e-02   3.026891e-02   0.000000e+00
   0.000000e+00   0.000000e+00   0.000000e+00
   5.976261e-02  -3.624624e-03   0.000000e+00
  -3.547779e-02  -1.534257e-02   0.000000e+00
  -5.661087e-02   1.039966e-02   0.000000e+00
   4.953098e-02   2.767441e-01   0.000000e+00
   1.437671e-01   9.077712e-02   0.000000e+00
   3.436085e-02   4.222501e-02   0.000000e+00
   1.471595e-01  -1.048424e-02   0.000000e+00
  -1.644206e-01  -2.883506e-01   0.000000e+00
  -1.151119e-02   1.187238e-01   0.000000e+00
   0.000000e+00   0.000000e+00   0.000000e+00
   7.931120e-02   3.749804e-02   0.000000e+00
  -9.578867e-02   4.234459e-02   0.000000e+00
  -1.369619e-02  -4.658044e-02   0.000000e+00
  -8.015847e-02   1.130909e-01   0.000000e+00
   6.364193e-02  -1.196904e-01   0.000000e+00
   0.000000e+00   0.000000e+00   0.000000e+00
  -1.675040e-02  -6.338873e-02   0.000000e+00
   1.110637e-01   1.329651e-01   0.000000e+00
   5.011203e-02   1.375781e-01   0.000000e+00
   4.744683e-02  -4.721134e-03   0.000000e+00
   6.958802e-02  -1.064643e-01   0.000000e+00
   4.982786e-02  -4.764875e-02   0.000000e+00
   1.419697e-02  -1.816653e-02   0.000000e+00
   7.768348e-02   6.574122e-02   0.000000e+00
   1.623754e-02   4.961955e-02   0.000000e+00
   0.000000e+00   0.000000e+00   0.000000e+00
   1.094842e-01  -1.377508e-01   0.000000e+00
   4.350644e-02   1.652671e-01   0.000000e+00
   0.000000e+00   0.000000e+00   0.000000e+00
  -5.063738e-02   1.200484e-02   0.000000e+00
   1.009257e-01  -1.305421e-01   0.000000e+00
  -5.143564e-02  -1.690821e-01   0.000000e+00
   2.764404e-03  -2.968792e-04   0.000000e+00
  -1.350566e-01  -8.151262e-02   0.000000e+00
   9.640013e-02  -4.883550e-03   0.000000e+00
   5.084635e-02   3.257653e-01   0.000000e+00
  -1.131702e-02   1.096272e-01   0.000000e+00
VECTORS Imag_Arrow_2.511800e+02(Hz) float
  -1.297345e-02  -4.664306e-02   0.000000e+00
  -3.270714e-02   2.021622e-02   0.000000e+00
   4.254028e-03   2.253423e-02   0.000000e+00
  -1.814135e-02  -1.198966e-01   0.000000e+00
  -3.095058e-02  -6.202096e-02   0.000000e+00
  -1.498620e-02   2.027904e-02   0.000000e+00
   3.009307e-02  -5.175286e-02   0.000000e+00
  -6.237818e-02   3.690391e-02   0.000000e+00
   0.000000e+00   0.000000e+00   0.000000e+00
   2.719582e-02  -2.794656e-02   0.000000e+00
  -2.664055e-02   2.155566e-02   0.000000e+00
  -6.978705e-03  -3.447293e-03   0.000000e+00
   4.505615e-02   2.001422e-01   0.000000e+00
  -1.184372e-01   3.471682e-02   0.000000e+00
   2.734546e-02   1.199204e-03   0.000000e+00
  -7.876266e-03   2.814029e-02   0.000000e+00
   4.285681e-03  -1.703714e-02   0.000000e+00
   3.222740e-02  -1.979329e-02   0.000000e+00
   0.000000e+00   0.000000e+00   0.000000e+00
   9.292239e-03  -3.248905e-03   0.000000e+00
  -1.939436e-02  -1.413079e-02   0.000000e+00
   1.911039e-02   5.630722e-03   0.000000e+00
   1.114986e-02  -1.974233e-02   0.000000e+00
  -4.078218e-02  -2.942080e-02   0.000000e+00
   0.000000e+00   0.000000e+00   0.000000e+00
   1.277211e-02  -1.810337e-02   0.000000e+00
  -6.950787e-02  -1.390073e-02   0.000000e+00
  -7.638794e-03  -1.127881e-02   0.000000e+00
  -1.271865e-02   4.699686e-02   0.000000e+00
   1.667296e-02  -1.145403e-02   0.000000e+00
   2.308352e-03   2.114421e-02   0.000000e+00
  -4.043011e-02  -1.879133e-02   0.000000e+00
  -2.415506e-03   1.780663e-02   0.000000e+00
   1.101600e-01   1.382400e-01   0.000000e+00
   0.000000e+00   0.000000e+00   0.000000e+00
  -7.109369e-02  -5.030513e-02   0.000000e+00
  -8.093624e-03   7.755711e-02   0.000000e+00
   0.000000e+00   0.000000e+00   0.000000e+00
  -8.532588e-02  -8.299645e-02   0.000000e+00
  -2.777357e-02   7.483150e-02   0.000000e+00
   8.831777e-03   2.309168e-02   0.000000e+00
  -2.659415e-02   1.956310e-02   0.000000e+00
  -4.043559e-02   1.216532e-02   0.000000e+00
  -5.362331e-02  -5.525478e-02   0.000000e+00
  -6.432974e-02   2.785250e-02   0.000000e+00
   2.001802e-02  -3.682056e-02   0.000000e+00
VECTORS Real_Arrow_3.981000e+02(Hz) float
  -3.833347e-02  -3.360317e-02   0.000000e+00
  -1.156075e-01   1.733360e-01   0.000000e+00
  -8.780951e-02   1.009746e-01   0.000000e+00
   6.075109e-02  -8.000934e-02   0.000000e+00
   2.447471e-02  -4.146600e-02   0.000000e+00
   2.841149e-02  -1.406152e-02   0.000000e+00
   1.470479e-02   4.222625e-02   0.000000e+00
   1.269647e-03   1.414436e-02   0.000000e+00
   0.000000e+00   0.000000e+00   0.000000e+00
   4.284958e-02   5.528939e-03   0.000000e+00
  -3.153336e-02  -2.318952e-02   0.000000e+00
  -5.420821e-02   1.225390e-02   0.000000e+00
   4.176559e-02   2.027374e-01   0.000000e+00
   1.679966e-01   7.079835e-02   0.000000e+00
   2.387780e-02   3.995014e-02   0.000000e+00
   1.427607e-01  -1.985726e-02   0.000000e+00
  -1.676160e-01  -2.762549e-01   0.000000e+00
  -2.449130e-02   1.256686e-01   0.000000e+00
   2.641574e-01  -1.700039e-01   0.000000e+00
   7.427475e-02   3.844343e-02   0.000000e+00
  -8.835631e-02   4.596840e-02   0.000000e+00
  -2.559319e-02  -5.302325e-02   0.000000e+00
  -8.697998e-02   1.149245e-01   0.000000e+00
   7.514914e-02  -1.065253e-01   0.000000e+00
  -2.390877e-02  -4.132906e-02   0.000000e+00
  -2.299421e-02  -4.852389e-02   0.000000e+00
   1.310042e-01   1.307372e-01   0.000000e+00
   4.557071e-02   1.370620e-01   0.000000e+00
   4.819501e-02  -2.599157e-02   0.000000e+00
   6.531650e-02  -1.004729e-01   0.000000e+00
   3.924256e-02  -5.416698e-02   0.000000e+00
   2.182834e-02  -7.286403e-03   0.000000e+00
   7.821139e-02   6.098187e-02   0.000000e+00
  -1.808514e-02   4.801585e-04   0.000000e+00
   0.000000e+00   0.000000e+00   0.000000e+00
   1.204623e-01  -1.196854e-01   0.000000e+00
   3.551506e-02   1.451415e-01   0.000000e+00
   0.000000e+00   0.000000e+00   0.000000e+00
  -1.921850e-02   2.980187e-02   0.000000e+00
   1.059211e-01  -1.367288e-01   0.000000e+00
  -5.767575e-02  -1.742121e-01   0.000000e+00
   1.290595e-02  -1.210805e-02   0.000000e+00
  -1.118289e-01  -7.838554e-02   0.000000e+00
   1.078418e-01   1.712339e-02   0.000000e+00
   7.026769e-02   3.020024e-01   0.000000e+00
  -5.714976e-03   1.095919e-01   0.000000e+00
VECTORS Imag_Arrow_3.981000e+02(Hz) float
  -1.275228e-02  -4.134365e-02   0.000000e+00
  -4.508993e-02   3.967387e-02   0.000000e+00
  -7.931799e-03   2.949643e-02   0.000000e+00
  -1.993663e-02  -1.158179e-01   0.000000e+00
  -2.355700e-02  -5.818094e-02   0.000000e+00
  -1.535912e-02   1.868572e-02   0.000000e+00
   1.544035e-02  -2.477889e-02   0.000000e+00
  -6.348841e-02   4.450203e-02   0.000000e+00
   0.000000e+00   0.000000e+00   0.000000e+00
   2.839966e-02  -2.209469e-02   0.000000e+00
  -2.148360e-02   1.532069e-02   0.000000e+00
  -5.364641e-03  -8.522369e-03   0.000000e+00
   2.882813e-02   1.916014e-01   0.000000e+00
  -9.037115e-02   3.683270e-02   0.000000e+00
   2.646292e-02   4.592355e-03   0.000000e+00
   9.897119e-03   2.411420e-02   0.000000e+00
  -7.569682e-03  -4.742057e-02   0.000000e+00
   2.449868e-02   4.142916e-03   0.000000e+00
   3.502046e-02  -4.732531e-03   0.000000e+00
  -1.362907e-03  -1.978558e-03   0.000000e+00
  -1.941314e-02  -1.032479e-02   0.000000e+00
   2.682981e-02   1.354242e-02   0.000000e+00
   6.413487e-03  -6.373829e-03   0.000000e+00
  -3.227619e-02  -4.206878e-02   0.000000e+00
  -4.666841e-02   3.282761e-02   0.000000e+00
   1.401644e-02  -2.571020e-02   0.000000e+00
  -6.028835e-02   1.415737e-02   0.000000e+00
  -2.596023e-03   3.792569e-03   0.000000e+00
   1.600747e-04   6.530657e-02   0.000000e+00
   4.587936e-03  -2.836695e-03   0.000000e+00
   8.423109e-03   2.288741e-02   0.000000e+00
  -1.745004e-02  -2.033355e-02   0.000000e+00
  -6.442447e-03   1.986549e-02   0.000000e+00
   9.033051e-02   1.233120e-01   0.000000e+00
   0.000000e+00   0.000000e+00   0.000000e+00
  -5.738562e-02  -4.310969e-02   0.000000e+00
  -8.189288e-03   5.590203e-02   0.000000e+00
   0.000000e+00   0.000000e+00   0.000000e+00
  -8.268172e-02  -6.316072e-02   0.000000e+00
  -2.361745e-02   6.411586e-02   0.000000e+00
   8.220643e-04   5.868966e-03   0.000000e+00
  -1.804810e-02   1.595907e-02   0.000000e+00
  -5.795646e-02  -2.356371e-03   0.000000e+00
  -5.294699e-02  -5.753282e-02   0.000000e+00
  -5.802915e-02   6.057499e-02   0.000000e+00
   1.255969e-02  -2.774874e-02   0.000000e+00
VECTORS Real_Arrow_6.309500e+02(Hz) float
  -3.335418e-02  -2.108228e-02   0.000000e+00
  -9.368740e-02   1.502307e-01   0.000000e+00
  -8.106269e-02   8.877750e-02   0.000000e+00
   6.936211e-02  -4.574359e-02   0.000000e+00
   2.981390e-02  -2.114457e-02   0.000000e+00
   2.941278e-02  -1.662876e-02   0.000000e+00
   1.660848e-02   3.739780e-02   0.000000e+00
   2.480713e-02  -3.509662e-03   0.000000e+00
   0.000000e+00   0.000000e+00   0.000000e+00
   3.161232e-02   1.085773e-02   0.000000e+00
  -2.792274e-02  -2.791674e-02   0.000000e+00
  -5.160715e-02   1.526037e-02   0.000000e+00
   3.717596e-02   1.421017e-01   0.000000e+00
   1.836515e-01   5.453728e-02   0.000000e+00
   1.550543e-02   3.768983e-02   0.000000e+00
   1.335843e-01  -2.716298e-02   0.000000e+00
  -1.670669e-01  -2.547681e-01   0.000000e+00
  -3.172323e-02   1.184314e-01   0.000000e+00
   2.442280e-01  -1.634594e-01   0.000000e+00
   7.643605e-02   4.014140e-02   0.000000e+00
  -8.111484e-02   4.817550e-02   0.000000e+00
  -3.784083e-02  -6.096059e-02   0.000000e+00
  -8.934354e-02   1.117886e-01   0.000000e+00
   8.404381e-02  -8.665688e-02   0.000000e+00
  -8.563104e-03  -3.675144e-02   0.000000e+00
  -2.808569e-02  -3.624959e-02   0.000000e+00
   1.490343e-01   1.174787e-01   0.000000e+00
   4.025244e-02   1.323707e-01   0.000000e+00
   4.222582e-02  -5.673897e-02   0.000000e+00
   6.634620e-02  -1.013214e-01   0.000000e+00
   3.047618e-02  -6.147744e-02   0.000000e+00
   1.855090e-02  -7.722212e-04   0.000000e+00
   7.860865e-02   5.544756e-02   0.000000e+00
  -4.292034e-02  -3.825467e-02   0.000000e+00
  -1.148328e-02  -1.109464e-02   0.000000e+00
   1.319157e-01  -1.053473e-01   0.000000e+00
   3.468210e-02   1.393563e-01   0.000000e+00
   0.000000e+00   0.000000e+00   0.000000e+00
   9.376467e-03   4.393770e-02   0.000000e+00
   1.120431e-01  -1.467586e-01   0.000000e+00
  -5.737685e-02  -1.721150e-01   0.000000e+00
   1.701241e-02  -1.845119e-02   0.000000e+00
  -8.485047e-02  -7.085727e-02   0.000000e+00
   1.238956e-01   3.633817e-02   0.000000e+00
   8.712044e-02   2.686473e-01   0.000000e+00
  -4.395370e-03   1.136111e-01   0.000000e+00
VECTORS Imag_Arrow_6.309500e+02(Hz) float
  -1.098048e-02  -3.441160e-02   0.000000e+00
  -4.720149e-02   4.768629e-02   0.000000e+00
  -1.858489e-02   3.374566e-02   0.000000e+00
  -1.858247e-02  -1.127433e-01   0.000000e+00
  -1.665615e-02  -4.752750e-02   0.000000e+00
  -2.229736e-02   1.986380e-02   0.000000e+00
   5.320963e-03  -7.606326e-03   0.000000e+00
  -5.904074e-02   4.660649e-02   0.000000e+00
   0.000000e+00   0.000000e+00   0.000000e+00
   2.558313e-02  -1.560681e-02   0.000000e+00
  -1.849857e-02   6.821955e-03   0.000000e+00
  -1.582861e-03  -1.385142e-02   0.000000e+00
   1.647585e-02   1.734197e-01   0.000000e+00
  -7.075827e-02   3.006929e-02   0.000000e+00
   2.427497e-02   7.320490e-03   0.000000e+00
   2.477417e-02   1.925265e-02   0.000000e+00
  -2.394196e-02  -7.567024e-02   0.000000e+00
   1.389500e-02   2.873223e-02   0.000000e+00
   3.801418e-02  -1.021750e-02   0.000000e+00
  -1.308537e-02   3.568712e-04   0.000000e+00
  -1.769762e-02  -6.743888e-03   0.000000e+00
   3.183908e-02   1.756284e-02   0.000000e+00
  -1.370466e-03   3.038173e-03   0.000000e+00
  -2.273865e-02  -5.036452e-02   0.000000e+00
  -4.494499e-02   6.739051e-03   0.000000e+00
   1.383720e-02  -2.875345e-02   0.000000e+00
  -4.889664e-02   3.798918e-02   0.000000e+00
  -3.124318e-03   1.680098e-02   0.000000e+00
   1.065137e-02   7.371735e-02   0.000000e+00
  -5.721891e-03   5.612626e-03   0.000000e+00
   5.373898e-03   2.425387e-02   0.000000e+00
   6.441236e-04  -1.987159e-02   0.000000e+00
  -1.186353e-02   2.313063e-02   0.000000e+00
   6.876916e-02   1.022872e-01   0.000000e+00
   5.022310e-02  -7.362708e-02   0.000000e+00
  -4.805603e-02  -3.418909e-02   0.000000e+00
  -1.633425e-02   4.722732e-02   0.000000e+00
   0.000000e+00   0.000000e+00   0.000000e+00
  -7.357999e-02  -4.371798e-02   0.000000e+00
  -2.025594e-02   6.195163e-02   0.000000e+00
  -9.692073e-03  -1.064447e-02   0.000000e+00
  -8.423588e-03   7.526499e-03   0.000000e+00
  -6.584163e-02  -1.106283e-02   0.000000e+00
  -5.247988e-02  -5.635688e-02   0.000000e+00
  -4.892007e-02   8.119388e-02   0.000000e+00
   1.422549e-02  -2.648376e-02   0.000000e+00
VECTORS Real_Arrow_1.000000e+03(Hz) float
  -2.908248e-02  -1.173178e-02   0.000000e+00
  -7.565249e-02   1.289511e-01   0.000000e+00
  -7.023456e-02   7.596518e-02   0.000000e+00
   7.674161e-02  -9.897943e-03   0.000000e+00
   3.261984e-02  -8.369965e-03   0.000000e+00
   3.675764e-02  -2.029039e-02   0.000000e+00
   1.963758e-02   3.088800e-02   0.000000e+00
   4.546842e-02  -2.077150e-02   0.000000e+00
   0.000000e+00   0.000000e+00   0.000000e+00
   2.395849e-02   1.329748e-02   0.000000e+00
  -2.470414e-02  -2.850616e-02   0.000000e+00
  -5.081369e-02   1.955657e-02   0.000000e+00
   3.438826e-02   9.328950e-02   0.000000e+00
   1.961066e-01   4.699165e-02   0.000000e+00
   0.000000e+00   0.000000e+00   0.000000e+00
   1.198883e-01  -3.232356e-02   0.000000e+00
  -1.591696e-01  -2.230364e-01   0.000000e+00
  -3.345672e-02   1.006018e-01   0.000000e+00
   0.000000e+00   0.000000e+00   0.000000e+00
   8.373530e-02   4.146758e-02   0.000000e+00
  -7.456370e-02   4.934383e-02   0.000000e+00
  -5.072550e-02  -6.962082e-02   0.000000e+00
  -8.665230e-02   1.063982e-01   0.000000e+00
   0.000000e+00   0.000000e+00   0.000000e+00
   4.968857e-03  -2.488296e-02   0.000000e+00
  -3.232273e-02  -2.456394e-02   0.000000e+00
   1.625580e-01   9.713586e-02   0.000000e+00
   3.642008e-02   1.249674e-01   0.000000e+00
   3.126929e-02  -8.579488e-02   0.000000e+00
   7.025951e-02  -1.064020e-01   0.000000e+00
   2.742571e-02  -6.948884e-02   0.000000e+00
   1.199183e-02   5.017967e-03   0.000000e+00
   0.000000e+00   0.000000e+00   0.000000e+00
  -5.946452e-02  -6.683729e-02   0.000000e+00
   0.000000e+00   0.000000e+00   0.000000e+00
   1.418506e-01  -9.310949e-02   0.000000e+00
   4.094750e-02   1.305877e-01   0.000000e+00
   0.000000e+00   0.000000e+00   0.000000e+00
   0.000000e+00   0.000000e+00   0.000000e+00
   1.165942e-01  -1.580163e-01   0.000000e+00
   0.000000e+00   0.000000e+00   0.000000e+00
   0.000000e+00   0.000000e+00   0.000000e+00
  -5.920731e-02  -6.214697e-02   0.000000e+00
   1.412027e-01   5.440749e-02   0.000000e+00
   9.865904e-02   2.315755e-01   0.000000e+00
  -6.551636e-03   1.199241e-01   0.000000e+00
VECTORS Imag_Arrow_1.000000e+03(Hz) float
  -8.361521e-03  -2.686819e-02   0.000000e+00
  -4.310214e-02   4.702000e-02   0.000000e+00
  -2.525019e-02   3.584219e-02   0.000000e+00
  -1.460861e-02  -1.073711e-01   0.000000e+00
  -1.038940e-02  -3.443519e-02   0.000000e+00
  -3.173487e-02   2.507099e-02   0.000000e+00
   1.859128e-03  -1.071264e-03   0.000000e+00
  -5.078382e-02   4.496662e-02   0.000000e+00
   0.000000e+00   0.000000e+00   0.000000e+00
   2.241222e-02  -1.041393e-02   0.000000e+00
  -1.712641e-02  -2.493713e-03   0.000000e+00
   3.742059e-03  -1.933444e-02   0.000000e+00
   4.816017e-03   1.545032e-01   0.000000e+00
  -5.862879e-02   1.983268e-02   0.000000e+00
   0.000000e+00   0.000000e+00   0.000000e+00
   3.587948e-02   1.385008e-02   0.000000e+00
  -4.477123e-02  -1.006434e-01   0.000000e+00
   3.466134e-03   4.717890e-02   0.000000e+00
   0.000000e+00   0.000000e+00   0.000000e+00
  -2.238556e-02   4.471151e-03   0.000000e+00
  -1.452955e-02  -3.473813e-03   0.000000e+00
   3.400669e-02   1.861906e-02   0.000000e+00
  -9.388924e-03   8.680950e-03   0.000000e+00
   0.000000e+00   0.000000e+00   0.000000e+00
  -4.235252e-02  -4.973814e-03   0.000000e+00
   1.349173e-02  -2.938862e-02   0.000000e+00
  -3.511950e-02   5.518727e-02   0.000000e+00
  -9.754642e-03   2.867881e-02   0.000000e+00
   1.467019e-02   6.999935e-02   0.000000e+00
  -1.407782e-02   1.168639e-02   0.000000e+00
  -2.013095e-03   2.532034e-02   0.000000e+00
   1.154652e-02  -2.113565e-02   0.000000e+00
   0.000000e+00   0.000000e+00   0.000000e+00
   4.731320e-02   7.854147e-02   0.000000e+00
   0.000000e+00   0.000000e+00   0.000000e+00
  -4.065825e-02  -2.319761e-02   0.000000e+00
  -2.373681e-02   4.807985e-02   0.000000e+00
   0.000000e+00   0.000000e+00   0.000000e+00
   0.000000e+00   0.000000e+00   0.000000e+00
  -1.669521e-02   6.524202e-02   0.000000e+00
   0.000000e+00   0.000000e+00   0.000000e+00
   0.000000e+00   0.000000e+00   0.000000e+00
  -6.621750e-02  -1.455606e-02   0.000000e+00
  -4.912097e-02  -5.444838e-02   0.000000e+00
  -3.940420e-02   9.038755e-02   0.000000e+00
   1.718768e-02  -2.465457e-02   0.000000e+00
