# vtk DataFile Version 2.0
Induction_Arrow_Iter6_PE3
ASCII
DATASET UNSTRUCTURED_GRID
POINTS 46 float
  -2.052000e+03    1.667000e+03   -4.526633e+02
  -1.265000e+03    2.333000e+03   -4.555885e+02
  -9.840000e+02    2.568000e+03   -4.612271e+02
   1.700000e+03   -1.757000e+03   -5.237752e+02
  -1.152000e+03    1.382000e+03   -4.549280e+02
   3.187000e+03    1.067000e+03   -8.370176e+02
   4.716000e+03    9.370000e+02   -8.015281e+02
  -1.855000e+03    5.260000e+02   -5.147377e+02
  -1.420000e+02   -1.905000e+03   -4.746368e+02
  -5.800000e+01    1.069000e+03   -4.555494e+02
  -2.802000e+03    3.302000e+03   -4.314337e+02
  -5.640000e+03   -1.532000e+03   -4.911771e+02
  -8.030000e+02   -5.610000e+02   -5.280929e+02
   1.008000e+03    4.130000e+02   -5.983358e+02
   1.960000e+02    2.246000e+03   -5.219413e+02
  -3.457000e+03    8.320000e+02   -4.470735e+02
   5.640000e+03    2.452000e+03   -7.393049e+02
  -1.334000e+03    3.332000e+03   -4.456136e+02
   1.244000e+03    1.880000e+03   -6.331107e+02
  -2.680000e+02    2.144000e+03   -4.891390e+02
  -4.063000e+03    6.620000e+02   -4.746103e+02
  -1.258000e+03    6.330000e+02   -4.856841e+02
  -2.141000e+03    3.194000e+03   -4.348461e+02
  -3.469000e+03   -3.059000e+03   -6.067613e+02
  -1.604000e+03   -2.570000e+02   -5.141257e+02
  -1.454000e+03    2.220000e+02   -5.386025e+02
   1.864000e+03    1.270000e+02   -7.404291e+02
   2.449000e+03    5.590000e+02   -7.805292e+02
  -1.834000e+03   -1.554000e+03   -6.273074e+02
   1.807000e+03    2.297000e+03   -6.825557e+02
  -2.560000e+03   -1.783000e+03   -6.131337e+02
  -2.741000e+03   -5.010000e+02   -5.080000e+02
   2.884000e+03   -2.179000e+03   -5.274708e+02
  -6.120000e+02   -8.960000e+02   -5.895389e+02
  -1.985000e+03   -2.653000e+03   -5.598834e+02
  -3.390000e+03   -4.000000e+02   -4.982361e+02
   1.586000e+03    1.342000e+03   -6.618442e+02
   1.047000e+03    2.401000e+03   -5.426792e+02
   8.380000e+02   -1.300000e+03   -4.783644e+02
   2.569000e+03    2.441000e+03   -6.035668e+02
  -2.028000e+03    2.833000e+03   -4.322286e+02
  -1.086000e+03    1.998000e+03   -4.563301e+02
   1.514000e+03   -3.332000e+03   -5.646205e+02
   7.040000e+02    1.116000e+03   -5.365099e+02
   1.990000e+03    6.360000e+02   -7.085272e+02
   3.722000e+03   -1.700000e+02   -6.745213e+02
CELLS 46 92
1 0
1 1
1 2
1 3
1 4
1 5
1 6
1 7
1 8
1 9
1 10
1 11
1 12
1 13
1 14
1 15
1 16
1 17
1 18
1 19
1 20
1 21
1 22
1 23
1 24
1 25
1 26
1 27
1 28
1 29
1 30
1 31
1 32
1 33
1 34
1 35
1 36
1 37
1 38
1 39
1 40
1 41
1 42
1 43
1 44
1 45
CELL_TYPES 46
1
1
1
1
1
1
1
1
1
1
1
1
1
1
1
1
1
1
1
1
1
1
1
1
1
1
1
1
1
1
1
1
1
1
1
1
1
1
1
1
1
1
1
1
1
1
POINT_DATA 46
VECTORS Real_Arrow_1.000000e+02(Hz) float
  -5.370679e-02  -8.838164e-02   0.000000e+00
  -1.459640e-01   1.877371e-01   0.000000e+00
  -7.469952e-02   1.264529e-01   0.000000e+00
   4.578938e-02  -1.819319e-01   0.000000e+00
  -8.534968e-03  -1.136585e-01   0.000000e+00
   2.396047e-02   1.060166e-02   0.000000e+00
   5.931074e-02  -3.075118e-02   0.000000e+00
  -6.571246e-02   3.342427e-02   0.000000e+00
   0.000000e+00   0.000000e+00   0.000000e+00
   9.721124e-02  -2.775973e-02   0.000000e+00
  -5.151448e-02   5.375050e-04   0.000000e+00
  -5.450095e-02   1.157242e-02   0.000000e+00
   0.000000e+00   0.000000e+00   0.000000e+00
   5.128689e-02   1.258018e-01   0.000000e+00
   6.145864e-02   3.891295e-02   0.000000e+00
   1.394430e-01   1.488442e-02   0.000000e+00
  -1.543895e-01  -2.782664e-01   0.000000e+00
   1.862016e-02   8.084109e-02   0.000000e+00
   0.000000e+00   0.000000e+00   0.000000e+00
   1.059043e-01   3.540841e-02   0.000000e+00
  -1.079093e-01   2.972662e-02   0.000000e+00
   5.129680e-03  -5.823322e-02   0.000000e+00
  -6.815775e-02   8.238008e-02   0.000000e+00
   3.443893e-02  -1.243971e-01   0.000000e+00
   0.000000e+00   0.000000e+00   0.000000e+00
  -4.340500e-03  -7.392728e-02   0.000000e+00
   6.514465e-02   1.065974e-01   0.000000e+00
   4.731807e-02   1.237403e-01   0.000000e+00
   2.795677e-02   3.639617e-03   0.000000e+00
   1.067929e-01  -1.366002e-01   0.000000e+00
   4.691723e-02  -4.071254e-02   0.000000e+00
  -2.874841e-02  -3.079409e-02   0.000000e+00
   7.629549e-02   7.661717e-02   0.000000e+00
   1.172318e-01   1.724566e-01   0.000000e+00
   6.375692e-02  -1.539040e-01   0.000000e+00
   6.584135e-02  -1.836040e-01   0.000000e+00
   4.890243e-02   2.582264e-01   0.000000e+00
   0.000000e+00   0.000000e+00   0.000000e+00
  -1.065942e-01  -4.040941e-02   0.000000e+00
   8.292556e-02  -8.587927e-02   0.000000e+00
   0.000000e+00   0.000000e+00   0.000000e+00
  -2.444998e-02   1.610787e-02   0.000000e+00
  -1.493656e-01  -6.205401e-02   0.000000e+00
   8.016366e-02  -3.682913e-02   0.000000e+00
   1.240241e-02   3.244740e-01   0.000000e+00
   1.577231e-02   8.135494e-02   0.000000e+00
VECTORS Imag_Arrow_1.000000e+02(Hz) float
  -2.021161e-03  -5.007321e-02   0.000000e+00
   1.470658e-02  -3.937416e-02   0.000000e+00
   2.588282e-02  -7.525995e-03   0.000000e+00
  -7.225779e-03  -1.454081e-01   0.000000e+00
  -3.961698e-02  -4.772544e-02   0.000000e+00
  -3.407862e-02   1.963082e-02   0.000000e+00
   4.005967e-02  -8.545102e-02   0.000000e+00
  -1.926630e-02   2.270348e-02   0.000000e+00
   0.000000e+00   0.000000e+00   0.000000e+00
  -1.862032e-02  -2.969556e-02   0.000000e+00
  -4.985961e-02   2.689138e-02   0.000000e+00
  -1.350898e-02   1.071327e-02   0.000000e+00
   0.000000e+00   0.000000e+00   0.000000e+00
  -1.876256e-01   1.476789e-03   0.000000e+00
   2.069233e-02  -1.333065e-02   0.000000e+00
  -5.809087e-02   2.736806e-02   0.000000e+00
   2.054969e-02   5.108332e-02   0.000000e+00
   2.815431e-02  -3.967336e-02   0.000000e+00
   0.000000e+00   0.000000e+00   0.000000e+00
   1.135568e-02  -1.169217e-02   0.000000e+00
  -1.475029e-02  -2.081734e-02   0.000000e+00
  -2.155552e-02  -1.713389e-02   0.000000e+00
   4.465138e-03  -4.372666e-02   0.000000e+00
  -5.286608e-02  -7.149556e-03   0.000000e+00
   0.000000e+00   0.000000e+00   0.000000e+00
   4.018143e-03   3.832342e-02   0.000000e+00
  -9.296676e-02  -6.672858e-02   0.000000e+00
  -3.569898e-02  -4.308840e-02   0.000000e+00
  -3.397338e-02   1.703291e-02   0.000000e+00
   2.747835e-02   2.439950e-03   0.000000e+00
  -3.357912e-02   1.961266e-02   0.000000e+00
  -7.387645e-02   1.182597e-02   0.000000e+00
   7.387342e-03   1.478149e-02   0.000000e+00
   1.289789e-01   1.251867e-01   0.000000e+00
   2.380220e-02  -7.372755e-02   0.000000e+00
  -1.310722e-01  -4.562548e-02   0.000000e+00
  -4.517609e-02   6.775314e-02   0.000000e+00
   0.000000e+00   0.000000e+00   0.000000e+00
  -7.197956e-02  -1.479755e-01   0.000000e+00
  -4.355800e-02   1.517600e-01   0.000000e+00
   0.000000e+00   0.000000e+00   0.000000e+00
  -2.126609e-02   2.095030e-03   0.000000e+00
   1.368870e-02   4.806277e-02   0.000000e+00
  -8.404314e-02  -3.051803e-02   0.000000e+00
  -7.958535e-02  -5.669806e-02   0.000000e+00
   6.265687e-02  -8.061316e-02   0.000000e+00
VECTORS Real_Arrow_1.584800e+02(Hz) float
  -5.104551e-02  -6.669254e-02   0.000000e+00
  -1.480320e-01   1.981633e-01   0.000000e+00
  -8.357745e-02   1.228296e-01   0.000000e+00
   4.610154e-02  -1.435012e-01   0.000000e+00
   4.803848e-03  -9.169536e-02   0.000000e+00
   3.052040e-02  -3.563802e-04   0.000000e+00
   3.944283e-02   6.014135e-03   0.000000e+00
  -5.424147e-02   3.642874e-02   0.000000e+00
   0.000000e+00   0.000000e+00   0.000000e+00
   8.169884e-02  -1.643444e-02   0.000000e+00
  -4.121383e-02  -6.572040e-03   0.000000e+00
  -5.655351e-02   9.540691e-03   0.000000e+00
   0.000000e+00   0.000000e+00   0.000000e+00
   1.075802e-01   1.104461e-01   0.000000e+00
   4.661104e-02   4.355115e-02   0.000000e+00
   1.464430e-01   1.661052e-03   0.000000e+00
  -1.597030e-01  -2.901690e-01   0.000000e+00
   4.520665e-03   1.010299e-01   0.000000e+00
   0.000000e+00   0.000000e+00   0.000000e+00
   9.087128e-02   3.751947e-02   0.000000e+00
  -1.028789e-01   3.649115e-02   0.000000e+00
  -7.628238e-04  -4.637022e-02   0.000000e+00
  -7.275019e-02   1.022540e-01   0.000000e+00
   4.923428e-02  -1.252909e-01   0.000000e+00
   0.000000e+00   0.000000e+00   0.000000e+00
  -1.042617e-02  -7.843334e-02   0.000000e+00
   9.055750e-02   1.238281e-01   0.000000e+00
   5.251437e-02   1.326472e-01   0.000000e+00
   4.073876e-02   3.640090e-03   0.000000e+00
   8.334706e-02  -1.212534e-01   0.000000e+00
   5.468727e-02  -4.423411e-02   0.000000e+00
  -4.736800e-03  -3.229399e-02   0.000000e+00
   7.677088e-02   7.085914e-02   0.000000e+00
   6.309248e-02   1.103269e-01   0.000000e+00
   5.111051e-02  -1.130527e-01   0.000000e+00
   9.405167e-02  -1.588843e-01   0.000000e+00
   4.960917e-02   2.103622e-01   0.000000e+00
   0.000000e+00   0.000000e+00   0.000000e+00
  -8.116363e-02  -7.356342e-03   0.000000e+00
   9.441658e-02  -1.206477e-01   0.000000e+00
   0.000000e+00   0.000000e+00   0.000000e+00
  -1.274122e-02   1.199153e-02   0.000000e+00
  -1.487531e-01  -7.661641e-02   0.000000e+00
   9.082974e-02  -2.583795e-02   0.000000e+00
   3.303465e-02   3.333427e-01   0.000000e+00
  -8.129138e-03   1.023895e-01   0.000000e+00
VECTORS Imag_Arrow_1.584800e+02(Hz) float
  -9.607434e-03  -5.035449e-02   0.000000e+00
  -1.074755e-02  -8.604588e-03   0.000000e+00
   1.558891e-02   1.106515e-02   0.000000e+00
  -1.279162e-02  -1.296751e-01   0.000000e+00
  -3.717470e-02  -5.761999e-02   0.000000e+00
  -2.213912e-02   2.186040e-02   0.000000e+00
   4.008849e-02  -7.585065e-02   0.000000e+00
  -4.696125e-02   2.453433e-02   0.000000e+00
   0.000000e+00   0.000000e+00   0.000000e+00
   1.392066e-02  -3.085268e-02   0.000000e+00
  -3.640221e-02   2.478476e-02   0.000000e+00
  -8.652580e-03   2.530739e-03   0.000000e+00
   0.000000e+00   0.000000e+00   0.000000e+00
  -1.529656e-01   2.403676e-02   0.000000e+00
   2.651794e-02  -5.047968e-03   0.000000e+00
  -2.965588e-02   2.984024e-02   0.000000e+00
   1.292321e-02   1.635380e-02   0.000000e+00
   3.342687e-02  -3.501245e-02   0.000000e+00
   0.000000e+00   0.000000e+00   0.000000e+00
   1.458991e-02  -5.786114e-03   0.000000e+00
  -1.697819e-02  -1.804519e-02   0.000000e+00
   4.977735e-03  -7.632115e-03   0.000000e+00
   9.924552e-03  -3.452802e-02   0.000000e+00
  -4.694937e-02  -1.601560e-02   0.000000e+00
   0.000000e+00   0.000000e+00   0.000000e+00
   8.976284e-03   3.700919e-03   0.000000e+00
  -7.975760e-02  -4.181689e-02   0.000000e+00
  -1.859204e-02  -2.721785e-02   0.000000e+00
  -2.551549e-02   2.753493e-02   0.000000e+00
   2.778252e-02  -1.260165e-02   0.000000e+00
  -1.471815e-02   1.845609e-02   0.000000e+00
  -5.902462e-02  -6.947798e-03   0.000000e+00
   1.748019e-03   1.630179e-02   0.000000e+00
   1.270253e-01   1.422463e-01   0.000000e+00
   3.792023e-02  -9.023429e-02   0.000000e+00
  -9.546305e-02  -5.324116e-02   0.000000e+00
  -2.190918e-02   8.723921e-02   0.000000e+00
   0.000000e+00   0.000000e+00   0.000000e+00
  -8.088476e-02  -1.098431e-01   0.000000e+00
  -3.602662e-02   1.056690e-01   0.000000e+00
   0.000000e+00   0.000000e+00   0.000000e+00
  -2.866342e-02   1.406715e-02   0.000000e+00
  -1.520488e-02   3.040738e-02   0.000000e+00
  -6.134726e-02  -4.530976e-02   0.000000e+00
  -6.999500e-02  -1.360759e-02   0.000000e+00
   4.181803e-02  -5.780779e-02   0.000000e+00
VECTORS Real_Arrow_2.511800e+02(Hz) float
  -4.463568e-02  -4.887746e-02   0.000000e+00
  -1.362705e-01   1.916071e-01   0.000000e+00
  -8.793913e-02   1.125840e-01   0.000000e+00
   5.182946e-02  -1.116508e-01   0.000000e+00
   1.669678e-02  -6.689909e-02   0.000000e+00
   3.030606e-02  -8.827598e-03   0.000000e+00
   2.193471e-02   3.340171e-02   0.000000e+00
  -2.677538e-02   2.990045e-02   0.000000e+00
   0.000000e+00   0.000000e+00   0.000000e+00
   6.034403e-02  -4.440554e-03   0.000000e+00
  -3.566143e-02  -1.530273e-02   0.000000e+00
  -5.634326e-02   1.053546e-02   0.000000e+00
   4.805432e-02   2.797303e-01   0.000000e+00
   1.455522e-01   9.109574e-02   0.000000e+00
   3.411159e-02   4.244004e-02   0.000000e+00
   1.466939e-01  -1.015325e-02   0.000000e+00
  -1.643253e-01  -2.884444e-01   0.000000e+00
  -1.153668e-02   1.187008e-01   0.000000e+00
   0.000000e+00   0.000000e+00   0.000000e+00
   7.970871e-02   3.724379e-02   0.000000e+00
  -9.654747e-02   4.184993e-02   0.000000e+00
  -1.332495e-02  -4.631719e-02   0.000000e+00
  -8.080161e-02   1.129951e-01   0.000000e+00
   6.276729e-02  -1.203671e-01   0.000000e+00
   0.000000e+00   0.000000e+00   0.000000e+00
  -1.623470e-02  -6.466400e-02   0.000000e+00
   1.113797e-01   1.332460e-01   0.000000e+00
   5.054060e-02   1.375880e-01   0.000000e+00
   4.858440e-02  -3.954514e-03   0.000000e+00
   6.956639e-02  -1.067511e-01   0.000000e+00
   5.070202e-02  -4.862134e-02   0.000000e+00
   1.301612e-02  -2.115579e-02   0.000000e+00
   7.758724e-02   6.589513e-02   0.000000e+00
   1.732823e-02   5.136335e-02   0.000000e+00
   0.000000e+00   0.000000e+00   0.000000e+00
   1.084409e-01  -1.355431e-01   0.000000e+00
   4.338267e-02   1.659925e-01   0.000000e+00
   0.000000e+00   0.000000e+00   0.000000e+00
  -5.107622e-02   1.310383e-02   0.000000e+00
   1.016554e-01  -1.304841e-01   0.000000e+00
  -5.164989e-02  -1.697568e-01   0.000000e+00
   2.144596e-03   2.618701e-05   0.000000e+00
  -1.348455e-01  -8.159330e-02   0.000000e+00
   9.729188e-02  -5.083617e-03   0.000000e+00
   5.167555e-02   3.255990e-01   0.000000e+00
  -1.186014e-02   1.098998e-01   0.000000e+00
VECTORS Imag_Arrow_2.511800e+02(Hz) float
  -1.287766e-02  -4.668776e-02   0.000000e+00
  -3.216945e-02   1.968427e-02   0.000000e+00
   4.501416e-03   2.291551e-02   0.000000e+00
  -1.778136e-02  -1.200117e-01   0.000000e+00
  -3.085064e-02  -6.174660e-02   0.000000e+00
  -1.501452e-02   2.071227e-02   0.000000e+00
   3.062656e-02  -5.275057e-02   0.000000e+00
  -6.203115e-02   3.605272e-02   0.000000e+00
   0.000000e+00   0.000000e+00   0.000000e+00
   2.735732e-02  -2.839257e-02   0.000000e+00
  -2.735641e-02   2.141935e-02   0.000000e+00
  -6.992239e-03  -3.389014e-03   0.000000e+00
   4.537098e-02   2.013840e-01   0.000000e+00
  -1.183016e-01   3.542503e-02   0.000000e+00
   2.798615e-02   1.201102e-03   0.000000e+00
  -8.070300e-03   2.786173e-02   0.000000e+00
   4.157591e-03  -1.696365e-02   0.000000e+00
   3.202814e-02  -1.972130e-02   0.000000e+00
   0.000000e+00   0.000000e+00   0.000000e+00
   9.386621e-03  -3.245174e-03   0.000000e+00
  -1.876003e-02  -1.455245e-02   0.000000e+00
   1.935710e-02   5.343448e-03   0.000000e+00
   1.081528e-02  -2.007556e-02   0.000000e+00
  -3.980823e-02  -2.900805e-02   0.000000e+00
   0.000000e+00   0.000000e+00   0.000000e+00
   1.275848e-02  -1.794454e-02   0.000000e+00
  -6.940181e-02  -1.467060e-02   0.000000e+00
  -7.248079e-03  -1.149119e-02   0.000000e+00
  -1.310666e-02   4.569296e-02   0.000000e+00
   1.689767e-02  -1.090430e-02   0.000000e+00
   1.681738e-03   1.991472e-02   0.000000e+00
  -3.953821e-02  -1.981440e-02   0.000000e+00
  -2.423050e-03   1.767967e-02   0.000000e+00
   1.136743e-01   1.393276e-01   0.000000e+00
   0.000000e+00   0.000000e+00   0.000000e+00
  -7.123987e-02  -5.038480e-02   0.000000e+00
  -9.753276e-03   7.768683e-02   0.000000e+00
   0.000000e+00   0.000000e+00   0.000000e+00
  -8.522842e-02  -8.323701e-02   0.000000e+00
  -2.741336e-02   7.475421e-02   0.000000e+00
   8.497560e-03   2.248650e-02   0.000000e+00
  -2.674477e-02   1.961071e-02   0.000000e+00
  -4.065400e-02   1.210001e-02   0.000000e+00
  -5.299037e-02  -5.574408e-02   0.000000e+00
  -6.394561e-02   2.697536e-02   0.000000e+00
   2.016411e-02  -3.694629e-02   0.000000e+00
VECTORS Real_Arrow_3.981000e+02(Hz) float
  -3.845890e-02  -3.369021e-02   0.000000e+00
  -1.158526e-01   1.733157e-01   0.000000e+00
  -8.724952e-02   1.008578e-01   0.000000e+00
   6.016171e-02  -7.990213e-02   0.000000e+00
   2.491864e-02  -4.175455e-02   0.000000e+00
   2.807488e-02  -1.390095e-02   0.000000e+00
   1.427218e-02   4.286720e-02   0.000000e+00
   9.987930e-04   1.419686e-02   0.000000e+00
   0.000000e+00   0.000000e+00   0.000000e+00
   4.311892e-02   5.094590e-03   0.000000e+00
  -3.149975e-02  -2.298373e-02   0.000000e+00
  -5.386242e-02   1.232695e-02   0.000000e+00
   4.062792e-02   2.050410e-01   0.000000e+00
   1.690734e-01   7.076838e-02   0.000000e+00
   2.350932e-02   4.007337e-02   0.000000e+00
   1.424577e-01  -1.949907e-02   0.000000e+00
  -1.674457e-01  -2.763162e-01   0.000000e+00
  -2.448261e-02   1.255677e-01   0.000000e+00
   2.641319e-01  -1.702667e-01   0.000000e+00
   7.453005e-02   3.812652e-02   0.000000e+00
  -8.926340e-02   4.572486e-02   0.000000e+00
  -2.539619e-02  -5.279168e-02   0.000000e+00
  -8.739023e-02   1.150093e-01   0.000000e+00
   7.412546e-02  -1.075237e-01   0.000000e+00
  -2.489478e-02  -4.217356e-02   0.000000e+00
  -2.256741e-02  -4.944258e-02   0.000000e+00
   1.309702e-01   1.314970e-01   0.000000e+00
   4.569879e-02   1.372785e-01   0.000000e+00
   4.964206e-02  -2.439100e-02   0.000000e+00
   6.532292e-02  -1.009156e-01   0.000000e+00
   3.996757e-02  -5.468784e-02   0.000000e+00
   2.063262e-02  -8.637913e-03   0.000000e+00
   7.817002e-02   6.115788e-02   0.000000e+00
  -1.888131e-02   1.942304e-03   0.000000e+00
   0.000000e+00   0.000000e+00   0.000000e+00
   1.199065e-01  -1.176298e-01   0.000000e+00
   3.609608e-02   1.450238e-01   0.000000e+00
   0.000000e+00   0.000000e+00   0.000000e+00
  -1.976326e-02   3.059247e-02   0.000000e+00
   1.062245e-01  -1.367134e-01   0.000000e+00
  -5.762933e-02  -1.745128e-01   0.000000e+00
   1.248844e-02  -1.185180e-02   0.000000e+00
  -1.115267e-01  -7.833878e-02   0.000000e+00
   1.084668e-01   1.724033e-02   0.000000e+00
   7.075668e-02   3.023865e-01   0.000000e+00
  -6.073547e-03   1.098459e-01   0.000000e+00
VECTORS Imag_Arrow_3.981000e+02(Hz) float
  -1.272594e-02  -4.130176e-02   0.000000e+00
  -4.470447e-02   3.917815e-02   0.000000e+00
  -7.501115e-03   2.970491e-02   0.000000e+00
  -1.991289e-02  -1.157560e-01   0.000000e+00
  -2.349711e-02  -5.814997e-02   0.000000e+00
  -1.526655e-02   1.893854e-02   0.000000e+00
   1.570195e-02  -2.545545e-02   0.000000e+00
  -6.351423e-02   4.399641e-02   0.000000e+00
   0.000000e+00   0.000000e+00   0.000000e+00
   2.862501e-02  -2.258694e-02   0.000000e+00
  -2.206584e-02   1.513319e-02   0.000000e+00
  -5.194823e-03  -8.569497e-03   0.000000e+00
   2.839793e-02   1.926132e-01   0.000000e+00
  -8.959231e-02   3.743862e-02   0.000000e+00
   2.677127e-02   4.673220e-03   0.000000e+00
   9.672780e-03   2.407409e-02   0.000000e+00
  -7.553386e-03  -4.735899e-02   0.000000e+00
   2.435016e-02   4.310944e-03   0.000000e+00
   3.459715e-02  -4.315754e-03   0.000000e+00
  -1.065422e-03  -2.039516e-03   0.000000e+00
  -1.911935e-02  -1.067375e-02   0.000000e+00
   2.710744e-02   1.348481e-02   0.000000e+00
   6.010819e-03  -6.598708e-03   0.000000e+00
  -3.182578e-02  -4.198558e-02   0.000000e+00
  -4.865199e-02   3.238038e-02   0.000000e+00
   1.417767e-02  -2.594069e-02   0.000000e+00
  -5.997591e-02   1.323653e-02   0.000000e+00
  -2.066875e-03   3.493742e-03   0.000000e+00
   4.285727e-04   6.427676e-02   0.000000e+00
   4.640183e-03  -2.560290e-03   0.000000e+00
   8.506586e-03   2.174921e-02   0.000000e+00
  -1.756985e-02  -2.196765e-02   0.000000e+00
  -6.410049e-03   1.970767e-02   0.000000e+00
   9.410577e-02   1.239359e-01   0.000000e+00
   0.000000e+00   0.000000e+00   0.000000e+00
  -5.775986e-02  -4.250267e-02   0.000000e+00
  -8.858413e-03   5.624072e-02   0.000000e+00
   0.000000e+00   0.000000e+00   0.000000e+00
  -8.300791e-02  -6.372284e-02   0.000000e+00
  -2.307554e-02   6.417093e-02   0.000000e+00
   4.697350e-04   5.125702e-03   0.000000e+00
  -1.842788e-02   1.614634e-02   0.000000e+00
  -5.795741e-02  -2.416536e-03   0.000000e+00
  -5.231952e-02  -5.786498e-02   0.000000e+00
  -5.756048e-02   5.959515e-02   0.000000e+00
   1.248700e-02  -2.774316e-02   0.000000e+00
VECTORS Real_Arrow_6.309500e+02(Hz) float
  -3.346397e-02  -2.123954e-02   0.000000e+00
  -9.401573e-02   1.504165e-01   0.000000e+00
  -8.076231e-02   8.866307e-02   0.000000e+00
   6.890964e-02  -4.582014e-02   0.000000e+00
   3.027059e-02  -2.132131e-02   0.000000e+00
   2.898041e-02  -1.650128e-02   0.000000e+00
   1.623504e-02   3.814067e-02   0.000000e+00
   2.463610e-02  -3.358403e-03   0.000000e+00
   0.000000e+00   0.000000e+00   0.000000e+00
   3.175715e-02   1.063753e-02   0.000000e+00
  -2.774230e-02  -2.760169e-02   0.000000e+00
  -5.139416e-02   1.536772e-02   0.000000e+00
   3.674572e-02   1.441468e-01   0.000000e+00
   1.840535e-01   5.432100e-02   0.000000e+00
   1.514965e-02   3.774620e-02   0.000000e+00
   1.334158e-01  -2.688181e-02   0.000000e+00
  -1.669008e-01  -2.548704e-01   0.000000e+00
  -3.168089e-02   1.182150e-01   0.000000e+00
   2.443727e-01  -1.637709e-01   0.000000e+00
   7.648104e-02   3.983123e-02   0.000000e+00
  -8.202669e-02   4.806270e-02   0.000000e+00
  -3.774754e-02  -6.077548e-02   0.000000e+00
  -8.955770e-02   1.119193e-01   0.000000e+00
   8.307054e-02  -8.773339e-02   0.000000e+00
  -9.125623e-03  -3.729675e-02   0.000000e+00
  -2.777051e-02  -3.692283e-02   0.000000e+00
   1.486824e-01   1.186701e-01   0.000000e+00
   4.016577e-02   1.327139e-01   0.000000e+00
   4.346260e-02  -5.470022e-02   0.000000e+00
   6.639988e-02  -1.017352e-01   0.000000e+00
   3.080909e-02  -6.156141e-02   0.000000e+00
   1.791655e-02  -1.217441e-03   0.000000e+00
   7.859076e-02   5.568903e-02   0.000000e+00
  -4.541700e-02  -3.661533e-02   0.000000e+00
  -1.030380e-02  -1.161243e-02   0.000000e+00
   1.315822e-01  -1.036218e-01   0.000000e+00
   3.496934e-02   1.390312e-01   0.000000e+00
   0.000000e+00   0.000000e+00   0.000000e+00
   9.000427e-03   4.510747e-02   0.000000e+00
   1.120415e-01  -1.467880e-01   0.000000e+00
  -5.717012e-02  -1.720304e-01   0.000000e+00
   1.684863e-02  -1.832488e-02   0.000000e+00
  -8.465338e-02  -7.077904e-02   0.000000e+00
   1.242432e-01   3.652575e-02   0.000000e+00
   8.742221e-02   2.694913e-01   0.000000e+00
  -4.631371e-03   1.137979e-01   0.000000e+00
VECTORS Imag_Arrow_6.309500e+02(Hz) float
  -1.107214e-02  -3.435459e-02   0.000000e+00
  -4.704318e-02   4.740262e-02   0.000000e+00
  -1.811100e-02   3.379309e-02   0.000000e+00
  -1.879279e-02  -1.127448e-01   0.000000e+00
  -1.654729e-02  -4.766926e-02   0.000000e+00
  -2.208879e-02   1.986683e-02   0.000000e+00
   5.219804e-03  -7.635238e-03   0.000000e+00
  -5.912429e-02   4.633187e-02   0.000000e+00
   0.000000e+00   0.000000e+00   0.000000e+00
   2.572062e-02  -1.595281e-02   0.000000e+00
  -1.891583e-02   6.617419e-03   0.000000e+00
  -1.211827e-03  -1.399654e-02   0.000000e+00
   1.596637e-02   1.740437e-01   0.000000e+00
  -7.005726e-02   3.041657e-02   0.000000e+00
   2.434760e-02   7.338191e-03   0.000000e+00
   2.461132e-02   1.935915e-02   0.000000e+00
  -2.369469e-02  -7.561638e-02   0.000000e+00
   1.375960e-02   2.891788e-02   0.000000e+00
   3.765539e-02  -9.998830e-03   0.000000e+00
  -1.273048e-02   1.674537e-04   0.000000e+00
  -1.770245e-02  -6.931662e-03   0.000000e+00
   3.206630e-02   1.758849e-02   0.000000e+00
  -1.764733e-03   2.909002e-03   0.000000e+00
  -2.275989e-02  -5.071110e-02   0.000000e+00
  -4.597599e-02   6.300754e-03   0.000000e+00
   1.401750e-02  -2.905073e-02   0.000000e+00
  -4.872658e-02   3.724248e-02   0.000000e+00
  -2.611423e-03   1.658049e-02   0.000000e+00
   1.187717e-02   7.351342e-02   0.000000e+00
  -5.772138e-03   5.681735e-03   0.000000e+00
   5.613265e-03   2.321966e-02   0.000000e+00
   3.774430e-05  -2.088598e-02   0.000000e+00
  -1.174032e-02   2.294634e-02   0.000000e+00
   7.192212e-02   1.027474e-01   0.000000e+00
   5.082552e-02  -7.486635e-02   0.000000e+00
  -4.827285e-02  -3.311663e-02   0.000000e+00
  -1.615958e-02   4.699700e-02   0.000000e+00
   0.000000e+00   0.000000e+00   0.000000e+00
  -7.444953e-02  -4.488880e-02   0.000000e+00
  -1.984762e-02   6.207402e-02   0.000000e+00
  -9.961910e-03  -1.131404e-02   0.000000e+00
  -8.852193e-03   7.765359e-03   0.000000e+00
  -6.567062e-02  -1.108148e-02   0.000000e+00
  -5.183297e-02  -5.648682e-02   0.000000e+00
  -4.855771e-02   8.040288e-02   0.000000e+00
   1.416497e-02  -2.644615e-02   0.000000e+00
VECTORS Real_Arrow_1.000000e+03(Hz) float
  -2.911342e-02  -1.192671e-02   0.000000e+00
  -7.593697e-02   1.291704e-01   0.000000e+00
  -7.015704e-02   7.592081e-02   0.000000e+00
   7.647861e-02  -1.007167e-02   0.000000e+00
   3.303011e-02  -8.389602e-03   0.000000e+00
   3.615673e-02  -2.002940e-02   0.000000e+00
   1.947711e-02   3.140564e-02   0.000000e+00
   4.531311e-02  -2.056026e-02   0.000000e+00
   0.000000e+00   0.000000e+00   0.000000e+00
   2.408607e-02   1.313991e-02   0.000000e+00
  -2.445785e-02  -2.808330e-02   0.000000e+00
  -5.078730e-02   1.969788e-02   0.000000e+00
   3.429597e-02   9.541609e-02   0.000000e+00
   1.962512e-01   4.682871e-02   0.000000e+00
   0.000000e+00   0.000000e+00   0.000000e+00
   1.197715e-01  -3.214888e-02   0.000000e+00
  -1.591856e-01  -2.231620e-01   0.000000e+00
  -3.336916e-02   1.002965e-01   0.000000e+00
   0.000000e+00   0.000000e+00   0.000000e+00
   8.363016e-02   4.123380e-02   0.000000e+00
  -7.541105e-02   4.924213e-02   0.000000e+00
  -5.068594e-02  -6.944621e-02   0.000000e+00
  -8.670927e-02   1.065437e-01   0.000000e+00
   0.000000e+00   0.000000e+00   0.000000e+00
   4.380205e-03  -2.529513e-02   0.000000e+00
  -3.208924e-02  -2.508152e-02   0.000000e+00
   1.621099e-01   9.853174e-02   0.000000e+00
   3.620674e-02   1.253137e-01   0.000000e+00
   3.153712e-02  -8.405748e-02   0.000000e+00
   7.035501e-02  -1.067656e-01   0.000000e+00
   2.761014e-02  -6.918873e-02   0.000000e+00
   1.178099e-02   4.660282e-03   0.000000e+00
   0.000000e+00   0.000000e+00   0.000000e+00
  -6.305131e-02  -6.514110e-02   0.000000e+00
   0.000000e+00   0.000000e+00   0.000000e+00
   1.415088e-01  -9.171411e-02   0.000000e+00
   4.082394e-02   1.305025e-01   0.000000e+00
   0.000000e+00   0.000000e+00   0.000000e+00
   0.000000e+00   0.000000e+00   0.000000e+00
   1.165094e-01  -1.581024e-01   0.000000e+00
   0.000000e+00   0.000000e+00   0.000000e+00
   0.000000e+00   0.000000e+00   0.000000e+00
  -5.916044e-02  -6.206366e-02   0.000000e+00
   1.412674e-01   5.456902e-02   0.000000e+00
   9.894661e-02   2.327482e-01   0.000000e+00
  -6.744046e-03   1.200716e-01   0.000000e+00
VECTORS Imag_Arrow_1.000000e+03(Hz) float
  -8.487247e-03  -2.684995e-02   0.000000e+00
  -4.308108e-02   4.694652e-02   0.000000e+00
  -2.486559e-02   3.579825e-02   0.000000e+00
  -1.490340e-02  -1.075689e-01   0.000000e+00
  -1.022559e-02  -3.462003e-02   0.000000e+00
  -3.150970e-02   2.492284e-02   0.000000e+00
   1.671775e-03  -8.358241e-04   0.000000e+00
  -5.100310e-02   4.489177e-02   0.000000e+00
   0.000000e+00   0.000000e+00   0.000000e+00
   2.249003e-02  -1.063904e-02   0.000000e+00
  -1.741583e-02  -2.678807e-03   0.000000e+00
   4.182643e-03  -1.956227e-02   0.000000e+00
   4.821113e-03   1.549516e-01   0.000000e+00
  -5.826014e-02   1.999994e-02   0.000000e+00
   0.000000e+00   0.000000e+00   0.000000e+00
   3.582963e-02   1.403738e-02   0.000000e+00
  -4.427112e-02  -1.006616e-01   0.000000e+00
   3.345693e-03   4.731515e-02   0.000000e+00
   0.000000e+00   0.000000e+00   0.000000e+00
  -2.207714e-02   4.152454e-03   0.000000e+00
  -1.477849e-02  -3.511567e-03   0.000000e+00
   3.421036e-02   1.873164e-02   0.000000e+00
  -9.720783e-03   8.607610e-03   0.000000e+00
   0.000000e+00   0.000000e+00   0.000000e+00
  -4.299869e-02  -5.418014e-03   0.000000e+00
   1.366532e-02  -2.971940e-02   0.000000e+00
  -3.527176e-02   5.469823e-02   0.000000e+00
  -9.205017e-03   2.849043e-02   0.000000e+00
   1.660090e-02   7.059520e-02   0.000000e+00
  -1.418297e-02   1.165300e-02   0.000000e+00
  -1.852874e-03   2.456864e-02   0.000000e+00
   1.094019e-02  -2.164936e-02   0.000000e+00
   0.000000e+00   0.000000e+00   0.000000e+00
   4.936310e-02   7.935010e-02   0.000000e+00
   0.000000e+00   0.000000e+00   0.000000e+00
  -4.077608e-02  -2.168117e-02   0.000000e+00
  -2.340002e-02   4.760312e-02   0.000000e+00
   0.000000e+00   0.000000e+00   0.000000e+00
   0.000000e+00   0.000000e+00   0.000000e+00
  -1.643800e-02   6.542005e-02   0.000000e+00
   0.000000e+00   0.000000e+00   0.000000e+00
   0.000000e+00   0.000000e+00   0.000000e+00
  -6.601198e-02  -1.455511e-02   0.000000e+00
  -4.859547e-02  -5.444604e-02   0.000000e+00
  -3.908567e-02   8.989536e-02   0.000000e+00
   1.715733e-02  -2.462202e-02   0.000000e+00
