# vtk DataFile Version 2.0
Induction_Arrow_Iter5_PE2
ASCII
DATASET UNSTRUCTURED_GRID
POINTS 46 float
  -2.052000e+03    1.667000e+03   -4.526633e+02
  -1.265000e+03    2.333000e+03   -4.555885e+02
  -9.840000e+02    2.568000e+03   -4.612271e+02
   1.700000e+03   -1.757000e+03   -5.237752e+02
  -1.152000e+03    1.382000e+03   -4.549280e+02
   3.187000e+03    1.067000e+03   -8.370176e+02
   4.716000e+03    9.370000e+02   -8.015281e+02
  -1.855000e+03    5.260000e+02   -5.147377e+02
  -1.420000e+02   -1.905000e+03   -4.746368e+02
  -5.800000e+01    1.069000e+03   -4.555494e+02
  -2.802000e+03    3.302000e+03   -4.314337e+02
  -5.640000e+03   -1.532000e+03   -4.911771e+02
  -8.030000e+02   -5.610000e+02   -5.280929e+02
   1.008000e+03    4.130000e+02   -5.983358e+02
   1.960000e+02    2.246000e+03   -5.219413e+02
  -3.457000e+03    8.320000e+02   -4.470735e+02
   5.640000e+03    2.452000e+03   -7.393049e+02
  -1.334000e+03    3.332000e+03   -4.456136e+02
   1.244000e+03    1.880000e+03   -6.331107e+02
  -2.680000e+02    2.144000e+03   -4.891390e+02
  -4.063000e+03    6.620000e+02   -4.746103e+02
  -1.258000e+03    6.330000e+02   -4.856841e+02
  -2.141000e+03    3.194000e+03   -4.348461e+02
  -3.469000e+03   -3.059000e+03   -6.067613e+02
  -1.604000e+03   -2.570000e+02   -5.141257e+02
  -1.454000e+03    2.220000e+02   -5.386025e+02
   1.864000e+03    1.270000e+02   -7.404291e+02
   2.449000e+03    5.590000e+02   -7.805292e+02
  -1.834000e+03   -1.554000e+03   -6.273074e+02
   1.807000e+03    2.297000e+03   -6.825557e+02
  -2.560000e+03   -1.783000e+03   -6.131337e+02
  -2.741000e+03   -5.010000e+02   -5.080000e+02
   2.884000e+03   -2.179000e+03   -5.274708e+02
  -6.120000e+02   -8.960000e+02   -5.895389e+02
  -1.985000e+03   -2.653000e+03   -5.598834e+02
  -3.390000e+03   -4.000000e+02   -4.982361e+02
   1.586000e+03    1.342000e+03   -6.618442e+02
   1.047000e+03    2.401000e+03   -5.426792e+02
   8.380000e+02   -1.300000e+03   -4.783644e+02
   2.569000e+03    2.441000e+03   -6.035668e+02
  -2.028000e+03    2.833000e+03   -4.322286e+02
  -1.086000e+03    1.998000e+03   -4.563301e+02
   1.514000e+03   -3.332000e+03   -5.646205e+02
   7.040000e+02    1.116000e+03   -5.365099e+02
   1.990000e+03    6.360000e+02   -7.085272e+02
   3.722000e+03   -1.700000e+02   -6.745213e+02
CELLS 46 92
1 0
1 1
1 2
1 3
1 4
1 5
1 6
1 7
1 8
1 9
1 10
1 11
1 12
1 13
1 14
1 15
1 16
1 17
1 18
1 19
1 20
1 21
1 22
1 23
1 24
1 25
1 26
1 27
1 28
1 29
1 30
1 31
1 32
1 33
1 34
1 35
1 36
1 37
1 38
1 39
1 40
1 41
1 42
1 43
1 44
1 45
CELL_TYPES 46
1
1
1
1
1
1
1
1
1
1
1
1
1
1
1
1
1
1
1
1
1
1
1
1
1
1
1
1
1
1
1
1
1
1
1
1
1
1
1
1
1
1
1
1
1
1
POINT_DATA 46
VECTORS Real_Arrow_6.309500e+00(Hz) float
  -1.090266e-01  -6.958378e-02   0.000000e+00
  -1.398068e-01   9.653799e-02   0.000000e+00
   0.000000e+00   0.000000e+00   0.000000e+00
  -1.283687e-02  -4.868780e-01   0.000000e+00
  -1.471615e-01  -7.688479e-02   0.000000e+00
  -5.527028e-02  -3.324685e-02   0.000000e+00
   8.656408e-02  -1.377871e-01   0.000000e+00
  -1.418226e-01   7.578236e-02   0.000000e+00
   1.980069e-01  -1.742388e-01   0.000000e+00
  -1.670822e-01  -5.915254e-02   0.000000e+00
  -1.820857e-01   1.047468e-01   0.000000e+00
  -2.222300e-01   1.479876e-02   0.000000e+00
   0.000000e+00   0.000000e+00   0.000000e+00
  -3.087350e-01  -6.365477e-02   0.000000e+00
  -7.039742e-02   4.927975e-02   0.000000e+00
   0.000000e+00   0.000000e+00   0.000000e+00
  -4.833305e-02  -5.786930e-02   0.000000e+00
   0.000000e+00   0.000000e+00   0.000000e+00
   3.971159e-03  -1.366178e-02   0.000000e+00
  -3.700478e-02   4.410053e-02   0.000000e+00
   0.000000e+00   0.000000e+00   0.000000e+00
  -1.957663e-01  -4.810941e-02   0.000000e+00
  -9.754085e-02   9.091926e-02   0.000000e+00
  -1.501126e-01  -1.278282e-01   0.000000e+00
   0.000000e+00   0.000000e+00   0.000000e+00
  -1.363124e-01   3.231192e-02   0.000000e+00
  -1.220058e-01  -1.466027e-01   0.000000e+00
  -7.282158e-02  -7.402741e-02   0.000000e+00
  -7.899960e-02  -1.787049e-02   0.000000e+00
  -2.268973e-02  -2.982998e-02   0.000000e+00
   0.000000e+00   0.000000e+00   0.000000e+00
  -2.350588e-01  -1.469966e-02   0.000000e+00
   1.800707e-01   7.767086e-02   0.000000e+00
   1.190201e-01   7.478196e-02   0.000000e+00
  -1.391259e-02  -1.049602e-01   0.000000e+00
  -2.928532e-01  -1.693816e-01   0.000000e+00
   0.000000e+00   0.000000e+00   0.000000e+00
  -1.012082e-01   5.331906e-02   0.000000e+00
  -1.971823e-01  -4.095224e-01   0.000000e+00
  -1.108159e-01   3.538538e-01   0.000000e+00
  -7.960577e-02   9.026691e-03   0.000000e+00
  -1.145656e-01   2.977462e-02   0.000000e+00
  -2.676342e-03   4.379245e-02   0.000000e+00
  -2.163597e-01  -4.808721e-02   0.000000e+00
  -1.453781e-01  -3.855701e-03   0.000000e+00
   7.762575e-02  -1.649385e-01   0.000000e+00
VECTORS Imag_Arrow_6.309500e+00(Hz) float
  -7.417386e-02   2.872439e-02   0.000000e+00
  -6.868368e-02  -3.371728e-02   0.000000e+00
   0.000000e+00   0.000000e+00   0.000000e+00
  -4.540982e-02  -4.350105e-02   0.000000e+00
  -7.968961e-02   2.592323e-02   0.000000e+00
   1.181344e-02  -6.258205e-02   0.000000e+00
   1.264789e-02  -2.547679e-02   0.000000e+00
  -9.662257e-02  -6.184481e-02   0.000000e+00
  -1.163091e-01  -1.564994e-02   0.000000e+00
  -9.156686e-02  -1.978902e-02   0.000000e+00
  -5.080412e-02   2.614387e-02   0.000000e+00
  -1.390408e-01  -9.432121e-02   0.000000e+00
   0.000000e+00   0.000000e+00   0.000000e+00
  -1.759133e-02  -1.010801e-01   0.000000e+00
  -9.825103e-02  -5.017841e-03   0.000000e+00
   0.000000e+00   0.000000e+00   0.000000e+00
   8.234786e-02   5.737600e-02   0.000000e+00
   0.000000e+00   0.000000e+00   0.000000e+00
  -1.436706e-01   2.198719e-02   0.000000e+00
  -1.139230e-01  -5.301197e-03   0.000000e+00
   0.000000e+00   0.000000e+00   0.000000e+00
  -8.028475e-02  -1.424422e-02   0.000000e+00
  -5.431169e-02   1.283242e-02   0.000000e+00
  -7.392681e-02  -5.302877e-03   0.000000e+00
   0.000000e+00   0.000000e+00   0.000000e+00
  -9.092606e-02  -4.748247e-02   0.000000e+00
  -2.009161e-02  -9.814418e-02   0.000000e+00
  -1.044100e-02  -1.031839e-01   0.000000e+00
  -6.578766e-02  -5.917884e-02   0.000000e+00
  -8.664541e-02   1.283226e-02   0.000000e+00
   0.000000e+00   0.000000e+00   0.000000e+00
  -6.131852e-02  -4.962212e-02   0.000000e+00
  -1.651239e-02  -7.247315e-02   0.000000e+00
  -1.318416e-01  -1.636910e-01   0.000000e+00
  -7.339227e-02   1.311833e-02   0.000000e+00
  -5.430488e-02   2.517952e-02   0.000000e+00
   0.000000e+00   0.000000e+00   0.000000e+00
  -8.559483e-02  -2.127768e-02   0.000000e+00
  -2.605793e-03  -3.805301e-02   0.000000e+00
  -9.584059e-02   4.845858e-02   0.000000e+00
  -5.893133e-02   5.778945e-02   0.000000e+00
  -8.713917e-02  -2.679173e-03   0.000000e+00
   2.925475e-02  -2.724914e-02   0.000000e+00
  -7.231133e-02  -2.364166e-02   0.000000e+00
  -5.002484e-03  -1.547059e-01   0.000000e+00
  -9.939392e-03  -9.482916e-02   0.000000e+00
VECTORS Real_Arrow_1.000000e+01(Hz) float
  -6.956238e-02  -9.116124e-02   0.000000e+00
  -9.962963e-02   9.370685e-02   0.000000e+00
   0.000000e+00   0.000000e+00   0.000000e+00
   9.131009e-03  -4.646519e-01   0.000000e+00
  -1.061553e-01  -9.677214e-02   0.000000e+00
  -5.949836e-02  -9.600537e-03   0.000000e+00
   8.297947e-02  -1.323420e-01   0.000000e+00
  -8.815985e-02   9.854933e-02   0.000000e+00
   2.508339e-01  -1.667036e-01   0.000000e+00
  -1.240278e-01  -5.884765e-02   0.000000e+00
  -1.654677e-01   7.914435e-02   0.000000e+00
  -1.482649e-01   5.768513e-02   0.000000e+00
   0.000000e+00   0.000000e+00   0.000000e+00
  -3.002659e-01  -2.338558e-02   0.000000e+00
   0.000000e+00   0.000000e+00   0.000000e+00
  -8.697404e-02   2.354948e-02   0.000000e+00
  -8.067496e-02  -8.330532e-02   0.000000e+00
   3.459111e-02   6.124894e-02   0.000000e+00
   6.999928e-02  -2.623686e-02   0.000000e+00
   1.626047e-02   3.326643e-02   0.000000e+00
   0.000000e+00   0.000000e+00   0.000000e+00
  -1.541903e-01  -4.735694e-02   0.000000e+00
  -7.468073e-02   6.716067e-02   0.000000e+00
  -1.064523e-01  -1.227075e-01   0.000000e+00
   0.000000e+00   0.000000e+00   0.000000e+00
  -8.758704e-02   5.132281e-02   0.000000e+00
  -1.125859e-01  -1.072838e-01   0.000000e+00
  -6.686876e-02  -3.355591e-02   0.000000e+00
  -4.397972e-02   1.000980e-02   0.000000e+00
   0.000000e+00   0.000000e+00   0.000000e+00
   0.000000e+00   0.000000e+00   0.000000e+00
  -1.997400e-01   1.017274e-02   0.000000e+00
   1.652128e-01   9.408471e-02   0.000000e+00
   1.859167e-01   1.488673e-01   0.000000e+00
   2.342789e-02  -1.107097e-01   0.000000e+00
  -2.684315e-01  -1.756259e-01   0.000000e+00
   0.000000e+00   0.000000e+00   0.000000e+00
  -5.311291e-02   5.576666e-02   0.000000e+00
  -1.899325e-01  -3.965996e-01   0.000000e+00
  -5.586987e-02   3.062544e-01   0.000000e+00
  -5.414695e-02  -2.773967e-02   0.000000e+00
  -6.947261e-02   1.865267e-02   0.000000e+00
  -2.023812e-02   5.427373e-02   0.000000e+00
  -1.800549e-01  -4.486194e-02   0.000000e+00
  -1.415566e-01   5.525541e-02   0.000000e+00
   8.949835e-02  -1.253959e-01   0.000000e+00
VECTORS Imag_Arrow_1.000000e+01(Hz) float
  -7.347575e-02   3.762651e-02   0.000000e+00
  -6.103691e-02  -2.296623e-02   0.000000e+00
   0.000000e+00   0.000000e+00   0.000000e+00
  -4.793846e-02  -9.358949e-02   0.000000e+00
  -9.091058e-02   3.707227e-02   0.000000e+00
  -5.583780e-03  -5.527601e-02   0.000000e+00
   1.029666e-02  -3.113769e-02   0.000000e+00
  -1.007629e-01  -3.190972e-02   0.000000e+00
  -8.273917e-02  -9.648439e-03   0.000000e+00
  -1.214743e-01  -1.416156e-02   0.000000e+00
  -5.174083e-02   4.920932e-02   0.000000e+00
  -1.355547e-01  -5.779068e-02   0.000000e+00
   0.000000e+00   0.000000e+00   0.000000e+00
  -7.629573e-02  -1.129226e-01   0.000000e+00
   0.000000e+00   0.000000e+00   0.000000e+00
  -1.174683e-01  -4.047498e-02   0.000000e+00
   8.012181e-02   8.382171e-02   0.000000e+00
  -5.096602e-02   2.525381e-02   0.000000e+00
  -1.712033e-01   5.202030e-02   0.000000e+00
  -1.200522e-01   1.031767e-02   0.000000e+00
   0.000000e+00   0.000000e+00   0.000000e+00
  -1.001125e-01   7.331509e-04   0.000000e+00
  -3.934904e-02   2.976269e-02   0.000000e+00
  -9.913747e-02  -6.755927e-03   0.000000e+00
   0.000000e+00   0.000000e+00   0.000000e+00
  -1.025065e-01  -1.739249e-02   0.000000e+00
  -4.832321e-02  -1.207932e-01   0.000000e+00
  -2.973395e-02  -1.142691e-01   0.000000e+00
  -6.892523e-02  -4.667536e-02   0.000000e+00
   0.000000e+00   0.000000e+00   0.000000e+00
   0.000000e+00   0.000000e+00   0.000000e+00
  -8.904570e-02  -3.734784e-02   0.000000e+00
   3.537011e-02  -4.083970e-02   0.000000e+00
  -1.102797e-01  -1.507314e-01   0.000000e+00
  -7.024038e-02   2.790288e-02   0.000000e+00
  -1.079206e-01   2.450901e-02   0.000000e+00
   0.000000e+00   0.000000e+00   0.000000e+00
  -1.057391e-01  -9.747037e-03   0.000000e+00
  -2.156387e-02  -9.443495e-02   0.000000e+00
  -1.188180e-01   1.363694e-01   0.000000e+00
  -4.767367e-02   8.006974e-02   0.000000e+00
  -8.930734e-02   1.385053e-02   0.000000e+00
   5.661076e-02   1.204874e-03   0.000000e+00
  -1.143667e-01  -1.531688e-02   0.000000e+00
  -3.278103e-02  -1.746124e-01   0.000000e+00
  -7.073650e-03  -1.175342e-01   0.000000e+00
VECTORS Real_Arrow_1.584800e+01(Hz) float
  -3.626063e-02  -1.158702e-01   0.000000e+00
  -7.075026e-02   8.833927e-02   0.000000e+00
   0.000000e+00   0.000000e+00   0.000000e+00
   2.975172e-02  -4.185798e-01   0.000000e+00
  -6.562041e-02  -1.209052e-01   0.000000e+00
  -5.381412e-02   1.031875e-02   0.000000e+00
   8.319830e-02  -1.252063e-01   0.000000e+00
  -4.112926e-02   1.014851e-01   0.000000e+00
   2.801244e-01  -1.668690e-01   0.000000e+00
  -6.895187e-02  -5.959186e-02   0.000000e+00
  -1.531117e-01   5.034455e-02   0.000000e+00
   0.000000e+00   0.000000e+00   0.000000e+00
   0.000000e+00   0.000000e+00   0.000000e+00
  -2.635052e-01   2.316682e-02   0.000000e+00
   0.000000e+00   0.000000e+00   0.000000e+00
  -3.912719e-02   3.709577e-02   0.000000e+00
  -1.088139e-01  -1.208740e-01   0.000000e+00
   4.817427e-02   3.795195e-02   0.000000e+00
   1.465065e-01  -5.558667e-02   0.000000e+00
   6.843376e-02   1.791130e-02   0.000000e+00
  -1.132659e-01   8.674915e-03   0.000000e+00
  -1.090951e-01  -5.571510e-02   0.000000e+00
  -6.627160e-02   4.034883e-02   0.000000e+00
  -5.841911e-02  -1.191498e-01   0.000000e+00
   0.000000e+00   0.000000e+00   0.000000e+00
  -3.948665e-02   5.165024e-02   0.000000e+00
  -9.056472e-02  -5.732053e-02   0.000000e+00
  -5.151327e-02   1.156025e-02   0.000000e+00
  -1.697477e-02   2.558437e-02   0.000000e+00
   0.000000e+00   0.000000e+00   0.000000e+00
   0.000000e+00   0.000000e+00   0.000000e+00
  -1.572564e-01   2.262167e-02   0.000000e+00
   1.235420e-01   9.537521e-02   0.000000e+00
   2.334581e-01   2.121457e-01   0.000000e+00
   5.115454e-02  -1.313579e-01   0.000000e+00
  -2.177622e-01  -1.876722e-01   0.000000e+00
   0.000000e+00   0.000000e+00   0.000000e+00
   3.209283e-03   5.393408e-02   0.000000e+00
  -1.772885e-01  -3.530538e-01   0.000000e+00
   1.735224e-04   2.266545e-01   0.000000e+00
  -4.021433e-02  -6.819973e-02   0.000000e+00
  -3.019742e-02   2.073500e-03   0.000000e+00
  -5.191646e-02   4.711898e-02   0.000000e+00
  -1.256266e-01  -4.541478e-02   0.000000e+00
  -1.245079e-01   1.240873e-01   0.000000e+00
   9.893006e-02  -7.652994e-02   0.000000e+00
VECTORS Imag_Arrow_1.584800e+01(Hz) float
  -5.395424e-02   2.966389e-02   0.000000e+00
  -3.180663e-02  -2.995417e-02   0.000000e+00
   0.000000e+00   0.000000e+00   0.000000e+00
  -4.399759e-02  -1.360981e-01   0.000000e+00
  -8.509825e-02   3.269336e-02   0.000000e+00
  -2.567989e-02  -4.296414e-02   0.000000e+00
   8.431747e-03  -4.082071e-02   0.000000e+00
  -7.773703e-02   1.954872e-03   0.000000e+00
  -2.954015e-02  -1.085791e-03   0.000000e+00
  -1.392494e-01  -1.686622e-02   0.000000e+00
  -5.936249e-02   5.206698e-02   0.000000e+00
   0.000000e+00   0.000000e+00   0.000000e+00
   0.000000e+00   0.000000e+00   0.000000e+00
  -1.374679e-01  -1.152990e-01   0.000000e+00
   0.000000e+00   0.000000e+00   0.000000e+00
  -1.341215e-01  -2.163279e-02   0.000000e+00
   6.877412e-02   1.027085e-01   0.000000e+00
  -2.369303e-02   1.495445e-02   0.000000e+00
  -1.750818e-01   7.601447e-02   0.000000e+00
  -1.067116e-01   1.042811e-02   0.000000e+00
  -4.700143e-03  -3.516919e-02   0.000000e+00
  -1.039586e-01   1.035404e-02   0.000000e+00
  -2.197686e-02   2.176280e-02   0.000000e+00
  -1.010583e-01  -5.022717e-03   0.000000e+00
   0.000000e+00   0.000000e+00   0.000000e+00
  -9.181321e-02   1.802709e-02   0.000000e+00
  -7.661469e-02  -1.345350e-01   0.000000e+00
  -4.864247e-02  -1.161692e-01   0.000000e+00
  -5.752402e-02  -2.283756e-02   0.000000e+00
   0.000000e+00   0.000000e+00   0.000000e+00
   0.000000e+00   0.000000e+00   0.000000e+00
  -1.001850e-01  -1.363746e-02   0.000000e+00
   5.393104e-02  -1.934692e-02   0.000000e+00
  -5.793293e-02  -1.094050e-01   0.000000e+00
  -5.304887e-02   3.906312e-02   0.000000e+00
  -1.573240e-01   2.379568e-02   0.000000e+00
   0.000000e+00   0.000000e+00   0.000000e+00
  -1.012210e-01  -1.647083e-03   0.000000e+00
  -3.693575e-02  -1.537157e-01   0.000000e+00
  -1.139063e-01   1.877726e-01   0.000000e+00
  -3.167625e-02   7.921936e-02   0.000000e+00
  -7.166768e-02   1.461667e-02   0.000000e+00
   7.013578e-02   3.295198e-02   0.000000e+00
  -1.446020e-01  -1.284991e-02   0.000000e+00
  -6.153713e-02  -1.825270e-01   0.000000e+00
   6.639277e-03  -1.288015e-01   0.000000e+00
VECTORS Real_Arrow_2.511800e+01(Hz) float
  -2.229292e-02  -1.304843e-01   0.000000e+00
  -6.799261e-02   9.663386e-02   0.000000e+00
   0.000000e+00   0.000000e+00   0.000000e+00
   4.655690e-02  -3.570512e-01   0.000000e+00
  -3.652986e-02  -1.375562e-01   0.000000e+00
  -3.727250e-02   2.424646e-02   0.000000e+00
   8.538290e-02  -1.134196e-01   0.000000e+00
  -1.912698e-02   8.637646e-02   0.000000e+00
   2.782028e-01  -1.758669e-01   0.000000e+00
  -5.922980e-03  -5.437751e-02   0.000000e+00
  -1.306502e-01   3.037354e-02   0.000000e+00
  -6.868454e-02   5.082586e-02   0.000000e+00
   0.000000e+00   0.000000e+00   0.000000e+00
  -1.973793e-01   7.126757e-02   0.000000e+00
   6.701462e-02   1.599231e-02   0.000000e+00
   1.665376e-02   3.868490e-02   0.000000e+00
  -1.284508e-01  -1.656667e-01   0.000000e+00
   4.582848e-02   3.205057e-02   0.000000e+00
   2.174512e-01  -9.584439e-02   0.000000e+00
   1.079185e-01   1.070707e-02   0.000000e+00
  -1.172824e-01   1.463866e-02   0.000000e+00
  -6.828562e-02  -6.732444e-02   0.000000e+00
  -6.623461e-02   2.933554e-02   0.000000e+00
  -2.133312e-02  -1.183438e-01   0.000000e+00
   0.000000e+00   0.000000e+00   0.000000e+00
  -5.414553e-03   3.290972e-02   0.000000e+00
  -5.525562e-02  -2.449441e-03   0.000000e+00
  -2.651796e-02   5.570286e-02   0.000000e+00
  -3.319317e-03   2.410089e-02   0.000000e+00
   0.000000e+00   0.000000e+00   0.000000e+00
  -5.202568e-03  -2.529024e-03   0.000000e+00
  -1.185774e-01   1.792014e-02   0.000000e+00
   9.290154e-02   9.412939e-02   0.000000e+00
   2.457865e-01   2.497182e-01   0.000000e+00
   6.641673e-02  -1.610273e-01   0.000000e+00
  -1.437872e-01  -2.018893e-01   0.000000e+00
   0.000000e+00   0.000000e+00   0.000000e+00
   4.882475e-02   4.983055e-02   0.000000e+00
  -1.606350e-01  -2.778573e-01   0.000000e+00
   4.114048e-02   1.417680e-01   0.000000e+00
  -3.543376e-02  -9.559508e-02   0.000000e+00
  -9.713371e-03  -5.862611e-03   0.000000e+00
  -8.456891e-02   2.250708e-02   0.000000e+00
  -6.032213e-02  -4.417945e-02   0.000000e+00
  -9.347490e-02   1.957840e-01   0.000000e+00
   9.792838e-02  -2.724429e-02   0.000000e+00
VECTORS Imag_Arrow_2.511800e+01(Hz) float
  -2.264466e-02   7.168871e-03   0.000000e+00
   8.340119e-03  -4.928349e-02   0.000000e+00
   0.000000e+00   0.000000e+00   0.000000e+00
  -3.288691e-02  -1.616271e-01   0.000000e+00
  -6.643921e-02   1.495600e-02   0.000000e+00
  -4.208817e-02  -2.509012e-02   0.000000e+00
   1.170284e-02  -5.401897e-02   0.000000e+00
  -3.759772e-02   2.876880e-02   0.000000e+00
   2.936113e-02   2.556023e-03   0.000000e+00
  -1.384142e-01  -2.310731e-02   0.000000e+00
  -7.210202e-02   4.603016e-02   0.000000e+00
  -7.451718e-02   8.583980e-03   0.000000e+00
   0.000000e+00   0.000000e+00   0.000000e+00
  -1.875832e-01  -1.024000e-01   0.000000e+00
  -6.821837e-02   3.888943e-03   0.000000e+00
  -1.396659e-01  -3.415950e-03   0.000000e+00
   5.355216e-02   1.098382e-01   0.000000e+00
  -1.817502e-04  -8.863464e-03   0.000000e+00
  -1.518437e-01   8.493467e-02   0.000000e+00
  -7.532323e-02  -8.095499e-04   0.000000e+00
  -3.677509e-03  -2.535028e-02   0.000000e+00
  -9.499048e-02   1.102760e-02   0.000000e+00
  -1.045388e-02  -2.486869e-03   0.000000e+00
  -8.759922e-02  -2.776321e-03   0.000000e+00
   0.000000e+00   0.000000e+00   0.000000e+00
  -6.384760e-02   4.983483e-02   0.000000e+00
  -9.901022e-02  -1.331207e-01   0.000000e+00
  -6.179917e-02  -1.052982e-01   0.000000e+00
  -4.415879e-02   4.763183e-04   0.000000e+00
   0.000000e+00   0.000000e+00   0.000000e+00
  -6.338538e-02   1.727774e-02   0.000000e+00
  -9.823078e-02   9.415590e-03   0.000000e+00
   4.213575e-02  -5.591650e-03   0.000000e+00
   9.911159e-03  -4.656146e-02   0.000000e+00
  -3.182574e-02   3.264639e-02   0.000000e+00
  -1.893622e-01   1.339212e-02   0.000000e+00
   0.000000e+00   0.000000e+00   0.000000e+00
  -6.777791e-02   2.303600e-03   0.000000e+00
  -4.794869e-02  -1.983854e-01   0.000000e+00
  -9.168016e-02   2.088211e-01   0.000000e+00
  -1.751527e-02   6.523998e-02   0.000000e+00
  -4.137056e-02   3.656307e-03   0.000000e+00
   6.945672e-02   5.689503e-02   0.000000e+00
  -1.552675e-01  -1.463199e-02   0.000000e+00
  -8.428347e-02  -1.713578e-01   0.000000e+00
   2.918923e-02  -1.263165e-01   0.000000e+00
VECTORS Real_Arrow_3.981000e+01(Hz) float
  -3.112731e-02  -1.281954e-01   0.000000e+00
  -9.340595e-02   1.237973e-01   0.000000e+00
  -3.326963e-02   9.272730e-02   0.000000e+00
   5.357181e-02  -2.915641e-01   0.000000e+00
  -2.380682e-02  -1.415623e-01   0.000000e+00
  -1.390875e-02   2.765963e-02   0.000000e+00
   8.409197e-02  -9.449372e-02   0.000000e+00
   0.000000e+00   0.000000e+00   0.000000e+00
   2.472029e-01  -1.885097e-01   0.000000e+00
   5.340895e-02  -4.514042e-02   0.000000e+00
  -9.797121e-02   1.589898e-02   0.000000e+00
  -5.529776e-02   3.500432e-02   0.000000e+00
   0.000000e+00   0.000000e+00   0.000000e+00
  -1.117596e-01   1.096485e-01   0.000000e+00
   8.309053e-02   1.673720e-02   0.000000e+00
   7.444510e-02   3.408693e-02   0.000000e+00
  -1.403926e-01  -2.116459e-01   0.000000e+00
   3.643436e-02   4.376367e-02   0.000000e+00
   0.000000e+00   0.000000e+00   0.000000e+00
   1.249445e-01   1.546776e-02   0.000000e+00
  -1.178199e-01   1.749175e-02   0.000000e+00
  -3.418324e-02  -7.580241e-02   0.000000e+00
  -6.768597e-02   3.732061e-02   0.000000e+00
   2.164134e-03  -1.192841e-01   0.000000e+00
   0.000000e+00   0.000000e+00   0.000000e+00
   7.642773e-03  -2.384976e-03   0.000000e+00
  -1.148720e-02   4.632808e-02   0.000000e+00
   3.649456e-03   8.978943e-02   0.000000e+00
   0.000000e+00   0.000000e+00   0.000000e+00
   1.340148e-01  -1.130257e-01   0.000000e+00
   1.311140e-02  -1.909507e-02   0.000000e+00
  -8.682741e-02   2.061942e-03   0.000000e+00
   0.000000e+00   0.000000e+00   0.000000e+00
   2.209919e-01   2.524186e-01   0.000000e+00
   7.254471e-02  -1.831156e-01   0.000000e+00
  -6.003164e-02  -2.077337e-01   0.000000e+00
   0.000000e+00   0.000000e+00   0.000000e+00
   6.297744e-02   4.729917e-02   0.000000e+00
  -1.433707e-01  -1.846976e-01   0.000000e+00
   6.325139e-02   5.777762e-02   0.000000e+00
  -3.565468e-02  -1.102096e-01   0.000000e+00
  -1.233263e-02  -1.164153e-03   0.000000e+00
  -1.134700e-01  -9.690500e-03   0.000000e+00
   2.945121e-03  -4.128120e-02   0.000000e+00
  -5.414726e-02   2.572148e-01   0.000000e+00
   8.128155e-02   1.555411e-02   0.000000e+00
VECTORS Imag_Arrow_3.981000e+01(Hz) float
   1.563416e-03  -1.992181e-02   0.000000e+00
   3.590156e-02  -6.477218e-02   0.000000e+00
   2.993835e-02  -3.687797e-02   0.000000e+00
  -1.772861e-02  -1.685655e-01   0.000000e+00
  -4.789701e-02  -9.004354e-03   0.000000e+00
  -4.912514e-02  -4.680347e-03   0.000000e+00
   2.105805e-02  -6.913907e-02   0.000000e+00
   0.000000e+00   0.000000e+00   0.000000e+00
   7.756713e-02  -7.175722e-03   0.000000e+00
  -1.126284e-01  -2.682657e-02   0.000000e+00
  -7.501128e-02   3.874063e-02   0.000000e+00
  -4.645143e-02   1.821256e-02   0.000000e+00
   0.000000e+00   0.000000e+00   0.000000e+00
  -2.131568e-01  -7.240278e-02   0.000000e+00
  -2.880824e-02  -8.801406e-03   0.000000e+00
  -1.262736e-01   9.822439e-03   0.000000e+00
   3.968311e-02   1.028377e-01   0.000000e+00
   1.290588e-02  -2.866141e-02   0.000000e+00
   0.000000e+00   0.000000e+00   0.000000e+00
  -3.649647e-02  -1.273340e-02   0.000000e+00
  -9.016883e-03  -2.223790e-02   0.000000e+00
  -7.818226e-02   1.979407e-03   0.000000e+00
  -4.972557e-03  -2.724573e-02   0.000000e+00
  -7.202299e-02  -1.690692e-03   0.000000e+00
   0.000000e+00   0.000000e+00   0.000000e+00
  -3.135446e-02   6.852631e-02   0.000000e+00
  -1.088920e-01  -1.160653e-01   0.000000e+00
  -6.372321e-02  -8.409490e-02   0.000000e+00
   0.000000e+00   0.000000e+00   0.000000e+00
  -2.955456e-02   5.558591e-02   0.000000e+00
  -5.563695e-02   2.521317e-02   0.000000e+00
  -9.204966e-02   2.190576e-02   0.000000e+00
   0.000000e+00   0.000000e+00   0.000000e+00
   7.184830e-02   2.371823e-02   0.000000e+00
  -1.118036e-02   3.223191e-03   0.000000e+00
  -1.933143e-01  -6.136063e-03   0.000000e+00
   0.000000e+00   0.000000e+00   0.000000e+00
  -1.928689e-02   1.053280e-03   0.000000e+00
  -5.511975e-02  -2.108174e-01   0.000000e+00
  -6.662736e-02   2.097768e-01   0.000000e+00
  -8.540559e-03   5.337460e-02   0.000000e+00
  -1.668571e-02  -6.829799e-03   0.000000e+00
   5.894236e-02   6.517194e-02   0.000000e+00
  -1.434700e-01  -1.718614e-02   0.000000e+00
  -9.404093e-02  -1.407440e-01   0.000000e+00
   5.277488e-02  -1.147509e-01   0.000000e+00
VECTORS Real_Arrow_6.309500e+01(Hz) float
  -4.685905e-02  -1.111824e-01   0.000000e+00
  -1.267256e-01   1.601853e-01   0.000000e+00
  -5.871385e-02   1.157992e-01   0.000000e+00
   5.034200e-02  -2.311134e-01   0.000000e+00
  -1.868933e-02  -1.322500e-01   0.000000e+00
   8.861982e-03   2.080872e-02   0.000000e+00
   7.508008e-02  -6.607634e-02   0.000000e+00
   0.000000e+00   0.000000e+00   0.000000e+00
   0.000000e+00   0.000000e+00   0.000000e+00
   9.083683e-02  -3.607764e-02   0.000000e+00
  -6.897244e-02   6.278918e-03   0.000000e+00
  -5.238441e-02   2.060547e-02   0.000000e+00
   0.000000e+00   0.000000e+00   0.000000e+00
  -2.410018e-02   1.277145e-01   0.000000e+00
   7.654840e-02   2.741168e-02   0.000000e+00
   1.182676e-01   2.664225e-02   0.000000e+00
  -1.481343e-01  -2.514113e-01   0.000000e+00
   2.835298e-02   6.219461e-02   0.000000e+00
   0.000000e+00   0.000000e+00   0.000000e+00
   1.206435e-01   2.711379e-02   0.000000e+00
  -1.133753e-01   2.321776e-02   0.000000e+00
  -7.336523e-03  -7.252994e-02   0.000000e+00
  -6.732267e-02   5.826387e-02   0.000000e+00
   0.000000e+00   0.000000e+00   0.000000e+00
   0.000000e+00   0.000000e+00   0.000000e+00
   4.046062e-03  -4.409057e-02   0.000000e+00
   3.121295e-02   8.190354e-02   0.000000e+00
   3.054511e-02   1.106794e-01   0.000000e+00
   0.000000e+00   0.000000e+00   0.000000e+00
   1.282069e-01  -1.363774e-01   0.000000e+00
   3.170500e-02  -3.184985e-02   0.000000e+00
  -5.769552e-02  -1.616510e-02   0.000000e+00
   7.758187e-02   8.320333e-02   0.000000e+00
   1.714507e-01   2.217145e-01   0.000000e+00
   0.000000e+00   0.000000e+00   0.000000e+00
   1.433995e-02  -2.015992e-01   0.000000e+00
   3.603405e-02   2.894957e-01   0.000000e+00
   0.000000e+00   0.000000e+00   0.000000e+00
  -1.266740e-01  -9.948329e-02   0.000000e+00
   7.303794e-02  -2.171872e-02   0.000000e+00
  -3.559289e-02  -1.220266e-01   0.000000e+00
  -2.347111e-02   9.675771e-03   0.000000e+00
  -1.363364e-01  -3.906443e-02   0.000000e+00
   5.116427e-02  -3.912159e-02   0.000000e+00
  -1.671872e-02   2.999260e-01   0.000000e+00
   5.041795e-02   5.140027e-02   0.000000e+00
VECTORS Imag_Arrow_6.309500e+01(Hz) float
   6.137788e-03  -4.057436e-02   0.000000e+00
   3.530261e-02  -6.186966e-02   0.000000e+00
   3.383985e-02  -2.822387e-02   0.000000e+00
  -7.785879e-03  -1.606508e-01   0.000000e+00
  -4.017588e-02  -3.204444e-02   0.000000e+00
  -4.510603e-02   1.128413e-02   0.000000e+00
   3.237579e-02  -8.206501e-02   0.000000e+00
   0.000000e+00   0.000000e+00   0.000000e+00
   0.000000e+00   0.000000e+00   0.000000e+00
  -6.584826e-02  -2.833121e-02   0.000000e+00
  -6.434715e-02   3.086259e-02   0.000000e+00
  -2.555452e-02   1.802389e-02   0.000000e+00
   0.000000e+00   0.000000e+00   0.000000e+00
  -2.100828e-01  -3.342004e-02   0.000000e+00
   3.286689e-03  -1.642246e-02   0.000000e+00
  -9.415488e-02   2.012026e-02   0.000000e+00
   2.916973e-02   8.172999e-02   0.000000e+00
   2.043516e-02  -3.775101e-02   0.000000e+00
   0.000000e+00   0.000000e+00   0.000000e+00
  -4.779632e-03  -1.654058e-02   0.000000e+00
  -1.348397e-02  -2.233294e-02   0.000000e+00
  -5.330789e-02  -1.190525e-02   0.000000e+00
  -1.466729e-03  -4.241706e-02   0.000000e+00
   0.000000e+00   0.000000e+00   0.000000e+00
   0.000000e+00   0.000000e+00   0.000000e+00
  -7.474103e-03   6.422427e-02   0.000000e+00
  -1.046784e-01  -9.133943e-02   0.000000e+00
  -5.313262e-02  -6.154685e-02   0.000000e+00
   0.000000e+00   0.000000e+00   0.000000e+00
   6.896538e-03   3.070460e-02   0.000000e+00
  -4.690263e-02   2.344698e-02   0.000000e+00
  -8.542107e-02   2.124942e-02   0.000000e+00
   1.517828e-02   1.186116e-02   0.000000e+00
   1.121724e-01   8.454567e-02   0.000000e+00
   0.000000e+00   0.000000e+00   0.000000e+00
  -1.699556e-01  -2.741679e-02   0.000000e+00
  -7.625693e-02   2.569355e-02   0.000000e+00
   0.000000e+00   0.000000e+00   0.000000e+00
  -6.254922e-02  -1.878423e-01   0.000000e+00
  -5.023214e-02   1.906136e-01   0.000000e+00
  -3.241036e-03   4.888630e-02   0.000000e+00
  -1.207965e-02  -7.433959e-03   0.000000e+00
   3.987900e-02   6.024784e-02   0.000000e+00
  -1.153279e-01  -2.121173e-02   0.000000e+00
  -8.998772e-02  -9.974400e-02   0.000000e+00
   6.646434e-02  -9.927506e-02   0.000000e+00
