# vtk DataFile Version 2.0
Induction_Arrow_Iter4_PE1
ASCII
DATASET UNSTRUCTURED_GRID
POINTS 46 float
  -2.052000e+03    1.667000e+03   -4.526633e+02
  -1.265000e+03    2.333000e+03   -4.555885e+02
  -9.840000e+02    2.568000e+03   -4.612271e+02
   1.700000e+03   -1.757000e+03   -5.237752e+02
  -1.152000e+03    1.382000e+03   -4.549280e+02
   3.187000e+03    1.067000e+03   -8.370176e+02
   4.716000e+03    9.370000e+02   -8.015281e+02
  -1.855000e+03    5.260000e+02   -5.147377e+02
  -1.420000e+02   -1.905000e+03   -4.746368e+02
  -5.800000e+01    1.069000e+03   -4.555494e+02
  -2.802000e+03    3.302000e+03   -4.314337e+02
  -5.640000e+03   -1.532000e+03   -4.911771e+02
  -8.030000e+02   -5.610000e+02   -5.280929e+02
   1.008000e+03    4.130000e+02   -5.983358e+02
   1.960000e+02    2.246000e+03   -5.219413e+02
  -3.457000e+03    8.320000e+02   -4.470735e+02
   5.640000e+03    2.452000e+03   -7.393049e+02
  -1.334000e+03    3.332000e+03   -4.456136e+02
   1.244000e+03    1.880000e+03   -6.331107e+02
  -2.680000e+02    2.144000e+03   -4.891390e+02
  -4.063000e+03    6.620000e+02   -4.746103e+02
  -1.258000e+03    6.330000e+02   -4.856841e+02
  -2.141000e+03    3.194000e+03   -4.348461e+02
  -3.469000e+03   -3.059000e+03   -6.067613e+02
  -1.604000e+03   -2.570000e+02   -5.141257e+02
  -1.454000e+03    2.220000e+02   -5.386025e+02
   1.864000e+03    1.270000e+02   -7.404291e+02
   2.449000e+03    5.590000e+02   -7.805292e+02
  -1.834000e+03   -1.554000e+03   -6.273074e+02
   1.807000e+03    2.297000e+03   -6.825557e+02
  -2.560000e+03   -1.783000e+03   -6.131337e+02
  -2.741000e+03   -5.010000e+02   -5.080000e+02
   2.884000e+03   -2.179000e+03   -5.274708e+02
  -6.120000e+02   -8.960000e+02   -5.895389e+02
  -1.985000e+03   -2.653000e+03   -5.598834e+02
  -3.390000e+03   -4.000000e+02   -4.982361e+02
   1.586000e+03    1.342000e+03   -6.618442e+02
   1.047000e+03    2.401000e+03   -5.426792e+02
   8.380000e+02   -1.300000e+03   -4.783644e+02
   2.569000e+03    2.441000e+03   -6.035668e+02
  -2.028000e+03    2.833000e+03   -4.322286e+02
  -1.086000e+03    1.998000e+03   -4.563301e+02
   1.514000e+03   -3.332000e+03   -5.646205e+02
   7.040000e+02    1.116000e+03   -5.365099e+02
   1.990000e+03    6.360000e+02   -7.085272e+02
   3.722000e+03   -1.700000e+02   -6.745213e+02
CELLS 46 92
1 0
1 1
1 2
1 3
1 4
1 5
1 6
1 7
1 8
1 9
1 10
1 11
1 12
1 13
1 14
1 15
1 16
1 17
1 18
1 19
1 20
1 21
1 22
1 23
1 24
1 25
1 26
1 27
1 28
1 29
1 30
1 31
1 32
1 33
1 34
1 35
1 36
1 37
1 38
1 39
1 40
1 41
1 42
1 43
1 44
1 45
CELL_TYPES 46
1
1
1
1
1
1
1
1
1
1
1
1
1
1
1
1
1
1
1
1
1
1
1
1
1
1
1
1
1
1
1
1
1
1
1
1
1
1
1
1
1
1
1
1
1
1
POINT_DATA 46
VECTORS Real_Arrow_3.981000e-01(Hz) float
   0.000000e+00   0.000000e+00   0.000000e+00
   0.000000e+00   0.000000e+00   0.000000e+00
   0.000000e+00   0.000000e+00   0.000000e+00
   5.383848e-03  -3.639324e-01   0.000000e+00
   0.000000e+00   0.000000e+00   0.000000e+00
   0.000000e+00   0.000000e+00   0.000000e+00
   0.000000e+00   0.000000e+00   0.000000e+00
   0.000000e+00   0.000000e+00   0.000000e+00
   0.000000e+00   0.000000e+00   0.000000e+00
  -1.176053e-01  -1.099037e-01   0.000000e+00
  -1.774751e-01   1.028030e-02   0.000000e+00
   0.000000e+00   0.000000e+00   0.000000e+00
   0.000000e+00   0.000000e+00   0.000000e+00
   0.000000e+00   0.000000e+00   0.000000e+00
   0.000000e+00   0.000000e+00   0.000000e+00
   0.000000e+00   0.000000e+00   0.000000e+00
   7.129874e-02  -8.005914e-02   0.000000e+00
   0.000000e+00   0.000000e+00   0.000000e+00
   0.000000e+00   0.000000e+00   0.000000e+00
   0.000000e+00   0.000000e+00   0.000000e+00
   0.000000e+00   0.000000e+00   0.000000e+00
   0.000000e+00   0.000000e+00   0.000000e+00
   0.000000e+00   0.000000e+00   0.000000e+00
   0.000000e+00   0.000000e+00   0.000000e+00
   0.000000e+00   0.000000e+00   0.000000e+00
   0.000000e+00   0.000000e+00   0.000000e+00
  -2.281479e-02  -1.825213e-01   0.000000e+00
   6.839369e-03  -1.496794e-01   0.000000e+00
   0.000000e+00   0.000000e+00   0.000000e+00
  -1.137035e-02  -6.816592e-02   0.000000e+00
   0.000000e+00   0.000000e+00   0.000000e+00
   0.000000e+00   0.000000e+00   0.000000e+00
   0.000000e+00   0.000000e+00   0.000000e+00
  -2.807724e-03  -1.021595e-01   0.000000e+00
   0.000000e+00   0.000000e+00   0.000000e+00
   0.000000e+00   0.000000e+00   0.000000e+00
   0.000000e+00   0.000000e+00   0.000000e+00
   0.000000e+00   0.000000e+00   0.000000e+00
  -7.597954e-02  -2.959688e-01   0.000000e+00
  -6.662005e-02   9.988244e-02   0.000000e+00
  -1.150816e-01  -3.664369e-02   0.000000e+00
   0.000000e+00   0.000000e+00   0.000000e+00
   0.000000e+00   0.000000e+00   0.000000e+00
   0.000000e+00   0.000000e+00   0.000000e+00
   0.000000e+00   0.000000e+00   0.000000e+00
   0.000000e+00   0.000000e+00   0.000000e+00
VECTORS Imag_Arrow_3.981000e-01(Hz) float
   0.000000e+00   0.000000e+00   0.000000e+00
   0.000000e+00   0.000000e+00   0.000000e+00
   0.000000e+00   0.000000e+00   0.000000e+00
   7.525239e-02   6.055186e-02   0.000000e+00
   0.000000e+00   0.000000e+00   0.000000e+00
   0.000000e+00   0.000000e+00   0.000000e+00
   0.000000e+00   0.000000e+00   0.000000e+00
   0.000000e+00   0.000000e+00   0.000000e+00
   0.000000e+00   0.000000e+00   0.000000e+00
   9.917067e-02  -1.706627e-02   0.000000e+00
   8.184227e-02  -5.202225e-02   0.000000e+00
   0.000000e+00   0.000000e+00   0.000000e+00
   0.000000e+00   0.000000e+00   0.000000e+00
   0.000000e+00   0.000000e+00   0.000000e+00
   0.000000e+00   0.000000e+00   0.000000e+00
   0.000000e+00   0.000000e+00   0.000000e+00
   9.421452e-02  -2.410881e-02   0.000000e+00
   0.000000e+00   0.000000e+00   0.000000e+00
   0.000000e+00   0.000000e+00   0.000000e+00
   0.000000e+00   0.000000e+00   0.000000e+00
   0.000000e+00   0.000000e+00   0.000000e+00
   0.000000e+00   0.000000e+00   0.000000e+00
   0.000000e+00   0.000000e+00   0.000000e+00
   0.000000e+00   0.000000e+00   0.000000e+00
   0.000000e+00   0.000000e+00   0.000000e+00
   0.000000e+00   0.000000e+00   0.000000e+00
   9.657679e-02   1.950904e-03   0.000000e+00
   8.745618e-02  -1.083392e-02   0.000000e+00
   0.000000e+00   0.000000e+00   0.000000e+00
   7.517641e-02  -2.022287e-02   0.000000e+00
   0.000000e+00   0.000000e+00   0.000000e+00
   0.000000e+00   0.000000e+00   0.000000e+00
   0.000000e+00   0.000000e+00   0.000000e+00
   2.732110e-02  -3.093248e-02   0.000000e+00
   0.000000e+00   0.000000e+00   0.000000e+00
   0.000000e+00   0.000000e+00   0.000000e+00
   0.000000e+00   0.000000e+00   0.000000e+00
   0.000000e+00   0.000000e+00   0.000000e+00
   1.105152e-01   4.314021e-02   0.000000e+00
   9.813194e-02  -8.456086e-02   0.000000e+00
   6.331434e-02  -3.488737e-02   0.000000e+00
   0.000000e+00   0.000000e+00   0.000000e+00
   0.000000e+00   0.000000e+00   0.000000e+00
   0.000000e+00   0.000000e+00   0.000000e+00
   0.000000e+00   0.000000e+00   0.000000e+00
   0.000000e+00   0.000000e+00   0.000000e+00
VECTORS Real_Arrow_6.309500e-01(Hz) float
   0.000000e+00   0.000000e+00   0.000000e+00
  -1.721025e-01  -3.623529e-03   0.000000e+00
   0.000000e+00   0.000000e+00   0.000000e+00
  -2.055162e-02  -3.851858e-01   0.000000e+00
  -1.573537e-01  -9.250425e-02   0.000000e+00
   0.000000e+00   0.000000e+00   0.000000e+00
   1.026344e-01  -1.531875e-01   0.000000e+00
   0.000000e+00   0.000000e+00   0.000000e+00
   0.000000e+00   0.000000e+00   0.000000e+00
  -1.510582e-01  -1.049739e-01   0.000000e+00
  -2.030219e-01   2.842588e-02   0.000000e+00
   0.000000e+00   0.000000e+00   0.000000e+00
   0.000000e+00   0.000000e+00   0.000000e+00
  -1.617093e-01  -1.366551e-01   0.000000e+00
  -1.102356e-01  -2.644048e-02   0.000000e+00
   0.000000e+00   0.000000e+00   0.000000e+00
   4.315437e-02  -6.948859e-02   0.000000e+00
   0.000000e+00   0.000000e+00   0.000000e+00
   0.000000e+00   0.000000e+00   0.000000e+00
   0.000000e+00   0.000000e+00   0.000000e+00
   0.000000e+00   0.000000e+00   0.000000e+00
   0.000000e+00   0.000000e+00   0.000000e+00
  -1.536257e-01   1.505132e-02   0.000000e+00
   0.000000e+00   0.000000e+00   0.000000e+00
   0.000000e+00   0.000000e+00   0.000000e+00
   0.000000e+00   0.000000e+00   0.000000e+00
  -5.496813e-02  -1.856416e-01   0.000000e+00
  -2.209246e-02  -1.487219e-01   0.000000e+00
   0.000000e+00   0.000000e+00   0.000000e+00
  -3.748403e-02  -6.055494e-02   0.000000e+00
  -9.660213e-02  -7.478610e-02   0.000000e+00
  -1.849548e-01  -7.220970e-02   0.000000e+00
   0.000000e+00   0.000000e+00   0.000000e+00
  -1.353709e-02  -9.708281e-02   0.000000e+00
   0.000000e+00   0.000000e+00   0.000000e+00
   0.000000e+00   0.000000e+00   0.000000e+00
  -1.170259e-01  -3.504369e-02   0.000000e+00
   0.000000e+00   0.000000e+00   0.000000e+00
   0.000000e+00   0.000000e+00   0.000000e+00
  -9.923726e-02   1.270198e-01   0.000000e+00
  -1.351138e-01  -2.333584e-02   0.000000e+00
  -1.496866e-01  -3.974678e-02   0.000000e+00
   0.000000e+00   0.000000e+00   0.000000e+00
  -1.508901e-01  -1.008932e-01   0.000000e+00
   0.000000e+00   0.000000e+00   0.000000e+00
   0.000000e+00   0.000000e+00   0.000000e+00
VECTORS Imag_Arrow_6.309500e-01(Hz) float
   0.000000e+00   0.000000e+00   0.000000e+00
   6.590489e-02  -5.364649e-02   0.000000e+00
   0.000000e+00   0.000000e+00   0.000000e+00
   5.982936e-02   6.446947e-02   0.000000e+00
   6.740552e-02  -1.500905e-02   0.000000e+00
   0.000000e+00   0.000000e+00   0.000000e+00
   4.703354e-02  -3.816435e-03   0.000000e+00
   0.000000e+00   0.000000e+00   0.000000e+00
   0.000000e+00   0.000000e+00   0.000000e+00
   8.076876e-02  -1.934320e-02   0.000000e+00
   6.069546e-02  -5.427381e-02   0.000000e+00
   0.000000e+00   0.000000e+00   0.000000e+00
   0.000000e+00   0.000000e+00   0.000000e+00
   1.238978e-01  -1.836374e-02   0.000000e+00
   5.784091e-02  -4.369418e-02   0.000000e+00
   0.000000e+00   0.000000e+00   0.000000e+00
   8.240594e-02  -2.196654e-02   0.000000e+00
   0.000000e+00   0.000000e+00   0.000000e+00
   0.000000e+00   0.000000e+00   0.000000e+00
   0.000000e+00   0.000000e+00   0.000000e+00
   0.000000e+00   0.000000e+00   0.000000e+00
   0.000000e+00   0.000000e+00   0.000000e+00
   4.575601e-02  -5.287302e-02   0.000000e+00
   0.000000e+00   0.000000e+00   0.000000e+00
   0.000000e+00   0.000000e+00   0.000000e+00
   0.000000e+00   0.000000e+00   0.000000e+00
   8.441302e-02  -1.970594e-03   0.000000e+00
   7.481001e-02  -1.687859e-02   0.000000e+00
   0.000000e+00   0.000000e+00   0.000000e+00
   5.843110e-02  -2.048786e-02   0.000000e+00
   4.212981e-02  -1.177927e-02   0.000000e+00
   7.431217e-02  -1.652245e-02   0.000000e+00
   0.000000e+00   0.000000e+00   0.000000e+00
   7.389410e-03  -4.276279e-02   0.000000e+00
   0.000000e+00   0.000000e+00   0.000000e+00
   0.000000e+00   0.000000e+00   0.000000e+00
   9.411258e-02  -5.619370e-02   0.000000e+00
   0.000000e+00   0.000000e+00   0.000000e+00
   0.000000e+00   0.000000e+00   0.000000e+00
   7.869672e-02  -9.854278e-02   0.000000e+00
   4.250242e-02  -3.482900e-02   0.000000e+00
   6.060951e-02  -3.857227e-02   0.000000e+00
   0.000000e+00   0.000000e+00   0.000000e+00
   1.004705e-01  -2.100377e-02   0.000000e+00
   0.000000e+00   0.000000e+00   0.000000e+00
   0.000000e+00   0.000000e+00   0.000000e+00
VECTORS Real_Arrow_1.000000e+00(Hz) float
  -1.605560e-01  -7.296505e-02   0.000000e+00
  -1.926179e-01   1.411597e-02   0.000000e+00
   0.000000e+00   0.000000e+00   0.000000e+00
  -4.009298e-02  -4.107743e-01   0.000000e+00
  -1.790736e-01  -8.668559e-02   0.000000e+00
   0.000000e+00   0.000000e+00   0.000000e+00
   9.089452e-02  -1.528916e-01   0.000000e+00
  -1.919959e-01  -3.890294e-02   0.000000e+00
   0.000000e+00   0.000000e+00   0.000000e+00
  -1.780988e-01  -9.937900e-02   0.000000e+00
  -2.205399e-01   4.881296e-02   0.000000e+00
  -2.756949e-01  -8.694958e-02   0.000000e+00
   0.000000e+00   0.000000e+00   0.000000e+00
  -2.014093e-01  -1.346949e-01   0.000000e+00
   0.000000e+00   0.000000e+00   0.000000e+00
   0.000000e+00   0.000000e+00   0.000000e+00
   2.306428e-02  -5.942427e-02   0.000000e+00
   0.000000e+00   0.000000e+00   0.000000e+00
   0.000000e+00   0.000000e+00   0.000000e+00
   0.000000e+00   0.000000e+00   0.000000e+00
   0.000000e+00   0.000000e+00   0.000000e+00
   0.000000e+00   0.000000e+00   0.000000e+00
  -1.663162e-01   3.460007e-02   0.000000e+00
   0.000000e+00   0.000000e+00   0.000000e+00
   0.000000e+00   0.000000e+00   0.000000e+00
   0.000000e+00   0.000000e+00   0.000000e+00
  -8.156680e-02  -1.892369e-01   0.000000e+00
  -4.480425e-02  -1.470894e-01   0.000000e+00
   0.000000e+00   0.000000e+00   0.000000e+00
  -5.729244e-02  -5.258195e-02   0.000000e+00
  -1.109926e-01  -7.417334e-02   0.000000e+00
  -2.090296e-01  -6.977111e-02   0.000000e+00
   0.000000e+00   0.000000e+00   0.000000e+00
  -1.814513e-02  -8.897027e-02   0.000000e+00
   0.000000e+00   0.000000e+00   0.000000e+00
   0.000000e+00   0.000000e+00   0.000000e+00
  -1.472364e-01  -2.033255e-02   0.000000e+00
   0.000000e+00   0.000000e+00   0.000000e+00
  -1.431582e-01  -3.303502e-01   0.000000e+00
  -1.244827e-01   1.636611e-01   0.000000e+00
  -1.470737e-01  -8.618729e-03   0.000000e+00
  -1.692822e-01  -2.634069e-02   0.000000e+00
   0.000000e+00   0.000000e+00   0.000000e+00
  -1.843536e-01  -9.480553e-02   0.000000e+00
   0.000000e+00   0.000000e+00   0.000000e+00
   0.000000e+00   0.000000e+00   0.000000e+00
VECTORS Imag_Arrow_1.000000e+00(Hz) float
   2.540758e-02  -1.301615e-02   0.000000e+00
   3.959337e-02  -5.928382e-02   0.000000e+00
   0.000000e+00   0.000000e+00   0.000000e+00
   3.910539e-02   6.525595e-02   0.000000e+00
   4.347753e-02  -1.335787e-02   0.000000e+00
   0.000000e+00   0.000000e+00   0.000000e+00
   3.166412e-02  -5.809565e-03   0.000000e+00
   3.744899e-02  -5.085847e-02   0.000000e+00
   0.000000e+00   0.000000e+00   0.000000e+00
   5.635828e-02  -2.249077e-02   0.000000e+00
   3.555892e-02  -5.422439e-02   0.000000e+00
   4.890465e-02  -1.246810e-02   0.000000e+00
   0.000000e+00   0.000000e+00   0.000000e+00
   1.091764e-01  -2.705069e-02   0.000000e+00
   0.000000e+00   0.000000e+00   0.000000e+00
   0.000000e+00   0.000000e+00   0.000000e+00
   7.071495e-02  -1.609763e-02   0.000000e+00
   0.000000e+00   0.000000e+00   0.000000e+00
   0.000000e+00   0.000000e+00   0.000000e+00
   0.000000e+00   0.000000e+00   0.000000e+00
   0.000000e+00   0.000000e+00   0.000000e+00
   0.000000e+00   0.000000e+00   0.000000e+00
   1.991912e-02  -5.418232e-02   0.000000e+00
   0.000000e+00   0.000000e+00   0.000000e+00
   0.000000e+00   0.000000e+00   0.000000e+00
   0.000000e+00   0.000000e+00   0.000000e+00
   6.790814e-02  -9.421520e-03   0.000000e+00
   5.830500e-02  -2.647662e-02   0.000000e+00
   0.000000e+00   0.000000e+00   0.000000e+00
   3.609777e-02  -1.899339e-02   0.000000e+00
   3.047811e-02  -1.559449e-02   0.000000e+00
   6.075105e-02  -1.976728e-02   0.000000e+00
   0.000000e+00   0.000000e+00   0.000000e+00
  -1.852481e-02  -6.112668e-02   0.000000e+00
   0.000000e+00   0.000000e+00   0.000000e+00
   0.000000e+00   0.000000e+00   0.000000e+00
   7.422190e-02  -7.154318e-02   0.000000e+00
   0.000000e+00   0.000000e+00   0.000000e+00
   8.440655e-02   5.095483e-02   0.000000e+00
   5.422123e-02  -1.133798e-01   0.000000e+00
   1.770021e-02  -3.178104e-02   0.000000e+00
   3.434513e-02  -4.122513e-02   0.000000e+00
   0.000000e+00   0.000000e+00   0.000000e+00
   7.902588e-02  -2.470234e-02   0.000000e+00
   0.000000e+00   0.000000e+00   0.000000e+00
   0.000000e+00   0.000000e+00   0.000000e+00
VECTORS Real_Arrow_1.584800e+00(Hz) float
  -1.666975e-01  -6.711589e-02   0.000000e+00
  -2.025692e-01   3.585435e-02   0.000000e+00
   0.000000e+00   0.000000e+00   0.000000e+00
   0.000000e+00   0.000000e+00   0.000000e+00
  -1.921864e-01  -8.053287e-02   0.000000e+00
  -3.005085e-02  -9.779866e-02   0.000000e+00
   8.752323e-02  -1.523704e-01   0.000000e+00
  -2.047373e-01  -2.218829e-02   0.000000e+00
   0.000000e+00   0.000000e+00   0.000000e+00
  -1.968768e-01  -9.181695e-02   0.000000e+00
  -2.278124e-01   7.161000e-02   0.000000e+00
  -3.021243e-01  -9.148264e-02   0.000000e+00
   0.000000e+00   0.000000e+00   0.000000e+00
  -2.372735e-01  -1.300735e-01   0.000000e+00
   0.000000e+00   0.000000e+00   0.000000e+00
   0.000000e+00   0.000000e+00   0.000000e+00
   9.477992e-03  -5.096068e-02   0.000000e+00
   0.000000e+00   0.000000e+00   0.000000e+00
   0.000000e+00   0.000000e+00   0.000000e+00
   0.000000e+00   0.000000e+00   0.000000e+00
   0.000000e+00   0.000000e+00   0.000000e+00
  -2.267041e-01  -8.597844e-02   0.000000e+00
  -1.677783e-01   5.681326e-02   0.000000e+00
   0.000000e+00   0.000000e+00   0.000000e+00
   0.000000e+00   0.000000e+00   0.000000e+00
   0.000000e+00   0.000000e+00   0.000000e+00
  -1.016118e-01  -1.915902e-01   0.000000e+00
  -6.026155e-02  -1.425680e-01   0.000000e+00
  -1.164802e-01  -7.784169e-02   0.000000e+00
  -6.875271e-02  -4.503550e-02   0.000000e+00
  -1.237107e-01  -7.135290e-02   0.000000e+00
  -2.311380e-01  -6.584582e-02   0.000000e+00
   5.211765e-02  -5.052876e-02   0.000000e+00
  -1.229648e-02  -7.319677e-02   0.000000e+00
   0.000000e+00   0.000000e+00   0.000000e+00
   0.000000e+00   0.000000e+00   0.000000e+00
  -1.707685e-01   1.450569e-03   0.000000e+00
  -1.386649e-01   9.285064e-03   0.000000e+00
  -1.690272e-01  -3.544289e-01   0.000000e+00
  -1.419599e-01   2.158124e-01   0.000000e+00
   0.000000e+00   0.000000e+00   0.000000e+00
  -1.787708e-01  -1.019697e-02   0.000000e+00
   0.000000e+00   0.000000e+00   0.000000e+00
  -2.110088e-01  -8.648438e-02   0.000000e+00
   0.000000e+00   0.000000e+00   0.000000e+00
   0.000000e+00   0.000000e+00   0.000000e+00
VECTORS Imag_Arrow_1.584800e+00(Hz) float
  -1.248358e-03  -8.495393e-03   0.000000e+00
   8.397415e-03  -6.364643e-02   0.000000e+00
   0.000000e+00   0.000000e+00   0.000000e+00
   0.000000e+00   0.000000e+00   0.000000e+00
   1.425142e-02  -1.026130e-02   0.000000e+00
   4.354968e-02  -4.271237e-02   0.000000e+00
   1.834301e-02  -9.575556e-03   0.000000e+00
   7.423301e-03  -6.310165e-02   0.000000e+00
   0.000000e+00   0.000000e+00   0.000000e+00
   2.540162e-02  -2.662315e-02   0.000000e+00
   7.343791e-03  -4.930231e-02   0.000000e+00
   1.907989e-02  -3.093368e-02   0.000000e+00
   0.000000e+00   0.000000e+00   0.000000e+00
   9.021806e-02  -4.142991e-02   0.000000e+00
   0.000000e+00   0.000000e+00   0.000000e+00
   0.000000e+00   0.000000e+00   0.000000e+00
   6.402295e-02  -6.153783e-03   0.000000e+00
   0.000000e+00   0.000000e+00   0.000000e+00
   0.000000e+00   0.000000e+00   0.000000e+00
   0.000000e+00   0.000000e+00   0.000000e+00
   0.000000e+00   0.000000e+00   0.000000e+00
   2.656389e-02  -2.641931e-02   0.000000e+00
  -8.676889e-03  -5.124839e-02   0.000000e+00
   0.000000e+00   0.000000e+00   0.000000e+00
   0.000000e+00   0.000000e+00   0.000000e+00
   0.000000e+00   0.000000e+00   0.000000e+00
   4.840100e-02  -2.323410e-02   0.000000e+00
   4.006978e-02  -4.183481e-02   0.000000e+00
   9.601668e-03  -3.207085e-02   0.000000e+00
   8.313574e-03  -1.546312e-02   0.000000e+00
   1.364770e-02  -2.364760e-02   0.000000e+00
   4.213426e-02  -2.666313e-02   0.000000e+00
  -4.782824e-02  -7.625426e-02   0.000000e+00
  -5.173151e-02  -8.775516e-02   0.000000e+00
   0.000000e+00   0.000000e+00   0.000000e+00
   0.000000e+00   0.000000e+00   0.000000e+00
   4.986994e-02  -9.146091e-02   0.000000e+00
   2.245031e-02  -4.889153e-02   0.000000e+00
   6.571003e-02   4.798596e-02   0.000000e+00
   2.504395e-02  -1.217850e-01   0.000000e+00
   0.000000e+00   0.000000e+00   0.000000e+00
   2.571630e-03  -4.223078e-02   0.000000e+00
   0.000000e+00   0.000000e+00   0.000000e+00
   5.119666e-02  -2.948222e-02   0.000000e+00
   0.000000e+00   0.000000e+00   0.000000e+00
   0.000000e+00   0.000000e+00   0.000000e+00
VECTORS Real_Arrow_2.511800e+00(Hz) float
  -1.612233e-01  -6.182406e-02   0.000000e+00
  -1.978014e-01   6.172468e-02   0.000000e+00
   0.000000e+00   0.000000e+00   0.000000e+00
  -4.832090e-02  -4.687517e-01   0.000000e+00
  -1.930034e-01  -7.389170e-02   0.000000e+00
  -3.908577e-02  -8.168846e-02   0.000000e+00
   8.925415e-02  -1.495887e-01   0.000000e+00
  -2.044138e-01   3.870351e-03   0.000000e+00
   8.279688e-02  -1.931612e-01   0.000000e+00
  -2.036553e-01  -8.047165e-02   0.000000e+00
  -2.220022e-01   9.478977e-02   0.000000e+00
  -3.146485e-01  -8.199713e-02   0.000000e+00
   0.000000e+00   0.000000e+00   0.000000e+00
  -2.691970e-01  -1.181486e-01   0.000000e+00
  -1.317223e-01   2.831838e-02   0.000000e+00
   0.000000e+00   0.000000e+00   0.000000e+00
  -2.737177e-03  -4.510393e-02   0.000000e+00
   0.000000e+00   0.000000e+00   0.000000e+00
   0.000000e+00   0.000000e+00   0.000000e+00
   0.000000e+00   0.000000e+00   0.000000e+00
   0.000000e+00   0.000000e+00   0.000000e+00
  -2.335181e-01  -7.400165e-02   0.000000e+00
  -1.549558e-01   7.994207e-02   0.000000e+00
  -1.733456e-01  -1.303157e-01   0.000000e+00
   0.000000e+00   0.000000e+00   0.000000e+00
   0.000000e+00   0.000000e+00   0.000000e+00
  -1.147856e-01  -1.878310e-01   0.000000e+00
  -6.889703e-02  -1.302491e-01   0.000000e+00
  -1.187159e-01  -6.620046e-02   0.000000e+00
  -6.873608e-02  -3.830458e-02   0.000000e+00
  -1.299006e-01  -6.248151e-02   0.000000e+00
  -2.476801e-01  -5.714019e-02   0.000000e+00
   9.406668e-02  -1.225934e-02   0.000000e+00
   1.117107e-02  -4.261312e-02   0.000000e+00
  -6.565235e-02  -1.120958e-01   0.000000e+00
   0.000000e+00   0.000000e+00   0.000000e+00
  -1.864237e-01   3.448216e-02   0.000000e+00
  -1.434918e-01   2.811092e-02   0.000000e+00
  -1.876061e-01  -3.800290e-01   0.000000e+00
  -1.501990e-01   2.831113e-01   0.000000e+00
   0.000000e+00   0.000000e+00   0.000000e+00
  -1.739773e-01   8.884112e-03   0.000000e+00
   0.000000e+00   0.000000e+00   0.000000e+00
  -2.281789e-01  -7.400994e-02   0.000000e+00
   0.000000e+00   0.000000e+00   0.000000e+00
   0.000000e+00   0.000000e+00   0.000000e+00
VECTORS Imag_Arrow_2.511800e+00(Hz) float
  -3.045252e-02  -7.178810e-04   0.000000e+00
  -2.525780e-02  -6.249245e-02   0.000000e+00
   0.000000e+00   0.000000e+00   0.000000e+00
  -1.292837e-02   3.710144e-02   0.000000e+00
  -1.954704e-02  -3.706538e-03   0.000000e+00
   3.186787e-02  -5.466119e-02   0.000000e+00
   1.157569e-02  -1.511465e-02   0.000000e+00
  -2.962406e-02  -7.444786e-02   0.000000e+00
  -1.029424e-01  -7.644549e-03   0.000000e+00
  -1.230920e-02  -2.967089e-02   0.000000e+00
  -2.071152e-02  -3.484269e-02   0.000000e+00
  -3.341813e-02  -6.283248e-02   0.000000e+00
   0.000000e+00   0.000000e+00   0.000000e+00
   6.479311e-02  -6.145440e-02   0.000000e+00
  -3.836297e-02  -4.080203e-02   0.000000e+00
   0.000000e+00   0.000000e+00   0.000000e+00
   6.576944e-02   9.122891e-03   0.000000e+00
   0.000000e+00   0.000000e+00   0.000000e+00
   0.000000e+00   0.000000e+00   0.000000e+00
   0.000000e+00   0.000000e+00   0.000000e+00
   0.000000e+00   0.000000e+00   0.000000e+00
  -8.693514e-03  -2.932988e-02   0.000000e+00
  -3.581527e-02  -3.961608e-02   0.000000e+00
   3.893049e-03   7.232686e-03   0.000000e+00
   0.000000e+00   0.000000e+00   0.000000e+00
   0.000000e+00   0.000000e+00   0.000000e+00
   2.708105e-02  -4.497504e-02   0.000000e+00
   2.240232e-02  -6.298018e-02   0.000000e+00
  -1.662125e-02  -4.537904e-02   0.000000e+00
  -2.407527e-02  -9.697532e-03   0.000000e+00
  -1.138072e-02  -3.455775e-02   0.000000e+00
   1.469481e-02  -3.672001e-02   0.000000e+00
  -7.442944e-02  -9.731140e-02   0.000000e+00
  -8.934371e-02  -1.203751e-01   0.000000e+00
  -3.108513e-02   5.166652e-03   0.000000e+00
   0.000000e+00   0.000000e+00   0.000000e+00
   2.056517e-02  -1.122993e-01   0.000000e+00
  -1.314991e-02  -4.511195e-02   0.000000e+00
   4.346548e-02   3.380567e-02   0.000000e+00
  -1.066136e-02  -1.051699e-01   0.000000e+00
   0.000000e+00   0.000000e+00   0.000000e+00
  -3.292970e-02  -3.791602e-02   0.000000e+00
   0.000000e+00   0.000000e+00   0.000000e+00
   1.579229e-02  -3.317796e-02   0.000000e+00
   0.000000e+00   0.000000e+00   0.000000e+00
   0.000000e+00   0.000000e+00   0.000000e+00
VECTORS Real_Arrow_3.981000e+00(Hz) float
  -1.410468e-01  -6.030031e-02   0.000000e+00
  -1.752657e-01   8.577560e-02   0.000000e+00
   0.000000e+00   0.000000e+00   0.000000e+00
  -3.345916e-02  -4.871508e-01   0.000000e+00
  -1.775465e-01  -7.030384e-02   0.000000e+00
  -4.724639e-02  -5.808025e-02   0.000000e+00
   8.968475e-02  -1.441434e-01   0.000000e+00
  -1.840443e-01   3.896422e-02   0.000000e+00
   1.356911e-01  -1.865195e-01   0.000000e+00
  -1.936912e-01  -6.727184e-02   0.000000e+00
  -2.033909e-01   1.098872e-01   0.000000e+00
  -2.884976e-01  -4.381738e-02   0.000000e+00
   0.000000e+00   0.000000e+00   0.000000e+00
  -2.944520e-01  -9.546030e-02   0.000000e+00
  -1.088299e-01   4.446995e-02   0.000000e+00
   0.000000e+00   0.000000e+00   0.000000e+00
  -2.102994e-02  -4.524796e-02   0.000000e+00
   0.000000e+00   0.000000e+00   0.000000e+00
  -4.143474e-02  -1.839175e-02   0.000000e+00
   0.000000e+00   0.000000e+00   0.000000e+00
   0.000000e+00   0.000000e+00   0.000000e+00
  -2.234783e-01  -5.902190e-02   0.000000e+00
  -1.283540e-01   9.580560e-02   0.000000e+00
  -1.753312e-01  -1.302497e-01   0.000000e+00
   0.000000e+00   0.000000e+00   0.000000e+00
   0.000000e+00   0.000000e+00   0.000000e+00
  -1.214598e-01  -1.728134e-01   0.000000e+00
  -7.280519e-02  -1.064926e-01   0.000000e+00
  -1.058865e-01  -4.508801e-02   0.000000e+00
  -5.375422e-02  -3.291064e-02   0.000000e+00
   0.000000e+00   0.000000e+00   0.000000e+00
  -2.509379e-01  -4.054740e-02   0.000000e+00
   1.489143e-01   3.799211e-02   0.000000e+00
   5.734013e-02   8.114896e-03   0.000000e+00
  -4.699230e-02  -1.090644e-01   0.000000e+00
   0.000000e+00   0.000000e+00   0.000000e+00
   0.000000e+00   0.000000e+00   0.000000e+00
  -1.319667e-01   4.424252e-02   0.000000e+00
  -1.967630e-01  -4.008411e-01   0.000000e+00
  -1.425172e-01   3.419447e-01   0.000000e+00
  -1.107880e-01   2.635836e-02   0.000000e+00
  -1.512944e-01   2.571566e-02   0.000000e+00
   0.000000e+00   0.000000e+00   0.000000e+00
  -2.310550e-01  -5.910225e-02   0.000000e+00
  -1.405169e-01  -5.044329e-02   0.000000e+00
   6.934235e-02  -1.911735e-01   0.000000e+00
VECTORS Imag_Arrow_3.981000e+00(Hz) float
  -5.742188e-02   1.279645e-02   0.000000e+00
  -5.415312e-02  -5.083579e-02   0.000000e+00
   0.000000e+00   0.000000e+00   0.000000e+00
  -3.412533e-02   1.505623e-03   0.000000e+00
  -5.342737e-02   9.588493e-03   0.000000e+00
   2.255113e-02  -6.224067e-02   0.000000e+00
   1.124896e-02  -2.015950e-02   0.000000e+00
  -6.823995e-02  -7.634583e-02   0.000000e+00
  -1.228671e-01  -1.474510e-02   0.000000e+00
  -5.363405e-02  -2.709017e-02   0.000000e+00
  -4.150696e-02  -6.765129e-03   0.000000e+00
  -9.843796e-02  -9.404791e-02   0.000000e+00
   0.000000e+00   0.000000e+00   0.000000e+00
   2.930446e-02  -8.281056e-02   0.000000e+00
  -7.263210e-02  -2.498666e-02   0.000000e+00
   0.000000e+00   0.000000e+00   0.000000e+00
   7.416201e-02   3.153976e-02   0.000000e+00
   0.000000e+00   0.000000e+00   0.000000e+00
  -1.024750e-01  -3.542141e-03   0.000000e+00
   0.000000e+00   0.000000e+00   0.000000e+00
   0.000000e+00   0.000000e+00   0.000000e+00
  -4.705210e-02  -2.584307e-02   0.000000e+00
  -5.308375e-02  -1.523259e-02   0.000000e+00
  -3.410035e-02  -8.940253e-04   0.000000e+00
   0.000000e+00   0.000000e+00   0.000000e+00
   0.000000e+00   0.000000e+00   0.000000e+00
   4.333246e-03  -7.165358e-02   0.000000e+00
   6.046890e-03  -8.510037e-02   0.000000e+00
  -4.491773e-02  -5.660555e-02   0.000000e+00
  -5.776976e-02  -7.987820e-04   0.000000e+00
   0.000000e+00   0.000000e+00   0.000000e+00
  -2.160788e-02  -4.631303e-02   0.000000e+00
  -6.433357e-02  -9.717215e-02   0.000000e+00
  -1.207583e-01  -1.499990e-01   0.000000e+00
  -5.761750e-02   5.500868e-03   0.000000e+00
   0.000000e+00   0.000000e+00   0.000000e+00
   0.000000e+00   0.000000e+00   0.000000e+00
  -5.144486e-02  -3.557945e-02   0.000000e+00
   1.972907e-02   5.181676e-03   0.000000e+00
  -5.436272e-02  -4.338877e-02   0.000000e+00
  -5.504981e-02   2.425593e-02   0.000000e+00
  -6.594340e-02  -2.336230e-02   0.000000e+00
   0.000000e+00   0.000000e+00   0.000000e+00
  -2.671477e-02  -3.115074e-02   0.000000e+00
   1.807301e-02  -1.276216e-01   0.000000e+00
  -6.292114e-03  -6.673378e-02   0.000000e+00
