# vtk DataFile Version 2.0
Induction_Arrow_Iter2_PE7
ASCII
DATASET UNSTRUCTURED_GRID
POINTS 46 float
  -2.052000e+03    1.667000e+03   -4.526633e+02
  -1.265000e+03    2.333000e+03   -4.555885e+02
  -9.840000e+02    2.568000e+03   -4.612271e+02
   1.700000e+03   -1.757000e+03   -5.237752e+02
  -1.152000e+03    1.382000e+03   -4.549280e+02
   3.187000e+03    1.067000e+03   -8.370176e+02
   4.716000e+03    9.370000e+02   -8.015281e+02
  -1.855000e+03    5.260000e+02   -5.147377e+02
  -1.420000e+02   -1.905000e+03   -4.746368e+02
  -5.800000e+01    1.069000e+03   -4.555494e+02
  -2.802000e+03    3.302000e+03   -4.314337e+02
  -5.640000e+03   -1.532000e+03   -4.911771e+02
  -8.030000e+02   -5.610000e+02   -5.280929e+02
   1.008000e+03    4.130000e+02   -5.983358e+02
   1.960000e+02    2.246000e+03   -5.219413e+02
  -3.457000e+03    8.320000e+02   -4.470735e+02
   5.640000e+03    2.452000e+03   -7.393049e+02
  -1.334000e+03    3.332000e+03   -4.456136e+02
   1.244000e+03    1.880000e+03   -6.331107e+02
  -2.680000e+02    2.144000e+03   -4.891390e+02
  -4.063000e+03    6.620000e+02   -4.746103e+02
  -1.258000e+03    6.330000e+02   -4.856841e+02
  -2.141000e+03    3.194000e+03   -4.348461e+02
  -3.469000e+03   -3.059000e+03   -6.067613e+02
  -1.604000e+03   -2.570000e+02   -5.141257e+02
  -1.454000e+03    2.220000e+02   -5.386025e+02
   1.864000e+03    1.270000e+02   -7.404291e+02
   2.449000e+03    5.590000e+02   -7.805292e+02
  -1.834000e+03   -1.554000e+03   -6.273074e+02
   1.807000e+03    2.297000e+03   -6.825557e+02
  -2.560000e+03   -1.783000e+03   -6.131337e+02
  -2.741000e+03   -5.010000e+02   -5.080000e+02
   2.884000e+03   -2.179000e+03   -5.274708e+02
  -6.120000e+02   -8.960000e+02   -5.895389e+02
  -1.985000e+03   -2.653000e+03   -5.598834e+02
  -3.390000e+03   -4.000000e+02   -4.982361e+02
   1.586000e+03    1.342000e+03   -6.618442e+02
   1.047000e+03    2.401000e+03   -5.426792e+02
   8.380000e+02   -1.300000e+03   -4.783644e+02
   2.569000e+03    2.441000e+03   -6.035668e+02
  -2.028000e+03    2.833000e+03   -4.322286e+02
  -1.086000e+03    1.998000e+03   -4.563301e+02
   1.514000e+03   -3.332000e+03   -5.646205e+02
   7.040000e+02    1.116000e+03   -5.365099e+02
   1.990000e+03    6.360000e+02   -7.085272e+02
   3.722000e+03   -1.700000e+02   -6.745213e+02
CELLS 46 92
1 0
1 1
1 2
1 3
1 4
1 5
1 6
1 7
1 8
1 9
1 10
1 11
1 12
1 13
1 14
1 15
1 16
1 17
1 18
1 19
1 20
1 21
1 22
1 23
1 24
1 25
1 26
1 27
1 28
1 29
1 30
1 31
1 32
1 33
1 34
1 35
1 36
1 37
1 38
1 39
1 40
1 41
1 42
1 43
1 44
1 45
CELL_TYPES 46
1
1
1
1
1
1
1
1
1
1
1
1
1
1
1
1
1
1
1
1
1
1
1
1
1
1
1
1
1
1
1
1
1
1
1
1
1
1
1
1
1
1
1
1
1
1
POINT_DATA 46
VECTORS Real_Arrow_3.981000e+02(Hz) float
  -4.129459e-02  -3.367673e-02   0.000000e+00
  -1.137651e-01   1.742384e-01   0.000000e+00
  -9.530337e-02   1.068629e-01   0.000000e+00
   6.989411e-02  -8.366069e-02   0.000000e+00
   3.098321e-02  -3.604346e-02   0.000000e+00
   2.852845e-02  -1.894097e-02   0.000000e+00
   2.138758e-02   3.881692e-02   0.000000e+00
   4.611743e-03   2.158517e-02   0.000000e+00
   0.000000e+00   0.000000e+00   0.000000e+00
   4.088012e-02   1.310295e-02   0.000000e+00
  -3.766627e-02  -3.042814e-02   0.000000e+00
  -5.842220e-02   1.263858e-02   0.000000e+00
   3.843437e-02   2.223921e-01   0.000000e+00
   1.623333e-01   6.193948e-02   0.000000e+00
   2.417705e-02   3.888459e-02   0.000000e+00
   1.475270e-01  -2.386179e-02   0.000000e+00
  -1.700683e-01  -2.783972e-01   0.000000e+00
  -3.538299e-02   1.408603e-01   0.000000e+00
   2.651048e-01  -1.619951e-01   0.000000e+00
   7.095478e-02   3.843930e-02   0.000000e+00
  -8.408163e-02   4.854143e-02   0.000000e+00
  -2.469896e-02  -5.118848e-02   0.000000e+00
  -9.303504e-02   1.201688e-01   0.000000e+00
   8.735663e-02  -1.305349e-01   0.000000e+00
  -2.540164e-02  -6.455999e-02   0.000000e+00
  -2.750420e-02  -4.420508e-02   0.000000e+00
   1.295558e-01   1.300306e-01   0.000000e+00
   4.786689e-02   1.357944e-01   0.000000e+00
   4.055794e-02  -1.937204e-02   0.000000e+00
   6.419545e-02  -9.336227e-02   0.000000e+00
   3.248945e-02  -5.237939e-02   0.000000e+00
   3.976085e-02  -1.168856e-02   0.000000e+00
   7.683704e-02   6.252681e-02   0.000000e+00
  -1.056584e-02  -1.099027e-03   0.000000e+00
   0.000000e+00   0.000000e+00   0.000000e+00
   1.258168e-01  -1.455974e-01   0.000000e+00
   2.533500e-02   1.454997e-01   0.000000e+00
   0.000000e+00   0.000000e+00   0.000000e+00
  -8.429774e-03   2.730358e-02   0.000000e+00
   1.156341e-01  -1.365579e-01   0.000000e+00
  -7.995779e-02  -1.941010e-01   0.000000e+00
   1.932431e-02  -2.284700e-02   0.000000e+00
  -1.168227e-01  -8.035343e-02   0.000000e+00
   1.081372e-01   1.477788e-02   0.000000e+00
   7.644763e-02   3.031469e-01   0.000000e+00
  -6.130088e-04   1.041269e-01   0.000000e+00
VECTORS Imag_Arrow_3.981000e+02(Hz) float
  -1.449648e-02  -4.404508e-02   0.000000e+00
  -5.272733e-02   4.745205e-02   0.000000e+00
  -1.231764e-02   3.234862e-02   0.000000e+00
  -2.120552e-02  -1.161152e-01   0.000000e+00
  -3.170119e-02  -6.184165e-02   0.000000e+00
  -7.501412e-03   1.354163e-02   0.000000e+00
   1.499800e-02  -2.428416e-02   0.000000e+00
  -6.455521e-02   5.159483e-02   0.000000e+00
   0.000000e+00   0.000000e+00   0.000000e+00
   2.906308e-02  -1.875960e-02   0.000000e+00
  -2.239805e-02   2.692444e-02   0.000000e+00
  -6.843458e-03  -1.042842e-02   0.000000e+00
   3.365805e-02   1.939015e-01   0.000000e+00
  -8.810906e-02   2.861178e-02   0.000000e+00
   2.514041e-02   3.880397e-03   0.000000e+00
   6.979657e-03   2.195580e-02   0.000000e+00
  -1.241462e-03  -3.374377e-02   0.000000e+00
   2.707757e-02  -4.773125e-03   0.000000e+00
   4.755065e-02  -8.903161e-03   0.000000e+00
  -8.573698e-03  -1.907894e-03   0.000000e+00
  -1.401864e-02  -1.035510e-02   0.000000e+00
   2.561511e-02   1.035985e-02   0.000000e+00
   1.460156e-02  -3.892798e-03   0.000000e+00
  -3.723004e-02  -3.186478e-02   0.000000e+00
  -3.800843e-02   2.417891e-02   0.000000e+00
   1.349020e-02  -2.485466e-02   0.000000e+00
  -6.416758e-02   1.996092e-02   0.000000e+00
  -1.890539e-03  -2.392506e-03   0.000000e+00
   5.613200e-03   6.270877e-02   0.000000e+00
  -1.023029e-03  -1.874630e-03   0.000000e+00
   1.193586e-03   2.522599e-02   0.000000e+00
  -1.473027e-02  -1.399017e-02   0.000000e+00
  -5.333162e-03   1.956800e-02   0.000000e+00
   8.544089e-02   1.292547e-01   0.000000e+00
   0.000000e+00   0.000000e+00   0.000000e+00
  -5.027035e-02  -4.070080e-02   0.000000e+00
  -1.158912e-02   5.932536e-02   0.000000e+00
   0.000000e+00   0.000000e+00   0.000000e+00
  -8.404137e-02  -6.313114e-02   0.000000e+00
  -4.407382e-02   5.992578e-02   0.000000e+00
   7.184774e-03   1.518232e-02   0.000000e+00
  -1.546895e-02   1.743066e-02   0.000000e+00
  -6.000985e-02  -5.590393e-03   0.000000e+00
  -5.577427e-02  -5.703276e-02   0.000000e+00
  -6.289891e-02   6.404524e-02   0.000000e+00
   9.986595e-03  -2.465929e-02   0.000000e+00
VECTORS Real_Arrow_6.309500e+02(Hz) float
  -3.560743e-02  -1.943229e-02   0.000000e+00
  -8.974057e-02   1.487450e-01   0.000000e+00
  -8.646400e-02   9.303951e-02   0.000000e+00
   7.803138e-02  -4.840801e-02   0.000000e+00
   3.955060e-02  -1.445836e-02   0.000000e+00
   2.569371e-02  -1.851558e-02   0.000000e+00
   2.111912e-02   3.582150e-02   0.000000e+00
   2.805282e-02   2.088028e-03   0.000000e+00
   0.000000e+00   0.000000e+00   0.000000e+00
   2.889251e-02   1.672117e-02   0.000000e+00
  -3.255608e-02  -4.036503e-02   0.000000e+00
  -5.506513e-02   1.618598e-02   0.000000e+00
   3.136095e-02   1.616786e-01   0.000000e+00
   1.778062e-01   4.971833e-02   0.000000e+00
   1.585476e-02   3.755919e-02   0.000000e+00
   1.397730e-01  -2.966667e-02   0.000000e+00
  -1.722739e-01  -2.650889e-01   0.000000e+00
  -4.323771e-02   1.367955e-01   0.000000e+00
   2.399485e-01  -1.552024e-01   0.000000e+00
   7.618571e-02   4.064065e-02   0.000000e+00
  -7.942474e-02   5.171699e-02   0.000000e+00
  -3.619517e-02  -5.753619e-02   0.000000e+00
  -9.841405e-02   1.166428e-01   0.000000e+00
   9.684701e-02  -1.136376e-01   0.000000e+00
  -1.238983e-02  -5.605655e-02   0.000000e+00
  -3.182070e-02  -3.323744e-02   0.000000e+00
   1.502275e-01   1.144765e-01   0.000000e+00
   4.110917e-02   1.353530e-01   0.000000e+00
   3.323153e-02  -4.911626e-02   0.000000e+00
   6.707618e-02  -9.555165e-02   0.000000e+00
   2.850806e-02  -6.105127e-02   0.000000e+00
   3.148898e-02  -7.475488e-03   0.000000e+00
   7.707420e-02   5.695983e-02   0.000000e+00
  -3.435048e-02  -4.201249e-02   0.000000e+00
  -8.791485e-03  -2.670141e-02   0.000000e+00
   1.342332e-01  -1.301559e-01   0.000000e+00
   3.028945e-02   1.403743e-01   0.000000e+00
   0.000000e+00   0.000000e+00   0.000000e+00
   1.996260e-02   4.091582e-02   0.000000e+00
   1.297974e-01  -1.450969e-01   0.000000e+00
  -8.078259e-02  -1.948746e-01   0.000000e+00
   2.142934e-02  -2.924592e-02   0.000000e+00
  -8.825599e-02  -7.099042e-02   0.000000e+00
   1.238995e-01   3.411756e-02   0.000000e+00
   9.403337e-02   2.690853e-01   0.000000e+00
   1.285372e-03   1.070992e-01   0.000000e+00
VECTORS Imag_Arrow_6.309500e+02(Hz) float
  -1.242168e-02  -3.722833e-02   0.000000e+00
  -5.223061e-02   5.296271e-02   0.000000e+00
  -2.330606e-02   3.759397e-02   0.000000e+00
  -1.774397e-02  -1.138495e-01   0.000000e+00
  -2.347718e-02  -4.934041e-02   0.000000e+00
  -1.372272e-02   1.152226e-02   0.000000e+00
   7.151229e-03  -9.562723e-03   0.000000e+00
  -5.939541e-02   5.253003e-02   0.000000e+00
   0.000000e+00   0.000000e+00   0.000000e+00
   2.678188e-02  -1.266206e-02   0.000000e+00
  -2.087287e-02   1.667951e-02   0.000000e+00
  -4.214515e-03  -1.479956e-02   0.000000e+00
   1.957429e-02   1.749275e-01   0.000000e+00
  -6.747201e-02   2.031733e-02   0.000000e+00
   2.380497e-02   6.571046e-03   0.000000e+00
   2.136420e-02   1.670557e-02   0.000000e+00
  -1.857414e-02  -5.867675e-02   0.000000e+00
   1.513823e-02   2.328572e-02   0.000000e+00
   5.020787e-02  -1.131500e-02   0.000000e+00
  -1.946869e-02   1.320082e-03   0.000000e+00
  -1.183281e-02  -9.045756e-03   0.000000e+00
   3.019771e-02   1.469556e-02   0.000000e+00
   5.285563e-03   5.156305e-03   0.000000e+00
  -2.508523e-02  -4.356298e-02   0.000000e+00
  -3.939234e-02  -2.833223e-04   0.000000e+00
   1.234264e-02  -2.734183e-02   0.000000e+00
  -4.946186e-02   4.310939e-02   0.000000e+00
   1.135047e-03   6.200668e-03   0.000000e+00
   1.013684e-02   7.087319e-02   0.000000e+00
  -1.016235e-02   8.087629e-03   0.000000e+00
  -2.127711e-03   2.617893e-02   0.000000e+00
   7.348919e-03  -1.820487e-02   0.000000e+00
  -1.091741e-02   2.303210e-02   0.000000e+00
   6.759276e-02   1.063330e-01   0.000000e+00
   4.914236e-02  -7.664323e-02   0.000000e+00
  -4.304903e-02  -3.646130e-02   0.000000e+00
  -2.276322e-02   5.294741e-02   0.000000e+00
   0.000000e+00   0.000000e+00   0.000000e+00
  -7.071098e-02  -4.094168e-02   0.000000e+00
  -3.725024e-02   5.636958e-02   0.000000e+00
  -7.363536e-03  -6.158908e-03   0.000000e+00
  -5.020721e-03   6.896244e-03   0.000000e+00
  -6.866937e-02  -1.467534e-02   0.000000e+00
  -5.459193e-02  -5.675351e-02   0.000000e+00
  -4.966969e-02   8.302348e-02   0.000000e+00
   1.227491e-02  -2.461264e-02   0.000000e+00
VECTORS Real_Arrow_1.000000e+03(Hz) float
  -3.103643e-02  -8.937233e-03   0.000000e+00
  -7.090982e-02   1.266924e-01   0.000000e+00
  -7.370592e-02   7.831956e-02   0.000000e+00
   8.425423e-02  -1.122988e-02   0.000000e+00
   4.477404e-02  -1.646369e-03   0.000000e+00
   2.942458e-02  -1.786461e-02   0.000000e+00
   2.244905e-02   3.080187e-02   0.000000e+00
   4.866792e-02  -1.693559e-02   0.000000e+00
   0.000000e+00   0.000000e+00   0.000000e+00
   2.045566e-02   1.824949e-02   0.000000e+00
  -2.773700e-02  -4.441819e-02   0.000000e+00
  -5.305155e-02   2.074149e-02   0.000000e+00
   2.806459e-02   1.125150e-01   0.000000e+00
   1.882344e-01   4.690253e-02   0.000000e+00
   0.000000e+00   0.000000e+00   0.000000e+00
   1.276154e-01  -3.357078e-02   0.000000e+00
  -1.664142e-01  -2.425990e-01   0.000000e+00
  -4.522720e-02   1.197575e-01   0.000000e+00
   0.000000e+00   0.000000e+00   0.000000e+00
   8.545446e-02   4.173838e-02   0.000000e+00
  -7.481731e-02   5.487979e-02   0.000000e+00
  -4.831778e-02  -6.526457e-02   0.000000e+00
  -9.774363e-02   1.106864e-01   0.000000e+00
   0.000000e+00   0.000000e+00   0.000000e+00
   2.466038e-04  -4.299135e-02   0.000000e+00
  -3.502056e-02  -2.243572e-02   0.000000e+00
   1.635810e-01   9.269086e-02   0.000000e+00
   3.350733e-02   1.347022e-01   0.000000e+00
   2.538612e-02  -7.714859e-02   0.000000e+00
   7.218035e-02  -1.024191e-01   0.000000e+00
   2.880386e-02  -6.991462e-02   0.000000e+00
   2.105617e-02   1.340086e-04   0.000000e+00
   0.000000e+00   0.000000e+00   0.000000e+00
  -5.198014e-02  -7.114313e-02   0.000000e+00
   0.000000e+00   0.000000e+00   0.000000e+00
   1.428834e-01  -1.154485e-01   0.000000e+00
   3.994191e-02   1.296145e-01   0.000000e+00
   0.000000e+00   0.000000e+00   0.000000e+00
   0.000000e+00   0.000000e+00   0.000000e+00
   1.385113e-01  -1.543966e-01   0.000000e+00
   0.000000e+00   0.000000e+00   0.000000e+00
   0.000000e+00   0.000000e+00   0.000000e+00
  -6.115983e-02  -6.069131e-02   0.000000e+00
   1.416433e-01   5.248627e-02   0.000000e+00
   1.032042e-01   2.319455e-01   0.000000e+00
  -8.478738e-04   1.135985e-01   0.000000e+00
VECTORS Imag_Arrow_1.000000e+03(Hz) float
  -9.536635e-03  -2.886001e-02   0.000000e+00
  -4.623436e-02   5.026176e-02   0.000000e+00
  -2.950789e-02   4.000221e-02   0.000000e+00
  -1.250118e-02  -1.082781e-01   0.000000e+00
  -1.473138e-02  -3.446489e-02   0.000000e+00
  -2.399665e-02   1.505363e-02   0.000000e+00
   3.674188e-03  -2.902218e-03   0.000000e+00
  -5.008398e-02   4.949235e-02   0.000000e+00
   0.000000e+00   0.000000e+00   0.000000e+00
   2.335380e-02  -7.808932e-03   0.000000e+00
  -1.985337e-02   4.387804e-03   0.000000e+00
   4.733541e-04  -1.935326e-02   0.000000e+00
   5.433924e-03   1.553934e-01   0.000000e+00
  -5.475455e-02   1.039906e-02   0.000000e+00
   0.000000e+00   0.000000e+00   0.000000e+00
   3.257584e-02   1.127551e-02   0.000000e+00
  -4.141671e-02  -8.505292e-02   0.000000e+00
   3.433266e-03   4.555164e-02   0.000000e+00
   0.000000e+00   0.000000e+00   0.000000e+00
  -2.724338e-02   6.664545e-03   0.000000e+00
  -8.617165e-03  -6.683403e-03   0.000000e+00
   3.212985e-02   1.642879e-02   0.000000e+00
  -4.657769e-03   1.092308e-02   0.000000e+00
   0.000000e+00   0.000000e+00   0.000000e+00
  -3.913101e-02  -1.014039e-02   0.000000e+00
   1.155135e-02  -2.755469e-02   0.000000e+00
  -3.131468e-02   5.939999e-02   0.000000e+00
  -4.282433e-03   1.719664e-02   0.000000e+00
   9.287230e-03   6.771075e-02   0.000000e+00
  -1.706582e-02   1.483634e-02   0.000000e+00
  -7.820140e-03   2.604243e-02   0.000000e+00
   1.838205e-02  -2.210800e-02   0.000000e+00
   0.000000e+00   0.000000e+00   0.000000e+00
   4.842197e-02   8.029297e-02   0.000000e+00
   0.000000e+00   0.000000e+00   0.000000e+00
  -3.771979e-02  -2.867069e-02   0.000000e+00
  -2.872713e-02   5.497487e-02   0.000000e+00
   0.000000e+00   0.000000e+00   0.000000e+00
   0.000000e+00   0.000000e+00   0.000000e+00
  -2.976815e-02   5.849463e-02   0.000000e+00
   0.000000e+00   0.000000e+00   0.000000e+00
   0.000000e+00   0.000000e+00   0.000000e+00
  -6.890574e-02  -1.758029e-02   0.000000e+00
  -5.089927e-02  -5.537309e-02   0.000000e+00
  -3.801499e-02   9.150701e-02   0.000000e+00
   1.576574e-02  -2.392907e-02   0.000000e+00
