# vtk DataFile Version 2.0
Induction_Arrow_Iter2_PE2
ASCII
DATASET UNSTRUCTURED_GRID
POINTS 46 float
  -2.052000e+03    1.667000e+03   -4.526633e+02
  -1.265000e+03    2.333000e+03   -4.555885e+02
  -9.840000e+02    2.568000e+03   -4.612271e+02
   1.700000e+03   -1.757000e+03   -5.237752e+02
  -1.152000e+03    1.382000e+03   -4.549280e+02
   3.187000e+03    1.067000e+03   -8.370176e+02
   4.716000e+03    9.370000e+02   -8.015281e+02
  -1.855000e+03    5.260000e+02   -5.147377e+02
  -1.420000e+02   -1.905000e+03   -4.746368e+02
  -5.800000e+01    1.069000e+03   -4.555494e+02
  -2.802000e+03    3.302000e+03   -4.314337e+02
  -5.640000e+03   -1.532000e+03   -4.911771e+02
  -8.030000e+02   -5.610000e+02   -5.280929e+02
   1.008000e+03    4.130000e+02   -5.983358e+02
   1.960000e+02    2.246000e+03   -5.219413e+02
  -3.457000e+03    8.320000e+02   -4.470735e+02
   5.640000e+03    2.452000e+03   -7.393049e+02
  -1.334000e+03    3.332000e+03   -4.456136e+02
   1.244000e+03    1.880000e+03   -6.331107e+02
  -2.680000e+02    2.144000e+03   -4.891390e+02
  -4.063000e+03    6.620000e+02   -4.746103e+02
  -1.258000e+03    6.330000e+02   -4.856841e+02
  -2.141000e+03    3.194000e+03   -4.348461e+02
  -3.469000e+03   -3.059000e+03   -6.067613e+02
  -1.604000e+03   -2.570000e+02   -5.141257e+02
  -1.454000e+03    2.220000e+02   -5.386025e+02
   1.864000e+03    1.270000e+02   -7.404291e+02
   2.449000e+03    5.590000e+02   -7.805292e+02
  -1.834000e+03   -1.554000e+03   -6.273074e+02
   1.807000e+03    2.297000e+03   -6.825557e+02
  -2.560000e+03   -1.783000e+03   -6.131337e+02
  -2.741000e+03   -5.010000e+02   -5.080000e+02
   2.884000e+03   -2.179000e+03   -5.274708e+02
  -6.120000e+02   -8.960000e+02   -5.895389e+02
  -1.985000e+03   -2.653000e+03   -5.598834e+02
  -3.390000e+03   -4.000000e+02   -4.982361e+02
   1.586000e+03    1.342000e+03   -6.618442e+02
   1.047000e+03    2.401000e+03   -5.426792e+02
   8.380000e+02   -1.300000e+03   -4.783644e+02
   2.569000e+03    2.441000e+03   -6.035668e+02
  -2.028000e+03    2.833000e+03   -4.322286e+02
  -1.086000e+03    1.998000e+03   -4.563301e+02
   1.514000e+03   -3.332000e+03   -5.646205e+02
   7.040000e+02    1.116000e+03   -5.365099e+02
   1.990000e+03    6.360000e+02   -7.085272e+02
   3.722000e+03   -1.700000e+02   -6.745213e+02
CELLS 46 92
1 0
1 1
1 2
1 3
1 4
1 5
1 6
1 7
1 8
1 9
1 10
1 11
1 12
1 13
1 14
1 15
1 16
1 17
1 18
1 19
1 20
1 21
1 22
1 23
1 24
1 25
1 26
1 27
1 28
1 29
1 30
1 31
1 32
1 33
1 34
1 35
1 36
1 37
1 38
1 39
1 40
1 41
1 42
1 43
1 44
1 45
CELL_TYPES 46
1
1
1
1
1
1
1
1
1
1
1
1
1
1
1
1
1
1
1
1
1
1
1
1
1
1
1
1
1
1
1
1
1
1
1
1
1
1
1
1
1
1
1
1
1
1
POINT_DATA 46
VECTORS Real_Arrow_6.309500e+00(Hz) float
  -1.039201e-01  -7.120175e-02   0.000000e+00
  -1.369726e-01   9.718451e-02   0.000000e+00
   0.000000e+00   0.000000e+00   0.000000e+00
  -1.143717e-02  -4.897692e-01   0.000000e+00
  -1.453202e-01  -8.026213e-02   0.000000e+00
  -5.674883e-02  -3.142169e-02   0.000000e+00
   8.407027e-02  -1.405508e-01   0.000000e+00
  -1.441933e-01   7.238569e-02   0.000000e+00
   2.009656e-01  -1.823621e-01   0.000000e+00
  -1.631312e-01  -6.117783e-02   0.000000e+00
  -1.756546e-01   9.879249e-02   0.000000e+00
  -2.164537e-01   1.852537e-02   0.000000e+00
   0.000000e+00   0.000000e+00   0.000000e+00
  -3.030409e-01  -6.270256e-02   0.000000e+00
  -7.125796e-02   4.499642e-02   0.000000e+00
   0.000000e+00   0.000000e+00   0.000000e+00
  -4.923604e-02  -5.931730e-02   0.000000e+00
   0.000000e+00   0.000000e+00   0.000000e+00
   7.176272e-03  -2.015330e-02   0.000000e+00
  -3.539398e-02   4.086650e-02   0.000000e+00
   0.000000e+00   0.000000e+00   0.000000e+00
  -1.946371e-01  -4.972643e-02   0.000000e+00
  -9.530414e-02   9.010880e-02   0.000000e+00
  -1.589722e-01  -1.191168e-01   0.000000e+00
   0.000000e+00   0.000000e+00   0.000000e+00
  -1.368971e-01   2.629992e-02   0.000000e+00
  -1.196772e-01  -1.430346e-01   0.000000e+00
  -7.332467e-02  -7.144920e-02   0.000000e+00
  -7.454276e-02  -1.422377e-02   0.000000e+00
  -2.304898e-02  -3.524256e-02   0.000000e+00
   0.000000e+00   0.000000e+00   0.000000e+00
  -2.338752e-01  -2.032581e-02   0.000000e+00
   1.809460e-01   7.945514e-02   0.000000e+00
   1.293389e-01   8.196355e-02   0.000000e+00
  -1.452638e-02  -1.083245e-01   0.000000e+00
  -2.984985e-01  -1.768979e-01   0.000000e+00
   0.000000e+00   0.000000e+00   0.000000e+00
  -1.034709e-01   5.390680e-02   0.000000e+00
  -1.992459e-01  -4.129264e-01   0.000000e+00
  -1.043909e-01   3.463739e-01   0.000000e+00
  -7.914271e-02   8.670982e-03   0.000000e+00
  -1.100856e-01   2.840980e-02   0.000000e+00
   5.164501e-05   3.834552e-02   0.000000e+00
  -2.141600e-01  -4.974807e-02   0.000000e+00
  -1.463332e-01  -8.782036e-04   0.000000e+00
   7.961849e-02  -1.647990e-01   0.000000e+00
VECTORS Imag_Arrow_6.309500e+00(Hz) float
  -7.173550e-02   3.036466e-02   0.000000e+00
  -6.478601e-02  -3.068619e-02   0.000000e+00
   0.000000e+00   0.000000e+00   0.000000e+00
  -4.351281e-02  -4.966052e-02   0.000000e+00
  -7.697746e-02   2.920888e-02   0.000000e+00
   8.286443e-03  -6.014217e-02   0.000000e+00
   9.907384e-03  -2.318456e-02   0.000000e+00
  -9.339572e-02  -6.141097e-02   0.000000e+00
  -1.187862e-01  -1.607851e-02   0.000000e+00
  -9.182130e-02  -1.795480e-02   0.000000e+00
  -4.333700e-02   3.221408e-02   0.000000e+00
  -1.384262e-01  -9.392330e-02   0.000000e+00
   0.000000e+00   0.000000e+00   0.000000e+00
  -1.965950e-02  -9.945682e-02   0.000000e+00
  -9.582051e-02  -3.576351e-03   0.000000e+00
   0.000000e+00   0.000000e+00   0.000000e+00
   7.719984e-02   6.031556e-02   0.000000e+00
   0.000000e+00   0.000000e+00   0.000000e+00
  -1.444962e-01   2.375355e-02   0.000000e+00
  -1.119382e-01  -2.662402e-03   0.000000e+00
   0.000000e+00   0.000000e+00   0.000000e+00
  -7.856697e-02  -1.315667e-02   0.000000e+00
  -4.784570e-02   1.960900e-02   0.000000e+00
  -7.621743e-02  -5.140086e-03   0.000000e+00
   0.000000e+00   0.000000e+00   0.000000e+00
  -8.848623e-02  -4.429229e-02   0.000000e+00
  -2.184376e-02  -9.889722e-02   0.000000e+00
  -1.205648e-02  -1.025152e-01   0.000000e+00
  -6.271910e-02  -5.648273e-02   0.000000e+00
  -8.545034e-02   1.116362e-02   0.000000e+00
   0.000000e+00   0.000000e+00   0.000000e+00
  -5.522017e-02  -4.566732e-02   0.000000e+00
  -1.505538e-02  -6.945593e-02   0.000000e+00
  -1.282963e-01  -1.632407e-01   0.000000e+00
  -7.157265e-02   1.348286e-02   0.000000e+00
  -4.713969e-02   2.686881e-02   0.000000e+00
   0.000000e+00   0.000000e+00   0.000000e+00
  -8.504908e-02  -2.714551e-02   0.000000e+00
  -1.829843e-04  -4.089193e-02   0.000000e+00
  -1.006378e-01   5.930966e-02   0.000000e+00
  -5.343642e-02   6.339389e-02   0.000000e+00
  -8.478604e-02   1.168357e-03   0.000000e+00
   2.957038e-02  -3.006413e-02   0.000000e+00
  -7.056294e-02  -2.176527e-02   0.000000e+00
  -5.858985e-03  -1.552872e-01   0.000000e+00
  -1.065677e-02  -9.431233e-02   0.000000e+00
VECTORS Real_Arrow_1.000000e+01(Hz) float
  -6.600432e-02  -9.365103e-02   0.000000e+00
  -9.950313e-02   9.198218e-02   0.000000e+00
   0.000000e+00   0.000000e+00   0.000000e+00
   8.946580e-03  -4.640729e-01   0.000000e+00
  -1.060678e-01  -1.018503e-01   0.000000e+00
  -5.935040e-02  -8.870630e-03   0.000000e+00
   8.152108e-02  -1.360082e-01   0.000000e+00
  -9.277585e-02   9.449610e-02   0.000000e+00
   2.547976e-01  -1.741487e-01   0.000000e+00
  -1.202413e-01  -6.201227e-02   0.000000e+00
  -1.637798e-01   6.994823e-02   0.000000e+00
  -1.458622e-01   5.723061e-02   0.000000e+00
   0.000000e+00   0.000000e+00   0.000000e+00
  -2.942121e-01  -2.343888e-02   0.000000e+00
   0.000000e+00   0.000000e+00   0.000000e+00
  -8.592178e-02   1.976226e-02   0.000000e+00
  -7.914059e-02  -8.645582e-02   0.000000e+00
   3.280651e-02   5.947340e-02   0.000000e+00
   7.300421e-02  -3.394674e-02   0.000000e+00
   1.678163e-02   2.843818e-02   0.000000e+00
   0.000000e+00   0.000000e+00   0.000000e+00
  -1.545829e-01  -4.950746e-02   0.000000e+00
  -7.699722e-02   6.150876e-02   0.000000e+00
  -1.146142e-01  -1.146544e-01   0.000000e+00
   0.000000e+00   0.000000e+00   0.000000e+00
  -9.005165e-02   4.363341e-02   0.000000e+00
  -1.099470e-01  -1.032506e-01   0.000000e+00
  -6.691839e-02  -3.112668e-02   0.000000e+00
  -4.196690e-02   1.164915e-02   0.000000e+00
   0.000000e+00   0.000000e+00   0.000000e+00
   0.000000e+00   0.000000e+00   0.000000e+00
  -2.026991e-01   1.879886e-03   0.000000e+00
   1.631771e-01   9.353113e-02   0.000000e+00
   1.937190e-01   1.561716e-01   0.000000e+00
   2.106335e-02  -1.144876e-01   0.000000e+00
  -2.783261e-01  -1.839723e-01   0.000000e+00
   0.000000e+00   0.000000e+00   0.000000e+00
  -5.584596e-02   5.888065e-02   0.000000e+00
  -1.938987e-01  -3.978637e-01   0.000000e+00
  -4.758894e-02   2.948505e-01   0.000000e+00
  -5.710150e-02  -3.170962e-02   0.000000e+00
  -6.690679e-02   1.499689e-02   0.000000e+00
  -1.959809e-02   5.053987e-02   0.000000e+00
  -1.793908e-01  -4.784876e-02   0.000000e+00
  -1.424496e-01   5.867020e-02   0.000000e+00
   9.102274e-02  -1.246089e-01   0.000000e+00
VECTORS Imag_Arrow_1.000000e+01(Hz) float
  -7.121167e-02   3.634435e-02   0.000000e+00
  -5.695071e-02  -2.288687e-02   0.000000e+00
   0.000000e+00   0.000000e+00   0.000000e+00
  -4.608589e-02  -9.976976e-02   0.000000e+00
  -8.833602e-02   3.728157e-02   0.000000e+00
  -9.414925e-03  -5.276946e-02   0.000000e+00
   8.070447e-03  -3.070529e-02   0.000000e+00
  -9.788933e-02  -3.397033e-02   0.000000e+00
  -8.617050e-02  -1.207856e-02   0.000000e+00
  -1.221942e-01  -1.497292e-02   0.000000e+00
  -4.649692e-02   5.073806e-02   0.000000e+00
  -1.308963e-01  -5.357610e-02   0.000000e+00
   0.000000e+00   0.000000e+00   0.000000e+00
  -7.712919e-02  -1.107078e-01   0.000000e+00
   0.000000e+00   0.000000e+00   0.000000e+00
  -1.146019e-01  -4.153402e-02   0.000000e+00
   7.533271e-02   8.639456e-02   0.000000e+00
  -4.845254e-02   2.903673e-02   0.000000e+00
  -1.722676e-01   5.185975e-02   0.000000e+00
  -1.184827e-01   9.504351e-03   0.000000e+00
   0.000000e+00   0.000000e+00   0.000000e+00
  -9.856988e-02  -2.464790e-04   0.000000e+00
  -3.504933e-02   3.274668e-02   0.000000e+00
  -1.007341e-01  -3.568438e-03   0.000000e+00
   0.000000e+00   0.000000e+00   0.000000e+00
  -1.004374e-01  -1.615285e-02   0.000000e+00
  -4.956235e-02  -1.211031e-01   0.000000e+00
  -3.128112e-02  -1.133801e-01   0.000000e+00
  -6.481128e-02  -4.304881e-02   0.000000e+00
   0.000000e+00   0.000000e+00   0.000000e+00
   0.000000e+00   0.000000e+00   0.000000e+00
  -8.366612e-02  -3.513772e-02   0.000000e+00
   3.598053e-02  -3.881789e-02   0.000000e+00
  -1.035522e-01  -1.485252e-01   0.000000e+00
  -6.833838e-02   2.727048e-02   0.000000e+00
  -1.041996e-01   2.435384e-02   0.000000e+00
   0.000000e+00   0.000000e+00   0.000000e+00
  -1.052803e-01  -1.614433e-02   0.000000e+00
  -1.923143e-02  -9.817587e-02   0.000000e+00
  -1.188255e-01   1.376341e-01   0.000000e+00
  -4.411492e-02   8.152660e-02   0.000000e+00
  -8.702486e-02   1.482393e-02   0.000000e+00
   5.797323e-02  -1.463904e-03   0.000000e+00
  -1.116099e-01  -1.536540e-02   0.000000e+00
  -3.359511e-02  -1.750767e-01   0.000000e+00
  -5.991370e-03  -1.176105e-01   0.000000e+00
VECTORS Real_Arrow_1.584800e+01(Hz) float
  -3.304275e-02  -1.160967e-01   0.000000e+00
  -7.214327e-02   8.801305e-02   0.000000e+00
   0.000000e+00   0.000000e+00   0.000000e+00
   2.886080e-02  -4.152178e-01   0.000000e+00
  -6.612589e-02  -1.245049e-01   0.000000e+00
  -5.190596e-02   1.021467e-02   0.000000e+00
   8.245280e-02  -1.285531e-01   0.000000e+00
  -4.702206e-02   9.864195e-02   0.000000e+00
   2.858729e-01  -1.724257e-01   0.000000e+00
  -6.370682e-02  -6.127104e-02   0.000000e+00
  -1.519621e-01   4.258756e-02   0.000000e+00
   0.000000e+00   0.000000e+00   0.000000e+00
   0.000000e+00   0.000000e+00   0.000000e+00
  -2.569073e-01   2.221305e-02   0.000000e+00
   0.000000e+00   0.000000e+00   0.000000e+00
  -3.899274e-02   3.461614e-02   0.000000e+00
  -1.053512e-01  -1.252479e-01   0.000000e+00
   4.633859e-02   3.578319e-02   0.000000e+00
   1.501541e-01  -6.251681e-02   0.000000e+00
   6.899177e-02   1.524159e-02   0.000000e+00
  -1.180270e-01   2.655912e-03   0.000000e+00
  -1.100320e-01  -5.652662e-02   0.000000e+00
  -6.928511e-02   3.505239e-02   0.000000e+00
  -6.741278e-02  -1.133139e-01   0.000000e+00
   0.000000e+00   0.000000e+00   0.000000e+00
  -4.282355e-02   4.377487e-02   0.000000e+00
  -8.730306e-02  -5.298075e-02   0.000000e+00
  -5.082899e-02   1.380458e-02   0.000000e+00
  -1.742139e-02   2.494384e-02   0.000000e+00
   0.000000e+00   0.000000e+00   0.000000e+00
   0.000000e+00   0.000000e+00   0.000000e+00
  -1.625677e-01   1.334460e-02   0.000000e+00
   1.221561e-01   9.519060e-02   0.000000e+00
   2.370291e-01   2.186108e-01   0.000000e+00
   4.759817e-02  -1.345851e-01   0.000000e+00
  -2.280833e-01  -1.951422e-01   0.000000e+00
   0.000000e+00   0.000000e+00   0.000000e+00
   8.374415e-04   6.044913e-02   0.000000e+00
  -1.824766e-01  -3.518342e-01   0.000000e+00
   6.446270e-03   2.199788e-01   0.000000e+00
  -4.336303e-02  -7.040835e-02   0.000000e+00
  -2.830489e-02  -2.022032e-04   0.000000e+00
  -5.227460e-02   4.399963e-02   0.000000e+00
  -1.261513e-01  -4.745117e-02   0.000000e+00
  -1.249360e-01   1.279794e-01   0.000000e+00
   9.889515e-02  -7.521408e-02   0.000000e+00
VECTORS Imag_Arrow_1.584800e+01(Hz) float
  -5.148760e-02   2.686169e-02   0.000000e+00
  -2.814488e-02  -3.300934e-02   0.000000e+00
   0.000000e+00   0.000000e+00   0.000000e+00
  -4.250219e-02  -1.405669e-01   0.000000e+00
  -8.255035e-02   3.061888e-02   0.000000e+00
  -2.891114e-02  -4.031423e-02   0.000000e+00
   7.268880e-03  -4.234308e-02   0.000000e+00
  -7.604031e-02  -2.555772e-03   0.000000e+00
  -3.307405e-02  -5.029565e-03   0.000000e+00
  -1.395577e-01  -1.972658e-02   0.000000e+00
  -5.719672e-02   5.001240e-02   0.000000e+00
   0.000000e+00   0.000000e+00   0.000000e+00
   0.000000e+00   0.000000e+00   0.000000e+00
  -1.370162e-01  -1.126973e-01   0.000000e+00
   0.000000e+00   0.000000e+00   0.000000e+00
  -1.336732e-01  -2.515420e-02   0.000000e+00
   6.540007e-02   1.040267e-01   0.000000e+00
  -2.332613e-02   1.448508e-02   0.000000e+00
  -1.761907e-01   7.381768e-02   0.000000e+00
  -1.049765e-01   6.670187e-03   0.000000e+00
  -2.700477e-03  -3.814568e-02   0.000000e+00
  -1.031185e-01   7.990400e-03   0.000000e+00
  -2.126544e-02   1.968729e-02   0.000000e+00
  -1.027573e-01   4.053052e-04   0.000000e+00
   0.000000e+00   0.000000e+00   0.000000e+00
  -9.098886e-02   1.717821e-02   0.000000e+00
  -7.723958e-02  -1.336977e-01   0.000000e+00
  -4.984579e-02  -1.145073e-01   0.000000e+00
  -5.409957e-02  -1.978470e-02   0.000000e+00
   0.000000e+00   0.000000e+00   0.000000e+00
   0.000000e+00   0.000000e+00   0.000000e+00
  -9.780011e-02  -1.473217e-02   0.000000e+00
   5.202772e-02  -1.892043e-02   0.000000e+00
  -4.933585e-02  -1.045277e-01   0.000000e+00
  -5.244536e-02   3.694749e-02   0.000000e+00
  -1.586039e-01   2.167485e-02   0.000000e+00
   0.000000e+00   0.000000e+00   0.000000e+00
  -1.004435e-01  -7.213215e-03   0.000000e+00
  -3.568691e-02  -1.567017e-01   0.000000e+00
  -1.101528e-01   1.824780e-01   0.000000e+00
  -3.027568e-02   7.660262e-02   0.000000e+00
  -6.963970e-02   1.309539e-02   0.000000e+00
   7.086267e-02   3.098145e-02   0.000000e+00
  -1.413557e-01  -1.481038e-02   0.000000e+00
  -6.220735e-02  -1.820578e-01   0.000000e+00
   8.950485e-03  -1.282595e-01   0.000000e+00
VECTORS Real_Arrow_2.511800e+01(Hz) float
  -2.025400e-02  -1.287451e-01   0.000000e+00
  -7.108757e-02   9.923683e-02   0.000000e+00
   0.000000e+00   0.000000e+00   0.000000e+00
   4.474396e-02  -3.522627e-01   0.000000e+00
  -3.834343e-02  -1.394151e-01   0.000000e+00
  -3.417832e-02   2.287018e-02   0.000000e+00
   8.440398e-02  -1.154310e-01   0.000000e+00
  -2.586815e-02   8.573009e-02   0.000000e+00
   2.854150e-01  -1.783343e-01   0.000000e+00
  -2.851459e-05  -5.429632e-02   0.000000e+00
  -1.286915e-01   2.434105e-02   0.000000e+00
  -7.308619e-02   4.695602e-02   0.000000e+00
   0.000000e+00   0.000000e+00   0.000000e+00
  -1.906742e-01   6.908384e-02   0.000000e+00
   6.322121e-02   1.568345e-02   0.000000e+00
   1.803404e-02   3.949214e-02   0.000000e+00
  -1.240313e-01  -1.703972e-01   0.000000e+00
   4.494619e-02   3.238838e-02   0.000000e+00
   2.214751e-01  -1.012436e-01   0.000000e+00
   1.076188e-01   1.120774e-02   0.000000e+00
  -1.215405e-01   1.139580e-02   0.000000e+00
  -6.935867e-02  -6.650915e-02   0.000000e+00
  -6.812137e-02   2.700516e-02   0.000000e+00
  -3.070217e-02  -1.153162e-01   0.000000e+00
   0.000000e+00   0.000000e+00   0.000000e+00
  -8.752985e-03   2.535579e-02   0.000000e+00
  -5.155783e-02   1.082568e-03   0.000000e+00
  -2.530550e-02   5.677710e-02   0.000000e+00
  -4.923373e-03   2.222198e-02   0.000000e+00
   0.000000e+00   0.000000e+00   0.000000e+00
  -9.216869e-03  -2.415238e-03   0.000000e+00
  -1.238169e-01   9.926635e-03   0.000000e+00
   9.365035e-02   9.442074e-02   0.000000e+00
   2.443190e-01   2.530592e-01   0.000000e+00
   6.311470e-02  -1.624138e-01   0.000000e+00
  -1.518215e-01  -2.071112e-01   0.000000e+00
   0.000000e+00   0.000000e+00   0.000000e+00
   4.594159e-02   5.892479e-02   0.000000e+00
  -1.664529e-01  -2.749149e-01   0.000000e+00
   4.435166e-02   1.404143e-01   0.000000e+00
  -3.844056e-02  -9.444586e-02   0.000000e+00
  -8.989466e-03  -5.992688e-03   0.000000e+00
  -8.487750e-02   1.953743e-02   0.000000e+00
  -6.243035e-02  -4.452539e-02   0.000000e+00
  -9.351523e-02   1.990275e-01   0.000000e+00
   9.575054e-02  -2.644021e-02   0.000000e+00
VECTORS Imag_Arrow_2.511800e+01(Hz) float
  -1.942038e-02   5.337106e-03   0.000000e+00
   1.159980e-02  -5.307676e-02   0.000000e+00
   0.000000e+00   0.000000e+00   0.000000e+00
  -3.163577e-02  -1.636050e-01   0.000000e+00
  -6.336725e-02   1.271851e-02   0.000000e+00
  -4.402883e-02  -2.238109e-02   0.000000e+00
   1.166732e-02  -5.714582e-02   0.000000e+00
  -3.736669e-02   2.216959e-02   0.000000e+00
   2.661448e-02  -1.492545e-03   0.000000e+00
  -1.361438e-01  -2.635788e-02   0.000000e+00
  -7.078093e-02   4.258658e-02   0.000000e+00
  -7.225770e-02   6.966151e-03   0.000000e+00
   0.000000e+00   0.000000e+00   0.000000e+00
  -1.847969e-01  -9.944563e-02   0.000000e+00
  -6.719787e-02  -6.469298e-05   0.000000e+00
  -1.407492e-01  -7.534224e-03   0.000000e+00
   5.207870e-02   1.093641e-01   0.000000e+00
  -6.149426e-04  -1.108331e-02   0.000000e+00
  -1.525468e-01   8.185840e-02   0.000000e+00
  -7.265599e-02  -4.651238e-03   0.000000e+00
  -4.393134e-03  -3.215829e-02   0.000000e+00
  -9.461865e-02   8.501273e-03   0.000000e+00
  -1.178026e-02  -7.190694e-03   0.000000e+00
  -9.158135e-02   3.740621e-03   0.000000e+00
   0.000000e+00   0.000000e+00   0.000000e+00
  -6.433646e-02   4.698171e-02   0.000000e+00
  -9.830474e-02  -1.308984e-01   0.000000e+00
  -6.213783e-02  -1.028472e-01   0.000000e+00
  -4.262367e-02   1.655580e-03   0.000000e+00
   0.000000e+00   0.000000e+00   0.000000e+00
  -6.253974e-02   1.540230e-02   0.000000e+00
  -9.905622e-02   4.884956e-03   0.000000e+00
   4.057459e-02  -4.586809e-03   0.000000e+00
   1.779269e-02  -3.910830e-02   0.000000e+00
  -3.296238e-02   2.965910e-02   0.000000e+00
  -1.940182e-01   1.063213e-02   0.000000e+00
   0.000000e+00   0.000000e+00   0.000000e+00
  -6.586927e-02  -4.688392e-04   0.000000e+00
  -4.808303e-02  -1.990444e-01   0.000000e+00
  -8.627948e-02   2.034930e-01   0.000000e+00
  -1.680203e-02   6.210247e-02   0.000000e+00
  -3.927575e-02   2.331051e-03   0.000000e+00
   6.977566e-02   5.468374e-02   0.000000e+00
  -1.514306e-01  -1.701471e-02   0.000000e+00
  -8.427472e-02  -1.696296e-01   0.000000e+00
   3.116055e-02  -1.250046e-01   0.000000e+00
VECTORS Real_Arrow_3.981000e+01(Hz) float
  -3.069310e-02  -1.261334e-01   0.000000e+00
  -9.811394e-02   1.287267e-01   0.000000e+00
  -3.847602e-02   9.254925e-02   0.000000e+00
   5.071649e-02  -2.867971e-01   0.000000e+00
  -2.775911e-02  -1.426752e-01   0.000000e+00
  -1.055039e-02   2.497979e-02   0.000000e+00
   8.209832e-02  -9.417552e-02   0.000000e+00
   0.000000e+00   0.000000e+00   0.000000e+00
   2.551049e-01  -1.883375e-01   0.000000e+00
   5.727188e-02  -4.388234e-02   0.000000e+00
  -9.578448e-02   1.183465e-02   0.000000e+00
  -5.948322e-02   3.356368e-02   0.000000e+00
   0.000000e+00   0.000000e+00   0.000000e+00
  -1.067551e-01   1.058469e-01   0.000000e+00
   7.859552e-02   1.834155e-02   0.000000e+00
   7.714362e-02   3.754990e-02   0.000000e+00
  -1.361266e-01  -2.154457e-01   0.000000e+00
   3.648410e-02   4.597320e-02   0.000000e+00
   0.000000e+00   0.000000e+00   0.000000e+00
   1.228843e-01   1.787440e-02   0.000000e+00
  -1.209638e-01   1.952166e-02   0.000000e+00
  -3.529757e-02  -7.343929e-02   0.000000e+00
  -6.788991e-02   3.842401e-02   0.000000e+00
  -5.162057e-03  -1.192835e-01   0.000000e+00
   0.000000e+00   0.000000e+00   0.000000e+00
   5.215793e-03  -8.707789e-03   0.000000e+00
  -8.429391e-03   4.821655e-02   0.000000e+00
   4.638197e-03   8.924863e-02   0.000000e+00
   0.000000e+00   0.000000e+00   0.000000e+00
   1.286857e-01  -1.151392e-01   0.000000e+00
   9.905624e-03  -1.650078e-02   0.000000e+00
  -9.053220e-02  -3.008988e-03   0.000000e+00
   0.000000e+00   0.000000e+00   0.000000e+00
   2.157367e-01   2.508593e-01   0.000000e+00
   7.067913e-02  -1.821589e-01   0.000000e+00
  -6.526989e-02  -2.110061e-01   0.000000e+00
   0.000000e+00   0.000000e+00   0.000000e+00
   5.868379e-02   5.722580e-02   0.000000e+00
  -1.492730e-01  -1.820097e-01   0.000000e+00
   6.321148e-02   5.867947e-02   0.000000e+00
  -3.848833e-02  -1.069519e-01   0.000000e+00
  -1.304591e-02  -6.084161e-04   0.000000e+00
  -1.136668e-01  -1.146574e-02   0.000000e+00
  -1.518762e-03  -4.036250e-02   0.000000e+00
  -5.452585e-02   2.590742e-01   0.000000e+00
   7.793289e-02   1.553393e-02   0.000000e+00
VECTORS Imag_Arrow_3.981000e+01(Hz) float
   4.539306e-03  -2.019867e-02   0.000000e+00
   3.763278e-02  -6.726938e-02   0.000000e+00
   3.083973e-02  -4.051615e-02   0.000000e+00
  -1.777419e-02  -1.678923e-01   0.000000e+00
  -4.559936e-02  -1.088406e-02   0.000000e+00
  -4.955752e-02  -2.765475e-03   0.000000e+00
   2.127213e-02  -7.296377e-02   0.000000e+00
   0.000000e+00   0.000000e+00   0.000000e+00
   7.613533e-02  -8.423086e-03   0.000000e+00
  -1.074915e-01  -3.017916e-02   0.000000e+00
  -7.333314e-02   3.399355e-02   0.000000e+00
  -4.720236e-02   1.588774e-02   0.000000e+00
   0.000000e+00   0.000000e+00   0.000000e+00
  -2.075489e-01  -6.976957e-02   0.000000e+00
  -2.912611e-02  -1.118356e-02   0.000000e+00
  -1.269869e-01   8.224553e-03   0.000000e+00
   4.008904e-02   1.005345e-01   0.000000e+00
   1.272175e-02  -2.996758e-02   0.000000e+00
   0.000000e+00   0.000000e+00   0.000000e+00
  -3.380410e-02  -1.478888e-02   0.000000e+00
  -1.104995e-02  -2.964813e-02   0.000000e+00
  -7.823785e-02   8.137218e-05   0.000000e+00
  -7.314316e-03  -3.235681e-02   0.000000e+00
  -7.902808e-02   4.992126e-03   0.000000e+00
   0.000000e+00   0.000000e+00   0.000000e+00
  -3.299706e-02   6.302997e-02   0.000000e+00
  -1.064122e-01  -1.134428e-01   0.000000e+00
  -6.293374e-02  -8.202843e-02   0.000000e+00
   0.000000e+00   0.000000e+00   0.000000e+00
  -2.971673e-02   5.149715e-02   0.000000e+00
  -5.594730e-02   2.196467e-02   0.000000e+00
  -9.492078e-02   1.500180e-02   0.000000e+00
   0.000000e+00   0.000000e+00   0.000000e+00
   7.628475e-02   3.124753e-02   0.000000e+00
  -1.318624e-02   1.030001e-03   0.000000e+00
  -1.998284e-01  -7.539631e-03   0.000000e+00
   0.000000e+00   0.000000e+00   0.000000e+00
  -1.715348e-02   1.942892e-03   0.000000e+00
  -5.727470e-02  -2.080480e-01   0.000000e+00
  -6.126316e-02   2.065053e-01   0.000000e+00
  -8.703795e-03   5.205213e-02   0.000000e+00
  -1.581611e-02  -6.534671e-03   0.000000e+00
   5.934615e-02   6.246842e-02   0.000000e+00
  -1.399765e-01  -1.909923e-02   0.000000e+00
  -9.308622e-02  -1.387908e-01   0.000000e+00
   5.274223e-02  -1.133854e-01   0.000000e+00
VECTORS Real_Arrow_6.309500e+01(Hz) float
  -4.732445e-02  -1.097087e-01   0.000000e+00
  -1.317529e-01   1.659631e-01   0.000000e+00
  -6.339842e-02   1.167638e-01   0.000000e+00
   4.786749e-02  -2.278860e-01   0.000000e+00
  -2.352495e-02  -1.328610e-01   0.000000e+00
   1.168631e-02   1.769056e-02   0.000000e+00
   7.240223e-02  -6.324082e-02   0.000000e+00
   0.000000e+00   0.000000e+00   0.000000e+00
   0.000000e+00   0.000000e+00   0.000000e+00
   9.087474e-02  -3.324976e-02   0.000000e+00
  -6.731442e-02   5.286720e-03   0.000000e+00
  -5.455701e-02   2.041138e-02   0.000000e+00
   0.000000e+00   0.000000e+00   0.000000e+00
  -2.270872e-02   1.226968e-01   0.000000e+00
   7.259188e-02   2.940843e-02   0.000000e+00
   1.210060e-01   2.949251e-02   0.000000e+00
  -1.448671e-01  -2.530974e-01   0.000000e+00
   2.858844e-02   6.425428e-02   0.000000e+00
   0.000000e+00   0.000000e+00   0.000000e+00
   1.172294e-01   2.957223e-02   0.000000e+00
  -1.151879e-01   2.893079e-02   0.000000e+00
  -8.277698e-03  -6.922408e-02   0.000000e+00
  -6.545967e-02   6.219079e-02   0.000000e+00
   0.000000e+00   0.000000e+00   0.000000e+00
   0.000000e+00   0.000000e+00   0.000000e+00
   3.454882e-03  -4.701692e-02   0.000000e+00
   3.232644e-02   8.265337e-02   0.000000e+00
   3.045821e-02   1.094355e-01   0.000000e+00
   0.000000e+00   0.000000e+00   0.000000e+00
   1.235458e-01  -1.368151e-01   0.000000e+00
   2.931627e-02  -2.675095e-02   0.000000e+00
  -5.970250e-02  -1.731641e-02   0.000000e+00
   7.810296e-02   8.225390e-02   0.000000e+00
   1.651279e-01   2.164480e-01   0.000000e+00
   0.000000e+00   0.000000e+00   0.000000e+00
   1.264475e-02  -2.045385e-01   0.000000e+00
   4.341515e-02   2.988674e-01   0.000000e+00
   0.000000e+00   0.000000e+00   0.000000e+00
  -1.310699e-01  -9.974451e-02   0.000000e+00
   7.033168e-02  -2.024761e-02   0.000000e+00
  -3.728313e-02  -1.184901e-01   0.000000e+00
  -2.401018e-02   9.449142e-03   0.000000e+00
  -1.366280e-01  -3.939284e-02   0.000000e+00
   4.482244e-02  -3.735623e-02   0.000000e+00
  -1.826748e-02   3.011139e-01   0.000000e+00
   4.786243e-02   5.092306e-02   0.000000e+00
VECTORS Imag_Arrow_6.309500e+01(Hz) float
   8.434032e-03  -3.998688e-02   0.000000e+00
   3.479210e-02  -6.214681e-02   0.000000e+00
   3.357594e-02  -3.043858e-02   0.000000e+00
  -1.002480e-02  -1.579430e-01   0.000000e+00
  -4.036384e-02  -3.394039e-02   0.000000e+00
  -4.449828e-02   1.193787e-02   0.000000e+00
   3.153639e-02  -8.478936e-02   0.000000e+00
   0.000000e+00   0.000000e+00   0.000000e+00
   0.000000e+00   0.000000e+00   0.000000e+00
  -6.008591e-02  -3.191933e-02   0.000000e+00
  -6.200305e-02   2.599395e-02   0.000000e+00
  -2.743001e-02   1.688082e-02   0.000000e+00
   0.000000e+00   0.000000e+00   0.000000e+00
  -2.028337e-01  -3.207884e-02   0.000000e+00
   1.144176e-03  -1.668091e-02   0.000000e+00
  -9.398682e-02   2.197549e-02   0.000000e+00
   3.076580e-02   7.869416e-02   0.000000e+00
   2.129635e-02  -3.768845e-02   0.000000e+00
   0.000000e+00   0.000000e+00   0.000000e+00
  -3.291174e-03  -1.644921e-02   0.000000e+00
  -1.667520e-02  -2.656653e-02   0.000000e+00
  -5.377633e-02  -1.194630e-02   0.000000e+00
  -3.385193e-03  -4.589329e-02   0.000000e+00
   0.000000e+00   0.000000e+00   0.000000e+00
   0.000000e+00   0.000000e+00   0.000000e+00
  -9.065814e-03   5.634424e-02   0.000000e+00
  -1.010712e-01  -8.944997e-02   0.000000e+00
  -5.174440e-02  -6.078333e-02   0.000000e+00
   0.000000e+00   0.000000e+00   0.000000e+00
   4.970858e-03   2.680906e-02   0.000000e+00
  -4.679111e-02   2.142818e-02   0.000000e+00
  -8.930954e-02   1.324710e-02   0.000000e+00
   1.529193e-02   1.244390e-02   0.000000e+00
   1.118016e-01   8.885207e-02   0.000000e+00
   0.000000e+00   0.000000e+00   0.000000e+00
  -1.776432e-01  -2.650361e-02   0.000000e+00
  -7.353050e-02   3.484199e-02   0.000000e+00
   0.000000e+00   0.000000e+00   0.000000e+00
  -6.708747e-02  -1.825879e-01   0.000000e+00
  -4.634012e-02   1.890654e-01   0.000000e+00
  -3.599385e-03   5.004731e-02   0.000000e+00
  -1.345877e-02  -5.817591e-03   0.000000e+00
   4.057464e-02   5.828270e-02   0.000000e+00
  -1.139504e-01  -2.223719e-02   0.000000e+00
  -8.866658e-02  -9.848152e-02   0.000000e+00
   6.417711e-02  -9.817777e-02   0.000000e+00
