# vtk DataFile Version 2.0
Induction_Arrow_Iter8_PE2
ASCII
DATASET UNSTRUCTURED_GRID
POINTS 46 float
  -2.052000e+03    1.667000e+03   -4.526633e+02
  -1.265000e+03    2.333000e+03   -4.555885e+02
  -9.840000e+02    2.568000e+03   -4.612271e+02
   1.700000e+03   -1.757000e+03   -5.237752e+02
  -1.152000e+03    1.382000e+03   -4.549280e+02
   3.187000e+03    1.067000e+03   -8.370176e+02
   4.716000e+03    9.370000e+02   -8.015281e+02
  -1.855000e+03    5.260000e+02   -5.147377e+02
  -1.420000e+02   -1.905000e+03   -4.746368e+02
  -5.800000e+01    1.069000e+03   -4.555494e+02
  -2.802000e+03    3.302000e+03   -4.314337e+02
  -5.640000e+03   -1.532000e+03   -4.911771e+02
  -8.030000e+02   -5.610000e+02   -5.280929e+02
   1.008000e+03    4.130000e+02   -5.983358e+02
   1.960000e+02    2.246000e+03   -5.219413e+02
  -3.457000e+03    8.320000e+02   -4.470735e+02
   5.640000e+03    2.452000e+03   -7.393049e+02
  -1.334000e+03    3.332000e+03   -4.456136e+02
   1.244000e+03    1.880000e+03   -6.331107e+02
  -2.680000e+02    2.144000e+03   -4.891390e+02
  -4.063000e+03    6.620000e+02   -4.746103e+02
  -1.258000e+03    6.330000e+02   -4.856841e+02
  -2.141000e+03    3.194000e+03   -4.348461e+02
  -3.469000e+03   -3.059000e+03   -6.067613e+02
  -1.604000e+03   -2.570000e+02   -5.141257e+02
  -1.454000e+03    2.220000e+02   -5.386025e+02
   1.864000e+03    1.270000e+02   -7.404291e+02
   2.449000e+03    5.590000e+02   -7.805292e+02
  -1.834000e+03   -1.554000e+03   -6.273074e+02
   1.807000e+03    2.297000e+03   -6.825557e+02
  -2.560000e+03   -1.783000e+03   -6.131337e+02
  -2.741000e+03   -5.010000e+02   -5.080000e+02
   2.884000e+03   -2.179000e+03   -5.274708e+02
  -6.120000e+02   -8.960000e+02   -5.895389e+02
  -1.985000e+03   -2.653000e+03   -5.598834e+02
  -3.390000e+03   -4.000000e+02   -4.982361e+02
   1.586000e+03    1.342000e+03   -6.618442e+02
   1.047000e+03    2.401000e+03   -5.426792e+02
   8.380000e+02   -1.300000e+03   -4.783644e+02
   2.569000e+03    2.441000e+03   -6.035668e+02
  -2.028000e+03    2.833000e+03   -4.322286e+02
  -1.086000e+03    1.998000e+03   -4.563301e+02
   1.514000e+03   -3.332000e+03   -5.646205e+02
   7.040000e+02    1.116000e+03   -5.365099e+02
   1.990000e+03    6.360000e+02   -7.085272e+02
   3.722000e+03   -1.700000e+02   -6.745213e+02
CELLS 46 92
1 0
1 1
1 2
1 3
1 4
1 5
1 6
1 7
1 8
1 9
1 10
1 11
1 12
1 13
1 14
1 15
1 16
1 17
1 18
1 19
1 20
1 21
1 22
1 23
1 24
1 25
1 26
1 27
1 28
1 29
1 30
1 31
1 32
1 33
1 34
1 35
1 36
1 37
1 38
1 39
1 40
1 41
1 42
1 43
1 44
1 45
CELL_TYPES 46
1
1
1
1
1
1
1
1
1
1
1
1
1
1
1
1
1
1
1
1
1
1
1
1
1
1
1
1
1
1
1
1
1
1
1
1
1
1
1
1
1
1
1
1
1
1
POINT_DATA 46
VECTORS Real_Arrow_3.981000e-01(Hz) float
   0.000000e+00   0.000000e+00   0.000000e+00
   0.000000e+00   0.000000e+00   0.000000e+00
   0.000000e+00   0.000000e+00   0.000000e+00
   6.428612e-03  -3.742499e-01   0.000000e+00
   0.000000e+00   0.000000e+00   0.000000e+00
   0.000000e+00   0.000000e+00   0.000000e+00
   0.000000e+00   0.000000e+00   0.000000e+00
   0.000000e+00   0.000000e+00   0.000000e+00
   0.000000e+00   0.000000e+00   0.000000e+00
  -1.187507e-01  -1.144847e-01   0.000000e+00
  -1.926051e-01   1.705442e-02   0.000000e+00
   0.000000e+00   0.000000e+00   0.000000e+00
   0.000000e+00   0.000000e+00   0.000000e+00
   0.000000e+00   0.000000e+00   0.000000e+00
   0.000000e+00   0.000000e+00   0.000000e+00
   0.000000e+00   0.000000e+00   0.000000e+00
   6.186346e-02  -9.363462e-02   0.000000e+00
   0.000000e+00   0.000000e+00   0.000000e+00
   0.000000e+00   0.000000e+00   0.000000e+00
   0.000000e+00   0.000000e+00   0.000000e+00
   0.000000e+00   0.000000e+00   0.000000e+00
   0.000000e+00   0.000000e+00   0.000000e+00
   0.000000e+00   0.000000e+00   0.000000e+00
   0.000000e+00   0.000000e+00   0.000000e+00
   0.000000e+00   0.000000e+00   0.000000e+00
   0.000000e+00   0.000000e+00   0.000000e+00
  -2.417639e-02  -1.869152e-01   0.000000e+00
   5.678517e-03  -1.534444e-01   0.000000e+00
   0.000000e+00   0.000000e+00   0.000000e+00
  -1.406747e-02  -1.017029e-01   0.000000e+00
   0.000000e+00   0.000000e+00   0.000000e+00
   0.000000e+00   0.000000e+00   0.000000e+00
   0.000000e+00   0.000000e+00   0.000000e+00
   8.079082e-03  -9.666546e-02   0.000000e+00
   0.000000e+00   0.000000e+00   0.000000e+00
   0.000000e+00   0.000000e+00   0.000000e+00
   0.000000e+00   0.000000e+00   0.000000e+00
   0.000000e+00   0.000000e+00   0.000000e+00
  -7.645782e-02  -3.049458e-01   0.000000e+00
  -6.750754e-02   1.128975e-01   0.000000e+00
  -1.289719e-01  -3.270927e-02   0.000000e+00
   0.000000e+00   0.000000e+00   0.000000e+00
   0.000000e+00   0.000000e+00   0.000000e+00
   0.000000e+00   0.000000e+00   0.000000e+00
   0.000000e+00   0.000000e+00   0.000000e+00
   0.000000e+00   0.000000e+00   0.000000e+00
VECTORS Imag_Arrow_3.981000e-01(Hz) float
   0.000000e+00   0.000000e+00   0.000000e+00
   0.000000e+00   0.000000e+00   0.000000e+00
   0.000000e+00   0.000000e+00   0.000000e+00
   6.621924e-02   6.340040e-02   0.000000e+00
   0.000000e+00   0.000000e+00   0.000000e+00
   0.000000e+00   0.000000e+00   0.000000e+00
   0.000000e+00   0.000000e+00   0.000000e+00
   0.000000e+00   0.000000e+00   0.000000e+00
   0.000000e+00   0.000000e+00   0.000000e+00
   9.208730e-02  -1.405634e-02   0.000000e+00
   7.407581e-02  -4.899349e-02   0.000000e+00
   0.000000e+00   0.000000e+00   0.000000e+00
   0.000000e+00   0.000000e+00   0.000000e+00
   0.000000e+00   0.000000e+00   0.000000e+00
   0.000000e+00   0.000000e+00   0.000000e+00
   0.000000e+00   0.000000e+00   0.000000e+00
   9.377607e-02  -1.682014e-02   0.000000e+00
   0.000000e+00   0.000000e+00   0.000000e+00
   0.000000e+00   0.000000e+00   0.000000e+00
   0.000000e+00   0.000000e+00   0.000000e+00
   0.000000e+00   0.000000e+00   0.000000e+00
   0.000000e+00   0.000000e+00   0.000000e+00
   0.000000e+00   0.000000e+00   0.000000e+00
   0.000000e+00   0.000000e+00   0.000000e+00
   0.000000e+00   0.000000e+00   0.000000e+00
   0.000000e+00   0.000000e+00   0.000000e+00
   9.018053e-02   4.742376e-03   0.000000e+00
   8.158386e-02  -8.101030e-03   0.000000e+00
   0.000000e+00   0.000000e+00   0.000000e+00
   7.431737e-02  -7.065923e-03   0.000000e+00
   0.000000e+00   0.000000e+00   0.000000e+00
   0.000000e+00   0.000000e+00   0.000000e+00
   0.000000e+00   0.000000e+00   0.000000e+00
   1.381954e-02  -3.002074e-02   0.000000e+00
   0.000000e+00   0.000000e+00   0.000000e+00
   0.000000e+00   0.000000e+00   0.000000e+00
   0.000000e+00   0.000000e+00   0.000000e+00
   0.000000e+00   0.000000e+00   0.000000e+00
   1.039827e-01   4.720819e-02   0.000000e+00
   9.256975e-02  -8.747570e-02   0.000000e+00
   5.695024e-02  -3.219744e-02   0.000000e+00
   0.000000e+00   0.000000e+00   0.000000e+00
   0.000000e+00   0.000000e+00   0.000000e+00
   0.000000e+00   0.000000e+00   0.000000e+00
   0.000000e+00   0.000000e+00   0.000000e+00
   0.000000e+00   0.000000e+00   0.000000e+00
VECTORS Real_Arrow_6.309500e-01(Hz) float
   0.000000e+00   0.000000e+00   0.000000e+00
  -1.807543e-01  -1.882507e-03   0.000000e+00
   0.000000e+00   0.000000e+00   0.000000e+00
  -1.645618e-02  -3.949661e-01   0.000000e+00
  -1.607939e-01  -9.258174e-02   0.000000e+00
   0.000000e+00   0.000000e+00   0.000000e+00
   9.917639e-02  -1.540967e-01   0.000000e+00
   0.000000e+00   0.000000e+00   0.000000e+00
   0.000000e+00   0.000000e+00   0.000000e+00
  -1.500109e-01  -1.092889e-01   0.000000e+00
  -2.162094e-01   3.541760e-02   0.000000e+00
   0.000000e+00   0.000000e+00   0.000000e+00
   0.000000e+00   0.000000e+00   0.000000e+00
  -1.598130e-01  -1.427475e-01   0.000000e+00
  -1.187431e-01  -2.843612e-02   0.000000e+00
   0.000000e+00   0.000000e+00   0.000000e+00
   3.419930e-02  -8.490008e-02   0.000000e+00
   0.000000e+00   0.000000e+00   0.000000e+00
   0.000000e+00   0.000000e+00   0.000000e+00
   0.000000e+00   0.000000e+00   0.000000e+00
   0.000000e+00   0.000000e+00   0.000000e+00
   0.000000e+00   0.000000e+00   0.000000e+00
  -1.661528e-01   1.883899e-02   0.000000e+00
   0.000000e+00   0.000000e+00   0.000000e+00
   0.000000e+00   0.000000e+00   0.000000e+00
   0.000000e+00   0.000000e+00   0.000000e+00
  -5.421404e-02  -1.897482e-01   0.000000e+00
  -2.133893e-02  -1.522777e-01   0.000000e+00
   0.000000e+00   0.000000e+00   0.000000e+00
  -4.041524e-02  -9.774071e-02   0.000000e+00
  -9.048297e-02  -6.756081e-02   0.000000e+00
  -1.784803e-01  -6.811429e-02   0.000000e+00
   0.000000e+00   0.000000e+00   0.000000e+00
   1.007022e-03  -9.084532e-02   0.000000e+00
   0.000000e+00   0.000000e+00   0.000000e+00
   0.000000e+00   0.000000e+00   0.000000e+00
  -1.200513e-01  -3.730048e-02   0.000000e+00
   0.000000e+00   0.000000e+00   0.000000e+00
   0.000000e+00   0.000000e+00   0.000000e+00
  -9.809377e-02   1.420752e-01   0.000000e+00
  -1.474557e-01  -1.896599e-02   0.000000e+00
  -1.542993e-01  -4.011574e-02   0.000000e+00
   0.000000e+00   0.000000e+00   0.000000e+00
  -1.541410e-01  -1.084797e-01   0.000000e+00
   0.000000e+00   0.000000e+00   0.000000e+00
   0.000000e+00   0.000000e+00   0.000000e+00
VECTORS Imag_Arrow_6.309500e-01(Hz) float
   0.000000e+00   0.000000e+00   0.000000e+00
   6.184443e-02  -5.349238e-02   0.000000e+00
   0.000000e+00   0.000000e+00   0.000000e+00
   5.197439e-02   6.425753e-02   0.000000e+00
   6.232709e-02  -1.323680e-02   0.000000e+00
   0.000000e+00   0.000000e+00   0.000000e+00
   4.487517e-02  -2.757415e-03   0.000000e+00
   0.000000e+00   0.000000e+00   0.000000e+00
   0.000000e+00   0.000000e+00   0.000000e+00
   7.473430e-02  -1.832113e-02   0.000000e+00
   5.267216e-02  -5.136940e-02   0.000000e+00
   0.000000e+00   0.000000e+00   0.000000e+00
   0.000000e+00   0.000000e+00   0.000000e+00
   1.183838e-01  -1.755304e-02   0.000000e+00
   5.409304e-02  -4.388292e-02   0.000000e+00
   0.000000e+00   0.000000e+00   0.000000e+00
   7.995559e-02  -1.672718e-02   0.000000e+00
   0.000000e+00   0.000000e+00   0.000000e+00
   0.000000e+00   0.000000e+00   0.000000e+00
   0.000000e+00   0.000000e+00   0.000000e+00
   0.000000e+00   0.000000e+00   0.000000e+00
   0.000000e+00   0.000000e+00   0.000000e+00
   3.868182e-02  -5.075001e-02   0.000000e+00
   0.000000e+00   0.000000e+00   0.000000e+00
   0.000000e+00   0.000000e+00   0.000000e+00
   0.000000e+00   0.000000e+00   0.000000e+00
   7.893591e-02  -1.953481e-03   0.000000e+00
   6.969506e-02  -1.684149e-02   0.000000e+00
   0.000000e+00   0.000000e+00   0.000000e+00
   5.937270e-02  -8.254722e-03   0.000000e+00
   3.661995e-02  -1.131047e-02   0.000000e+00
   7.223676e-02  -1.033749e-02   0.000000e+00
   0.000000e+00   0.000000e+00   0.000000e+00
  -3.126700e-03  -4.404714e-02   0.000000e+00
   0.000000e+00   0.000000e+00   0.000000e+00
   0.000000e+00   0.000000e+00   0.000000e+00
   9.144290e-02  -5.754911e-02   0.000000e+00
   0.000000e+00   0.000000e+00   0.000000e+00
   0.000000e+00   0.000000e+00   0.000000e+00
   7.282187e-02  -1.047396e-01   0.000000e+00
   3.656038e-02  -3.290714e-02   0.000000e+00
   5.475971e-02  -3.726637e-02   0.000000e+00
   0.000000e+00   0.000000e+00   0.000000e+00
   9.743411e-02  -1.891496e-02   0.000000e+00
   0.000000e+00   0.000000e+00   0.000000e+00
   0.000000e+00   0.000000e+00   0.000000e+00
VECTORS Real_Arrow_1.000000e+00(Hz) float
  -1.600341e-01  -7.030584e-02   0.000000e+00
  -2.002699e-01   1.666824e-02   0.000000e+00
   0.000000e+00   0.000000e+00   0.000000e+00
  -3.310549e-02  -4.194914e-01   0.000000e+00
  -1.810343e-01  -8.632263e-02   0.000000e+00
   0.000000e+00   0.000000e+00   0.000000e+00
   8.851517e-02  -1.531033e-01   0.000000e+00
  -1.912638e-01  -2.960021e-02   0.000000e+00
   0.000000e+00   0.000000e+00   0.000000e+00
  -1.749894e-01  -1.028348e-01   0.000000e+00
  -2.315658e-01   5.576802e-02   0.000000e+00
  -2.814137e-01  -9.171448e-02   0.000000e+00
   0.000000e+00   0.000000e+00   0.000000e+00
  -1.973734e-01  -1.397511e-01   0.000000e+00
   0.000000e+00   0.000000e+00   0.000000e+00
   0.000000e+00   0.000000e+00   0.000000e+00
   1.572532e-02  -7.606390e-02   0.000000e+00
   0.000000e+00   0.000000e+00   0.000000e+00
   0.000000e+00   0.000000e+00   0.000000e+00
   0.000000e+00   0.000000e+00   0.000000e+00
   0.000000e+00   0.000000e+00   0.000000e+00
   0.000000e+00   0.000000e+00   0.000000e+00
  -1.769345e-01   3.860956e-02   0.000000e+00
   0.000000e+00   0.000000e+00   0.000000e+00
   0.000000e+00   0.000000e+00   0.000000e+00
   0.000000e+00   0.000000e+00   0.000000e+00
  -7.868830e-02  -1.921419e-01   0.000000e+00
  -4.207170e-02  -1.494936e-01   0.000000e+00
   0.000000e+00   0.000000e+00   0.000000e+00
  -6.118003e-02  -9.411898e-02   0.000000e+00
  -1.046936e-01  -6.608246e-02   0.000000e+00
  -2.024059e-01  -6.714562e-02   0.000000e+00
   0.000000e+00   0.000000e+00   0.000000e+00
  -1.390207e-03  -8.114520e-02   0.000000e+00
   0.000000e+00   0.000000e+00   0.000000e+00
   0.000000e+00   0.000000e+00   0.000000e+00
  -1.491970e-01  -2.126645e-02   0.000000e+00
   0.000000e+00   0.000000e+00   0.000000e+00
  -1.397267e-01  -3.384169e-01   0.000000e+00
  -1.209809e-01   1.841182e-01   0.000000e+00
  -1.578454e-01  -3.883934e-03   0.000000e+00
  -1.722564e-01  -2.613209e-02   0.000000e+00
   0.000000e+00   0.000000e+00   0.000000e+00
  -1.863148e-01  -1.016873e-01   0.000000e+00
   0.000000e+00   0.000000e+00   0.000000e+00
   0.000000e+00   0.000000e+00   0.000000e+00
VECTORS Imag_Arrow_1.000000e+00(Hz) float
   2.148439e-02  -9.765395e-03   0.000000e+00
   3.643743e-02  -5.952969e-02   0.000000e+00
   0.000000e+00   0.000000e+00   0.000000e+00
   3.316771e-02   6.315510e-02   0.000000e+00
   4.020815e-02  -1.158762e-02   0.000000e+00
   0.000000e+00   0.000000e+00   0.000000e+00
   3.010934e-02  -5.822391e-03   0.000000e+00
   3.765599e-02  -5.134911e-02   0.000000e+00
   0.000000e+00   0.000000e+00   0.000000e+00
   5.191106e-02  -2.223298e-02   0.000000e+00
   2.696535e-02  -4.994391e-02   0.000000e+00
   4.381428e-02  -6.719863e-03   0.000000e+00
   0.000000e+00   0.000000e+00   0.000000e+00
   1.053920e-01  -2.769762e-02   0.000000e+00
   0.000000e+00   0.000000e+00   0.000000e+00
   0.000000e+00   0.000000e+00   0.000000e+00
   6.689864e-02  -1.297067e-02   0.000000e+00
   0.000000e+00   0.000000e+00   0.000000e+00
   0.000000e+00   0.000000e+00   0.000000e+00
   0.000000e+00   0.000000e+00   0.000000e+00
   0.000000e+00   0.000000e+00   0.000000e+00
   0.000000e+00   0.000000e+00   0.000000e+00
   1.254534e-02  -5.135247e-02   0.000000e+00
   0.000000e+00   0.000000e+00   0.000000e+00
   0.000000e+00   0.000000e+00   0.000000e+00
   0.000000e+00   0.000000e+00   0.000000e+00
   6.401103e-02  -1.118797e-02   0.000000e+00
   5.453945e-02  -2.828975e-02   0.000000e+00
   0.000000e+00   0.000000e+00   0.000000e+00
   3.871450e-02  -7.342511e-03   0.000000e+00
   2.769838e-02  -1.585848e-02   0.000000e+00
   6.391665e-02  -1.205887e-02   0.000000e+00
   0.000000e+00   0.000000e+00   0.000000e+00
  -2.632049e-02  -6.374781e-02   0.000000e+00
   0.000000e+00   0.000000e+00   0.000000e+00
   0.000000e+00   0.000000e+00   0.000000e+00
   7.302239e-02  -7.527469e-02   0.000000e+00
   0.000000e+00   0.000000e+00   0.000000e+00
   8.277144e-02   5.116557e-02   0.000000e+00
   4.884430e-02  -1.220098e-01   0.000000e+00
   1.195720e-02  -2.913795e-02   0.000000e+00
   2.960978e-02  -4.009861e-02   0.000000e+00
   0.000000e+00   0.000000e+00   0.000000e+00
   7.764774e-02  -2.332994e-02   0.000000e+00
   0.000000e+00   0.000000e+00   0.000000e+00
   0.000000e+00   0.000000e+00   0.000000e+00
