# vtk DataFile Version 2.0
Induction_Arrow_Iter7_PE6
ASCII
DATASET UNSTRUCTURED_GRID
POINTS 46 float
  -2.052000e+03    1.667000e+03   -4.526633e+02
  -1.265000e+03    2.333000e+03   -4.555885e+02
  -9.840000e+02    2.568000e+03   -4.612271e+02
   1.700000e+03   -1.757000e+03   -5.237752e+02
  -1.152000e+03    1.382000e+03   -4.549280e+02
   3.187000e+03    1.067000e+03   -8.370176e+02
   4.716000e+03    9.370000e+02   -8.015281e+02
  -1.855000e+03    5.260000e+02   -5.147377e+02
  -1.420000e+02   -1.905000e+03   -4.746368e+02
  -5.800000e+01    1.069000e+03   -4.555494e+02
  -2.802000e+03    3.302000e+03   -4.314337e+02
  -5.640000e+03   -1.532000e+03   -4.911771e+02
  -8.030000e+02   -5.610000e+02   -5.280929e+02
   1.008000e+03    4.130000e+02   -5.983358e+02
   1.960000e+02    2.246000e+03   -5.219413e+02
  -3.457000e+03    8.320000e+02   -4.470735e+02
   5.640000e+03    2.452000e+03   -7.393049e+02
  -1.334000e+03    3.332000e+03   -4.456136e+02
   1.244000e+03    1.880000e+03   -6.331107e+02
  -2.680000e+02    2.144000e+03   -4.891390e+02
  -4.063000e+03    6.620000e+02   -4.746103e+02
  -1.258000e+03    6.330000e+02   -4.856841e+02
  -2.141000e+03    3.194000e+03   -4.348461e+02
  -3.469000e+03   -3.059000e+03   -6.067613e+02
  -1.604000e+03   -2.570000e+02   -5.141257e+02
  -1.454000e+03    2.220000e+02   -5.386025e+02
   1.864000e+03    1.270000e+02   -7.404291e+02
   2.449000e+03    5.590000e+02   -7.805292e+02
  -1.834000e+03   -1.554000e+03   -6.273074e+02
   1.807000e+03    2.297000e+03   -6.825557e+02
  -2.560000e+03   -1.783000e+03   -6.131337e+02
  -2.741000e+03   -5.010000e+02   -5.080000e+02
   2.884000e+03   -2.179000e+03   -5.274708e+02
  -6.120000e+02   -8.960000e+02   -5.895389e+02
  -1.985000e+03   -2.653000e+03   -5.598834e+02
  -3.390000e+03   -4.000000e+02   -4.982361e+02
   1.586000e+03    1.342000e+03   -6.618442e+02
   1.047000e+03    2.401000e+03   -5.426792e+02
   8.380000e+02   -1.300000e+03   -4.783644e+02
   2.569000e+03    2.441000e+03   -6.035668e+02
  -2.028000e+03    2.833000e+03   -4.322286e+02
  -1.086000e+03    1.998000e+03   -4.563301e+02
   1.514000e+03   -3.332000e+03   -5.646205e+02
   7.040000e+02    1.116000e+03   -5.365099e+02
   1.990000e+03    6.360000e+02   -7.085272e+02
   3.722000e+03   -1.700000e+02   -6.745213e+02
CELLS 46 92
1 0
1 1
1 2
1 3
1 4
1 5
1 6
1 7
1 8
1 9
1 10
1 11
1 12
1 13
1 14
1 15
1 16
1 17
1 18
1 19
1 20
1 21
1 22
1 23
1 24
1 25
1 26
1 27
1 28
1 29
1 30
1 31
1 32
1 33
1 34
1 35
1 36
1 37
1 38
1 39
1 40
1 41
1 42
1 43
1 44
1 45
CELL_TYPES 46
1
1
1
1
1
1
1
1
1
1
1
1
1
1
1
1
1
1
1
1
1
1
1
1
1
1
1
1
1
1
1
1
1
1
1
1
1
1
1
1
1
1
1
1
1
1
POINT_DATA 46
VECTORS Real_Arrow_1.000000e+02(Hz) float
  -5.799095e-02  -8.942602e-02   0.000000e+00
  -1.565815e-01   2.006267e-01   0.000000e+00
  -8.514427e-02   1.329766e-01   0.000000e+00
   4.775478e-02  -1.842829e-01   0.000000e+00
  -1.146951e-02  -1.147546e-01   0.000000e+00
   2.663429e-02   8.778363e-03   0.000000e+00
   5.690263e-02  -2.624528e-02   0.000000e+00
  -6.669623e-02   5.201633e-02   0.000000e+00
   0.000000e+00   0.000000e+00   0.000000e+00
   9.421603e-02  -1.821160e-02   0.000000e+00
  -5.654141e-02   4.441866e-03   0.000000e+00
  -5.787897e-02   7.810054e-03   0.000000e+00
   0.000000e+00   0.000000e+00   0.000000e+00
   5.068724e-02   1.109040e-01   0.000000e+00
   5.708481e-02   4.046253e-02   0.000000e+00
   1.433215e-01   1.385645e-02   0.000000e+00
  -1.502241e-01  -2.766974e-01   0.000000e+00
   1.392081e-02   8.327291e-02   0.000000e+00
   0.000000e+00   0.000000e+00   0.000000e+00
   9.453013e-02   3.580553e-02   0.000000e+00
  -9.938596e-02   3.656553e-02   0.000000e+00
   1.004797e-02  -5.536958e-02   0.000000e+00
  -6.269423e-02   9.543932e-02   0.000000e+00
   3.602155e-02  -1.331760e-01   0.000000e+00
   0.000000e+00   0.000000e+00   0.000000e+00
  -5.222372e-03  -7.776273e-02   0.000000e+00
   5.608825e-02   1.072050e-01   0.000000e+00
   4.226978e-02   1.252898e-01   0.000000e+00
   3.672077e-02   1.079903e-02   0.000000e+00
   9.853072e-02  -1.230243e-01   0.000000e+00
   4.073245e-02  -3.653968e-02   0.000000e+00
  -1.698730e-02  -2.251209e-02   0.000000e+00
   7.711588e-02   7.843523e-02   0.000000e+00
   1.090189e-01   1.777532e-01   0.000000e+00
   6.385297e-02  -1.577312e-01   0.000000e+00
   8.962582e-02  -1.897134e-01   0.000000e+00
   5.139262e-02   2.710419e-01   0.000000e+00
   0.000000e+00   0.000000e+00   0.000000e+00
  -1.006098e-01  -4.195655e-02   0.000000e+00
   7.304753e-02  -8.549006e-02   0.000000e+00
   0.000000e+00   0.000000e+00   0.000000e+00
  -2.050813e-02   1.105713e-02   0.000000e+00
  -1.542029e-01  -6.474269e-02   0.000000e+00
   7.018273e-02  -3.408351e-02   0.000000e+00
   5.111859e-03   3.318825e-01   0.000000e+00
   1.613440e-02   7.882233e-02   0.000000e+00
VECTORS Imag_Arrow_1.000000e+02(Hz) float
  -3.132761e-03  -5.180978e-02   0.000000e+00
   1.061676e-02  -3.447546e-02   0.000000e+00
   2.417029e-02  -9.557500e-03   0.000000e+00
  -1.191382e-02  -1.415489e-01   0.000000e+00
  -4.596413e-02  -5.110173e-02   0.000000e+00
  -3.196672e-02   2.222846e-02   0.000000e+00
   3.319019e-02  -8.439944e-02   0.000000e+00
  -3.075798e-02   2.404057e-02   0.000000e+00
   0.000000e+00   0.000000e+00   0.000000e+00
  -1.765356e-02  -3.540788e-02   0.000000e+00
  -4.458410e-02   2.698781e-02   0.000000e+00
  -1.409658e-02   8.859424e-03   0.000000e+00
   0.000000e+00   0.000000e+00   0.000000e+00
  -1.812113e-01   2.257888e-03   0.000000e+00
   1.614246e-02  -8.421941e-03   0.000000e+00
  -5.650312e-02   3.269836e-02   0.000000e+00
   2.530608e-02   4.529516e-02   0.000000e+00
   3.155105e-02  -4.915945e-02   0.000000e+00
   0.000000e+00   0.000000e+00   0.000000e+00
   1.208097e-02  -8.752848e-03   0.000000e+00
  -1.621603e-02  -1.731497e-02   0.000000e+00
  -2.054959e-02  -1.819232e-02   0.000000e+00
   8.649292e-03  -4.356631e-02   0.000000e+00
  -6.332629e-02   6.594086e-03   0.000000e+00
   0.000000e+00   0.000000e+00   0.000000e+00
   5.129214e-03   2.537114e-02   0.000000e+00
  -9.109447e-02  -6.379936e-02   0.000000e+00
  -3.638089e-02  -4.206121e-02   0.000000e+00
  -2.411219e-02   1.368604e-02   0.000000e+00
   2.253298e-02  -6.713558e-03   0.000000e+00
  -2.228944e-02   2.218494e-02   0.000000e+00
  -8.890562e-02   1.150133e-02   0.000000e+00
   9.828808e-03   1.239145e-02   0.000000e+00
   1.361988e-01   1.283400e-01   0.000000e+00
   2.239792e-02  -6.303437e-02   0.000000e+00
  -1.457060e-01  -2.427160e-02   0.000000e+00
  -3.812430e-02   8.838252e-02   0.000000e+00
   0.000000e+00   0.000000e+00   0.000000e+00
  -7.735322e-02  -1.447415e-01   0.000000e+00
  -4.631248e-02   1.519328e-01   0.000000e+00
   0.000000e+00   0.000000e+00   0.000000e+00
  -2.484212e-02   7.515433e-03   0.000000e+00
   1.694875e-02   4.918268e-02   0.000000e+00
  -9.314741e-02  -3.825767e-02   0.000000e+00
  -8.288086e-02  -5.407300e-02   0.000000e+00
   5.764042e-02  -7.562209e-02   0.000000e+00
VECTORS Real_Arrow_1.584800e+02(Hz) float
  -5.417442e-02  -6.746362e-02   0.000000e+00
  -1.558811e-01   2.078998e-01   0.000000e+00
  -9.321169e-02   1.298424e-01   0.000000e+00
   5.090354e-02  -1.471815e-01   0.000000e+00
   4.608563e-03  -9.156632e-02   0.000000e+00
   3.381616e-02  -4.331779e-03   0.000000e+00
   4.147010e-02   8.316235e-03   0.000000e+00
  -4.968496e-02   5.177467e-02   0.000000e+00
   0.000000e+00   0.000000e+00   0.000000e+00
   7.994030e-02  -5.960015e-03   0.000000e+00
  -4.803481e-02  -3.561555e-03   0.000000e+00
  -6.004246e-02   6.930574e-03   0.000000e+00
   0.000000e+00   0.000000e+00   0.000000e+00
   1.045641e-01   9.612240e-02   0.000000e+00
   4.457777e-02   4.166979e-02   0.000000e+00
   1.484666e-01  -1.589067e-03   0.000000e+00
  -1.577318e-01  -2.864287e-01   0.000000e+00
  -2.515690e-03   1.073908e-01   0.000000e+00
   0.000000e+00   0.000000e+00   0.000000e+00
   8.013759e-02   3.593276e-02   0.000000e+00
  -9.476043e-02   4.089708e-02   0.000000e+00
   1.311228e-03  -4.580904e-02   0.000000e+00
  -7.111352e-02   1.120346e-01   0.000000e+00
   5.453598e-02  -1.391587e-01   0.000000e+00
   0.000000e+00   0.000000e+00   0.000000e+00
  -1.220573e-02  -7.573076e-02   0.000000e+00
   8.155592e-02   1.239046e-01   0.000000e+00
   4.938583e-02   1.329797e-01   0.000000e+00
   4.433030e-02   1.111453e-02   0.000000e+00
   7.669379e-02  -1.089211e-01   0.000000e+00
   4.242325e-02  -4.223136e-02   0.000000e+00
   1.212193e-02  -2.583655e-02   0.000000e+00
   7.654586e-02   7.299277e-02   0.000000e+00
   5.489669e-02   1.146925e-01   0.000000e+00
   5.184737e-02  -1.239292e-01   0.000000e+00
   1.176549e-01  -1.783827e-01   0.000000e+00
   4.657660e-02   2.112803e-01   0.000000e+00
   0.000000e+00   0.000000e+00   0.000000e+00
  -7.440441e-02  -1.120077e-02   0.000000e+00
   8.647316e-02  -1.225205e-01   0.000000e+00
   0.000000e+00   0.000000e+00   0.000000e+00
  -6.840299e-03   4.822174e-03   0.000000e+00
  -1.547857e-01  -8.068031e-02   0.000000e+00
   8.749521e-02  -2.161040e-02   0.000000e+00
   2.859692e-02   3.396806e-01   0.000000e+00
  -5.300024e-03   9.884133e-02   0.000000e+00
VECTORS Imag_Arrow_1.584800e+02(Hz) float
  -1.165235e-02  -5.207941e-02   0.000000e+00
  -1.855719e-02  -1.098901e-03   0.000000e+00
   1.320602e-02   1.030671e-02   0.000000e+00
  -1.749515e-02  -1.277445e-01   0.000000e+00
  -4.519858e-02  -6.239564e-02   0.000000e+00
  -1.963627e-02   2.368996e-02   0.000000e+00
   3.287651e-02  -7.224816e-02   0.000000e+00
  -5.509303e-02   3.096624e-02   0.000000e+00
   0.000000e+00   0.000000e+00   0.000000e+00
   1.393583e-02  -3.209869e-02   0.000000e+00
  -3.388365e-02   3.014053e-02   0.000000e+00
  -8.646230e-03  -3.567606e-05   0.000000e+00
   0.000000e+00   0.000000e+00   0.000000e+00
  -1.478955e-01   2.044191e-02   0.000000e+00
   2.272212e-02  -1.722978e-03   0.000000e+00
  -3.015332e-02   3.287687e-02   0.000000e+00
   1.842444e-02   1.703151e-02   0.000000e+00
   3.790767e-02  -4.586892e-02   0.000000e+00
   0.000000e+00   0.000000e+00   0.000000e+00
   1.157216e-02  -4.510024e-03   0.000000e+00
  -1.516322e-02  -1.451830e-02   0.000000e+00
   7.293232e-03  -7.843161e-03   0.000000e+00
   1.800555e-02  -3.081678e-02   0.000000e+00
  -5.658749e-02  -1.123881e-03   0.000000e+00
   0.000000e+00   0.000000e+00   0.000000e+00
   1.031406e-02  -5.651000e-03   0.000000e+00
  -8.237229e-02  -3.948575e-02   0.000000e+00
  -2.170102e-02  -2.696741e-02   0.000000e+00
  -1.344092e-02   2.742039e-02   0.000000e+00
   2.272112e-02  -1.438468e-02   0.000000e+00
  -9.246864e-03   2.105999e-02   0.000000e+00
  -6.866652e-02   3.307098e-04   0.000000e+00
   3.769678e-03   1.476565e-02   0.000000e+00
   1.260472e-01   1.470232e-01   0.000000e+00
   3.632222e-02  -7.992705e-02   0.000000e+00
  -9.373452e-02  -3.415248e-02   0.000000e+00
  -1.383023e-02   1.046340e-01   0.000000e+00
   0.000000e+00   0.000000e+00   0.000000e+00
  -8.445179e-02  -1.073684e-01   0.000000e+00
  -4.830542e-02   1.050002e-01   0.000000e+00
   0.000000e+00   0.000000e+00   0.000000e+00
  -3.052927e-02   1.879352e-02   0.000000e+00
  -1.374823e-02   3.025402e-02   0.000000e+00
  -7.067410e-02  -4.721328e-02   0.000000e+00
  -7.749206e-02  -1.035268e-02   0.000000e+00
   3.761771e-02  -5.403540e-02   0.000000e+00
VECTORS Real_Arrow_2.511800e+02(Hz) float
  -4.636289e-02  -4.941071e-02   0.000000e+00
  -1.391941e-01   1.972243e-01   0.000000e+00
  -9.677550e-02   1.196567e-01   0.000000e+00
   5.888753e-02  -1.153660e-01   0.000000e+00
   1.999090e-02  -6.430638e-02   0.000000e+00
   3.361974e-02  -1.438997e-02   0.000000e+00
   2.761823e-02   3.230599e-02   0.000000e+00
  -2.083351e-02   4.047281e-02   0.000000e+00
   0.000000e+00   0.000000e+00   0.000000e+00
   5.932133e-02   4.357325e-03   0.000000e+00
  -4.243248e-02  -1.637429e-02   0.000000e+00
  -6.055064e-02   9.532892e-03   0.000000e+00
   4.183640e-02   3.028871e-01   0.000000e+00
   1.418190e-01   7.942305e-02   0.000000e+00
   3.313725e-02   3.990408e-02   0.000000e+00
   1.495774e-01  -1.355003e-02   0.000000e+00
  -1.646920e-01  -2.862452e-01   0.000000e+00
  -2.099819e-02   1.299127e-01   0.000000e+00
   0.000000e+00   0.000000e+00   0.000000e+00
   7.124121e-02   3.617474e-02   0.000000e+00
  -9.020787e-02   4.441751e-02   0.000000e+00
  -1.303754e-02  -4.622273e-02   0.000000e+00
  -8.385331e-02   1.195727e-01   0.000000e+00
   7.135920e-02  -1.405066e-01   0.000000e+00
   0.000000e+00   0.000000e+00   0.000000e+00
  -1.882861e-02  -6.019813e-02   0.000000e+00
   1.057752e-01   1.327505e-01   0.000000e+00
   5.092853e-02   1.365681e-01   0.000000e+00
   4.587926e-02   1.381066e-03   0.000000e+00
   6.440009e-02  -9.742353e-02   0.000000e+00
   3.819451e-02  -4.755602e-02   0.000000e+00
   3.270879e-02  -2.282907e-02   0.000000e+00
   7.688383e-02   6.815697e-02   0.000000e+00
   1.341231e-02   5.336004e-02   0.000000e+00
   0.000000e+00   0.000000e+00   0.000000e+00
   1.228709e-01  -1.623560e-01   0.000000e+00
   3.499270e-02   1.621073e-01   0.000000e+00
   0.000000e+00   0.000000e+00   0.000000e+00
  -4.367181e-02   8.762371e-03   0.000000e+00
   1.029925e-01  -1.323611e-01   0.000000e+00
  -6.989165e-02  -1.858794e-01   0.000000e+00
   8.308837e-03  -8.968696e-03   0.000000e+00
  -1.408723e-01  -8.544726e-02   0.000000e+00
   9.761055e-02  -3.394934e-03   0.000000e+00
   5.280006e-02   3.301882e-01   0.000000e+00
  -8.136649e-03   1.057987e-01   0.000000e+00
VECTORS Imag_Arrow_2.511800e+02(Hz) float
  -1.511751e-02  -4.914159e-02   0.000000e+00
  -4.153749e-02   2.834051e-02   0.000000e+00
   1.406246e-03   2.383489e-02   0.000000e+00
  -2.111840e-02  -1.198326e-01   0.000000e+00
  -3.982823e-02  -6.747605e-02   0.000000e+00
  -9.998495e-03   1.965263e-02   0.000000e+00
   2.598556e-02  -4.928136e-02   0.000000e+00
  -6.563244e-02   4.293536e-02   0.000000e+00
   0.000000e+00   0.000000e+00   0.000000e+00
   2.806591e-02  -2.690473e-02   0.000000e+00
  -2.788185e-02   3.093207e-02   0.000000e+00
  -7.208302e-03  -5.970632e-03   0.000000e+00
   4.887011e-02   2.035253e-01   0.000000e+00
  -1.144342e-01   2.855668e-02   0.000000e+00
   2.567754e-02   1.946780e-03   0.000000e+00
  -1.120789e-02   2.870570e-02   0.000000e+00
   1.005901e-02  -9.387513e-03   0.000000e+00
   3.614922e-02  -3.025512e-02   0.000000e+00
   0.000000e+00   0.000000e+00   0.000000e+00
   3.459349e-03  -3.624941e-03   0.000000e+00
  -1.403577e-02  -1.256915e-02   0.000000e+00
   2.028335e-02   3.365220e-03   0.000000e+00
   1.974452e-02  -1.618052e-02   0.000000e+00
  -4.817701e-02  -1.427748e-02   0.000000e+00
   0.000000e+00   0.000000e+00   0.000000e+00
   1.343247e-02  -2.211869e-02   0.000000e+00
  -7.520200e-02  -1.241149e-02   0.000000e+00
  -1.005452e-02  -1.364717e-02   0.000000e+00
  -9.840605e-04   4.733870e-02   0.000000e+00
   1.132662e-02  -9.452934e-03   0.000000e+00
  -1.201905e-03   2.106521e-02   0.000000e+00
  -4.216513e-02  -8.224583e-03   0.000000e+00
  -8.483219e-04   1.657539e-02   0.000000e+00
   1.069824e-01   1.449917e-01   0.000000e+00
   0.000000e+00   0.000000e+00   0.000000e+00
  -6.158506e-02  -4.024882e-02   0.000000e+00
  -4.938119e-03   8.596556e-02   0.000000e+00
   0.000000e+00   0.000000e+00   0.000000e+00
  -8.807818e-02  -8.263833e-02   0.000000e+00
  -4.691870e-02   7.162152e-02   0.000000e+00
   1.887949e-02   3.294644e-02   0.000000e+00
  -2.628674e-02   2.336234e-02   0.000000e+00
  -4.123152e-02   9.733040e-03   0.000000e+00
  -5.816359e-02  -5.409316e-02   0.000000e+00
  -7.284190e-02   3.051939e-02   0.000000e+00
   1.685517e-02  -3.369099e-02   0.000000e+00
