# vtk DataFile Version 2.0
Induction_Arrow_Iter11_PE6
ASCII
DATASET UNSTRUCTURED_GRID
POINTS 46 float
  -2.052000e+03    1.667000e+03   -4.526633e+02
  -1.265000e+03    2.333000e+03   -4.555885e+02
  -9.840000e+02    2.568000e+03   -4.612271e+02
   1.700000e+03   -1.757000e+03   -5.237752e+02
  -1.152000e+03    1.382000e+03   -4.549280e+02
   3.187000e+03    1.067000e+03   -8.370176e+02
   4.716000e+03    9.370000e+02   -8.015281e+02
  -1.855000e+03    5.260000e+02   -5.147377e+02
  -1.420000e+02   -1.905000e+03   -4.746368e+02
  -5.800000e+01    1.069000e+03   -4.555494e+02
  -2.802000e+03    3.302000e+03   -4.314337e+02
  -5.640000e+03   -1.532000e+03   -4.911771e+02
  -8.030000e+02   -5.610000e+02   -5.280929e+02
   1.008000e+03    4.130000e+02   -5.983358e+02
   1.960000e+02    2.246000e+03   -5.219413e+02
  -3.457000e+03    8.320000e+02   -4.470735e+02
   5.640000e+03    2.452000e+03   -7.393049e+02
  -1.334000e+03    3.332000e+03   -4.456136e+02
   1.244000e+03    1.880000e+03   -6.331107e+02
  -2.680000e+02    2.144000e+03   -4.891390e+02
  -4.063000e+03    6.620000e+02   -4.746103e+02
  -1.258000e+03    6.330000e+02   -4.856841e+02
  -2.141000e+03    3.194000e+03   -4.348461e+02
  -3.469000e+03   -3.059000e+03   -6.067613e+02
  -1.604000e+03   -2.570000e+02   -5.141257e+02
  -1.454000e+03    2.220000e+02   -5.386025e+02
   1.864000e+03    1.270000e+02   -7.404291e+02
   2.449000e+03    5.590000e+02   -7.805292e+02
  -1.834000e+03   -1.554000e+03   -6.273074e+02
   1.807000e+03    2.297000e+03   -6.825557e+02
  -2.560000e+03   -1.783000e+03   -6.131337e+02
  -2.741000e+03   -5.010000e+02   -5.080000e+02
   2.884000e+03   -2.179000e+03   -5.274708e+02
  -6.120000e+02   -8.960000e+02   -5.895389e+02
  -1.985000e+03   -2.653000e+03   -5.598834e+02
  -3.390000e+03   -4.000000e+02   -4.982361e+02
   1.586000e+03    1.342000e+03   -6.618442e+02
   1.047000e+03    2.401000e+03   -5.426792e+02
   8.380000e+02   -1.300000e+03   -4.783644e+02
   2.569000e+03    2.441000e+03   -6.035668e+02
  -2.028000e+03    2.833000e+03   -4.322286e+02
  -1.086000e+03    1.998000e+03   -4.563301e+02
   1.514000e+03   -3.332000e+03   -5.646205e+02
   7.040000e+02    1.116000e+03   -5.365099e+02
   1.990000e+03    6.360000e+02   -7.085272e+02
   3.722000e+03   -1.700000e+02   -6.745213e+02
CELLS 46 92
1 0
1 1
1 2
1 3
1 4
1 5
1 6
1 7
1 8
1 9
1 10
1 11
1 12
1 13
1 14
1 15
1 16
1 17
1 18
1 19
1 20
1 21
1 22
1 23
1 24
1 25
1 26
1 27
1 28
1 29
1 30
1 31
1 32
1 33
1 34
1 35
1 36
1 37
1 38
1 39
1 40
1 41
1 42
1 43
1 44
1 45
CELL_TYPES 46
1
1
1
1
1
1
1
1
1
1
1
1
1
1
1
1
1
1
1
1
1
1
1
1
1
1
1
1
1
1
1
1
1
1
1
1
1
1
1
1
1
1
1
1
1
1
POINT_DATA 46
VECTORS Real_Arrow_1.000000e+02(Hz) float
  -5.809845e-02  -8.952985e-02   0.000000e+00
  -1.562754e-01   2.003311e-01   0.000000e+00
  -8.512016e-02   1.330229e-01   0.000000e+00
   4.768177e-02  -1.848147e-01   0.000000e+00
  -1.143526e-02  -1.149147e-01   0.000000e+00
   2.650389e-02   9.061289e-03   0.000000e+00
   5.730126e-02  -2.683657e-02   0.000000e+00
  -6.626864e-02   5.121074e-02   0.000000e+00
   0.000000e+00   0.000000e+00   0.000000e+00
   9.472576e-02  -1.839690e-02   0.000000e+00
  -5.796331e-02   4.099549e-03   0.000000e+00
  -5.784029e-02   7.824099e-03   0.000000e+00
   0.000000e+00   0.000000e+00   0.000000e+00
   5.115680e-02   1.112198e-01   0.000000e+00
   5.751870e-02   4.047064e-02   0.000000e+00
   1.425855e-01   1.397133e-02   0.000000e+00
  -1.507737e-01  -2.767934e-01   0.000000e+00
   1.379337e-02   8.333634e-02   0.000000e+00
   0.000000e+00   0.000000e+00   0.000000e+00
   9.444246e-02   3.570696e-02   0.000000e+00
  -9.974672e-02   3.615678e-02   0.000000e+00
   1.067011e-02  -5.510148e-02   0.000000e+00
  -6.316002e-02   9.573829e-02   0.000000e+00
   3.597609e-02  -1.327858e-01   0.000000e+00
   0.000000e+00   0.000000e+00   0.000000e+00
  -5.241543e-03  -7.852390e-02   0.000000e+00
   5.607759e-02   1.068738e-01   0.000000e+00
   4.231547e-02   1.254334e-01   0.000000e+00
   3.647239e-02   1.028563e-02   0.000000e+00
   9.866684e-02  -1.207511e-01   0.000000e+00
   3.990422e-02  -3.661540e-02   0.000000e+00
  -1.513112e-02  -2.218302e-02   0.000000e+00
   7.725612e-02   7.854111e-02   0.000000e+00
   1.106667e-01   1.781538e-01   0.000000e+00
   6.375532e-02  -1.585884e-01   0.000000e+00
   9.069270e-02  -1.892567e-01   0.000000e+00
   5.058917e-02   2.709422e-01   0.000000e+00
   0.000000e+00   0.000000e+00   0.000000e+00
  -1.001487e-01  -4.065985e-02   0.000000e+00
   7.373927e-02  -8.508628e-02   0.000000e+00
   0.000000e+00   0.000000e+00   0.000000e+00
  -2.023231e-02   1.075319e-02   0.000000e+00
  -1.544583e-01  -6.517974e-02   0.000000e+00
   7.076273e-02  -3.402797e-02   0.000000e+00
   4.996315e-03   3.320804e-01   0.000000e+00
   1.624009e-02   7.892093e-02   0.000000e+00
VECTORS Imag_Arrow_1.000000e+02(Hz) float
  -3.675211e-03  -5.203208e-02   0.000000e+00
   1.052939e-02  -3.428638e-02   0.000000e+00
   2.400301e-02  -9.404827e-03   0.000000e+00
  -1.123844e-02  -1.420149e-01   0.000000e+00
  -4.568673e-02  -5.111887e-02   0.000000e+00
  -3.227154e-02   2.237403e-02   0.000000e+00
   3.318437e-02  -8.478258e-02   0.000000e+00
  -3.124113e-02   2.400238e-02   0.000000e+00
   0.000000e+00   0.000000e+00   0.000000e+00
  -1.785596e-02  -3.506752e-02   0.000000e+00
  -4.504777e-02   2.700250e-02   0.000000e+00
  -1.404703e-02   8.821942e-03   0.000000e+00
   0.000000e+00   0.000000e+00   0.000000e+00
  -1.819744e-01   2.623615e-03   0.000000e+00
   1.647835e-02  -8.286471e-03   0.000000e+00
  -5.604871e-02   3.229765e-02   0.000000e+00
   2.491412e-02   4.607143e-02   0.000000e+00
   3.128494e-02  -4.930653e-02   0.000000e+00
   0.000000e+00   0.000000e+00   0.000000e+00
   1.230479e-02  -8.790354e-03   0.000000e+00
  -1.570245e-02  -1.720781e-02   0.000000e+00
  -2.010498e-02  -1.802757e-02   0.000000e+00
   8.812200e-03  -4.332140e-02   0.000000e+00
  -6.243986e-02   6.863064e-03   0.000000e+00
   0.000000e+00   0.000000e+00   0.000000e+00
   5.081514e-03   2.514324e-02   0.000000e+00
  -9.139589e-02  -6.373158e-02   0.000000e+00
  -3.656342e-02  -4.192522e-02   0.000000e+00
  -2.455449e-02   1.234729e-02   0.000000e+00
   2.353985e-02  -6.663631e-03   0.000000e+00
  -2.239735e-02   2.248360e-02   0.000000e+00
  -8.887776e-02   1.334023e-02   0.000000e+00
   1.003524e-02   1.224655e-02   0.000000e+00
   1.383886e-01   1.287842e-01   0.000000e+00
   2.169503e-02  -6.311549e-02   0.000000e+00
  -1.467318e-01  -2.308749e-02   0.000000e+00
  -3.862484e-02   8.794309e-02   0.000000e+00
   0.000000e+00   0.000000e+00   0.000000e+00
  -7.716424e-02  -1.450467e-01   0.000000e+00
  -4.743089e-02   1.517746e-01   0.000000e+00
   0.000000e+00   0.000000e+00   0.000000e+00
  -2.461335e-02   7.623280e-03   0.000000e+00
   1.689484e-02   4.975604e-02   0.000000e+00
  -9.324731e-02  -3.900388e-02   0.000000e+00
  -8.311234e-02  -5.395244e-02   0.000000e+00
   5.819095e-02  -7.572309e-02   0.000000e+00
VECTORS Real_Arrow_1.584800e+02(Hz) float
  -5.403829e-02  -6.740984e-02   0.000000e+00
  -1.556128e-01   2.076688e-01   0.000000e+00
  -9.313501e-02   1.299756e-01   0.000000e+00
   5.052004e-02  -1.472837e-01   0.000000e+00
   4.399597e-03  -9.167867e-02   0.000000e+00
   3.392321e-02  -4.159513e-03   0.000000e+00
   4.177945e-02   8.102062e-03   0.000000e+00
  -4.900379e-02   5.132000e-02   0.000000e+00
   0.000000e+00   0.000000e+00   0.000000e+00
   8.047041e-02  -6.337756e-03   0.000000e+00
  -4.901441e-02  -3.664664e-03   0.000000e+00
  -5.993964e-02   7.037613e-03   0.000000e+00
   0.000000e+00   0.000000e+00   0.000000e+00
   1.054375e-01   9.621465e-02   0.000000e+00
   4.476369e-02   4.167950e-02   0.000000e+00
   1.477804e-01  -1.047969e-03   0.000000e+00
  -1.580767e-01  -2.867202e-01   0.000000e+00
  -2.560114e-03   1.075717e-01   0.000000e+00
   0.000000e+00   0.000000e+00   0.000000e+00
   7.992160e-02   3.593698e-02   0.000000e+00
  -9.539354e-02   4.055122e-02   0.000000e+00
   1.487010e-03  -4.572678e-02   0.000000e+00
  -7.167853e-02   1.122107e-01   0.000000e+00
   5.421308e-02  -1.390881e-01   0.000000e+00
   0.000000e+00   0.000000e+00   0.000000e+00
  -1.197931e-02  -7.621295e-02   0.000000e+00
   8.171902e-02   1.234251e-01   0.000000e+00
   4.959023e-02   1.329861e-01   0.000000e+00
   4.445522e-02   1.126724e-02   0.000000e+00
   7.625252e-02  -1.075221e-01   0.000000e+00
   4.209197e-02  -4.243293e-02   0.000000e+00
   1.340352e-02  -2.678588e-02   0.000000e+00
   7.662426e-02   7.310902e-02   0.000000e+00
   5.520512e-02   1.144870e-01   0.000000e+00
   5.240777e-02  -1.245646e-01   0.000000e+00
   1.190696e-01  -1.787951e-01   0.000000e+00
   4.614175e-02   2.113153e-01   0.000000e+00
   0.000000e+00   0.000000e+00   0.000000e+00
  -7.411035e-02  -1.006824e-02   0.000000e+00
   8.758919e-02  -1.223587e-01   0.000000e+00
   0.000000e+00   0.000000e+00   0.000000e+00
  -6.841958e-03   4.570591e-03   0.000000e+00
  -1.548680e-01  -8.108909e-02   0.000000e+00
   8.797475e-02  -2.112444e-02   0.000000e+00
   2.862265e-02   3.397262e-01   0.000000e+00
  -5.553693e-03   9.899408e-02   0.000000e+00
VECTORS Imag_Arrow_1.584800e+02(Hz) float
  -1.197050e-02  -5.229665e-02   0.000000e+00
  -1.853712e-02  -1.114801e-03   0.000000e+00
   1.309164e-02   1.035119e-02   0.000000e+00
  -1.706338e-02  -1.282328e-01   0.000000e+00
  -4.510178e-02  -6.251831e-02   0.000000e+00
  -1.987762e-02   2.387766e-02   0.000000e+00
   3.309723e-02  -7.294482e-02   0.000000e+00
  -5.525867e-02   3.059679e-02   0.000000e+00
   0.000000e+00   0.000000e+00   0.000000e+00
   1.404722e-02  -3.197066e-02   0.000000e+00
  -3.479084e-02   2.966736e-02   0.000000e+00
  -8.634804e-03   1.220790e-07   0.000000e+00
   0.000000e+00   0.000000e+00   0.000000e+00
  -1.482372e-01   2.069658e-02   0.000000e+00
   2.317361e-02  -1.605571e-03   0.000000e+00
  -3.024813e-02   3.265835e-02   0.000000e+00
   1.794436e-02   1.749421e-02   0.000000e+00
   3.772224e-02  -4.582068e-02   0.000000e+00
   0.000000e+00   0.000000e+00   0.000000e+00
   1.165825e-02  -4.616309e-03   0.000000e+00
  -1.484139e-02  -1.457062e-02   0.000000e+00
   7.783985e-03  -7.602112e-03   0.000000e+00
   1.795789e-02  -3.054576e-02   0.000000e+00
  -5.607434e-02  -3.909396e-04   0.000000e+00
   0.000000e+00   0.000000e+00   0.000000e+00
   1.016439e-02  -6.065513e-03   0.000000e+00
  -8.258683e-02  -3.966543e-02   0.000000e+00
  -2.177258e-02  -2.685763e-02   0.000000e+00
  -1.389072e-02   2.624290e-02   0.000000e+00
   2.346300e-02  -1.350311e-02   0.000000e+00
  -9.735064e-03   2.142870e-02   0.000000e+00
  -6.767584e-02   2.240935e-03   0.000000e+00
   3.909316e-03   1.468644e-02   0.000000e+00
   1.286007e-01   1.473423e-01   0.000000e+00
   3.544421e-02  -8.019810e-02   0.000000e+00
  -9.389799e-02  -3.306654e-02   0.000000e+00
  -1.457694e-02   1.044711e-01   0.000000e+00
   0.000000e+00   0.000000e+00   0.000000e+00
  -8.410080e-02  -1.069785e-01   0.000000e+00
  -4.885904e-02   1.051534e-01   0.000000e+00
   0.000000e+00   0.000000e+00   0.000000e+00
  -3.022675e-02   1.875962e-02   0.000000e+00
  -1.403069e-02   3.028083e-02   0.000000e+00
  -7.052339e-02  -4.769340e-02   0.000000e+00
  -7.763890e-02  -1.036740e-02   0.000000e+00
   3.799098e-02  -5.401289e-02   0.000000e+00
VECTORS Real_Arrow_2.511800e+02(Hz) float
  -4.621013e-02  -4.925487e-02   0.000000e+00
  -1.389736e-01   1.971105e-01   0.000000e+00
  -9.667291e-02   1.198482e-01   0.000000e+00
   5.843358e-02  -1.152833e-01   0.000000e+00
   1.983449e-02  -6.431644e-02   0.000000e+00
   3.384853e-02  -1.430811e-02   0.000000e+00
   2.767296e-02   3.263007e-02   0.000000e+00
  -2.023769e-02   4.033439e-02   0.000000e+00
   0.000000e+00   0.000000e+00   0.000000e+00
   5.963785e-02   4.037641e-03   0.000000e+00
  -4.279468e-02  -1.608596e-02   0.000000e+00
  -6.044445e-02   9.605918e-03   0.000000e+00
   4.095974e-02   3.039770e-01   0.000000e+00
   1.426901e-01   7.950707e-02   0.000000e+00
   3.304567e-02   3.989608e-02   0.000000e+00
   1.491800e-01  -1.298519e-02   0.000000e+00
  -1.648370e-01  -2.865233e-01   0.000000e+00
  -2.102662e-02   1.300021e-01   0.000000e+00
   0.000000e+00   0.000000e+00   0.000000e+00
   7.102618e-02   3.629357e-02   0.000000e+00
  -9.090319e-02   4.417273e-02   0.000000e+00
  -1.306263e-02  -4.626802e-02   0.000000e+00
  -8.433222e-02   1.196203e-01   0.000000e+00
   7.092828e-02  -1.410077e-01   0.000000e+00
   0.000000e+00   0.000000e+00   0.000000e+00
  -1.850453e-02  -6.043538e-02   0.000000e+00
   1.059628e-01   1.324050e-01   0.000000e+00
   5.115620e-02   1.365482e-01   0.000000e+00
   4.637543e-02   2.050331e-03   0.000000e+00
   6.375771e-02  -9.686556e-02   0.000000e+00
   3.818375e-02  -4.811341e-02   0.000000e+00
   3.298351e-02  -2.480184e-02   0.000000e+00
   7.695326e-02   6.825583e-02   0.000000e+00
   1.241674e-02   5.296898e-02   0.000000e+00
   0.000000e+00   0.000000e+00   0.000000e+00
   1.239684e-01  -1.632739e-01   0.000000e+00
   3.507426e-02   1.620615e-01   0.000000e+00
   0.000000e+00   0.000000e+00   0.000000e+00
  -4.369377e-02   9.162161e-03   0.000000e+00
   1.041493e-01  -1.324565e-01   0.000000e+00
  -7.000207e-02  -1.862475e-01   0.000000e+00
   8.131272e-03  -9.140702e-03   0.000000e+00
  -1.406540e-01  -8.559577e-02   0.000000e+00
   9.791769e-02  -2.816387e-03   0.000000e+00
   5.283601e-02   3.303232e-01   0.000000e+00
  -8.422396e-03   1.058445e-01   0.000000e+00
VECTORS Imag_Arrow_2.511800e+02(Hz) float
  -1.522417e-02  -4.927307e-02   0.000000e+00
  -4.147637e-02   2.825222e-02   0.000000e+00
   1.340732e-03   2.389130e-02   0.000000e+00
  -2.100884e-02  -1.201535e-01   0.000000e+00
  -3.998120e-02  -6.763103e-02   0.000000e+00
  -9.995593e-03   1.976522e-02   0.000000e+00
   2.625140e-02  -4.990643e-02   0.000000e+00
  -6.556347e-02   4.259289e-02   0.000000e+00
   0.000000e+00   0.000000e+00   0.000000e+00
   2.837772e-02  -2.704686e-02   0.000000e+00
  -2.890742e-02   3.037100e-02   0.000000e+00
  -7.173593e-03  -5.885709e-03   0.000000e+00
   4.886223e-02   2.039291e-01   0.000000e+00
  -1.142043e-01   2.864779e-02   0.000000e+00
   2.605888e-02   2.070354e-03   0.000000e+00
  -1.162001e-02   2.887470e-02   0.000000e+00
   9.583882e-03  -9.221631e-03   0.000000e+00
   3.599717e-02  -3.001123e-02   0.000000e+00
   0.000000e+00   0.000000e+00   0.000000e+00
   3.407469e-03  -3.716269e-03   0.000000e+00
  -1.395513e-02  -1.266556e-02   0.000000e+00
   2.060700e-02   3.541903e-03   0.000000e+00
   1.943602e-02  -1.595242e-02   0.000000e+00
  -4.801273e-02  -1.337780e-02   0.000000e+00
   0.000000e+00   0.000000e+00   0.000000e+00
   1.345193e-02  -2.250962e-02   0.000000e+00
  -7.528035e-02  -1.297560e-02   0.000000e+00
  -9.922382e-03  -1.366147e-02   0.000000e+00
  -1.120020e-03   4.657988e-02   0.000000e+00
   1.157128e-02  -8.471987e-03   0.000000e+00
  -1.661230e-03   2.132907e-02   0.000000e+00
  -4.098100e-02  -7.151737e-03   0.000000e+00
  -7.616368e-04   1.651376e-02   0.000000e+00
   1.092293e-01   1.446928e-01   0.000000e+00
   0.000000e+00   0.000000e+00   0.000000e+00
  -6.109751e-02  -3.992593e-02   0.000000e+00
  -5.577188e-03   8.600042e-02   0.000000e+00
   0.000000e+00   0.000000e+00   0.000000e+00
  -8.769635e-02  -8.205006e-02   0.000000e+00
  -4.686794e-02   7.162296e-02   0.000000e+00
   1.858988e-02   3.251111e-02   0.000000e+00
  -2.612380e-02   2.327128e-02   0.000000e+00
  -4.148414e-02   9.528080e-03   0.000000e+00
  -5.791549e-02  -5.410643e-02   0.000000e+00
  -7.287990e-02   3.027563e-02   0.000000e+00
   1.691962e-02  -3.364922e-02   0.000000e+00
