# vtk DataFile Version 2.0
Induction_Arrow_Iter7_PE5
ASCII
DATASET UNSTRUCTURED_GRID
POINTS 46 float
  -2.052000e+03    1.667000e+03   -4.526633e+02
  -1.265000e+03    2.333000e+03   -4.555885e+02
  -9.840000e+02    2.568000e+03   -4.612271e+02
   1.700000e+03   -1.757000e+03   -5.237752e+02
  -1.152000e+03    1.382000e+03   -4.549280e+02
   3.187000e+03    1.067000e+03   -8.370176e+02
   4.716000e+03    9.370000e+02   -8.015281e+02
  -1.855000e+03    5.260000e+02   -5.147377e+02
  -1.420000e+02   -1.905000e+03   -4.746368e+02
  -5.800000e+01    1.069000e+03   -4.555494e+02
  -2.802000e+03    3.302000e+03   -4.314337e+02
  -5.640000e+03   -1.532000e+03   -4.911771e+02
  -8.030000e+02   -5.610000e+02   -5.280929e+02
   1.008000e+03    4.130000e+02   -5.983358e+02
   1.960000e+02    2.246000e+03   -5.219413e+02
  -3.457000e+03    8.320000e+02   -4.470735e+02
   5.640000e+03    2.452000e+03   -7.393049e+02
  -1.334000e+03    3.332000e+03   -4.456136e+02
   1.244000e+03    1.880000e+03   -6.331107e+02
  -2.680000e+02    2.144000e+03   -4.891390e+02
  -4.063000e+03    6.620000e+02   -4.746103e+02
  -1.258000e+03    6.330000e+02   -4.856841e+02
  -2.141000e+03    3.194000e+03   -4.348461e+02
  -3.469000e+03   -3.059000e+03   -6.067613e+02
  -1.604000e+03   -2.570000e+02   -5.141257e+02
  -1.454000e+03    2.220000e+02   -5.386025e+02
   1.864000e+03    1.270000e+02   -7.404291e+02
   2.449000e+03    5.590000e+02   -7.805292e+02
  -1.834000e+03   -1.554000e+03   -6.273074e+02
   1.807000e+03    2.297000e+03   -6.825557e+02
  -2.560000e+03   -1.783000e+03   -6.131337e+02
  -2.741000e+03   -5.010000e+02   -5.080000e+02
   2.884000e+03   -2.179000e+03   -5.274708e+02
  -6.120000e+02   -8.960000e+02   -5.895389e+02
  -1.985000e+03   -2.653000e+03   -5.598834e+02
  -3.390000e+03   -4.000000e+02   -4.982361e+02
   1.586000e+03    1.342000e+03   -6.618442e+02
   1.047000e+03    2.401000e+03   -5.426792e+02
   8.380000e+02   -1.300000e+03   -4.783644e+02
   2.569000e+03    2.441000e+03   -6.035668e+02
  -2.028000e+03    2.833000e+03   -4.322286e+02
  -1.086000e+03    1.998000e+03   -4.563301e+02
   1.514000e+03   -3.332000e+03   -5.646205e+02
   7.040000e+02    1.116000e+03   -5.365099e+02
   1.990000e+03    6.360000e+02   -7.085272e+02
   3.722000e+03   -1.700000e+02   -6.745213e+02
CELLS 46 92
1 0
1 1
1 2
1 3
1 4
1 5
1 6
1 7
1 8
1 9
1 10
1 11
1 12
1 13
1 14
1 15
1 16
1 17
1 18
1 19
1 20
1 21
1 22
1 23
1 24
1 25
1 26
1 27
1 28
1 29
1 30
1 31
1 32
1 33
1 34
1 35
1 36
1 37
1 38
1 39
1 40
1 41
1 42
1 43
1 44
1 45
CELL_TYPES 46
1
1
1
1
1
1
1
1
1
1
1
1
1
1
1
1
1
1
1
1
1
1
1
1
1
1
1
1
1
1
1
1
1
1
1
1
1
1
1
1
1
1
1
1
1
1
POINT_DATA 46
VECTORS Real_Arrow_2.511800e+01(Hz) float
  -2.482077e-02  -1.321845e-01   0.000000e+00
  -7.455649e-02   1.068952e-01   0.000000e+00
   0.000000e+00   0.000000e+00   0.000000e+00
   4.672935e-02  -3.514686e-01   0.000000e+00
  -4.149126e-02  -1.385209e-01   0.000000e+00
  -3.213546e-02   2.593680e-02   0.000000e+00
   8.137984e-02  -1.138163e-01   0.000000e+00
  -2.980726e-02   9.898517e-02   0.000000e+00
   2.734797e-01  -1.801796e-01   0.000000e+00
  -3.759054e-03  -5.657329e-02   0.000000e+00
  -1.252073e-01   2.495355e-02   0.000000e+00
  -7.544213e-02   4.602877e-02   0.000000e+00
   0.000000e+00   0.000000e+00   0.000000e+00
  -1.931641e-01   6.570776e-02   0.000000e+00
   6.075757e-02   1.936697e-02   0.000000e+00
   2.095106e-02   4.332507e-02   0.000000e+00
  -1.220419e-01  -1.795165e-01   0.000000e+00
   3.909595e-02   2.547362e-02   0.000000e+00
   2.230946e-01  -1.045446e-01   0.000000e+00
   1.049196e-01   1.181960e-02   0.000000e+00
  -1.178756e-01   2.193701e-02   0.000000e+00
  -7.021619e-02  -7.289083e-02   0.000000e+00
  -6.633432e-02   3.002744e-02   0.000000e+00
  -2.450421e-02  -1.173313e-01   0.000000e+00
   0.000000e+00   0.000000e+00   0.000000e+00
  -5.765132e-03   1.866637e-02   0.000000e+00
  -5.688725e-02   3.198531e-03   0.000000e+00
  -2.737997e-02   6.017269e-02   0.000000e+00
   8.047158e-03   2.129082e-02   0.000000e+00
   0.000000e+00   0.000000e+00   0.000000e+00
   2.363399e-03  -1.121675e-03   0.000000e+00
  -1.326178e-01   1.594480e-02   0.000000e+00
   9.723471e-02   8.813984e-02   0.000000e+00
   2.639907e-01   2.589369e-01   0.000000e+00
   6.716086e-02  -1.621070e-01   0.000000e+00
  -1.655805e-01  -1.945764e-01   0.000000e+00
   0.000000e+00   0.000000e+00   0.000000e+00
   2.691641e-02   7.205408e-02   0.000000e+00
  -1.659413e-01  -2.780984e-01   0.000000e+00
   4.237259e-02   1.339085e-01   0.000000e+00
  -4.185484e-02  -9.365143e-02   0.000000e+00
  -9.631059e-03  -4.709041e-03   0.000000e+00
  -8.393213e-02   2.337771e-02   0.000000e+00
  -7.291409e-02  -5.832912e-02   0.000000e+00
  -9.603666e-02   2.053559e-01   0.000000e+00
   9.638888e-02  -2.277412e-02   0.000000e+00
VECTORS Imag_Arrow_2.511800e+01(Hz) float
  -1.807945e-02   6.506410e-03   0.000000e+00
   1.064958e-02  -5.631409e-02   0.000000e+00
   0.000000e+00   0.000000e+00   0.000000e+00
  -3.230996e-02  -1.590722e-01   0.000000e+00
  -6.833592e-02   1.224608e-02   0.000000e+00
  -4.228425e-02  -2.400916e-02   0.000000e+00
   1.023606e-02  -5.730118e-02   0.000000e+00
  -4.060407e-02   2.686710e-02   0.000000e+00
   3.534314e-02   1.181334e-02   0.000000e+00
  -1.357267e-01  -3.027289e-02   0.000000e+00
  -6.477099e-02   4.048189e-02   0.000000e+00
  -6.919326e-02   1.318726e-02   0.000000e+00
   0.000000e+00   0.000000e+00   0.000000e+00
  -1.881378e-01  -9.871341e-02   0.000000e+00
  -6.996182e-02  -1.545895e-03   0.000000e+00
  -1.458051e-01  -1.951407e-03   0.000000e+00
   4.932606e-02   1.020572e-01   0.000000e+00
   4.812710e-04  -1.567988e-02   0.000000e+00
  -1.569671e-01   7.219992e-02   0.000000e+00
  -7.157791e-02  -6.078882e-03   0.000000e+00
  -1.582833e-02  -2.202870e-02   0.000000e+00
  -1.012774e-01   4.916960e-03   0.000000e+00
  -1.174110e-02  -1.385894e-02   0.000000e+00
  -9.543727e-02   6.245736e-03   0.000000e+00
   0.000000e+00   0.000000e+00   0.000000e+00
  -6.385221e-02   4.852782e-02   0.000000e+00
  -9.602209e-02  -1.324703e-01   0.000000e+00
  -6.037599e-02  -1.052378e-01   0.000000e+00
  -4.472817e-02   8.697653e-04   0.000000e+00
   0.000000e+00   0.000000e+00   0.000000e+00
  -5.838741e-02   2.041500e-02   0.000000e+00
  -1.158103e-01   2.745520e-04   0.000000e+00
   3.957134e-02  -8.094827e-03   0.000000e+00
   2.554139e-02  -4.345647e-02   0.000000e+00
  -3.130747e-02   3.527230e-02   0.000000e+00
  -2.118632e-01   7.996297e-03   0.000000e+00
   0.000000e+00   0.000000e+00   0.000000e+00
  -6.564741e-02  -1.028385e-02   0.000000e+00
  -5.702699e-02  -2.023816e-01   0.000000e+00
  -8.382890e-02   2.008708e-01   0.000000e+00
  -1.522213e-02   6.468477e-02   0.000000e+00
  -4.233313e-02   3.253364e-03   0.000000e+00
   7.241596e-02   5.559696e-02   0.000000e+00
  -1.551678e-01  -2.316477e-02   0.000000e+00
  -8.268009e-02  -1.733653e-01   0.000000e+00
   3.092043e-02  -1.183280e-01   0.000000e+00
VECTORS Real_Arrow_3.981000e+01(Hz) float
  -3.631003e-02  -1.306817e-01   0.000000e+00
  -1.018991e-01   1.375113e-01   0.000000e+00
  -4.391494e-02   9.815544e-02   0.000000e+00
   5.335700e-02  -2.892937e-01   0.000000e+00
  -2.829287e-02  -1.422840e-01   0.000000e+00
  -9.427599e-03   2.887176e-02   0.000000e+00
   7.929309e-02  -9.257087e-02   0.000000e+00
   0.000000e+00   0.000000e+00   0.000000e+00
   2.405654e-01  -1.972364e-01   0.000000e+00
   5.305414e-02  -4.437417e-02   0.000000e+00
  -9.794132e-02   1.476597e-02   0.000000e+00
  -6.173950e-02   2.936959e-02   0.000000e+00
   0.000000e+00   0.000000e+00   0.000000e+00
  -1.075942e-01   1.017336e-01   0.000000e+00
   7.732391e-02   2.305450e-02   0.000000e+00
   8.160723e-02   3.863717e-02   0.000000e+00
  -1.328965e-01  -2.209555e-01   0.000000e+00
   3.110663e-02   4.122712e-02   0.000000e+00
   0.000000e+00   0.000000e+00   0.000000e+00
   1.193535e-01   1.929913e-02   0.000000e+00
  -1.117513e-01   2.435799e-02   0.000000e+00
  -3.182192e-02  -7.787323e-02   0.000000e+00
  -6.601735e-02   4.503741e-02   0.000000e+00
  -3.422133e-04  -1.212615e-01   0.000000e+00
   0.000000e+00   0.000000e+00   0.000000e+00
   7.769866e-03  -1.644260e-02   0.000000e+00
  -1.507003e-02   5.069781e-02   0.000000e+00
   1.460161e-03   9.353541e-02   0.000000e+00
   0.000000e+00   0.000000e+00   0.000000e+00
   1.236708e-01  -1.107353e-01   0.000000e+00
   1.841248e-02  -1.745687e-02   0.000000e+00
  -9.032014e-02   4.637987e-03   0.000000e+00
   0.000000e+00   0.000000e+00   0.000000e+00
   2.303469e-01   2.606811e-01   0.000000e+00
   7.193625e-02  -1.825473e-01   0.000000e+00
  -6.652397e-02  -1.978287e-01   0.000000e+00
   0.000000e+00   0.000000e+00   0.000000e+00
   3.919276e-02   7.453279e-02   0.000000e+00
  -1.433238e-01  -1.834332e-01   0.000000e+00
   5.987178e-02   5.692443e-02   0.000000e+00
  -4.164017e-02  -1.071963e-01   0.000000e+00
  -1.215136e-02  -3.764913e-04   0.000000e+00
  -1.140765e-01  -9.381125e-03   0.000000e+00
  -1.018459e-02  -5.029863e-02   0.000000e+00
  -5.832933e-02   2.665909e-01   0.000000e+00
   7.818956e-02   1.694731e-02   0.000000e+00
VECTORS Imag_Arrow_3.981000e+01(Hz) float
   4.051598e-03  -2.049348e-02   0.000000e+00
   3.760252e-02  -6.809880e-02   0.000000e+00
   3.084300e-02  -4.233561e-02   0.000000e+00
  -1.843159e-02  -1.639170e-01   0.000000e+00
  -5.092317e-02  -1.071523e-02   0.000000e+00
  -4.731050e-02  -3.079203e-03   0.000000e+00
   1.915876e-02  -7.217902e-02   0.000000e+00
   0.000000e+00   0.000000e+00   0.000000e+00
   7.948659e-02   5.153698e-03   0.000000e+00
  -1.087240e-01  -3.470399e-02   0.000000e+00
  -6.683068e-02   3.296124e-02   0.000000e+00
  -4.578550e-02   1.952942e-02   0.000000e+00
   0.000000e+00   0.000000e+00   0.000000e+00
  -2.110731e-01  -6.736202e-02   0.000000e+00
  -3.075462e-02  -1.036747e-02   0.000000e+00
  -1.290144e-01   1.327807e-02   0.000000e+00
   3.925192e-02   9.281502e-02   0.000000e+00
   1.259517e-02  -3.654426e-02   0.000000e+00
   0.000000e+00   0.000000e+00   0.000000e+00
  -3.136928e-02  -1.471830e-02   0.000000e+00
  -1.816925e-02  -2.031302e-02   0.000000e+00
  -8.459709e-02  -4.990745e-03   0.000000e+00
  -7.364765e-03  -3.755929e-02   0.000000e+00
  -7.923616e-02   8.530451e-03   0.000000e+00
   0.000000e+00   0.000000e+00   0.000000e+00
  -3.092248e-02   6.332656e-02   0.000000e+00
  -1.044754e-01  -1.134391e-01   0.000000e+00
  -6.143625e-02  -8.310584e-02   0.000000e+00
   0.000000e+00   0.000000e+00   0.000000e+00
  -3.291580e-02   2.857494e-02   0.000000e+00
  -4.710740e-02   2.630756e-02   0.000000e+00
  -1.122463e-01   1.505195e-02   0.000000e+00
   0.000000e+00   0.000000e+00   0.000000e+00
   8.952605e-02   2.590377e-02   0.000000e+00
  -1.100410e-02   7.027036e-03   0.000000e+00
  -2.226000e-01  -2.283912e-03   0.000000e+00
   0.000000e+00   0.000000e+00   0.000000e+00
  -1.387968e-02   1.588720e-03   0.000000e+00
  -6.470528e-02  -2.125247e-01   0.000000e+00
  -6.017544e-02   2.035228e-01   0.000000e+00
  -6.928591e-03   5.745422e-02   0.000000e+00
  -1.875767e-02  -3.618939e-03   0.000000e+00
   6.305999e-02   6.577964e-02   0.000000e+00
  -1.454370e-01  -2.798421e-02   0.000000e+00
  -9.217640e-02  -1.403740e-01   0.000000e+00
   5.228104e-02  -1.074788e-01   0.000000e+00
VECTORS Real_Arrow_6.309500e+01(Hz) float
  -5.209075e-02  -1.134776e-01   0.000000e+00
  -1.367011e-01   1.742606e-01   0.000000e+00
  -6.918302e-02   1.224559e-01   0.000000e+00
   5.070552e-02  -2.318713e-01   0.000000e+00
  -2.225385e-02  -1.332135e-01   0.000000e+00
   1.169266e-02   2.141381e-02   0.000000e+00
   7.043193e-02  -6.243029e-02   0.000000e+00
   0.000000e+00   0.000000e+00   0.000000e+00
   0.000000e+00   0.000000e+00   0.000000e+00
   8.804524e-02  -3.134323e-02   0.000000e+00
  -7.267251e-02   8.673776e-03   0.000000e+00
  -5.672780e-02   1.574571e-02   0.000000e+00
   0.000000e+00   0.000000e+00   0.000000e+00
  -2.171377e-02   1.162969e-01   0.000000e+00
   7.125233e-02   3.266434e-02   0.000000e+00
   1.246203e-01   2.862157e-02   0.000000e+00
  -1.419115e-01  -2.547458e-01   0.000000e+00
   2.413539e-02   6.206053e-02   0.000000e+00
   0.000000e+00   0.000000e+00   0.000000e+00
   1.113265e-01   3.012755e-02   0.000000e+00
  -1.046951e-01   3.039583e-02   0.000000e+00
  -1.499513e-03  -7.072260e-02   0.000000e+00
  -6.263948e-02   7.064391e-02   0.000000e+00
   0.000000e+00   0.000000e+00   0.000000e+00
   0.000000e+00   0.000000e+00   0.000000e+00
   3.869731e-03  -5.476653e-02   0.000000e+00
   2.442996e-02   8.426147e-02   0.000000e+00
   2.639753e-02   1.135204e-01   0.000000e+00
   0.000000e+00   0.000000e+00   0.000000e+00
   1.191432e-01  -1.256227e-01   0.000000e+00
   3.178522e-02  -2.926416e-02   0.000000e+00
  -5.175790e-02  -1.066868e-02   0.000000e+00
   7.981063e-02   8.386427e-02   0.000000e+00
   1.719142e-01   2.305448e-01   0.000000e+00
   0.000000e+00   0.000000e+00   0.000000e+00
   2.553033e-02  -1.959615e-01   0.000000e+00
   3.938711e-02   3.122652e-01   0.000000e+00
   0.000000e+00   0.000000e+00   0.000000e+00
  -1.224867e-01  -9.850359e-02   0.000000e+00
   6.607511e-02  -2.034311e-02   0.000000e+00
  -4.002978e-02  -1.215452e-01   0.000000e+00
  -2.194616e-02   7.629481e-03   0.000000e+00
  -1.392496e-01  -4.015181e-02   0.000000e+00
   3.868247e-02  -4.229247e-02   0.000000e+00
  -2.295288e-02   3.082026e-01   0.000000e+00
   4.837629e-02   5.053632e-02   0.000000e+00
VECTORS Imag_Arrow_6.309500e+01(Hz) float
   5.946135e-03  -4.221084e-02   0.000000e+00
   3.494563e-02  -6.056359e-02   0.000000e+00
   3.325805e-02  -3.114860e-02   0.000000e+00
  -1.038125e-02  -1.562417e-01   0.000000e+00
  -4.464405e-02  -3.383753e-02   0.000000e+00
  -4.266684e-02   1.347691e-02   0.000000e+00
   2.811166e-02  -8.329237e-02   0.000000e+00
   0.000000e+00   0.000000e+00   0.000000e+00
   0.000000e+00   0.000000e+00   0.000000e+00
  -6.366011e-02  -3.621755e-02   0.000000e+00
  -5.786890e-02   2.752232e-02   0.000000e+00
  -2.637336e-02   1.717643e-02   0.000000e+00
   0.000000e+00   0.000000e+00   0.000000e+00
  -2.062009e-01  -2.905210e-02   0.000000e+00
   5.715381e-04  -1.340458e-02   0.000000e+00
  -9.321122e-02   2.557727e-02   0.000000e+00
   3.190117e-02   7.227833e-02   0.000000e+00
   2.159997e-02  -4.583540e-02   0.000000e+00
   0.000000e+00   0.000000e+00   0.000000e+00
  -7.356229e-04  -1.475618e-02   0.000000e+00
  -1.771261e-02  -1.984551e-02   0.000000e+00
  -5.661609e-02  -1.706765e-02   0.000000e+00
  -1.765710e-03  -4.784005e-02   0.000000e+00
   0.000000e+00   0.000000e+00   0.000000e+00
   0.000000e+00   0.000000e+00   0.000000e+00
  -6.419450e-03   5.459743e-02   0.000000e+00
  -1.006835e-01  -8.816386e-02   0.000000e+00
  -5.166522e-02  -6.031891e-02   0.000000e+00
   0.000000e+00   0.000000e+00   0.000000e+00
   3.083334e-03   1.275688e-02   0.000000e+00
  -3.576429e-02   2.454351e-02   0.000000e+00
  -1.033710e-01   1.839442e-02   0.000000e+00
   1.759432e-02   7.853560e-03   0.000000e+00
   1.270424e-01   8.660353e-02   0.000000e+00
   0.000000e+00   0.000000e+00   0.000000e+00
  -1.965611e-01  -1.325193e-02   0.000000e+00
  -7.350868e-02   4.017399e-02   0.000000e+00
   0.000000e+00   0.000000e+00   0.000000e+00
  -7.024472e-02  -1.871456e-01   0.000000e+00
  -4.760743e-02   1.882091e-01   0.000000e+00
   7.261096e-04   5.808985e-02   0.000000e+00
  -1.534445e-02  -2.114797e-03   0.000000e+00
   4.421726e-02   6.202023e-02   0.000000e+00
  -1.210716e-01  -3.195501e-02   0.000000e+00
  -8.991270e-02  -9.796287e-02   0.000000e+00
   6.320129e-02  -9.320923e-02   0.000000e+00
