# vtk DataFile Version 2.0
Induction_Arrow_Iter10_PE7
ASCII
DATASET UNSTRUCTURED_GRID
POINTS 46 float
  -2.052000e+03    1.667000e+03   -4.526633e+02
  -1.265000e+03    2.333000e+03   -4.555885e+02
  -9.840000e+02    2.568000e+03   -4.612271e+02
   1.700000e+03   -1.757000e+03   -5.237752e+02
  -1.152000e+03    1.382000e+03   -4.549280e+02
   3.187000e+03    1.067000e+03   -8.370176e+02
   4.716000e+03    9.370000e+02   -8.015281e+02
  -1.855000e+03    5.260000e+02   -5.147377e+02
  -1.420000e+02   -1.905000e+03   -4.746368e+02
  -5.800000e+01    1.069000e+03   -4.555494e+02
  -2.802000e+03    3.302000e+03   -4.314337e+02
  -5.640000e+03   -1.532000e+03   -4.911771e+02
  -8.030000e+02   -5.610000e+02   -5.280929e+02
   1.008000e+03    4.130000e+02   -5.983358e+02
   1.960000e+02    2.246000e+03   -5.219413e+02
  -3.457000e+03    8.320000e+02   -4.470735e+02
   5.640000e+03    2.452000e+03   -7.393049e+02
  -1.334000e+03    3.332000e+03   -4.456136e+02
   1.244000e+03    1.880000e+03   -6.331107e+02
  -2.680000e+02    2.144000e+03   -4.891390e+02
  -4.063000e+03    6.620000e+02   -4.746103e+02
  -1.258000e+03    6.330000e+02   -4.856841e+02
  -2.141000e+03    3.194000e+03   -4.348461e+02
  -3.469000e+03   -3.059000e+03   -6.067613e+02
  -1.604000e+03   -2.570000e+02   -5.141257e+02
  -1.454000e+03    2.220000e+02   -5.386025e+02
   1.864000e+03    1.270000e+02   -7.404291e+02
   2.449000e+03    5.590000e+02   -7.805292e+02
  -1.834000e+03   -1.554000e+03   -6.273074e+02
   1.807000e+03    2.297000e+03   -6.825557e+02
  -2.560000e+03   -1.783000e+03   -6.131337e+02
  -2.741000e+03   -5.010000e+02   -5.080000e+02
   2.884000e+03   -2.179000e+03   -5.274708e+02
  -6.120000e+02   -8.960000e+02   -5.895389e+02
  -1.985000e+03   -2.653000e+03   -5.598834e+02
  -3.390000e+03   -4.000000e+02   -4.982361e+02
   1.586000e+03    1.342000e+03   -6.618442e+02
   1.047000e+03    2.401000e+03   -5.426792e+02
   8.380000e+02   -1.300000e+03   -4.783644e+02
   2.569000e+03    2.441000e+03   -6.035668e+02
  -2.028000e+03    2.833000e+03   -4.322286e+02
  -1.086000e+03    1.998000e+03   -4.563301e+02
   1.514000e+03   -3.332000e+03   -5.646205e+02
   7.040000e+02    1.116000e+03   -5.365099e+02
   1.990000e+03    6.360000e+02   -7.085272e+02
   3.722000e+03   -1.700000e+02   -6.745213e+02
CELLS 46 92
1 0
1 1
1 2
1 3
1 4
1 5
1 6
1 7
1 8
1 9
1 10
1 11
1 12
1 13
1 14
1 15
1 16
1 17
1 18
1 19
1 20
1 21
1 22
1 23
1 24
1 25
1 26
1 27
1 28
1 29
1 30
1 31
1 32
1 33
1 34
1 35
1 36
1 37
1 38
1 39
1 40
1 41
1 42
1 43
1 44
1 45
CELL_TYPES 46
1
1
1
1
1
1
1
1
1
1
1
1
1
1
1
1
1
1
1
1
1
1
1
1
1
1
1
1
1
1
1
1
1
1
1
1
1
1
1
1
1
1
1
1
1
1
POINT_DATA 46
VECTORS Real_Arrow_3.981000e+02(Hz) float
  -3.911176e-02  -3.283970e-02   0.000000e+00
  -1.141212e-01   1.749221e-01   0.000000e+00
  -9.474766e-02   1.072233e-01   0.000000e+00
   6.805249e-02  -8.299389e-02   0.000000e+00
   3.213927e-02  -3.614861e-02   0.000000e+00
   2.905773e-02  -1.863834e-02   0.000000e+00
   2.061883e-02   4.050087e-02   0.000000e+00
   6.533858e-03   2.239829e-02   0.000000e+00
   0.000000e+00   0.000000e+00   0.000000e+00
   4.156404e-02   1.197471e-02   0.000000e+00
  -3.663500e-02  -2.942510e-02   0.000000e+00
  -5.832402e-02   1.254557e-02   0.000000e+00
   3.360756e-02   2.273777e-01   0.000000e+00
   1.654973e-01   6.283288e-02   0.000000e+00
   2.258870e-02   3.852631e-02   0.000000e+00
   1.476113e-01  -2.194410e-02   0.000000e+00
  -1.703011e-01  -2.791615e-01   0.000000e+00
  -3.557943e-02   1.410355e-01   0.000000e+00
   2.655354e-01  -1.619048e-01   0.000000e+00
   6.939752e-02   3.864131e-02   0.000000e+00
  -8.649374e-02   4.778086e-02   0.000000e+00
  -2.499468e-02  -5.122143e-02   0.000000e+00
  -9.452667e-02   1.200969e-01   0.000000e+00
   8.530698e-02  -1.345160e-01   0.000000e+00
  -2.629403e-02  -6.577254e-02   0.000000e+00
  -2.499318e-02  -4.594563e-02   0.000000e+00
   1.301363e-01   1.301795e-01   0.000000e+00
   4.833914e-02   1.368073e-01   0.000000e+00
   4.089618e-02  -2.102907e-02   0.000000e+00
   6.211457e-02  -9.351486e-02   0.000000e+00
   3.286135e-02  -5.386602e-02   0.000000e+00
   3.830888e-02  -1.994499e-02   0.000000e+00
   7.735257e-02   6.357174e-02   0.000000e+00
  -1.806624e-02   1.550164e-03   0.000000e+00
   0.000000e+00   0.000000e+00   0.000000e+00
   1.269120e-01  -1.451428e-01   0.000000e+00
   2.723136e-02   1.440546e-01   0.000000e+00
   0.000000e+00   0.000000e+00   0.000000e+00
  -1.110775e-02   2.727316e-02   0.000000e+00
   1.189890e-01  -1.369565e-01   0.000000e+00
  -7.978423e-02  -1.944358e-01   0.000000e+00
   1.742370e-02  -2.231712e-02   0.000000e+00
  -1.162225e-01  -8.038638e-02   0.000000e+00
   1.084640e-01   1.664952e-02   0.000000e+00
   7.700412e-02   3.056368e-01   0.000000e+00
  -1.547567e-03   1.046174e-01   0.000000e+00
VECTORS Imag_Arrow_3.981000e+02(Hz) float
  -1.439323e-02  -4.476502e-02   0.000000e+00
  -5.262468e-02   4.697476e-02   0.000000e+00
  -1.144662e-02   3.234890e-02   0.000000e+00
  -2.118086e-02  -1.169712e-01   0.000000e+00
  -3.246596e-02  -6.346699e-02   0.000000e+00
  -6.900698e-03   1.387278e-02   0.000000e+00
   1.496105e-02  -2.489491e-02   0.000000e+00
  -6.474637e-02   4.949047e-02   0.000000e+00
   0.000000e+00   0.000000e+00   0.000000e+00
   3.050687e-02  -2.058810e-02   0.000000e+00
  -2.514344e-02   2.557437e-02   0.000000e+00
  -6.671634e-03  -1.015758e-02   0.000000e+00
   3.069837e-02   1.945304e-01   0.000000e+00
  -8.500226e-02   2.872149e-02   0.000000e+00
   2.553097e-02   4.190603e-03   0.000000e+00
   4.956969e-03   2.407622e-02   0.000000e+00
  -2.282560e-03  -3.379739e-02   0.000000e+00
   2.702469e-02  -3.768169e-03   0.000000e+00
   4.612571e-02  -7.640053e-03   0.000000e+00
  -8.760377e-03  -2.485237e-03   0.000000e+00
  -1.268167e-02  -1.095308e-02   0.000000e+00
   2.667352e-02   1.058345e-02   0.000000e+00
   1.374548e-02  -3.547508e-03   0.000000e+00
  -3.825215e-02  -2.948529e-02   0.000000e+00
  -4.170479e-02   2.381968e-02   0.000000e+00
   1.403460e-02  -2.759150e-02   0.000000e+00
  -6.573433e-02   1.467612e-02   0.000000e+00
  -1.178236e-03  -3.162222e-03   0.000000e+00
   9.638825e-03   6.450156e-02   0.000000e+00
  -1.520679e-03   5.135568e-04   0.000000e+00
  -1.496840e-04   2.176204e-02   0.000000e+00
  -1.206605e-02  -1.468184e-02   0.000000e+00
  -4.989207e-03   1.872071e-02   0.000000e+00
   8.684519e-02   1.287145e-01   0.000000e+00
   0.000000e+00   0.000000e+00   0.000000e+00
  -4.804513e-02  -4.069245e-02   0.000000e+00
  -1.072500e-02   5.999552e-02   0.000000e+00
   0.000000e+00   0.000000e+00   0.000000e+00
  -8.473730e-02  -6.385543e-02   0.000000e+00
  -4.200288e-02   5.897720e-02   0.000000e+00
   6.958605e-03   1.171206e-02   0.000000e+00
  -1.623550e-02   1.823778e-02   0.000000e+00
  -6.000210e-02  -6.551321e-03   0.000000e+00
  -5.435493e-02  -5.585367e-02   0.000000e+00
  -6.377842e-02   6.200672e-02   0.000000e+00
   9.327583e-03  -2.477097e-02   0.000000e+00
VECTORS Real_Arrow_6.309500e+02(Hz) float
  -3.387079e-02  -1.841388e-02   0.000000e+00
  -8.991394e-02   1.494578e-01   0.000000e+00
  -8.650510e-02   9.346447e-02   0.000000e+00
   7.667593e-02  -4.793337e-02   0.000000e+00
   4.126434e-02  -1.357301e-02   0.000000e+00
   2.545538e-02  -1.804015e-02   0.000000e+00
   2.085855e-02   3.709792e-02   0.000000e+00
   2.973393e-02   3.325543e-03   0.000000e+00
   0.000000e+00   0.000000e+00   0.000000e+00
   2.896897e-02   1.659448e-02   0.000000e+00
  -3.089926e-02  -3.896848e-02   0.000000e+00
  -5.501182e-02   1.600480e-02   0.000000e+00
   2.932113e-02   1.662550e-01   0.000000e+00
   1.786263e-01   5.029112e-02   0.000000e+00
   1.460738e-02   3.701590e-02   0.000000e+00
   1.410857e-01  -2.883841e-02   0.000000e+00
  -1.718905e-01  -2.657736e-01   0.000000e+00
  -4.345404e-02   1.362146e-01   0.000000e+00
   2.405922e-01  -1.553567e-01   0.000000e+00
   7.510708e-02   4.129045e-02   0.000000e+00
  -8.256823e-02   5.105557e-02   0.000000e+00
  -3.666829e-02  -5.770007e-02   0.000000e+00
  -9.936707e-02   1.164437e-01   0.000000e+00
   9.583429e-02  -1.188357e-01   0.000000e+00
  -1.224357e-02  -5.635678e-02   0.000000e+00
  -2.983479e-02  -3.398271e-02   0.000000e+00
   1.511997e-01   1.170618e-01   0.000000e+00
   4.132140e-02   1.363739e-01   0.000000e+00
   3.084512e-02  -5.101730e-02   0.000000e+00
   6.606686e-02  -9.610564e-02   0.000000e+00
   3.018363e-02  -6.019594e-02   0.000000e+00
   2.979385e-02  -1.251965e-02   0.000000e+00
   7.767128e-02   5.834473e-02   0.000000e+00
  -3.988626e-02  -3.847928e-02   0.000000e+00
  -5.684177e-03  -2.718041e-02   0.000000e+00
   1.344414e-01  -1.286814e-01   0.000000e+00
   3.036388e-02   1.391765e-01   0.000000e+00
   0.000000e+00   0.000000e+00   0.000000e+00
   1.850958e-02   4.258712e-02   0.000000e+00
   1.313567e-01  -1.448906e-01   0.000000e+00
  -8.057077e-02  -1.935562e-01   0.000000e+00
   2.022881e-02  -2.927199e-02   0.000000e+00
  -8.796833e-02  -7.043241e-02   0.000000e+00
   1.235881e-01   3.462419e-02   0.000000e+00
   9.523119e-02   2.726078e-01   0.000000e+00
   9.725510e-04   1.075768e-01   0.000000e+00
VECTORS Imag_Arrow_6.309500e+02(Hz) float
  -1.209019e-02  -3.769628e-02   0.000000e+00
  -5.243695e-02   5.327056e-02   0.000000e+00
  -2.237997e-02   3.758492e-02   0.000000e+00
  -1.800201e-02  -1.148165e-01   0.000000e+00
  -2.396731e-02  -5.103310e-02   0.000000e+00
  -1.203909e-02   1.153108e-02   0.000000e+00
   6.532810e-03  -9.037264e-03   0.000000e+00
  -5.937912e-02   5.138017e-02   0.000000e+00
   0.000000e+00   0.000000e+00   0.000000e+00
   2.750285e-02  -1.393158e-02   0.000000e+00
  -2.250004e-02   1.561184e-02   0.000000e+00
  -4.160086e-03  -1.455380e-02   0.000000e+00
   1.712799e-02   1.754325e-01   0.000000e+00
  -6.422857e-02   2.106101e-02   0.000000e+00
   2.346899e-02   6.940329e-03   0.000000e+00
   2.008339e-02   1.905977e-02   0.000000e+00
  -1.956129e-02  -5.853102e-02   0.000000e+00
   1.497581e-02   2.437969e-02   0.000000e+00
   4.932842e-02  -1.042557e-02   0.000000e+00
  -2.042159e-02   1.194079e-03   0.000000e+00
  -1.128363e-02  -8.957459e-03   0.000000e+00
   3.092097e-02   1.491248e-02   0.000000e+00
   4.149105e-03   5.503348e-03   0.000000e+00
  -2.661988e-02  -4.330994e-02   0.000000e+00
  -4.180026e-02  -1.219497e-03   0.000000e+00
   1.332434e-02  -2.963259e-02   0.000000e+00
  -5.142340e-02   3.807208e-02   0.000000e+00
   2.832779e-03   5.413697e-03   0.000000e+00
   1.436770e-02   7.094856e-02   0.000000e+00
  -1.144051e-02   9.297618e-03   0.000000e+00
  -3.387747e-03   2.253627e-02   0.000000e+00
   9.099397e-03  -2.136401e-02   0.000000e+00
  -1.017815e-02   2.193912e-02   0.000000e+00
   6.625308e-02   1.065504e-01   0.000000e+00
   5.029858e-02  -7.701135e-02   0.000000e+00
  -4.150662e-02  -3.630201e-02   0.000000e+00
  -2.114284e-02   5.230261e-02   0.000000e+00
   0.000000e+00   0.000000e+00   0.000000e+00
  -7.396323e-02  -4.463585e-02   0.000000e+00
  -3.481213e-02   5.574316e-02   0.000000e+00
  -7.503205e-03  -9.053478e-03   0.000000e+00
  -6.036466e-03   7.833572e-03   0.000000e+00
  -6.808305e-02  -1.546373e-02   0.000000e+00
  -5.348936e-02  -5.535939e-02   0.000000e+00
  -4.979379e-02   8.166829e-02   0.000000e+00
   1.165908e-02  -2.461440e-02   0.000000e+00
VECTORS Real_Arrow_1.000000e+03(Hz) float
  -2.961636e-02  -7.853856e-03   0.000000e+00
  -7.087992e-02   1.269915e-01   0.000000e+00
  -7.425494e-02   7.882718e-02   0.000000e+00
   8.305778e-02  -1.082204e-02   0.000000e+00
   4.665593e-02   3.979317e-05   0.000000e+00
   2.794832e-02  -1.714545e-02   0.000000e+00
   2.266764e-02   3.179391e-02   0.000000e+00
   5.007751e-02  -1.556189e-02   0.000000e+00
   0.000000e+00   0.000000e+00   0.000000e+00
   2.060658e-02   1.832048e-02   0.000000e+00
  -2.601807e-02  -4.267666e-02   0.000000e+00
  -5.300732e-02   2.053523e-02   0.000000e+00
   2.691119e-02   1.173534e-01   0.000000e+00
   1.876371e-01   4.676485e-02   0.000000e+00
   0.000000e+00   0.000000e+00   0.000000e+00
   1.293985e-01  -3.386734e-02   0.000000e+00
  -1.654803e-01  -2.435945e-01   0.000000e+00
  -4.537341e-02   1.186487e-01   0.000000e+00
   0.000000e+00   0.000000e+00   0.000000e+00
   8.504652e-02   4.250703e-02   0.000000e+00
  -7.854799e-02   5.385575e-02   0.000000e+00
  -4.889783e-02  -6.541958e-02   0.000000e+00
  -9.812359e-02   1.103310e-01   0.000000e+00
   0.000000e+00   0.000000e+00   0.000000e+00
   7.000355e-04  -4.262824e-02   0.000000e+00
  -3.361868e-02  -2.247414e-02   0.000000e+00
   1.653585e-01   9.709735e-02   0.000000e+00
   3.278381e-02   1.358509e-01   0.000000e+00
   2.097245e-02  -7.813031e-02   0.000000e+00
   7.219998e-02  -1.029059e-01   0.000000e+00
   3.112808e-02  -6.721098e-02   0.000000e+00
   1.907560e-02  -2.634503e-03   0.000000e+00
   0.000000e+00   0.000000e+00   0.000000e+00
  -5.528330e-02  -6.780007e-02   0.000000e+00
   0.000000e+00   0.000000e+00   0.000000e+00
   1.427705e-01  -1.138978e-01   0.000000e+00
   3.930693e-02   1.289325e-01   0.000000e+00
   0.000000e+00   0.000000e+00   0.000000e+00
   0.000000e+00   0.000000e+00   0.000000e+00
   1.389014e-01  -1.540096e-01   0.000000e+00
   0.000000e+00   0.000000e+00   0.000000e+00
   0.000000e+00   0.000000e+00   0.000000e+00
  -6.141109e-02  -5.988850e-02   0.000000e+00
   1.410332e-01   5.229419e-02   0.000000e+00
   1.044081e-01   2.362534e-01   0.000000e+00
  -8.918015e-04   1.140081e-01   0.000000e+00
VECTORS Imag_Arrow_1.000000e+03(Hz) float
  -9.226641e-03  -2.895528e-02   0.000000e+00
  -4.649413e-02   5.107060e-02   0.000000e+00
  -2.889516e-02   4.005506e-02   0.000000e+00
  -1.265451e-02  -1.098619e-01   0.000000e+00
  -1.476784e-02  -3.569414e-02   0.000000e+00
  -2.198676e-02   1.507631e-02   0.000000e+00
   3.007090e-03  -1.989804e-03   0.000000e+00
  -5.037038e-02   4.939235e-02   0.000000e+00
   0.000000e+00   0.000000e+00   0.000000e+00
   2.362079e-02  -8.441922e-03   0.000000e+00
  -2.081959e-02   3.493609e-03   0.000000e+00
   3.784585e-04  -1.910862e-02   0.000000e+00
   4.749610e-03   1.565608e-01   0.000000e+00
  -5.244338e-02   1.105562e-02   0.000000e+00
   0.000000e+00   0.000000e+00   0.000000e+00
   3.243273e-02   1.367329e-02   0.000000e+00
  -4.186425e-02  -8.480647e-02   0.000000e+00
   3.183638e-03   4.636850e-02   0.000000e+00
   0.000000e+00   0.000000e+00   0.000000e+00
  -2.848441e-02   7.236464e-03   0.000000e+00
  -9.521374e-03  -6.463059e-03   0.000000e+00
   3.266842e-02   1.672372e-02   0.000000e+00
  -5.844184e-03   1.120010e-02   0.000000e+00
   0.000000e+00   0.000000e+00   0.000000e+00
  -4.047549e-02  -1.061737e-02   0.000000e+00
   1.269856e-02  -2.944286e-02   0.000000e+00
  -3.356497e-02   5.513388e-02   0.000000e+00
  -1.412630e-03   1.588299e-02   0.000000e+00
   1.156083e-02   6.726555e-02   0.000000e+00
  -1.818039e-02   1.532495e-02   0.000000e+00
  -8.039974e-03   2.365416e-02   0.000000e+00
   1.966171e-02  -2.462074e-02   0.000000e+00
   0.000000e+00   0.000000e+00   0.000000e+00
   4.723576e-02   8.219652e-02   0.000000e+00
   0.000000e+00   0.000000e+00   0.000000e+00
  -3.688059e-02  -2.797376e-02   0.000000e+00
  -2.751426e-02   5.427049e-02   0.000000e+00
   0.000000e+00   0.000000e+00   0.000000e+00
   0.000000e+00   0.000000e+00   0.000000e+00
  -2.780851e-02   5.829596e-02   0.000000e+00
   0.000000e+00   0.000000e+00   0.000000e+00
   0.000000e+00   0.000000e+00   0.000000e+00
  -6.821649e-02  -1.812320e-02   0.000000e+00
  -5.023613e-02  -5.444437e-02   0.000000e+00
  -3.671868e-02   9.125231e-02   0.000000e+00
   1.533985e-02  -2.390976e-02   0.000000e+00
