# vtk DataFile Version 2.0
Induction_Arrow_Iter4_PE5
ASCII
DATASET UNSTRUCTURED_GRID
POINTS 46 float
  -2.052000e+03    1.667000e+03   -4.526633e+02
  -1.265000e+03    2.333000e+03   -4.555885e+02
  -9.840000e+02    2.568000e+03   -4.612271e+02
   1.700000e+03   -1.757000e+03   -5.237752e+02
  -1.152000e+03    1.382000e+03   -4.549280e+02
   3.187000e+03    1.067000e+03   -8.370176e+02
   4.716000e+03    9.370000e+02   -8.015281e+02
  -1.855000e+03    5.260000e+02   -5.147377e+02
  -1.420000e+02   -1.905000e+03   -4.746368e+02
  -5.800000e+01    1.069000e+03   -4.555494e+02
  -2.802000e+03    3.302000e+03   -4.314337e+02
  -5.640000e+03   -1.532000e+03   -4.911771e+02
  -8.030000e+02   -5.610000e+02   -5.280929e+02
   1.008000e+03    4.130000e+02   -5.983358e+02
   1.960000e+02    2.246000e+03   -5.219413e+02
  -3.457000e+03    8.320000e+02   -4.470735e+02
   5.640000e+03    2.452000e+03   -7.393049e+02
  -1.334000e+03    3.332000e+03   -4.456136e+02
   1.244000e+03    1.880000e+03   -6.331107e+02
  -2.680000e+02    2.144000e+03   -4.891390e+02
  -4.063000e+03    6.620000e+02   -4.746103e+02
  -1.258000e+03    6.330000e+02   -4.856841e+02
  -2.141000e+03    3.194000e+03   -4.348461e+02
  -3.469000e+03   -3.059000e+03   -6.067613e+02
  -1.604000e+03   -2.570000e+02   -5.141257e+02
  -1.454000e+03    2.220000e+02   -5.386025e+02
   1.864000e+03    1.270000e+02   -7.404291e+02
   2.449000e+03    5.590000e+02   -7.805292e+02
  -1.834000e+03   -1.554000e+03   -6.273074e+02
   1.807000e+03    2.297000e+03   -6.825557e+02
  -2.560000e+03   -1.783000e+03   -6.131337e+02
  -2.741000e+03   -5.010000e+02   -5.080000e+02
   2.884000e+03   -2.179000e+03   -5.274708e+02
  -6.120000e+02   -8.960000e+02   -5.895389e+02
  -1.985000e+03   -2.653000e+03   -5.598834e+02
  -3.390000e+03   -4.000000e+02   -4.982361e+02
   1.586000e+03    1.342000e+03   -6.618442e+02
   1.047000e+03    2.401000e+03   -5.426792e+02
   8.380000e+02   -1.300000e+03   -4.783644e+02
   2.569000e+03    2.441000e+03   -6.035668e+02
  -2.028000e+03    2.833000e+03   -4.322286e+02
  -1.086000e+03    1.998000e+03   -4.563301e+02
   1.514000e+03   -3.332000e+03   -5.646205e+02
   7.040000e+02    1.116000e+03   -5.365099e+02
   1.990000e+03    6.360000e+02   -7.085272e+02
   3.722000e+03   -1.700000e+02   -6.745213e+02
CELLS 46 92
1 0
1 1
1 2
1 3
1 4
1 5
1 6
1 7
1 8
1 9
1 10
1 11
1 12
1 13
1 14
1 15
1 16
1 17
1 18
1 19
1 20
1 21
1 22
1 23
1 24
1 25
1 26
1 27
1 28
1 29
1 30
1 31
1 32
1 33
1 34
1 35
1 36
1 37
1 38
1 39
1 40
1 41
1 42
1 43
1 44
1 45
CELL_TYPES 46
1
1
1
1
1
1
1
1
1
1
1
1
1
1
1
1
1
1
1
1
1
1
1
1
1
1
1
1
1
1
1
1
1
1
1
1
1
1
1
1
1
1
1
1
1
1
POINT_DATA 46
VECTORS Real_Arrow_2.511800e+01(Hz) float
  -2.376634e-02  -1.313173e-01   0.000000e+00
  -7.476880e-02   1.065158e-01   0.000000e+00
   0.000000e+00   0.000000e+00   0.000000e+00
   4.559435e-02  -3.500137e-01   0.000000e+00
  -4.165520e-02  -1.384095e-01   0.000000e+00
  -3.134948e-02   2.506929e-02   0.000000e+00
   8.100492e-02  -1.145958e-01   0.000000e+00
  -3.011885e-02   9.791457e-02   0.000000e+00
   2.768758e-01  -1.792812e-01   0.000000e+00
  -1.642606e-03  -5.611016e-02   0.000000e+00
  -1.247055e-01   2.411178e-02   0.000000e+00
  -7.673264e-02   4.516904e-02   0.000000e+00
   0.000000e+00   0.000000e+00   0.000000e+00
  -1.911163e-01   6.454471e-02   0.000000e+00
   6.065757e-02   1.887199e-02   0.000000e+00
   2.047867e-02   4.335527e-02   0.000000e+00
  -1.227926e-01  -1.791848e-01   0.000000e+00
   4.033492e-02   2.697351e-02   0.000000e+00
   2.247382e-01  -1.070520e-01   0.000000e+00
   1.048880e-01   1.188649e-02   0.000000e+00
  -1.191839e-01   2.035378e-02   0.000000e+00
  -6.986509e-02  -7.217644e-02   0.000000e+00
  -6.659475e-02   2.916831e-02   0.000000e+00
  -2.737778e-02  -1.166619e-01   0.000000e+00
   0.000000e+00   0.000000e+00   0.000000e+00
  -6.548634e-03   1.851625e-02   0.000000e+00
  -5.552874e-02   3.899958e-03   0.000000e+00
  -2.670518e-02   5.989467e-02   0.000000e+00
   6.680628e-03   2.204061e-02   0.000000e+00
   0.000000e+00   0.000000e+00   0.000000e+00
  -2.261827e-04  -2.309054e-03   0.000000e+00
  -1.315031e-01   1.364360e-02   0.000000e+00
   9.704780e-02   8.905177e-02   0.000000e+00
   2.594983e-01   2.603642e-01   0.000000e+00
   6.675941e-02  -1.623256e-01   0.000000e+00
  -1.639878e-01  -1.981963e-01   0.000000e+00
   0.000000e+00   0.000000e+00   0.000000e+00
   2.904387e-02   7.059573e-02   0.000000e+00
  -1.668969e-01  -2.769003e-01   0.000000e+00
   4.355117e-02   1.343940e-01   0.000000e+00
  -4.162423e-02  -9.300206e-02   0.000000e+00
  -9.278274e-03  -5.041727e-03   0.000000e+00
  -8.429066e-02   2.131042e-02   0.000000e+00
  -7.191830e-02  -5.642608e-02   0.000000e+00
  -9.534140e-02   2.048522e-01   0.000000e+00
   9.529149e-02  -2.316755e-02   0.000000e+00
VECTORS Imag_Arrow_2.511800e+01(Hz) float
  -1.789690e-02   5.709698e-03   0.000000e+00
   1.170441e-02  -5.731881e-02   0.000000e+00
   0.000000e+00   0.000000e+00   0.000000e+00
  -3.221754e-02  -1.605483e-01   0.000000e+00
  -6.724236e-02   1.189192e-02   0.000000e+00
  -4.353850e-02  -2.303680e-02   0.000000e+00
   9.940275e-03  -5.808026e-02   0.000000e+00
  -4.051976e-02   2.426457e-02   0.000000e+00
   3.359840e-02   9.745694e-03   0.000000e+00
  -1.353179e-01  -3.047486e-02   0.000000e+00
  -6.706975e-02   3.967501e-02   0.000000e+00
  -6.937498e-02   1.188987e-02   0.000000e+00
   0.000000e+00   0.000000e+00   0.000000e+00
  -1.877378e-01  -9.840271e-02   0.000000e+00
  -6.925521e-02  -3.139012e-03   0.000000e+00
  -1.471861e-01  -3.276909e-03   0.000000e+00
   4.890062e-02   1.044477e-01   0.000000e+00
   1.575112e-04  -1.611907e-02   0.000000e+00
  -1.568964e-01   7.186233e-02   0.000000e+00
  -7.085344e-02  -7.432491e-03   0.000000e+00
  -1.453028e-02  -2.386806e-02   0.000000e+00
  -1.002370e-01   4.939266e-03   0.000000e+00
  -1.251331e-02  -1.421774e-02   0.000000e+00
  -9.588185e-02   8.027141e-03   0.000000e+00
   0.000000e+00   0.000000e+00   0.000000e+00
  -6.410356e-02   4.734398e-02   0.000000e+00
  -9.641375e-02  -1.321652e-01   0.000000e+00
  -6.117572e-02  -1.044611e-01   0.000000e+00
  -4.481343e-02   1.272610e-03   0.000000e+00
   0.000000e+00   0.000000e+00   0.000000e+00
  -6.011849e-02   1.937464e-02   0.000000e+00
  -1.121906e-01   1.311978e-03   0.000000e+00
   3.971369e-02  -7.673210e-03   0.000000e+00
   2.727007e-02  -4.190024e-02   0.000000e+00
  -3.198315e-02   3.441469e-02   0.000000e+00
  -2.118717e-01   8.236113e-03   0.000000e+00
   0.000000e+00   0.000000e+00   0.000000e+00
  -6.535585e-02  -9.668095e-03   0.000000e+00
  -5.625474e-02  -2.018994e-01   0.000000e+00
  -8.404237e-02   1.997262e-01   0.000000e+00
  -1.521304e-02   6.347183e-02   0.000000e+00
  -4.127900e-02   2.550522e-03   0.000000e+00
   7.224511e-02   5.527336e-02   0.000000e+00
  -1.542733e-01  -2.299835e-02   0.000000e+00
  -8.341876e-02  -1.725966e-01   0.000000e+00
   3.148583e-02  -1.192786e-01   0.000000e+00
VECTORS Real_Arrow_3.981000e+01(Hz) float
  -3.543254e-02  -1.295042e-01   0.000000e+00
  -1.026846e-01   1.378013e-01   0.000000e+00
  -4.437819e-02   9.802712e-02   0.000000e+00
   5.195501e-02  -2.871291e-01   0.000000e+00
  -2.936870e-02  -1.421209e-01   0.000000e+00
  -8.194479e-03   2.769198e-02   0.000000e+00
   7.888076e-02  -9.252660e-02   0.000000e+00
   0.000000e+00   0.000000e+00   0.000000e+00
   2.438279e-01  -1.957691e-01   0.000000e+00
   5.461356e-02  -4.397675e-02   0.000000e+00
  -9.579710e-02   1.440927e-02   0.000000e+00
  -6.247945e-02   2.974846e-02   0.000000e+00
   0.000000e+00   0.000000e+00   0.000000e+00
  -1.057877e-01   1.005827e-01   0.000000e+00
   7.672525e-02   2.305419e-02   0.000000e+00
   8.205827e-02   3.946286e-02   0.000000e+00
  -1.336893e-01  -2.210144e-01   0.000000e+00
   3.218615e-02   4.279885e-02   0.000000e+00
   0.000000e+00   0.000000e+00   0.000000e+00
   1.186338e-01   1.982221e-02   0.000000e+00
  -1.133300e-01   2.443297e-02   0.000000e+00
  -3.237693e-02  -7.721605e-02   0.000000e+00
  -6.580667e-02   4.461016e-02   0.000000e+00
  -2.530502e-03  -1.215419e-01   0.000000e+00
   0.000000e+00   0.000000e+00   0.000000e+00
   7.074056e-03  -1.598163e-02   0.000000e+00
  -1.356269e-02   5.129464e-02   0.000000e+00
   2.473281e-03   9.293774e-02   0.000000e+00
   0.000000e+00   0.000000e+00   0.000000e+00
   1.208685e-01  -1.147389e-01   0.000000e+00
   1.733768e-02  -1.768523e-02   0.000000e+00
  -9.090880e-02   1.932544e-03   0.000000e+00
   0.000000e+00   0.000000e+00   0.000000e+00
   2.249401e-01   2.606860e-01   0.000000e+00
   7.229328e-02  -1.823284e-01   0.000000e+00
  -6.530312e-02  -2.014606e-01   0.000000e+00
   0.000000e+00   0.000000e+00   0.000000e+00
   4.176658e-02   7.307275e-02   0.000000e+00
  -1.449716e-01  -1.825292e-01   0.000000e+00
   6.098403e-02   5.756179e-02   0.000000e+00
  -4.162581e-02  -1.058420e-01   0.000000e+00
  -1.259839e-02  -3.286327e-04   0.000000e+00
  -1.141299e-01  -1.084349e-02   0.000000e+00
  -9.758269e-03  -4.863466e-02   0.000000e+00
  -5.728743e-02   2.657865e-01   0.000000e+00
   7.694234e-02   1.704250e-02   0.000000e+00
VECTORS Imag_Arrow_3.981000e+01(Hz) float
   4.642430e-03  -2.058229e-02   0.000000e+00
   3.819882e-02  -6.904368e-02   0.000000e+00
   3.119949e-02  -4.341649e-02   0.000000e+00
  -1.884991e-02  -1.641549e-01   0.000000e+00
  -5.017672e-02  -1.088450e-02   0.000000e+00
  -4.819685e-02  -2.584713e-03   0.000000e+00
   1.885901e-02  -7.326204e-02   0.000000e+00
   0.000000e+00   0.000000e+00   0.000000e+00
   7.876633e-02   4.412833e-03   0.000000e+00
  -1.071622e-01  -3.476666e-02   0.000000e+00
  -6.851681e-02   3.182415e-02   0.000000e+00
  -4.645630e-02   1.849363e-02   0.000000e+00
   0.000000e+00   0.000000e+00   0.000000e+00
  -2.096018e-01  -6.758982e-02   0.000000e+00
  -3.025409e-02  -1.151476e-02   0.000000e+00
  -1.301457e-01   1.294563e-02   0.000000e+00
   3.859472e-02   9.416829e-02   0.000000e+00
   1.304804e-02  -3.598747e-02   0.000000e+00
   0.000000e+00   0.000000e+00   0.000000e+00
  -3.094424e-02  -1.550574e-02   0.000000e+00
  -1.802902e-02  -2.243902e-02   0.000000e+00
  -8.339885e-02  -4.698263e-03   0.000000e+00
  -8.031255e-03  -3.803172e-02   0.000000e+00
  -8.108404e-02   9.953242e-03   0.000000e+00
   0.000000e+00   0.000000e+00   0.000000e+00
  -3.136440e-02   6.190803e-02   0.000000e+00
  -1.042787e-01  -1.133217e-01   0.000000e+00
  -6.186202e-02  -8.265596e-02   0.000000e+00
   0.000000e+00   0.000000e+00   0.000000e+00
  -3.419103e-02   3.138568e-02   0.000000e+00
  -4.945884e-02   2.480447e-02   0.000000e+00
  -1.089029e-01   1.478780e-02   0.000000e+00
   0.000000e+00   0.000000e+00   0.000000e+00
   8.886063e-02   2.797488e-02   0.000000e+00
  -1.154186e-02   6.296921e-03   0.000000e+00
  -2.207766e-01  -2.857974e-03   0.000000e+00
   0.000000e+00   0.000000e+00   0.000000e+00
  -1.366989e-02   9.517490e-04   0.000000e+00
  -6.429258e-02  -2.107690e-01   0.000000e+00
  -5.939269e-02   2.028225e-01   0.000000e+00
  -6.781950e-03   5.661895e-02   0.000000e+00
  -1.811994e-02  -4.115104e-03   0.000000e+00
   6.264869e-02   6.431189e-02   0.000000e+00
  -1.442452e-01  -2.701712e-02   0.000000e+00
  -9.252391e-02  -1.399920e-01   0.000000e+00
   5.205954e-02  -1.081597e-01   0.000000e+00
VECTORS Real_Arrow_6.309500e+01(Hz) float
  -5.159056e-02  -1.125777e-01   0.000000e+00
  -1.374990e-01   1.750557e-01   0.000000e+00
  -6.963904e-02   1.226619e-01   0.000000e+00
   4.963795e-02  -2.302048e-01   0.000000e+00
  -2.346093e-02  -1.330472e-01   0.000000e+00
   1.323678e-02   2.023283e-02   0.000000e+00
   7.008226e-02  -6.157217e-02   0.000000e+00
   0.000000e+00   0.000000e+00   0.000000e+00
   0.000000e+00   0.000000e+00   0.000000e+00
   8.825730e-02  -3.101655e-02   0.000000e+00
  -6.991730e-02   9.228708e-03   0.000000e+00
  -5.691611e-02   1.634836e-02   0.000000e+00
   0.000000e+00   0.000000e+00   0.000000e+00
  -2.105179e-02   1.155178e-01   0.000000e+00
   7.049017e-02   3.291836e-02   0.000000e+00
   1.254534e-01   2.907369e-02   0.000000e+00
  -1.423753e-01  -2.547756e-01   0.000000e+00
   2.468368e-02   6.290381e-02   0.000000e+00
   0.000000e+00   0.000000e+00   0.000000e+00
   1.105777e-01   3.072972e-02   0.000000e+00
  -1.058496e-01   3.159065e-02   0.000000e+00
  -2.831362e-03  -7.032947e-02   0.000000e+00
  -6.215508e-02   7.050780e-02   0.000000e+00
   0.000000e+00   0.000000e+00   0.000000e+00
   0.000000e+00   0.000000e+00   0.000000e+00
   3.648157e-03  -5.346191e-02   0.000000e+00
   2.562740e-02   8.503534e-02   0.000000e+00
   2.745374e-02   1.129352e-01   0.000000e+00
   0.000000e+00   0.000000e+00   0.000000e+00
   1.175604e-01  -1.294235e-01   0.000000e+00
   3.210277e-02  -2.859937e-02   0.000000e+00
  -5.396324e-02  -1.311048e-02   0.000000e+00
   7.966678e-02   8.364528e-02   0.000000e+00
   1.675301e-01   2.293516e-01   0.000000e+00
   0.000000e+00   0.000000e+00   0.000000e+00
   2.475535e-02  -1.992163e-01   0.000000e+00
   4.171915e-02   3.139011e-01   0.000000e+00
   0.000000e+00   0.000000e+00   0.000000e+00
  -1.242809e-01  -9.923088e-02   0.000000e+00
   6.637179e-02  -1.962351e-02   0.000000e+00
  -4.008710e-02  -1.199311e-01   0.000000e+00
  -2.246469e-02   7.839988e-03   0.000000e+00
  -1.389214e-01  -4.035371e-02   0.000000e+00
   3.838879e-02  -4.134692e-02   0.000000e+00
  -2.191203e-02   3.075240e-01   0.000000e+00
   4.754570e-02   5.079855e-02   0.000000e+00
VECTORS Imag_Arrow_6.309500e+01(Hz) float
   6.850414e-03  -4.167725e-02   0.000000e+00
   3.484123e-02  -6.104537e-02   0.000000e+00
   3.329667e-02  -3.166529e-02   0.000000e+00
  -1.158913e-02  -1.551734e-01   0.000000e+00
  -4.489777e-02  -3.397772e-02   0.000000e+00
  -4.295859e-02   1.337519e-02   0.000000e+00
   2.771047e-02  -8.401553e-02   0.000000e+00
   0.000000e+00   0.000000e+00   0.000000e+00
   0.000000e+00   0.000000e+00   0.000000e+00
  -6.157541e-02  -3.640293e-02   0.000000e+00
  -5.821152e-02   2.651381e-02   0.000000e+00
  -2.692839e-02   1.699729e-02   0.000000e+00
   0.000000e+00   0.000000e+00   0.000000e+00
  -2.038165e-01  -2.974421e-02   0.000000e+00
   5.341713e-04  -1.407503e-02   0.000000e+00
  -9.382853e-02   2.642363e-02   0.000000e+00
   3.096452e-02   7.291954e-02   0.000000e+00
   2.232827e-02  -4.469161e-02   0.000000e+00
   0.000000e+00   0.000000e+00   0.000000e+00
  -1.103262e-03  -1.502854e-02   0.000000e+00
  -1.873871e-02  -2.108243e-02   0.000000e+00
  -5.610307e-02  -1.656762e-02   0.000000e+00
  -2.306588e-03  -4.816850e-02   0.000000e+00
   0.000000e+00   0.000000e+00   0.000000e+00
   0.000000e+00   0.000000e+00   0.000000e+00
  -6.871593e-03   5.331094e-02   0.000000e+00
  -9.982605e-02  -8.832823e-02   0.000000e+00
  -5.151880e-02  -6.037753e-02   0.000000e+00
   0.000000e+00   0.000000e+00   0.000000e+00
   1.014569e-03   1.298966e-02   0.000000e+00
  -3.751485e-02   2.333080e-02   0.000000e+00
  -1.011552e-01   1.650553e-02   0.000000e+00
   1.738717e-02   8.467027e-03   0.000000e+00
   1.237086e-01   8.788555e-02   0.000000e+00
   0.000000e+00   0.000000e+00   0.000000e+00
  -1.940071e-01  -1.487759e-02   0.000000e+00
  -7.261063e-02   4.219724e-02   0.000000e+00
   0.000000e+00   0.000000e+00   0.000000e+00
  -7.074127e-02  -1.845744e-01   0.000000e+00
  -4.620890e-02   1.878455e-01   0.000000e+00
   6.570686e-04   5.779383e-02   0.000000e+00
  -1.566087e-02  -2.291930e-03   0.000000e+00
   4.392824e-02   6.049692e-02   0.000000e+00
  -1.199285e-01  -3.037211e-02   0.000000e+00
  -8.964179e-02  -9.813323e-02   0.000000e+00
   6.229693e-02  -9.350007e-02   0.000000e+00
