# vtk DataFile Version 2.0
Induction_Arrow_Iter8_PE7
ASCII
DATASET UNSTRUCTURED_GRID
POINTS 46 float
  -2.052000e+03    1.667000e+03   -4.526633e+02
  -1.265000e+03    2.333000e+03   -4.555885e+02
  -9.840000e+02    2.568000e+03   -4.612271e+02
   1.700000e+03   -1.757000e+03   -5.237752e+02
  -1.152000e+03    1.382000e+03   -4.549280e+02
   3.187000e+03    1.067000e+03   -8.370176e+02
   4.716000e+03    9.370000e+02   -8.015281e+02
  -1.855000e+03    5.260000e+02   -5.147377e+02
  -1.420000e+02   -1.905000e+03   -4.746368e+02
  -5.800000e+01    1.069000e+03   -4.555494e+02
  -2.802000e+03    3.302000e+03   -4.314337e+02
  -5.640000e+03   -1.532000e+03   -4.911771e+02
  -8.030000e+02   -5.610000e+02   -5.280929e+02
   1.008000e+03    4.130000e+02   -5.983358e+02
   1.960000e+02    2.246000e+03   -5.219413e+02
  -3.457000e+03    8.320000e+02   -4.470735e+02
   5.640000e+03    2.452000e+03   -7.393049e+02
  -1.334000e+03    3.332000e+03   -4.456136e+02
   1.244000e+03    1.880000e+03   -6.331107e+02
  -2.680000e+02    2.144000e+03   -4.891390e+02
  -4.063000e+03    6.620000e+02   -4.746103e+02
  -1.258000e+03    6.330000e+02   -4.856841e+02
  -2.141000e+03    3.194000e+03   -4.348461e+02
  -3.469000e+03   -3.059000e+03   -6.067613e+02
  -1.604000e+03   -2.570000e+02   -5.141257e+02
  -1.454000e+03    2.220000e+02   -5.386025e+02
   1.864000e+03    1.270000e+02   -7.404291e+02
   2.449000e+03    5.590000e+02   -7.805292e+02
  -1.834000e+03   -1.554000e+03   -6.273074e+02
   1.807000e+03    2.297000e+03   -6.825557e+02
  -2.560000e+03   -1.783000e+03   -6.131337e+02
  -2.741000e+03   -5.010000e+02   -5.080000e+02
   2.884000e+03   -2.179000e+03   -5.274708e+02
  -6.120000e+02   -8.960000e+02   -5.895389e+02
  -1.985000e+03   -2.653000e+03   -5.598834e+02
  -3.390000e+03   -4.000000e+02   -4.982361e+02
   1.586000e+03    1.342000e+03   -6.618442e+02
   1.047000e+03    2.401000e+03   -5.426792e+02
   8.380000e+02   -1.300000e+03   -4.783644e+02
   2.569000e+03    2.441000e+03   -6.035668e+02
  -2.028000e+03    2.833000e+03   -4.322286e+02
  -1.086000e+03    1.998000e+03   -4.563301e+02
   1.514000e+03   -3.332000e+03   -5.646205e+02
   7.040000e+02    1.116000e+03   -5.365099e+02
   1.990000e+03    6.360000e+02   -7.085272e+02
   3.722000e+03   -1.700000e+02   -6.745213e+02
CELLS 46 92
1 0
1 1
1 2
1 3
1 4
1 5
1 6
1 7
1 8
1 9
1 10
1 11
1 12
1 13
1 14
1 15
1 16
1 17
1 18
1 19
1 20
1 21
1 22
1 23
1 24
1 25
1 26
1 27
1 28
1 29
1 30
1 31
1 32
1 33
1 34
1 35
1 36
1 37
1 38
1 39
1 40
1 41
1 42
1 43
1 44
1 45
CELL_TYPES 46
1
1
1
1
1
1
1
1
1
1
1
1
1
1
1
1
1
1
1
1
1
1
1
1
1
1
1
1
1
1
1
1
1
1
1
1
1
1
1
1
1
1
1
1
1
1
POINT_DATA 46
VECTORS Real_Arrow_3.981000e+02(Hz) float
  -3.914752e-02  -3.292812e-02   0.000000e+00
  -1.142113e-01   1.749384e-01   0.000000e+00
  -9.480300e-02   1.071417e-01   0.000000e+00
   6.821558e-02  -8.305350e-02   0.000000e+00
   3.211835e-02  -3.618465e-02   0.000000e+00
   2.898582e-02  -1.868275e-02   0.000000e+00
   2.066470e-02   4.021109e-02   0.000000e+00
   6.299182e-03   2.240548e-02   0.000000e+00
   0.000000e+00   0.000000e+00   0.000000e+00
   4.152820e-02   1.202300e-02   0.000000e+00
  -3.668867e-02  -2.967741e-02   0.000000e+00
  -5.836258e-02   1.252838e-02   0.000000e+00
   3.375353e-02   2.269200e-01   0.000000e+00
   1.652621e-01   6.275693e-02   0.000000e+00
   2.268753e-02   3.854717e-02   0.000000e+00
   1.476448e-01  -2.210681e-02   0.000000e+00
  -1.703237e-01  -2.791033e-01   0.000000e+00
  -3.558643e-02   1.410763e-01   0.000000e+00
   2.654602e-01  -1.619637e-01   0.000000e+00
   6.946834e-02   3.854923e-02   0.000000e+00
  -8.617821e-02   4.785764e-02   0.000000e+00
  -2.494720e-02  -5.117876e-02   0.000000e+00
  -9.440814e-02   1.201125e-01   0.000000e+00
   8.546463e-02  -1.340118e-01   0.000000e+00
  -2.619045e-02  -6.557548e-02   0.000000e+00
  -2.510958e-02  -4.590042e-02   0.000000e+00
   1.300843e-01   1.301561e-01   0.000000e+00
   4.827195e-02   1.367865e-01   0.000000e+00
   4.066133e-02  -2.141883e-02   0.000000e+00
   6.234925e-02  -9.353488e-02   0.000000e+00
   3.278631e-02  -5.353452e-02   0.000000e+00
   3.845087e-02  -1.899400e-02   0.000000e+00
   7.731118e-02   6.352484e-02   0.000000e+00
  -1.716723e-02   1.529403e-03   0.000000e+00
   0.000000e+00   0.000000e+00   0.000000e+00
   1.266450e-01  -1.448347e-01   0.000000e+00
   2.709553e-02   1.441417e-01   0.000000e+00
   0.000000e+00   0.000000e+00   0.000000e+00
  -1.094348e-02   2.733650e-02   0.000000e+00
   1.186025e-01  -1.369876e-01   0.000000e+00
  -7.983232e-02  -1.943812e-01   0.000000e+00
   1.750949e-02  -2.226287e-02   0.000000e+00
  -1.163803e-01  -8.041369e-02   0.000000e+00
   1.083788e-01   1.649240e-02   0.000000e+00
   7.699951e-02   3.054616e-01   0.000000e+00
  -1.468559e-03   1.045962e-01   0.000000e+00
VECTORS Imag_Arrow_3.981000e+02(Hz) float
  -1.438066e-02  -4.475449e-02   0.000000e+00
  -5.266573e-02   4.700411e-02   0.000000e+00
  -1.143607e-02   3.229800e-02   0.000000e+00
  -2.112398e-02  -1.168653e-01   0.000000e+00
  -3.235885e-02  -6.340991e-02   0.000000e+00
  -7.033582e-03   1.386102e-02   0.000000e+00
   1.493260e-02  -2.480717e-02   0.000000e+00
  -6.481608e-02   4.959911e-02   0.000000e+00
   0.000000e+00   0.000000e+00   0.000000e+00
   3.037210e-02  -2.048579e-02   0.000000e+00
  -2.477408e-02   2.581031e-02   0.000000e+00
  -6.686949e-03  -1.020456e-02   0.000000e+00
   3.103460e-02   1.944189e-01   0.000000e+00
  -8.528612e-02   2.867369e-02   0.000000e+00
   2.544593e-02   4.119541e-03   0.000000e+00
   5.200520e-03   2.390099e-02   0.000000e+00
  -2.084845e-03  -3.382130e-02   0.000000e+00
   2.710748e-02  -3.930294e-03   0.000000e+00
   4.618500e-02  -7.791316e-03   0.000000e+00
  -8.685216e-03  -2.488952e-03   0.000000e+00
  -1.264524e-02  -1.091609e-02   0.000000e+00
   2.657723e-02   1.053143e-02   0.000000e+00
   1.396523e-02  -3.618079e-03   0.000000e+00
  -3.816618e-02  -2.981308e-02   0.000000e+00
  -4.093930e-02   2.426981e-02   0.000000e+00
   1.398075e-02  -2.744401e-02   0.000000e+00
  -6.571503e-02   1.504236e-02   0.000000e+00
  -1.321879e-03  -3.123773e-03   0.000000e+00
   9.402293e-03   6.454219e-02   0.000000e+00
  -1.438405e-03   1.967556e-04   0.000000e+00
   8.200470e-05   2.188548e-02   0.000000e+00
  -1.237339e-02  -1.462062e-02   0.000000e+00
  -5.024786e-03   1.876051e-02   0.000000e+00
   8.620651e-02   1.291482e-01   0.000000e+00
   0.000000e+00   0.000000e+00   0.000000e+00
  -4.836762e-02  -4.051131e-02   0.000000e+00
  -1.063145e-02   5.997449e-02   0.000000e+00
   0.000000e+00   0.000000e+00   0.000000e+00
  -8.480214e-02  -6.383944e-02   0.000000e+00
  -4.224455e-02   5.909109e-02   0.000000e+00
   7.126246e-03   1.198453e-02   0.000000e+00
  -1.623963e-02   1.828634e-02   0.000000e+00
  -6.001696e-02  -6.454385e-03   0.000000e+00
  -5.447843e-02  -5.599095e-02   0.000000e+00
  -6.377216e-02   6.214797e-02   0.000000e+00
   9.333158e-03  -2.474014e-02   0.000000e+00
VECTORS Real_Arrow_6.309500e+02(Hz) float
  -3.388994e-02  -1.848629e-02   0.000000e+00
  -8.998129e-02   1.494585e-01   0.000000e+00
  -8.655169e-02   9.340990e-02   0.000000e+00
   7.675755e-02  -4.799155e-02   0.000000e+00
   4.117604e-02  -1.362852e-02   0.000000e+00
   2.549042e-02  -1.811015e-02   0.000000e+00
   2.086978e-02   3.687219e-02   0.000000e+00
   2.955228e-02   3.299934e-03   0.000000e+00
   0.000000e+00   0.000000e+00   0.000000e+00
   2.898045e-02   1.658195e-02   0.000000e+00
  -3.102245e-02  -3.930686e-02   0.000000e+00
  -5.504188e-02   1.600424e-02   0.000000e+00
   2.911832e-02   1.657594e-01   0.000000e+00
   1.786017e-01   5.024508e-02   0.000000e+00
   1.468065e-02   3.707465e-02   0.000000e+00
   1.409777e-01  -2.890367e-02   0.000000e+00
  -1.720023e-01  -2.657834e-01   0.000000e+00
  -4.349845e-02   1.363479e-01   0.000000e+00
   2.405134e-01  -1.553616e-01   0.000000e+00
   7.513158e-02   4.119659e-02   0.000000e+00
  -8.226826e-02   5.110626e-02   0.000000e+00
  -3.660306e-02  -5.764853e-02   0.000000e+00
  -9.937505e-02   1.164698e-01   0.000000e+00
   9.587013e-02  -1.181523e-01   0.000000e+00
  -1.229937e-02  -5.640347e-02   0.000000e+00
  -2.992290e-02  -3.397775e-02   0.000000e+00
   1.511754e-01   1.168601e-01   0.000000e+00
   4.131570e-02   1.363483e-01   0.000000e+00
   3.088019e-02  -5.126537e-02   0.000000e+00
   6.615310e-02  -9.605145e-02   0.000000e+00
   2.996508e-02  -6.004904e-02   0.000000e+00
   2.991863e-02  -1.192042e-02   0.000000e+00
   7.762529e-02   5.828334e-02   0.000000e+00
  -3.892114e-02  -3.887179e-02   0.000000e+00
  -6.238086e-03  -2.690596e-02   0.000000e+00
   1.343462e-01  -1.285542e-01   0.000000e+00
   3.030777e-02   1.392743e-01   0.000000e+00
   0.000000e+00   0.000000e+00   0.000000e+00
   1.869528e-02   4.252327e-02   0.000000e+00
   1.311712e-01  -1.450125e-01   0.000000e+00
  -8.070118e-02  -1.936390e-01   0.000000e+00
   2.027914e-02  -2.923960e-02   0.000000e+00
  -8.804827e-02  -7.051046e-02   0.000000e+00
   1.235558e-01   3.459862e-02   0.000000e+00
   9.521623e-02   2.723442e-01   0.000000e+00
   1.033907e-03   1.075127e-01   0.000000e+00
VECTORS Imag_Arrow_6.309500e+02(Hz) float
  -1.207143e-02  -3.772207e-02   0.000000e+00
  -5.248223e-02   5.327058e-02   0.000000e+00
  -2.238796e-02   3.752872e-02   0.000000e+00
  -1.791085e-02  -1.147225e-01   0.000000e+00
  -2.390056e-02  -5.099654e-02   0.000000e+00
  -1.224203e-02   1.152704e-02   0.000000e+00
   6.582736e-03  -9.131511e-03   0.000000e+00
  -5.946354e-02   5.145703e-02   0.000000e+00
   0.000000e+00   0.000000e+00   0.000000e+00
   2.742391e-02  -1.386938e-02   0.000000e+00
  -2.226787e-02   1.581104e-02   0.000000e+00
  -4.168141e-03  -1.459655e-02   0.000000e+00
   1.743577e-02   1.753268e-01   0.000000e+00
  -6.451827e-02   2.097917e-02   0.000000e+00
   2.344853e-02   6.869991e-03   0.000000e+00
   2.029311e-02   1.886766e-02   0.000000e+00
  -1.940532e-02  -5.861330e-02   0.000000e+00
   1.505642e-02   2.423149e-02   0.000000e+00
   4.939881e-02  -1.056521e-02   0.000000e+00
  -2.032188e-02   1.129339e-03   0.000000e+00
  -1.118062e-02  -8.960214e-03   0.000000e+00
   3.086926e-02   1.488967e-02   0.000000e+00
   4.373943e-03   5.475662e-03   0.000000e+00
  -2.646042e-02  -4.339081e-02   0.000000e+00
  -4.137625e-02  -9.082717e-04   0.000000e+00
   1.325932e-02  -2.951588e-02   0.000000e+00
  -5.137085e-02   3.842045e-02   0.000000e+00
   2.618901e-03   5.470465e-03   0.000000e+00
   1.392970e-02   7.075174e-02   0.000000e+00
  -1.127241e-02   9.120961e-03   0.000000e+00
  -3.180841e-03   2.289157e-02   0.000000e+00
   8.978049e-03  -2.103305e-02   0.000000e+00
  -1.022878e-02   2.199107e-02   0.000000e+00
   6.608408e-02   1.069965e-01   0.000000e+00
   5.009655e-02  -7.668925e-02   0.000000e+00
  -4.175699e-02  -3.601666e-02   0.000000e+00
  -2.117957e-02   5.232488e-02   0.000000e+00
   0.000000e+00   0.000000e+00   0.000000e+00
  -7.379670e-02  -4.421826e-02   0.000000e+00
  -3.509333e-02   5.580889e-02   0.000000e+00
  -7.359461e-03  -8.778269e-03   0.000000e+00
  -6.009599e-03   7.881633e-03   0.000000e+00
  -6.819977e-02  -1.540943e-02   0.000000e+00
  -5.360713e-02  -5.549624e-02   0.000000e+00
  -4.979725e-02   8.176340e-02   0.000000e+00
   1.166364e-02  -2.457915e-02   0.000000e+00
VECTORS Real_Arrow_1.000000e+03(Hz) float
  -2.964765e-02  -7.899760e-03   0.000000e+00
  -7.092920e-02   1.270048e-01   0.000000e+00
  -7.428618e-02   7.879368e-02   0.000000e+00
   8.308226e-02  -1.087583e-02   0.000000e+00
   4.655652e-02  -2.450988e-05   0.000000e+00
   2.810149e-02  -1.722689e-02   0.000000e+00
   2.263168e-02   3.162823e-02   0.000000e+00
   4.994554e-02  -1.561105e-02   0.000000e+00
   0.000000e+00   0.000000e+00   0.000000e+00
   2.061960e-02   1.830538e-02   0.000000e+00
  -2.615891e-02  -4.308883e-02   0.000000e+00
  -5.303309e-02   2.054191e-02   0.000000e+00
   2.657074e-02   1.168532e-01   0.000000e+00
   1.877342e-01   4.677495e-02   0.000000e+00
   0.000000e+00   0.000000e+00   0.000000e+00
   1.292045e-01  -3.384951e-02   0.000000e+00
  -1.656683e-01  -2.435717e-01   0.000000e+00
  -4.544891e-02   1.188432e-01   0.000000e+00
   0.000000e+00   0.000000e+00   0.000000e+00
   8.502973e-02   4.243739e-02   0.000000e+00
  -7.827620e-02   5.392963e-02   0.000000e+00
  -4.883408e-02  -6.537300e-02   0.000000e+00
  -9.823702e-02   1.103549e-01   0.000000e+00
   0.000000e+00   0.000000e+00   0.000000e+00
   6.512882e-04  -4.272668e-02   0.000000e+00
  -3.367739e-02  -2.249826e-02   0.000000e+00
   1.653214e-01   9.677268e-02   0.000000e+00
   3.287938e-02   1.358079e-01   0.000000e+00
   2.130448e-02  -7.817524e-02   0.000000e+00
   7.215444e-02  -1.028460e-01   0.000000e+00
   3.082058e-02  -6.734467e-02   0.000000e+00
   1.917258e-02  -2.264621e-03   0.000000e+00
   0.000000e+00   0.000000e+00   0.000000e+00
  -5.448489e-02  -6.843973e-02   0.000000e+00
   0.000000e+00   0.000000e+00   0.000000e+00
   1.427362e-01  -1.138591e-01   0.000000e+00
   3.931792e-02   1.290116e-01   0.000000e+00
   0.000000e+00   0.000000e+00   0.000000e+00
   0.000000e+00   0.000000e+00   0.000000e+00
   1.388528e-01  -1.541370e-01   0.000000e+00
   0.000000e+00   0.000000e+00   0.000000e+00
   0.000000e+00   0.000000e+00   0.000000e+00
  -6.139381e-02  -5.997948e-02   0.000000e+00
   1.410410e-01   5.232505e-02   0.000000e+00
   1.043787e-01   2.359250e-01   0.000000e+00
  -8.473956e-04   1.139417e-01   0.000000e+00
VECTORS Imag_Arrow_1.000000e+03(Hz) float
  -9.203453e-03  -2.899913e-02   0.000000e+00
  -4.653866e-02   5.104670e-02   0.000000e+00
  -2.890769e-02   4.000867e-02   0.000000e+00
  -1.259116e-02  -1.097422e-01   0.000000e+00
  -1.476033e-02  -3.568023e-02   0.000000e+00
  -2.219091e-02   1.504916e-02   0.000000e+00
   3.076830e-03  -2.137410e-03   0.000000e+00
  -5.043716e-02   4.942480e-02   0.000000e+00
   0.000000e+00   0.000000e+00   0.000000e+00
   2.358168e-02  -8.417301e-03   0.000000e+00
  -2.065191e-02   3.643393e-03   0.000000e+00
   3.823996e-04  -1.914661e-02   0.000000e+00
   4.824013e-03   1.563526e-01   0.000000e+00
  -5.263945e-02   1.099060e-02   0.000000e+00
   0.000000e+00   0.000000e+00   0.000000e+00
   3.255501e-02   1.347698e-02   0.000000e+00
  -4.180461e-02  -8.501252e-02   0.000000e+00
   3.245318e-03   4.627460e-02   0.000000e+00
   0.000000e+00   0.000000e+00   0.000000e+00
  -2.838135e-02   7.111476e-03   0.000000e+00
  -9.339827e-03  -6.504976e-03   0.000000e+00
   3.265531e-02   1.672630e-02   0.000000e+00
  -5.669314e-03   1.120470e-02   0.000000e+00
   0.000000e+00   0.000000e+00   0.000000e+00
  -4.023068e-02  -1.049236e-02   0.000000e+00
   1.262448e-02  -2.935606e-02   0.000000e+00
  -3.344854e-02   5.542623e-02   0.000000e+00
  -1.698250e-03   1.598676e-02   0.000000e+00
   1.120531e-02   6.702518e-02   0.000000e+00
  -1.806339e-02   1.524610e-02   0.000000e+00
  -7.972604e-03   2.401951e-02   0.000000e+00
   1.958126e-02  -2.436426e-02   0.000000e+00
   0.000000e+00   0.000000e+00   0.000000e+00
   4.733659e-02   8.237447e-02   0.000000e+00
   0.000000e+00   0.000000e+00   0.000000e+00
  -3.704511e-02  -2.763448e-02   0.000000e+00
  -2.755851e-02   5.431168e-02   0.000000e+00
   0.000000e+00   0.000000e+00   0.000000e+00
   0.000000e+00   0.000000e+00   0.000000e+00
  -2.804174e-02   5.830413e-02   0.000000e+00
   0.000000e+00   0.000000e+00   0.000000e+00
   0.000000e+00   0.000000e+00   0.000000e+00
  -6.833264e-02  -1.811094e-02   0.000000e+00
  -5.033511e-02  -5.452205e-02   0.000000e+00
  -3.676148e-02   9.125829e-02   0.000000e+00
   1.534413e-02  -2.389544e-02   0.000000e+00
