# vtk DataFile Version 2.0
Induction_Arrow_Iter1_PE6
ASCII
DATASET UNSTRUCTURED_GRID
POINTS 46 float
  -2.052000e+03    1.667000e+03   -4.526633e+02
  -1.265000e+03    2.333000e+03   -4.555885e+02
  -9.840000e+02    2.568000e+03   -4.612271e+02
   1.700000e+03   -1.757000e+03   -5.237752e+02
  -1.152000e+03    1.382000e+03   -4.549280e+02
   3.187000e+03    1.067000e+03   -8.370176e+02
   4.716000e+03    9.370000e+02   -8.015281e+02
  -1.855000e+03    5.260000e+02   -5.147377e+02
  -1.420000e+02   -1.905000e+03   -4.746368e+02
  -5.800000e+01    1.069000e+03   -4.555494e+02
  -2.802000e+03    3.302000e+03   -4.314337e+02
  -5.640000e+03   -1.532000e+03   -4.911771e+02
  -8.030000e+02   -5.610000e+02   -5.280929e+02
   1.008000e+03    4.130000e+02   -5.983358e+02
   1.960000e+02    2.246000e+03   -5.219413e+02
  -3.457000e+03    8.320000e+02   -4.470735e+02
   5.640000e+03    2.452000e+03   -7.393049e+02
  -1.334000e+03    3.332000e+03   -4.456136e+02
   1.244000e+03    1.880000e+03   -6.331107e+02
  -2.680000e+02    2.144000e+03   -4.891390e+02
  -4.063000e+03    6.620000e+02   -4.746103e+02
  -1.258000e+03    6.330000e+02   -4.856841e+02
  -2.141000e+03    3.194000e+03   -4.348461e+02
  -3.469000e+03   -3.059000e+03   -6.067613e+02
  -1.604000e+03   -2.570000e+02   -5.141257e+02
  -1.454000e+03    2.220000e+02   -5.386025e+02
   1.864000e+03    1.270000e+02   -7.404291e+02
   2.449000e+03    5.590000e+02   -7.805292e+02
  -1.834000e+03   -1.554000e+03   -6.273074e+02
   1.807000e+03    2.297000e+03   -6.825557e+02
  -2.560000e+03   -1.783000e+03   -6.131337e+02
  -2.741000e+03   -5.010000e+02   -5.080000e+02
   2.884000e+03   -2.179000e+03   -5.274708e+02
  -6.120000e+02   -8.960000e+02   -5.895389e+02
  -1.985000e+03   -2.653000e+03   -5.598834e+02
  -3.390000e+03   -4.000000e+02   -4.982361e+02
   1.586000e+03    1.342000e+03   -6.618442e+02
   1.047000e+03    2.401000e+03   -5.426792e+02
   8.380000e+02   -1.300000e+03   -4.783644e+02
   2.569000e+03    2.441000e+03   -6.035668e+02
  -2.028000e+03    2.833000e+03   -4.322286e+02
  -1.086000e+03    1.998000e+03   -4.563301e+02
   1.514000e+03   -3.332000e+03   -5.646205e+02
   7.040000e+02    1.116000e+03   -5.365099e+02
   1.990000e+03    6.360000e+02   -7.085272e+02
   3.722000e+03   -1.700000e+02   -6.745213e+02
CELLS 46 92
1 0
1 1
1 2
1 3
1 4
1 5
1 6
1 7
1 8
1 9
1 10
1 11
1 12
1 13
1 14
1 15
1 16
1 17
1 18
1 19
1 20
1 21
1 22
1 23
1 24
1 25
1 26
1 27
1 28
1 29
1 30
1 31
1 32
1 33
1 34
1 35
1 36
1 37
1 38
1 39
1 40
1 41
1 42
1 43
1 44
1 45
CELL_TYPES 46
1
1
1
1
1
1
1
1
1
1
1
1
1
1
1
1
1
1
1
1
1
1
1
1
1
1
1
1
1
1
1
1
1
1
1
1
1
1
1
1
1
1
1
1
1
1
POINT_DATA 46
VECTORS Real_Arrow_1.000000e+02(Hz) float
  -5.983274e-02  -8.855786e-02   0.000000e+00
  -1.576920e-01   2.022883e-01   0.000000e+00
  -8.601042e-02   1.329902e-01   0.000000e+00
   4.841888e-02  -1.824634e-01   0.000000e+00
  -1.395820e-02  -1.131829e-01   0.000000e+00
   2.873696e-02   6.613254e-03   0.000000e+00
   5.582806e-02  -2.368067e-02   0.000000e+00
  -6.878962e-02   6.170710e-02   0.000000e+00
   0.000000e+00   0.000000e+00   0.000000e+00
   9.140049e-02  -1.574537e-02   0.000000e+00
  -5.418722e-02   5.954036e-03   0.000000e+00
  -5.772743e-02   8.479985e-03   0.000000e+00
   0.000000e+00   0.000000e+00   0.000000e+00
   4.689290e-02   1.101591e-01   0.000000e+00
   5.625468e-02   4.112780e-02   0.000000e+00
   1.444406e-01   1.159821e-02   0.000000e+00
  -1.492841e-01  -2.761560e-01   0.000000e+00
   1.384021e-02   8.344724e-02   0.000000e+00
   0.000000e+00   0.000000e+00   0.000000e+00
   9.340071e-02   3.668513e-02   0.000000e+00
  -1.010546e-01   4.145637e-02   0.000000e+00
   6.517290e-03  -5.420066e-02   0.000000e+00
  -6.144542e-02   9.618756e-02   0.000000e+00
   3.693622e-02  -1.361257e-01   0.000000e+00
   0.000000e+00   0.000000e+00   0.000000e+00
  -4.642922e-03  -7.075782e-02   0.000000e+00
   5.792122e-02   1.106336e-01   0.000000e+00
   4.328382e-02   1.244919e-01   0.000000e+00
   3.389227e-02   6.321589e-03   0.000000e+00
   9.773358e-02  -1.293790e-01   0.000000e+00
   4.049949e-02  -3.255129e-02   0.000000e+00
  -2.355550e-02  -2.422244e-02   0.000000e+00
   7.650433e-02   7.690881e-02   0.000000e+00
   1.079891e-01   1.729997e-01   0.000000e+00
   6.497427e-02  -1.576130e-01   0.000000e+00
   8.326605e-02  -1.941217e-01   0.000000e+00
   5.371906e-02   2.687236e-01   0.000000e+00
   0.000000e+00   0.000000e+00   0.000000e+00
  -1.039878e-01  -4.653743e-02   0.000000e+00
   7.097413e-02  -8.388561e-02   0.000000e+00
   0.000000e+00   0.000000e+00   0.000000e+00
  -2.010977e-02   1.052467e-02   0.000000e+00
  -1.534315e-01  -6.360517e-02   0.000000e+00
   6.710602e-02  -3.427550e-02   0.000000e+00
   7.330594e-03   3.317371e-01   0.000000e+00
   1.562645e-02   7.886588e-02   0.000000e+00
VECTORS Imag_Arrow_1.000000e+02(Hz) float
   1.187068e-03  -4.917327e-02   0.000000e+00
   9.008857e-03  -3.439554e-02   0.000000e+00
   2.373154e-02  -1.049466e-02   0.000000e+00
  -1.626863e-02  -1.382941e-01   0.000000e+00
  -4.788298e-02  -5.157814e-02   0.000000e+00
  -3.051193e-02   2.099767e-02   0.000000e+00
   3.142585e-02  -8.357340e-02   0.000000e+00
  -3.057756e-02   2.547621e-02   0.000000e+00
   0.000000e+00   0.000000e+00   0.000000e+00
  -1.333703e-02  -3.669964e-02   0.000000e+00
  -4.260816e-02   2.457245e-02   0.000000e+00
  -1.523203e-02   9.302673e-03   0.000000e+00
   0.000000e+00   0.000000e+00   0.000000e+00
  -1.755922e-01   1.393793e-03   0.000000e+00
   1.475640e-02  -8.929629e-03   0.000000e+00
  -5.785506e-02   3.436903e-02   0.000000e+00
   2.566668e-02   4.589164e-02   0.000000e+00
   3.283771e-02  -4.704287e-02   0.000000e+00
   0.000000e+00   0.000000e+00   0.000000e+00
   9.363330e-03  -8.886060e-03   0.000000e+00
  -1.963617e-02  -1.943706e-02   0.000000e+00
  -2.198187e-02  -1.506308e-02   0.000000e+00
   8.539491e-03  -4.514142e-02   0.000000e+00
  -6.813767e-02   5.345084e-03   0.000000e+00
   0.000000e+00   0.000000e+00   0.000000e+00
   6.042312e-03   2.295084e-02   0.000000e+00
  -8.761137e-02  -6.326631e-02   0.000000e+00
  -3.449473e-02  -4.216131e-02   0.000000e+00
  -2.676631e-02   1.295295e-02   0.000000e+00
   1.859905e-02  -9.787947e-03   0.000000e+00
  -2.793083e-02   1.980692e-02   0.000000e+00
  -8.925191e-02   2.717541e-03   0.000000e+00
   9.440928e-03   1.337645e-02   0.000000e+00
   1.258786e-01   1.308352e-01   0.000000e+00
   2.191872e-02  -5.953622e-02   0.000000e+00
  -1.456467e-01  -3.063032e-02   0.000000e+00
  -3.309355e-02   9.271626e-02   0.000000e+00
   0.000000e+00   0.000000e+00   0.000000e+00
  -8.338915e-02  -1.424840e-01   0.000000e+00
  -4.323426e-02   1.510134e-01   0.000000e+00
   0.000000e+00   0.000000e+00   0.000000e+00
  -2.758786e-02   7.948978e-03   0.000000e+00
   1.651529e-02   4.744427e-02   0.000000e+00
  -9.280805e-02  -3.201714e-02   0.000000e+00
  -8.080323e-02  -5.386295e-02   0.000000e+00
   5.529153e-02  -7.539326e-02   0.000000e+00
VECTORS Real_Arrow_1.584800e+02(Hz) float
  -5.787029e-02  -6.782040e-02   0.000000e+00
  -1.557184e-01   2.087430e-01   0.000000e+00
  -9.406616e-02   1.298503e-01   0.000000e+00
   5.342161e-02  -1.474328e-01   0.000000e+00
   3.867877e-03  -8.968806e-02   0.000000e+00
   3.447923e-02  -5.446735e-03   0.000000e+00
   4.143923e-02   9.537462e-03   0.000000e+00
  -5.116018e-02   5.653339e-02   0.000000e+00
   0.000000e+00   0.000000e+00   0.000000e+00
   7.594316e-02  -2.245184e-03   0.000000e+00
  -4.699525e-02  -2.121079e-03   0.000000e+00
  -6.003468e-02   6.785129e-03   0.000000e+00
   0.000000e+00   0.000000e+00   0.000000e+00
   9.862438e-02   9.592577e-02   0.000000e+00
   4.494454e-02   4.235296e-02   0.000000e+00
   1.505481e-01  -5.051022e-03   0.000000e+00
  -1.568387e-01  -2.859691e-01   0.000000e+00
  -2.903159e-03   1.065774e-01   0.000000e+00
   0.000000e+00   0.000000e+00   0.000000e+00
   8.069847e-02   3.686783e-02   0.000000e+00
  -9.451874e-02   4.457633e-02   0.000000e+00
  -2.595451e-04  -4.607431e-02   0.000000e+00
  -6.957947e-02   1.131438e-01   0.000000e+00
   5.705507e-02  -1.400590e-01   0.000000e+00
   0.000000e+00   0.000000e+00   0.000000e+00
  -1.392731e-02  -6.854844e-02   0.000000e+00
   8.208120e-02   1.277532e-01   0.000000e+00
   4.913756e-02   1.326388e-01   0.000000e+00
   4.200237e-02   7.720595e-03   0.000000e+00
   7.792905e-02  -1.120120e-01   0.000000e+00
   4.370872e-02  -3.758816e-02   0.000000e+00
   8.471171e-03  -2.157720e-02   0.000000e+00
   7.608997e-02   7.165546e-02   0.000000e+00
   5.911290e-02   1.103339e-01   0.000000e+00
   5.170546e-02  -1.265195e-01   0.000000e+00
   1.139704e-01  -1.789996e-01   0.000000e+00
   4.562878e-02   2.076210e-01   0.000000e+00
   0.000000e+00   0.000000e+00   0.000000e+00
  -7.394225e-02  -1.548552e-02   0.000000e+00
   8.278611e-02  -1.206759e-01   0.000000e+00
   0.000000e+00   0.000000e+00   0.000000e+00
  -4.338202e-03   3.437522e-03   0.000000e+00
  -1.541674e-01  -7.939448e-02   0.000000e+00
   8.524028e-02  -2.445415e-02   0.000000e+00
   2.968174e-02   3.397482e-01   0.000000e+00
  -4.110558e-03   9.849992e-02   0.000000e+00
VECTORS Imag_Arrow_1.584800e+02(Hz) float
  -8.892426e-03  -5.004078e-02   0.000000e+00
  -1.995079e-02   7.260399e-05   0.000000e+00
   1.296317e-02   9.914144e-03   0.000000e+00
  -2.013709e-02  -1.249572e-01   0.000000e+00
  -4.625495e-02  -6.197679e-02   0.000000e+00
  -1.789927e-02   2.239805e-02   0.000000e+00
   3.111377e-02  -7.007759e-02   0.000000e+00
  -5.507306e-02   3.682898e-02   0.000000e+00
   0.000000e+00   0.000000e+00   0.000000e+00
   1.489739e-02  -3.227009e-02   0.000000e+00
  -3.121956e-02   3.001421e-02   0.000000e+00
  -9.092746e-03   1.537029e-04   0.000000e+00
   0.000000e+00   0.000000e+00   0.000000e+00
  -1.454923e-01   2.038386e-02   0.000000e+00
   2.080784e-02  -1.966036e-03   0.000000e+00
  -3.033928e-02   3.293367e-02   0.000000e+00
   1.896019e-02   1.758801e-02   0.000000e+00
   3.842602e-02  -4.476626e-02   0.000000e+00
   0.000000e+00   0.000000e+00   0.000000e+00
   9.159656e-03  -4.261597e-03   0.000000e+00
  -1.822814e-02  -1.428182e-02   0.000000e+00
   5.037979e-03  -5.819356e-03   0.000000e+00
   1.799198e-02  -3.154025e-02   0.000000e+00
  -5.942472e-02  -4.405559e-03   0.000000e+00
   0.000000e+00   0.000000e+00   0.000000e+00
   1.240405e-02  -4.484059e-03   0.000000e+00
  -7.931373e-02  -3.691707e-02   0.000000e+00
  -2.035071e-02  -2.643260e-02   0.000000e+00
  -1.588003e-02   2.368386e-02   0.000000e+00
   1.984658e-02  -1.859852e-02   0.000000e+00
  -1.202007e-02   2.117424e-02   0.000000e+00
  -7.278953e-02  -8.166265e-03   0.000000e+00
   3.366158e-03   1.535020e-02   0.000000e+00
   1.182298e-01   1.473753e-01   0.000000e+00
   3.718529e-02  -7.710166e-02   0.000000e+00
  -9.699787e-02  -3.881886e-02   0.000000e+00
  -9.464946e-03   1.049943e-01   0.000000e+00
   0.000000e+00   0.000000e+00   0.000000e+00
  -8.975233e-02  -1.082010e-01   0.000000e+00
  -4.619101e-02   1.050044e-01   0.000000e+00
   0.000000e+00   0.000000e+00   0.000000e+00
  -3.232025e-02   1.906983e-02   0.000000e+00
  -1.355541e-02   2.981403e-02   0.000000e+00
  -7.193445e-02  -4.354446e-02   0.000000e+00
  -7.550690e-02  -8.806136e-03   0.000000e+00
   3.578179e-02  -5.361386e-02   0.000000e+00
VECTORS Real_Arrow_2.511800e+02(Hz) float
  -5.043391e-02  -5.022708e-02   0.000000e+00
  -1.384273e-01   1.969104e-01   0.000000e+00
  -9.777395e-02   1.195898e-01   0.000000e+00
   6.163577e-02  -1.164202e-01   0.000000e+00
   1.919447e-02  -6.275281e-02   0.000000e+00
   3.303333e-02  -1.487037e-02   0.000000e+00
   2.852717e-02   3.165497e-02   0.000000e+00
  -2.244731e-02   4.070113e-02   0.000000e+00
   0.000000e+00   0.000000e+00   0.000000e+00
   5.678828e-02   7.585258e-03   0.000000e+00
  -4.278523e-02  -1.606445e-02   0.000000e+00
  -6.064972e-02   9.449999e-03   0.000000e+00
   5.189340e-02   2.948500e-01   0.000000e+00
   1.361788e-01   7.855494e-02   0.000000e+00
   3.479816e-02   4.047102e-02   0.000000e+00
   1.511846e-01  -1.648700e-02   0.000000e+00
  -1.640219e-01  -2.860751e-01   0.000000e+00
  -2.115751e-02   1.289879e-01   0.000000e+00
   0.000000e+00   0.000000e+00   0.000000e+00
   7.289525e-02   3.683498e-02   0.000000e+00
  -8.887369e-02   4.667906e-02   0.000000e+00
  -1.333321e-02  -4.672922e-02   0.000000e+00
  -8.224068e-02   1.204611e-01   0.000000e+00
   7.431290e-02  -1.386684e-01   0.000000e+00
   0.000000e+00   0.000000e+00   0.000000e+00
  -2.198405e-02  -5.527740e-02   0.000000e+00
   1.057211e-01   1.350772e-01   0.000000e+00
   5.004846e-02   1.357375e-01   0.000000e+00
   4.372731e-02   1.404128e-03   0.000000e+00
   6.654342e-02  -9.790663e-02   0.000000e+00
   3.940072e-02  -4.387127e-02   0.000000e+00
   3.276266e-02  -1.437252e-02   0.000000e+00
   7.640633e-02   6.697709e-02   0.000000e+00
   2.015801e-02   4.988295e-02   0.000000e+00
   0.000000e+00   0.000000e+00   0.000000e+00
   1.220676e-01  -1.621129e-01   0.000000e+00
   3.197944e-02   1.610501e-01   0.000000e+00
   0.000000e+00   0.000000e+00   0.000000e+00
  -4.062413e-02   7.295797e-03   0.000000e+00
   9.848762e-02  -1.308653e-01   0.000000e+00
  -7.098587e-02  -1.831349e-01   0.000000e+00
   1.118897e-02  -1.057425e-02   0.000000e+00
  -1.407776e-01  -8.450834e-02   0.000000e+00
   9.667017e-02  -6.605481e-03   0.000000e+00
   5.311224e-02   3.289526e-01   0.000000e+00
  -6.364868e-03   1.050774e-01   0.000000e+00
VECTORS Imag_Arrow_2.511800e+02(Hz) float
  -1.419217e-02  -4.786789e-02   0.000000e+00
  -4.216989e-02   2.957958e-02   0.000000e+00
   7.915748e-04   2.372452e-02   0.000000e+00
  -2.199594e-02  -1.180411e-01   0.000000e+00
  -3.957583e-02  -6.590035e-02   0.000000e+00
  -9.212078e-03   1.889539e-02   0.000000e+00
   2.492830e-02  -4.730225e-02   0.000000e+00
  -6.493330e-02   4.761190e-02   0.000000e+00
   0.000000e+00   0.000000e+00   0.000000e+00
   2.673389e-02  -2.515376e-02   0.000000e+00
  -2.517099e-02   3.168049e-02   0.000000e+00
  -7.508293e-03  -6.164224e-03   0.000000e+00
   5.183994e-02   2.045572e-01   0.000000e+00
  -1.154716e-01   2.906720e-02   0.000000e+00
   2.421320e-02   1.853810e-03   0.000000e+00
  -9.824612e-03   2.719212e-02   0.000000e+00
   1.075956e-02  -8.904154e-03   0.000000e+00
   3.618121e-02  -3.034924e-02   0.000000e+00
   0.000000e+00   0.000000e+00   0.000000e+00
   2.027113e-03  -2.931654e-03   0.000000e+00
  -1.659743e-02  -1.161853e-02   0.000000e+00
   1.853898e-02   4.204151e-03   0.000000e+00
   2.012055e-02  -1.640294e-02   0.000000e+00
  -4.901719e-02  -1.747113e-02   0.000000e+00
   0.000000e+00   0.000000e+00   0.000000e+00
   1.421810e-02  -1.867927e-02   0.000000e+00
  -7.246457e-02  -7.390961e-03   0.000000e+00
  -9.866026e-03  -1.243860e-02   0.000000e+00
  -4.154571e-03   4.233577e-02   0.000000e+00
   1.014684e-02  -1.296105e-02   0.000000e+00
  -1.426556e-03   2.380928e-02   0.000000e+00
  -4.634237e-02  -1.250741e-02   0.000000e+00
  -1.357484e-03   1.728914e-02   0.000000e+00
   1.035631e-01   1.444772e-01   0.000000e+00
   0.000000e+00   0.000000e+00   0.000000e+00
  -6.449608e-02  -4.162961e-02   0.000000e+00
  -3.513365e-03   8.341522e-02   0.000000e+00
   0.000000e+00   0.000000e+00   0.000000e+00
  -9.058247e-02  -8.361289e-02   0.000000e+00
  -4.700909e-02   7.246700e-02   0.000000e+00
   1.938454e-02   3.561420e-02   0.000000e+00
  -2.631062e-02   2.263468e-02   0.000000e+00
  -4.088874e-02   1.030274e-02   0.000000e+00
  -6.000371e-02  -5.343841e-02   0.000000e+00
  -7.118605e-02   3.316075e-02   0.000000e+00
   1.656019e-02  -3.340292e-02   0.000000e+00
