# vtk DataFile Version 2.0
Induction_Arrow_Iter6_PE2
ASCII
DATASET UNSTRUCTURED_GRID
POINTS 46 float
  -2.052000e+03    1.667000e+03   -4.526633e+02
  -1.265000e+03    2.333000e+03   -4.555885e+02
  -9.840000e+02    2.568000e+03   -4.612271e+02
   1.700000e+03   -1.757000e+03   -5.237752e+02
  -1.152000e+03    1.382000e+03   -4.549280e+02
   3.187000e+03    1.067000e+03   -8.370176e+02
   4.716000e+03    9.370000e+02   -8.015281e+02
  -1.855000e+03    5.260000e+02   -5.147377e+02
  -1.420000e+02   -1.905000e+03   -4.746368e+02
  -5.800000e+01    1.069000e+03   -4.555494e+02
  -2.802000e+03    3.302000e+03   -4.314337e+02
  -5.640000e+03   -1.532000e+03   -4.911771e+02
  -8.030000e+02   -5.610000e+02   -5.280929e+02
   1.008000e+03    4.130000e+02   -5.983358e+02
   1.960000e+02    2.246000e+03   -5.219413e+02
  -3.457000e+03    8.320000e+02   -4.470735e+02
   5.640000e+03    2.452000e+03   -7.393049e+02
  -1.334000e+03    3.332000e+03   -4.456136e+02
   1.244000e+03    1.880000e+03   -6.331107e+02
  -2.680000e+02    2.144000e+03   -4.891390e+02
  -4.063000e+03    6.620000e+02   -4.746103e+02
  -1.258000e+03    6.330000e+02   -4.856841e+02
  -2.141000e+03    3.194000e+03   -4.348461e+02
  -3.469000e+03   -3.059000e+03   -6.067613e+02
  -1.604000e+03   -2.570000e+02   -5.141257e+02
  -1.454000e+03    2.220000e+02   -5.386025e+02
   1.864000e+03    1.270000e+02   -7.404291e+02
   2.449000e+03    5.590000e+02   -7.805292e+02
  -1.834000e+03   -1.554000e+03   -6.273074e+02
   1.807000e+03    2.297000e+03   -6.825557e+02
  -2.560000e+03   -1.783000e+03   -6.131337e+02
  -2.741000e+03   -5.010000e+02   -5.080000e+02
   2.884000e+03   -2.179000e+03   -5.274708e+02
  -6.120000e+02   -8.960000e+02   -5.895389e+02
  -1.985000e+03   -2.653000e+03   -5.598834e+02
  -3.390000e+03   -4.000000e+02   -4.982361e+02
   1.586000e+03    1.342000e+03   -6.618442e+02
   1.047000e+03    2.401000e+03   -5.426792e+02
   8.380000e+02   -1.300000e+03   -4.783644e+02
   2.569000e+03    2.441000e+03   -6.035668e+02
  -2.028000e+03    2.833000e+03   -4.322286e+02
  -1.086000e+03    1.998000e+03   -4.563301e+02
   1.514000e+03   -3.332000e+03   -5.646205e+02
   7.040000e+02    1.116000e+03   -5.365099e+02
   1.990000e+03    6.360000e+02   -7.085272e+02
   3.722000e+03   -1.700000e+02   -6.745213e+02
CELLS 46 92
1 0
1 1
1 2
1 3
1 4
1 5
1 6
1 7
1 8
1 9
1 10
1 11
1 12
1 13
1 14
1 15
1 16
1 17
1 18
1 19
1 20
1 21
1 22
1 23
1 24
1 25
1 26
1 27
1 28
1 29
1 30
1 31
1 32
1 33
1 34
1 35
1 36
1 37
1 38
1 39
1 40
1 41
1 42
1 43
1 44
1 45
CELL_TYPES 46
1
1
1
1
1
1
1
1
1
1
1
1
1
1
1
1
1
1
1
1
1
1
1
1
1
1
1
1
1
1
1
1
1
1
1
1
1
1
1
1
1
1
1
1
1
1
POINT_DATA 46
VECTORS Real_Arrow_6.309500e+00(Hz) float
  -1.099024e-01  -6.938524e-02   0.000000e+00
  -1.406083e-01   9.639241e-02   0.000000e+00
   0.000000e+00   0.000000e+00   0.000000e+00
  -1.299169e-02  -4.857126e-01   0.000000e+00
  -1.479065e-01  -7.586317e-02   0.000000e+00
  -5.485666e-02  -3.405846e-02   0.000000e+00
   8.677688e-02  -1.375567e-01   0.000000e+00
  -1.413113e-01   7.776042e-02   0.000000e+00
   1.998006e-01  -1.726413e-01   0.000000e+00
  -1.680329e-01  -5.865699e-02   0.000000e+00
  -1.822533e-01   1.051101e-01   0.000000e+00
  -2.236226e-01   1.428789e-02   0.000000e+00
   0.000000e+00   0.000000e+00   0.000000e+00
  -3.101453e-01  -6.399875e-02   0.000000e+00
  -7.013083e-02   5.071967e-02   0.000000e+00
   0.000000e+00   0.000000e+00   0.000000e+00
  -4.834021e-02  -5.879818e-02   0.000000e+00
   0.000000e+00   0.000000e+00   0.000000e+00
   2.981218e-03  -1.195004e-02   0.000000e+00
  -3.784569e-02   4.504144e-02   0.000000e+00
   0.000000e+00   0.000000e+00   0.000000e+00
  -1.965217e-01  -4.806070e-02   0.000000e+00
  -9.721035e-02   9.043617e-02   0.000000e+00
  -1.480594e-01  -1.287636e-01   0.000000e+00
   0.000000e+00   0.000000e+00   0.000000e+00
  -1.361720e-01   3.354441e-02   0.000000e+00
  -1.221394e-01  -1.475399e-01   0.000000e+00
  -7.233405e-02  -7.488985e-02   0.000000e+00
  -8.071665e-02  -1.926690e-02   0.000000e+00
  -2.356609e-02  -3.011053e-02   0.000000e+00
   0.000000e+00   0.000000e+00   0.000000e+00
  -2.352536e-01  -1.289318e-02   0.000000e+00
   1.802289e-01   7.763522e-02   0.000000e+00
   1.176307e-01   7.359656e-02   0.000000e+00
  -1.525843e-02  -1.032732e-01   0.000000e+00
  -2.938706e-01  -1.674761e-01   0.000000e+00
   0.000000e+00   0.000000e+00   0.000000e+00
  -1.014352e-01   5.261758e-02   0.000000e+00
  -1.981266e-01  -4.104904e-01   0.000000e+00
  -1.115776e-01   3.557873e-01   0.000000e+00
  -7.893489e-02   8.609537e-03   0.000000e+00
  -1.156502e-01   2.999954e-02   0.000000e+00
  -3.892882e-03   4.513302e-02   0.000000e+00
  -2.175153e-01  -4.741513e-02   0.000000e+00
  -1.447377e-01  -4.740312e-03   0.000000e+00
   7.707621e-02  -1.649735e-01   0.000000e+00
VECTORS Imag_Arrow_6.309500e+00(Hz) float
  -7.404235e-02   2.805005e-02   0.000000e+00
  -6.905916e-02  -3.504303e-02   0.000000e+00
   0.000000e+00   0.000000e+00   0.000000e+00
  -4.565385e-02  -4.251121e-02   0.000000e+00
  -7.987677e-02   2.458437e-02   0.000000e+00
   1.250968e-02  -6.394195e-02   0.000000e+00
   1.258181e-02  -2.676464e-02   0.000000e+00
  -9.709812e-02  -6.247198e-02   0.000000e+00
  -1.149938e-01  -1.537055e-02   0.000000e+00
  -9.119361e-02  -2.078759e-02   0.000000e+00
  -5.162718e-02   2.463577e-02   0.000000e+00
  -1.393723e-01  -9.452822e-02   0.000000e+00
   0.000000e+00   0.000000e+00   0.000000e+00
  -1.660826e-02  -1.020172e-01   0.000000e+00
  -9.893488e-02  -6.011305e-03   0.000000e+00
   0.000000e+00   0.000000e+00   0.000000e+00
   8.294315e-02   5.647121e-02   0.000000e+00
   0.000000e+00   0.000000e+00   0.000000e+00
  -1.436854e-01   2.093265e-02   0.000000e+00
  -1.141254e-01  -6.573184e-03   0.000000e+00
   0.000000e+00   0.000000e+00   0.000000e+00
  -8.029136e-02  -1.475305e-02   0.000000e+00
  -5.528897e-02   1.082974e-02   0.000000e+00
  -7.335710e-02  -4.102804e-03   0.000000e+00
   0.000000e+00   0.000000e+00   0.000000e+00
  -9.115444e-02  -4.839432e-02   0.000000e+00
  -1.940583e-02  -9.874147e-02   0.000000e+00
  -1.000592e-02  -1.040501e-01   0.000000e+00
  -6.660989e-02  -6.026585e-02   0.000000e+00
  -8.692930e-02   1.242317e-02   0.000000e+00
   0.000000e+00   0.000000e+00   0.000000e+00
  -6.350184e-02  -5.097562e-02   0.000000e+00
  -1.699442e-02  -7.224909e-02   0.000000e+00
  -1.331731e-01  -1.651231e-01   0.000000e+00
  -7.348303e-02   1.292033e-02   0.000000e+00
  -5.713451e-02   2.471218e-02   0.000000e+00
   0.000000e+00   0.000000e+00   0.000000e+00
  -8.566043e-02  -2.014236e-02   0.000000e+00
  -2.525589e-03  -3.816380e-02   0.000000e+00
  -9.438218e-02   4.568939e-02   0.000000e+00
  -5.958272e-02   5.605741e-02   0.000000e+00
  -8.721908e-02  -4.088060e-03   0.000000e+00
   2.943960e-02  -2.737843e-02   0.000000e+00
  -7.233080e-02  -2.472413e-02   0.000000e+00
  -4.569007e-03  -1.552906e-01   0.000000e+00
  -1.016613e-02  -9.558092e-02   0.000000e+00
VECTORS Real_Arrow_1.000000e+01(Hz) float
  -7.047378e-02  -9.043635e-02   0.000000e+00
  -1.000065e-01   9.455381e-02   0.000000e+00
   0.000000e+00   0.000000e+00   0.000000e+00
   9.140346e-03  -4.641107e-01   0.000000e+00
  -1.067181e-01  -9.494810e-02   0.000000e+00
  -5.952910e-02  -9.793993e-03   0.000000e+00
   8.316562e-02  -1.315023e-01   0.000000e+00
  -8.725622e-02   1.008819e-01   0.000000e+00
   2.522456e-01  -1.658323e-01   0.000000e+00
  -1.250387e-01  -5.777120e-02   0.000000e+00
  -1.649694e-01   8.050264e-02   0.000000e+00
  -1.491051e-01   5.818372e-02   0.000000e+00
   0.000000e+00   0.000000e+00   0.000000e+00
  -3.020888e-01  -2.326395e-02   0.000000e+00
   0.000000e+00   0.000000e+00   0.000000e+00
  -8.686842e-02   2.491982e-02   0.000000e+00
  -8.094399e-02  -8.362139e-02   0.000000e+00
   3.508621e-02   6.171961e-02   0.000000e+00
   6.929830e-02  -2.386137e-02   0.000000e+00
   1.569251e-02   3.504440e-02   0.000000e+00
   0.000000e+00   0.000000e+00   0.000000e+00
  -1.547879e-01  -4.704986e-02   0.000000e+00
  -7.354351e-02   6.824637e-02   0.000000e+00
  -1.046360e-01  -1.243315e-01   0.000000e+00
   0.000000e+00   0.000000e+00   0.000000e+00
  -8.716083e-02   5.299866e-02   0.000000e+00
  -1.130542e-01  -1.079831e-01   0.000000e+00
  -6.665904e-02  -3.406977e-02   0.000000e+00
  -4.493568e-02   9.299852e-03   0.000000e+00
   0.000000e+00   0.000000e+00   0.000000e+00
   0.000000e+00   0.000000e+00   0.000000e+00
  -1.984379e-01   1.288122e-02   0.000000e+00
   1.660470e-01   9.403207e-02   0.000000e+00
   1.854273e-01   1.482183e-01   0.000000e+00
   2.242024e-02  -1.088349e-01   0.000000e+00
  -2.677231e-01  -1.735609e-01   0.000000e+00
   0.000000e+00   0.000000e+00   0.000000e+00
  -5.303643e-02   5.465677e-02   0.000000e+00
  -1.907970e-01  -3.976260e-01   0.000000e+00
  -5.763269e-02   3.091940e-01   0.000000e+00
  -5.299022e-02  -2.676569e-02   0.000000e+00
  -7.031526e-02   1.984299e-02   0.000000e+00
  -2.093103e-02   5.556427e-02   0.000000e+00
  -1.810223e-01  -4.355204e-02   0.000000e+00
  -1.411851e-01   5.457080e-02   0.000000e+00
   8.902193e-02  -1.253198e-01   0.000000e+00
VECTORS Imag_Arrow_1.000000e+01(Hz) float
  -7.327103e-02   3.770901e-02   0.000000e+00
  -6.168263e-02  -2.357627e-02   0.000000e+00
   0.000000e+00   0.000000e+00   0.000000e+00
  -4.822702e-02  -9.225145e-02   0.000000e+00
  -9.131276e-02   3.663375e-02   0.000000e+00
  -4.637314e-03  -5.649793e-02   0.000000e+00
   1.037888e-02  -3.193310e-02   0.000000e+00
  -1.013033e-01  -3.167797e-02   0.000000e+00
  -8.021956e-02  -8.822668e-03   0.000000e+00
  -1.211200e-01  -1.429191e-02   0.000000e+00
  -5.149532e-02   4.846962e-02   0.000000e+00
  -1.366365e-01  -5.871243e-02   0.000000e+00
   0.000000e+00   0.000000e+00   0.000000e+00
  -7.572899e-02  -1.137518e-01   0.000000e+00
   0.000000e+00   0.000000e+00   0.000000e+00
  -1.190266e-01  -4.028321e-02   0.000000e+00
   8.081766e-02   8.277462e-02   0.000000e+00
  -5.126951e-02   2.349016e-02   0.000000e+00
  -1.714886e-01   5.165997e-02   0.000000e+00
  -1.203927e-01   1.008637e-02   0.000000e+00
   0.000000e+00   0.000000e+00   0.000000e+00
  -1.004119e-01   8.110224e-04   0.000000e+00
  -3.965921e-02   2.833316e-02   0.000000e+00
  -9.896025e-02  -5.942040e-03   0.000000e+00
   0.000000e+00   0.000000e+00   0.000000e+00
  -1.028635e-01  -1.773142e-02   0.000000e+00
  -4.762858e-02  -1.212884e-01   0.000000e+00
  -2.917754e-02  -1.149572e-01   0.000000e+00
  -7.030805e-02  -4.809363e-02   0.000000e+00
   0.000000e+00   0.000000e+00   0.000000e+00
   0.000000e+00   0.000000e+00   0.000000e+00
  -9.123169e-02  -3.803993e-02   0.000000e+00
   3.518401e-02  -4.050314e-02   0.000000e+00
  -1.124478e-01  -1.526736e-01   0.000000e+00
  -7.080772e-02   2.812206e-02   0.000000e+00
  -1.102863e-01   2.470183e-02   0.000000e+00
   0.000000e+00   0.000000e+00   0.000000e+00
  -1.062314e-01  -8.363862e-03   0.000000e+00
  -2.192445e-02  -9.475001e-02   0.000000e+00
  -1.179884e-01   1.362088e-01   0.000000e+00
  -4.766678e-02   7.917393e-02   0.000000e+00
  -8.959947e-02   1.322889e-02   0.000000e+00
   5.603834e-02   1.213982e-03   0.000000e+00
  -1.148983e-01  -1.562857e-02   0.000000e+00
  -3.227874e-02  -1.749278e-01   0.000000e+00
  -7.488618e-03  -1.178215e-01   0.000000e+00
VECTORS Real_Arrow_1.584800e+01(Hz) float
  -3.750915e-02  -1.156472e-01   0.000000e+00
  -7.079368e-02   8.910325e-02   0.000000e+00
   0.000000e+00   0.000000e+00   0.000000e+00
   2.985298e-02  -4.187801e-01   0.000000e+00
  -6.608386e-02  -1.193651e-01   0.000000e+00
  -5.439721e-02   1.047481e-02   0.000000e+00
   8.323147e-02  -1.241642e-01   0.000000e+00
  -3.995009e-02   1.034986e-01   0.000000e+00
   2.803136e-01  -1.673499e-01   0.000000e+00
  -7.032738e-02  -5.888868e-02   0.000000e+00
  -1.534817e-01   5.151669e-02   0.000000e+00
   0.000000e+00   0.000000e+00   0.000000e+00
   0.000000e+00   0.000000e+00   0.000000e+00
  -2.655816e-01   2.351643e-02   0.000000e+00
   0.000000e+00   0.000000e+00   0.000000e+00
  -3.832920e-02   3.824131e-02   0.000000e+00
  -1.095028e-01  -1.206578e-01   0.000000e+00
   4.859617e-02   3.909808e-02   0.000000e+00
   1.460512e-01  -5.333404e-02   0.000000e+00
   6.798993e-02   1.929234e-02   0.000000e+00
  -1.122453e-01   9.303100e-03   0.000000e+00
  -1.095101e-01  -5.577738e-02   0.000000e+00
  -6.540435e-02   4.177144e-02   0.000000e+00
  -5.628717e-02  -1.210442e-01   0.000000e+00
   0.000000e+00   0.000000e+00   0.000000e+00
  -3.882296e-02   5.328461e-02   0.000000e+00
  -9.139633e-02  -5.799227e-02   0.000000e+00
  -5.164632e-02   1.114404e-02   0.000000e+00
  -1.703094e-02   2.572036e-02   0.000000e+00
   0.000000e+00   0.000000e+00   0.000000e+00
   0.000000e+00   0.000000e+00   0.000000e+00
  -1.548770e-01   2.566259e-02   0.000000e+00
   1.242333e-01   9.492846e-02   0.000000e+00
   2.342316e-01   2.122963e-01   0.000000e+00
   5.053308e-02  -1.294611e-01   0.000000e+00
  -2.162567e-01  -1.859931e-01   0.000000e+00
   0.000000e+00   0.000000e+00   0.000000e+00
   3.671830e-03   5.212852e-02   0.000000e+00
  -1.778365e-01  -3.539593e-01   0.000000e+00
  -1.738750e-03   2.281680e-01   0.000000e+00
  -3.952859e-02  -6.728314e-02   0.000000e+00
  -3.091458e-02   3.078566e-03   0.000000e+00
  -5.194616e-02   4.851231e-02   0.000000e+00
  -1.262959e-01  -4.432225e-02   0.000000e+00
  -1.244520e-01   1.232936e-01   0.000000e+00
   9.870024e-02  -7.661299e-02   0.000000e+00
VECTORS Imag_Arrow_1.584800e+01(Hz) float
  -5.395129e-02   3.037498e-02   0.000000e+00
  -3.251956e-02  -2.954787e-02   0.000000e+00
   0.000000e+00   0.000000e+00   0.000000e+00
  -4.432608e-02  -1.348143e-01   0.000000e+00
  -8.578011e-02   3.315653e-02   0.000000e+00
  -2.484637e-02  -4.405371e-02   0.000000e+00
   8.482819e-03  -4.099155e-02   0.000000e+00
  -7.815001e-02   3.018620e-03   0.000000e+00
  -2.572624e-02  -6.221597e-04   0.000000e+00
  -1.390360e-01  -1.621691e-02   0.000000e+00
  -5.804436e-02   5.198626e-02   0.000000e+00
   0.000000e+00   0.000000e+00   0.000000e+00
   0.000000e+00   0.000000e+00   0.000000e+00
  -1.374405e-01  -1.159964e-01   0.000000e+00
   0.000000e+00   0.000000e+00   0.000000e+00
  -1.347547e-01  -2.066064e-02   0.000000e+00
   6.930434e-02   1.018092e-01   0.000000e+00
  -2.341355e-02   1.447284e-02   0.000000e+00
  -1.753165e-01   7.654386e-02   0.000000e+00
  -1.070819e-01   1.139105e-02   0.000000e+00
  -6.659088e-03  -3.490056e-02   0.000000e+00
  -1.044508e-01   1.082670e-02   0.000000e+00
  -2.136240e-02   2.157696e-02   0.000000e+00
  -1.011924e-01  -4.943193e-03   0.000000e+00
   0.000000e+00   0.000000e+00   0.000000e+00
  -9.206992e-02   1.822543e-02   0.000000e+00
  -7.607308e-02  -1.350726e-01   0.000000e+00
  -4.818071e-02  -1.168218e-01   0.000000e+00
  -5.875236e-02  -2.412173e-02   0.000000e+00
   0.000000e+00   0.000000e+00   0.000000e+00
   0.000000e+00   0.000000e+00   0.000000e+00
  -1.013806e-01  -1.311322e-02   0.000000e+00
   5.448061e-02  -1.897565e-02   0.000000e+00
  -6.033589e-02  -1.119607e-01   0.000000e+00
  -5.368674e-02   3.994137e-02   0.000000e+00
  -1.583584e-01   2.458760e-02   0.000000e+00
   0.000000e+00   0.000000e+00   0.000000e+00
  -1.017894e-01  -2.269010e-04   0.000000e+00
  -3.759256e-02  -1.544107e-01   0.000000e+00
  -1.142228e-01   1.893949e-01   0.000000e+00
  -3.108585e-02   7.964891e-02   0.000000e+00
  -7.210100e-02   1.497298e-02   0.000000e+00
   6.956435e-02   3.311030e-02   0.000000e+00
  -1.454872e-01  -1.233042e-02   0.000000e+00
  -6.116258e-02  -1.828046e-01   0.000000e+00
   5.983289e-03  -1.289305e-01   0.000000e+00
VECTORS Real_Arrow_2.511800e+01(Hz) float
  -2.346974e-02  -1.308930e-01   0.000000e+00
  -6.762637e-02   9.671793e-02   0.000000e+00
   0.000000e+00   0.000000e+00   0.000000e+00
   4.690074e-02  -3.578481e-01   0.000000e+00
  -3.653880e-02  -1.365857e-01   0.000000e+00
  -3.818286e-02   2.483021e-02   0.000000e+00
   8.540874e-02  -1.124869e-01   0.000000e+00
  -1.768011e-02   8.776884e-02   0.000000e+00
   2.762776e-01  -1.774933e-01   0.000000e+00
  -7.512070e-03  -5.424819e-02   0.000000e+00
  -1.322753e-01   3.152870e-02   0.000000e+00
  -6.792067e-02   5.173590e-02   0.000000e+00
   0.000000e+00   0.000000e+00   0.000000e+00
  -1.995009e-01   7.185724e-02   0.000000e+00
   6.862372e-02   1.673192e-02   0.000000e+00
   1.723436e-02   3.896858e-02   0.000000e+00
  -1.293352e-01  -1.650597e-01   0.000000e+00
   4.585017e-02   3.270556e-02   0.000000e+00
   2.170761e-01  -9.417024e-02   0.000000e+00
   1.076414e-01   1.106608e-02   0.000000e+00
  -1.157265e-01   1.503984e-02   0.000000e+00
  -6.840954e-02  -6.780257e-02   0.000000e+00
  -6.599617e-02   3.032466e-02   0.000000e+00
  -1.863762e-02  -1.199875e-01   0.000000e+00
   0.000000e+00   0.000000e+00   0.000000e+00
  -4.613363e-03   3.441544e-02   0.000000e+00
  -5.635774e-02  -2.916159e-03   0.000000e+00
  -2.686295e-02   5.556268e-02   0.000000e+00
  -2.987826e-03   2.476914e-02   0.000000e+00
   0.000000e+00   0.000000e+00   0.000000e+00
  -5.840763e-03  -3.295088e-03   0.000000e+00
  -1.160529e-01   2.047699e-02   0.000000e+00
   9.295731e-02   9.348364e-02   0.000000e+00
   2.477402e-01   2.512702e-01   0.000000e+00
   6.595289e-02  -1.595187e-01   0.000000e+00
  -1.424511e-01  -2.009693e-01   0.000000e+00
   0.000000e+00   0.000000e+00   0.000000e+00
   4.961250e-02   4.738902e-02   0.000000e+00
  -1.607348e-01  -2.783939e-01   0.000000e+00
   3.982545e-02   1.417283e-01   0.000000e+00
  -3.516488e-02  -9.549198e-02   0.000000e+00
  -1.010519e-02  -5.534010e-03   0.000000e+00
  -8.434311e-02   2.391281e-02   0.000000e+00
  -6.056042e-02  -4.365797e-02   0.000000e+00
  -9.359762e-02   1.950779e-01   0.000000e+00
   9.819083e-02  -2.735028e-02   0.000000e+00
VECTORS Imag_Arrow_2.511800e+01(Hz) float
  -2.324239e-02   7.752732e-03   0.000000e+00
   7.635143e-03  -4.845084e-02   0.000000e+00
   0.000000e+00   0.000000e+00   0.000000e+00
  -3.329301e-02  -1.607216e-01   0.000000e+00
  -6.751305e-02   1.563638e-02   0.000000e+00
  -4.164368e-02  -2.610346e-02   0.000000e+00
   1.156541e-02  -5.357630e-02   0.000000e+00
  -3.780268e-02   3.041578e-02   0.000000e+00
   3.389556e-02   9.749840e-04   0.000000e+00
  -1.388372e-01  -2.229209e-02   0.000000e+00
  -7.110091e-02   4.601416e-02   0.000000e+00
  -7.527003e-02   9.390763e-03   0.000000e+00
   0.000000e+00   0.000000e+00   0.000000e+00
  -1.883126e-01  -1.030526e-01   0.000000e+00
  -6.842581e-02   5.248003e-03   0.000000e+00
  -1.393831e-01  -2.041154e-03   0.000000e+00
   5.363410e-02   1.092854e-01   0.000000e+00
   3.014828e-04  -8.388733e-03   0.000000e+00
  -1.519571e-01   8.590644e-02   0.000000e+00
  -7.578941e-02   5.295139e-04   0.000000e+00
  -4.468388e-03  -2.450063e-02   0.000000e+00
  -9.564457e-02   1.142555e-02   0.000000e+00
  -9.657894e-03  -1.907952e-03   0.000000e+00
  -8.740436e-02  -3.389757e-03   0.000000e+00
   0.000000e+00   0.000000e+00   0.000000e+00
  -6.389910e-02   5.040377e-02   0.000000e+00
  -9.883873e-02  -1.338774e-01   0.000000e+00
  -6.163865e-02  -1.060580e-01   0.000000e+00
  -4.477842e-02  -1.325010e-04   0.000000e+00
   0.000000e+00   0.000000e+00   0.000000e+00
  -6.341722e-02   1.750080e-02   0.000000e+00
  -9.818377e-02   1.125537e-02   0.000000e+00
   4.276762e-02  -5.744513e-03   0.000000e+00
   7.884792e-03  -4.947449e-02   0.000000e+00
  -3.244830e-02   3.442204e-02   0.000000e+00
  -1.893564e-01   1.433295e-02   0.000000e+00
   0.000000e+00   0.000000e+00   0.000000e+00
  -6.828022e-02   3.400494e-03   0.000000e+00
  -4.870586e-02  -1.993451e-01   0.000000e+00
  -9.283053e-02   2.102710e-01   0.000000e+00
  -1.710396e-02   6.620594e-02   0.000000e+00
  -4.199326e-02   4.252968e-03   0.000000e+00
   6.924898e-02   5.752526e-02   0.000000e+00
  -1.565050e-01  -1.378310e-02   0.000000e+00
  -8.424571e-02  -1.718525e-01   0.000000e+00
   2.848724e-02  -1.264924e-01   0.000000e+00
VECTORS Real_Arrow_3.981000e+01(Hz) float
  -3.174649e-02  -1.287997e-01   0.000000e+00
  -9.266279e-02   1.232865e-01   0.000000e+00
  -3.230034e-02   9.354920e-02   0.000000e+00
   5.428481e-02  -2.926971e-01   0.000000e+00
  -2.302245e-02  -1.408832e-01   0.000000e+00
  -1.482595e-02   2.870262e-02   0.000000e+00
   8.432567e-02  -9.405890e-02   0.000000e+00
   0.000000e+00   0.000000e+00   0.000000e+00
   2.429198e-01  -1.890495e-01   0.000000e+00
   5.223869e-02  -4.536393e-02   0.000000e+00
  -9.991773e-02   1.713770e-02   0.000000e+00
  -5.448965e-02   3.504659e-02   0.000000e+00
   0.000000e+00   0.000000e+00   0.000000e+00
  -1.134231e-01   1.105683e-01   0.000000e+00
   8.474160e-02   1.666240e-02   0.000000e+00
   7.443016e-02   3.343823e-02   0.000000e+00
  -1.410971e-01  -2.109117e-01   0.000000e+00
   3.610133e-02   4.369344e-02   0.000000e+00
   0.000000e+00   0.000000e+00   0.000000e+00
   1.249017e-01   1.502007e-02   0.000000e+00
  -1.163696e-01   1.716451e-02   0.000000e+00
  -3.391410e-02  -7.648572e-02   0.000000e+00
  -6.777454e-02   3.769045e-02   0.000000e+00
   4.931028e-03  -1.203172e-01   0.000000e+00
   0.000000e+00   0.000000e+00   0.000000e+00
   8.409900e-03  -1.074589e-03   0.000000e+00
  -1.257523e-02   4.628675e-02   0.000000e+00
   3.352768e-03   9.007683e-02   0.000000e+00
   0.000000e+00   0.000000e+00   0.000000e+00
   1.354030e-01  -1.119764e-01   0.000000e+00
   1.207084e-02  -2.047778e-02   0.000000e+00
  -8.477973e-02   3.468390e-03   0.000000e+00
   0.000000e+00   0.000000e+00   0.000000e+00
   2.238118e-01   2.556138e-01   0.000000e+00
   7.221033e-02  -1.827861e-01   0.000000e+00
  -5.901591e-02  -2.074685e-01   0.000000e+00
   0.000000e+00   0.000000e+00   0.000000e+00
   6.405549e-02   4.439583e-02   0.000000e+00
  -1.429961e-01  -1.848595e-01   0.000000e+00
   6.281342e-02   5.721908e-02   0.000000e+00
  -3.533808e-02  -1.108060e-01   0.000000e+00
  -1.225001e-02  -1.219233e-03   0.000000e+00
  -1.133402e-01  -8.799907e-03   0.000000e+00
   3.439121e-03  -4.126346e-02   0.000000e+00
  -5.416414e-02   2.568379e-01   0.000000e+00
   8.200239e-02   1.550876e-02   0.000000e+00
VECTORS Imag_Arrow_3.981000e+01(Hz) float
   6.693594e-04  -1.977567e-02   0.000000e+00
   3.550666e-02  -6.409518e-02   0.000000e+00
   2.984037e-02  -3.590360e-02   0.000000e+00
  -1.789627e-02  -1.682905e-01   0.000000e+00
  -4.887301e-02  -8.376707e-03   0.000000e+00
  -4.909389e-02  -5.360958e-03   0.000000e+00
   2.081846e-02  -6.819285e-02   0.000000e+00
   0.000000e+00   0.000000e+00   0.000000e+00
   8.151931e-02  -1.234564e-02   0.000000e+00
  -1.138105e-01  -2.605355e-02   0.000000e+00
  -7.503496e-02   3.920970e-02   0.000000e+00
  -4.643043e-02   1.895991e-02   0.000000e+00
   0.000000e+00   0.000000e+00   0.000000e+00
  -2.147984e-01  -7.289416e-02   0.000000e+00
  -2.844314e-02  -7.734718e-03   0.000000e+00
  -1.257069e-01   1.079304e-02   0.000000e+00
   3.933735e-02   1.027988e-01   0.000000e+00
   1.329340e-02  -2.810310e-02   0.000000e+00
   0.000000e+00   0.000000e+00   0.000000e+00
  -3.694328e-02  -1.176614e-02   0.000000e+00
  -8.833859e-03  -2.114534e-02   0.000000e+00
  -7.880307e-02   2.115821e-03   0.000000e+00
  -4.212360e-03  -2.634777e-02   0.000000e+00
  -7.080987e-02  -2.677653e-03   0.000000e+00
   0.000000e+00   0.000000e+00   0.000000e+00
  -3.108731e-02   6.959857e-02   0.000000e+00
  -1.092450e-01  -1.168672e-01   0.000000e+00
  -6.393244e-02  -8.470824e-02   0.000000e+00
   0.000000e+00   0.000000e+00   0.000000e+00
  -2.963815e-02   5.576792e-02   0.000000e+00
  -5.560700e-02   2.595788e-02   0.000000e+00
  -9.114564e-02   2.469931e-02   0.000000e+00
   0.000000e+00   0.000000e+00   0.000000e+00
   7.060041e-02   2.140204e-02   0.000000e+00
  -1.198036e-02   5.823823e-03   0.000000e+00
  -1.927384e-01  -5.699557e-03   0.000000e+00
   0.000000e+00   0.000000e+00   0.000000e+00
  -1.951667e-02   1.668531e-03   0.000000e+00
  -5.565316e-02  -2.119113e-01   0.000000e+00
  -6.805458e-02   2.105163e-01   0.000000e+00
  -8.166390e-03   5.421009e-02   0.000000e+00
  -1.712023e-02  -6.533375e-03   0.000000e+00
   5.901094e-02   6.629346e-02   0.000000e+00
  -1.448880e-01  -1.633595e-02   0.000000e+00
  -9.440401e-02  -1.412808e-01   0.000000e+00
   5.246797e-02  -1.149182e-01   0.000000e+00
VECTORS Real_Arrow_6.309500e+01(Hz) float
  -4.696451e-02  -1.116393e-01   0.000000e+00
  -1.259327e-01   1.594107e-01   0.000000e+00
  -5.795575e-02   1.162408e-01   0.000000e+00
   5.107240e-02  -2.320991e-01   0.000000e+00
  -1.750679e-02  -1.317787e-01   0.000000e+00
   8.150609e-03   2.200464e-02   0.000000e+00
   7.554014e-02  -6.644997e-02   0.000000e+00
   0.000000e+00   0.000000e+00   0.000000e+00
   0.000000e+00   0.000000e+00   0.000000e+00
   9.058963e-02  -3.665931e-02   0.000000e+00
  -7.048923e-02   6.953226e-03   0.000000e+00
  -5.203777e-02   2.040878e-02   0.000000e+00
   0.000000e+00   0.000000e+00   0.000000e+00
  -2.465679e-02   1.288530e-01   0.000000e+00
   7.783598e-02   2.697073e-02   0.000000e+00
   1.178675e-01   2.575104e-02   0.000000e+00
  -1.484648e-01  -2.509497e-01   0.000000e+00
   2.784170e-02   6.184043e-02   0.000000e+00
   0.000000e+00   0.000000e+00   0.000000e+00
   1.207519e-01   2.642173e-02   0.000000e+00
  -1.124115e-01   2.222500e-02   0.000000e+00
  -6.795963e-03  -7.325115e-02   0.000000e+00
  -6.781034e-02   5.797163e-02   0.000000e+00
   0.000000e+00   0.000000e+00   0.000000e+00
   0.000000e+00   0.000000e+00   0.000000e+00
   4.438485e-03  -4.341611e-02   0.000000e+00
   3.052438e-02   8.217933e-02   0.000000e+00
   3.055743e-02   1.111461e-01   0.000000e+00
   0.000000e+00   0.000000e+00   0.000000e+00
   1.292948e-01  -1.355368e-01   0.000000e+00
   3.041351e-02  -3.404167e-02   0.000000e+00
  -5.626695e-02  -1.632225e-02   0.000000e+00
   7.740059e-02   8.327560e-02   0.000000e+00
   1.747735e-01   2.257743e-01   0.000000e+00
   0.000000e+00   0.000000e+00   0.000000e+00
   1.487534e-02  -2.013696e-01   0.000000e+00
   3.349641e-02   2.883301e-01   0.000000e+00
   0.000000e+00   0.000000e+00   0.000000e+00
  -1.261527e-01  -9.919146e-02   0.000000e+00
   7.338104e-02  -2.237170e-02   0.000000e+00
  -3.551686e-02  -1.229811e-01   0.000000e+00
  -2.329400e-02   9.641650e-03   0.000000e+00
  -1.364279e-01  -3.895007e-02   0.000000e+00
   5.248812e-02  -3.954768e-02   0.000000e+00
  -1.634740e-02   2.997321e-01   0.000000e+00
   5.112688e-02   5.136815e-02   0.000000e+00
VECTORS Imag_Arrow_6.309500e+01(Hz) float
   5.371075e-03  -4.072325e-02   0.000000e+00
   3.535936e-02  -6.156724e-02   0.000000e+00
   3.394208e-02  -2.751624e-02   0.000000e+00
  -7.389382e-03  -1.611127e-01   0.000000e+00
  -4.045167e-02  -3.137489e-02   0.000000e+00
  -4.530340e-02   1.113753e-02   0.000000e+00
   3.228701e-02  -8.109307e-02   0.000000e+00
   0.000000e+00   0.000000e+00   0.000000e+00
   0.000000e+00   0.000000e+00   0.000000e+00
  -6.731224e-02  -2.758521e-02   0.000000e+00
  -6.506349e-02   3.177669e-02   0.000000e+00
  -2.525140e-02   1.817631e-02   0.000000e+00
   0.000000e+00   0.000000e+00   0.000000e+00
  -2.123484e-01  -3.351975e-02   0.000000e+00
   4.195396e-03  -1.600493e-02   0.000000e+00
  -9.371895e-02   2.019665e-02   0.000000e+00
   2.869405e-02   8.210613e-02   0.000000e+00
   2.051650e-02  -3.756657e-02   0.000000e+00
   0.000000e+00   0.000000e+00   0.000000e+00
  -5.131392e-03  -1.622015e-02   0.000000e+00
  -1.258831e-02  -2.165662e-02   0.000000e+00
  -5.366655e-02  -1.211999e-02   0.000000e+00
  -7.214571e-04  -4.165135e-02   0.000000e+00
   0.000000e+00   0.000000e+00   0.000000e+00
   0.000000e+00   0.000000e+00   0.000000e+00
  -7.017674e-03   6.585137e-02   0.000000e+00
  -1.054639e-01  -9.190344e-02   0.000000e+00
  -5.356815e-02  -6.174678e-02   0.000000e+00
   0.000000e+00   0.000000e+00   0.000000e+00
   7.445190e-03   3.130358e-02   0.000000e+00
  -4.744249e-02   2.381318e-02   0.000000e+00
  -8.402469e-02   2.449067e-02   0.000000e+00
   1.536295e-02   1.148338e-02   0.000000e+00
   1.120165e-01   8.377711e-02   0.000000e+00
   0.000000e+00   0.000000e+00   0.000000e+00
  -1.688213e-01  -2.784526e-02   0.000000e+00
  -7.672649e-02   2.408453e-02   0.000000e+00
   0.000000e+00   0.000000e+00   0.000000e+00
  -6.257312e-02  -1.890773e-01   0.000000e+00
  -5.143819e-02   1.908462e-01   0.000000e+00
  -2.648911e-03   4.931725e-02   0.000000e+00
  -1.199204e-02  -7.446191e-03   0.000000e+00
   3.998267e-02   6.130987e-02   0.000000e+00
  -1.164155e-01  -2.054770e-02   0.000000e+00
  -9.058598e-02  -1.000636e-01   0.000000e+00
   6.681137e-02  -9.943751e-02   0.000000e+00
