# vtk DataFile Version 2.0
Induction_Arrow_Iter11_PE3
ASCII
DATASET UNSTRUCTURED_GRID
POINTS 46 float
  -2.052000e+03    1.667000e+03   -4.526633e+02
  -1.265000e+03    2.333000e+03   -4.555885e+02
  -9.840000e+02    2.568000e+03   -4.612271e+02
   1.700000e+03   -1.757000e+03   -5.237752e+02
  -1.152000e+03    1.382000e+03   -4.549280e+02
   3.187000e+03    1.067000e+03   -8.370176e+02
   4.716000e+03    9.370000e+02   -8.015281e+02
  -1.855000e+03    5.260000e+02   -5.147377e+02
  -1.420000e+02   -1.905000e+03   -4.746368e+02
  -5.800000e+01    1.069000e+03   -4.555494e+02
  -2.802000e+03    3.302000e+03   -4.314337e+02
  -5.640000e+03   -1.532000e+03   -4.911771e+02
  -8.030000e+02   -5.610000e+02   -5.280929e+02
   1.008000e+03    4.130000e+02   -5.983358e+02
   1.960000e+02    2.246000e+03   -5.219413e+02
  -3.457000e+03    8.320000e+02   -4.470735e+02
   5.640000e+03    2.452000e+03   -7.393049e+02
  -1.334000e+03    3.332000e+03   -4.456136e+02
   1.244000e+03    1.880000e+03   -6.331107e+02
  -2.680000e+02    2.144000e+03   -4.891390e+02
  -4.063000e+03    6.620000e+02   -4.746103e+02
  -1.258000e+03    6.330000e+02   -4.856841e+02
  -2.141000e+03    3.194000e+03   -4.348461e+02
  -3.469000e+03   -3.059000e+03   -6.067613e+02
  -1.604000e+03   -2.570000e+02   -5.141257e+02
  -1.454000e+03    2.220000e+02   -5.386025e+02
   1.864000e+03    1.270000e+02   -7.404291e+02
   2.449000e+03    5.590000e+02   -7.805292e+02
  -1.834000e+03   -1.554000e+03   -6.273074e+02
   1.807000e+03    2.297000e+03   -6.825557e+02
  -2.560000e+03   -1.783000e+03   -6.131337e+02
  -2.741000e+03   -5.010000e+02   -5.080000e+02
   2.884000e+03   -2.179000e+03   -5.274708e+02
  -6.120000e+02   -8.960000e+02   -5.895389e+02
  -1.985000e+03   -2.653000e+03   -5.598834e+02
  -3.390000e+03   -4.000000e+02   -4.982361e+02
   1.586000e+03    1.342000e+03   -6.618442e+02
   1.047000e+03    2.401000e+03   -5.426792e+02
   8.380000e+02   -1.300000e+03   -4.783644e+02
   2.569000e+03    2.441000e+03   -6.035668e+02
  -2.028000e+03    2.833000e+03   -4.322286e+02
  -1.086000e+03    1.998000e+03   -4.563301e+02
   1.514000e+03   -3.332000e+03   -5.646205e+02
   7.040000e+02    1.116000e+03   -5.365099e+02
   1.990000e+03    6.360000e+02   -7.085272e+02
   3.722000e+03   -1.700000e+02   -6.745213e+02
CELLS 46 92
1 0
1 1
1 2
1 3
1 4
1 5
1 6
1 7
1 8
1 9
1 10
1 11
1 12
1 13
1 14
1 15
1 16
1 17
1 18
1 19
1 20
1 21
1 22
1 23
1 24
1 25
1 26
1 27
1 28
1 29
1 30
1 31
1 32
1 33
1 34
1 35
1 36
1 37
1 38
1 39
1 40
1 41
1 42
1 43
1 44
1 45
CELL_TYPES 46
1
1
1
1
1
1
1
1
1
1
1
1
1
1
1
1
1
1
1
1
1
1
1
1
1
1
1
1
1
1
1
1
1
1
1
1
1
1
1
1
1
1
1
1
1
1
POINT_DATA 46
VECTORS Real_Arrow_1.584800e+00(Hz) float
  -1.648653e-01  -6.458053e-02   0.000000e+00
  -2.097939e-01   3.973836e-02   0.000000e+00
   0.000000e+00   0.000000e+00   0.000000e+00
   0.000000e+00   0.000000e+00   0.000000e+00
  -1.933424e-01  -7.971348e-02   0.000000e+00
  -2.540404e-02  -9.688629e-02   0.000000e+00
   8.678442e-02  -1.510784e-01   0.000000e+00
  -2.046496e-01  -1.097760e-02   0.000000e+00
   0.000000e+00   0.000000e+00   0.000000e+00
  -1.924957e-01  -9.366189e-02   0.000000e+00
  -2.359279e-01   7.786500e-02   0.000000e+00
  -3.068292e-01  -9.903691e-02   0.000000e+00
   0.000000e+00   0.000000e+00   0.000000e+00
  -2.322276e-01  -1.323954e-01   0.000000e+00
   0.000000e+00   0.000000e+00   0.000000e+00
   0.000000e+00   0.000000e+00   0.000000e+00
   4.207687e-03  -6.646177e-02   0.000000e+00
   0.000000e+00   0.000000e+00   0.000000e+00
   0.000000e+00   0.000000e+00   0.000000e+00
   0.000000e+00   0.000000e+00   0.000000e+00
   0.000000e+00   0.000000e+00   0.000000e+00
  -2.241257e-01  -8.688262e-02   0.000000e+00
  -1.762561e-01   6.025682e-02   0.000000e+00
   0.000000e+00   0.000000e+00   0.000000e+00
   0.000000e+00   0.000000e+00   0.000000e+00
   0.000000e+00   0.000000e+00   0.000000e+00
  -9.742476e-02  -1.918823e-01   0.000000e+00
  -5.629400e-02  -1.420380e-01   0.000000e+00
  -1.077160e-01  -6.925149e-02   0.000000e+00
  -7.315632e-02  -9.713301e-02   0.000000e+00
  -1.175987e-01  -6.215462e-02   0.000000e+00
  -2.278129e-01  -6.579076e-02   0.000000e+00
   5.913072e-02  -4.093817e-02   0.000000e+00
   5.671418e-03  -6.256143e-02   0.000000e+00
   0.000000e+00   0.000000e+00   0.000000e+00
   0.000000e+00   0.000000e+00   0.000000e+00
  -1.733386e-01   4.739769e-03   0.000000e+00
  -1.581904e-01  -5.100238e-03   0.000000e+00
  -1.660854e-01  -3.615170e-01   0.000000e+00
  -1.381870e-01   2.492873e-01   0.000000e+00
   0.000000e+00   0.000000e+00   0.000000e+00
  -1.807510e-01  -9.068326e-03   0.000000e+00
   0.000000e+00   0.000000e+00   0.000000e+00
  -2.128262e-01  -9.163212e-02   0.000000e+00
   0.000000e+00   0.000000e+00   0.000000e+00
   0.000000e+00   0.000000e+00   0.000000e+00
VECTORS Imag_Arrow_1.584800e+00(Hz) float
  -2.542791e-03  -2.069406e-03   0.000000e+00
   6.703146e-03  -6.209990e-02   0.000000e+00
   0.000000e+00   0.000000e+00   0.000000e+00
   0.000000e+00   0.000000e+00   0.000000e+00
   1.379951e-02  -6.435556e-03   0.000000e+00
   4.213388e-02  -4.618499e-02   0.000000e+00
   2.014917e-02  -1.080651e-02   0.000000e+00
   1.116348e-02  -6.222420e-02   0.000000e+00
   0.000000e+00   0.000000e+00   0.000000e+00
   2.369428e-02  -2.540234e-02   0.000000e+00
  -1.620148e-03  -4.067247e-02   0.000000e+00
   1.220098e-02  -2.749728e-02   0.000000e+00
   0.000000e+00   0.000000e+00   0.000000e+00
   8.975318e-02  -4.222755e-02   0.000000e+00
   0.000000e+00   0.000000e+00   0.000000e+00
   0.000000e+00   0.000000e+00   0.000000e+00
   6.125269e-02  -6.742353e-03   0.000000e+00
   0.000000e+00   0.000000e+00   0.000000e+00
   0.000000e+00   0.000000e+00   0.000000e+00
   0.000000e+00   0.000000e+00   0.000000e+00
   0.000000e+00   0.000000e+00   0.000000e+00
   2.833980e-02  -2.051337e-02   0.000000e+00
  -1.607985e-02  -4.493689e-02   0.000000e+00
   0.000000e+00   0.000000e+00   0.000000e+00
   0.000000e+00   0.000000e+00   0.000000e+00
   0.000000e+00   0.000000e+00   0.000000e+00
   4.790240e-02  -2.596521e-02   0.000000e+00
   3.948904e-02  -4.495032e-02   0.000000e+00
   8.927013e-03  -3.081355e-02   0.000000e+00
   1.410428e-02  -3.967228e-03   0.000000e+00
   1.210132e-02  -2.308577e-02   0.000000e+00
   5.219058e-02  -1.561600e-02   0.000000e+00
  -5.052281e-02  -8.037194e-02   0.000000e+00
  -5.731713e-02  -9.006915e-02   0.000000e+00
   0.000000e+00   0.000000e+00   0.000000e+00
   0.000000e+00   0.000000e+00   0.000000e+00
   5.116014e-02  -9.629472e-02   0.000000e+00
   3.055282e-02  -5.045951e-02   0.000000e+00
   6.864651e-02   4.808925e-02   0.000000e+00
   1.942289e-02  -1.271511e-01   0.000000e+00
   0.000000e+00   0.000000e+00   0.000000e+00
  -3.277258e-04  -3.913061e-02   0.000000e+00
   0.000000e+00   0.000000e+00   0.000000e+00
   5.305839e-02  -2.701032e-02   0.000000e+00
   0.000000e+00   0.000000e+00   0.000000e+00
   0.000000e+00   0.000000e+00   0.000000e+00
VECTORS Real_Arrow_2.511800e+00(Hz) float
  -1.601250e-01  -6.308555e-02   0.000000e+00
  -2.053086e-01   6.418059e-02   0.000000e+00
   0.000000e+00   0.000000e+00   0.000000e+00
  -3.939801e-02  -4.737445e-01   0.000000e+00
  -1.952317e-01  -7.536594e-02   0.000000e+00
  -3.469952e-02  -7.846361e-02   0.000000e+00
   8.698082e-02  -1.473147e-01   0.000000e+00
  -2.075700e-01   1.391149e-02   0.000000e+00
   9.891986e-02  -1.863341e-01   0.000000e+00
  -1.996024e-01  -8.299264e-02   0.000000e+00
  -2.272835e-01   9.638689e-02   0.000000e+00
  -3.153415e-01  -8.973233e-02   0.000000e+00
   0.000000e+00   0.000000e+00   0.000000e+00
  -2.651624e-01  -1.195615e-01   0.000000e+00
  -1.385746e-01   3.021414e-02   0.000000e+00
   0.000000e+00   0.000000e+00   0.000000e+00
  -7.223026e-03  -5.919802e-02   0.000000e+00
   0.000000e+00   0.000000e+00   0.000000e+00
   0.000000e+00   0.000000e+00   0.000000e+00
   0.000000e+00   0.000000e+00   0.000000e+00
   0.000000e+00   0.000000e+00   0.000000e+00
  -2.333731e-01  -7.810825e-02   0.000000e+00
  -1.610670e-01   7.966721e-02   0.000000e+00
  -1.957154e-01  -1.253491e-01   0.000000e+00
   0.000000e+00   0.000000e+00   0.000000e+00
   0.000000e+00   0.000000e+00   0.000000e+00
  -1.112010e-01  -1.866250e-01   0.000000e+00
  -6.551267e-02  -1.278974e-01   0.000000e+00
  -1.110779e-01  -5.755880e-02   0.000000e+00
  -7.614156e-02  -9.770602e-02   0.000000e+00
  -1.240509e-01  -5.299502e-02   0.000000e+00
  -2.508819e-01  -6.340481e-02   0.000000e+00
   1.034054e-01   1.528516e-03   0.000000e+00
   3.022043e-02  -3.062253e-02   0.000000e+00
  -6.809044e-02  -1.062233e-01   0.000000e+00
   0.000000e+00   0.000000e+00   0.000000e+00
  -1.907749e-01   3.959859e-02   0.000000e+00
  -1.670351e-01   1.308719e-02   0.000000e+00
  -1.875602e-01  -3.872851e-01   0.000000e+00
  -1.444362e-01   3.240814e-01   0.000000e+00
   0.000000e+00   0.000000e+00   0.000000e+00
  -1.758661e-01   8.171765e-03   0.000000e+00
   0.000000e+00   0.000000e+00   0.000000e+00
  -2.315530e-01  -7.976162e-02   0.000000e+00
   0.000000e+00   0.000000e+00   0.000000e+00
   0.000000e+00   0.000000e+00   0.000000e+00
VECTORS Imag_Arrow_2.511800e+00(Hz) float
  -2.982131e-02   6.082189e-03   0.000000e+00
  -2.627554e-02  -6.082690e-02   0.000000e+00
   0.000000e+00   0.000000e+00   0.000000e+00
  -1.174412e-02   3.220293e-02   0.000000e+00
  -1.776486e-02   5.616259e-04   0.000000e+00
   3.283813e-02  -5.738887e-02   0.000000e+00
   1.514201e-02  -1.522326e-02   0.000000e+00
  -2.369171e-02  -7.371892e-02   0.000000e+00
  -9.794809e-02  -6.752090e-03   0.000000e+00
  -1.123610e-02  -2.750331e-02   0.000000e+00
  -3.048911e-02  -2.494267e-02   0.000000e+00
  -4.308509e-02  -6.784715e-02   0.000000e+00
   0.000000e+00   0.000000e+00   0.000000e+00
   6.770534e-02  -6.094552e-02   0.000000e+00
  -3.962711e-02  -3.993887e-02   0.000000e+00
   0.000000e+00   0.000000e+00   0.000000e+00
   6.351354e-02   7.151870e-03   0.000000e+00
   0.000000e+00   0.000000e+00   0.000000e+00
   0.000000e+00   0.000000e+00   0.000000e+00
   0.000000e+00   0.000000e+00   0.000000e+00
   0.000000e+00   0.000000e+00   0.000000e+00
  -4.239698e-03  -2.264656e-02   0.000000e+00
  -4.363276e-02  -3.261224e-02   0.000000e+00
   6.643497e-04   6.419335e-03   0.000000e+00
   0.000000e+00   0.000000e+00   0.000000e+00
   0.000000e+00   0.000000e+00   0.000000e+00
   2.985695e-02  -4.729319e-02   0.000000e+00
   2.469078e-02  -6.553674e-02   0.000000e+00
  -1.660119e-02  -4.241230e-02   0.000000e+00
  -1.817929e-02  -4.767926e-03   0.000000e+00
  -1.285091e-02  -3.295746e-02   0.000000e+00
   2.977457e-02  -2.565211e-02   0.000000e+00
  -7.290455e-02  -9.628775e-02   0.000000e+00
  -9.392710e-02  -1.214399e-01   0.000000e+00
  -2.963060e-02   3.621855e-03   0.000000e+00
   0.000000e+00   0.000000e+00   0.000000e+00
   2.397471e-02  -1.171034e-01   0.000000e+00
  -4.973596e-03  -4.914257e-02   0.000000e+00
   5.005048e-02   3.371035e-02   0.000000e+00
  -1.516709e-02  -9.572512e-02   0.000000e+00
   0.000000e+00   0.000000e+00   0.000000e+00
  -3.456897e-02  -3.429587e-02   0.000000e+00
   0.000000e+00   0.000000e+00   0.000000e+00
   2.074507e-02  -2.858326e-02   0.000000e+00
   0.000000e+00   0.000000e+00   0.000000e+00
   0.000000e+00   0.000000e+00   0.000000e+00
VECTORS Real_Arrow_3.981000e+00(Hz) float
  -1.413112e-01  -6.497207e-02   0.000000e+00
  -1.830820e-01   8.669277e-02   0.000000e+00
   0.000000e+00   0.000000e+00   0.000000e+00
  -2.674930e-02  -4.896989e-01   0.000000e+00
  -1.821164e-01  -7.418967e-02   0.000000e+00
  -4.499543e-02  -5.391967e-02   0.000000e+00
   8.447188e-02  -1.423152e-01   0.000000e+00
  -1.913625e-01   4.831956e-02   0.000000e+00
   1.494093e-01  -1.798525e-01   0.000000e+00
  -1.917237e-01  -7.159979e-02   0.000000e+00
  -2.045938e-01   1.064732e-01   0.000000e+00
  -2.816829e-01  -4.263560e-02   0.000000e+00
   0.000000e+00   0.000000e+00   0.000000e+00
  -2.939751e-01  -9.754847e-02   0.000000e+00
  -1.158943e-01   4.534766e-02   0.000000e+00
   0.000000e+00   0.000000e+00   0.000000e+00
  -2.570143e-02  -5.782721e-02   0.000000e+00
   0.000000e+00   0.000000e+00   0.000000e+00
  -4.412103e-02  -3.528086e-02   0.000000e+00
   0.000000e+00   0.000000e+00   0.000000e+00
   0.000000e+00   0.000000e+00   0.000000e+00
  -2.272977e-01  -6.674711e-02   0.000000e+00
  -1.313425e-01   9.149098e-02   0.000000e+00
  -1.956851e-01  -1.245743e-01   0.000000e+00
   0.000000e+00   0.000000e+00   0.000000e+00
   0.000000e+00   0.000000e+00   0.000000e+00
  -1.208434e-01  -1.710385e-01   0.000000e+00
  -7.212528e-02  -1.034831e-01   0.000000e+00
  -9.913578e-02  -3.793743e-02   0.000000e+00
  -6.389243e-02  -9.547385e-02   0.000000e+00
   0.000000e+00   0.000000e+00   0.000000e+00
  -2.643264e-01  -5.296213e-02   0.000000e+00
   1.547239e-01   4.948669e-02   0.000000e+00
   7.782036e-02   1.995937e-02   0.000000e+00
  -4.997262e-02  -1.020728e-01   0.000000e+00
   0.000000e+00   0.000000e+00   0.000000e+00
   0.000000e+00   0.000000e+00   0.000000e+00
  -1.595859e-01   2.978255e-02   0.000000e+00
  -2.021781e-01  -4.084625e-01   0.000000e+00
  -1.341827e-01   3.729569e-01   0.000000e+00
  -1.160810e-01   2.354781e-02   0.000000e+00
  -1.536325e-01   2.293636e-02   0.000000e+00
   0.000000e+00   0.000000e+00   0.000000e+00
  -2.381852e-01  -6.764407e-02   0.000000e+00
  -1.398757e-01  -4.741042e-02   0.000000e+00
   6.756892e-02  -1.750195e-01   0.000000e+00
VECTORS Imag_Arrow_3.981000e+00(Hz) float
  -5.655771e-02   1.730464e-02   0.000000e+00
  -5.585826e-02  -5.054302e-02   0.000000e+00
   0.000000e+00   0.000000e+00   0.000000e+00
  -3.036153e-02  -4.817874e-03   0.000000e+00
  -5.121520e-02   1.259880e-02   0.000000e+00
   2.453060e-02  -6.282907e-02   0.000000e+00
   1.471878e-02  -1.857862e-02   0.000000e+00
  -6.285585e-02  -7.733848e-02   0.000000e+00
  -1.145596e-01  -1.086281e-02   0.000000e+00
  -5.115543e-02  -2.461865e-02   0.000000e+00
  -5.245869e-02   1.700513e-03   0.000000e+00
  -1.067672e-01  -1.043292e-01   0.000000e+00
   0.000000e+00   0.000000e+00   0.000000e+00
   3.371721e-02  -8.043384e-02   0.000000e+00
  -7.388857e-02  -2.346931e-02   0.000000e+00
   0.000000e+00   0.000000e+00   0.000000e+00
   7.175548e-02   2.977946e-02   0.000000e+00
   0.000000e+00   0.000000e+00   0.000000e+00
  -1.033865e-01  -2.796937e-03   0.000000e+00
   0.000000e+00   0.000000e+00   0.000000e+00
   0.000000e+00   0.000000e+00   0.000000e+00
  -4.247917e-02  -2.048002e-02   0.000000e+00
  -6.151014e-02  -9.989050e-03   0.000000e+00
  -4.332326e-02   5.954976e-04   0.000000e+00
   0.000000e+00   0.000000e+00   0.000000e+00
   0.000000e+00   0.000000e+00   0.000000e+00
   9.049910e-03  -7.301542e-02   0.000000e+00
   9.810709e-03  -8.629067e-02   0.000000e+00
  -4.538496e-02  -5.158162e-02   0.000000e+00
  -5.331060e-02  -7.979667e-03   0.000000e+00
   0.000000e+00   0.000000e+00   0.000000e+00
  -5.788769e-03  -3.967335e-02   0.000000e+00
  -5.678620e-02  -8.760098e-02   0.000000e+00
  -1.247452e-01  -1.493612e-01   0.000000e+00
  -5.856459e-02   6.526041e-03   0.000000e+00
   0.000000e+00   0.000000e+00   0.000000e+00
   0.000000e+00   0.000000e+00   0.000000e+00
  -4.570217e-02  -4.400076e-02   0.000000e+00
   2.711006e-02   4.517734e-03   0.000000e+00
  -5.724573e-02  -1.140662e-02   0.000000e+00
  -6.010388e-02   2.958994e-02   0.000000e+00
  -6.762443e-02  -2.063605e-02   0.000000e+00
   0.000000e+00   0.000000e+00   0.000000e+00
  -2.026228e-02  -2.434395e-02   0.000000e+00
   2.258590e-02  -1.301801e-01   0.000000e+00
  -5.884178e-03  -6.269173e-02   0.000000e+00
