# vtk DataFile Version 2.0
Induction_Arrow_Iter4_PE3
ASCII
DATASET UNSTRUCTURED_GRID
POINTS 46 float
  -2.052000e+03    1.667000e+03   -4.526633e+02
  -1.265000e+03    2.333000e+03   -4.555885e+02
  -9.840000e+02    2.568000e+03   -4.612271e+02
   1.700000e+03   -1.757000e+03   -5.237752e+02
  -1.152000e+03    1.382000e+03   -4.549280e+02
   3.187000e+03    1.067000e+03   -8.370176e+02
   4.716000e+03    9.370000e+02   -8.015281e+02
  -1.855000e+03    5.260000e+02   -5.147377e+02
  -1.420000e+02   -1.905000e+03   -4.746368e+02
  -5.800000e+01    1.069000e+03   -4.555494e+02
  -2.802000e+03    3.302000e+03   -4.314337e+02
  -5.640000e+03   -1.532000e+03   -4.911771e+02
  -8.030000e+02   -5.610000e+02   -5.280929e+02
   1.008000e+03    4.130000e+02   -5.983358e+02
   1.960000e+02    2.246000e+03   -5.219413e+02
  -3.457000e+03    8.320000e+02   -4.470735e+02
   5.640000e+03    2.452000e+03   -7.393049e+02
  -1.334000e+03    3.332000e+03   -4.456136e+02
   1.244000e+03    1.880000e+03   -6.331107e+02
  -2.680000e+02    2.144000e+03   -4.891390e+02
  -4.063000e+03    6.620000e+02   -4.746103e+02
  -1.258000e+03    6.330000e+02   -4.856841e+02
  -2.141000e+03    3.194000e+03   -4.348461e+02
  -3.469000e+03   -3.059000e+03   -6.067613e+02
  -1.604000e+03   -2.570000e+02   -5.141257e+02
  -1.454000e+03    2.220000e+02   -5.386025e+02
   1.864000e+03    1.270000e+02   -7.404291e+02
   2.449000e+03    5.590000e+02   -7.805292e+02
  -1.834000e+03   -1.554000e+03   -6.273074e+02
   1.807000e+03    2.297000e+03   -6.825557e+02
  -2.560000e+03   -1.783000e+03   -6.131337e+02
  -2.741000e+03   -5.010000e+02   -5.080000e+02
   2.884000e+03   -2.179000e+03   -5.274708e+02
  -6.120000e+02   -8.960000e+02   -5.895389e+02
  -1.985000e+03   -2.653000e+03   -5.598834e+02
  -3.390000e+03   -4.000000e+02   -4.982361e+02
   1.586000e+03    1.342000e+03   -6.618442e+02
   1.047000e+03    2.401000e+03   -5.426792e+02
   8.380000e+02   -1.300000e+03   -4.783644e+02
   2.569000e+03    2.441000e+03   -6.035668e+02
  -2.028000e+03    2.833000e+03   -4.322286e+02
  -1.086000e+03    1.998000e+03   -4.563301e+02
   1.514000e+03   -3.332000e+03   -5.646205e+02
   7.040000e+02    1.116000e+03   -5.365099e+02
   1.990000e+03    6.360000e+02   -7.085272e+02
   3.722000e+03   -1.700000e+02   -6.745213e+02
CELLS 46 92
1 0
1 1
1 2
1 3
1 4
1 5
1 6
1 7
1 8
1 9
1 10
1 11
1 12
1 13
1 14
1 15
1 16
1 17
1 18
1 19
1 20
1 21
1 22
1 23
1 24
1 25
1 26
1 27
1 28
1 29
1 30
1 31
1 32
1 33
1 34
1 35
1 36
1 37
1 38
1 39
1 40
1 41
1 42
1 43
1 44
1 45
CELL_TYPES 46
1
1
1
1
1
1
1
1
1
1
1
1
1
1
1
1
1
1
1
1
1
1
1
1
1
1
1
1
1
1
1
1
1
1
1
1
1
1
1
1
1
1
1
1
1
1
POINT_DATA 46
VECTORS Real_Arrow_1.000000e+02(Hz) float
  -5.407597e-02  -8.780922e-02   0.000000e+00
  -1.475529e-01   1.898857e-01   0.000000e+00
  -7.638034e-02   1.261600e-01   0.000000e+00
   4.511429e-02  -1.813322e-01   0.000000e+00
  -1.053577e-02  -1.139133e-01   0.000000e+00
   2.510398e-02   8.638525e-03   0.000000e+00
   5.820581e-02  -2.854651e-02   0.000000e+00
  -6.714052e-02   3.820329e-02   0.000000e+00
   0.000000e+00   0.000000e+00   0.000000e+00
   9.571348e-02  -2.534787e-02   0.000000e+00
  -4.980780e-02   9.057250e-04   0.000000e+00
  -5.479594e-02   1.142051e-02   0.000000e+00
   0.000000e+00   0.000000e+00   0.000000e+00
   4.947613e-02   1.233807e-01   0.000000e+00
   6.006328e-02   3.938192e-02   0.000000e+00
   1.407725e-01   1.565770e-02   0.000000e+00
  -1.537653e-01  -2.783512e-01   0.000000e+00
   1.913103e-02   8.133673e-02   0.000000e+00
   0.000000e+00   0.000000e+00   0.000000e+00
   1.050066e-01   3.638147e-02   0.000000e+00
  -1.082887e-01   3.240110e-02   0.000000e+00
   4.076143e-03  -5.719298e-02   0.000000e+00
  -6.631955e-02   8.405900e-02   0.000000e+00
   3.405643e-02  -1.251829e-01   0.000000e+00
   0.000000e+00   0.000000e+00   0.000000e+00
  -4.393615e-03  -7.302928e-02   0.000000e+00
   6.505103e-02   1.063711e-01   0.000000e+00
   4.654543e-02   1.232296e-01   0.000000e+00
   2.738194e-02   3.985175e-03   0.000000e+00
   1.055314e-01  -1.367859e-01   0.000000e+00
   4.745292e-02  -3.629233e-02   0.000000e+00
  -2.980320e-02  -2.711560e-02   0.000000e+00
   7.662563e-02   7.618021e-02   0.000000e+00
   1.115235e-01   1.657383e-01   0.000000e+00
   6.303794e-02  -1.500321e-01   0.000000e+00
   6.682439e-02  -1.856977e-01   0.000000e+00
   5.333681e-02   2.590615e-01   0.000000e+00
   0.000000e+00   0.000000e+00   0.000000e+00
  -1.073556e-01  -4.274007e-02   0.000000e+00
   8.108840e-02  -8.505558e-02   0.000000e+00
   0.000000e+00   0.000000e+00   0.000000e+00
  -2.386550e-02   1.578029e-02   0.000000e+00
  -1.491242e-01  -6.158365e-02   0.000000e+00
   7.647106e-02  -3.538745e-02   0.000000e+00
   1.048836e-02   3.251756e-01   0.000000e+00
   1.530233e-02   8.119866e-02   0.000000e+00
VECTORS Imag_Arrow_1.000000e+02(Hz) float
  -1.111301e-03  -4.960636e-02   0.000000e+00
   1.374766e-02  -3.898118e-02   0.000000e+00
   2.571597e-02  -8.564244e-03   0.000000e+00
  -8.996983e-03  -1.435533e-01   0.000000e+00
  -4.034869e-02  -4.904200e-02   0.000000e+00
  -3.362005e-02   1.920853e-02   0.000000e+00
   3.961449e-02  -8.606078e-02   0.000000e+00
  -2.231526e-02   2.157409e-02   0.000000e+00
   0.000000e+00   0.000000e+00   0.000000e+00
  -1.633558e-02  -3.083838e-02   0.000000e+00
  -4.800205e-02   2.531624e-02   0.000000e+00
  -1.392508e-02   1.091168e-02   0.000000e+00
   0.000000e+00   0.000000e+00   0.000000e+00
  -1.832670e-01   8.307924e-04   0.000000e+00
   1.845190e-02  -1.299628e-02   0.000000e+00
  -5.824499e-02   2.875174e-02   0.000000e+00
   2.125854e-02   4.991390e-02   0.000000e+00
   2.869375e-02  -3.934368e-02   0.000000e+00
   0.000000e+00   0.000000e+00   0.000000e+00
   1.183980e-02  -1.139723e-02   0.000000e+00
  -1.721094e-02  -2.101972e-02   0.000000e+00
  -2.159216e-02  -1.595056e-02   0.000000e+00
   3.658744e-03  -4.415496e-02   0.000000e+00
  -5.767138e-02  -6.105963e-03   0.000000e+00
   0.000000e+00   0.000000e+00   0.000000e+00
   3.774808e-03   3.435302e-02   0.000000e+00
  -9.119316e-02  -6.605051e-02   0.000000e+00
  -3.502880e-02  -4.329108e-02   0.000000e+00
  -3.311304e-02   1.748417e-02   0.000000e+00
   2.591195e-02   1.061942e-03   0.000000e+00
  -3.149179e-02   2.051537e-02   0.000000e+00
  -7.717702e-02   6.234337e-03   0.000000e+00
   7.281888e-03   1.519381e-02   0.000000e+00
   1.261478e-01   1.240494e-01   0.000000e+00
   2.553016e-02  -7.429484e-02   0.000000e+00
  -1.341669e-01  -4.387780e-02   0.000000e+00
  -4.237836e-02   7.206569e-02   0.000000e+00
   0.000000e+00   0.000000e+00   0.000000e+00
  -7.353108e-02  -1.451365e-01   0.000000e+00
  -4.229592e-02   1.520376e-01   0.000000e+00
   0.000000e+00   0.000000e+00   0.000000e+00
  -2.225710e-02   2.599327e-03   0.000000e+00
   1.399926e-02   4.711420e-02   0.000000e+00
  -8.381883e-02  -3.087766e-02   0.000000e+00
  -7.879290e-02  -5.620125e-02   0.000000e+00
   6.095970e-02  -8.027400e-02   0.000000e+00
VECTORS Real_Arrow_1.584800e+02(Hz) float
  -5.152092e-02  -6.646169e-02   0.000000e+00
  -1.489137e-01   1.998341e-01   0.000000e+00
  -8.533711e-02   1.227780e-01   0.000000e+00
   4.663219e-02  -1.440422e-01   0.000000e+00
   3.704861e-03  -9.139517e-02   0.000000e+00
   3.141285e-02  -1.793306e-03   0.000000e+00
   3.882864e-02   7.862637e-03   0.000000e+00
  -5.367115e-02   3.990374e-02   0.000000e+00
   0.000000e+00   0.000000e+00   0.000000e+00
   7.970362e-02  -1.371033e-02   0.000000e+00
  -4.046758e-02  -5.854637e-03   0.000000e+00
  -5.688105e-02   9.084443e-03   0.000000e+00
   0.000000e+00   0.000000e+00   0.000000e+00
   1.038237e-01   1.087058e-01   0.000000e+00
   4.641443e-02   4.328112e-02   0.000000e+00
   1.476809e-01   1.240666e-03   0.000000e+00
  -1.593412e-01  -2.897476e-01   0.000000e+00
   4.518273e-03   1.011610e-01   0.000000e+00
   0.000000e+00   0.000000e+00   0.000000e+00
   8.982688e-02   3.798564e-02   0.000000e+00
  -1.019657e-01   3.850005e-02   0.000000e+00
  -1.630425e-03  -4.640594e-02   0.000000e+00
  -7.099399e-02   1.034447e-01   0.000000e+00
   5.065073e-02  -1.257306e-01   0.000000e+00
   0.000000e+00   0.000000e+00   0.000000e+00
  -1.103961e-02  -7.560357e-02   0.000000e+00
   8.961493e-02   1.239049e-01   0.000000e+00
   5.143225e-02   1.326187e-01   0.000000e+00
   3.952579e-02   3.535373e-03   0.000000e+00
   8.301219e-02  -1.209509e-01   0.000000e+00
   5.350804e-02  -4.090678e-02   0.000000e+00
  -3.876487e-03  -2.585826e-02   0.000000e+00
   7.699543e-02   7.045964e-02   0.000000e+00
   5.929810e-02   1.056238e-01   0.000000e+00
   4.928732e-02  -1.105833e-01   0.000000e+00
   9.656214e-02  -1.626355e-01   0.000000e+00
   5.198270e-02   2.088827e-01   0.000000e+00
   0.000000e+00   0.000000e+00   0.000000e+00
  -8.073639e-02  -1.066315e-02   0.000000e+00
   9.239255e-02  -1.204812e-01   0.000000e+00
   0.000000e+00   0.000000e+00   0.000000e+00
  -1.125225e-02   1.125670e-02   0.000000e+00
  -1.488864e-01  -7.629607e-02   0.000000e+00
   8.795928e-02  -2.466715e-02   0.000000e+00
   3.082980e-02   3.342558e-01   0.000000e+00
  -7.354492e-03   1.020601e-01   0.000000e+00
VECTORS Imag_Arrow_1.584800e+02(Hz) float
  -9.339480e-03  -4.999195e-02   0.000000e+00
  -1.215271e-02  -7.508256e-03   0.000000e+00
   1.534820e-02   1.018217e-02   0.000000e+00
  -1.441403e-02  -1.285005e-01   0.000000e+00
  -3.795221e-02  -5.864722e-02   0.000000e+00
  -2.178799e-02   2.110455e-02   0.000000e+00
   3.901626e-02  -7.464137e-02   0.000000e+00
  -4.939283e-02   2.641501e-02   0.000000e+00
   0.000000e+00   0.000000e+00   0.000000e+00
   1.454249e-02  -3.080324e-02   0.000000e+00
  -3.467304e-02   2.453067e-02   0.000000e+00
  -8.735948e-03   2.490173e-03   0.000000e+00
   0.000000e+00   0.000000e+00   0.000000e+00
  -1.506870e-01   2.276908e-02   0.000000e+00
   2.453894e-02  -4.675775e-03   0.000000e+00
  -2.946039e-02   3.105509e-02   0.000000e+00
   1.351093e-02   1.574022e-02   0.000000e+00
   3.401383e-02  -3.493090e-02   0.000000e+00
   0.000000e+00   0.000000e+00   0.000000e+00
   1.465247e-02  -5.562590e-03   0.000000e+00
  -1.896745e-02  -1.733004e-02   0.000000e+00
   4.627956e-03  -6.417167e-03   0.000000e+00
   1.020568e-02  -3.390435e-02   0.000000e+00
  -5.033633e-02  -1.625097e-02   0.000000e+00
   0.000000e+00   0.000000e+00   0.000000e+00
   9.511192e-03   1.386811e-03   0.000000e+00
  -7.895776e-02  -4.090939e-02   0.000000e+00
  -1.868336e-02  -2.732365e-02   0.000000e+00
  -2.456407e-02   2.866906e-02   0.000000e+00
   2.653634e-02  -1.374541e-02   0.000000e+00
  -1.272563e-02   2.061496e-02   0.000000e+00
  -6.220192e-02  -9.209652e-03   0.000000e+00
   1.767327e-03   1.655610e-02   0.000000e+00
   1.216747e-01   1.396871e-01   0.000000e+00
   3.953778e-02  -8.881878e-02   0.000000e+00
  -9.701724e-02  -5.163748e-02   0.000000e+00
  -1.803748e-02   8.997094e-02   0.000000e+00
   0.000000e+00   0.000000e+00   0.000000e+00
  -8.230511e-02  -1.083841e-01   0.000000e+00
  -3.607282e-02   1.059775e-01   0.000000e+00
   0.000000e+00   0.000000e+00   0.000000e+00
  -2.923740e-02   1.448280e-02   0.000000e+00
  -1.462583e-02   3.021777e-02   0.000000e+00
  -6.252048e-02  -4.468866e-02   0.000000e+00
  -7.019650e-02  -1.253391e-02   0.000000e+00
   4.044983e-02  -5.740537e-02   0.000000e+00
VECTORS Real_Arrow_2.511800e+02(Hz) float
  -4.479718e-02  -4.877641e-02   0.000000e+00
  -1.363063e-01   1.924759e-01   0.000000e+00
  -8.968683e-02   1.128406e-01   0.000000e+00
   5.301559e-02  -1.122703e-01   0.000000e+00
   1.585797e-02  -6.625889e-02   0.000000e+00
   3.107264e-02  -9.779678e-03   0.000000e+00
   2.220786e-02   3.363420e-02   0.000000e+00
  -2.560696e-02   3.102378e-02   0.000000e+00
   0.000000e+00   0.000000e+00   0.000000e+00
   5.898833e-02  -2.324045e-03   0.000000e+00
  -3.549851e-02  -1.510881e-02   0.000000e+00
  -5.690767e-02   1.029935e-02   0.000000e+00
   5.075589e-02   2.745866e-01   0.000000e+00
   1.417861e-01   9.008733e-02   0.000000e+00
   3.464820e-02   4.199448e-02   0.000000e+00
   1.476732e-01  -1.106457e-02   0.000000e+00
  -1.641962e-01  -2.880226e-01   0.000000e+00
  -1.177557e-02   1.188751e-01   0.000000e+00
   0.000000e+00   0.000000e+00   0.000000e+00
   7.875854e-02   3.773107e-02   0.000000e+00
  -9.496658e-02   4.308512e-02   0.000000e+00
  -1.393354e-02  -4.687661e-02   0.000000e+00
  -7.962602e-02   1.133852e-01   0.000000e+00
   6.494022e-02  -1.198814e-01   0.000000e+00
   0.000000e+00   0.000000e+00   0.000000e+00
  -1.747134e-02  -6.177474e-02   0.000000e+00
   1.106194e-01   1.329999e-01   0.000000e+00
   4.983684e-02   1.375050e-01   0.000000e+00
   4.659923e-02  -4.889646e-03   0.000000e+00
   6.958822e-02  -1.060420e-01   0.000000e+00
   4.861677e-02  -4.657384e-02   0.000000e+00
   1.547821e-02  -1.557635e-02   0.000000e+00
   7.768143e-02   6.552691e-02   0.000000e+00
   1.667711e-02   4.840849e-02   0.000000e+00
   0.000000e+00   0.000000e+00   0.000000e+00
   1.107648e-01  -1.401977e-01   0.000000e+00
   4.316965e-02   1.644316e-01   0.000000e+00
   0.000000e+00   0.000000e+00   0.000000e+00
  -4.987886e-02   1.034354e-02   0.000000e+00
   1.002311e-01  -1.304425e-01   0.000000e+00
  -5.160846e-02  -1.689013e-01   0.000000e+00
   3.773067e-03  -9.362710e-04   0.000000e+00
  -1.354455e-01  -8.159965e-02   0.000000e+00
   9.547547e-02  -4.784440e-03   0.000000e+00
   5.003025e-02   3.258731e-01   0.000000e+00
  -1.070906e-02   1.093372e-01   0.000000e+00
VECTORS Imag_Arrow_2.511800e+02(Hz) float
  -1.296712e-02  -4.659616e-02   0.000000e+00
  -3.363501e-02   2.114913e-02   0.000000e+00
   3.870659e-03   2.227543e-02   0.000000e+00
  -1.874373e-02  -1.197520e-01   0.000000e+00
  -3.129229e-02  -6.231651e-02   0.000000e+00
  -1.477552e-02   1.990658e-02   0.000000e+00
   2.942687e-02  -5.067322e-02   0.000000e+00
  -6.280034e-02   3.830527e-02   0.000000e+00
   0.000000e+00   0.000000e+00   0.000000e+00
   2.692740e-02  -2.741071e-02   0.000000e+00
  -2.598203e-02   2.198836e-02   0.000000e+00
  -7.034721e-03  -3.566819e-03   0.000000e+00
   4.493417e-02   1.991501e-01   0.000000e+00
  -1.184915e-01   3.397427e-02   0.000000e+00
   2.668138e-02   1.185635e-03   0.000000e+00
  -7.701372e-03   2.841215e-02   0.000000e+00
   4.651801e-03  -1.709467e-02   0.000000e+00
   3.239463e-02  -2.002037e-02   0.000000e+00
   0.000000e+00   0.000000e+00   0.000000e+00
   8.932344e-03  -3.195953e-03   0.000000e+00
  -1.998916e-02  -1.359486e-02   0.000000e+00
   1.876043e-02   5.846722e-03   0.000000e+00
   1.161480e-02  -1.924261e-02   0.000000e+00
  -4.187633e-02  -2.947387e-02   0.000000e+00
   0.000000e+00   0.000000e+00   0.000000e+00
   1.296453e-02  -1.821114e-02   0.000000e+00
  -6.966003e-02  -1.301653e-02   0.000000e+00
  -7.993646e-03  -1.124439e-02   0.000000e+00
  -1.254998e-02   4.707607e-02   0.000000e+00
   1.623174e-02  -1.183887e-02   0.000000e+00
   2.267817e-03   2.240558e-02   0.000000e+00
  -4.133313e-02  -1.795275e-02   0.000000e+00
  -2.404651e-03   1.794308e-02   0.000000e+00
   1.067825e-01   1.369339e-01   0.000000e+00
   0.000000e+00   0.000000e+00   0.000000e+00
  -7.104375e-02  -5.005142e-02   0.000000e+00
  -6.448267e-03   7.784920e-02   0.000000e+00
   0.000000e+00   0.000000e+00   0.000000e+00
  -8.588925e-02  -8.280560e-02   0.000000e+00
  -2.858639e-02   7.465896e-02   0.000000e+00
   9.200513e-03   2.437078e-02   0.000000e+00
  -2.647464e-02   1.969069e-02   0.000000e+00
  -4.024323e-02   1.214675e-02   0.000000e+00
  -5.437729e-02  -5.479597e-02   0.000000e+00
  -6.492338e-02   2.885478e-02   0.000000e+00
   1.972283e-02  -3.665735e-02   0.000000e+00
VECTORS Real_Arrow_3.981000e+02(Hz) float
  -3.835224e-02  -3.348534e-02   0.000000e+00
  -1.151899e-01   1.733241e-01   0.000000e+00
  -8.859946e-02   1.012725e-01   0.000000e+00
   6.150604e-02  -8.010615e-02   0.000000e+00
   2.406850e-02  -4.105628e-02   0.000000e+00
   2.874773e-02  -1.444254e-02   0.000000e+00
   1.525027e-02   4.155149e-02   0.000000e+00
   1.629338e-03   1.432425e-02   0.000000e+00
   0.000000e+00   0.000000e+00   0.000000e+00
   4.248373e-02   6.329766e-03   0.000000e+00
  -3.173069e-02  -2.336735e-02   0.000000e+00
  -5.457489e-02   1.224939e-02   0.000000e+00
   4.251459e-02   2.013843e-01   0.000000e+00
   1.667236e-01   7.045931e-02   0.000000e+00
   2.428721e-02   3.984191e-02   0.000000e+00
   1.431662e-01  -2.039255e-02   0.000000e+00
  -1.675861e-01  -2.760405e-01   0.000000e+00
  -2.474868e-02   1.260349e-01   0.000000e+00
   2.641943e-01  -1.695084e-01   0.000000e+00
   7.399351e-02   3.874552e-02   0.000000e+00
  -8.743737e-02   4.634971e-02   0.000000e+00
  -2.563113e-02  -5.321047e-02   0.000000e+00
  -8.673286e-02   1.149607e-01   0.000000e+00
   7.663731e-02  -1.065118e-01   0.000000e+00
  -2.296719e-02  -4.162478e-02   0.000000e+00
  -2.370655e-02  -4.744634e-02   0.000000e+00
   1.309800e-01   1.302493e-01   0.000000e+00
   4.557242e-02   1.368805e-01   0.000000e+00
   4.708367e-02  -2.624282e-02   0.000000e+00
   6.537884e-02  -9.988890e-02   0.000000e+00
   3.840034e-02  -5.371768e-02   0.000000e+00
   2.318866e-02  -6.175215e-03   0.000000e+00
   7.815172e-02   6.074000e-02   0.000000e+00
  -1.588132e-02  -2.235222e-04   0.000000e+00
   0.000000e+00   0.000000e+00   0.000000e+00
   1.211985e-01  -1.221652e-01   0.000000e+00
   3.462900e-02   1.452398e-01   0.000000e+00
   0.000000e+00   0.000000e+00   0.000000e+00
  -1.831407e-02   2.854496e-02   0.000000e+00
   1.059070e-01  -1.365219e-01   0.000000e+00
  -5.810066e-02  -1.746906e-01   0.000000e+00
   1.367580e-02  -1.272911e-02   0.000000e+00
  -1.122701e-01  -7.852415e-02   0.000000e+00
   1.071732e-01   1.697566e-02   0.000000e+00
   6.987041e-02   3.015116e-01   0.000000e+00
  -5.247995e-03   1.092513e-01   0.000000e+00
VECTORS Imag_Arrow_3.981000e+02(Hz) float
  -1.271024e-02  -4.141534e-02   0.000000e+00
  -4.576261e-02   4.047598e-02   0.000000e+00
  -8.540454e-03   2.943471e-02   0.000000e+00
  -2.018880e-02  -1.158233e-01   0.000000e+00
  -2.386244e-02  -5.820480e-02   0.000000e+00
  -1.517290e-02   1.830108e-02   0.000000e+00
   1.514195e-02  -2.414570e-02   0.000000e+00
  -6.349719e-02   4.536782e-02   0.000000e+00
   0.000000e+00   0.000000e+00   0.000000e+00
   2.809701e-02  -2.143271e-02   0.000000e+00
  -2.102993e-02   1.590633e-02   0.000000e+00
  -5.569234e-03  -8.538436e-03   0.000000e+00
   2.944364e-02   1.906033e-01   0.000000e+00
  -9.110692e-02   3.606620e-02   0.000000e+00
   2.616582e-02   4.484731e-03   0.000000e+00
   1.003126e-02   2.406046e-02   0.000000e+00
  -7.260870e-03  -4.727528e-02   0.000000e+00
   2.457524e-02   3.817546e-03   0.000000e+00
   3.587987e-02  -5.270728e-03   0.000000e+00
  -1.888195e-03  -1.875076e-03   0.000000e+00
  -1.960551e-02  -9.927794e-03   0.000000e+00
   2.646044e-02   1.346922e-02   0.000000e+00
   6.942651e-03  -6.033376e-03   0.000000e+00
  -3.276329e-02  -4.196320e-02   0.000000e+00
  -4.479157e-02   3.207694e-02   0.000000e+00
   1.394546e-02  -2.534781e-02   0.000000e+00
  -6.060269e-02   1.525472e-02   0.000000e+00
  -2.948788e-03   3.709109e-03   0.000000e+00
  -1.507725e-04   6.530302e-02   0.000000e+00
   4.368207e-03  -3.089901e-03   0.000000e+00
   7.838427e-03   2.422172e-02   0.000000e+00
  -1.739504e-02  -1.887891e-02   0.000000e+00
  -6.501525e-03   2.006128e-02   0.000000e+00
   8.740888e-02   1.223310e-01   0.000000e+00
   0.000000e+00   0.000000e+00   0.000000e+00
  -5.699167e-02  -4.353846e-02   0.000000e+00
  -7.848608e-03   5.584073e-02   0.000000e+00
   0.000000e+00   0.000000e+00   0.000000e+00
  -8.262486e-02  -6.273783e-02   0.000000e+00
  -2.462546e-02   6.392629e-02   0.000000e+00
   1.143358e-03   7.154105e-03   0.000000e+00
  -1.757941e-02   1.585007e-02   0.000000e+00
  -5.801957e-02  -2.416287e-03   0.000000e+00
  -5.364694e-02  -5.732282e-02   0.000000e+00
  -5.862051e-02   6.163511e-02   0.000000e+00
   1.252327e-02  -2.767833e-02   0.000000e+00
VECTORS Real_Arrow_6.309500e+02(Hz) float
  -3.340610e-02  -2.086577e-02   0.000000e+00
  -9.312325e-02   1.499348e-01   0.000000e+00
  -8.150372e-02   8.901149e-02   0.000000e+00
   7.006755e-02  -4.569161e-02   0.000000e+00
   2.949646e-02  -2.086090e-02   0.000000e+00
   2.969121e-02  -1.687230e-02   0.000000e+00
   1.705614e-02   3.670747e-02   0.000000e+00
   2.507464e-02  -3.499559e-03   0.000000e+00
   0.000000e+00   0.000000e+00   0.000000e+00
   3.138683e-02   1.134600e-02   0.000000e+00
  -2.818303e-02  -2.841336e-02   0.000000e+00
  -5.184927e-02   1.524136e-02   0.000000e+00
   3.713485e-02   1.411596e-01   0.000000e+00
   1.830650e-01   5.450493e-02   0.000000e+00
   1.589203e-02   3.766697e-02   0.000000e+00
   1.339093e-01  -2.754463e-02   0.000000e+00
  -1.672039e-01  -2.546935e-01   0.000000e+00
  -3.196588e-02   1.189932e-01   0.000000e+00
   2.439241e-01  -1.629383e-01   0.000000e+00
   7.643965e-02   4.043725e-02   0.000000e+00
  -8.024851e-02   4.842012e-02   0.000000e+00
  -3.775172e-02  -6.102995e-02   0.000000e+00
  -8.934204e-02   1.117592e-01   0.000000e+00
   8.546299e-02  -8.656996e-02   0.000000e+00
  -8.117844e-03  -3.687236e-02   0.000000e+00
  -2.869267e-02  -3.549663e-02   0.000000e+00
   1.493309e-01   1.164884e-01   0.000000e+00
   4.033489e-02   1.323085e-01   0.000000e+00
   4.135031e-02  -5.699381e-02   0.000000e+00
   6.640616e-02  -1.006929e-01   0.000000e+00
   3.011588e-02  -6.166826e-02   0.000000e+00
   1.941287e-02  -5.210746e-04   0.000000e+00
   7.853096e-02   5.511426e-02   0.000000e+00
  -3.967133e-02  -3.885955e-02   0.000000e+00
  -1.233500e-02  -1.122617e-02   0.000000e+00
   1.323490e-01  -1.075776e-01   0.000000e+00
   3.438465e-02   1.396213e-01   0.000000e+00
   0.000000e+00   0.000000e+00   0.000000e+00
   1.010605e-02   4.239254e-02   0.000000e+00
   1.125065e-01  -1.465125e-01   0.000000e+00
  -5.792321e-02  -1.731684e-01   0.000000e+00
   1.744573e-02  -1.894428e-02   0.000000e+00
  -8.514935e-02  -7.095908e-02   0.000000e+00
   1.235109e-01   3.621807e-02   0.000000e+00
   8.689820e-02   2.676849e-01   0.000000e+00
  -4.031429e-03   1.132917e-01   0.000000e+00
VECTORS Imag_Arrow_6.309500e+02(Hz) float
  -1.086384e-02  -3.449202e-02   0.000000e+00
  -4.751495e-02   4.814453e-02   0.000000e+00
  -1.924820e-02   3.385568e-02   0.000000e+00
  -1.856233e-02  -1.126890e-01   0.000000e+00
  -1.698929e-02  -4.734058e-02   0.000000e+00
  -2.219208e-02   1.955485e-02   0.000000e+00
   5.456239e-03  -7.653333e-03   0.000000e+00
  -5.896676e-02   4.715804e-02   0.000000e+00
   0.000000e+00   0.000000e+00   0.000000e+00
   2.542045e-02  -1.510652e-02   0.000000e+00
  -1.823454e-02   7.373527e-03   0.000000e+00
  -1.976198e-03  -1.375652e-02   0.000000e+00
   1.702373e-02   1.728224e-01   0.000000e+00
  -7.142201e-02   2.942126e-02   0.000000e+00
   2.423354e-02   7.285353e-03   0.000000e+00
   2.479184e-02   1.901594e-02   0.000000e+00
  -2.382242e-02  -7.541951e-02   0.000000e+00
   1.395087e-02   2.846337e-02   0.000000e+00
   3.873361e-02  -1.043973e-02   0.000000e+00
  -1.359779e-02   5.951524e-04   0.000000e+00
  -1.758103e-02  -6.624565e-03   0.000000e+00
   3.152925e-02   1.740566e-02   0.000000e+00
  -8.622517e-04   3.230011e-03   0.000000e+00
  -2.267372e-02  -4.998071e-02   0.000000e+00
  -4.379578e-02   6.384930e-03   0.000000e+00
   1.365677e-02  -2.834624e-02   0.000000e+00
  -4.898435e-02   3.896673e-02   0.000000e+00
  -3.361497e-03   1.651211e-02   0.000000e+00
   9.552622e-03   7.357034e-02   0.000000e+00
  -5.779396e-03   5.548616e-03   0.000000e+00
   4.727855e-03   2.538447e-02   0.000000e+00
   1.194454e-03  -1.897994e-02   0.000000e+00
  -1.204902e-02   2.337468e-02   0.000000e+00
   6.701174e-02   1.015064e-01   0.000000e+00
   4.971882e-02  -7.295410e-02   0.000000e+00
  -4.779207e-02  -3.517361e-02   0.000000e+00
  -1.687169e-02   4.775759e-02   0.000000e+00
   0.000000e+00   0.000000e+00   0.000000e+00
  -7.290374e-02  -4.276158e-02   0.000000e+00
  -2.103019e-02   6.174745e-02   0.000000e+00
  -9.489478e-03  -9.662006e-03   0.000000e+00
  -7.845370e-03   7.274902e-03   0.000000e+00
  -6.609172e-02  -1.116659e-02   0.000000e+00
  -5.318914e-02  -5.635469e-02   0.000000e+00
  -4.933007e-02   8.202516e-02   0.000000e+00
   1.421841e-02  -2.646777e-02   0.000000e+00
VECTORS Real_Arrow_1.000000e+03(Hz) float
  -2.920838e-02  -1.147364e-02   0.000000e+00
  -7.513023e-02   1.286173e-01   0.000000e+00
  -7.037227e-02   7.606554e-02   0.000000e+00
   7.731575e-02  -9.773122e-03   0.000000e+00
   3.243367e-02  -8.278318e-03   0.000000e+00
   3.706043e-02  -2.049357e-02   0.000000e+00
   1.983113e-02   3.044799e-02   0.000000e+00
   4.571003e-02  -2.088954e-02   0.000000e+00
   0.000000e+00   0.000000e+00   0.000000e+00
   2.373675e-02   1.367450e-02   0.000000e+00
  -2.495980e-02  -2.923267e-02   0.000000e+00
  -5.086367e-02   1.951298e-02   0.000000e+00
   3.409071e-02   9.227544e-02   0.000000e+00
   1.957610e-01   4.711918e-02   0.000000e+00
   0.000000e+00   0.000000e+00   0.000000e+00
   1.202427e-01  -3.252721e-02   0.000000e+00
  -1.593017e-01  -2.231224e-01   0.000000e+00
  -3.371381e-02   1.012560e-01   0.000000e+00
   0.000000e+00   0.000000e+00   0.000000e+00
   8.391419e-02   4.167533e-02   0.000000e+00
  -7.376540e-02   4.965712e-02   0.000000e+00
  -5.055467e-02  -6.962725e-02   0.000000e+00
  -8.684804e-02   1.063595e-01   0.000000e+00
   0.000000e+00   0.000000e+00   0.000000e+00
   5.285242e-03  -2.507883e-02   0.000000e+00
  -3.281188e-02  -2.400793e-02   0.000000e+00
   1.628978e-01   9.584542e-02   0.000000e+00
   3.646367e-02   1.251898e-01   0.000000e+00
   3.132221e-02  -8.598256e-02   0.000000e+00
   7.028705e-02  -1.058167e-01   0.000000e+00
   2.734372e-02  -7.006716e-02   0.000000e+00
   1.245591e-02   5.210586e-03   0.000000e+00
   0.000000e+00   0.000000e+00   0.000000e+00
  -5.599925e-02  -6.731129e-02   0.000000e+00
   0.000000e+00   0.000000e+00   0.000000e+00
   1.422540e-01  -9.500975e-02   0.000000e+00
   4.118104e-02   1.305502e-01   0.000000e+00
   0.000000e+00   0.000000e+00   0.000000e+00
   0.000000e+00   0.000000e+00   0.000000e+00
   1.172072e-01  -1.577143e-01   0.000000e+00
   0.000000e+00   0.000000e+00   0.000000e+00
   0.000000e+00   0.000000e+00   0.000000e+00
  -5.931736e-02  -6.219671e-02   0.000000e+00
   1.411176e-01   5.437088e-02   0.000000e+00
   9.840952e-02   2.302716e-01   0.000000e+00
  -6.229207e-03   1.196341e-01   0.000000e+00
VECTORS Imag_Arrow_1.000000e+03(Hz) float
  -8.246907e-03  -2.689327e-02   0.000000e+00
  -4.319441e-02   4.717142e-02   0.000000e+00
  -2.579740e-02   3.603763e-02   0.000000e+00
  -1.444279e-02  -1.071429e-01   0.000000e+00
  -1.071773e-02  -3.419118e-02   0.000000e+00
  -3.168752e-02   2.480799e-02   0.000000e+00
   2.088374e-03  -1.350399e-03   0.000000e+00
  -5.053179e-02   4.523563e-02   0.000000e+00
   0.000000e+00   0.000000e+00   0.000000e+00
   2.232930e-02  -1.006382e-02   0.000000e+00
  -1.696918e-02  -2.062015e-03   0.000000e+00
   3.281773e-03  -1.915072e-02   0.000000e+00
   4.723061e-03   1.541890e-01   0.000000e+00
  -5.894725e-02   1.934109e-02   0.000000e+00
   0.000000e+00   0.000000e+00   0.000000e+00
   3.575403e-02   1.352391e-02   0.000000e+00
  -4.495145e-02  -1.003493e-01   0.000000e+00
   3.521185e-03   4.704301e-02   0.000000e+00
   0.000000e+00   0.000000e+00   0.000000e+00
  -2.278947e-02   4.851971e-03   0.000000e+00
  -1.415983e-02  -3.570872e-03   0.000000e+00
   3.372920e-02   1.839365e-02   0.000000e+00
  -8.963555e-03   8.793613e-03   0.000000e+00
   0.000000e+00   0.000000e+00   0.000000e+00
  -4.162305e-02  -5.015236e-03   0.000000e+00
   1.325775e-02  -2.895448e-02   0.000000e+00
  -3.481891e-02   5.594720e-02   0.000000e+00
  -1.003801e-02   2.839706e-02   0.000000e+00
   1.314683e-02   6.971621e-02   0.000000e+00
  -1.402924e-02   1.177570e-02   0.000000e+00
  -2.537779e-03   2.597643e-02   0.000000e+00
   1.214280e-02  -2.073113e-02   0.000000e+00
   0.000000e+00   0.000000e+00   0.000000e+00
   4.667090e-02   7.764119e-02   0.000000e+00
   0.000000e+00   0.000000e+00   0.000000e+00
  -4.050612e-02  -2.469789e-02   0.000000e+00
  -2.432665e-02   4.883354e-02   0.000000e+00
   0.000000e+00   0.000000e+00   0.000000e+00
   0.000000e+00   0.000000e+00   0.000000e+00
  -1.722671e-02   6.499813e-02   0.000000e+00
   0.000000e+00   0.000000e+00   0.000000e+00
   0.000000e+00   0.000000e+00   0.000000e+00
  -6.650709e-02  -1.464998e-02   0.000000e+00
  -4.969351e-02  -5.453613e-02   0.000000e+00
  -3.977452e-02   9.089538e-02   0.000000e+00
   1.717790e-02  -2.466022e-02   0.000000e+00
