# vtk DataFile Version 2.0
Induction_Arrow_Iter6_PE5
ASCII
DATASET UNSTRUCTURED_GRID
POINTS 46 float
  -2.052000e+03    1.667000e+03   -4.526633e+02
  -1.265000e+03    2.333000e+03   -4.555885e+02
  -9.840000e+02    2.568000e+03   -4.612271e+02
   1.700000e+03   -1.757000e+03   -5.237752e+02
  -1.152000e+03    1.382000e+03   -4.549280e+02
   3.187000e+03    1.067000e+03   -8.370176e+02
   4.716000e+03    9.370000e+02   -8.015281e+02
  -1.855000e+03    5.260000e+02   -5.147377e+02
  -1.420000e+02   -1.905000e+03   -4.746368e+02
  -5.800000e+01    1.069000e+03   -4.555494e+02
  -2.802000e+03    3.302000e+03   -4.314337e+02
  -5.640000e+03   -1.532000e+03   -4.911771e+02
  -8.030000e+02   -5.610000e+02   -5.280929e+02
   1.008000e+03    4.130000e+02   -5.983358e+02
   1.960000e+02    2.246000e+03   -5.219413e+02
  -3.457000e+03    8.320000e+02   -4.470735e+02
   5.640000e+03    2.452000e+03   -7.393049e+02
  -1.334000e+03    3.332000e+03   -4.456136e+02
   1.244000e+03    1.880000e+03   -6.331107e+02
  -2.680000e+02    2.144000e+03   -4.891390e+02
  -4.063000e+03    6.620000e+02   -4.746103e+02
  -1.258000e+03    6.330000e+02   -4.856841e+02
  -2.141000e+03    3.194000e+03   -4.348461e+02
  -3.469000e+03   -3.059000e+03   -6.067613e+02
  -1.604000e+03   -2.570000e+02   -5.141257e+02
  -1.454000e+03    2.220000e+02   -5.386025e+02
   1.864000e+03    1.270000e+02   -7.404291e+02
   2.449000e+03    5.590000e+02   -7.805292e+02
  -1.834000e+03   -1.554000e+03   -6.273074e+02
   1.807000e+03    2.297000e+03   -6.825557e+02
  -2.560000e+03   -1.783000e+03   -6.131337e+02
  -2.741000e+03   -5.010000e+02   -5.080000e+02
   2.884000e+03   -2.179000e+03   -5.274708e+02
  -6.120000e+02   -8.960000e+02   -5.895389e+02
  -1.985000e+03   -2.653000e+03   -5.598834e+02
  -3.390000e+03   -4.000000e+02   -4.982361e+02
   1.586000e+03    1.342000e+03   -6.618442e+02
   1.047000e+03    2.401000e+03   -5.426792e+02
   8.380000e+02   -1.300000e+03   -4.783644e+02
   2.569000e+03    2.441000e+03   -6.035668e+02
  -2.028000e+03    2.833000e+03   -4.322286e+02
  -1.086000e+03    1.998000e+03   -4.563301e+02
   1.514000e+03   -3.332000e+03   -5.646205e+02
   7.040000e+02    1.116000e+03   -5.365099e+02
   1.990000e+03    6.360000e+02   -7.085272e+02
   3.722000e+03   -1.700000e+02   -6.745213e+02
CELLS 46 92
1 0
1 1
1 2
1 3
1 4
1 5
1 6
1 7
1 8
1 9
1 10
1 11
1 12
1 13
1 14
1 15
1 16
1 17
1 18
1 19
1 20
1 21
1 22
1 23
1 24
1 25
1 26
1 27
1 28
1 29
1 30
1 31
1 32
1 33
1 34
1 35
1 36
1 37
1 38
1 39
1 40
1 41
1 42
1 43
1 44
1 45
CELL_TYPES 46
1
1
1
1
1
1
1
1
1
1
1
1
1
1
1
1
1
1
1
1
1
1
1
1
1
1
1
1
1
1
1
1
1
1
1
1
1
1
1
1
1
1
1
1
1
1
POINT_DATA 46
VECTORS Real_Arrow_2.511800e+01(Hz) float
  -2.464095e-02  -1.320781e-01   0.000000e+00
  -7.461215e-02   1.068396e-01   0.000000e+00
   0.000000e+00   0.000000e+00   0.000000e+00
   4.650756e-02  -3.513084e-01   0.000000e+00
  -4.151422e-02  -1.385791e-01   0.000000e+00
  -3.240084e-02   2.627790e-02   0.000000e+00
   8.170807e-02  -1.134701e-01   0.000000e+00
  -2.990498e-02   9.896902e-02   0.000000e+00
   2.736993e-01  -1.800597e-01   0.000000e+00
  -3.762436e-03  -5.653043e-02   0.000000e+00
  -1.249838e-01   2.496497e-02   0.000000e+00
  -7.566181e-02   4.603857e-02   0.000000e+00
   0.000000e+00   0.000000e+00   0.000000e+00
  -1.930651e-01   6.566962e-02   0.000000e+00
   6.087998e-02   1.941426e-02   0.000000e+00
   2.076948e-02   4.332252e-02   0.000000e+00
  -1.223709e-01  -1.798260e-01   0.000000e+00
   3.930220e-02   2.566442e-02   0.000000e+00
   2.239383e-01  -1.047645e-01   0.000000e+00
   1.050102e-01   1.183380e-02   0.000000e+00
  -1.179808e-01   2.184891e-02   0.000000e+00
  -7.024081e-02  -7.284033e-02   0.000000e+00
  -6.640354e-02   3.001440e-02   0.000000e+00
  -2.490410e-02  -1.171930e-01   0.000000e+00
   0.000000e+00   0.000000e+00   0.000000e+00
  -5.822028e-03   1.864789e-02   0.000000e+00
  -5.688216e-02   3.449236e-03   0.000000e+00
  -2.752761e-02   6.042814e-02   0.000000e+00
   7.962428e-03   2.159154e-02   0.000000e+00
   0.000000e+00   0.000000e+00   0.000000e+00
   1.996954e-03  -1.080629e-03   0.000000e+00
  -1.325888e-01   1.562079e-02   0.000000e+00
   9.700317e-02   8.812541e-02   0.000000e+00
   2.632875e-01   2.591298e-01   0.000000e+00
   6.714594e-02  -1.621112e-01   0.000000e+00
  -1.654018e-01  -1.948970e-01   0.000000e+00
   0.000000e+00   0.000000e+00   0.000000e+00
   2.755638e-02   7.232297e-02   0.000000e+00
  -1.661837e-01  -2.779739e-01   0.000000e+00
   4.213571e-02   1.343460e-01   0.000000e+00
  -4.187447e-02  -9.353505e-02   0.000000e+00
  -9.602370e-03  -4.744042e-03   0.000000e+00
  -8.402480e-02   2.317454e-02   0.000000e+00
  -7.281606e-02  -5.815478e-02   0.000000e+00
  -9.626860e-02   2.055299e-01   0.000000e+00
   9.615602e-02  -2.282980e-02   0.000000e+00
VECTORS Imag_Arrow_2.511800e+01(Hz) float
  -1.812729e-02   6.404142e-03   0.000000e+00
   1.084701e-02  -5.648073e-02   0.000000e+00
   0.000000e+00   0.000000e+00   0.000000e+00
  -3.228300e-02  -1.592841e-01   0.000000e+00
  -6.813649e-02   1.218895e-02   0.000000e+00
  -4.231670e-02  -2.412116e-02   0.000000e+00
   1.055112e-02  -5.760425e-02   0.000000e+00
  -4.064096e-02   2.652718e-02   0.000000e+00
   3.502555e-02   1.162192e-02   0.000000e+00
  -1.355525e-01  -3.028486e-02   0.000000e+00
  -6.520786e-02   4.051394e-02   0.000000e+00
  -6.920770e-02   1.306227e-02   0.000000e+00
   0.000000e+00   0.000000e+00   0.000000e+00
  -1.881617e-01  -9.861252e-02   0.000000e+00
  -6.975836e-02  -1.685764e-03   0.000000e+00
  -1.461254e-01  -2.161749e-03   0.000000e+00
   4.937367e-02   1.017990e-01   0.000000e+00
   6.484144e-04  -1.571356e-02   0.000000e+00
  -1.569593e-01   7.248304e-02   0.000000e+00
  -7.131842e-02  -6.260070e-03   0.000000e+00
  -1.575639e-02  -2.216627e-02   0.000000e+00
  -1.010811e-01   4.893053e-03   0.000000e+00
  -1.190692e-02  -1.387300e-02   0.000000e+00
  -9.554731e-02   6.500899e-03   0.000000e+00
   0.000000e+00   0.000000e+00   0.000000e+00
  -6.385495e-02   4.830898e-02   0.000000e+00
  -9.605034e-02  -1.324683e-01   0.000000e+00
  -6.040549e-02  -1.052830e-01   0.000000e+00
  -4.483640e-02   9.667208e-04   0.000000e+00
   0.000000e+00   0.000000e+00   0.000000e+00
  -5.877687e-02   2.040449e-02   0.000000e+00
  -1.153522e-01   2.752665e-04   0.000000e+00
   3.958240e-02  -7.975361e-03   0.000000e+00
   2.583607e-02  -4.320206e-02   0.000000e+00
  -3.145239e-02   3.509986e-02   0.000000e+00
  -2.118806e-01   7.968016e-03   0.000000e+00
   0.000000e+00   0.000000e+00   0.000000e+00
  -6.567740e-02  -9.545717e-03   0.000000e+00
  -5.689190e-02  -2.021032e-01   0.000000e+00
  -8.428543e-02   2.007163e-01   0.000000e+00
  -1.528367e-02   6.459000e-02   0.000000e+00
  -4.211489e-02   3.133319e-03   0.000000e+00
   7.224109e-02   5.545130e-02   0.000000e+00
  -1.550600e-01  -2.314052e-02   0.000000e+00
  -8.273272e-02  -1.732552e-01   0.000000e+00
   3.111342e-02  -1.185431e-01   0.000000e+00
VECTORS Real_Arrow_3.981000e+01(Hz) float
  -3.616727e-02  -1.305466e-01   0.000000e+00
  -1.020757e-01   1.375779e-01   0.000000e+00
  -4.398697e-02   9.810722e-02   0.000000e+00
   5.311834e-02  -2.890137e-01   0.000000e+00
  -2.848299e-02  -1.423291e-01   0.000000e+00
  -9.561937e-03   2.912888e-02   0.000000e+00
   7.942166e-02  -9.222414e-02   0.000000e+00
   0.000000e+00   0.000000e+00   0.000000e+00
   2.408287e-01  -1.970656e-01   0.000000e+00
   5.294754e-02  -4.434925e-02   0.000000e+00
  -9.754098e-02   1.478783e-02   0.000000e+00
  -6.195776e-02   2.947113e-02   0.000000e+00
   0.000000e+00   0.000000e+00   0.000000e+00
  -1.074401e-01   1.015836e-01   0.000000e+00
   7.725273e-02   2.308959e-02   0.000000e+00
   8.160789e-02   3.874901e-02   0.000000e+00
  -1.329978e-01  -2.211119e-01   0.000000e+00
   3.115620e-02   4.137884e-02   0.000000e+00
   0.000000e+00   0.000000e+00   0.000000e+00
   1.192445e-01   1.937022e-02   0.000000e+00
  -1.118202e-01   2.438493e-02   0.000000e+00
  -3.201385e-02  -7.783757e-02   0.000000e+00
  -6.602624e-02   4.506666e-02   0.000000e+00
  -6.726582e-04  -1.212619e-01   0.000000e+00
   0.000000e+00   0.000000e+00   0.000000e+00
   7.700119e-03  -1.635739e-02   0.000000e+00
  -1.498100e-02   5.082525e-02   0.000000e+00
   1.421767e-03   9.366477e-02   0.000000e+00
   0.000000e+00   0.000000e+00   0.000000e+00
   1.240120e-01  -1.098225e-01   0.000000e+00
   1.829752e-02  -1.736451e-02   0.000000e+00
  -9.050634e-02   4.309600e-03   0.000000e+00
   0.000000e+00   0.000000e+00   0.000000e+00
   2.294807e-01   2.606485e-01   0.000000e+00
   7.199397e-02  -1.824470e-01   0.000000e+00
  -6.635629e-02  -1.981409e-01   0.000000e+00
   0.000000e+00   0.000000e+00   0.000000e+00
   3.976057e-02   7.431513e-02   0.000000e+00
  -1.436048e-01  -1.834341e-01   0.000000e+00
   6.002681e-02   5.714413e-02   0.000000e+00
  -4.168716e-02  -1.070413e-01   0.000000e+00
  -1.228293e-02  -3.450354e-04   0.000000e+00
  -1.140667e-01  -9.525073e-03   0.000000e+00
  -1.014960e-02  -5.017762e-02   0.000000e+00
  -5.842378e-02   2.665650e-01   0.000000e+00
   7.794261e-02   1.683326e-02   0.000000e+00
VECTORS Imag_Arrow_3.981000e+01(Hz) float
   4.116290e-03  -2.053977e-02   0.000000e+00
   3.771438e-02  -6.829100e-02   0.000000e+00
   3.099203e-02  -4.259699e-02   0.000000e+00
  -1.846096e-02  -1.640273e-01   0.000000e+00
  -5.078782e-02  -1.082187e-02   0.000000e+00
  -4.748889e-02  -2.970531e-03   0.000000e+00
   1.957017e-02  -7.221794e-02   0.000000e+00
   0.000000e+00   0.000000e+00   0.000000e+00
   7.923899e-02   5.205606e-03   0.000000e+00
  -1.085468e-01  -3.478405e-02   0.000000e+00
  -6.702494e-02   3.292565e-02   0.000000e+00
  -4.590018e-02   1.946378e-02   0.000000e+00
   0.000000e+00   0.000000e+00   0.000000e+00
  -2.109764e-01  -6.731864e-02   0.000000e+00
  -3.053175e-02  -1.045155e-02   0.000000e+00
  -1.292895e-01   1.317404e-02   0.000000e+00
   3.891204e-02   9.264124e-02   0.000000e+00
   1.279580e-02  -3.642096e-02   0.000000e+00
   0.000000e+00   0.000000e+00   0.000000e+00
  -3.117396e-02  -1.485244e-02   0.000000e+00
  -1.818137e-02  -2.048295e-02   0.000000e+00
  -8.439603e-02  -4.998552e-03   0.000000e+00
  -7.494012e-03  -3.759645e-02   0.000000e+00
  -7.951946e-02   8.723546e-03   0.000000e+00
   0.000000e+00   0.000000e+00   0.000000e+00
  -3.094621e-02   6.310689e-02   0.000000e+00
  -1.044729e-01  -1.133549e-01   0.000000e+00
  -6.152671e-02  -8.301393e-02   0.000000e+00
   0.000000e+00   0.000000e+00   0.000000e+00
  -3.329723e-02   2.977906e-02   0.000000e+00
  -4.750969e-02   2.626259e-02   0.000000e+00
  -1.118325e-01   1.490487e-02   0.000000e+00
   0.000000e+00   0.000000e+00   0.000000e+00
   8.950418e-02   2.618068e-02   0.000000e+00
  -1.108762e-02   6.830798e-03   0.000000e+00
  -2.224043e-01  -2.377272e-03   0.000000e+00
   0.000000e+00   0.000000e+00   0.000000e+00
  -1.353880e-02   2.573418e-03   0.000000e+00
  -6.463112e-02  -2.122290e-01   0.000000e+00
  -6.040973e-02   2.037677e-01   0.000000e+00
  -6.944901e-03   5.741682e-02   0.000000e+00
  -1.861462e-02  -3.766128e-03   0.000000e+00
   6.290516e-02   6.556590e-02   0.000000e+00
  -1.452943e-01  -2.792590e-02   0.000000e+00
  -9.228544e-02  -1.401838e-01   0.000000e+00
   5.230864e-02  -1.075995e-01   0.000000e+00
VECTORS Real_Arrow_6.309500e+01(Hz) float
  -5.203111e-02  -1.133470e-01   0.000000e+00
  -1.368813e-01   1.744378e-01   0.000000e+00
  -6.927820e-02   1.225062e-01   0.000000e+00
   5.047475e-02  -2.315864e-01   0.000000e+00
  -2.247026e-02  -1.331855e-01   0.000000e+00
   1.172164e-02   2.149821e-02   0.000000e+00
   7.030296e-02  -6.219159e-02   0.000000e+00
   0.000000e+00   0.000000e+00   0.000000e+00
   0.000000e+00   0.000000e+00   0.000000e+00
   8.784932e-02  -3.124333e-02   0.000000e+00
  -7.229566e-02   8.779962e-03   0.000000e+00
  -5.683010e-02   1.583577e-02   0.000000e+00
   0.000000e+00   0.000000e+00   0.000000e+00
  -2.166585e-02   1.161427e-01   0.000000e+00
   7.107580e-02   3.271085e-02   0.000000e+00
   1.247229e-01   2.872740e-02   0.000000e+00
  -1.416329e-01  -2.549298e-01   0.000000e+00
   2.408147e-02   6.206136e-02   0.000000e+00
   0.000000e+00   0.000000e+00   0.000000e+00
   1.111741e-01   3.024236e-02   0.000000e+00
  -1.047374e-01   3.051595e-02   0.000000e+00
  -1.819361e-03  -7.070536e-02   0.000000e+00
  -6.260819e-02   7.070558e-02   0.000000e+00
   0.000000e+00   0.000000e+00   0.000000e+00
   0.000000e+00   0.000000e+00   0.000000e+00
   3.845156e-03  -5.457485e-02   0.000000e+00
   2.449861e-02   8.430470e-02   0.000000e+00
   2.642702e-02   1.135189e-01   0.000000e+00
   0.000000e+00   0.000000e+00   0.000000e+00
   1.193657e-01  -1.253434e-01   0.000000e+00
   3.186289e-02  -2.913816e-02   0.000000e+00
  -5.214604e-02  -1.093009e-02   0.000000e+00
   7.965055e-02   8.379637e-02   0.000000e+00
   1.711375e-01   2.303656e-01   0.000000e+00
   0.000000e+00   0.000000e+00   0.000000e+00
   2.548764e-02  -1.962358e-01   0.000000e+00
   3.963681e-02   3.126301e-01   0.000000e+00
   0.000000e+00   0.000000e+00   0.000000e+00
  -1.227895e-01  -9.866587e-02   0.000000e+00
   6.622600e-02  -2.047969e-02   0.000000e+00
  -4.008587e-02  -1.214042e-01   0.000000e+00
  -2.210074e-02   7.747477e-03   0.000000e+00
  -1.391672e-01  -4.016626e-02   0.000000e+00
   3.863250e-02  -4.219950e-02   0.000000e+00
  -2.297940e-02   3.080390e-01   0.000000e+00
   4.817055e-02   5.039042e-02   0.000000e+00
VECTORS Imag_Arrow_6.309500e+01(Hz) float
   6.068788e-03  -4.218532e-02   0.000000e+00
   3.492465e-02  -6.066099e-02   0.000000e+00
   3.328680e-02  -3.129916e-02   0.000000e+00
  -1.051565e-02  -1.562041e-01   0.000000e+00
  -4.467639e-02  -3.395298e-02   0.000000e+00
  -4.281412e-02   1.365804e-02   0.000000e+00
   2.851875e-02  -8.316329e-02   0.000000e+00
   0.000000e+00   0.000000e+00   0.000000e+00
   0.000000e+00   0.000000e+00   0.000000e+00
  -6.352093e-02  -3.632752e-02   0.000000e+00
  -5.782846e-02   2.749461e-02   0.000000e+00
  -2.653676e-02   1.722667e-02   0.000000e+00
   0.000000e+00   0.000000e+00   0.000000e+00
  -2.059703e-01  -2.911492e-02   0.000000e+00
   6.510132e-04  -1.346346e-02   0.000000e+00
  -9.340229e-02   2.562965e-02   0.000000e+00
   3.157527e-02   7.214067e-02   0.000000e+00
   2.170954e-02  -4.567871e-02   0.000000e+00
   0.000000e+00   0.000000e+00   0.000000e+00
  -7.170984e-04  -1.480822e-02   0.000000e+00
  -1.779895e-02  -1.994321e-02   0.000000e+00
  -5.656908e-02  -1.706399e-02   0.000000e+00
  -1.874523e-03  -4.785113e-02   0.000000e+00
   0.000000e+00   0.000000e+00   0.000000e+00
   0.000000e+00   0.000000e+00   0.000000e+00
  -6.462080e-03   5.445222e-02   0.000000e+00
  -1.005825e-01  -8.812215e-02   0.000000e+00
  -5.169413e-02  -6.024688e-02   0.000000e+00
   0.000000e+00   0.000000e+00   0.000000e+00
   3.043859e-03   1.401042e-02   0.000000e+00
  -3.601071e-02   2.453612e-02   0.000000e+00
  -1.031187e-01   1.806336e-02   0.000000e+00
   1.746193e-02   7.871563e-03   0.000000e+00
   1.266302e-01   8.672757e-02   0.000000e+00
   0.000000e+00   0.000000e+00   0.000000e+00
  -1.962444e-01  -1.344940e-02   0.000000e+00
  -7.354560e-02   4.050495e-02   0.000000e+00
   0.000000e+00   0.000000e+00   0.000000e+00
  -7.027849e-02  -1.868650e-01   0.000000e+00
  -4.756140e-02   1.884333e-01   0.000000e+00
   6.967245e-04   5.810643e-02   0.000000e+00
  -1.536326e-02  -2.210777e-03   0.000000e+00
   4.413996e-02   6.181903e-02   0.000000e+00
  -1.209390e-01  -3.185781e-02   0.000000e+00
  -8.995260e-02  -9.786763e-02   0.000000e+00
   6.313120e-02  -9.335603e-02   0.000000e+00
