# vtk DataFile Version 2.0
Induction_Arrow_Iter9_PE2
ASCII
DATASET UNSTRUCTURED_GRID
POINTS 46 float
  -2.052000e+03    1.667000e+03   -4.526633e+02
  -1.265000e+03    2.333000e+03   -4.555885e+02
  -9.840000e+02    2.568000e+03   -4.612271e+02
   1.700000e+03   -1.757000e+03   -5.237752e+02
  -1.152000e+03    1.382000e+03   -4.549280e+02
   3.187000e+03    1.067000e+03   -8.370176e+02
   4.716000e+03    9.370000e+02   -8.015281e+02
  -1.855000e+03    5.260000e+02   -5.147377e+02
  -1.420000e+02   -1.905000e+03   -4.746368e+02
  -5.800000e+01    1.069000e+03   -4.555494e+02
  -2.802000e+03    3.302000e+03   -4.314337e+02
  -5.640000e+03   -1.532000e+03   -4.911771e+02
  -8.030000e+02   -5.610000e+02   -5.280929e+02
   1.008000e+03    4.130000e+02   -5.983358e+02
   1.960000e+02    2.246000e+03   -5.219413e+02
  -3.457000e+03    8.320000e+02   -4.470735e+02
   5.640000e+03    2.452000e+03   -7.393049e+02
  -1.334000e+03    3.332000e+03   -4.456136e+02
   1.244000e+03    1.880000e+03   -6.331107e+02
  -2.680000e+02    2.144000e+03   -4.891390e+02
  -4.063000e+03    6.620000e+02   -4.746103e+02
  -1.258000e+03    6.330000e+02   -4.856841e+02
  -2.141000e+03    3.194000e+03   -4.348461e+02
  -3.469000e+03   -3.059000e+03   -6.067613e+02
  -1.604000e+03   -2.570000e+02   -5.141257e+02
  -1.454000e+03    2.220000e+02   -5.386025e+02
   1.864000e+03    1.270000e+02   -7.404291e+02
   2.449000e+03    5.590000e+02   -7.805292e+02
  -1.834000e+03   -1.554000e+03   -6.273074e+02
   1.807000e+03    2.297000e+03   -6.825557e+02
  -2.560000e+03   -1.783000e+03   -6.131337e+02
  -2.741000e+03   -5.010000e+02   -5.080000e+02
   2.884000e+03   -2.179000e+03   -5.274708e+02
  -6.120000e+02   -8.960000e+02   -5.895389e+02
  -1.985000e+03   -2.653000e+03   -5.598834e+02
  -3.390000e+03   -4.000000e+02   -4.982361e+02
   1.586000e+03    1.342000e+03   -6.618442e+02
   1.047000e+03    2.401000e+03   -5.426792e+02
   8.380000e+02   -1.300000e+03   -4.783644e+02
   2.569000e+03    2.441000e+03   -6.035668e+02
  -2.028000e+03    2.833000e+03   -4.322286e+02
  -1.086000e+03    1.998000e+03   -4.563301e+02
   1.514000e+03   -3.332000e+03   -5.646205e+02
   7.040000e+02    1.116000e+03   -5.365099e+02
   1.990000e+03    6.360000e+02   -7.085272e+02
   3.722000e+03   -1.700000e+02   -6.745213e+02
CELLS 46 92
1 0
1 1
1 2
1 3
1 4
1 5
1 6
1 7
1 8
1 9
1 10
1 11
1 12
1 13
1 14
1 15
1 16
1 17
1 18
1 19
1 20
1 21
1 22
1 23
1 24
1 25
1 26
1 27
1 28
1 29
1 30
1 31
1 32
1 33
1 34
1 35
1 36
1 37
1 38
1 39
1 40
1 41
1 42
1 43
1 44
1 45
CELL_TYPES 46
1
1
1
1
1
1
1
1
1
1
1
1
1
1
1
1
1
1
1
1
1
1
1
1
1
1
1
1
1
1
1
1
1
1
1
1
1
1
1
1
1
1
1
1
1
1
POINT_DATA 46
VECTORS Real_Arrow_3.981000e-01(Hz) float
   0.000000e+00   0.000000e+00   0.000000e+00
   0.000000e+00   0.000000e+00   0.000000e+00
   0.000000e+00   0.000000e+00   0.000000e+00
   7.053964e-03  -3.739791e-01   0.000000e+00
   0.000000e+00   0.000000e+00   0.000000e+00
   0.000000e+00   0.000000e+00   0.000000e+00
   0.000000e+00   0.000000e+00   0.000000e+00
   0.000000e+00   0.000000e+00   0.000000e+00
   0.000000e+00   0.000000e+00   0.000000e+00
  -1.184473e-01  -1.141341e-01   0.000000e+00
  -1.921067e-01   1.781612e-02   0.000000e+00
   0.000000e+00   0.000000e+00   0.000000e+00
   0.000000e+00   0.000000e+00   0.000000e+00
   0.000000e+00   0.000000e+00   0.000000e+00
   0.000000e+00   0.000000e+00   0.000000e+00
   0.000000e+00   0.000000e+00   0.000000e+00
   6.235109e-02  -9.376011e-02   0.000000e+00
   0.000000e+00   0.000000e+00   0.000000e+00
   0.000000e+00   0.000000e+00   0.000000e+00
   0.000000e+00   0.000000e+00   0.000000e+00
   0.000000e+00   0.000000e+00   0.000000e+00
   0.000000e+00   0.000000e+00   0.000000e+00
   0.000000e+00   0.000000e+00   0.000000e+00
   0.000000e+00   0.000000e+00   0.000000e+00
   0.000000e+00   0.000000e+00   0.000000e+00
   0.000000e+00   0.000000e+00   0.000000e+00
  -2.367414e-02  -1.868263e-01   0.000000e+00
   6.211013e-03  -1.533402e-01   0.000000e+00
   0.000000e+00   0.000000e+00   0.000000e+00
  -1.272820e-02  -1.024650e-01   0.000000e+00
   0.000000e+00   0.000000e+00   0.000000e+00
   0.000000e+00   0.000000e+00   0.000000e+00
   0.000000e+00   0.000000e+00   0.000000e+00
   8.525169e-03  -9.626611e-02   0.000000e+00
   0.000000e+00   0.000000e+00   0.000000e+00
   0.000000e+00   0.000000e+00   0.000000e+00
   0.000000e+00   0.000000e+00   0.000000e+00
   0.000000e+00   0.000000e+00   0.000000e+00
  -7.607435e-02  -3.048682e-01   0.000000e+00
  -6.814268e-02   1.139571e-01   0.000000e+00
  -1.284903e-01  -3.212421e-02   0.000000e+00
   0.000000e+00   0.000000e+00   0.000000e+00
   0.000000e+00   0.000000e+00   0.000000e+00
   0.000000e+00   0.000000e+00   0.000000e+00
   0.000000e+00   0.000000e+00   0.000000e+00
   0.000000e+00   0.000000e+00   0.000000e+00
VECTORS Imag_Arrow_3.981000e-01(Hz) float
   0.000000e+00   0.000000e+00   0.000000e+00
   0.000000e+00   0.000000e+00   0.000000e+00
   0.000000e+00   0.000000e+00   0.000000e+00
   6.680873e-02   6.327417e-02   0.000000e+00
   0.000000e+00   0.000000e+00   0.000000e+00
   0.000000e+00   0.000000e+00   0.000000e+00
   0.000000e+00   0.000000e+00   0.000000e+00
   0.000000e+00   0.000000e+00   0.000000e+00
   0.000000e+00   0.000000e+00   0.000000e+00
   9.242180e-02  -1.396658e-02   0.000000e+00
   7.429977e-02  -4.863937e-02   0.000000e+00
   0.000000e+00   0.000000e+00   0.000000e+00
   0.000000e+00   0.000000e+00   0.000000e+00
   0.000000e+00   0.000000e+00   0.000000e+00
   0.000000e+00   0.000000e+00   0.000000e+00
   0.000000e+00   0.000000e+00   0.000000e+00
   9.419165e-02  -1.719731e-02   0.000000e+00
   0.000000e+00   0.000000e+00   0.000000e+00
   0.000000e+00   0.000000e+00   0.000000e+00
   0.000000e+00   0.000000e+00   0.000000e+00
   0.000000e+00   0.000000e+00   0.000000e+00
   0.000000e+00   0.000000e+00   0.000000e+00
   0.000000e+00   0.000000e+00   0.000000e+00
   0.000000e+00   0.000000e+00   0.000000e+00
   0.000000e+00   0.000000e+00   0.000000e+00
   0.000000e+00   0.000000e+00   0.000000e+00
   9.067917e-02   4.691489e-03   0.000000e+00
   8.211183e-02  -8.168444e-03   0.000000e+00
   0.000000e+00   0.000000e+00   0.000000e+00
   7.487320e-02  -6.665740e-03   0.000000e+00
   0.000000e+00   0.000000e+00   0.000000e+00
   0.000000e+00   0.000000e+00   0.000000e+00
   0.000000e+00   0.000000e+00   0.000000e+00
   1.411141e-02  -2.979932e-02   0.000000e+00
   0.000000e+00   0.000000e+00   0.000000e+00
   0.000000e+00   0.000000e+00   0.000000e+00
   0.000000e+00   0.000000e+00   0.000000e+00
   0.000000e+00   0.000000e+00   0.000000e+00
   1.044303e-01   4.714255e-02   0.000000e+00
   9.261874e-02  -8.728427e-02   0.000000e+00
   5.731426e-02  -3.186298e-02   0.000000e+00
   0.000000e+00   0.000000e+00   0.000000e+00
   0.000000e+00   0.000000e+00   0.000000e+00
   0.000000e+00   0.000000e+00   0.000000e+00
   0.000000e+00   0.000000e+00   0.000000e+00
   0.000000e+00   0.000000e+00   0.000000e+00
VECTORS Real_Arrow_6.309500e-01(Hz) float
   0.000000e+00   0.000000e+00   0.000000e+00
  -1.806618e-01  -1.288193e-03   0.000000e+00
   0.000000e+00   0.000000e+00   0.000000e+00
  -1.613153e-02  -3.946120e-01   0.000000e+00
  -1.606060e-01  -9.209170e-02   0.000000e+00
   0.000000e+00   0.000000e+00   0.000000e+00
   1.000019e-01  -1.542543e-01   0.000000e+00
   0.000000e+00   0.000000e+00   0.000000e+00
   0.000000e+00   0.000000e+00   0.000000e+00
  -1.499151e-01  -1.089107e-01   0.000000e+00
  -2.159081e-01   3.610910e-02   0.000000e+00
   0.000000e+00   0.000000e+00   0.000000e+00
   0.000000e+00   0.000000e+00   0.000000e+00
  -1.597428e-01  -1.424303e-01   0.000000e+00
  -1.187370e-01  -2.786258e-02   0.000000e+00
   0.000000e+00   0.000000e+00   0.000000e+00
   3.450639e-02  -8.482888e-02   0.000000e+00
   0.000000e+00   0.000000e+00   0.000000e+00
   0.000000e+00   0.000000e+00   0.000000e+00
   0.000000e+00   0.000000e+00   0.000000e+00
   0.000000e+00   0.000000e+00   0.000000e+00
   0.000000e+00   0.000000e+00   0.000000e+00
  -1.660031e-01   1.940516e-02   0.000000e+00
   0.000000e+00   0.000000e+00   0.000000e+00
   0.000000e+00   0.000000e+00   0.000000e+00
   0.000000e+00   0.000000e+00   0.000000e+00
  -5.398048e-02  -1.895807e-01   0.000000e+00
  -2.108629e-02  -1.520886e-01   0.000000e+00
   0.000000e+00   0.000000e+00   0.000000e+00
  -3.937037e-02  -9.857074e-02   0.000000e+00
  -9.018064e-02  -6.721863e-02   0.000000e+00
  -1.784334e-01  -6.749351e-02   0.000000e+00
   0.000000e+00   0.000000e+00   0.000000e+00
   1.224806e-03  -9.049098e-02   0.000000e+00
   0.000000e+00   0.000000e+00   0.000000e+00
   0.000000e+00   0.000000e+00   0.000000e+00
  -1.201507e-01  -3.674365e-02   0.000000e+00
   0.000000e+00   0.000000e+00   0.000000e+00
   0.000000e+00   0.000000e+00   0.000000e+00
  -9.885070e-02   1.431424e-01   0.000000e+00
  -1.472254e-01  -1.844836e-02   0.000000e+00
  -1.542087e-01  -3.957317e-02   0.000000e+00
   0.000000e+00   0.000000e+00   0.000000e+00
  -1.540609e-01  -1.081895e-01   0.000000e+00
   0.000000e+00   0.000000e+00   0.000000e+00
   0.000000e+00   0.000000e+00   0.000000e+00
VECTORS Imag_Arrow_6.309500e-01(Hz) float
   0.000000e+00   0.000000e+00   0.000000e+00
   6.216208e-02  -5.318221e-02   0.000000e+00
   0.000000e+00   0.000000e+00   0.000000e+00
   5.252638e-02   6.413396e-02   0.000000e+00
   6.265586e-02  -1.300155e-02   0.000000e+00
   0.000000e+00   0.000000e+00   0.000000e+00
   4.560739e-02  -3.079147e-03   0.000000e+00
   0.000000e+00   0.000000e+00   0.000000e+00
   0.000000e+00   0.000000e+00   0.000000e+00
   7.504699e-02  -1.823090e-02   0.000000e+00
   5.293867e-02  -5.089117e-02   0.000000e+00
   0.000000e+00   0.000000e+00   0.000000e+00
   0.000000e+00   0.000000e+00   0.000000e+00
   1.186989e-01  -1.763976e-02   0.000000e+00
   5.451801e-02  -4.376486e-02   0.000000e+00
   0.000000e+00   0.000000e+00   0.000000e+00
   8.039718e-02  -1.727303e-02   0.000000e+00
   0.000000e+00   0.000000e+00   0.000000e+00
   0.000000e+00   0.000000e+00   0.000000e+00
   0.000000e+00   0.000000e+00   0.000000e+00
   0.000000e+00   0.000000e+00   0.000000e+00
   0.000000e+00   0.000000e+00   0.000000e+00
   3.904535e-02  -5.028334e-02   0.000000e+00
   0.000000e+00   0.000000e+00   0.000000e+00
   0.000000e+00   0.000000e+00   0.000000e+00
   0.000000e+00   0.000000e+00   0.000000e+00
   7.941810e-02  -2.080599e-03   0.000000e+00
   7.020848e-02  -1.700681e-02   0.000000e+00
   0.000000e+00   0.000000e+00   0.000000e+00
   6.003640e-02  -7.841132e-03   0.000000e+00
   3.672760e-02  -1.093395e-02   0.000000e+00
   7.255412e-02  -9.933882e-03   0.000000e+00
   0.000000e+00   0.000000e+00   0.000000e+00
  -2.797609e-03  -4.383337e-02   0.000000e+00
   0.000000e+00   0.000000e+00   0.000000e+00
   0.000000e+00   0.000000e+00   0.000000e+00
   9.173449e-02  -5.754300e-02   0.000000e+00
   0.000000e+00   0.000000e+00   0.000000e+00
   0.000000e+00   0.000000e+00   0.000000e+00
   7.274275e-02  -1.045914e-01   0.000000e+00
   3.692957e-02  -3.246054e-02   0.000000e+00
   5.511021e-02  -3.699338e-02   0.000000e+00
   0.000000e+00   0.000000e+00   0.000000e+00
   9.781673e-02  -1.890577e-02   0.000000e+00
   0.000000e+00   0.000000e+00   0.000000e+00
   0.000000e+00   0.000000e+00   0.000000e+00
VECTORS Real_Arrow_1.000000e+00(Hz) float
  -1.598716e-01  -6.977348e-02   0.000000e+00
  -2.003250e-01   1.714997e-02   0.000000e+00
   0.000000e+00   0.000000e+00   0.000000e+00
  -3.300836e-02  -4.190534e-01   0.000000e+00
  -1.809934e-01  -8.591931e-02   0.000000e+00
   0.000000e+00   0.000000e+00   0.000000e+00
   8.905106e-02  -1.530470e-01   0.000000e+00
  -1.910792e-01  -2.895013e-02   0.000000e+00
   0.000000e+00   0.000000e+00   0.000000e+00
  -1.750239e-01  -1.024602e-01   0.000000e+00
  -2.314104e-01   5.624829e-02   0.000000e+00
  -2.813300e-01  -9.110036e-02   0.000000e+00
   0.000000e+00   0.000000e+00   0.000000e+00
  -1.974303e-01  -1.393313e-01   0.000000e+00
   0.000000e+00   0.000000e+00   0.000000e+00
   0.000000e+00   0.000000e+00   0.000000e+00
   1.587091e-02  -7.569496e-02   0.000000e+00
   0.000000e+00   0.000000e+00   0.000000e+00
   0.000000e+00   0.000000e+00   0.000000e+00
   0.000000e+00   0.000000e+00   0.000000e+00
   0.000000e+00   0.000000e+00   0.000000e+00
   0.000000e+00   0.000000e+00   0.000000e+00
  -1.769613e-01   3.897273e-02   0.000000e+00
   0.000000e+00   0.000000e+00   0.000000e+00
   0.000000e+00   0.000000e+00   0.000000e+00
   0.000000e+00   0.000000e+00   0.000000e+00
  -7.865002e-02  -1.918581e-01   0.000000e+00
  -4.202626e-02  -1.491674e-01   0.000000e+00
   0.000000e+00   0.000000e+00   0.000000e+00
  -6.042571e-02  -9.508334e-02   0.000000e+00
  -1.045125e-01  -6.589955e-02   0.000000e+00
  -2.025349e-01  -6.669486e-02   0.000000e+00
   0.000000e+00   0.000000e+00   0.000000e+00
  -1.351510e-03  -8.085519e-02   0.000000e+00
   0.000000e+00   0.000000e+00   0.000000e+00
   0.000000e+00   0.000000e+00   0.000000e+00
  -1.494167e-01  -2.062353e-02   0.000000e+00
   0.000000e+00   0.000000e+00   0.000000e+00
  -1.397608e-01  -3.381910e-01   0.000000e+00
  -1.217292e-01   1.852368e-01   0.000000e+00
  -1.577903e-01  -3.563391e-03   0.000000e+00
  -1.723224e-01  -2.568823e-02   0.000000e+00
   0.000000e+00   0.000000e+00   0.000000e+00
  -1.863894e-01  -1.013412e-01   0.000000e+00
   0.000000e+00   0.000000e+00   0.000000e+00
   0.000000e+00   0.000000e+00   0.000000e+00
VECTORS Imag_Arrow_1.000000e+00(Hz) float
   2.171211e-02  -9.257531e-03   0.000000e+00
   3.667692e-02  -5.910923e-02   0.000000e+00
   0.000000e+00   0.000000e+00   0.000000e+00
   3.358477e-02   6.309095e-02   0.000000e+00
   4.046189e-02  -1.125767e-02   0.000000e+00
   0.000000e+00   0.000000e+00   0.000000e+00
   3.080363e-02  -6.219934e-03   0.000000e+00
   3.782984e-02  -5.101347e-02   0.000000e+00
   0.000000e+00   0.000000e+00   0.000000e+00
   5.212271e-02  -2.209176e-02   0.000000e+00
   2.717247e-02  -4.931174e-02   0.000000e+00
   4.405396e-02  -5.934350e-03   0.000000e+00
   0.000000e+00   0.000000e+00   0.000000e+00
   1.056255e-01  -2.776421e-02   0.000000e+00
   0.000000e+00   0.000000e+00   0.000000e+00
   0.000000e+00   0.000000e+00   0.000000e+00
   6.735504e-02  -1.360791e-02   0.000000e+00
   0.000000e+00   0.000000e+00   0.000000e+00
   0.000000e+00   0.000000e+00   0.000000e+00
   0.000000e+00   0.000000e+00   0.000000e+00
   0.000000e+00   0.000000e+00   0.000000e+00
   0.000000e+00   0.000000e+00   0.000000e+00
   1.279862e-02  -5.075136e-02   0.000000e+00
   0.000000e+00   0.000000e+00   0.000000e+00
   0.000000e+00   0.000000e+00   0.000000e+00
   0.000000e+00   0.000000e+00   0.000000e+00
   6.438940e-02  -1.133002e-02   0.000000e+00
   5.494847e-02  -2.849485e-02   0.000000e+00
   0.000000e+00   0.000000e+00   0.000000e+00
   3.939226e-02  -6.857457e-03   0.000000e+00
   2.780193e-02  -1.550015e-02   0.000000e+00
   6.428996e-02  -1.157009e-02   0.000000e+00
   0.000000e+00   0.000000e+00   0.000000e+00
  -2.607419e-02  -6.354915e-02   0.000000e+00
   0.000000e+00   0.000000e+00   0.000000e+00
   0.000000e+00   0.000000e+00   0.000000e+00
   7.320168e-02  -7.523429e-02   0.000000e+00
   0.000000e+00   0.000000e+00   0.000000e+00
   8.311161e-02   5.113701e-02   0.000000e+00
   4.853715e-02  -1.218244e-01   0.000000e+00
   1.221109e-02  -2.855820e-02   0.000000e+00
   2.986365e-02  -3.972808e-02   0.000000e+00
   0.000000e+00   0.000000e+00   0.000000e+00
   7.793867e-02  -2.327816e-02   0.000000e+00
   0.000000e+00   0.000000e+00   0.000000e+00
   0.000000e+00   0.000000e+00   0.000000e+00
