# vtk DataFile Version 2.0
Induction_Arrow_Iter2_PE1
ASCII
DATASET UNSTRUCTURED_GRID
POINTS 46 float
  -2.052000e+03    1.667000e+03   -4.526633e+02
  -1.265000e+03    2.333000e+03   -4.555885e+02
  -9.840000e+02    2.568000e+03   -4.612271e+02
   1.700000e+03   -1.757000e+03   -5.237752e+02
  -1.152000e+03    1.382000e+03   -4.549280e+02
   3.187000e+03    1.067000e+03   -8.370176e+02
   4.716000e+03    9.370000e+02   -8.015281e+02
  -1.855000e+03    5.260000e+02   -5.147377e+02
  -1.420000e+02   -1.905000e+03   -4.746368e+02
  -5.800000e+01    1.069000e+03   -4.555494e+02
  -2.802000e+03    3.302000e+03   -4.314337e+02
  -5.640000e+03   -1.532000e+03   -4.911771e+02
  -8.030000e+02   -5.610000e+02   -5.280929e+02
   1.008000e+03    4.130000e+02   -5.983358e+02
   1.960000e+02    2.246000e+03   -5.219413e+02
  -3.457000e+03    8.320000e+02   -4.470735e+02
   5.640000e+03    2.452000e+03   -7.393049e+02
  -1.334000e+03    3.332000e+03   -4.456136e+02
   1.244000e+03    1.880000e+03   -6.331107e+02
  -2.680000e+02    2.144000e+03   -4.891390e+02
  -4.063000e+03    6.620000e+02   -4.746103e+02
  -1.258000e+03    6.330000e+02   -4.856841e+02
  -2.141000e+03    3.194000e+03   -4.348461e+02
  -3.469000e+03   -3.059000e+03   -6.067613e+02
  -1.604000e+03   -2.570000e+02   -5.141257e+02
  -1.454000e+03    2.220000e+02   -5.386025e+02
   1.864000e+03    1.270000e+02   -7.404291e+02
   2.449000e+03    5.590000e+02   -7.805292e+02
  -1.834000e+03   -1.554000e+03   -6.273074e+02
   1.807000e+03    2.297000e+03   -6.825557e+02
  -2.560000e+03   -1.783000e+03   -6.131337e+02
  -2.741000e+03   -5.010000e+02   -5.080000e+02
   2.884000e+03   -2.179000e+03   -5.274708e+02
  -6.120000e+02   -8.960000e+02   -5.895389e+02
  -1.985000e+03   -2.653000e+03   -5.598834e+02
  -3.390000e+03   -4.000000e+02   -4.982361e+02
   1.586000e+03    1.342000e+03   -6.618442e+02
   1.047000e+03    2.401000e+03   -5.426792e+02
   8.380000e+02   -1.300000e+03   -4.783644e+02
   2.569000e+03    2.441000e+03   -6.035668e+02
  -2.028000e+03    2.833000e+03   -4.322286e+02
  -1.086000e+03    1.998000e+03   -4.563301e+02
   1.514000e+03   -3.332000e+03   -5.646205e+02
   7.040000e+02    1.116000e+03   -5.365099e+02
   1.990000e+03    6.360000e+02   -7.085272e+02
   3.722000e+03   -1.700000e+02   -6.745213e+02
CELLS 46 92
1 0
1 1
1 2
1 3
1 4
1 5
1 6
1 7
1 8
1 9
1 10
1 11
1 12
1 13
1 14
1 15
1 16
1 17
1 18
1 19
1 20
1 21
1 22
1 23
1 24
1 25
1 26
1 27
1 28
1 29
1 30
1 31
1 32
1 33
1 34
1 35
1 36
1 37
1 38
1 39
1 40
1 41
1 42
1 43
1 44
1 45
CELL_TYPES 46
1
1
1
1
1
1
1
1
1
1
1
1
1
1
1
1
1
1
1
1
1
1
1
1
1
1
1
1
1
1
1
1
1
1
1
1
1
1
1
1
1
1
1
1
1
1
POINT_DATA 46
VECTORS Real_Arrow_3.981000e-01(Hz) float
   0.000000e+00   0.000000e+00   0.000000e+00
   0.000000e+00   0.000000e+00   0.000000e+00
   0.000000e+00   0.000000e+00   0.000000e+00
   3.562302e-03  -3.662426e-01   0.000000e+00
   0.000000e+00   0.000000e+00   0.000000e+00
   0.000000e+00   0.000000e+00   0.000000e+00
   0.000000e+00   0.000000e+00   0.000000e+00
   0.000000e+00   0.000000e+00   0.000000e+00
   0.000000e+00   0.000000e+00   0.000000e+00
  -1.177171e-01  -1.109498e-01   0.000000e+00
  -1.745944e-01   7.344196e-03   0.000000e+00
   0.000000e+00   0.000000e+00   0.000000e+00
   0.000000e+00   0.000000e+00   0.000000e+00
   0.000000e+00   0.000000e+00   0.000000e+00
   0.000000e+00   0.000000e+00   0.000000e+00
   0.000000e+00   0.000000e+00   0.000000e+00
   6.834260e-02  -7.942742e-02   0.000000e+00
   0.000000e+00   0.000000e+00   0.000000e+00
   0.000000e+00   0.000000e+00   0.000000e+00
   0.000000e+00   0.000000e+00   0.000000e+00
   0.000000e+00   0.000000e+00   0.000000e+00
   0.000000e+00   0.000000e+00   0.000000e+00
   0.000000e+00   0.000000e+00   0.000000e+00
   0.000000e+00   0.000000e+00   0.000000e+00
   0.000000e+00   0.000000e+00   0.000000e+00
   0.000000e+00   0.000000e+00   0.000000e+00
  -2.479979e-02  -1.810730e-01   0.000000e+00
   4.226738e-03  -1.479726e-01   0.000000e+00
   0.000000e+00   0.000000e+00   0.000000e+00
  -1.310138e-02  -7.268979e-02   0.000000e+00
   0.000000e+00   0.000000e+00   0.000000e+00
   0.000000e+00   0.000000e+00   0.000000e+00
   0.000000e+00   0.000000e+00   0.000000e+00
  -1.654863e-03  -1.001755e-01   0.000000e+00
   0.000000e+00   0.000000e+00   0.000000e+00
   0.000000e+00   0.000000e+00   0.000000e+00
   0.000000e+00   0.000000e+00   0.000000e+00
   0.000000e+00   0.000000e+00   0.000000e+00
  -7.831224e-02  -2.972404e-01   0.000000e+00
  -6.815113e-02   1.039729e-01   0.000000e+00
  -1.155063e-01  -3.754163e-02   0.000000e+00
   0.000000e+00   0.000000e+00   0.000000e+00
   0.000000e+00   0.000000e+00   0.000000e+00
   0.000000e+00   0.000000e+00   0.000000e+00
   0.000000e+00   0.000000e+00   0.000000e+00
   0.000000e+00   0.000000e+00   0.000000e+00
VECTORS Imag_Arrow_3.981000e-01(Hz) float
   0.000000e+00   0.000000e+00   0.000000e+00
   0.000000e+00   0.000000e+00   0.000000e+00
   0.000000e+00   0.000000e+00   0.000000e+00
   7.474593e-02   6.211196e-02   0.000000e+00
   0.000000e+00   0.000000e+00   0.000000e+00
   0.000000e+00   0.000000e+00   0.000000e+00
   0.000000e+00   0.000000e+00   0.000000e+00
   0.000000e+00   0.000000e+00   0.000000e+00
   0.000000e+00   0.000000e+00   0.000000e+00
   9.799474e-02  -1.648931e-02   0.000000e+00
   7.762900e-02  -5.163524e-02   0.000000e+00
   0.000000e+00   0.000000e+00   0.000000e+00
   0.000000e+00   0.000000e+00   0.000000e+00
   0.000000e+00   0.000000e+00   0.000000e+00
   0.000000e+00   0.000000e+00   0.000000e+00
   0.000000e+00   0.000000e+00   0.000000e+00
   9.697253e-02  -2.213074e-02   0.000000e+00
   0.000000e+00   0.000000e+00   0.000000e+00
   0.000000e+00   0.000000e+00   0.000000e+00
   0.000000e+00   0.000000e+00   0.000000e+00
   0.000000e+00   0.000000e+00   0.000000e+00
   0.000000e+00   0.000000e+00   0.000000e+00
   0.000000e+00   0.000000e+00   0.000000e+00
   0.000000e+00   0.000000e+00   0.000000e+00
   0.000000e+00   0.000000e+00   0.000000e+00
   0.000000e+00   0.000000e+00   0.000000e+00
   9.624990e-02   2.704039e-03   0.000000e+00
   8.781459e-02  -9.934823e-03   0.000000e+00
   0.000000e+00   0.000000e+00   0.000000e+00
   7.606940e-02  -1.755038e-02   0.000000e+00
   0.000000e+00   0.000000e+00   0.000000e+00
   0.000000e+00   0.000000e+00   0.000000e+00
   0.000000e+00   0.000000e+00   0.000000e+00
   2.376271e-02  -3.149542e-02   0.000000e+00
   0.000000e+00   0.000000e+00   0.000000e+00
   0.000000e+00   0.000000e+00   0.000000e+00
   0.000000e+00   0.000000e+00   0.000000e+00
   0.000000e+00   0.000000e+00   0.000000e+00
   1.104538e-01   4.469274e-02   0.000000e+00
   9.781202e-02  -8.339252e-02   0.000000e+00
   6.085232e-02  -3.517579e-02   0.000000e+00
   0.000000e+00   0.000000e+00   0.000000e+00
   0.000000e+00   0.000000e+00   0.000000e+00
   0.000000e+00   0.000000e+00   0.000000e+00
   0.000000e+00   0.000000e+00   0.000000e+00
   0.000000e+00   0.000000e+00   0.000000e+00
VECTORS Real_Arrow_6.309500e-01(Hz) float
   0.000000e+00   0.000000e+00   0.000000e+00
  -1.726891e-01  -4.876562e-03   0.000000e+00
   0.000000e+00   0.000000e+00   0.000000e+00
  -2.269649e-02  -3.885908e-01   0.000000e+00
  -1.583646e-01  -9.440303e-02   0.000000e+00
   0.000000e+00   0.000000e+00   0.000000e+00
   9.665115e-02  -1.514734e-01   0.000000e+00
   0.000000e+00   0.000000e+00   0.000000e+00
   0.000000e+00   0.000000e+00   0.000000e+00
  -1.513940e-01  -1.065049e-01   0.000000e+00
  -1.990301e-01   2.531635e-02   0.000000e+00
   0.000000e+00   0.000000e+00   0.000000e+00
   0.000000e+00   0.000000e+00   0.000000e+00
  -1.628247e-01  -1.374850e-01   0.000000e+00
  -1.116499e-01  -2.925019e-02   0.000000e+00
   0.000000e+00   0.000000e+00   0.000000e+00
   3.851698e-02  -7.009608e-02   0.000000e+00
   0.000000e+00   0.000000e+00   0.000000e+00
   0.000000e+00   0.000000e+00   0.000000e+00
   0.000000e+00   0.000000e+00   0.000000e+00
   0.000000e+00   0.000000e+00   0.000000e+00
   0.000000e+00   0.000000e+00   0.000000e+00
  -1.523208e-01   1.377557e-02   0.000000e+00
   0.000000e+00   0.000000e+00   0.000000e+00
   0.000000e+00   0.000000e+00   0.000000e+00
   0.000000e+00   0.000000e+00   0.000000e+00
  -5.745378e-02  -1.849420e-01   0.000000e+00
  -2.541714e-02  -1.477885e-01   0.000000e+00
   0.000000e+00   0.000000e+00   0.000000e+00
  -4.023811e-02  -6.659136e-02   0.000000e+00
  -9.803194e-02  -7.460922e-02   0.000000e+00
  -1.833712e-01  -7.420099e-02   0.000000e+00
   0.000000e+00   0.000000e+00   0.000000e+00
  -1.141340e-02  -9.506135e-02   0.000000e+00
   0.000000e+00   0.000000e+00   0.000000e+00
   0.000000e+00   0.000000e+00   0.000000e+00
  -1.196330e-01  -3.454909e-02   0.000000e+00
   0.000000e+00   0.000000e+00   0.000000e+00
   0.000000e+00   0.000000e+00   0.000000e+00
  -1.011797e-01   1.306177e-01   0.000000e+00
  -1.350437e-01  -2.427280e-02   0.000000e+00
  -1.496927e-01  -4.138151e-02   0.000000e+00
   0.000000e+00   0.000000e+00   0.000000e+00
  -1.525293e-01  -1.021161e-01   0.000000e+00
   0.000000e+00   0.000000e+00   0.000000e+00
   0.000000e+00   0.000000e+00   0.000000e+00
VECTORS Imag_Arrow_6.309500e-01(Hz) float
   0.000000e+00   0.000000e+00   0.000000e+00
   6.412542e-02  -5.477474e-02   0.000000e+00
   0.000000e+00   0.000000e+00   0.000000e+00
   5.869187e-02   6.606468e-02   0.000000e+00
   6.570175e-02  -1.523560e-02   0.000000e+00
   0.000000e+00   0.000000e+00   0.000000e+00
   4.811729e-02  -2.009485e-03   0.000000e+00
   0.000000e+00   0.000000e+00   0.000000e+00
   0.000000e+00   0.000000e+00   0.000000e+00
   7.944910e-02  -1.932323e-02   0.000000e+00
   5.668234e-02  -5.482752e-02   0.000000e+00
   0.000000e+00   0.000000e+00   0.000000e+00
   0.000000e+00   0.000000e+00   0.000000e+00
   1.226709e-01  -1.762621e-02   0.000000e+00
   5.729046e-02  -4.339362e-02   0.000000e+00
   0.000000e+00   0.000000e+00   0.000000e+00
   8.413674e-02  -1.983373e-02   0.000000e+00
   0.000000e+00   0.000000e+00   0.000000e+00
   0.000000e+00   0.000000e+00   0.000000e+00
   0.000000e+00   0.000000e+00   0.000000e+00
   0.000000e+00   0.000000e+00   0.000000e+00
   0.000000e+00   0.000000e+00   0.000000e+00
   4.290882e-02  -5.412266e-02   0.000000e+00
   0.000000e+00   0.000000e+00   0.000000e+00
   0.000000e+00   0.000000e+00   0.000000e+00
   0.000000e+00   0.000000e+00   0.000000e+00
   8.361499e-02  -1.360462e-03   0.000000e+00
   7.466527e-02  -1.605797e-02   0.000000e+00
   0.000000e+00   0.000000e+00   0.000000e+00
   5.916370e-02  -1.823053e-02   0.000000e+00
   4.073397e-02  -1.252703e-02   0.000000e+00
   7.237923e-02  -1.621436e-02   0.000000e+00
   0.000000e+00   0.000000e+00   0.000000e+00
   3.705046e-03  -4.375706e-02   0.000000e+00
   0.000000e+00   0.000000e+00   0.000000e+00
   0.000000e+00   0.000000e+00   0.000000e+00
   9.377024e-02  -5.637403e-02   0.000000e+00
   0.000000e+00   0.000000e+00   0.000000e+00
   0.000000e+00   0.000000e+00   0.000000e+00
   7.809221e-02  -9.768297e-02   0.000000e+00
   4.007010e-02  -3.608661e-02   0.000000e+00
   5.844153e-02  -3.919855e-02   0.000000e+00
   0.000000e+00   0.000000e+00   0.000000e+00
   9.983469e-02  -2.046033e-02   0.000000e+00
   0.000000e+00   0.000000e+00   0.000000e+00
   0.000000e+00   0.000000e+00   0.000000e+00
VECTORS Real_Arrow_1.000000e+00(Hz) float
  -1.587040e-01  -7.480470e-02   0.000000e+00
  -1.926241e-01   1.368152e-02   0.000000e+00
   0.000000e+00   0.000000e+00   0.000000e+00
  -4.170841e-02  -4.151579e-01   0.000000e+00
  -1.795252e-01  -8.815609e-02   0.000000e+00
   0.000000e+00   0.000000e+00   0.000000e+00
   8.459737e-02  -1.520063e-01   0.000000e+00
  -1.938718e-01  -4.046377e-02   0.000000e+00
   0.000000e+00   0.000000e+00   0.000000e+00
  -1.781530e-01  -1.007074e-01   0.000000e+00
  -2.150482e-01   4.653961e-02   0.000000e+00
  -2.810313e-01  -9.207448e-02   0.000000e+00
   0.000000e+00   0.000000e+00   0.000000e+00
  -2.023470e-01  -1.357940e-01   0.000000e+00
   0.000000e+00   0.000000e+00   0.000000e+00
   0.000000e+00   0.000000e+00   0.000000e+00
   1.773601e-02  -6.101524e-02   0.000000e+00
   0.000000e+00   0.000000e+00   0.000000e+00
   0.000000e+00   0.000000e+00   0.000000e+00
   0.000000e+00   0.000000e+00   0.000000e+00
   0.000000e+00   0.000000e+00   0.000000e+00
   0.000000e+00   0.000000e+00   0.000000e+00
  -1.639499e-01   3.434722e-02   0.000000e+00
   0.000000e+00   0.000000e+00   0.000000e+00
   0.000000e+00   0.000000e+00   0.000000e+00
   0.000000e+00   0.000000e+00   0.000000e+00
  -8.389334e-02  -1.889281e-01   0.000000e+00
  -4.815108e-02  -1.465796e-01   0.000000e+00
   0.000000e+00   0.000000e+00   0.000000e+00
  -6.056681e-02  -5.965758e-02   0.000000e+00
  -1.121010e-01  -7.351987e-02   0.000000e+00
  -2.068733e-01  -7.151439e-02   0.000000e+00
   0.000000e+00   0.000000e+00   0.000000e+00
  -1.472209e-02  -8.649694e-02   0.000000e+00
   0.000000e+00   0.000000e+00   0.000000e+00
   0.000000e+00   0.000000e+00   0.000000e+00
  -1.499187e-01  -1.989747e-02   0.000000e+00
   0.000000e+00   0.000000e+00   0.000000e+00
  -1.458171e-01  -3.333704e-01   0.000000e+00
  -1.264298e-01   1.675807e-01   0.000000e+00
  -1.460883e-01  -8.577539e-03   0.000000e+00
  -1.685939e-01  -2.735435e-02   0.000000e+00
   0.000000e+00   0.000000e+00   0.000000e+00
  -1.859341e-01  -9.612439e-02   0.000000e+00
   0.000000e+00   0.000000e+00   0.000000e+00
   0.000000e+00   0.000000e+00   0.000000e+00
VECTORS Imag_Arrow_1.000000e+00(Hz) float
   2.248580e-02  -1.488404e-02   0.000000e+00
   3.730105e-02  -6.159317e-02   0.000000e+00
   0.000000e+00   0.000000e+00   0.000000e+00
   3.691817e-02   6.626899e-02   0.000000e+00
   4.133540e-02  -1.447236e-02   0.000000e+00
   0.000000e+00   0.000000e+00   0.000000e+00
   3.098710e-02  -4.044817e-03   0.000000e+00
   3.620167e-02  -5.188740e-02   0.000000e+00
   0.000000e+00   0.000000e+00   0.000000e+00
   5.432970e-02  -2.333476e-02   0.000000e+00
   3.161526e-02  -5.573526e-02   0.000000e+00
   4.540163e-02  -1.462848e-02   0.000000e+00
   0.000000e+00   0.000000e+00   0.000000e+00
   1.070240e-01  -2.709178e-02   0.000000e+00
   0.000000e+00   0.000000e+00   0.000000e+00
   0.000000e+00   0.000000e+00   0.000000e+00
   7.059322e-02  -1.448051e-02   0.000000e+00
   0.000000e+00   0.000000e+00   0.000000e+00
   0.000000e+00   0.000000e+00   0.000000e+00
   0.000000e+00   0.000000e+00   0.000000e+00
   0.000000e+00   0.000000e+00   0.000000e+00
   0.000000e+00   0.000000e+00   0.000000e+00
   1.691615e-02  -5.655280e-02   0.000000e+00
   0.000000e+00   0.000000e+00   0.000000e+00
   0.000000e+00   0.000000e+00   0.000000e+00
   0.000000e+00   0.000000e+00   0.000000e+00
   6.604770e-02  -9.494260e-03   0.000000e+00
   5.707647e-02  -2.625366e-02   0.000000e+00
   0.000000e+00   0.000000e+00   0.000000e+00
   3.588322e-02  -1.798851e-02   0.000000e+00
   2.931723e-02  -1.674276e-02   0.000000e+00
   5.926749e-02  -1.975432e-02   0.000000e+00
   0.000000e+00   0.000000e+00   0.000000e+00
  -2.239229e-02  -6.267955e-02   0.000000e+00
   0.000000e+00   0.000000e+00   0.000000e+00
   0.000000e+00   0.000000e+00   0.000000e+00
   7.303932e-02  -7.295856e-02   0.000000e+00
   0.000000e+00   0.000000e+00   0.000000e+00
   8.355574e-02   5.232808e-02   0.000000e+00
   5.290548e-02  -1.129436e-01   0.000000e+00
   1.506984e-02  -3.414681e-02   0.000000e+00
   3.166037e-02  -4.288630e-02   0.000000e+00
   0.000000e+00   0.000000e+00   0.000000e+00
   7.762900e-02  -2.503546e-02   0.000000e+00
   0.000000e+00   0.000000e+00   0.000000e+00
   0.000000e+00   0.000000e+00   0.000000e+00
VECTORS Real_Arrow_1.584800e+00(Hz) float
  -1.633362e-01  -6.734034e-02   0.000000e+00
  -2.011189e-01   3.731601e-02   0.000000e+00
   0.000000e+00   0.000000e+00   0.000000e+00
   0.000000e+00   0.000000e+00   0.000000e+00
  -1.913257e-01  -8.068895e-02   0.000000e+00
  -3.347938e-02  -9.691048e-02   0.000000e+00
   8.227199e-02  -1.519869e-01   0.000000e+00
  -2.058211e-01  -2.278239e-02   0.000000e+00
   0.000000e+00   0.000000e+00   0.000000e+00
  -1.957434e-01  -9.209990e-02   0.000000e+00
  -2.201458e-01   7.114282e-02   0.000000e+00
  -3.059450e-01  -9.556266e-02   0.000000e+00
   0.000000e+00   0.000000e+00   0.000000e+00
  -2.370553e-01  -1.306802e-01   0.000000e+00
   0.000000e+00   0.000000e+00   0.000000e+00
   0.000000e+00   0.000000e+00   0.000000e+00
   4.799808e-03  -5.287252e-02   0.000000e+00
   0.000000e+00   0.000000e+00   0.000000e+00
   0.000000e+00   0.000000e+00   0.000000e+00
   0.000000e+00   0.000000e+00   0.000000e+00
   0.000000e+00   0.000000e+00   0.000000e+00
  -2.264456e-01  -8.609735e-02   0.000000e+00
  -1.636215e-01   5.872265e-02   0.000000e+00
   0.000000e+00   0.000000e+00   0.000000e+00
   0.000000e+00   0.000000e+00   0.000000e+00
   0.000000e+00   0.000000e+00   0.000000e+00
  -1.027462e-01  -1.909961e-01   0.000000e+00
  -6.261848e-02  -1.418173e-01   0.000000e+00
  -1.140238e-01  -7.573098e-02   0.000000e+00
  -7.147159e-02  -5.209089e-02   0.000000e+00
  -1.244256e-01  -6.996133e-02   0.000000e+00
  -2.282605e-01  -6.707808e-02   0.000000e+00
   4.986332e-02  -4.887123e-02   0.000000e+00
  -7.104468e-03  -6.982500e-02   0.000000e+00
   0.000000e+00   0.000000e+00   0.000000e+00
   0.000000e+00   0.000000e+00   0.000000e+00
  -1.727211e-01   2.750067e-03   0.000000e+00
  -1.417680e-01   5.198473e-03   0.000000e+00
  -1.707955e-01  -3.580049e-01   0.000000e+00
  -1.434646e-01   2.210045e-01   0.000000e+00
   0.000000e+00   0.000000e+00   0.000000e+00
  -1.765604e-01  -9.578075e-03   0.000000e+00
   0.000000e+00   0.000000e+00   0.000000e+00
  -2.115502e-01  -8.703206e-02   0.000000e+00
   0.000000e+00   0.000000e+00   0.000000e+00
   0.000000e+00   0.000000e+00   0.000000e+00
VECTORS Imag_Arrow_1.584800e+00(Hz) float
  -4.045721e-03  -1.077227e-02   0.000000e+00
   5.903084e-03  -6.634925e-02   0.000000e+00
   0.000000e+00   0.000000e+00   0.000000e+00
   0.000000e+00   0.000000e+00   0.000000e+00
   1.197995e-02  -1.160055e-02   0.000000e+00
   4.158225e-02  -4.276671e-02   0.000000e+00
   1.616812e-02  -7.963070e-03   0.000000e+00
   6.242991e-03  -6.434777e-02   0.000000e+00
   0.000000e+00   0.000000e+00   0.000000e+00
   2.278962e-02  -2.787176e-02   0.000000e+00
   4.145453e-03  -5.070626e-02   0.000000e+00
   1.408652e-02  -3.432633e-02   0.000000e+00
   0.000000e+00   0.000000e+00   0.000000e+00
   8.713682e-02  -4.217225e-02   0.000000e+00
   0.000000e+00   0.000000e+00   0.000000e+00
   0.000000e+00   0.000000e+00   0.000000e+00
   6.207435e-02  -5.290418e-03   0.000000e+00
   0.000000e+00   0.000000e+00   0.000000e+00
   0.000000e+00   0.000000e+00   0.000000e+00
   0.000000e+00   0.000000e+00   0.000000e+00
   0.000000e+00   0.000000e+00   0.000000e+00
   2.456781e-02  -2.755571e-02   0.000000e+00
  -1.129834e-02  -5.372982e-02   0.000000e+00
   0.000000e+00   0.000000e+00   0.000000e+00
   0.000000e+00   0.000000e+00   0.000000e+00
   0.000000e+00   0.000000e+00   0.000000e+00
   4.562245e-02  -2.410461e-02   0.000000e+00
   3.793756e-02  -4.226476e-02   0.000000e+00
   7.831305e-03  -3.303286e-02   0.000000e+00
   7.002189e-03  -1.606769e-02   0.000000e+00
   1.269490e-02  -2.485337e-02   0.000000e+00
   4.131617e-02  -2.639662e-02   0.000000e+00
  -5.266457e-02  -7.648430e-02   0.000000e+00
  -5.542654e-02  -8.962211e-02   0.000000e+00
   0.000000e+00   0.000000e+00   0.000000e+00
   0.000000e+00   0.000000e+00   0.000000e+00
   4.788701e-02  -9.414029e-02   0.000000e+00
   2.171375e-02  -5.145659e-02   0.000000e+00
   6.463251e-02   4.885188e-02   0.000000e+00
   2.297495e-02  -1.206418e-01   0.000000e+00
   0.000000e+00   0.000000e+00   0.000000e+00
  -3.303891e-04  -4.418662e-02   0.000000e+00
   0.000000e+00   0.000000e+00   0.000000e+00
   4.913170e-02  -3.042247e-02   0.000000e+00
   0.000000e+00   0.000000e+00   0.000000e+00
   0.000000e+00   0.000000e+00   0.000000e+00
VECTORS Real_Arrow_2.511800e+00(Hz) float
  -1.563033e-01  -6.048688e-02   0.000000e+00
  -1.946058e-01   6.502326e-02   0.000000e+00
   0.000000e+00   0.000000e+00   0.000000e+00
  -4.653009e-02  -4.737364e-01   0.000000e+00
  -1.906648e-01  -7.288267e-02   0.000000e+00
  -4.135758e-02  -8.022992e-02   0.000000e+00
   8.559390e-02  -1.496666e-01   0.000000e+00
  -2.046272e-01   4.030145e-03   0.000000e+00
   8.598974e-02  -1.976028e-01   0.000000e+00
  -2.009476e-01  -7.969840e-02   0.000000e+00
  -2.123525e-01   9.569873e-02   0.000000e+00
  -3.153761e-01  -8.398580e-02   0.000000e+00
   0.000000e+00   0.000000e+00   0.000000e+00
  -2.672275e-01  -1.178325e-01   0.000000e+00
  -1.311091e-01   2.766871e-02   0.000000e+00
   0.000000e+00   0.000000e+00   0.000000e+00
  -6.042838e-03  -4.679435e-02   0.000000e+00
   0.000000e+00   0.000000e+00   0.000000e+00
   0.000000e+00   0.000000e+00   0.000000e+00
   0.000000e+00   0.000000e+00   0.000000e+00
   0.000000e+00   0.000000e+00   0.000000e+00
  -2.320651e-01  -7.330485e-02   0.000000e+00
  -1.490400e-01   8.384391e-02   0.000000e+00
  -1.809967e-01  -1.256064e-01   0.000000e+00
   0.000000e+00   0.000000e+00   0.000000e+00
   0.000000e+00   0.000000e+00   0.000000e+00
  -1.142745e-01  -1.864692e-01   0.000000e+00
  -6.991156e-02  -1.288634e-01   0.000000e+00
  -1.153810e-01  -6.341788e-02   0.000000e+00
  -7.007891e-02  -4.433873e-02   0.000000e+00
  -1.300806e-01  -6.038484e-02   0.000000e+00
  -2.442330e-01  -5.823472e-02   0.000000e+00
   9.481142e-02  -9.640703e-03   0.000000e+00
   1.827463e-02  -3.820275e-02   0.000000e+00
  -6.624693e-02  -1.135726e-01   0.000000e+00
   0.000000e+00   0.000000e+00   0.000000e+00
  -1.873476e-01   3.721989e-02   0.000000e+00
  -1.456706e-01   2.550639e-02   0.000000e+00
  -1.884554e-01  -3.840291e-01   0.000000e+00
  -1.510754e-01   2.887728e-01   0.000000e+00
   0.000000e+00   0.000000e+00   0.000000e+00
  -1.699953e-01   1.105558e-02   0.000000e+00
   0.000000e+00   0.000000e+00   0.000000e+00
  -2.271624e-01  -7.355483e-02   0.000000e+00
   0.000000e+00   0.000000e+00   0.000000e+00
   0.000000e+00   0.000000e+00   0.000000e+00
VECTORS Imag_Arrow_2.511800e+00(Hz) float
  -3.197203e-02  -1.731378e-03   0.000000e+00
  -2.658215e-02  -6.370212e-02   0.000000e+00
   0.000000e+00   0.000000e+00   0.000000e+00
  -1.458337e-02   3.552725e-02   0.000000e+00
  -2.074001e-02  -3.675698e-03   0.000000e+00
   2.967856e-02  -5.458010e-02   0.000000e+00
   9.104060e-03  -1.339453e-02   0.000000e+00
  -2.991778e-02  -7.492399e-02   0.000000e+00
  -1.051665e-01  -5.857516e-03   0.000000e+00
  -1.442984e-02  -3.001020e-02   0.000000e+00
  -2.131997e-02  -3.397747e-02   0.000000e+00
  -3.923593e-02  -6.727388e-02   0.000000e+00
   0.000000e+00   0.000000e+00   0.000000e+00
   6.166216e-02  -6.211950e-02   0.000000e+00
  -3.896040e-02  -4.121139e-02   0.000000e+00
   0.000000e+00   0.000000e+00   0.000000e+00
   6.283797e-02   9.653676e-03   0.000000e+00
   0.000000e+00   0.000000e+00   0.000000e+00
   0.000000e+00   0.000000e+00   0.000000e+00
   0.000000e+00   0.000000e+00   0.000000e+00
   0.000000e+00   0.000000e+00   0.000000e+00
  -9.844741e-03  -2.953491e-02   0.000000e+00
  -3.640940e-02  -3.990277e-02   0.000000e+00
   3.440070e-03   4.301386e-03   0.000000e+00
   0.000000e+00   0.000000e+00   0.000000e+00
   0.000000e+00   0.000000e+00   0.000000e+00
   2.442395e-02  -4.615248e-02   0.000000e+00
   2.037184e-02  -6.348236e-02   0.000000e+00
  -1.759689e-02  -4.576053e-02   0.000000e+00
  -2.556399e-02  -1.131471e-02   0.000000e+00
  -1.193366e-02  -3.534333e-02   0.000000e+00
   1.522522e-02  -3.545789e-02   0.000000e+00
  -7.845594e-02  -9.737161e-02   0.000000e+00
  -9.187986e-02  -1.219805e-01   0.000000e+00
  -3.150532e-02   5.452372e-03   0.000000e+00
   0.000000e+00   0.000000e+00   0.000000e+00
   1.845048e-02  -1.155646e-01   0.000000e+00
  -1.400458e-02  -4.858050e-02   0.000000e+00
   4.324417e-02   3.402712e-02   0.000000e+00
  -1.365206e-02  -1.007169e-01   0.000000e+00
   0.000000e+00   0.000000e+00   0.000000e+00
  -3.476508e-02  -3.835796e-02   0.000000e+00
   0.000000e+00   0.000000e+00   0.000000e+00
   1.416385e-02  -3.359346e-02   0.000000e+00
   0.000000e+00   0.000000e+00   0.000000e+00
   0.000000e+00   0.000000e+00   0.000000e+00
VECTORS Real_Arrow_3.981000e+00(Hz) float
  -1.359416e-01  -5.948973e-02   0.000000e+00
  -1.717428e-01   8.863501e-02   0.000000e+00
   0.000000e+00   0.000000e+00   0.000000e+00
  -3.144849e-02  -4.912561e-01   0.000000e+00
  -1.750696e-01  -7.021042e-02   0.000000e+00
  -4.892111e-02  -5.658761e-02   0.000000e+00
   8.697550e-02  -1.451141e-01   0.000000e+00
  -1.843798e-01   3.857410e-02   0.000000e+00
   1.392791e-01  -1.919687e-01   0.000000e+00
  -1.904262e-01  -6.706790e-02   0.000000e+00
  -1.942875e-01   1.091245e-01   0.000000e+00
  -2.854935e-01  -4.243375e-02   0.000000e+00
   0.000000e+00   0.000000e+00   0.000000e+00
  -2.911538e-01  -9.472188e-02   0.000000e+00
  -1.082517e-01   4.330745e-02   0.000000e+00
   0.000000e+00   0.000000e+00   0.000000e+00
  -2.306711e-02  -4.688539e-02   0.000000e+00
   0.000000e+00   0.000000e+00   0.000000e+00
  -3.915378e-02  -2.174949e-02   0.000000e+00
   0.000000e+00   0.000000e+00   0.000000e+00
   0.000000e+00   0.000000e+00   0.000000e+00
  -2.218873e-01  -5.897959e-02   0.000000e+00
  -1.228338e-01   9.876360e-02   0.000000e+00
  -1.825971e-01  -1.239790e-01   0.000000e+00
   0.000000e+00   0.000000e+00   0.000000e+00
   0.000000e+00   0.000000e+00   0.000000e+00
  -1.200108e-01  -1.708684e-01   0.000000e+00
  -7.321796e-02  -1.048452e-01   0.000000e+00
  -1.022199e-01  -4.212974e-02   0.000000e+00
  -5.415954e-02  -3.790415e-02   0.000000e+00
   0.000000e+00   0.000000e+00   0.000000e+00
  -2.480238e-01  -4.258447e-02   0.000000e+00
   1.511025e-01   4.090962e-02   0.000000e+00
   6.548593e-02   1.322180e-02   0.000000e+00
  -4.752829e-02  -1.108318e-01   0.000000e+00
   0.000000e+00   0.000000e+00   0.000000e+00
   0.000000e+00   0.000000e+00   0.000000e+00
  -1.336768e-01   4.302274e-02   0.000000e+00
  -1.978479e-01  -4.050783e-01   0.000000e+00
  -1.415950e-01   3.436414e-01   0.000000e+00
  -1.069966e-01   2.946356e-02   0.000000e+00
  -1.468966e-01   2.720802e-02   0.000000e+00
   0.000000e+00   0.000000e+00   0.000000e+00
  -2.293092e-01  -5.885162e-02   0.000000e+00
  -1.409903e-01  -4.879462e-02   0.000000e+00
   7.020543e-02  -1.906728e-01   0.000000e+00
VECTORS Imag_Arrow_3.981000e+00(Hz) float
  -5.668227e-02   1.387840e-02   0.000000e+00
  -5.295085e-02  -4.949914e-02   0.000000e+00
   0.000000e+00   0.000000e+00   0.000000e+00
  -3.374641e-02  -1.771576e-03   0.000000e+00
  -5.250828e-02   1.169398e-02   0.000000e+00
   2.046229e-02  -6.140955e-02   0.000000e+00
   9.223951e-03  -1.839710e-02   0.000000e+00
  -6.689874e-02  -7.582654e-02   0.000000e+00
  -1.242651e-01  -1.350598e-02   0.000000e+00
  -5.432007e-02  -2.587973e-02   0.000000e+00
  -3.795602e-02  -2.655819e-03   0.000000e+00
  -1.024605e-01  -9.772345e-02   0.000000e+00
   0.000000e+00   0.000000e+00   0.000000e+00
   2.707000e-02  -8.260115e-02   0.000000e+00
  -7.173690e-02  -2.408121e-02   0.000000e+00
   0.000000e+00   0.000000e+00   0.000000e+00
   7.077087e-02   3.234049e-02   0.000000e+00
   0.000000e+00   0.000000e+00   0.000000e+00
  -1.037019e-01  -2.583668e-03   0.000000e+00
   0.000000e+00   0.000000e+00   0.000000e+00
   0.000000e+00   0.000000e+00   0.000000e+00
  -4.658643e-02  -2.481385e-02   0.000000e+00
  -5.018227e-02  -1.185493e-02   0.000000e+00
  -3.551677e-02  -2.321133e-03   0.000000e+00
   0.000000e+00   0.000000e+00   0.000000e+00
   0.000000e+00   0.000000e+00   0.000000e+00
   2.611160e-03  -7.261632e-02   0.000000e+00
   4.717995e-03  -8.515554e-02   0.000000e+00
  -4.444607e-02  -5.593063e-02   0.000000e+00
  -5.817359e-02  -2.434959e-03   0.000000e+00
   0.000000e+00   0.000000e+00   0.000000e+00
  -1.905127e-02  -4.387565e-02   0.000000e+00
  -6.560764e-02  -9.573051e-02   0.000000e+00
  -1.210075e-01  -1.508574e-01   0.000000e+00
  -5.707344e-02   5.882498e-03   0.000000e+00
   0.000000e+00   0.000000e+00   0.000000e+00
   0.000000e+00   0.000000e+00   0.000000e+00
  -5.156504e-02  -3.936055e-02   0.000000e+00
   2.098268e-02   4.347228e-03   0.000000e+00
  -5.870018e-02  -3.488840e-02   0.000000e+00
  -5.239424e-02   2.730320e-02   0.000000e+00
  -6.551183e-02  -2.130454e-02   0.000000e+00
   0.000000e+00   0.000000e+00   0.000000e+00
  -2.672826e-02  -3.028860e-02   0.000000e+00
   1.717137e-02  -1.283939e-01   0.000000e+00
  -8.052206e-03  -6.579577e-02   0.000000e+00
