# vtk DataFile Version 2.0
Induction_Arrow_Iter3_PE7
ASCII
DATASET UNSTRUCTURED_GRID
POINTS 46 float
  -2.052000e+03    1.667000e+03   -4.526633e+02
  -1.265000e+03    2.333000e+03   -4.555885e+02
  -9.840000e+02    2.568000e+03   -4.612271e+02
   1.700000e+03   -1.757000e+03   -5.237752e+02
  -1.152000e+03    1.382000e+03   -4.549280e+02
   3.187000e+03    1.067000e+03   -8.370176e+02
   4.716000e+03    9.370000e+02   -8.015281e+02
  -1.855000e+03    5.260000e+02   -5.147377e+02
  -1.420000e+02   -1.905000e+03   -4.746368e+02
  -5.800000e+01    1.069000e+03   -4.555494e+02
  -2.802000e+03    3.302000e+03   -4.314337e+02
  -5.640000e+03   -1.532000e+03   -4.911771e+02
  -8.030000e+02   -5.610000e+02   -5.280929e+02
   1.008000e+03    4.130000e+02   -5.983358e+02
   1.960000e+02    2.246000e+03   -5.219413e+02
  -3.457000e+03    8.320000e+02   -4.470735e+02
   5.640000e+03    2.452000e+03   -7.393049e+02
  -1.334000e+03    3.332000e+03   -4.456136e+02
   1.244000e+03    1.880000e+03   -6.331107e+02
  -2.680000e+02    2.144000e+03   -4.891390e+02
  -4.063000e+03    6.620000e+02   -4.746103e+02
  -1.258000e+03    6.330000e+02   -4.856841e+02
  -2.141000e+03    3.194000e+03   -4.348461e+02
  -3.469000e+03   -3.059000e+03   -6.067613e+02
  -1.604000e+03   -2.570000e+02   -5.141257e+02
  -1.454000e+03    2.220000e+02   -5.386025e+02
   1.864000e+03    1.270000e+02   -7.404291e+02
   2.449000e+03    5.590000e+02   -7.805292e+02
  -1.834000e+03   -1.554000e+03   -6.273074e+02
   1.807000e+03    2.297000e+03   -6.825557e+02
  -2.560000e+03   -1.783000e+03   -6.131337e+02
  -2.741000e+03   -5.010000e+02   -5.080000e+02
   2.884000e+03   -2.179000e+03   -5.274708e+02
  -6.120000e+02   -8.960000e+02   -5.895389e+02
  -1.985000e+03   -2.653000e+03   -5.598834e+02
  -3.390000e+03   -4.000000e+02   -4.982361e+02
   1.586000e+03    1.342000e+03   -6.618442e+02
   1.047000e+03    2.401000e+03   -5.426792e+02
   8.380000e+02   -1.300000e+03   -4.783644e+02
   2.569000e+03    2.441000e+03   -6.035668e+02
  -2.028000e+03    2.833000e+03   -4.322286e+02
  -1.086000e+03    1.998000e+03   -4.563301e+02
   1.514000e+03   -3.332000e+03   -5.646205e+02
   7.040000e+02    1.116000e+03   -5.365099e+02
   1.990000e+03    6.360000e+02   -7.085272e+02
   3.722000e+03   -1.700000e+02   -6.745213e+02
CELLS 46 92
1 0
1 1
1 2
1 3
1 4
1 5
1 6
1 7
1 8
1 9
1 10
1 11
1 12
1 13
1 14
1 15
1 16
1 17
1 18
1 19
1 20
1 21
1 22
1 23
1 24
1 25
1 26
1 27
1 28
1 29
1 30
1 31
1 32
1 33
1 34
1 35
1 36
1 37
1 38
1 39
1 40
1 41
1 42
1 43
1 44
1 45
CELL_TYPES 46
1
1
1
1
1
1
1
1
1
1
1
1
1
1
1
1
1
1
1
1
1
1
1
1
1
1
1
1
1
1
1
1
1
1
1
1
1
1
1
1
1
1
1
1
1
1
POINT_DATA 46
VECTORS Real_Arrow_3.981000e+02(Hz) float
  -4.037218e-02  -3.348719e-02   0.000000e+00
  -1.138997e-01   1.744145e-01   0.000000e+00
  -9.521242e-02   1.068384e-01   0.000000e+00
   6.951363e-02  -8.343602e-02   0.000000e+00
   3.139285e-02  -3.608750e-02   0.000000e+00
   2.868731e-02  -1.871771e-02   0.000000e+00
   2.131426e-02   3.904506e-02   0.000000e+00
   4.937254e-03   2.182117e-02   0.000000e+00
   0.000000e+00   0.000000e+00   0.000000e+00
   4.103051e-02   1.273399e-02   0.000000e+00
  -3.713932e-02  -3.047192e-02   0.000000e+00
  -5.841478e-02   1.262014e-02   0.000000e+00
   3.736871e-02   2.231320e-01   0.000000e+00
   1.630290e-01   6.228943e-02   0.000000e+00
   2.375664e-02   3.877778e-02   0.000000e+00
   1.475371e-01  -2.350835e-02   0.000000e+00
  -1.700111e-01  -2.786418e-01   0.000000e+00
  -3.545084e-02   1.409772e-01   0.000000e+00
   2.650728e-01  -1.620512e-01   0.000000e+00
   7.057596e-02   3.839626e-02   0.000000e+00
  -8.428636e-02   4.816676e-02   0.000000e+00
  -2.471623e-02  -5.113312e-02   0.000000e+00
  -9.327445e-02   1.199926e-01   0.000000e+00
   8.687270e-02  -1.310504e-01   0.000000e+00
  -2.557031e-02  -6.481680e-02   0.000000e+00
  -2.677763e-02  -4.476126e-02   0.000000e+00
   1.297277e-01   1.301043e-01   0.000000e+00
   4.797606e-02   1.360587e-01   0.000000e+00
   4.040568e-02  -2.040320e-02   0.000000e+00
   6.388942e-02  -9.336694e-02   0.000000e+00
   3.264583e-02  -5.244112e-02   0.000000e+00
   3.927113e-02  -1.312769e-02   0.000000e+00
   7.704775e-02   6.285420e-02   0.000000e+00
  -1.151262e-02  -2.629380e-04   0.000000e+00
   0.000000e+00   0.000000e+00   0.000000e+00
   1.256972e-01  -1.454553e-01   0.000000e+00
   2.574398e-02   1.452791e-01   0.000000e+00
   0.000000e+00   0.000000e+00   0.000000e+00
  -8.957192e-03   2.755525e-02   0.000000e+00
   1.162318e-01  -1.366736e-01   0.000000e+00
  -7.962546e-02  -1.941264e-01   0.000000e+00
   1.886872e-02  -2.269865e-02   0.000000e+00
  -1.168807e-01  -8.041701e-02   0.000000e+00
   1.080443e-01   1.522229e-02   0.000000e+00
   7.662611e-02   3.038403e-01   0.000000e+00
  -7.247036e-04   1.042773e-01   0.000000e+00
VECTORS Imag_Arrow_3.981000e+02(Hz) float
  -1.433057e-02  -4.429320e-02   0.000000e+00
  -5.273397e-02   4.736569e-02   0.000000e+00
  -1.206141e-02   3.225779e-02   0.000000e+00
  -2.112073e-02  -1.164447e-01   0.000000e+00
  -3.173813e-02  -6.238278e-02   0.000000e+00
  -7.268389e-03   1.374684e-02   0.000000e+00
   1.517786e-02  -2.429918e-02   0.000000e+00
  -6.467799e-02   5.103761e-02   0.000000e+00
   0.000000e+00   0.000000e+00   0.000000e+00
   2.935892e-02  -1.932136e-02   0.000000e+00
  -2.255673e-02   2.695999e-02   0.000000e+00
  -6.806121e-03  -1.037250e-02   0.000000e+00
   3.323805e-02   1.939588e-01   0.000000e+00
  -8.754936e-02   2.864375e-02   0.000000e+00
   2.515259e-02   3.905651e-03   0.000000e+00
   6.693548e-03   2.247926e-02   0.000000e+00
  -1.532729e-03  -3.376736e-02   0.000000e+00
   2.713840e-02  -4.573381e-03   0.000000e+00
   4.691180e-02  -8.731592e-03   0.000000e+00
  -8.529891e-03  -2.116697e-03   0.000000e+00
  -1.343464e-02  -1.054232e-02   0.000000e+00
   2.583662e-02   1.037112e-02   0.000000e+00
   1.458769e-02  -3.883952e-03   0.000000e+00
  -3.742982e-02  -3.155949e-02   0.000000e+00
  -3.860082e-02   2.455649e-02   0.000000e+00
   1.357629e-02  -2.565442e-02   0.000000e+00
  -6.465353e-02   1.873225e-02   0.000000e+00
  -1.675452e-03  -2.521565e-03   0.000000e+00
   6.769077e-03   6.326041e-02   0.000000e+00
  -1.076627e-03  -1.368270e-03   0.000000e+00
   9.837544e-04   2.417971e-02   0.000000e+00
  -1.413697e-02  -1.425042e-02   0.000000e+00
  -5.124724e-03   1.932044e-02   0.000000e+00
   8.510769e-02   1.301735e-01   0.000000e+00
   0.000000e+00   0.000000e+00   0.000000e+00
  -4.995680e-02  -4.050869e-02   0.000000e+00
  -1.103090e-02   5.950180e-02   0.000000e+00
   0.000000e+00   0.000000e+00   0.000000e+00
  -8.417140e-02  -6.356933e-02   0.000000e+00
  -4.366722e-02   5.993396e-02   0.000000e+00
   7.341827e-03   1.467276e-02   0.000000e+00
  -1.563796e-02   1.773759e-02   0.000000e+00
  -5.997063e-02  -5.772560e-03   0.000000e+00
  -5.538473e-02  -5.684002e-02   0.000000e+00
  -6.305664e-02   6.364177e-02   0.000000e+00
   9.962072e-03  -2.468803e-02   0.000000e+00
VECTORS Real_Arrow_6.309500e+02(Hz) float
  -3.488804e-02  -1.914619e-02   0.000000e+00
  -8.979633e-02   1.489135e-01   0.000000e+00
  -8.653344e-02   9.309532e-02   0.000000e+00
   7.769574e-02  -4.815556e-02   0.000000e+00
   4.002118e-02  -1.418311e-02   0.000000e+00
   2.564138e-02  -1.837336e-02   0.000000e+00
   2.107024e-02   3.592411e-02   0.000000e+00
   2.836560e-02   2.419513e-03   0.000000e+00
   0.000000e+00   0.000000e+00   0.000000e+00
   2.893643e-02   1.665670e-02   0.000000e+00
  -3.203569e-02  -4.042926e-02   0.000000e+00
  -5.506044e-02   1.615318e-02   0.000000e+00
   3.065133e-02   1.622629e-01   0.000000e+00
   1.781147e-01   4.995361e-02   0.000000e+00
   1.552452e-02   3.741737e-02   0.000000e+00
   1.400059e-01  -2.955443e-02   0.000000e+00
  -1.721296e-01  -2.652857e-01   0.000000e+00
  -4.333631e-02   1.367477e-01   0.000000e+00
   2.400651e-01  -1.552282e-01   0.000000e+00
   7.590250e-02   4.075932e-02   0.000000e+00
  -7.997782e-02   5.135136e-02   0.000000e+00
  -3.623976e-02  -5.751066e-02   0.000000e+00
  -9.864894e-02   1.164678e-01   0.000000e+00
   9.652878e-02  -1.143257e-01   0.000000e+00
  -1.234912e-02  -5.623122e-02   0.000000e+00
  -3.122120e-02  -3.348573e-02   0.000000e+00
   1.505812e-01   1.151220e-01   0.000000e+00
   4.111366e-02   1.355922e-01   0.000000e+00
   3.246237e-02  -4.997914e-02   0.000000e+00
   6.689751e-02  -9.576466e-02   0.000000e+00
   2.897073e-02  -6.054552e-02   0.000000e+00
   3.092870e-02  -8.290415e-03   0.000000e+00
   7.727071e-02   5.739622e-02   0.000000e+00
  -3.469021e-02  -4.168089e-02   0.000000e+00
  -8.539700e-03  -2.622819e-02   0.000000e+00
   1.340474e-01  -1.298468e-01   0.000000e+00
   3.014832e-02   1.402603e-01   0.000000e+00
   0.000000e+00   0.000000e+00   0.000000e+00
   1.974094e-02   4.165930e-02   0.000000e+00
   1.300492e-01  -1.451819e-01   0.000000e+00
  -8.058109e-02  -1.946622e-01   0.000000e+00
   2.111627e-02  -2.928694e-02   0.000000e+00
  -8.832659e-02  -7.094544e-02   0.000000e+00
   1.236671e-01   3.425294e-02   0.000000e+00
   9.434512e-02   2.699676e-01   0.000000e+00
   1.248658e-03   1.072533e-01   0.000000e+00
VECTORS Imag_Arrow_6.309500e+02(Hz) float
  -1.215090e-02  -3.743616e-02   0.000000e+00
  -5.233212e-02   5.306416e-02   0.000000e+00
  -2.304307e-02   3.749474e-02   0.000000e+00
  -1.769078e-02  -1.141457e-01   0.000000e+00
  -2.348887e-02  -4.987322e-02   0.000000e+00
  -1.331482e-02   1.177575e-02   0.000000e+00
   7.165994e-03  -9.450853e-03   0.000000e+00
  -5.948037e-02   5.224780e-02   0.000000e+00
   0.000000e+00   0.000000e+00   0.000000e+00
   2.688251e-02  -1.307061e-02   0.000000e+00
  -2.086501e-02   1.671905e-02   0.000000e+00
  -4.183460e-03  -1.476525e-02   0.000000e+00
   1.931480e-02   1.748501e-01   0.000000e+00
  -6.690887e-02   2.054668e-02   0.000000e+00
   2.365678e-02   6.626098e-03   0.000000e+00
   2.126181e-02   1.726799e-02   0.000000e+00
  -1.872528e-02  -5.861743e-02   0.000000e+00
   1.515634e-02   2.353276e-02   0.000000e+00
   4.981480e-02  -1.126938e-02   0.000000e+00
  -1.964046e-02   1.181353e-03   0.000000e+00
  -1.141627e-02  -9.150250e-03   0.000000e+00
   3.036890e-02   1.475736e-02   0.000000e+00
   5.212741e-03   5.188777e-03   0.000000e+00
  -2.541443e-02  -4.357763e-02   0.000000e+00
  -3.981374e-02  -2.798041e-04   0.000000e+00
   1.257193e-02  -2.803172e-02   0.000000e+00
  -5.004566e-02   4.190921e-02   0.000000e+00
   1.555718e-03   6.082662e-03   0.000000e+00
   1.108746e-02   7.056710e-02   0.000000e+00
  -1.033092e-02   8.365914e-03   0.000000e+00
  -2.358109e-03   2.541064e-02   0.000000e+00
   7.747202e-03  -1.885024e-02   0.000000e+00
  -1.058648e-02   2.270081e-02   0.000000e+00
   6.711105e-02   1.073634e-01   0.000000e+00
   4.927444e-02  -7.647307e-02   0.000000e+00
  -4.286997e-02  -3.616570e-02   0.000000e+00
  -2.219242e-02   5.282731e-02   0.000000e+00
   0.000000e+00   0.000000e+00   0.000000e+00
  -7.126993e-02  -4.151744e-02   0.000000e+00
  -3.679005e-02   5.637868e-02   0.000000e+00
  -7.146979e-03  -6.501650e-03   0.000000e+00
  -5.243248e-03   7.206035e-03   0.000000e+00
  -6.860466e-02  -1.486181e-02   0.000000e+00
  -5.434885e-02  -5.648703e-02   0.000000e+00
  -4.957623e-02   8.281582e-02   0.000000e+00
   1.223957e-02  -2.461067e-02   0.000000e+00
VECTORS Real_Arrow_1.000000e+03(Hz) float
  -3.050191e-02  -8.586920e-03   0.000000e+00
  -7.088866e-02   1.267563e-01   0.000000e+00
  -7.391401e-02   7.843985e-02   0.000000e+00
   8.387507e-02  -1.095650e-02   0.000000e+00
   4.526992e-02  -1.137429e-03   0.000000e+00
   2.909299e-02  -1.781006e-02   0.000000e+00
   2.247191e-02   3.085777e-02   0.000000e+00
   4.896084e-02  -1.660163e-02   0.000000e+00
   0.000000e+00   0.000000e+00   0.000000e+00
   2.055508e-02   1.826683e-02   0.000000e+00
  -2.729654e-02  -4.449371e-02   0.000000e+00
  -5.305968e-02   2.070898e-02   0.000000e+00
   2.738570e-02   1.132434e-01   0.000000e+00
   1.883069e-01   4.692020e-02   0.000000e+00
   0.000000e+00   0.000000e+00   0.000000e+00
   1.278985e-01  -3.373910e-02   0.000000e+00
  -1.662678e-01  -2.429566e-01   0.000000e+00
  -4.532532e-02   1.195833e-01   0.000000e+00
   0.000000e+00   0.000000e+00   0.000000e+00
   8.533029e-02   4.193752e-02   0.000000e+00
  -7.567479e-02   5.453568e-02   0.000000e+00
  -4.840036e-02  -6.525313e-02   0.000000e+00
  -9.794755e-02   1.104920e-01   0.000000e+00
   0.000000e+00   0.000000e+00   0.000000e+00
   3.605498e-04  -4.297361e-02   0.000000e+00
  -3.457501e-02  -2.245854e-02   0.000000e+00
   1.641935e-01   9.379784e-02   0.000000e+00
   3.326436e-02   1.349433e-01   0.000000e+00
   2.427302e-02  -7.739498e-02   0.000000e+00
   7.214593e-02  -1.026392e-01   0.000000e+00
   2.942475e-02  -6.917695e-02   0.000000e+00
   2.043279e-02  -2.544977e-04   0.000000e+00
   0.000000e+00   0.000000e+00   0.000000e+00
  -5.198130e-02  -7.131839e-02   0.000000e+00
   0.000000e+00   0.000000e+00   0.000000e+00
   1.426722e-01  -1.151497e-01   0.000000e+00
   3.965941e-02   1.295850e-01   0.000000e+00
   0.000000e+00   0.000000e+00   0.000000e+00
   0.000000e+00   0.000000e+00   0.000000e+00
   1.385523e-01  -1.544563e-01   0.000000e+00
   0.000000e+00   0.000000e+00   0.000000e+00
   0.000000e+00   0.000000e+00   0.000000e+00
  -6.127689e-02  -6.057923e-02   0.000000e+00
   1.413737e-01   5.246893e-02   0.000000e+00
   1.034210e-01   2.329355e-01   0.000000e+00
  -8.565399e-04   1.137368e-01   0.000000e+00
VECTORS Imag_Arrow_1.000000e+03(Hz) float
  -9.269023e-03  -2.895208e-02   0.000000e+00
  -4.634886e-02   5.047659e-02   0.000000e+00
  -2.933449e-02   3.994706e-02   0.000000e+00
  -1.246289e-02  -1.086338e-01   0.000000e+00
  -1.468965e-02  -3.483997e-02   0.000000e+00
  -2.359081e-02   1.534083e-02   0.000000e+00
   3.637395e-03  -2.776262e-03   0.000000e+00
  -5.024508e-02   4.949562e-02   0.000000e+00
   0.000000e+00   0.000000e+00   0.000000e+00
   2.335955e-02  -8.030091e-03   0.000000e+00
  -1.974893e-02   4.392479e-03   0.000000e+00
   4.831706e-04  -1.932266e-02   0.000000e+00
   5.401864e-03   1.553436e-01   0.000000e+00
  -5.432818e-02   1.062707e-02   0.000000e+00
   0.000000e+00   0.000000e+00   0.000000e+00
   3.272233e-02   1.181693e-02   0.000000e+00
  -4.138325e-02  -8.494899e-02   0.000000e+00
   3.404700e-03   4.575786e-02   0.000000e+00
   0.000000e+00   0.000000e+00   0.000000e+00
  -2.750483e-02   6.689605e-03   0.000000e+00
  -8.653562e-03  -6.888329e-03   0.000000e+00
   3.228872e-02   1.656615e-02   0.000000e+00
  -4.796761e-03   1.096398e-02   0.000000e+00
   0.000000e+00   0.000000e+00   0.000000e+00
  -3.934674e-02  -1.017542e-02   0.000000e+00
   1.183588e-02  -2.813623e-02   0.000000e+00
  -3.189635e-02   5.838454e-02   0.000000e+00
  -3.658207e-03   1.698186e-02   0.000000e+00
   9.638609e-03   6.724686e-02   0.000000e+00
  -1.722240e-02   1.492497e-02   0.000000e+00
  -7.867061e-03   2.574787e-02   0.000000e+00
   1.865263e-02  -2.261829e-02   0.000000e+00
   0.000000e+00   0.000000e+00   0.000000e+00
   4.831592e-02   8.122311e-02   0.000000e+00
   0.000000e+00   0.000000e+00   0.000000e+00
  -3.767208e-02  -2.816222e-02   0.000000e+00
  -2.834607e-02   5.488834e-02   0.000000e+00
   0.000000e+00   0.000000e+00   0.000000e+00
   0.000000e+00   0.000000e+00   0.000000e+00
  -2.942180e-02   5.853961e-02   0.000000e+00
   0.000000e+00   0.000000e+00   0.000000e+00
   0.000000e+00   0.000000e+00   0.000000e+00
  -6.883255e-02  -1.775538e-02   0.000000e+00
  -5.081139e-02  -5.519840e-02   0.000000e+00
  -3.752668e-02   9.157998e-02   0.000000e+00
   1.574693e-02  -2.391927e-02   0.000000e+00
