# vtk DataFile Version 2.0
Induction_Arrow_Iter2_PE4
ASCII
DATASET UNSTRUCTURED_GRID
POINTS 46 float
  -2.052000e+03    1.667000e+03   -4.526633e+02
  -1.265000e+03    2.333000e+03   -4.555885e+02
  -9.840000e+02    2.568000e+03   -4.612271e+02
   1.700000e+03   -1.757000e+03   -5.237752e+02
  -1.152000e+03    1.382000e+03   -4.549280e+02
   3.187000e+03    1.067000e+03   -8.370176e+02
   4.716000e+03    9.370000e+02   -8.015281e+02
  -1.855000e+03    5.260000e+02   -5.147377e+02
  -1.420000e+02   -1.905000e+03   -4.746368e+02
  -5.800000e+01    1.069000e+03   -4.555494e+02
  -2.802000e+03    3.302000e+03   -4.314337e+02
  -5.640000e+03   -1.532000e+03   -4.911771e+02
  -8.030000e+02   -5.610000e+02   -5.280929e+02
   1.008000e+03    4.130000e+02   -5.983358e+02
   1.960000e+02    2.246000e+03   -5.219413e+02
  -3.457000e+03    8.320000e+02   -4.470735e+02
   5.640000e+03    2.452000e+03   -7.393049e+02
  -1.334000e+03    3.332000e+03   -4.456136e+02
   1.244000e+03    1.880000e+03   -6.331107e+02
  -2.680000e+02    2.144000e+03   -4.891390e+02
  -4.063000e+03    6.620000e+02   -4.746103e+02
  -1.258000e+03    6.330000e+02   -4.856841e+02
  -2.141000e+03    3.194000e+03   -4.348461e+02
  -3.469000e+03   -3.059000e+03   -6.067613e+02
  -1.604000e+03   -2.570000e+02   -5.141257e+02
  -1.454000e+03    2.220000e+02   -5.386025e+02
   1.864000e+03    1.270000e+02   -7.404291e+02
   2.449000e+03    5.590000e+02   -7.805292e+02
  -1.834000e+03   -1.554000e+03   -6.273074e+02
   1.807000e+03    2.297000e+03   -6.825557e+02
  -2.560000e+03   -1.783000e+03   -6.131337e+02
  -2.741000e+03   -5.010000e+02   -5.080000e+02
   2.884000e+03   -2.179000e+03   -5.274708e+02
  -6.120000e+02   -8.960000e+02   -5.895389e+02
  -1.985000e+03   -2.653000e+03   -5.598834e+02
  -3.390000e+03   -4.000000e+02   -4.982361e+02
   1.586000e+03    1.342000e+03   -6.618442e+02
   1.047000e+03    2.401000e+03   -5.426792e+02
   8.380000e+02   -1.300000e+03   -4.783644e+02
   2.569000e+03    2.441000e+03   -6.035668e+02
  -2.028000e+03    2.833000e+03   -4.322286e+02
  -1.086000e+03    1.998000e+03   -4.563301e+02
   1.514000e+03   -3.332000e+03   -5.646205e+02
   7.040000e+02    1.116000e+03   -5.365099e+02
   1.990000e+03    6.360000e+02   -7.085272e+02
   3.722000e+03   -1.700000e+02   -6.745213e+02
CELLS 46 92
1 0
1 1
1 2
1 3
1 4
1 5
1 6
1 7
1 8
1 9
1 10
1 11
1 12
1 13
1 14
1 15
1 16
1 17
1 18
1 19
1 20
1 21
1 22
1 23
1 24
1 25
1 26
1 27
1 28
1 29
1 30
1 31
1 32
1 33
1 34
1 35
1 36
1 37
1 38
1 39
1 40
1 41
1 42
1 43
1 44
1 45
CELL_TYPES 46
1
1
1
1
1
1
1
1
1
1
1
1
1
1
1
1
1
1
1
1
1
1
1
1
1
1
1
1
1
1
1
1
1
1
1
1
1
1
1
1
1
1
1
1
1
1
POINT_DATA 46
VECTORS Real_Arrow_6.309500e+00(Hz) float
  -1.050999e-01  -7.524240e-02   0.000000e+00
  -1.413949e-01   9.637894e-02   0.000000e+00
   0.000000e+00   0.000000e+00   0.000000e+00
  -1.165052e-02  -4.906172e-01   0.000000e+00
  -1.505391e-01  -8.390068e-02   0.000000e+00
  -5.551783e-02  -3.109808e-02   0.000000e+00
   7.860411e-02  -1.412170e-01   0.000000e+00
  -1.519396e-01   7.870542e-02   0.000000e+00
   2.064268e-01  -1.838754e-01   0.000000e+00
  -1.641511e-01  -6.677544e-02   0.000000e+00
  -1.744508e-01   9.357410e-02   0.000000e+00
  -2.086964e-01   2.572095e-02   0.000000e+00
   0.000000e+00   0.000000e+00   0.000000e+00
  -3.044445e-01  -6.743261e-02   0.000000e+00
  -7.597344e-02   4.165592e-02   0.000000e+00
   0.000000e+00   0.000000e+00   0.000000e+00
  -5.127192e-02  -6.910135e-02   0.000000e+00
   0.000000e+00   0.000000e+00   0.000000e+00
   6.530242e-03  -3.528644e-02   0.000000e+00
  -3.895040e-02   3.611058e-02   0.000000e+00
   0.000000e+00   0.000000e+00   0.000000e+00
  -1.993297e-01  -5.704669e-02   0.000000e+00
  -9.543778e-02   8.500710e-02   0.000000e+00
  -1.697745e-01  -1.148822e-01   0.000000e+00
   0.000000e+00   0.000000e+00   0.000000e+00
  -1.387035e-01   1.920492e-02   0.000000e+00
  -1.210317e-01  -1.427272e-01   0.000000e+00
  -7.381591e-02  -7.114479e-02   0.000000e+00
  -7.162109e-02  -1.086179e-02   0.000000e+00
  -3.290727e-02  -6.425881e-02   0.000000e+00
   0.000000e+00   0.000000e+00   0.000000e+00
  -2.434260e-01  -2.623315e-02   0.000000e+00
   1.776882e-01   8.135912e-02   0.000000e+00
   1.438258e-01   8.973688e-02   0.000000e+00
  -1.660717e-02  -1.044137e-01   0.000000e+00
  -3.156082e-01  -1.852541e-01   0.000000e+00
   0.000000e+00   0.000000e+00   0.000000e+00
  -1.212001e-01   4.755143e-02   0.000000e+00
  -2.080572e-01  -4.193742e-01   0.000000e+00
  -9.751529e-02   3.453559e-01   0.000000e+00
  -8.168554e-02   5.378863e-03   0.000000e+00
  -1.111715e-01   2.436398e-02   0.000000e+00
   2.823887e-03   3.774506e-02   0.000000e+00
  -2.216304e-01  -5.966067e-02   0.000000e+00
  -1.465838e-01  -4.501368e-04   0.000000e+00
   7.946343e-02  -1.563844e-01   0.000000e+00
VECTORS Imag_Arrow_6.309500e+00(Hz) float
  -7.164770e-02   3.070625e-02   0.000000e+00
  -6.526699e-02  -3.258813e-02   0.000000e+00
   0.000000e+00   0.000000e+00   0.000000e+00
  -3.865966e-02  -5.495179e-02   0.000000e+00
  -7.613949e-02   2.872550e-02   0.000000e+00
   7.802402e-03  -6.003059e-02   0.000000e+00
   1.017572e-02  -2.185886e-02   0.000000e+00
  -9.227833e-02  -6.517758e-02   0.000000e+00
  -1.144353e-01  -1.617638e-02   0.000000e+00
  -9.051561e-02  -1.810597e-02   0.000000e+00
  -4.902819e-02   3.644781e-02   0.000000e+00
  -1.368634e-01  -9.580969e-02   0.000000e+00
   0.000000e+00   0.000000e+00   0.000000e+00
  -1.769297e-02  -9.707587e-02   0.000000e+00
  -9.592771e-02  -5.289340e-03   0.000000e+00
   0.000000e+00   0.000000e+00   0.000000e+00
   7.268572e-02   6.033043e-02   0.000000e+00
   0.000000e+00   0.000000e+00   0.000000e+00
  -1.460528e-01   2.216581e-02   0.000000e+00
  -1.114931e-01  -3.205904e-03   0.000000e+00
   0.000000e+00   0.000000e+00   0.000000e+00
  -7.772501e-02  -1.241235e-02   0.000000e+00
  -5.119237e-02   2.192729e-02   0.000000e+00
  -8.500399e-02  -2.608998e-03   0.000000e+00
   0.000000e+00   0.000000e+00   0.000000e+00
  -8.670325e-02  -4.209362e-02   0.000000e+00
  -1.865172e-02  -1.001429e-01   0.000000e+00
  -1.028549e-02  -1.033597e-01   0.000000e+00
  -6.365042e-02  -5.255826e-02   0.000000e+00
  -8.062222e-02   3.974252e-03   0.000000e+00
   0.000000e+00   0.000000e+00   0.000000e+00
  -4.722597e-02  -4.567210e-02   0.000000e+00
  -1.307753e-02  -6.136639e-02   0.000000e+00
  -1.292991e-01  -1.647674e-01   0.000000e+00
  -7.402795e-02   1.645153e-02   0.000000e+00
  -3.627938e-02   2.401799e-02   0.000000e+00
   0.000000e+00   0.000000e+00   0.000000e+00
  -8.201981e-02  -3.613407e-02   0.000000e+00
   3.458270e-03  -4.212950e-02   0.000000e+00
  -9.911581e-02   7.863931e-02   0.000000e+00
  -5.502514e-02   6.580198e-02   0.000000e+00
  -8.548755e-02   1.383520e-03   0.000000e+00
   3.334179e-02  -3.713162e-02   0.000000e+00
  -6.604772e-02  -1.888054e-02   0.000000e+00
  -3.657887e-03  -1.576361e-01   0.000000e+00
  -1.005258e-02  -8.965730e-02   0.000000e+00
VECTORS Real_Arrow_1.000000e+01(Hz) float
  -6.636047e-02  -9.632577e-02   0.000000e+00
  -1.031299e-01   9.261154e-02   0.000000e+00
   0.000000e+00   0.000000e+00   0.000000e+00
   7.160472e-03  -4.621094e-01   0.000000e+00
  -1.111791e-01  -1.041044e-01   0.000000e+00
  -5.734419e-02  -8.396201e-03   0.000000e+00
   7.629811e-02  -1.370464e-01   0.000000e+00
  -1.001324e-01   1.033776e-01   0.000000e+00
   2.592268e-01  -1.746165e-01   0.000000e+00
  -1.208399e-01  -6.701512e-02   0.000000e+00
  -1.595234e-01   6.380892e-02   0.000000e+00
  -1.423944e-01   6.198733e-02   0.000000e+00
   0.000000e+00   0.000000e+00   0.000000e+00
  -2.956724e-01  -2.867879e-02   0.000000e+00
   0.000000e+00   0.000000e+00   0.000000e+00
  -9.139518e-02   2.318659e-02   0.000000e+00
  -7.968691e-02  -9.678113e-02   0.000000e+00
   3.006196e-02   5.223227e-02   0.000000e+00
   7.357728e-02  -4.811992e-02   0.000000e+00
   1.375859e-02   2.448127e-02   0.000000e+00
   0.000000e+00   0.000000e+00   0.000000e+00
  -1.590052e-01  -5.621048e-02   0.000000e+00
  -7.583962e-02   5.584247e-02   0.000000e+00
  -1.202777e-01  -1.114381e-01   0.000000e+00
   0.000000e+00   0.000000e+00   0.000000e+00
  -9.186836e-02   3.649687e-02   0.000000e+00
  -1.118623e-01  -1.019460e-01   0.000000e+00
  -6.750992e-02  -3.004656e-02   0.000000e+00
  -3.808354e-02   1.294785e-02   0.000000e+00
   0.000000e+00   0.000000e+00   0.000000e+00
   0.000000e+00   0.000000e+00   0.000000e+00
  -2.155657e-01  -2.089892e-03   0.000000e+00
   1.611848e-01   8.995109e-02   0.000000e+00
   2.096809e-01   1.648339e-01   0.000000e+00
   2.120375e-02  -1.124189e-01   0.000000e+00
  -3.002310e-01  -1.881563e-01   0.000000e+00
   0.000000e+00   0.000000e+00   0.000000e+00
  -7.317994e-02   5.709201e-02   0.000000e+00
  -2.034792e-01  -4.034830e-01   0.000000e+00
  -4.332732e-02   2.841838e-01   0.000000e+00
  -5.859645e-02  -3.463074e-02   0.000000e+00
  -6.736007e-02   1.196612e-02   0.000000e+00
  -1.896924e-02   5.184133e-02   0.000000e+00
  -1.883320e-01  -5.896414e-02   0.000000e+00
  -1.429943e-01   6.065276e-02   0.000000e+00
   9.115362e-02  -1.178478e-01   0.000000e+00
VECTORS Imag_Arrow_1.000000e+01(Hz) float
  -7.080344e-02   3.499626e-02   0.000000e+00
  -5.739779e-02  -2.725974e-02   0.000000e+00
   0.000000e+00   0.000000e+00   0.000000e+00
  -4.388270e-02  -1.039517e-01   0.000000e+00
  -8.900259e-02   3.488557e-02   0.000000e+00
  -1.062297e-02  -5.330422e-02   0.000000e+00
   7.074120e-03  -3.081812e-02   0.000000e+00
  -9.904394e-02  -3.784225e-02   0.000000e+00
  -8.052973e-02  -1.105477e-02   0.000000e+00
  -1.222882e-01  -1.762698e-02   0.000000e+00
  -5.024141e-02   5.113325e-02   0.000000e+00
  -1.241261e-01  -4.912295e-02   0.000000e+00
   0.000000e+00   0.000000e+00   0.000000e+00
  -7.759039e-02  -1.093838e-01   0.000000e+00
   0.000000e+00   0.000000e+00   0.000000e+00
  -1.183264e-01  -4.087135e-02   0.000000e+00
   7.099338e-02   8.516067e-02   0.000000e+00
  -4.830955e-02   2.927202e-02   0.000000e+00
  -1.757305e-01   4.694303e-02   0.000000e+00
  -1.181237e-01   6.698998e-03   0.000000e+00
   0.000000e+00   0.000000e+00   0.000000e+00
  -1.003196e-01  -1.713781e-03   0.000000e+00
  -3.758739e-02   3.058729e-02   0.000000e+00
  -1.102727e-01   4.944478e-04   0.000000e+00
   0.000000e+00   0.000000e+00   0.000000e+00
  -1.004764e-01  -1.549037e-02   0.000000e+00
  -4.763600e-02  -1.234188e-01   0.000000e+00
  -3.054846e-02  -1.151488e-01   0.000000e+00
  -6.715871e-02  -3.945070e-02   0.000000e+00
   0.000000e+00   0.000000e+00   0.000000e+00
   0.000000e+00   0.000000e+00   0.000000e+00
  -8.217244e-02  -3.787666e-02   0.000000e+00
   3.348391e-02  -3.281059e-02   0.000000e+00
  -1.016817e-01  -1.500642e-01   0.000000e+00
  -7.125907e-02   3.112814e-02   0.000000e+00
  -1.031849e-01   1.866757e-02   0.000000e+00
   0.000000e+00   0.000000e+00   0.000000e+00
  -1.051380e-01  -2.714760e-02   0.000000e+00
  -2.041632e-02  -1.012377e-01   0.000000e+00
  -1.143558e-01   1.474188e-01   0.000000e+00
  -4.467082e-02   8.098095e-02   0.000000e+00
  -8.809332e-02   1.315519e-02   0.000000e+00
   6.104907e-02  -5.297896e-03   0.000000e+00
  -1.092350e-01  -1.537764e-02   0.000000e+00
  -3.262125e-02  -1.787801e-01   0.000000e+00
  -5.513769e-03  -1.126426e-01   0.000000e+00
VECTORS Real_Arrow_1.584800e+01(Hz) float
  -3.366221e-02  -1.172926e-01   0.000000e+00
  -7.550715e-02   9.159756e-02   0.000000e+00
   0.000000e+00   0.000000e+00   0.000000e+00
   2.727111e-02  -4.115239e-01   0.000000e+00
  -7.069763e-02  -1.247344e-01   0.000000e+00
  -4.880698e-02   1.137827e-02   0.000000e+00
   7.799541e-02  -1.288515e-01   0.000000e+00
  -5.318906e-02   1.091008e-01   0.000000e+00
   2.876331e-01  -1.727887e-01   0.000000e+00
  -6.319706e-02  -6.438033e-02   0.000000e+00
  -1.466026e-01   3.773208e-02   0.000000e+00
   0.000000e+00   0.000000e+00   0.000000e+00
   0.000000e+00   0.000000e+00   0.000000e+00
  -2.566742e-01   1.733260e-02   0.000000e+00
   0.000000e+00   0.000000e+00   0.000000e+00
  -4.110084e-02   3.833031e-02   0.000000e+00
  -1.041767e-01  -1.352147e-01   0.000000e+00
   4.317509e-02   2.968154e-02   0.000000e+00
   1.529023e-01  -7.382580e-02   0.000000e+00
   6.619672e-02   1.369469e-02   0.000000e+00
  -1.223610e-01   1.051155e-02   0.000000e+00
  -1.128613e-01  -6.202677e-02   0.000000e+00
  -6.765157e-02   3.192853e-02   0.000000e+00
  -6.907288e-02  -1.117935e-01   0.000000e+00
   0.000000e+00   0.000000e+00   0.000000e+00
  -4.359650e-02   3.667764e-02   0.000000e+00
  -8.895053e-02  -4.998314e-02   0.000000e+00
  -5.100271e-02   1.618381e-02   0.000000e+00
  -1.169174e-02   2.432156e-02   0.000000e+00
   0.000000e+00   0.000000e+00   0.000000e+00
   0.000000e+00   0.000000e+00   0.000000e+00
  -1.739541e-01   1.190400e-02   0.000000e+00
   1.239949e-01   8.965261e-02   0.000000e+00
   2.520012e-01   2.278953e-01   0.000000e+00
   4.930269e-02  -1.340942e-01   0.000000e+00
  -2.475312e-01  -1.948407e-01   0.000000e+00
   0.000000e+00   0.000000e+00   0.000000e+00
  -1.443821e-02   6.467053e-02   0.000000e+00
  -1.899753e-01  -3.553606e-01   0.000000e+00
   7.895228e-03   2.100770e-01   0.000000e+00
  -4.489342e-02  -7.092249e-02   0.000000e+00
  -2.842408e-02  -1.130655e-03   0.000000e+00
  -5.199932e-02   4.521979e-02   0.000000e+00
  -1.353416e-01  -5.770459e-02   0.000000e+00
  -1.251495e-01   1.322925e-01   0.000000e+00
   9.865577e-02  -7.017061e-02   0.000000e+00
VECTORS Imag_Arrow_1.584800e+01(Hz) float
  -4.956066e-02   2.587650e-02   0.000000e+00
  -2.762322e-02  -3.849044e-02   0.000000e+00
   0.000000e+00   0.000000e+00   0.000000e+00
  -4.228701e-02  -1.422019e-01   0.000000e+00
  -8.408981e-02   2.813126e-02   0.000000e+00
  -2.983431e-02  -4.090921e-02   0.000000e+00
   5.729931e-03  -4.362613e-02   0.000000e+00
  -7.845732e-02  -5.109177e-03   0.000000e+00
  -2.594281e-02  -1.239182e-03   0.000000e+00
  -1.395299e-01  -2.385525e-02   0.000000e+00
  -5.700469e-02   4.741862e-02   0.000000e+00
   0.000000e+00   0.000000e+00   0.000000e+00
   0.000000e+00   0.000000e+00   0.000000e+00
  -1.386420e-01  -1.116716e-01   0.000000e+00
   0.000000e+00   0.000000e+00   0.000000e+00
  -1.398653e-01  -2.357380e-02   0.000000e+00
   6.145483e-02   1.008602e-01   0.000000e+00
  -2.249948e-02   1.144535e-02   0.000000e+00
  -1.806302e-01   6.615455e-02   0.000000e+00
  -1.037090e-01   2.762905e-03   0.000000e+00
  -1.024124e-02  -3.431637e-02   0.000000e+00
  -1.066949e-01   5.248155e-03   0.000000e+00
  -2.251123e-02   1.385607e-02   0.000000e+00
  -1.104042e-01   5.807341e-03   0.000000e+00
   0.000000e+00   0.000000e+00   0.000000e+00
  -9.192840e-02   1.696377e-02   0.000000e+00
  -7.555362e-02  -1.359463e-01   0.000000e+00
  -4.926611e-02  -1.162189e-01   0.000000e+00
  -5.703705e-02  -1.759631e-02   0.000000e+00
   0.000000e+00   0.000000e+00   0.000000e+00
   0.000000e+00   0.000000e+00   0.000000e+00
  -1.030242e-01  -1.802872e-02   0.000000e+00
   4.912002e-02  -1.747188e-02   0.000000e+00
  -4.302864e-02  -1.054169e-01   0.000000e+00
  -5.429966e-02   4.054900e-02   0.000000e+00
  -1.684220e-01   1.663834e-02   0.000000e+00
   0.000000e+00   0.000000e+00   0.000000e+00
  -1.013003e-01  -1.799627e-02   0.000000e+00
  -4.104487e-02  -1.609035e-01   0.000000e+00
  -1.060491e-01   1.823977e-01   0.000000e+00
  -2.895324e-02   7.527337e-02   0.000000e+00
  -7.043723e-02   1.131446e-02   0.000000e+00
   7.292630e-02   2.989353e-02   0.000000e+00
  -1.408545e-01  -1.777134e-02   0.000000e+00
  -6.159561e-02  -1.856508e-01   0.000000e+00
   1.000511e-02  -1.230080e-01   0.000000e+00
