# vtk DataFile Version 2.0
Induction_Arrow_Iter4_PE6
ASCII
DATASET UNSTRUCTURED_GRID
POINTS 46 float
  -2.052000e+03    1.667000e+03   -4.526633e+02
  -1.265000e+03    2.333000e+03   -4.555885e+02
  -9.840000e+02    2.568000e+03   -4.612271e+02
   1.700000e+03   -1.757000e+03   -5.237752e+02
  -1.152000e+03    1.382000e+03   -4.549280e+02
   3.187000e+03    1.067000e+03   -8.370176e+02
   4.716000e+03    9.370000e+02   -8.015281e+02
  -1.855000e+03    5.260000e+02   -5.147377e+02
  -1.420000e+02   -1.905000e+03   -4.746368e+02
  -5.800000e+01    1.069000e+03   -4.555494e+02
  -2.802000e+03    3.302000e+03   -4.314337e+02
  -5.640000e+03   -1.532000e+03   -4.911771e+02
  -8.030000e+02   -5.610000e+02   -5.280929e+02
   1.008000e+03    4.130000e+02   -5.983358e+02
   1.960000e+02    2.246000e+03   -5.219413e+02
  -3.457000e+03    8.320000e+02   -4.470735e+02
   5.640000e+03    2.452000e+03   -7.393049e+02
  -1.334000e+03    3.332000e+03   -4.456136e+02
   1.244000e+03    1.880000e+03   -6.331107e+02
  -2.680000e+02    2.144000e+03   -4.891390e+02
  -4.063000e+03    6.620000e+02   -4.746103e+02
  -1.258000e+03    6.330000e+02   -4.856841e+02
  -2.141000e+03    3.194000e+03   -4.348461e+02
  -3.469000e+03   -3.059000e+03   -6.067613e+02
  -1.604000e+03   -2.570000e+02   -5.141257e+02
  -1.454000e+03    2.220000e+02   -5.386025e+02
   1.864000e+03    1.270000e+02   -7.404291e+02
   2.449000e+03    5.590000e+02   -7.805292e+02
  -1.834000e+03   -1.554000e+03   -6.273074e+02
   1.807000e+03    2.297000e+03   -6.825557e+02
  -2.560000e+03   -1.783000e+03   -6.131337e+02
  -2.741000e+03   -5.010000e+02   -5.080000e+02
   2.884000e+03   -2.179000e+03   -5.274708e+02
  -6.120000e+02   -8.960000e+02   -5.895389e+02
  -1.985000e+03   -2.653000e+03   -5.598834e+02
  -3.390000e+03   -4.000000e+02   -4.982361e+02
   1.586000e+03    1.342000e+03   -6.618442e+02
   1.047000e+03    2.401000e+03   -5.426792e+02
   8.380000e+02   -1.300000e+03   -4.783644e+02
   2.569000e+03    2.441000e+03   -6.035668e+02
  -2.028000e+03    2.833000e+03   -4.322286e+02
  -1.086000e+03    1.998000e+03   -4.563301e+02
   1.514000e+03   -3.332000e+03   -5.646205e+02
   7.040000e+02    1.116000e+03   -5.365099e+02
   1.990000e+03    6.360000e+02   -7.085272e+02
   3.722000e+03   -1.700000e+02   -6.745213e+02
CELLS 46 92
1 0
1 1
1 2
1 3
1 4
1 5
1 6
1 7
1 8
1 9
1 10
1 11
1 12
1 13
1 14
1 15
1 16
1 17
1 18
1 19
1 20
1 21
1 22
1 23
1 24
1 25
1 26
1 27
1 28
1 29
1 30
1 31
1 32
1 33
1 34
1 35
1 36
1 37
1 38
1 39
1 40
1 41
1 42
1 43
1 44
1 45
CELL_TYPES 46
1
1
1
1
1
1
1
1
1
1
1
1
1
1
1
1
1
1
1
1
1
1
1
1
1
1
1
1
1
1
1
1
1
1
1
1
1
1
1
1
1
1
1
1
1
1
POINT_DATA 46
VECTORS Real_Arrow_1.000000e+02(Hz) float
  -5.806229e-02  -8.904130e-02   0.000000e+00
  -1.569828e-01   2.014456e-01   0.000000e+00
  -8.546721e-02   1.331017e-01   0.000000e+00
   4.766085e-02  -1.837946e-01   0.000000e+00
  -1.190453e-02  -1.144776e-01   0.000000e+00
   2.803368e-02   7.963805e-03   0.000000e+00
   5.672051e-02  -2.511075e-02   0.000000e+00
  -6.754079e-02   5.491808e-02   0.000000e+00
   0.000000e+00   0.000000e+00   0.000000e+00
   9.310250e-02  -1.764440e-02   0.000000e+00
  -5.411965e-02   5.507168e-03   0.000000e+00
  -5.792563e-02   8.028048e-03   0.000000e+00
   0.000000e+00   0.000000e+00   0.000000e+00
   4.968352e-02   1.107467e-01   0.000000e+00
   5.654978e-02   4.069613e-02   0.000000e+00
   1.443200e-01   1.316564e-02   0.000000e+00
  -1.501258e-01  -2.765997e-01   0.000000e+00
   1.399033e-02   8.329992e-02   0.000000e+00
   0.000000e+00   0.000000e+00   0.000000e+00
   9.435946e-02   3.628294e-02   0.000000e+00
  -9.940566e-02   3.784542e-02   0.000000e+00
   8.864786e-03  -5.532522e-02   0.000000e+00
  -6.199842e-02   9.537085e-02   0.000000e+00
   3.660127e-02  -1.341644e-01   0.000000e+00
   0.000000e+00   0.000000e+00   0.000000e+00
  -5.228641e-03  -7.579572e-02   0.000000e+00
   5.657716e-02   1.085014e-01   0.000000e+00
   4.291708e-02   1.251200e-01   0.000000e+00
   3.627271e-02   1.029089e-02   0.000000e+00
   9.820076e-02  -1.257139e-01   0.000000e+00
   4.149400e-02  -3.543639e-02   0.000000e+00
  -1.981197e-02  -2.345752e-02   0.000000e+00
   7.711703e-02   7.807298e-02   0.000000e+00
   1.071833e-01   1.765685e-01   0.000000e+00
   6.409114e-02  -1.572668e-01   0.000000e+00
   8.721564e-02  -1.916793e-01   0.000000e+00
   5.289956e-02   2.712163e-01   0.000000e+00
   0.000000e+00   0.000000e+00   0.000000e+00
  -1.017768e-01  -4.453039e-02   0.000000e+00
   7.249742e-02  -8.476397e-02   0.000000e+00
   0.000000e+00   0.000000e+00   0.000000e+00
  -2.031440e-02   1.116247e-02   0.000000e+00
  -1.537674e-01  -6.428766e-02   0.000000e+00
   6.933876e-02  -3.420649e-02   0.000000e+00
   5.687077e-03   3.317830e-01   0.000000e+00
   1.608584e-02   7.902036e-02   0.000000e+00
VECTORS Imag_Arrow_1.000000e+02(Hz) float
  -2.175576e-03  -5.106389e-02   0.000000e+00
   1.013606e-02  -3.429352e-02   0.000000e+00
   2.412337e-02  -9.628617e-03   0.000000e+00
  -1.346031e-02  -1.401101e-01   0.000000e+00
  -4.669649e-02  -5.120452e-02   0.000000e+00
  -3.153131e-02   2.171096e-02   0.000000e+00
   3.268462e-02  -8.426207e-02   0.000000e+00
  -3.049217e-02   2.425313e-02   0.000000e+00
   0.000000e+00   0.000000e+00   0.000000e+00
  -1.619316e-02  -3.575448e-02   0.000000e+00
  -4.376770e-02   2.690624e-02   0.000000e+00
  -1.433184e-02   9.015330e-03   0.000000e+00
   0.000000e+00   0.000000e+00   0.000000e+00
  -1.789277e-01   1.505957e-03   0.000000e+00
   1.563327e-02  -8.750624e-03   0.000000e+00
  -5.664426e-02   3.384024e-02   0.000000e+00
   2.437452e-02   4.558922e-02   0.000000e+00
   3.214172e-02  -4.815569e-02   0.000000e+00
   0.000000e+00   0.000000e+00   0.000000e+00
   1.132229e-02  -8.700291e-03   0.000000e+00
  -1.774044e-02  -1.749611e-02   0.000000e+00
  -2.099583e-02  -1.774809e-02   0.000000e+00
   8.272853e-03  -4.370998e-02   0.000000e+00
  -6.507339e-02   6.101313e-03   0.000000e+00
   0.000000e+00   0.000000e+00   0.000000e+00
   5.305385e-03   2.479051e-02   0.000000e+00
  -8.996817e-02  -6.385475e-02   0.000000e+00
  -3.581550e-02  -4.233612e-02   0.000000e+00
  -2.454431e-02   1.439621e-02   0.000000e+00
   2.040483e-02  -7.786549e-03   0.000000e+00
  -2.297281e-02   2.153748e-02   0.000000e+00
  -8.867581e-02   8.067599e-03   0.000000e+00
   9.671670e-03   1.275703e-02   0.000000e+00
   1.313654e-01   1.285942e-01   0.000000e+00
   2.353505e-02  -6.295153e-02   0.000000e+00
  -1.443720e-01  -2.668373e-02   0.000000e+00
  -3.640643e-02   9.028708e-02   0.000000e+00
   0.000000e+00   0.000000e+00   0.000000e+00
  -7.861510e-02  -1.431567e-01   0.000000e+00
  -4.485035e-02   1.518711e-01   0.000000e+00
   0.000000e+00   0.000000e+00   0.000000e+00
  -2.567445e-02   7.647448e-03   0.000000e+00
   1.704346e-02   4.838020e-02   0.000000e+00
  -9.252243e-02  -3.661202e-02   0.000000e+00
  -8.222410e-02  -5.432646e-02   0.000000e+00
   5.646834e-02  -7.565417e-02   0.000000e+00
VECTORS Real_Arrow_1.584800e+02(Hz) float
  -5.467797e-02  -6.750249e-02   0.000000e+00
  -1.558690e-01   2.082911e-01   0.000000e+00
  -9.353821e-02   1.297600e-01   0.000000e+00
   5.166587e-02  -1.474608e-01   0.000000e+00
   4.780198e-03  -9.118835e-02   0.000000e+00
   3.458115e-02  -4.668666e-03   0.000000e+00
   4.159469e-02   8.965054e-03   0.000000e+00
  -5.045564e-02   5.331572e-02   0.000000e+00
   0.000000e+00   0.000000e+00   0.000000e+00
   7.847181e-02  -5.036474e-03   0.000000e+00
  -4.638693e-02  -2.942084e-03   0.000000e+00
  -6.015659e-02   6.945650e-03   0.000000e+00
   0.000000e+00   0.000000e+00   0.000000e+00
   1.024184e-01   9.634580e-02   0.000000e+00
   4.450549e-02   4.184967e-02   0.000000e+00
   1.493895e-01  -3.036192e-03   0.000000e+00
  -1.571795e-01  -2.862350e-01   0.000000e+00
  -2.636086e-03   1.070346e-01   0.000000e+00
   0.000000e+00   0.000000e+00   0.000000e+00
   8.048868e-02   3.623495e-02   0.000000e+00
  -9.389648e-02   4.172078e-02   0.000000e+00
   7.700636e-04  -4.593995e-02   0.000000e+00
  -7.028760e-02   1.119363e-01   0.000000e+00
   5.562605e-02  -1.394255e-01   0.000000e+00
   0.000000e+00   0.000000e+00   0.000000e+00
  -1.279520e-02  -7.377185e-02   0.000000e+00
   8.146904e-02   1.254869e-01   0.000000e+00
   4.949788e-02   1.331137e-01   0.000000e+00
   4.383853e-02   1.036616e-02   0.000000e+00
   7.742206e-02  -1.105297e-01   0.000000e+00
   4.297097e-02  -4.096902e-02   0.000000e+00
   1.023620e-02  -2.426682e-02   0.000000e+00
   7.658036e-02   7.263645e-02   0.000000e+00
   5.588909e-02   1.140313e-01   0.000000e+00
   5.104639e-02  -1.238425e-01   0.000000e+00
   1.153101e-01  -1.787350e-01   0.000000e+00
   4.686333e-02   2.105992e-01   0.000000e+00
   0.000000e+00   0.000000e+00   0.000000e+00
  -7.454068e-02  -1.385600e-02   0.000000e+00
   8.503722e-02  -1.219357e-01   0.000000e+00
   0.000000e+00   0.000000e+00   0.000000e+00
  -5.946609e-03   4.630258e-03   0.000000e+00
  -1.545916e-01  -8.019234e-02   0.000000e+00
   8.662169e-02  -2.257774e-02   0.000000e+00
   2.871030e-02   3.398533e-01   0.000000e+00
  -4.565746e-03   9.894435e-02   0.000000e+00
VECTORS Imag_Arrow_1.584800e+02(Hz) float
  -1.100360e-02  -5.144655e-02   0.000000e+00
  -1.904349e-02  -5.135912e-04   0.000000e+00
   1.314412e-02   1.038794e-02   0.000000e+00
  -1.858470e-02  -1.268226e-01   0.000000e+00
  -4.550312e-02  -6.232451e-02   0.000000e+00
  -1.882300e-02   2.314831e-02   0.000000e+00
   3.233033e-02  -7.133652e-02   0.000000e+00
  -5.505801e-02   3.265307e-02   0.000000e+00
   0.000000e+00   0.000000e+00   0.000000e+00
   1.417839e-02  -3.219964e-02   0.000000e+00
  -3.239577e-02   3.097666e-02   0.000000e+00
  -8.761698e-03   5.999128e-06   0.000000e+00
   0.000000e+00   0.000000e+00   0.000000e+00
  -1.467972e-01   2.012196e-02   0.000000e+00
   2.199016e-02  -1.929274e-03   0.000000e+00
  -2.974108e-02   3.327593e-02   0.000000e+00
   1.785282e-02   1.712025e-02   0.000000e+00
   3.815342e-02  -4.539678e-02   0.000000e+00
   0.000000e+00   0.000000e+00   0.000000e+00
   1.093702e-02  -4.285130e-03   0.000000e+00
  -1.626028e-02  -1.418122e-02   0.000000e+00
   6.521508e-03  -7.642062e-03   0.000000e+00
   1.785623e-02  -3.085460e-02   0.000000e+00
  -5.747604e-02  -2.545202e-03   0.000000e+00
   0.000000e+00   0.000000e+00   0.000000e+00
   1.084885e-02  -5.230941e-03   0.000000e+00
  -8.149409e-02  -3.875019e-02   0.000000e+00
  -2.119816e-02  -2.694695e-02   0.000000e+00
  -1.387889e-02   2.740736e-02   0.000000e+00
   2.109991e-02  -1.592012e-02   0.000000e+00
  -9.239586e-03   2.097492e-02   0.000000e+00
  -7.016162e-02  -3.302841e-03   0.000000e+00
   3.715780e-03   1.498762e-02   0.000000e+00
   1.213976e-01   1.470660e-01   0.000000e+00
   3.765970e-02  -7.983115e-02   0.000000e+00
  -9.400509e-02  -3.614788e-02   0.000000e+00
  -1.200667e-02   1.053565e-01   0.000000e+00
   0.000000e+00   0.000000e+00   0.000000e+00
  -8.587616e-02  -1.078160e-01   0.000000e+00
  -4.715584e-02   1.051540e-01   0.000000e+00
   0.000000e+00   0.000000e+00   0.000000e+00
  -3.109293e-02   1.897774e-02   0.000000e+00
  -1.334017e-02   3.009853e-02   0.000000e+00
  -7.069578e-02  -4.620755e-02   0.000000e+00
  -7.692047e-02  -1.000931e-02   0.000000e+00
   3.681991e-02  -5.394157e-02   0.000000e+00
VECTORS Real_Arrow_2.511800e+02(Hz) float
  -4.696149e-02  -4.965083e-02   0.000000e+00
  -1.389351e-01   1.971199e-01   0.000000e+00
  -9.710677e-02   1.194559e-01   0.000000e+00
   5.988014e-02  -1.156922e-01   0.000000e+00
   2.007212e-02  -6.396080e-02   0.000000e+00
   3.373291e-02  -1.444302e-02   0.000000e+00
   2.810502e-02   3.203385e-02   0.000000e+00
  -2.155930e-02   4.059097e-02   0.000000e+00
   0.000000e+00   0.000000e+00   0.000000e+00
   5.838556e-02   5.206298e-03   0.000000e+00
  -4.172199e-02  -1.656237e-02   0.000000e+00
  -6.065651e-02   9.568830e-03   0.000000e+00
   4.499847e-02   2.999766e-01   0.000000e+00
   1.396467e-01   7.947770e-02   0.000000e+00
   3.354721e-02   4.007811e-02   0.000000e+00
   1.500852e-01  -1.485948e-02   0.000000e+00
  -1.639862e-01  -2.858918e-01   0.000000e+00
  -2.103060e-02   1.296000e-01   0.000000e+00
   0.000000e+00   0.000000e+00   0.000000e+00
   7.187287e-02   3.626744e-02   0.000000e+00
  -8.911657e-02   4.480668e-02   0.000000e+00
  -1.312699e-02  -4.631410e-02   0.000000e+00
  -8.302579e-02   1.194049e-01   0.000000e+00
   7.251700e-02  -1.396085e-01   0.000000e+00
   0.000000e+00   0.000000e+00   0.000000e+00
  -1.982593e-02  -5.892238e-02   0.000000e+00
   1.055391e-01   1.338141e-01   0.000000e+00
   5.076515e-02   1.365530e-01   0.000000e+00
   4.530466e-02   1.023443e-03   0.000000e+00
   6.564497e-02  -9.805238e-02   0.000000e+00
   3.846562e-02  -4.634333e-02   0.000000e+00
   3.242627e-02  -1.930835e-02   0.000000e+00
   7.685999e-02   6.783485e-02   0.000000e+00
   1.648623e-02   5.283729e-02   0.000000e+00
   0.000000e+00   0.000000e+00   0.000000e+00
   1.213506e-01  -1.621155e-01   0.000000e+00
   3.426585e-02   1.619456e-01   0.000000e+00
   0.000000e+00   0.000000e+00   0.000000e+00
  -4.281957e-02   7.776176e-03   0.000000e+00
   1.010389e-01  -1.318971e-01   0.000000e+00
  -6.967561e-02  -1.848193e-01   0.000000e+00
   9.361209e-03  -9.324548e-03   0.000000e+00
  -1.410960e-01  -8.518135e-02   0.000000e+00
   9.703833e-02  -4.524532e-03   0.000000e+00
   5.273063e-02   3.299116e-01   0.000000e+00
  -7.243849e-03   1.057806e-01   0.000000e+00
VECTORS Imag_Arrow_2.511800e+02(Hz) float
  -1.482926e-02  -4.874679e-02   0.000000e+00
  -4.182225e-02   2.890193e-02   0.000000e+00
   1.199476e-03   2.390042e-02   0.000000e+00
  -2.153321e-02  -1.194365e-01   0.000000e+00
  -3.957127e-02  -6.713282e-02   0.000000e+00
  -9.402785e-03   1.936974e-02   0.000000e+00
   2.568005e-02  -4.825487e-02   0.000000e+00
  -6.552357e-02   4.440259e-02   0.000000e+00
   0.000000e+00   0.000000e+00   0.000000e+00
   2.750608e-02  -2.649769e-02   0.000000e+00
  -2.618613e-02   3.192489e-02   0.000000e+00
  -7.321543e-03  -6.008255e-03   0.000000e+00
   4.873354e-02   2.035357e-01   0.000000e+00
  -1.148364e-01   2.864051e-02   0.000000e+00
   2.509007e-02   1.798974e-03   0.000000e+00
  -1.037086e-02   2.826337e-02   0.000000e+00
   1.000118e-02  -9.393376e-03   0.000000e+00
   3.614690e-02  -3.024200e-02   0.000000e+00
   0.000000e+00   0.000000e+00   0.000000e+00
   3.136877e-03  -3.331610e-03   0.000000e+00
  -1.462040e-02  -1.218381e-02   0.000000e+00
   1.961455e-02   3.339098e-03   0.000000e+00
   1.986554e-02  -1.619754e-02   0.000000e+00
  -4.828803e-02  -1.590636e-02   0.000000e+00
   0.000000e+00   0.000000e+00   0.000000e+00
   1.357715e-02  -2.109359e-02   0.000000e+00
  -7.466594e-02  -1.069506e-02   0.000000e+00
  -9.920908e-03  -1.327881e-02   0.000000e+00
  -1.773684e-03   4.673727e-02   0.000000e+00
   1.062633e-02  -1.088784e-02   0.000000e+00
  -8.844058e-04   2.160008e-02   0.000000e+00
  -4.395102e-02  -1.022982e-02   0.000000e+00
  -8.450766e-04   1.678993e-02   0.000000e+00
   1.038529e-01   1.454109e-01   0.000000e+00
   0.000000e+00   0.000000e+00   0.000000e+00
  -6.254028e-02  -4.090938e-02   0.000000e+00
  -3.858343e-03   8.553752e-02   0.000000e+00
   0.000000e+00   0.000000e+00   0.000000e+00
  -8.890383e-02  -8.389503e-02   0.000000e+00
  -4.673912e-02   7.190153e-02   0.000000e+00
   1.891667e-02   3.427926e-02   0.000000e+00
  -2.626318e-02   2.330237e-02   0.000000e+00
  -4.082822e-02   9.983900e-03   0.000000e+00
  -5.856572e-02  -5.400096e-02   0.000000e+00
  -7.246963e-02   3.142106e-02   0.000000e+00
   1.684506e-02  -3.353497e-02   0.000000e+00
