# vtk DataFile Version 2.0
Induction_Arrow_Iter5_PE5
ASCII
DATASET UNSTRUCTURED_GRID
POINTS 46 float
  -2.052000e+03    1.667000e+03   -4.526633e+02
  -1.265000e+03    2.333000e+03   -4.555885e+02
  -9.840000e+02    2.568000e+03   -4.612271e+02
   1.700000e+03   -1.757000e+03   -5.237752e+02
  -1.152000e+03    1.382000e+03   -4.549280e+02
   3.187000e+03    1.067000e+03   -8.370176e+02
   4.716000e+03    9.370000e+02   -8.015281e+02
  -1.855000e+03    5.260000e+02   -5.147377e+02
  -1.420000e+02   -1.905000e+03   -4.746368e+02
  -5.800000e+01    1.069000e+03   -4.555494e+02
  -2.802000e+03    3.302000e+03   -4.314337e+02
  -5.640000e+03   -1.532000e+03   -4.911771e+02
  -8.030000e+02   -5.610000e+02   -5.280929e+02
   1.008000e+03    4.130000e+02   -5.983358e+02
   1.960000e+02    2.246000e+03   -5.219413e+02
  -3.457000e+03    8.320000e+02   -4.470735e+02
   5.640000e+03    2.452000e+03   -7.393049e+02
  -1.334000e+03    3.332000e+03   -4.456136e+02
   1.244000e+03    1.880000e+03   -6.331107e+02
  -2.680000e+02    2.144000e+03   -4.891390e+02
  -4.063000e+03    6.620000e+02   -4.746103e+02
  -1.258000e+03    6.330000e+02   -4.856841e+02
  -2.141000e+03    3.194000e+03   -4.348461e+02
  -3.469000e+03   -3.059000e+03   -6.067613e+02
  -1.604000e+03   -2.570000e+02   -5.141257e+02
  -1.454000e+03    2.220000e+02   -5.386025e+02
   1.864000e+03    1.270000e+02   -7.404291e+02
   2.449000e+03    5.590000e+02   -7.805292e+02
  -1.834000e+03   -1.554000e+03   -6.273074e+02
   1.807000e+03    2.297000e+03   -6.825557e+02
  -2.560000e+03   -1.783000e+03   -6.131337e+02
  -2.741000e+03   -5.010000e+02   -5.080000e+02
   2.884000e+03   -2.179000e+03   -5.274708e+02
  -6.120000e+02   -8.960000e+02   -5.895389e+02
  -1.985000e+03   -2.653000e+03   -5.598834e+02
  -3.390000e+03   -4.000000e+02   -4.982361e+02
   1.586000e+03    1.342000e+03   -6.618442e+02
   1.047000e+03    2.401000e+03   -5.426792e+02
   8.380000e+02   -1.300000e+03   -4.783644e+02
   2.569000e+03    2.441000e+03   -6.035668e+02
  -2.028000e+03    2.833000e+03   -4.322286e+02
  -1.086000e+03    1.998000e+03   -4.563301e+02
   1.514000e+03   -3.332000e+03   -5.646205e+02
   7.040000e+02    1.116000e+03   -5.365099e+02
   1.990000e+03    6.360000e+02   -7.085272e+02
   3.722000e+03   -1.700000e+02   -6.745213e+02
CELLS 46 92
1 0
1 1
1 2
1 3
1 4
1 5
1 6
1 7
1 8
1 9
1 10
1 11
1 12
1 13
1 14
1 15
1 16
1 17
1 18
1 19
1 20
1 21
1 22
1 23
1 24
1 25
1 26
1 27
1 28
1 29
1 30
1 31
1 32
1 33
1 34
1 35
1 36
1 37
1 38
1 39
1 40
1 41
1 42
1 43
1 44
1 45
CELL_TYPES 46
1
1
1
1
1
1
1
1
1
1
1
1
1
1
1
1
1
1
1
1
1
1
1
1
1
1
1
1
1
1
1
1
1
1
1
1
1
1
1
1
1
1
1
1
1
1
POINT_DATA 46
VECTORS Real_Arrow_2.511800e+01(Hz) float
  -2.444976e-02  -1.319874e-01   0.000000e+00
  -7.464890e-02   1.066758e-01   0.000000e+00
   0.000000e+00   0.000000e+00   0.000000e+00
   4.616708e-02  -3.507696e-01   0.000000e+00
  -4.142721e-02  -1.382714e-01   0.000000e+00
  -3.152786e-02   2.478899e-02   0.000000e+00
   8.012130e-02  -1.146736e-01   0.000000e+00
  -2.998134e-02   9.844641e-02   0.000000e+00
   2.745733e-01  -1.795123e-01   0.000000e+00
  -2.827374e-03  -5.619358e-02   0.000000e+00
  -1.252251e-01   2.466706e-02   0.000000e+00
  -7.603810e-02   4.553868e-02   0.000000e+00
   0.000000e+00   0.000000e+00   0.000000e+00
  -1.921501e-01   6.499717e-02   0.000000e+00
   6.014492e-02   1.888100e-02   0.000000e+00
   2.077029e-02   4.338922e-02   0.000000e+00
  -1.218912e-01  -1.787360e-01   0.000000e+00
   3.947460e-02   2.553224e-02   0.000000e+00
   2.226930e-01  -1.061166e-01   0.000000e+00
   1.046678e-01   1.177726e-02   0.000000e+00
  -1.183924e-01   2.152168e-02   0.000000e+00
  -6.990618e-02  -7.256055e-02   0.000000e+00
  -6.613673e-02   2.957618e-02   0.000000e+00
  -2.579707e-02  -1.171446e-01   0.000000e+00
   0.000000e+00   0.000000e+00   0.000000e+00
  -5.920789e-03   1.858619e-02   0.000000e+00
  -5.643990e-02   3.177273e-03   0.000000e+00
  -2.718746e-02   5.958599e-02   0.000000e+00
   7.833642e-03   2.206197e-02   0.000000e+00
   0.000000e+00   0.000000e+00   0.000000e+00
   1.124046e-03  -1.831563e-03   0.000000e+00
  -1.321436e-01   1.512390e-02   0.000000e+00
   9.756372e-02   8.872363e-02   0.000000e+00
   2.619559e-01   2.594715e-01   0.000000e+00
   6.693792e-02  -1.621638e-01   0.000000e+00
  -1.648242e-01  -1.956508e-01   0.000000e+00
   0.000000e+00   0.000000e+00   0.000000e+00
   2.705940e-02   7.078063e-02   0.000000e+00
  -1.660877e-01  -2.776209e-01   0.000000e+00
   4.348419e-02   1.338907e-01   0.000000e+00
  -4.144862e-02  -9.342799e-02   0.000000e+00
  -9.475419e-03  -4.877298e-03   0.000000e+00
  -8.406793e-02   2.217586e-02   0.000000e+00
  -7.246772e-02  -5.775111e-02   0.000000e+00
  -9.555152e-02   2.047629e-01   0.000000e+00
   9.581055e-02  -2.290194e-02   0.000000e+00
VECTORS Imag_Arrow_2.511800e+01(Hz) float
  -1.814071e-02   5.929831e-03   0.000000e+00
   1.088799e-02  -5.665928e-02   0.000000e+00
   0.000000e+00   0.000000e+00   0.000000e+00
  -3.240745e-02  -1.596122e-01   0.000000e+00
  -6.805169e-02   1.202504e-02   0.000000e+00
  -4.278105e-02  -2.332310e-02   0.000000e+00
   9.647956e-03  -5.692813e-02   0.000000e+00
  -4.061258e-02   2.598172e-02   0.000000e+00
   3.444578e-02   1.149934e-02   0.000000e+00
  -1.358900e-01  -3.042487e-02   0.000000e+00
  -6.622488e-02   4.033185e-02   0.000000e+00
  -6.933462e-02   1.267238e-02   0.000000e+00
   0.000000e+00   0.000000e+00   0.000000e+00
  -1.880678e-01  -9.871984e-02   0.000000e+00
  -6.964977e-02  -2.200970e-03   0.000000e+00
  -1.464168e-01  -2.479278e-03   0.000000e+00
   4.982594e-02   1.030551e-01   0.000000e+00
  -1.505319e-04  -1.590972e-02   0.000000e+00
  -1.566365e-01   7.193823e-02   0.000000e+00
  -7.149652e-02  -6.659429e-03   0.000000e+00
  -1.509097e-02  -2.247834e-02   0.000000e+00
  -1.010128e-01   4.941703e-03   0.000000e+00
  -1.228915e-02  -1.390952e-02   0.000000e+00
  -9.551097e-02   6.917007e-03   0.000000e+00
   0.000000e+00   0.000000e+00   0.000000e+00
  -6.398159e-02   4.824964e-02   0.000000e+00
  -9.637404e-02  -1.322112e-01   0.000000e+00
  -6.077652e-02  -1.047014e-01   0.000000e+00
  -4.486176e-02   1.213106e-03   0.000000e+00
   0.000000e+00   0.000000e+00   0.000000e+00
  -5.936471e-02   2.023159e-02   0.000000e+00
  -1.142672e-01   6.677229e-04   0.000000e+00
   3.957238e-02  -8.131208e-03   0.000000e+00
   2.657231e-02  -4.283094e-02   0.000000e+00
  -3.163689e-02   3.498191e-02   0.000000e+00
  -2.119575e-01   7.926408e-03   0.000000e+00
   0.000000e+00   0.000000e+00   0.000000e+00
  -6.498194e-02  -9.792361e-03   0.000000e+00
  -5.671872e-02  -2.023311e-01   0.000000e+00
  -8.291566e-02   2.007426e-01   0.000000e+00
  -1.539277e-02   6.414165e-02   0.000000e+00
  -4.203948e-02   2.970688e-03   0.000000e+00
   7.257720e-02   5.543454e-02   0.000000e+00
  -1.548449e-01  -2.322647e-02   0.000000e+00
  -8.313738e-02  -1.731672e-01   0.000000e+00
   3.077038e-02  -1.187961e-01   0.000000e+00
VECTORS Real_Arrow_3.981000e+01(Hz) float
  -3.598288e-02  -1.302227e-01   0.000000e+00
  -1.021017e-01   1.375436e-01   0.000000e+00
  -4.399687e-02   9.799869e-02   0.000000e+00
   5.270837e-02  -2.883186e-01   0.000000e+00
  -2.852954e-02  -1.420106e-01   0.000000e+00
  -8.751800e-03   2.761308e-02   0.000000e+00
   7.846200e-02  -9.317382e-02   0.000000e+00
   0.000000e+00   0.000000e+00   0.000000e+00
   2.416330e-01  -1.966676e-01   0.000000e+00
   5.392358e-02  -4.400484e-02   0.000000e+00
  -9.707359e-02   1.457110e-02   0.000000e+00
  -6.195104e-02   2.949482e-02   0.000000e+00
   0.000000e+00   0.000000e+00   0.000000e+00
  -1.066119e-01   1.012056e-01   0.000000e+00
   7.669889e-02   2.291755e-02   0.000000e+00
   8.186862e-02   3.905592e-02   0.000000e+00
  -1.334654e-01  -2.204628e-01   0.000000e+00
   3.177631e-02   4.154283e-02   0.000000e+00
   0.000000e+00   0.000000e+00   0.000000e+00
   1.190365e-01   1.950784e-02   0.000000e+00
  -1.123817e-01   2.450767e-02   0.000000e+00
  -3.178179e-02  -7.756914e-02   0.000000e+00
  -6.557975e-02   4.471253e-02   0.000000e+00
  -1.395145e-03  -1.214210e-01   0.000000e+00
   0.000000e+00   0.000000e+00   0.000000e+00
   7.631198e-03  -1.640481e-02   0.000000e+00
  -1.450349e-02   5.072398e-02   0.000000e+00
   1.756549e-03   9.288504e-02   0.000000e+00
   0.000000e+00   0.000000e+00   0.000000e+00
   1.213309e-01  -1.150755e-01   0.000000e+00
   1.804923e-02  -1.790488e-02   0.000000e+00
  -9.054178e-02   3.616227e-03   0.000000e+00
   0.000000e+00   0.000000e+00   0.000000e+00
   2.276990e-01   2.605606e-01   0.000000e+00
   7.209315e-02  -1.824091e-01   0.000000e+00
  -6.583377e-02  -1.989168e-01   0.000000e+00
   0.000000e+00   0.000000e+00   0.000000e+00
   3.955563e-02   7.333292e-02   0.000000e+00
  -1.438054e-01  -1.829295e-01   0.000000e+00
   5.992243e-02   5.693781e-02   0.000000e+00
  -4.132169e-02  -1.066617e-01   0.000000e+00
  -1.224083e-02  -3.959915e-04   0.000000e+00
  -1.141204e-01  -1.014974e-02   0.000000e+00
  -9.843219e-03  -4.966886e-02   0.000000e+00
  -5.772573e-02   2.660983e-01   0.000000e+00
   7.767351e-02   1.733363e-02   0.000000e+00
VECTORS Imag_Arrow_3.981000e+01(Hz) float
   4.137757e-03  -2.072067e-02   0.000000e+00
   3.774828e-02  -6.838253e-02   0.000000e+00
   3.076230e-02  -4.258144e-02   0.000000e+00
  -1.876137e-02  -1.639019e-01   0.000000e+00
  -5.069372e-02  -1.069342e-02   0.000000e+00
  -4.763932e-02  -2.987214e-03   0.000000e+00
   1.815759e-02  -7.251409e-02   0.000000e+00
   0.000000e+00   0.000000e+00   0.000000e+00
   7.889292e-02   5.717106e-03   0.000000e+00
  -1.082463e-01  -3.458370e-02   0.000000e+00
  -6.797313e-02   3.265326e-02   0.000000e+00
  -4.609027e-02   1.906315e-02   0.000000e+00
   0.000000e+00   0.000000e+00   0.000000e+00
  -2.105549e-01  -6.761871e-02   0.000000e+00
  -3.080254e-02  -1.101437e-02   0.000000e+00
  -1.295100e-01   1.317762e-02   0.000000e+00
   3.973875e-02   9.344795e-02   0.000000e+00
   1.241264e-02  -3.665270e-02   0.000000e+00
   0.000000e+00   0.000000e+00   0.000000e+00
  -3.143218e-02  -1.505686e-02   0.000000e+00
  -1.809359e-02  -2.091372e-02   0.000000e+00
  -8.415629e-02  -4.847893e-03   0.000000e+00
  -7.657549e-03  -3.765932e-02   0.000000e+00
  -7.993456e-02   9.036145e-03   0.000000e+00
   0.000000e+00   0.000000e+00   0.000000e+00
  -3.105033e-02   6.290477e-02   0.000000e+00
  -1.046313e-01  -1.134047e-01   0.000000e+00
  -6.170088e-02  -8.294946e-02   0.000000e+00
   0.000000e+00   0.000000e+00   0.000000e+00
  -3.269732e-02   3.044702e-02   0.000000e+00
  -4.833787e-02   2.582449e-02   0.000000e+00
  -1.107640e-01   1.495391e-02   0.000000e+00
   0.000000e+00   0.000000e+00   0.000000e+00
   8.954849e-02   2.675738e-02   0.000000e+00
  -1.123236e-02   6.727858e-03   0.000000e+00
  -2.217982e-01  -2.492380e-03   0.000000e+00
   0.000000e+00   0.000000e+00   0.000000e+00
  -1.408363e-02   2.832809e-04   0.000000e+00
  -6.451051e-02  -2.118922e-01   0.000000e+00
  -5.903994e-02   2.031133e-01   0.000000e+00
  -6.853813e-03   5.706994e-02   0.000000e+00
  -1.854247e-02  -3.713558e-03   0.000000e+00
   6.300459e-02   6.495436e-02   0.000000e+00
  -1.450167e-01  -2.772146e-02   0.000000e+00
  -9.245852e-02  -1.404950e-01   0.000000e+00
   5.183951e-02  -1.078644e-01   0.000000e+00
VECTORS Real_Arrow_6.309500e+01(Hz) float
  -5.182738e-02  -1.130758e-01   0.000000e+00
  -1.369252e-01   1.744354e-01   0.000000e+00
  -6.922029e-02   1.223620e-01   0.000000e+00
   5.028308e-02  -2.311729e-01   0.000000e+00
  -2.255277e-02  -1.330596e-01   0.000000e+00
   1.249947e-02   2.036303e-02   0.000000e+00
   7.023627e-02  -6.243796e-02   0.000000e+00
   0.000000e+00   0.000000e+00   0.000000e+00
   0.000000e+00   0.000000e+00   0.000000e+00
   8.832925e-02  -3.117976e-02   0.000000e+00
  -7.137007e-02   8.814636e-03   0.000000e+00
  -5.674366e-02   1.598623e-02   0.000000e+00
   0.000000e+00   0.000000e+00   0.000000e+00
  -2.116142e-02   1.160169e-01   0.000000e+00
   7.078517e-02   3.280385e-02   0.000000e+00
   1.250378e-01   2.885671e-02   0.000000e+00
  -1.426849e-01  -2.542323e-01   0.000000e+00
   2.470737e-02   6.239643e-02   0.000000e+00
   0.000000e+00   0.000000e+00   0.000000e+00
   1.110891e-01   3.035892e-02   0.000000e+00
  -1.050620e-01   3.091019e-02   0.000000e+00
  -1.795239e-03  -7.050838e-02   0.000000e+00
  -6.215851e-02   7.039273e-02   0.000000e+00
   0.000000e+00   0.000000e+00   0.000000e+00
   0.000000e+00   0.000000e+00   0.000000e+00
   3.845234e-03  -5.442886e-02   0.000000e+00
   2.501409e-02   8.446008e-02   0.000000e+00
   2.677283e-02   1.130216e-01   0.000000e+00
   0.000000e+00   0.000000e+00   0.000000e+00
   1.175000e-01  -1.294096e-01   0.000000e+00
   3.212187e-02  -2.937694e-02   0.000000e+00
  -5.272708e-02  -1.161043e-02   0.000000e+00
   8.006198e-02   8.387467e-02   0.000000e+00
   1.695146e-01   2.299109e-01   0.000000e+00
   0.000000e+00   0.000000e+00   0.000000e+00
   2.528503e-02  -1.970044e-01   0.000000e+00
   4.037870e-02   3.128137e-01   0.000000e+00
   0.000000e+00   0.000000e+00   0.000000e+00
  -1.230522e-01  -9.865152e-02   0.000000e+00
   6.554111e-02  -1.992731e-02   0.000000e+00
  -3.980511e-02  -1.208954e-01   0.000000e+00
  -2.210127e-02   7.565368e-03   0.000000e+00
  -1.391169e-01  -4.019477e-02   0.000000e+00
   3.876915e-02  -4.189309e-02   0.000000e+00
  -2.228436e-02   3.079742e-01   0.000000e+00
   4.819683e-02   5.112785e-02   0.000000e+00
VECTORS Imag_Arrow_6.309500e+01(Hz) float
   6.140213e-03  -4.211353e-02   0.000000e+00
   3.491761e-02  -6.069348e-02   0.000000e+00
   3.326582e-02  -3.121941e-02   0.000000e+00
  -1.103497e-02  -1.556319e-01   0.000000e+00
  -4.474561e-02  -3.375393e-02   0.000000e+00
  -4.277814e-02   1.302868e-02   0.000000e+00
   2.699694e-02  -8.385956e-02   0.000000e+00
   0.000000e+00   0.000000e+00   0.000000e+00
   0.000000e+00   0.000000e+00   0.000000e+00
  -6.278191e-02  -3.604135e-02   0.000000e+00
  -5.839880e-02   2.718079e-02   0.000000e+00
  -2.651559e-02   1.705462e-02   0.000000e+00
   0.000000e+00   0.000000e+00   0.000000e+00
  -2.051626e-01  -2.943771e-02   0.000000e+00
   3.186481e-04  -1.380914e-02   0.000000e+00
  -9.341816e-02   2.599204e-02   0.000000e+00
   3.178373e-02   7.288132e-02   0.000000e+00
   2.182580e-02  -4.574034e-02   0.000000e+00
   0.000000e+00   0.000000e+00   0.000000e+00
  -9.864622e-04  -1.485298e-02   0.000000e+00
  -1.814322e-02  -2.012293e-02   0.000000e+00
  -5.627280e-02  -1.684394e-02   0.000000e+00
  -1.886193e-03  -4.795935e-02   0.000000e+00
   0.000000e+00   0.000000e+00   0.000000e+00
   0.000000e+00   0.000000e+00   0.000000e+00
  -6.526151e-03   5.408101e-02   0.000000e+00
  -1.005257e-01  -8.828941e-02   0.000000e+00
  -5.169601e-02  -6.050414e-02   0.000000e+00
   0.000000e+00   0.000000e+00   0.000000e+00
   2.043171e-03   1.185726e-02   0.000000e+00
  -3.655337e-02   2.401542e-02   0.000000e+00
  -1.022983e-01   1.763003e-02   0.000000e+00
   1.766842e-02   8.153050e-03   0.000000e+00
   1.257574e-01   8.700682e-02   0.000000e+00
   0.000000e+00   0.000000e+00   0.000000e+00
  -1.952821e-01  -1.375524e-02   0.000000e+00
  -7.301949e-02   4.083093e-02   0.000000e+00
   0.000000e+00   0.000000e+00   0.000000e+00
  -7.037058e-02  -1.860251e-01   0.000000e+00
  -4.688118e-02   1.876444e-01   0.000000e+00
   8.012638e-04   5.789097e-02   0.000000e+00
  -1.542856e-02  -2.078143e-03   0.000000e+00
   4.413808e-02   6.119924e-02   0.000000e+00
  -1.205181e-01  -3.134506e-02   0.000000e+00
  -8.989984e-02  -9.831293e-02   0.000000e+00
   6.248954e-02  -9.317320e-02   0.000000e+00
