# vtk DataFile Version 2.0
Induction_Arrow_Iter8_PE5
ASCII
DATASET UNSTRUCTURED_GRID
POINTS 46 float
  -2.052000e+03    1.667000e+03   -4.526633e+02
  -1.265000e+03    2.333000e+03   -4.555885e+02
  -9.840000e+02    2.568000e+03   -4.612271e+02
   1.700000e+03   -1.757000e+03   -5.237752e+02
  -1.152000e+03    1.382000e+03   -4.549280e+02
   3.187000e+03    1.067000e+03   -8.370176e+02
   4.716000e+03    9.370000e+02   -8.015281e+02
  -1.855000e+03    5.260000e+02   -5.147377e+02
  -1.420000e+02   -1.905000e+03   -4.746368e+02
  -5.800000e+01    1.069000e+03   -4.555494e+02
  -2.802000e+03    3.302000e+03   -4.314337e+02
  -5.640000e+03   -1.532000e+03   -4.911771e+02
  -8.030000e+02   -5.610000e+02   -5.280929e+02
   1.008000e+03    4.130000e+02   -5.983358e+02
   1.960000e+02    2.246000e+03   -5.219413e+02
  -3.457000e+03    8.320000e+02   -4.470735e+02
   5.640000e+03    2.452000e+03   -7.393049e+02
  -1.334000e+03    3.332000e+03   -4.456136e+02
   1.244000e+03    1.880000e+03   -6.331107e+02
  -2.680000e+02    2.144000e+03   -4.891390e+02
  -4.063000e+03    6.620000e+02   -4.746103e+02
  -1.258000e+03    6.330000e+02   -4.856841e+02
  -2.141000e+03    3.194000e+03   -4.348461e+02
  -3.469000e+03   -3.059000e+03   -6.067613e+02
  -1.604000e+03   -2.570000e+02   -5.141257e+02
  -1.454000e+03    2.220000e+02   -5.386025e+02
   1.864000e+03    1.270000e+02   -7.404291e+02
   2.449000e+03    5.590000e+02   -7.805292e+02
  -1.834000e+03   -1.554000e+03   -6.273074e+02
   1.807000e+03    2.297000e+03   -6.825557e+02
  -2.560000e+03   -1.783000e+03   -6.131337e+02
  -2.741000e+03   -5.010000e+02   -5.080000e+02
   2.884000e+03   -2.179000e+03   -5.274708e+02
  -6.120000e+02   -8.960000e+02   -5.895389e+02
  -1.985000e+03   -2.653000e+03   -5.598834e+02
  -3.390000e+03   -4.000000e+02   -4.982361e+02
   1.586000e+03    1.342000e+03   -6.618442e+02
   1.047000e+03    2.401000e+03   -5.426792e+02
   8.380000e+02   -1.300000e+03   -4.783644e+02
   2.569000e+03    2.441000e+03   -6.035668e+02
  -2.028000e+03    2.833000e+03   -4.322286e+02
  -1.086000e+03    1.998000e+03   -4.563301e+02
   1.514000e+03   -3.332000e+03   -5.646205e+02
   7.040000e+02    1.116000e+03   -5.365099e+02
   1.990000e+03    6.360000e+02   -7.085272e+02
   3.722000e+03   -1.700000e+02   -6.745213e+02
CELLS 46 92
1 0
1 1
1 2
1 3
1 4
1 5
1 6
1 7
1 8
1 9
1 10
1 11
1 12
1 13
1 14
1 15
1 16
1 17
1 18
1 19
1 20
1 21
1 22
1 23
1 24
1 25
1 26
1 27
1 28
1 29
1 30
1 31
1 32
1 33
1 34
1 35
1 36
1 37
1 38
1 39
1 40
1 41
1 42
1 43
1 44
1 45
CELL_TYPES 46
1
1
1
1
1
1
1
1
1
1
1
1
1
1
1
1
1
1
1
1
1
1
1
1
1
1
1
1
1
1
1
1
1
1
1
1
1
1
1
1
1
1
1
1
1
1
POINT_DATA 46
VECTORS Real_Arrow_2.511800e+01(Hz) float
  -2.501584e-02  -1.322206e-01   0.000000e+00
  -7.453417e-02   1.070278e-01   0.000000e+00
   0.000000e+00   0.000000e+00   0.000000e+00
   4.697760e-02  -3.515498e-01   0.000000e+00
  -4.147894e-02  -1.384973e-01   0.000000e+00
  -3.213023e-02   2.586549e-02   0.000000e+00
   8.143140e-02  -1.140294e-01   0.000000e+00
  -2.973321e-02   9.906114e-02   0.000000e+00
   2.732148e-01  -1.803422e-01   0.000000e+00
  -3.721540e-03  -5.653631e-02   0.000000e+00
  -1.253946e-01   2.509134e-02   0.000000e+00
  -7.529248e-02   4.614056e-02   0.000000e+00
   0.000000e+00   0.000000e+00   0.000000e+00
  -1.932562e-01   6.577341e-02   0.000000e+00
   6.083399e-02   1.934784e-02   0.000000e+00
   2.119487e-02   4.337909e-02   0.000000e+00
  -1.222004e-01  -1.793024e-01   0.000000e+00
   3.895069e-02   2.546778e-02   0.000000e+00
   2.228489e-01  -1.042775e-01   0.000000e+00
   1.049477e-01   1.181401e-02   0.000000e+00
  -1.177418e-01   2.199279e-02   0.000000e+00
  -7.017873e-02  -7.289803e-02   0.000000e+00
  -6.640077e-02   3.019547e-02   0.000000e+00
  -2.413810e-02  -1.174212e-01   0.000000e+00
   0.000000e+00   0.000000e+00   0.000000e+00
  -5.654946e-03   1.861454e-02   0.000000e+00
  -5.688944e-02   3.058717e-03   0.000000e+00
  -2.732432e-02   6.009606e-02   0.000000e+00
   8.045980e-03   2.099898e-02   0.000000e+00
   0.000000e+00   0.000000e+00   0.000000e+00
   2.665089e-03  -9.788393e-04   0.000000e+00
  -1.326317e-01   1.621463e-02   0.000000e+00
   9.732768e-02   8.806171e-02   0.000000e+00
   2.645132e-01   2.588313e-01   0.000000e+00
   6.721226e-02  -1.621312e-01   0.000000e+00
  -1.657099e-01  -1.942865e-01   0.000000e+00
   0.000000e+00   0.000000e+00   0.000000e+00
   2.665714e-02   7.195403e-02   0.000000e+00
  -1.657743e-01  -2.781414e-01   0.000000e+00
   4.215830e-02   1.334673e-01   0.000000e+00
  -4.195505e-02  -9.368414e-02   0.000000e+00
  -9.632302e-03  -4.639327e-03   0.000000e+00
  -8.386558e-02   2.367669e-02   0.000000e+00
  -7.292068e-02  -5.853024e-02   0.000000e+00
  -9.601286e-02   2.053023e-01   0.000000e+00
   9.656117e-02  -2.283412e-02   0.000000e+00
VECTORS Imag_Arrow_2.511800e+01(Hz) float
  -1.798230e-02   6.554982e-03   0.000000e+00
   1.057491e-02  -5.623556e-02   0.000000e+00
   0.000000e+00   0.000000e+00   0.000000e+00
  -3.222816e-02  -1.588564e-01   0.000000e+00
  -6.843623e-02   1.227901e-02   0.000000e+00
  -4.234896e-02  -2.386653e-02   0.000000e+00
   1.021981e-02  -5.724124e-02   0.000000e+00
  -4.054696e-02   2.713598e-02   0.000000e+00
   3.571318e-02   1.192273e-02   0.000000e+00
  -1.358157e-01  -3.026269e-02   0.000000e+00
  -6.430328e-02   4.047047e-02   0.000000e+00
  -6.919702e-02   1.337812e-02   0.000000e+00
   0.000000e+00   0.000000e+00   0.000000e+00
  -1.882410e-01  -9.878360e-02   0.000000e+00
  -7.010648e-02  -1.512829e-03   0.000000e+00
  -1.455258e-01  -1.780739e-03   0.000000e+00
   4.916020e-02   1.025757e-01   0.000000e+00
   5.397406e-04  -1.565477e-02   0.000000e+00
  -1.570130e-01   7.195875e-02   0.000000e+00
  -7.168930e-02  -5.992145e-03   0.000000e+00
  -1.595205e-02  -2.198071e-02   0.000000e+00
  -1.014213e-01   4.900827e-03   0.000000e+00
  -1.155986e-02  -1.388288e-02   0.000000e+00
  -9.534470e-02   6.099889e-03   0.000000e+00
   0.000000e+00   0.000000e+00   0.000000e+00
  -6.380637e-02   4.866853e-02   0.000000e+00
  -9.603531e-02  -1.324517e-01   0.000000e+00
  -6.041038e-02  -1.051911e-01   0.000000e+00
  -4.466402e-02   8.218255e-04   0.000000e+00
   0.000000e+00   0.000000e+00   0.000000e+00
  -5.806814e-02   2.048525e-02   0.000000e+00
  -1.163020e-01   2.005515e-04   0.000000e+00
   3.957016e-02  -8.135963e-03   0.000000e+00
   2.530610e-02  -4.354445e-02   0.000000e+00
  -3.117673e-02   3.537623e-02   0.000000e+00
  -2.118589e-01   8.020164e-03   0.000000e+00
   0.000000e+00   0.000000e+00   0.000000e+00
  -6.572029e-02  -1.089004e-02   0.000000e+00
  -5.714912e-02  -2.025814e-01   0.000000e+00
  -8.380000e-02   2.009276e-01   0.000000e+00
  -1.512023e-02   6.475587e-02   0.000000e+00
  -4.243732e-02   3.323040e-03   0.000000e+00
   7.244463e-02   5.565919e-02   0.000000e+00
  -1.553710e-01  -2.324184e-02   0.000000e+00
  -8.269970e-02  -1.733531e-01   0.000000e+00
   3.085523e-02  -1.182077e-01   0.000000e+00
VECTORS Real_Arrow_3.981000e+01(Hz) float
  -3.650005e-02  -1.307461e-01   0.000000e+00
  -1.018452e-01   1.375599e-01   0.000000e+00
  -4.392376e-02   9.825176e-02   0.000000e+00
   5.356485e-02  -2.894909e-01   0.000000e+00
  -2.819683e-02  -1.422772e-01   0.000000e+00
  -9.435827e-03   2.884123e-02   0.000000e+00
   7.935121e-02  -9.272827e-02   0.000000e+00
   0.000000e+00   0.000000e+00   0.000000e+00
   2.402308e-01  -1.974043e-01   0.000000e+00
   5.313249e-02  -4.432382e-02   0.000000e+00
  -9.830042e-02   1.488487e-02   0.000000e+00
  -6.162670e-02   2.934777e-02   0.000000e+00
   0.000000e+00   0.000000e+00   0.000000e+00
  -1.076734e-01   1.018807e-01   0.000000e+00
   7.747346e-02   2.307408e-02   0.000000e+00
   8.164215e-02   3.858418e-02   0.000000e+00
  -1.330716e-01  -2.208717e-01   0.000000e+00
   3.100106e-02   4.117406e-02   0.000000e+00
   0.000000e+00   0.000000e+00   0.000000e+00
   1.194476e-01   1.927311e-02   0.000000e+00
  -1.116535e-01   2.435914e-02   0.000000e+00
  -3.167840e-02  -7.785015e-02   0.000000e+00
  -6.610497e-02   4.516687e-02   0.000000e+00
  -4.639274e-05  -1.212502e-01   0.000000e+00
   0.000000e+00   0.000000e+00   0.000000e+00
   7.845288e-03  -1.655893e-02   0.000000e+00
  -1.510754e-02   5.062530e-02   0.000000e+00
   1.486133e-03   9.353060e-02   0.000000e+00
   0.000000e+00   0.000000e+00   0.000000e+00
   1.237457e-01  -1.105932e-01   0.000000e+00
   1.847900e-02  -1.738281e-02   0.000000e+00
  -9.012494e-02   4.949788e-03   0.000000e+00
   0.000000e+00   0.000000e+00   0.000000e+00
   2.310192e-01   2.607136e-01   0.000000e+00
   7.189560e-02  -1.826286e-01   0.000000e+00
  -6.666951e-02  -1.975409e-01   0.000000e+00
   0.000000e+00   0.000000e+00   0.000000e+00
   3.894682e-02   7.476300e-02   0.000000e+00
  -1.431191e-01  -1.833725e-01   0.000000e+00
   5.970196e-02   5.671744e-02   0.000000e+00
  -4.168215e-02  -1.072972e-01   0.000000e+00
  -1.207814e-02  -3.627908e-04   0.000000e+00
  -1.140553e-01  -9.172728e-03   0.000000e+00
  -1.011007e-02  -5.042650e-02   0.000000e+00
  -5.835341e-02   2.666284e-01   0.000000e+00
   7.836674e-02   1.691045e-02   0.000000e+00
VECTORS Imag_Arrow_3.981000e+01(Hz) float
   4.008873e-03  -2.047598e-02   0.000000e+00
   3.753701e-02  -6.796243e-02   0.000000e+00
   3.080152e-02  -4.218607e-02   0.000000e+00
  -1.829310e-02  -1.637953e-01   0.000000e+00
  -5.099469e-02  -1.066875e-02   0.000000e+00
  -4.733647e-02  -3.050251e-03   0.000000e+00
   1.913484e-02  -7.220288e-02   0.000000e+00
   0.000000e+00   0.000000e+00   0.000000e+00
   7.975521e-02   4.917505e-03   0.000000e+00
  -1.088077e-01  -3.464692e-02   0.000000e+00
  -6.660090e-02   3.304481e-02   0.000000e+00
  -4.571449e-02   1.966775e-02   0.000000e+00
   0.000000e+00   0.000000e+00   0.000000e+00
  -2.112181e-01  -6.737979e-02   0.000000e+00
  -3.082956e-02  -1.035286e-02   0.000000e+00
  -1.287199e-01   1.338175e-02   0.000000e+00
   3.919026e-02   9.317749e-02   0.000000e+00
   1.255196e-02  -3.655885e-02   0.000000e+00
   0.000000e+00   0.000000e+00   0.000000e+00
  -3.141131e-02  -1.466359e-02   0.000000e+00
  -1.813995e-02  -2.020988e-02   0.000000e+00
  -8.472285e-02  -5.016649e-03   0.000000e+00
  -7.292679e-03  -3.752186e-02   0.000000e+00
  -7.900578e-02   8.397178e-03   0.000000e+00
   0.000000e+00   0.000000e+00   0.000000e+00
  -3.085072e-02   6.345220e-02   0.000000e+00
  -1.044910e-01  -1.134629e-01   0.000000e+00
  -6.144055e-02  -8.313163e-02   0.000000e+00
   0.000000e+00   0.000000e+00   0.000000e+00
  -3.276090e-02   2.755935e-02   0.000000e+00
  -4.676169e-02   2.642943e-02   0.000000e+00
  -1.126608e-01   1.511506e-02   0.000000e+00
   0.000000e+00   0.000000e+00   0.000000e+00
   8.951755e-02   2.576778e-02   0.000000e+00
  -1.092075e-02   7.132973e-03   0.000000e+00
  -2.227728e-01  -2.204113e-03   0.000000e+00
   0.000000e+00   0.000000e+00   0.000000e+00
  -1.405053e-02   1.128553e-03   0.000000e+00
  -6.475759e-02  -2.127429e-01   0.000000e+00
  -6.038489e-02   2.032875e-01   0.000000e+00
  -6.948265e-03   5.751083e-02   0.000000e+00
  -1.883997e-02  -3.522257e-03   0.000000e+00
   6.312335e-02   6.600460e-02   0.000000e+00
  -1.455918e-01  -2.809788e-02   0.000000e+00
  -9.216685e-02  -1.404134e-01   0.000000e+00
   5.231165e-02  -1.074513e-01   0.000000e+00
VECTORS Real_Arrow_6.309500e+01(Hz) float
  -5.219334e-02  -1.135365e-01   0.000000e+00
  -1.366228e-01   1.742146e-01   0.000000e+00
  -6.917480e-02   1.224763e-01   0.000000e+00
   5.083917e-02  -2.320818e-01   0.000000e+00
  -2.214100e-02  -1.332369e-01   0.000000e+00
   1.167276e-02   2.144477e-02   0.000000e+00
   7.052108e-02  -6.255093e-02   0.000000e+00
   0.000000e+00   0.000000e+00   0.000000e+00
   0.000000e+00   0.000000e+00   0.000000e+00
   8.816426e-02  -3.134016e-02   0.000000e+00
  -7.303568e-02   8.669336e-03   0.000000e+00
  -5.669117e-02   1.570486e-02   0.000000e+00
   0.000000e+00   0.000000e+00   0.000000e+00
  -2.171250e-02   1.164338e-01   0.000000e+00
   7.140315e-02   3.268813e-02   0.000000e+00
   1.245158e-01   2.855478e-02   0.000000e+00
  -1.421397e-01  -2.547167e-01   0.000000e+00
   2.409219e-02   6.204091e-02   0.000000e+00
   0.000000e+00   0.000000e+00   0.000000e+00
   1.113959e-01   3.009155e-02   0.000000e+00
  -1.046752e-01   3.032324e-02   0.000000e+00
  -1.289031e-03  -7.066934e-02   0.000000e+00
  -6.271150e-02   7.072812e-02   0.000000e+00
   0.000000e+00   0.000000e+00   0.000000e+00
   0.000000e+00   0.000000e+00   0.000000e+00
   3.882318e-03  -5.494200e-02   0.000000e+00
   2.439636e-02   8.421919e-02   0.000000e+00
   2.641207e-02   1.135747e-01   0.000000e+00
   0.000000e+00   0.000000e+00   0.000000e+00
   1.192062e-01  -1.251614e-01   0.000000e+00
   3.167089e-02  -2.926228e-02   0.000000e+00
  -5.138060e-02  -1.038773e-02   0.000000e+00
   7.988754e-02   8.388032e-02   0.000000e+00
   1.725475e-01   2.306724e-01   0.000000e+00
   0.000000e+00   0.000000e+00   0.000000e+00
   2.556970e-02  -1.956979e-01   0.000000e+00
   3.921142e-02   3.120462e-01   0.000000e+00
   0.000000e+00   0.000000e+00   0.000000e+00
  -1.222842e-01  -9.831701e-02   0.000000e+00
   6.611079e-02  -2.027101e-02   0.000000e+00
  -4.001027e-02  -1.216670e-01   0.000000e+00
  -2.184043e-02   7.584771e-03   0.000000e+00
  -1.392864e-01  -4.013200e-02   0.000000e+00
   3.880509e-02  -4.236849e-02   0.000000e+00
  -2.299745e-02   3.082914e-01   0.000000e+00
   4.850551e-02   5.054321e-02   0.000000e+00
VECTORS Imag_Arrow_6.309500e+01(Hz) float
   5.820937e-03  -4.223691e-02   0.000000e+00
   3.490840e-02  -6.045591e-02   0.000000e+00
   3.322286e-02  -3.105028e-02   0.000000e+00
  -1.019225e-02  -1.562694e-01   0.000000e+00
  -4.462371e-02  -3.379645e-02   0.000000e+00
  -4.270444e-02   1.348023e-02   0.000000e+00
   2.808752e-02  -8.334712e-02   0.000000e+00
   0.000000e+00   0.000000e+00   0.000000e+00
   0.000000e+00   0.000000e+00   0.000000e+00
  -6.373154e-02  -3.612449e-02   0.000000e+00
  -5.784085e-02   2.763704e-02   0.000000e+00
  -2.629954e-02   1.720539e-02   0.000000e+00
   0.000000e+00   0.000000e+00   0.000000e+00
  -2.064032e-01  -2.899042e-02   0.000000e+00
   5.846366e-04  -1.337981e-02   0.000000e+00
  -9.300687e-02   2.555109e-02   0.000000e+00
   3.181935e-02   7.253423e-02   0.000000e+00
   2.154527e-02  -4.589723e-02   0.000000e+00
   0.000000e+00   0.000000e+00   0.000000e+00
  -6.923932e-04  -1.473696e-02   0.000000e+00
  -1.760831e-02  -1.976323e-02   0.000000e+00
  -5.662786e-02  -1.707679e-02   0.000000e+00
  -1.715755e-03  -4.778644e-02   0.000000e+00
   0.000000e+00   0.000000e+00   0.000000e+00
   0.000000e+00   0.000000e+00   0.000000e+00
  -6.359395e-03   5.466254e-02   0.000000e+00
  -1.007429e-01  -8.816587e-02   0.000000e+00
  -5.168784e-02  -6.033201e-02   0.000000e+00
   0.000000e+00   0.000000e+00   0.000000e+00
   3.225228e-03   1.217308e-02   0.000000e+00
  -3.556422e-02   2.465155e-02   0.000000e+00
  -1.036152e-01   1.863966e-02   0.000000e+00
   1.766015e-02   7.802640e-03   0.000000e+00
   1.273499e-01   8.656919e-02   0.000000e+00
   0.000000e+00   0.000000e+00   0.000000e+00
  -1.968605e-01  -1.307781e-02   0.000000e+00
  -7.353614e-02   3.997762e-02   0.000000e+00
   0.000000e+00   0.000000e+00   0.000000e+00
  -7.021836e-02  -1.873527e-01   0.000000e+00
  -4.788808e-02   1.880237e-01   0.000000e+00
   7.228642e-04   5.810131e-02   0.000000e+00
  -1.534826e-02  -2.043778e-03   0.000000e+00
   4.426382e-02   6.225934e-02   0.000000e+00
  -1.211675e-01  -3.209970e-02   0.000000e+00
  -8.993398e-02  -9.796770e-02   0.000000e+00
   6.330830e-02  -9.321746e-02   0.000000e+00
