# vtk DataFile Version 2.0
Induction_Arrow_Iter0_PE6
ASCII
DATASET UNSTRUCTURED_GRID
POINTS 46 float
  -2.052000e+03    1.667000e+03   -4.526633e+02
  -1.265000e+03    2.333000e+03   -4.555885e+02
  -9.840000e+02    2.568000e+03   -4.612271e+02
   1.700000e+03   -1.757000e+03   -5.237752e+02
  -1.152000e+03    1.382000e+03   -4.549280e+02
   3.187000e+03    1.067000e+03   -8.370176e+02
   4.716000e+03    9.370000e+02   -8.015281e+02
  -1.855000e+03    5.260000e+02   -5.147377e+02
  -1.420000e+02   -1.905000e+03   -4.746368e+02
  -5.800000e+01    1.069000e+03   -4.555494e+02
  -2.802000e+03    3.302000e+03   -4.314337e+02
  -5.640000e+03   -1.532000e+03   -4.911771e+02
  -8.030000e+02   -5.610000e+02   -5.280929e+02
   1.008000e+03    4.130000e+02   -5.983358e+02
   1.960000e+02    2.246000e+03   -5.219413e+02
  -3.457000e+03    8.320000e+02   -4.470735e+02
   5.640000e+03    2.452000e+03   -7.393049e+02
  -1.334000e+03    3.332000e+03   -4.456136e+02
   1.244000e+03    1.880000e+03   -6.331107e+02
  -2.680000e+02    2.144000e+03   -4.891390e+02
  -4.063000e+03    6.620000e+02   -4.746103e+02
  -1.258000e+03    6.330000e+02   -4.856841e+02
  -2.141000e+03    3.194000e+03   -4.348461e+02
  -3.469000e+03   -3.059000e+03   -6.067613e+02
  -1.604000e+03   -2.570000e+02   -5.141257e+02
  -1.454000e+03    2.220000e+02   -5.386025e+02
   1.864000e+03    1.270000e+02   -7.404291e+02
   2.449000e+03    5.590000e+02   -7.805292e+02
  -1.834000e+03   -1.554000e+03   -6.273074e+02
   1.807000e+03    2.297000e+03   -6.825557e+02
  -2.560000e+03   -1.783000e+03   -6.131337e+02
  -2.741000e+03   -5.010000e+02   -5.080000e+02
   2.884000e+03   -2.179000e+03   -5.274708e+02
  -6.120000e+02   -8.960000e+02   -5.895389e+02
  -1.985000e+03   -2.653000e+03   -5.598834e+02
  -3.390000e+03   -4.000000e+02   -4.982361e+02
   1.586000e+03    1.342000e+03   -6.618442e+02
   1.047000e+03    2.401000e+03   -5.426792e+02
   8.380000e+02   -1.300000e+03   -4.783644e+02
   2.569000e+03    2.441000e+03   -6.035668e+02
  -2.028000e+03    2.833000e+03   -4.322286e+02
  -1.086000e+03    1.998000e+03   -4.563301e+02
   1.514000e+03   -3.332000e+03   -5.646205e+02
   7.040000e+02    1.116000e+03   -5.365099e+02
   1.990000e+03    6.360000e+02   -7.085272e+02
   3.722000e+03   -1.700000e+02   -6.745213e+02
CELLS 46 92
1 0
1 1
1 2
1 3
1 4
1 5
1 6
1 7
1 8
1 9
1 10
1 11
1 12
1 13
1 14
1 15
1 16
1 17
1 18
1 19
1 20
1 21
1 22
1 23
1 24
1 25
1 26
1 27
1 28
1 29
1 30
1 31
1 32
1 33
1 34
1 35
1 36
1 37
1 38
1 39
1 40
1 41
1 42
1 43
1 44
1 45
CELL_TYPES 46
1
1
1
1
1
1
1
1
1
1
1
1
1
1
1
1
1
1
1
1
1
1
1
1
1
1
1
1
1
1
1
1
1
1
1
1
1
1
1
1
1
1
1
1
1
1
POINT_DATA 46
VECTORS Real_Arrow_1.000000e+02(Hz) float
  -6.083587e-02  -8.884647e-02   0.000000e+00
  -1.580280e-01   2.023489e-01   0.000000e+00
  -8.527797e-02   1.334234e-01   0.000000e+00
   4.982049e-02  -1.821561e-01   0.000000e+00
  -1.477191e-02  -1.116300e-01   0.000000e+00
   2.828971e-02   6.589926e-03   0.000000e+00
   5.515152e-02  -2.379312e-02   0.000000e+00
  -6.872531e-02   6.349975e-02   0.000000e+00
   0.000000e+00   0.000000e+00   0.000000e+00
   9.138040e-02  -1.488900e-02   0.000000e+00
  -5.722503e-02   4.300608e-03   0.000000e+00
  -5.734048e-02   8.428055e-03   0.000000e+00
   0.000000e+00   0.000000e+00   0.000000e+00
   4.638588e-02   1.094709e-01   0.000000e+00
   5.550226e-02   4.114634e-02   0.000000e+00
   1.414896e-01   9.849919e-03   0.000000e+00
  -1.473206e-01  -2.767575e-01   0.000000e+00
   1.387999e-02   8.473003e-02   0.000000e+00
   0.000000e+00   0.000000e+00   0.000000e+00
   9.240319e-02   3.659633e-02   0.000000e+00
  -1.018530e-01   4.091590e-02   0.000000e+00
   4.387557e-03  -5.381717e-02   0.000000e+00
  -6.180805e-02   9.749205e-02   0.000000e+00
   3.760804e-02  -1.354453e-01   0.000000e+00
   0.000000e+00   0.000000e+00   0.000000e+00
  -3.365445e-03  -6.906083e-02   0.000000e+00
   5.947027e-02   1.103565e-01   0.000000e+00
   4.261667e-02   1.245941e-01   0.000000e+00
   3.302084e-02   4.841786e-03   0.000000e+00
   9.672410e-02  -1.276047e-01   0.000000e+00
   3.667715e-02  -3.371669e-02   0.000000e+00
  -2.375199e-02  -2.233128e-02   0.000000e+00
   7.647928e-02   7.755191e-02   0.000000e+00
   1.049266e-01   1.694714e-01   0.000000e+00
   6.330689e-02  -1.558256e-01   0.000000e+00
   8.589812e-02  -1.905464e-01   0.000000e+00
   5.473944e-02   2.665577e-01   0.000000e+00
   0.000000e+00   0.000000e+00   0.000000e+00
  -1.039602e-01  -4.583118e-02   0.000000e+00
   7.052583e-02  -8.383205e-02   0.000000e+00
   0.000000e+00   0.000000e+00   0.000000e+00
  -2.045792e-02   9.730211e-03   0.000000e+00
  -1.533192e-01  -6.317016e-02   0.000000e+00
   6.648096e-02  -3.343182e-02   0.000000e+00
   8.051368e-03   3.316711e-01   0.000000e+00
   1.448142e-02   7.866163e-02   0.000000e+00
VECTORS Imag_Arrow_1.000000e+02(Hz) float
   3.866641e-03  -4.725668e-02   0.000000e+00
   7.735664e-03  -3.410001e-02   0.000000e+00
   2.304153e-02  -1.089093e-02   0.000000e+00
  -1.729795e-02  -1.378799e-01   0.000000e+00
  -4.857133e-02  -5.225867e-02   0.000000e+00
  -2.898605e-02   2.072233e-02   0.000000e+00
   3.136993e-02  -8.391929e-02   0.000000e+00
  -3.246290e-02   2.773268e-02   0.000000e+00
   0.000000e+00   0.000000e+00   0.000000e+00
  -1.112225e-02  -3.818424e-02   0.000000e+00
  -4.192487e-02   2.262078e-02   0.000000e+00
  -1.587447e-02   9.360426e-03   0.000000e+00
   0.000000e+00   0.000000e+00   0.000000e+00
  -1.743457e-01   2.023886e-03   0.000000e+00
   1.392254e-02  -8.818438e-03   0.000000e+00
  -5.888938e-02   3.258956e-02   0.000000e+00
   2.474484e-02   4.613555e-02   0.000000e+00
   3.304032e-02  -4.733294e-02   0.000000e+00
   0.000000e+00   0.000000e+00   0.000000e+00
   8.584169e-03  -8.305238e-03   0.000000e+00
  -1.624014e-02  -2.055150e-02   0.000000e+00
  -2.204714e-02  -1.391498e-02   0.000000e+00
   9.720081e-03  -4.628912e-02   0.000000e+00
  -6.878174e-02   4.976639e-03   0.000000e+00
   0.000000e+00   0.000000e+00   0.000000e+00
   5.552584e-03   2.229634e-02   0.000000e+00
  -8.635053e-02  -6.257972e-02   0.000000e+00
  -3.331253e-02  -4.194120e-02   0.000000e+00
  -2.957861e-02   1.051338e-02   0.000000e+00
   1.890292e-02  -8.017521e-03   0.000000e+00
  -3.058558e-02   1.947782e-02   0.000000e+00
  -8.963535e-02   2.614888e-03   0.000000e+00
   9.468208e-03   1.246802e-02   0.000000e+00
   1.235735e-01   1.339607e-01   0.000000e+00
   1.874675e-02  -5.958897e-02   0.000000e+00
  -1.381579e-01  -2.934073e-02   0.000000e+00
  -3.346178e-02   8.703224e-02   0.000000e+00
   0.000000e+00   0.000000e+00   0.000000e+00
  -8.435273e-02  -1.468557e-01   0.000000e+00
  -4.345773e-02   1.505274e-01   0.000000e+00
   0.000000e+00   0.000000e+00   0.000000e+00
  -2.852151e-02   7.954185e-03   0.000000e+00
   1.583532e-02   4.733628e-02   0.000000e+00
  -9.350783e-02  -2.944934e-02   0.000000e+00
  -7.998367e-02  -5.405140e-02   0.000000e+00
   5.478751e-02  -7.500328e-02   0.000000e+00
VECTORS Real_Arrow_1.584800e+02(Hz) float
  -6.000261e-02  -6.889113e-02   0.000000e+00
  -1.553980e-01   2.086137e-01   0.000000e+00
  -9.328933e-02   1.304441e-01   0.000000e+00
   5.512615e-02  -1.478282e-01   0.000000e+00
   3.651021e-03  -8.799559e-02   0.000000e+00
   3.332197e-02  -5.229749e-03   0.000000e+00
   4.109460e-02   9.864678e-03   0.000000e+00
  -5.011149e-02   5.613933e-02   0.000000e+00
   0.000000e+00   0.000000e+00   0.000000e+00
   7.519274e-02  -5.709945e-04   0.000000e+00
  -4.958217e-02  -3.141493e-03   0.000000e+00
  -5.999966e-02   6.582958e-03   0.000000e+00
   0.000000e+00   0.000000e+00   0.000000e+00
   9.795319e-02   9.499109e-02   0.000000e+00
   4.502353e-02   4.261515e-02   0.000000e+00
   1.491008e-01  -5.901509e-03   0.000000e+00
  -1.547217e-01  -2.865560e-01   0.000000e+00
  -3.052104e-03   1.077240e-01   0.000000e+00
   0.000000e+00   0.000000e+00   0.000000e+00
   8.028137e-02   3.678242e-02   0.000000e+00
  -9.705579e-02   4.437804e-02   0.000000e+00
  -1.825591e-03  -4.643888e-02   0.000000e+00
  -7.011413e-02   1.149637e-01   0.000000e+00
   5.751870e-02  -1.390633e-01   0.000000e+00
   0.000000e+00   0.000000e+00   0.000000e+00
  -1.289898e-02  -6.669173e-02   0.000000e+00
   8.341300e-02   1.272232e-01   0.000000e+00
   4.795606e-02   1.327277e-01   0.000000e+00
   4.207426e-02   7.782884e-03   0.000000e+00
   7.720225e-02  -1.109052e-01   0.000000e+00
   4.129478e-02  -3.797270e-02   0.000000e+00
   9.050314e-03  -1.950538e-02   0.000000e+00
   7.608543e-02   7.238514e-02   0.000000e+00
   5.749463e-02   1.050423e-01   0.000000e+00
   5.107384e-02  -1.246223e-01   0.000000e+00
   1.123474e-01  -1.770248e-01   0.000000e+00
   4.711942e-02   2.086616e-01   0.000000e+00
   0.000000e+00   0.000000e+00   0.000000e+00
  -7.330346e-02  -1.270487e-02   0.000000e+00
   8.248210e-02  -1.203430e-01   0.000000e+00
   0.000000e+00   0.000000e+00   0.000000e+00
  -4.182306e-03   2.427863e-03   0.000000e+00
  -1.538795e-01  -7.912924e-02   0.000000e+00
   8.518997e-02  -2.435176e-02   0.000000e+00
   3.011475e-02   3.397879e-01   0.000000e+00
  -4.423475e-03   9.798625e-02   0.000000e+00
VECTORS Imag_Arrow_1.584800e+02(Hz) float
  -7.006915e-03  -4.912383e-02   0.000000e+00
  -2.069627e-02   4.951689e-04   0.000000e+00
   1.294902e-02   9.864583e-03   0.000000e+00
  -2.023778e-02  -1.241296e-01   0.000000e+00
  -4.678039e-02  -6.192363e-02   0.000000e+00
  -1.729008e-02   2.248666e-02   0.000000e+00
   3.071147e-02  -7.027487e-02   0.000000e+00
  -5.564338e-02   3.934181e-02   0.000000e+00
   0.000000e+00   0.000000e+00   0.000000e+00
   1.606729e-02  -3.302763e-02   0.000000e+00
  -3.179627e-02   2.811878e-02   0.000000e+00
  -9.134945e-03   1.956912e-04   0.000000e+00
   0.000000e+00   0.000000e+00   0.000000e+00
  -1.447859e-01   2.102880e-02   0.000000e+00
   1.962731e-02  -2.123642e-03   0.000000e+00
  -3.146545e-02   3.086040e-02   0.000000e+00
   1.901625e-02   1.722639e-02   0.000000e+00
   3.866145e-02  -4.423784e-02   0.000000e+00
   0.000000e+00   0.000000e+00   0.000000e+00
   8.133404e-03  -3.815048e-03   0.000000e+00
  -1.560147e-02  -1.547567e-02   0.000000e+00
   4.328552e-03  -4.861590e-03   0.000000e+00
   1.869781e-02  -3.209541e-02   0.000000e+00
  -5.895028e-02  -5.441700e-03   0.000000e+00
   0.000000e+00   0.000000e+00   0.000000e+00
   1.263382e-02  -3.933407e-03   0.000000e+00
  -7.811891e-02  -3.584723e-02   0.000000e+00
  -2.002676e-02  -2.570865e-02   0.000000e+00
  -1.753816e-02   2.147019e-02   0.000000e+00
   1.891070e-02  -1.656895e-02   0.000000e+00
  -1.529421e-02   1.974533e-02   0.000000e+00
  -7.301031e-02  -6.965426e-03   0.000000e+00
   3.411253e-03   1.442766e-02   0.000000e+00
   1.159662e-01   1.498244e-01   0.000000e+00
   3.503433e-02  -7.711082e-02   0.000000e+00
  -9.077277e-02  -3.637445e-02   0.000000e+00
  -8.936992e-03   1.004438e-01   0.000000e+00
   0.000000e+00   0.000000e+00   0.000000e+00
  -9.060820e-02  -1.107519e-01   0.000000e+00
  -4.612134e-02   1.048245e-01   0.000000e+00
   0.000000e+00   0.000000e+00   0.000000e+00
  -3.265432e-02   1.860673e-02   0.000000e+00
  -1.396028e-02   3.006159e-02   0.000000e+00
  -7.257935e-02  -4.207407e-02   0.000000e+00
  -7.515484e-02  -8.698644e-03   0.000000e+00
   3.489338e-02  -5.339662e-02   0.000000e+00
VECTORS Real_Arrow_2.511800e+02(Hz) float
  -5.291938e-02  -5.109227e-02   0.000000e+00
  -1.380082e-01   1.965333e-01   0.000000e+00
  -9.734968e-02   1.200990e-01   0.000000e+00
   6.301050e-02  -1.174477e-01   0.000000e+00
   1.908485e-02  -6.129673e-02   0.000000e+00
   3.192558e-02  -1.480335e-02   0.000000e+00
   2.858509e-02   3.194436e-02   0.000000e+00
  -2.193087e-02   3.917754e-02   0.000000e+00
   0.000000e+00   0.000000e+00   0.000000e+00
   5.619555e-02   9.186815e-03   0.000000e+00
  -4.450386e-02  -1.643496e-02   0.000000e+00
  -6.091142e-02   9.256064e-03   0.000000e+00
   5.104158e-02   2.942388e-01   0.000000e+00
   1.355229e-01   7.720207e-02   0.000000e+00
   3.562653e-02   4.095592e-02   0.000000e+00
   1.501685e-01  -1.644181e-02   0.000000e+00
  -1.623673e-01  -2.861253e-01   0.000000e+00
  -2.142965e-02   1.295530e-01   0.000000e+00
   0.000000e+00   0.000000e+00   0.000000e+00
   7.304134e-02   3.667898e-02   0.000000e+00
  -9.213086e-02   4.702214e-02   0.000000e+00
  -1.424972e-02  -4.740394e-02   0.000000e+00
  -8.287935e-02   1.222133e-01   0.000000e+00
   7.401921e-02  -1.370225e-01   0.000000e+00
   0.000000e+00   0.000000e+00   0.000000e+00
  -2.129194e-02  -5.436320e-02   0.000000e+00
   1.069764e-01   1.339822e-01   0.000000e+00
   4.889284e-02   1.353679e-01   0.000000e+00
   4.389497e-02   2.693946e-03   0.000000e+00
   6.689005e-02  -9.772017e-02   0.000000e+00
   3.858685e-02  -4.289692e-02   0.000000e+00
   3.348941e-02  -1.368417e-02   0.000000e+00
   7.655681e-02   6.787722e-02   0.000000e+00
   1.955783e-02   4.359519e-02   0.000000e+00
   0.000000e+00   0.000000e+00   0.000000e+00
   1.186086e-01  -1.616572e-01   0.000000e+00
   3.291948e-02   1.631558e-01   0.000000e+00
   0.000000e+00   0.000000e+00   0.000000e+00
  -3.931128e-02   1.040647e-02   0.000000e+00
   9.780036e-02  -1.308753e-01   0.000000e+00
  -7.282360e-02  -1.815419e-01   0.000000e+00
   1.115108e-02  -1.122824e-02   0.000000e+00
  -1.404344e-01  -8.455074e-02   0.000000e+00
   9.690604e-02  -6.446257e-03   0.000000e+00
   5.364734e-02   3.287763e-01   0.000000e+00
  -6.197850e-03   1.046406e-01   0.000000e+00
VECTORS Imag_Arrow_2.511800e+02(Hz) float
  -1.336925e-02  -4.792383e-02   0.000000e+00
  -4.231156e-02   3.003930e-02   0.000000e+00
   1.007797e-03   2.405194e-02   0.000000e+00
  -2.130881e-02  -1.174305e-01   0.000000e+00
  -3.978778e-02  -6.511473e-02   0.000000e+00
  -9.668148e-03   1.935149e-02   0.000000e+00
   2.459979e-02  -4.705439e-02   0.000000e+00
  -6.430184e-02   4.889827e-02   0.000000e+00
   0.000000e+00   0.000000e+00   0.000000e+00
   2.705271e-02  -2.493420e-02   0.000000e+00
  -2.640003e-02   2.992811e-02   0.000000e+00
  -7.551093e-03  -6.198224e-03   0.000000e+00
   4.862475e-02   2.037868e-01   0.000000e+00
  -1.150842e-01   2.953604e-02   0.000000e+00
   2.337479e-02   1.641263e-03   0.000000e+00
  -1.011688e-02   2.515300e-02   0.000000e+00
   1.158232e-02  -9.731191e-03   0.000000e+00
   3.632072e-02  -2.931818e-02   0.000000e+00
   0.000000e+00   0.000000e+00   0.000000e+00
   1.042565e-03  -2.453552e-03   0.000000e+00
  -1.553444e-02  -1.286050e-02   0.000000e+00
   1.795064e-02   4.596649e-03   0.000000e+00
   2.045918e-02  -1.632175e-02   0.000000e+00
  -4.802890e-02  -1.889227e-02   0.000000e+00
   0.000000e+00   0.000000e+00   0.000000e+00
   1.464665e-02  -1.727508e-02   0.000000e+00
  -7.098048e-02  -6.134951e-03   0.000000e+00
  -1.048501e-02  -1.132677e-02   0.000000e+00
  -4.772840e-03   4.136927e-02   0.000000e+00
   8.704970e-03  -1.107618e-02   0.000000e+00
  -4.694062e-03   2.228716e-02   0.000000e+00
  -4.556177e-02  -1.011585e-02   0.000000e+00
  -1.199976e-03   1.612158e-02   0.000000e+00
   1.023095e-01   1.454142e-01   0.000000e+00
   0.000000e+00   0.000000e+00   0.000000e+00
  -6.171057e-02  -3.945146e-02   0.000000e+00
  -1.951869e-03   8.119262e-02   0.000000e+00
   0.000000e+00   0.000000e+00   0.000000e+00
  -9.085241e-02  -8.338266e-02   0.000000e+00
  -4.673286e-02   7.256424e-02   0.000000e+00
   1.955739e-02   3.430397e-02   0.000000e+00
  -2.611088e-02   2.151940e-02   0.000000e+00
  -4.103785e-02   1.069996e-02   0.000000e+00
  -6.041411e-02  -5.272145e-02   0.000000e+00
  -7.119450e-02   3.344749e-02   0.000000e+00
   1.587144e-02  -3.340029e-02   0.000000e+00
