# vtk DataFile Version 2.0
Induction_Arrow_Iter1_PE7
ASCII
DATASET UNSTRUCTURED_GRID
POINTS 46 float
  -2.052000e+03    1.667000e+03   -4.526633e+02
  -1.265000e+03    2.333000e+03   -4.555885e+02
  -9.840000e+02    2.568000e+03   -4.612271e+02
   1.700000e+03   -1.757000e+03   -5.237752e+02
  -1.152000e+03    1.382000e+03   -4.549280e+02
   3.187000e+03    1.067000e+03   -8.370176e+02
   4.716000e+03    9.370000e+02   -8.015281e+02
  -1.855000e+03    5.260000e+02   -5.147377e+02
  -1.420000e+02   -1.905000e+03   -4.746368e+02
  -5.800000e+01    1.069000e+03   -4.555494e+02
  -2.802000e+03    3.302000e+03   -4.314337e+02
  -5.640000e+03   -1.532000e+03   -4.911771e+02
  -8.030000e+02   -5.610000e+02   -5.280929e+02
   1.008000e+03    4.130000e+02   -5.983358e+02
   1.960000e+02    2.246000e+03   -5.219413e+02
  -3.457000e+03    8.320000e+02   -4.470735e+02
   5.640000e+03    2.452000e+03   -7.393049e+02
  -1.334000e+03    3.332000e+03   -4.456136e+02
   1.244000e+03    1.880000e+03   -6.331107e+02
  -2.680000e+02    2.144000e+03   -4.891390e+02
  -4.063000e+03    6.620000e+02   -4.746103e+02
  -1.258000e+03    6.330000e+02   -4.856841e+02
  -2.141000e+03    3.194000e+03   -4.348461e+02
  -3.469000e+03   -3.059000e+03   -6.067613e+02
  -1.604000e+03   -2.570000e+02   -5.141257e+02
  -1.454000e+03    2.220000e+02   -5.386025e+02
   1.864000e+03    1.270000e+02   -7.404291e+02
   2.449000e+03    5.590000e+02   -7.805292e+02
  -1.834000e+03   -1.554000e+03   -6.273074e+02
   1.807000e+03    2.297000e+03   -6.825557e+02
  -2.560000e+03   -1.783000e+03   -6.131337e+02
  -2.741000e+03   -5.010000e+02   -5.080000e+02
   2.884000e+03   -2.179000e+03   -5.274708e+02
  -6.120000e+02   -8.960000e+02   -5.895389e+02
  -1.985000e+03   -2.653000e+03   -5.598834e+02
  -3.390000e+03   -4.000000e+02   -4.982361e+02
   1.586000e+03    1.342000e+03   -6.618442e+02
   1.047000e+03    2.401000e+03   -5.426792e+02
   8.380000e+02   -1.300000e+03   -4.783644e+02
   2.569000e+03    2.441000e+03   -6.035668e+02
  -2.028000e+03    2.833000e+03   -4.322286e+02
  -1.086000e+03    1.998000e+03   -4.563301e+02
   1.514000e+03   -3.332000e+03   -5.646205e+02
   7.040000e+02    1.116000e+03   -5.365099e+02
   1.990000e+03    6.360000e+02   -7.085272e+02
   3.722000e+03   -1.700000e+02   -6.745213e+02
CELLS 46 92
1 0
1 1
1 2
1 3
1 4
1 5
1 6
1 7
1 8
1 9
1 10
1 11
1 12
1 13
1 14
1 15
1 16
1 17
1 18
1 19
1 20
1 21
1 22
1 23
1 24
1 25
1 26
1 27
1 28
1 29
1 30
1 31
1 32
1 33
1 34
1 35
1 36
1 37
1 38
1 39
1 40
1 41
1 42
1 43
1 44
1 45
CELL_TYPES 46
1
1
1
1
1
1
1
1
1
1
1
1
1
1
1
1
1
1
1
1
1
1
1
1
1
1
1
1
1
1
1
1
1
1
1
1
1
1
1
1
1
1
1
1
1
1
POINT_DATA 46
VECTORS Real_Arrow_3.981000e+02(Hz) float
  -4.273369e-02  -3.386726e-02   0.000000e+00
  -1.134872e-01   1.738501e-01   0.000000e+00
  -9.537510e-02   1.069173e-01   0.000000e+00
   7.055717e-02  -8.418712e-02   0.000000e+00
   3.057020e-02  -3.576160e-02   0.000000e+00
   2.821944e-02  -1.909323e-02   0.000000e+00
   2.173855e-02   3.857541e-02   0.000000e+00
   3.949982e-03   2.136408e-02   0.000000e+00
   0.000000e+00   0.000000e+00   0.000000e+00
   4.075631e-02   1.350090e-02   0.000000e+00
  -3.830555e-02  -3.011198e-02   0.000000e+00
  -5.847366e-02   1.261179e-02   0.000000e+00
   3.980058e-02   2.209195e-01   0.000000e+00
   1.615903e-01   6.116762e-02   0.000000e+00
   2.485973e-02   3.904160e-02   0.000000e+00
   1.476920e-01  -2.402891e-02   0.000000e+00
  -1.700500e-01  -2.791944e-01   0.000000e+00
  -3.544486e-02   1.407057e-01   0.000000e+00
   2.659328e-01  -1.617643e-01   0.000000e+00
   7.147817e-02   3.851425e-02   0.000000e+00
  -8.363169e-02   4.919071e-02   0.000000e+00
  -2.477541e-02  -5.146810e-02   0.000000e+00
  -9.297113e-02   1.208316e-01   0.000000e+00
   8.797728e-02  -1.301464e-01   0.000000e+00
  -2.505167e-02  -6.346543e-02   0.000000e+00
  -2.811767e-02  -4.325191e-02   0.000000e+00
   1.294327e-01   1.295329e-01   0.000000e+00
   4.734347e-02   1.353058e-01   0.000000e+00
   3.993105e-02  -1.835753e-02   0.000000e+00
   6.436575e-02  -9.288578e-02   0.000000e+00
   3.269901e-02  -5.214835e-02   0.000000e+00
   3.991103e-02  -1.021291e-02   0.000000e+00
   7.672341e-02   6.219617e-02   0.000000e+00
  -1.076109e-02  -1.677901e-03   0.000000e+00
   0.000000e+00   0.000000e+00   0.000000e+00
   1.266513e-01  -1.460755e-01   0.000000e+00
   2.510558e-02   1.458910e-01   0.000000e+00
   0.000000e+00   0.000000e+00   0.000000e+00
  -7.554833e-03   2.666647e-02   0.000000e+00
   1.151830e-01  -1.363016e-01   0.000000e+00
  -8.098073e-02  -1.935811e-01   0.000000e+00
   1.967289e-02  -2.312117e-02   0.000000e+00
  -1.166642e-01  -8.028363e-02   0.000000e+00
   1.084833e-01   1.450747e-02   0.000000e+00
   7.645334e-02   3.024448e-01   0.000000e+00
  -3.965922e-04   1.038143e-01   0.000000e+00
VECTORS Imag_Arrow_3.981000e+02(Hz) float
  -1.458548e-02  -4.382443e-02   0.000000e+00
  -5.256382e-02   4.754896e-02   0.000000e+00
  -1.258581e-02   3.237607e-02   0.000000e+00
  -2.102508e-02  -1.155785e-01   0.000000e+00
  -3.168740e-02  -6.089032e-02   0.000000e+00
  -7.981282e-03   1.372024e-02   0.000000e+00
   1.498812e-02  -2.426421e-02   0.000000e+00
  -6.430508e-02   5.219750e-02   0.000000e+00
   0.000000e+00   0.000000e+00   0.000000e+00
   2.890163e-02  -1.805253e-02   0.000000e+00
  -2.254107e-02   2.660036e-02   0.000000e+00
  -6.897386e-03  -1.045220e-02   0.000000e+00
   3.603738e-02   1.940204e-01   0.000000e+00
  -8.853407e-02   2.849896e-02   0.000000e+00
   2.508147e-02   3.885964e-03   0.000000e+00
   7.230776e-03   2.153512e-02   0.000000e+00
  -1.137502e-03  -3.376966e-02   0.000000e+00
   2.714945e-02  -4.978310e-03   0.000000e+00
   4.821747e-02  -8.751482e-03   0.000000e+00
  -8.801357e-03  -1.625769e-03   0.000000e+00
  -1.468202e-02  -1.024218e-02   0.000000e+00
   2.544127e-02   1.080921e-02   0.000000e+00
   1.480634e-02  -3.856875e-03   0.000000e+00
  -3.742728e-02  -3.155802e-02   0.000000e+00
  -3.745375e-02   2.573011e-02   0.000000e+00
   1.356332e-02  -2.379696e-02   0.000000e+00
  -6.265706e-02   2.142333e-02   0.000000e+00
  -2.522431e-03  -1.901551e-03   0.000000e+00
   4.594290e-03   6.138837e-02   0.000000e+00
  -1.043904e-03  -1.900048e-03   0.000000e+00
   1.602149e-03   2.619270e-02   0.000000e+00
  -1.522369e-02  -1.354583e-02   0.000000e+00
  -5.870603e-03   1.989029e-02   0.000000e+00
   8.671283e-02   1.286954e-01   0.000000e+00
   0.000000e+00   0.000000e+00   0.000000e+00
  -5.024416e-02  -4.035813e-02   0.000000e+00
  -1.237795e-02   5.873145e-02   0.000000e+00
   0.000000e+00   0.000000e+00   0.000000e+00
  -8.368504e-02  -6.182964e-02   0.000000e+00
  -4.445792e-02   6.038711e-02   0.000000e+00
   7.288858e-03   1.529683e-02   0.000000e+00
  -1.521234e-02   1.675606e-02   0.000000e+00
  -6.007081e-02  -5.336688e-03   0.000000e+00
  -5.617086e-02  -5.724643e-02   0.000000e+00
  -6.253501e-02   6.472164e-02   0.000000e+00
   1.000025e-02  -2.478218e-02   0.000000e+00
VECTORS Real_Arrow_6.309500e+02(Hz) float
  -3.677437e-02  -1.967212e-02   0.000000e+00
  -8.964712e-02   1.483490e-01   0.000000e+00
  -8.633294e-02   9.299060e-02   0.000000e+00
   7.851689e-02  -4.898366e-02   0.000000e+00
   3.907825e-02  -1.473669e-02   0.000000e+00
   2.585716e-02  -1.882173e-02   0.000000e+00
   2.128826e-02   3.573416e-02   0.000000e+00
   2.735777e-02   1.818280e-03   0.000000e+00
   0.000000e+00   0.000000e+00   0.000000e+00
   2.881166e-02   1.678090e-02   0.000000e+00
  -3.313222e-02  -4.002052e-02   0.000000e+00
  -5.510467e-02   1.616614e-02   0.000000e+00
   3.169544e-02   1.603817e-01   0.000000e+00
   1.773977e-01   4.916003e-02   0.000000e+00
   1.641332e-02   3.776479e-02   0.000000e+00
   1.396715e-01  -2.965110e-02   0.000000e+00
  -1.722710e-01  -2.656954e-01   0.000000e+00
  -4.332176e-02   1.368498e-01   0.000000e+00
   2.405836e-01  -1.551077e-01   0.000000e+00
   7.663011e-02   4.048761e-02   0.000000e+00
  -7.859660e-02   5.234823e-02   0.000000e+00
  -3.633971e-02  -5.791771e-02   0.000000e+00
  -9.837381e-02   1.172749e-01   0.000000e+00
   9.744176e-02  -1.134639e-01   0.000000e+00
  -1.220333e-02  -5.575324e-02   0.000000e+00
  -3.238750e-02  -3.272879e-02   0.000000e+00
   1.494026e-01   1.133480e-01   0.000000e+00
   4.095283e-02   1.347391e-01   0.000000e+00
   3.341417e-02  -4.799901e-02   0.000000e+00
   6.713975e-02  -9.534313e-02   0.000000e+00
   2.811007e-02  -6.148504e-02   0.000000e+00
   3.185568e-02  -6.694161e-03   0.000000e+00
   7.705926e-02   5.643148e-02   0.000000e+00
  -3.555568e-02  -4.241274e-02   0.000000e+00
  -7.628840e-03  -2.923740e-02   0.000000e+00
   1.347700e-01  -1.310437e-01   0.000000e+00
   3.073007e-02   1.405864e-01   0.000000e+00
   0.000000e+00   0.000000e+00   0.000000e+00
   2.028168e-02   3.921088e-02   0.000000e+00
   1.296562e-01  -1.450632e-01   0.000000e+00
  -8.169358e-02  -1.944645e-01   0.000000e+00
   2.158620e-02  -2.912919e-02   0.000000e+00
  -8.809862e-02  -7.105262e-02   0.000000e+00
   1.243467e-01   3.420987e-02   0.000000e+00
   9.378502e-02   2.680328e-01   0.000000e+00
   1.419645e-03   1.069046e-01   0.000000e+00
VECTORS Imag_Arrow_6.309500e+02(Hz) float
  -1.269650e-02  -3.697076e-02   0.000000e+00
  -5.192208e-02   5.283185e-02   0.000000e+00
  -2.360140e-02   3.769281e-02   0.000000e+00
  -1.749989e-02  -1.134599e-01   0.000000e+00
  -2.344182e-02  -4.840387e-02   0.000000e+00
  -1.449886e-02   1.173347e-02   0.000000e+00
   7.335009e-03  -9.697551e-03   0.000000e+00
  -5.928590e-02   5.278174e-02   0.000000e+00
   0.000000e+00   0.000000e+00   0.000000e+00
   2.682844e-02  -1.217835e-02   0.000000e+00
  -2.106890e-02   1.657630e-02   0.000000e+00
  -4.299778e-03  -1.479028e-02   0.000000e+00
   2.098447e-02   1.755671e-01   0.000000e+00
  -6.794782e-02   1.983461e-02   0.000000e+00
   2.401641e-02   6.525354e-03   0.000000e+00
   2.151021e-02   1.620653e-02   0.000000e+00
  -1.860443e-02  -5.921433e-02   0.000000e+00
   1.525893e-02   2.284251e-02   0.000000e+00
   5.089128e-02  -1.104322e-02   0.000000e+00
  -1.935953e-02   1.552191e-03   0.000000e+00
  -1.225822e-02  -8.874318e-03   0.000000e+00
   3.010650e-02   1.492131e-02   0.000000e+00
   5.442757e-03   5.219361e-03   0.000000e+00
  -2.479267e-02  -4.275276e-02   0.000000e+00
  -3.894863e-02   8.899211e-04   0.000000e+00
   1.228679e-02  -2.635158e-02   0.000000e+00
  -4.783761e-02   4.448813e-02   0.000000e+00
  -6.194153e-05   6.699772e-03   0.000000e+00
   8.931329e-03   7.059010e-02   0.000000e+00
  -1.004035e-02   8.263826e-03   0.000000e+00
  -1.340166e-03   2.700832e-02   0.000000e+00
   6.678136e-03  -1.733735e-02   0.000000e+00
  -1.171498e-02   2.350707e-02   0.000000e+00
   6.848005e-02   1.057535e-01   0.000000e+00
   4.950164e-02  -7.741244e-02   0.000000e+00
  -4.290405e-02  -3.651505e-02   0.000000e+00
  -2.342178e-02   5.285008e-02   0.000000e+00
   0.000000e+00   0.000000e+00   0.000000e+00
  -6.978312e-02  -3.990822e-02   0.000000e+00
  -3.752870e-02   5.687187e-02   0.000000e+00
  -7.512806e-03  -6.092092e-03   0.000000e+00
  -4.734001e-03   6.255704e-03   0.000000e+00
  -6.871922e-02  -1.443220e-02   0.000000e+00
  -5.471857e-02  -5.695709e-02   0.000000e+00
  -4.971392e-02   8.346274e-02   0.000000e+00
   1.234098e-02  -2.476679e-02   0.000000e+00
VECTORS Real_Arrow_1.000000e+03(Hz) float
  -3.194878e-02  -9.273947e-03   0.000000e+00
  -7.099930e-02   1.264070e-01   0.000000e+00
  -7.339413e-02   7.816607e-02   0.000000e+00
   8.466208e-02  -1.183415e-02   0.000000e+00
   4.422474e-02  -2.327687e-03   0.000000e+00
   3.009512e-02  -1.825979e-02   0.000000e+00
   2.244780e-02   3.075608e-02   0.000000e+00
   4.802241e-02  -1.714019e-02   0.000000e+00
   0.000000e+00   0.000000e+00   0.000000e+00
   2.025675e-02   1.823282e-02   0.000000e+00
  -2.821541e-02  -4.414557e-02   0.000000e+00
  -5.305093e-02   2.071368e-02   0.000000e+00
   2.818901e-02   1.106868e-01   0.000000e+00
   1.880528e-01   4.674886e-02   0.000000e+00
   0.000000e+00   0.000000e+00   0.000000e+00
   1.273751e-01  -3.327300e-02   0.000000e+00
  -1.663403e-01  -2.427095e-01   0.000000e+00
  -4.537321e-02   1.201176e-01   0.000000e+00
   0.000000e+00   0.000000e+00   0.000000e+00
   8.570290e-02   4.145182e-02   0.000000e+00
  -7.371186e-02   5.537204e-02   0.000000e+00
  -4.846716e-02  -6.569854e-02   0.000000e+00
  -9.770644e-02   1.112762e-01   0.000000e+00
   0.000000e+00   0.000000e+00   0.000000e+00
   3.333407e-04  -4.292416e-02   0.000000e+00
  -3.550273e-02  -2.229012e-02   0.000000e+00
   1.620542e-01   9.103558e-02   0.000000e+00
   3.404853e-02   1.339532e-01   0.000000e+00
   2.631931e-02  -7.649745e-02   0.000000e+00
   7.213156e-02  -1.023772e-01   0.000000e+00
   2.778483e-02  -7.069758e-02   0.000000e+00
   2.173860e-02   3.657482e-04   0.000000e+00
   0.000000e+00   0.000000e+00   0.000000e+00
  -5.353645e-02  -7.132559e-02   0.000000e+00
   0.000000e+00   0.000000e+00   0.000000e+00
   1.433510e-01  -1.164868e-01   0.000000e+00
   4.051048e-02   1.296893e-01   0.000000e+00
   0.000000e+00   0.000000e+00   0.000000e+00
   0.000000e+00   0.000000e+00   0.000000e+00
   1.384239e-01  -1.545452e-01   0.000000e+00
   0.000000e+00   0.000000e+00   0.000000e+00
   0.000000e+00   0.000000e+00   0.000000e+00
  -6.098017e-02  -6.083742e-02   0.000000e+00
   1.420364e-01   5.268863e-02   0.000000e+00
   1.030807e-01   2.306311e-01   0.000000e+00
  -7.599591e-04   1.134798e-01   0.000000e+00
VECTORS Imag_Arrow_1.000000e+03(Hz) float
  -9.807688e-03  -2.864156e-02   0.000000e+00
  -4.591470e-02   4.997956e-02   0.000000e+00
  -2.968860e-02   4.006264e-02   0.000000e+00
  -1.225507e-02  -1.079144e-01   0.000000e+00
  -1.472001e-02  -3.380186e-02   0.000000e+00
  -2.466740e-02   1.520162e-02   0.000000e+00
   3.866671e-03  -3.059875e-03   0.000000e+00
  -5.000393e-02   4.944900e-02   0.000000e+00
   0.000000e+00   0.000000e+00   0.000000e+00
   2.345878e-02  -7.556081e-03   0.000000e+00
  -2.008914e-02   4.447977e-03   0.000000e+00
   3.896814e-04  -1.933649e-02   0.000000e+00
   5.795510e-03   1.562735e-01   0.000000e+00
  -5.512156e-02   9.851380e-03   0.000000e+00
   0.000000e+00   0.000000e+00   0.000000e+00
   3.250161e-02   1.079771e-02   0.000000e+00
  -4.160655e-02  -8.580293e-02   0.000000e+00
   3.575930e-03   4.506978e-02   0.000000e+00
   0.000000e+00   0.000000e+00   0.000000e+00
  -2.697338e-02   6.700056e-03   0.000000e+00
  -8.450569e-03  -6.345418e-03   0.000000e+00
   3.202724e-02   1.637429e-02   0.000000e+00
  -4.516876e-03   1.104026e-02   0.000000e+00
   0.000000e+00   0.000000e+00   0.000000e+00
  -3.881098e-02  -9.520692e-03   0.000000e+00
   1.141295e-02  -2.668893e-02   0.000000e+00
  -2.990561e-02   6.055528e-02   0.000000e+00
  -5.892231e-03   1.778489e-02   0.000000e+00
   8.635496e-03   6.773803e-02   0.000000e+00
  -1.692614e-02   1.496938e-02   0.000000e+00
  -7.101407e-03   2.639992e-02   0.000000e+00
   1.786242e-02  -2.140698e-02   0.000000e+00
   0.000000e+00   0.000000e+00   0.000000e+00
   4.830817e-02   7.961852e-02   0.000000e+00
   0.000000e+00   0.000000e+00   0.000000e+00
  -3.752126e-02  -2.940979e-02   0.000000e+00
  -2.905684e-02   5.488604e-02   0.000000e+00
   0.000000e+00   0.000000e+00   0.000000e+00
   0.000000e+00   0.000000e+00   0.000000e+00
  -2.984581e-02   5.900654e-02   0.000000e+00
   0.000000e+00   0.000000e+00   0.000000e+00
   0.000000e+00   0.000000e+00   0.000000e+00
  -6.895733e-02  -1.736382e-02   0.000000e+00
  -5.078967e-02  -5.538344e-02   0.000000e+00
  -3.868347e-02   9.150729e-02   0.000000e+00
   1.584817e-02  -2.405967e-02   0.000000e+00
