# vtk DataFile Version 2.0
Induction_Arrow_Iter1_PE5
ASCII
DATASET UNSTRUCTURED_GRID
POINTS 46 float
  -2.052000e+03    1.667000e+03   -4.526633e+02
  -1.265000e+03    2.333000e+03   -4.555885e+02
  -9.840000e+02    2.568000e+03   -4.612271e+02
   1.700000e+03   -1.757000e+03   -5.237752e+02
  -1.152000e+03    1.382000e+03   -4.549280e+02
   3.187000e+03    1.067000e+03   -8.370176e+02
   4.716000e+03    9.370000e+02   -8.015281e+02
  -1.855000e+03    5.260000e+02   -5.147377e+02
  -1.420000e+02   -1.905000e+03   -4.746368e+02
  -5.800000e+01    1.069000e+03   -4.555494e+02
  -2.802000e+03    3.302000e+03   -4.314337e+02
  -5.640000e+03   -1.532000e+03   -4.911771e+02
  -8.030000e+02   -5.610000e+02   -5.280929e+02
   1.008000e+03    4.130000e+02   -5.983358e+02
   1.960000e+02    2.246000e+03   -5.219413e+02
  -3.457000e+03    8.320000e+02   -4.470735e+02
   5.640000e+03    2.452000e+03   -7.393049e+02
  -1.334000e+03    3.332000e+03   -4.456136e+02
   1.244000e+03    1.880000e+03   -6.331107e+02
  -2.680000e+02    2.144000e+03   -4.891390e+02
  -4.063000e+03    6.620000e+02   -4.746103e+02
  -1.258000e+03    6.330000e+02   -4.856841e+02
  -2.141000e+03    3.194000e+03   -4.348461e+02
  -3.469000e+03   -3.059000e+03   -6.067613e+02
  -1.604000e+03   -2.570000e+02   -5.141257e+02
  -1.454000e+03    2.220000e+02   -5.386025e+02
   1.864000e+03    1.270000e+02   -7.404291e+02
   2.449000e+03    5.590000e+02   -7.805292e+02
  -1.834000e+03   -1.554000e+03   -6.273074e+02
   1.807000e+03    2.297000e+03   -6.825557e+02
  -2.560000e+03   -1.783000e+03   -6.131337e+02
  -2.741000e+03   -5.010000e+02   -5.080000e+02
   2.884000e+03   -2.179000e+03   -5.274708e+02
  -6.120000e+02   -8.960000e+02   -5.895389e+02
  -1.985000e+03   -2.653000e+03   -5.598834e+02
  -3.390000e+03   -4.000000e+02   -4.982361e+02
   1.586000e+03    1.342000e+03   -6.618442e+02
   1.047000e+03    2.401000e+03   -5.426792e+02
   8.380000e+02   -1.300000e+03   -4.783644e+02
   2.569000e+03    2.441000e+03   -6.035668e+02
  -2.028000e+03    2.833000e+03   -4.322286e+02
  -1.086000e+03    1.998000e+03   -4.563301e+02
   1.514000e+03   -3.332000e+03   -5.646205e+02
   7.040000e+02    1.116000e+03   -5.365099e+02
   1.990000e+03    6.360000e+02   -7.085272e+02
   3.722000e+03   -1.700000e+02   -6.745213e+02
CELLS 46 92
1 0
1 1
1 2
1 3
1 4
1 5
1 6
1 7
1 8
1 9
1 10
1 11
1 12
1 13
1 14
1 15
1 16
1 17
1 18
1 19
1 20
1 21
1 22
1 23
1 24
1 25
1 26
1 27
1 28
1 29
1 30
1 31
1 32
1 33
1 34
1 35
1 36
1 37
1 38
1 39
1 40
1 41
1 42
1 43
1 44
1 45
CELL_TYPES 46
1
1
1
1
1
1
1
1
1
1
1
1
1
1
1
1
1
1
1
1
1
1
1
1
1
1
1
1
1
1
1
1
1
1
1
1
1
1
1
1
1
1
1
1
1
1
POINT_DATA 46
VECTORS Real_Arrow_2.511800e+01(Hz) float
  -2.199610e-02  -1.286787e-01   0.000000e+00
  -7.610042e-02   1.057358e-01   0.000000e+00
   0.000000e+00   0.000000e+00   0.000000e+00
   4.231195e-02  -3.484260e-01   0.000000e+00
  -4.304040e-02  -1.385379e-01   0.000000e+00
  -2.989595e-02   2.414983e-02   0.000000e+00
   7.939106e-02  -1.141579e-01   0.000000e+00
  -3.111479e-02   9.602189e-02   0.000000e+00
   2.881712e-01  -1.850950e-01   0.000000e+00
   2.109935e-03  -5.476750e-02   0.000000e+00
  -1.264498e-01   2.029389e-02   0.000000e+00
  -7.896439e-02   4.336785e-02   0.000000e+00
   0.000000e+00   0.000000e+00   0.000000e+00
  -1.873217e-01   6.448486e-02   0.000000e+00
   6.057195e-02   1.974386e-02   0.000000e+00
   1.944311e-02   4.219858e-02   0.000000e+00
  -1.199920e-01  -1.779609e-01   0.000000e+00
   4.156556e-02   2.867745e-02   0.000000e+00
   2.283331e-01  -1.082086e-01   0.000000e+00
   1.031570e-01   1.273936e-02   0.000000e+00
  -1.207428e-01   1.453223e-02   0.000000e+00
  -7.005892e-02  -6.858601e-02   0.000000e+00
  -6.612452e-02   2.759431e-02   0.000000e+00
  -3.279678e-02  -1.164787e-01   0.000000e+00
   0.000000e+00   0.000000e+00   0.000000e+00
  -9.249166e-03   1.764848e-02   0.000000e+00
  -5.182327e-02   5.973275e-03   0.000000e+00
  -2.469924e-02   6.006112e-02   0.000000e+00
   1.442481e-03   2.028509e-02   0.000000e+00
   0.000000e+00   0.000000e+00   0.000000e+00
  -1.004560e-02  -4.901435e-03   0.000000e+00
  -1.298818e-01   8.651594e-03   0.000000e+00
   9.693923e-02   9.069837e-02   0.000000e+00
   2.520704e-01   2.639276e-01   0.000000e+00
   6.203197e-02  -1.607446e-01   0.000000e+00
  -1.617827e-01  -2.047708e-01   0.000000e+00
   0.000000e+00   0.000000e+00   0.000000e+00
   3.499353e-02   6.780686e-02   0.000000e+00
  -1.725446e-01  -2.770193e-01   0.000000e+00
   4.438077e-02   1.356745e-01   0.000000e+00
  -4.014333e-02  -9.356594e-02   0.000000e+00
  -9.889699e-03  -5.882097e-03   0.000000e+00
  -8.507635e-02   1.891690e-02   0.000000e+00
  -7.129961e-02  -4.924671e-02   0.000000e+00
  -9.271319e-02   2.053124e-01   0.000000e+00
   9.421434e-02  -2.321196e-02   0.000000e+00
VECTORS Imag_Arrow_2.511800e+01(Hz) float
  -1.582920e-02   5.107755e-03   0.000000e+00
   1.360681e-02  -5.775609e-02   0.000000e+00
   0.000000e+00   0.000000e+00   0.000000e+00
  -3.366166e-02  -1.639904e-01   0.000000e+00
  -6.462442e-02   1.074647e-02   0.000000e+00
  -4.370610e-02  -2.213644e-02   0.000000e+00
   1.014269e-02  -5.888475e-02   0.000000e+00
  -4.037752e-02   1.868374e-02   0.000000e+00
   3.448920e-02   2.500455e-03   0.000000e+00
  -1.341986e-01  -3.119906e-02   0.000000e+00
  -6.522155e-02   3.705945e-02   0.000000e+00
  -6.994368e-02   9.403220e-03   0.000000e+00
   0.000000e+00   0.000000e+00   0.000000e+00
  -1.838544e-01  -9.699135e-02   0.000000e+00
  -6.796352e-02  -3.347697e-03   0.000000e+00
  -1.452954e-01  -5.998707e-03   0.000000e+00
   5.020899e-02   1.040015e-01   0.000000e+00
   2.457161e-04  -1.577435e-02   0.000000e+00
  -1.569100e-01   7.398655e-02   0.000000e+00
  -6.971825e-02  -7.327309e-03   0.000000e+00
  -1.229634e-02  -3.247133e-02   0.000000e+00
  -9.806760e-02   4.557446e-03   0.000000e+00
  -1.197937e-02  -1.493351e-02   0.000000e+00
  -9.714357e-02   1.089624e-02   0.000000e+00
   0.000000e+00   0.000000e+00   0.000000e+00
  -6.589171e-02   4.429732e-02   0.000000e+00
  -9.537316e-02  -1.315836e-01   0.000000e+00
  -6.057696e-02  -1.031550e-01   0.000000e+00
  -4.469538e-02   1.186435e-03   0.000000e+00
   0.000000e+00   0.000000e+00   0.000000e+00
  -6.289395e-02   1.523283e-02   0.000000e+00
  -1.067961e-01   2.508752e-03   0.000000e+00
   4.076338e-02  -6.493885e-03   0.000000e+00
   2.710446e-02  -3.806570e-02   0.000000e+00
  -3.478355e-02   3.055430e-02   0.000000e+00
  -2.095927e-01   9.474887e-03   0.000000e+00
   0.000000e+00   0.000000e+00   0.000000e+00
  -6.584263e-02  -6.065106e-03   0.000000e+00
  -5.555441e-02  -2.049465e-01   0.000000e+00
  -8.143994e-02   1.996034e-01   0.000000e+00
  -1.339902e-02   6.200399e-02   0.000000e+00
  -3.948359e-02   2.287916e-03   0.000000e+00
   7.189751e-02   5.433129e-02   0.000000e+00
  -1.509629e-01  -2.077541e-02   0.000000e+00
  -8.322557e-02  -1.713468e-01   0.000000e+00
   3.281953e-02  -1.199842e-01   0.000000e+00
VECTORS Real_Arrow_3.981000e+01(Hz) float
  -3.401627e-02  -1.268024e-01   0.000000e+00
  -1.046135e-01   1.373961e-01   0.000000e+00
  -4.579669e-02   9.656952e-02   0.000000e+00
   4.940087e-02  -2.842322e-01   0.000000e+00
  -3.223280e-02  -1.416611e-01   0.000000e+00
  -6.777632e-03   2.603844e-02   0.000000e+00
   7.709198e-02  -9.158222e-02   0.000000e+00
   0.000000e+00   0.000000e+00   0.000000e+00
   2.529052e-01  -1.979395e-01   0.000000e+00
   5.744932e-02  -4.270884e-02   0.000000e+00
  -9.630851e-02   1.156657e-02   0.000000e+00
  -6.422997e-02   3.004186e-02   0.000000e+00
   0.000000e+00   0.000000e+00   0.000000e+00
  -1.040377e-01   9.966250e-02   0.000000e+00
   7.596204e-02   2.346145e-02   0.000000e+00
   8.066101e-02   3.957363e-02   0.000000e+00
  -1.317630e-01  -2.201619e-01   0.000000e+00
   3.321257e-02   4.417402e-02   0.000000e+00
   0.000000e+00   0.000000e+00   0.000000e+00
   1.160639e-01   2.017691e-02   0.000000e+00
  -1.162854e-01   2.416415e-02   0.000000e+00
  -3.396523e-02  -7.329827e-02   0.000000e+00
  -6.493333e-02   4.344807e-02   0.000000e+00
  -6.252103e-03  -1.226371e-01   0.000000e+00
   0.000000e+00   0.000000e+00   0.000000e+00
   5.844428e-03  -1.505809e-02   0.000000e+00
  -1.036412e-02   5.283667e-02   0.000000e+00
   4.172038e-03   9.221672e-02   0.000000e+00
   0.000000e+00   0.000000e+00   0.000000e+00
   1.181490e-01  -1.198909e-01   0.000000e+00
   9.856665e-03  -1.778950e-02   0.000000e+00
  -9.211695e-02  -2.951229e-03   0.000000e+00
   0.000000e+00   0.000000e+00   0.000000e+00
   2.185204e-01   2.615099e-01   0.000000e+00
   6.987417e-02  -1.793462e-01   0.000000e+00
  -6.588544e-02  -2.080449e-01   0.000000e+00
   0.000000e+00   0.000000e+00   0.000000e+00
   4.837889e-02   6.881154e-02   0.000000e+00
  -1.512102e-01  -1.817824e-01   0.000000e+00
   6.091039e-02   5.745350e-02   0.000000e+00
  -4.068531e-02  -1.056739e-01   0.000000e+00
  -1.415894e-02  -9.337118e-04   0.000000e+00
  -1.146306e-01  -1.218840e-02   0.000000e+00
  -1.098912e-02  -4.321482e-02   0.000000e+00
  -5.470598e-02   2.654090e-01   0.000000e+00
   7.541355e-02   1.709807e-02   0.000000e+00
VECTORS Imag_Arrow_3.981000e+01(Hz) float
   7.348559e-03  -1.979876e-02   0.000000e+00
   3.896531e-02  -6.993799e-02   0.000000e+00
   3.146629e-02  -4.435656e-02   0.000000e+00
  -2.131201e-02  -1.655916e-01   0.000000e+00
  -4.837199e-02  -1.191432e-02   0.000000e+00
  -4.798790e-02  -2.030093e-03   0.000000e+00
   1.851536e-02  -7.406623e-02   0.000000e+00
   0.000000e+00   0.000000e+00   0.000000e+00
   8.280200e-02  -3.907255e-03   0.000000e+00
  -1.042591e-01  -3.514992e-02   0.000000e+00
  -6.799530e-02   2.863800e-02   0.000000e+00
  -4.792852e-02   1.643365e-02   0.000000e+00
   0.000000e+00   0.000000e+00   0.000000e+00
  -2.048550e-01  -6.662281e-02   0.000000e+00
  -2.965361e-02  -1.145825e-02   0.000000e+00
  -1.296245e-01   1.180734e-02   0.000000e+00
   4.011481e-02   9.423851e-02   0.000000e+00
   1.392107e-02  -3.518696e-02   0.000000e+00
   0.000000e+00   0.000000e+00   0.000000e+00
  -3.078093e-02  -1.520581e-02   0.000000e+00
  -1.683363e-02  -3.062371e-02   0.000000e+00
  -8.128329e-02  -3.776910e-03   0.000000e+00
  -7.451519e-03  -3.945089e-02   0.000000e+00
  -8.435855e-02   1.218568e-02   0.000000e+00
   0.000000e+00   0.000000e+00   0.000000e+00
  -3.363713e-02   5.807021e-02   0.000000e+00
  -1.025592e-01  -1.127628e-01   0.000000e+00
  -6.089504e-02  -8.158807e-02   0.000000e+00
   0.000000e+00   0.000000e+00   0.000000e+00
  -3.398841e-02   3.561902e-02   0.000000e+00
  -5.483299e-02   2.059225e-02   0.000000e+00
  -1.041242e-01   1.335441e-02   0.000000e+00
   0.000000e+00   0.000000e+00   0.000000e+00
   8.497758e-02   3.301358e-02   0.000000e+00
  -1.542551e-02   5.393587e-03   0.000000e+00
  -2.169700e-01  -4.017235e-03   0.000000e+00
   0.000000e+00   0.000000e+00   0.000000e+00
  -1.438063e-02   2.004526e-03   0.000000e+00
  -6.556785e-02  -2.113932e-01   0.000000e+00
  -5.730112e-02   2.024939e-01   0.000000e+00
  -4.562519e-03   5.497610e-02   0.000000e+00
  -1.742116e-02  -4.398648e-03   0.000000e+00
   6.198222e-02   6.225744e-02   0.000000e+00
  -1.414933e-01  -2.273929e-02   0.000000e+00
  -9.193741e-02  -1.389975e-01   0.000000e+00
   5.234272e-02  -1.084985e-01   0.000000e+00
VECTORS Real_Arrow_6.309500e+01(Hz) float
  -5.143494e-02  -1.108647e-01   0.000000e+00
  -1.391650e-01   1.754597e-01   0.000000e+00
  -7.070038e-02   1.219513e-01   0.000000e+00
   4.858708e-02  -2.275688e-01   0.000000e+00
  -2.672074e-02  -1.321631e-01   0.000000e+00
   1.447315e-02   1.844362e-02   0.000000e+00
   6.857532e-02  -6.006779e-02   0.000000e+00
   0.000000e+00   0.000000e+00   0.000000e+00
   0.000000e+00   0.000000e+00   0.000000e+00
   8.889419e-02  -2.984908e-02   0.000000e+00
  -6.972462e-02   8.131629e-03   0.000000e+00
  -5.744147e-02   1.735725e-02   0.000000e+00
   0.000000e+00   0.000000e+00   0.000000e+00
  -2.174901e-02   1.144600e-01   0.000000e+00
   6.975957e-02   3.319339e-02   0.000000e+00
   1.244684e-01   2.869424e-02   0.000000e+00
  -1.410687e-01  -2.541905e-01   0.000000e+00
   2.502557e-02   6.377168e-02   0.000000e+00
   0.000000e+00   0.000000e+00   0.000000e+00
   1.083746e-01   3.088266e-02   0.000000e+00
  -1.088533e-01   3.460222e-02   0.000000e+00
  -5.614906e-03  -6.738761e-02   0.000000e+00
  -6.149720e-02   7.033492e-02   0.000000e+00
   0.000000e+00   0.000000e+00   0.000000e+00
   0.000000e+00   0.000000e+00   0.000000e+00
   4.125174e-03  -5.027376e-02   0.000000e+00
   2.797198e-02   8.662408e-02   0.000000e+00
   2.861325e-02   1.119778e-01   0.000000e+00
   0.000000e+00   0.000000e+00   0.000000e+00
   1.156162e-01  -1.347648e-01   0.000000e+00
   2.807749e-02  -2.687112e-02   0.000000e+00
  -5.744825e-02  -1.663993e-02   0.000000e+00
   7.887690e-02   8.269310e-02   0.000000e+00
   1.645666e-01   2.273021e-01   0.000000e+00
   0.000000e+00   0.000000e+00   0.000000e+00
   2.106935e-02  -2.042938e-01   0.000000e+00
   4.428571e-02   3.136383e-01   0.000000e+00
   0.000000e+00   0.000000e+00   0.000000e+00
  -1.293099e-01  -9.975616e-02   0.000000e+00
   6.566391e-02  -1.949956e-02   0.000000e+00
  -4.016033e-02  -1.189211e-01   0.000000e+00
  -2.381147e-02   7.434218e-03   0.000000e+00
  -1.389602e-01  -4.025312e-02   0.000000e+00
   3.608676e-02  -3.859727e-02   0.000000e+00
  -1.963484e-02   3.070552e-01   0.000000e+00
   4.632203e-02   5.083939e-02   0.000000e+00
VECTORS Imag_Arrow_6.309500e+01(Hz) float
   1.033498e-02  -3.986655e-02   0.000000e+00
   3.431851e-02  -6.191743e-02   0.000000e+00
   3.291824e-02  -3.285223e-02   0.000000e+00
  -1.476487e-02  -1.544998e-01   0.000000e+00
  -4.493596e-02  -3.475392e-02   0.000000e+00
  -4.230750e-02   1.318029e-02   0.000000e+00
   2.678715e-02  -8.427874e-02   0.000000e+00
   0.000000e+00   0.000000e+00   0.000000e+00
   0.000000e+00   0.000000e+00   0.000000e+00
  -5.780701e-02  -3.705343e-02   0.000000e+00
  -5.747295e-02   2.315262e-02   0.000000e+00
  -2.859142e-02   1.633529e-02   0.000000e+00
   0.000000e+00   0.000000e+00   0.000000e+00
  -1.991854e-01  -2.956562e-02   0.000000e+00
   2.567979e-04  -1.420895e-02   0.000000e+00
  -9.450201e-02   2.680221e-02   0.000000e+00
   3.235840e-02   7.314128e-02   0.000000e+00
   2.334496e-02  -4.358240e-02   0.000000e+00
   0.000000e+00   0.000000e+00   0.000000e+00
  -2.406905e-03  -1.504518e-02   0.000000e+00
  -1.961278e-02  -2.614391e-02   0.000000e+00
  -5.534128e-02  -1.416811e-02   0.000000e+00
  -1.735266e-03  -4.996865e-02   0.000000e+00
   0.000000e+00   0.000000e+00   0.000000e+00
   0.000000e+00   0.000000e+00   0.000000e+00
  -8.253627e-03   4.975789e-02   0.000000e+00
  -9.758330e-02  -8.805696e-02   0.000000e+00
  -5.021961e-02  -5.995982e-02   0.000000e+00
   0.000000e+00   0.000000e+00   0.000000e+00
  -4.520966e-04   1.349786e-02   0.000000e+00
  -4.360460e-02   2.018633e-02   0.000000e+00
  -9.856123e-02   1.269653e-02   0.000000e+00
   1.744248e-02   9.704376e-03   0.000000e+00
   1.177009e-01   9.211659e-02   0.000000e+00
   0.000000e+00   0.000000e+00   0.000000e+00
  -1.917897e-01  -1.817656e-02   0.000000e+00
  -6.983248e-02   4.608317e-02   0.000000e+00
   0.000000e+00   0.000000e+00   0.000000e+00
  -7.442900e-02  -1.834643e-01   0.000000e+00
  -4.426801e-02   1.868500e-01   0.000000e+00
   2.789217e-03   5.623482e-02   0.000000e+00
  -1.671007e-02  -2.341967e-03   0.000000e+00
   4.317613e-02   5.870942e-02   0.000000e+00
  -1.186454e-01  -2.517917e-02   0.000000e+00
  -8.854542e-02  -9.772001e-02   0.000000e+00
   6.162959e-02  -9.349107e-02   0.000000e+00
