# vtk DataFile Version 2.0
Induction_Arrow_Iter0_PE3
ASCII
DATASET UNSTRUCTURED_GRID
POINTS 46 float
  -2.052000e+03    1.667000e+03   -4.526633e+02
  -1.265000e+03    2.333000e+03   -4.555885e+02
  -9.840000e+02    2.568000e+03   -4.612271e+02
   1.700000e+03   -1.757000e+03   -5.237752e+02
  -1.152000e+03    1.382000e+03   -4.549280e+02
   3.187000e+03    1.067000e+03   -8.370176e+02
   4.716000e+03    9.370000e+02   -8.015281e+02
  -1.855000e+03    5.260000e+02   -5.147377e+02
  -1.420000e+02   -1.905000e+03   -4.746368e+02
  -5.800000e+01    1.069000e+03   -4.555494e+02
  -2.802000e+03    3.302000e+03   -4.314337e+02
  -5.640000e+03   -1.532000e+03   -4.911771e+02
  -8.030000e+02   -5.610000e+02   -5.280929e+02
   1.008000e+03    4.130000e+02   -5.983358e+02
   1.960000e+02    2.246000e+03   -5.219413e+02
  -3.457000e+03    8.320000e+02   -4.470735e+02
   5.640000e+03    2.452000e+03   -7.393049e+02
  -1.334000e+03    3.332000e+03   -4.456136e+02
   1.244000e+03    1.880000e+03   -6.331107e+02
  -2.680000e+02    2.144000e+03   -4.891390e+02
  -4.063000e+03    6.620000e+02   -4.746103e+02
  -1.258000e+03    6.330000e+02   -4.856841e+02
  -2.141000e+03    3.194000e+03   -4.348461e+02
  -3.469000e+03   -3.059000e+03   -6.067613e+02
  -1.604000e+03   -2.570000e+02   -5.141257e+02
  -1.454000e+03    2.220000e+02   -5.386025e+02
   1.864000e+03    1.270000e+02   -7.404291e+02
   2.449000e+03    5.590000e+02   -7.805292e+02
  -1.834000e+03   -1.554000e+03   -6.273074e+02
   1.807000e+03    2.297000e+03   -6.825557e+02
  -2.560000e+03   -1.783000e+03   -6.131337e+02
  -2.741000e+03   -5.010000e+02   -5.080000e+02
   2.884000e+03   -2.179000e+03   -5.274708e+02
  -6.120000e+02   -8.960000e+02   -5.895389e+02
  -1.985000e+03   -2.653000e+03   -5.598834e+02
  -3.390000e+03   -4.000000e+02   -4.982361e+02
   1.586000e+03    1.342000e+03   -6.618442e+02
   1.047000e+03    2.401000e+03   -5.426792e+02
   8.380000e+02   -1.300000e+03   -4.783644e+02
   2.569000e+03    2.441000e+03   -6.035668e+02
  -2.028000e+03    2.833000e+03   -4.322286e+02
  -1.086000e+03    1.998000e+03   -4.563301e+02
   1.514000e+03   -3.332000e+03   -5.646205e+02
   7.040000e+02    1.116000e+03   -5.365099e+02
   1.990000e+03    6.360000e+02   -7.085272e+02
   3.722000e+03   -1.700000e+02   -6.745213e+02
CELLS 46 92
1 0
1 1
1 2
1 3
1 4
1 5
1 6
1 7
1 8
1 9
1 10
1 11
1 12
1 13
1 14
1 15
1 16
1 17
1 18
1 19
1 20
1 21
1 22
1 23
1 24
1 25
1 26
1 27
1 28
1 29
1 30
1 31
1 32
1 33
1 34
1 35
1 36
1 37
1 38
1 39
1 40
1 41
1 42
1 43
1 44
1 45
CELL_TYPES 46
1
1
1
1
1
1
1
1
1
1
1
1
1
1
1
1
1
1
1
1
1
1
1
1
1
1
1
1
1
1
1
1
1
1
1
1
1
1
1
1
1
1
1
1
1
1
POINT_DATA 46
VECTORS Real_Arrow_1.000000e+02(Hz) float
  -6.083587e-02  -8.884647e-02   0.000000e+00
  -1.580280e-01   2.023489e-01   0.000000e+00
  -8.527797e-02   1.334234e-01   0.000000e+00
   4.982049e-02  -1.821561e-01   0.000000e+00
  -1.477191e-02  -1.116300e-01   0.000000e+00
   2.828971e-02   6.589926e-03   0.000000e+00
   5.515152e-02  -2.379312e-02   0.000000e+00
  -6.872531e-02   6.349975e-02   0.000000e+00
   0.000000e+00   0.000000e+00   0.000000e+00
   9.138040e-02  -1.488900e-02   0.000000e+00
  -5.722503e-02   4.300608e-03   0.000000e+00
  -5.734048e-02   8.428055e-03   0.000000e+00
   0.000000e+00   0.000000e+00   0.000000e+00
   4.638588e-02   1.094709e-01   0.000000e+00
   5.550226e-02   4.114634e-02   0.000000e+00
   1.414896e-01   9.849919e-03   0.000000e+00
  -1.473206e-01  -2.767575e-01   0.000000e+00
   1.387999e-02   8.473003e-02   0.000000e+00
   0.000000e+00   0.000000e+00   0.000000e+00
   9.240319e-02   3.659633e-02   0.000000e+00
  -1.018530e-01   4.091590e-02   0.000000e+00
   4.387557e-03  -5.381717e-02   0.000000e+00
  -6.180805e-02   9.749205e-02   0.000000e+00
   3.760804e-02  -1.354453e-01   0.000000e+00
   0.000000e+00   0.000000e+00   0.000000e+00
  -3.365445e-03  -6.906083e-02   0.000000e+00
   5.947027e-02   1.103565e-01   0.000000e+00
   4.261667e-02   1.245941e-01   0.000000e+00
   3.302084e-02   4.841786e-03   0.000000e+00
   9.672410e-02  -1.276047e-01   0.000000e+00
   3.667715e-02  -3.371669e-02   0.000000e+00
  -2.375199e-02  -2.233128e-02   0.000000e+00
   7.647928e-02   7.755191e-02   0.000000e+00
   1.049266e-01   1.694714e-01   0.000000e+00
   6.330689e-02  -1.558256e-01   0.000000e+00
   8.589812e-02  -1.905464e-01   0.000000e+00
   5.473944e-02   2.665577e-01   0.000000e+00
   0.000000e+00   0.000000e+00   0.000000e+00
  -1.039602e-01  -4.583118e-02   0.000000e+00
   7.052583e-02  -8.383205e-02   0.000000e+00
   0.000000e+00   0.000000e+00   0.000000e+00
  -2.045792e-02   9.730211e-03   0.000000e+00
  -1.533192e-01  -6.317016e-02   0.000000e+00
   6.648096e-02  -3.343182e-02   0.000000e+00
   8.051368e-03   3.316711e-01   0.000000e+00
   1.448142e-02   7.866163e-02   0.000000e+00
VECTORS Imag_Arrow_1.000000e+02(Hz) float
   3.866641e-03  -4.725668e-02   0.000000e+00
   7.735664e-03  -3.410001e-02   0.000000e+00
   2.304153e-02  -1.089093e-02   0.000000e+00
  -1.729795e-02  -1.378799e-01   0.000000e+00
  -4.857133e-02  -5.225867e-02   0.000000e+00
  -2.898605e-02   2.072233e-02   0.000000e+00
   3.136993e-02  -8.391929e-02   0.000000e+00
  -3.246290e-02   2.773268e-02   0.000000e+00
   0.000000e+00   0.000000e+00   0.000000e+00
  -1.112225e-02  -3.818424e-02   0.000000e+00
  -4.192487e-02   2.262078e-02   0.000000e+00
  -1.587447e-02   9.360426e-03   0.000000e+00
   0.000000e+00   0.000000e+00   0.000000e+00
  -1.743457e-01   2.023886e-03   0.000000e+00
   1.392254e-02  -8.818438e-03   0.000000e+00
  -5.888938e-02   3.258956e-02   0.000000e+00
   2.474484e-02   4.613555e-02   0.000000e+00
   3.304032e-02  -4.733294e-02   0.000000e+00
   0.000000e+00   0.000000e+00   0.000000e+00
   8.584169e-03  -8.305238e-03   0.000000e+00
  -1.624014e-02  -2.055150e-02   0.000000e+00
  -2.204714e-02  -1.391498e-02   0.000000e+00
   9.720081e-03  -4.628912e-02   0.000000e+00
  -6.878174e-02   4.976639e-03   0.000000e+00
   0.000000e+00   0.000000e+00   0.000000e+00
   5.552584e-03   2.229634e-02   0.000000e+00
  -8.635053e-02  -6.257972e-02   0.000000e+00
  -3.331253e-02  -4.194120e-02   0.000000e+00
  -2.957861e-02   1.051338e-02   0.000000e+00
   1.890292e-02  -8.017521e-03   0.000000e+00
  -3.058558e-02   1.947782e-02   0.000000e+00
  -8.963535e-02   2.614888e-03   0.000000e+00
   9.468208e-03   1.246802e-02   0.000000e+00
   1.235735e-01   1.339607e-01   0.000000e+00
   1.874675e-02  -5.958897e-02   0.000000e+00
  -1.381579e-01  -2.934073e-02   0.000000e+00
  -3.346178e-02   8.703224e-02   0.000000e+00
   0.000000e+00   0.000000e+00   0.000000e+00
  -8.435273e-02  -1.468557e-01   0.000000e+00
  -4.345773e-02   1.505274e-01   0.000000e+00
   0.000000e+00   0.000000e+00   0.000000e+00
  -2.852151e-02   7.954185e-03   0.000000e+00
   1.583532e-02   4.733628e-02   0.000000e+00
  -9.350783e-02  -2.944934e-02   0.000000e+00
  -7.998367e-02  -5.405140e-02   0.000000e+00
   5.478751e-02  -7.500328e-02   0.000000e+00
VECTORS Real_Arrow_1.584800e+02(Hz) float
  -6.000261e-02  -6.889113e-02   0.000000e+00
  -1.553980e-01   2.086137e-01   0.000000e+00
  -9.328933e-02   1.304441e-01   0.000000e+00
   5.512615e-02  -1.478282e-01   0.000000e+00
   3.651021e-03  -8.799559e-02   0.000000e+00
   3.332197e-02  -5.229749e-03   0.000000e+00
   4.109460e-02   9.864678e-03   0.000000e+00
  -5.011149e-02   5.613933e-02   0.000000e+00
   0.000000e+00   0.000000e+00   0.000000e+00
   7.519274e-02  -5.709945e-04   0.000000e+00
  -4.958217e-02  -3.141493e-03   0.000000e+00
  -5.999966e-02   6.582958e-03   0.000000e+00
   0.000000e+00   0.000000e+00   0.000000e+00
   9.795319e-02   9.499109e-02   0.000000e+00
   4.502353e-02   4.261515e-02   0.000000e+00
   1.491008e-01  -5.901509e-03   0.000000e+00
  -1.547217e-01  -2.865560e-01   0.000000e+00
  -3.052104e-03   1.077240e-01   0.000000e+00
   0.000000e+00   0.000000e+00   0.000000e+00
   8.028137e-02   3.678242e-02   0.000000e+00
  -9.705579e-02   4.437804e-02   0.000000e+00
  -1.825591e-03  -4.643888e-02   0.000000e+00
  -7.011413e-02   1.149637e-01   0.000000e+00
   5.751870e-02  -1.390633e-01   0.000000e+00
   0.000000e+00   0.000000e+00   0.000000e+00
  -1.289898e-02  -6.669173e-02   0.000000e+00
   8.341300e-02   1.272232e-01   0.000000e+00
   4.795606e-02   1.327277e-01   0.000000e+00
   4.207426e-02   7.782884e-03   0.000000e+00
   7.720225e-02  -1.109052e-01   0.000000e+00
   4.129478e-02  -3.797270e-02   0.000000e+00
   9.050314e-03  -1.950538e-02   0.000000e+00
   7.608543e-02   7.238514e-02   0.000000e+00
   5.749463e-02   1.050423e-01   0.000000e+00
   5.107384e-02  -1.246223e-01   0.000000e+00
   1.123474e-01  -1.770248e-01   0.000000e+00
   4.711942e-02   2.086616e-01   0.000000e+00
   0.000000e+00   0.000000e+00   0.000000e+00
  -7.330346e-02  -1.270487e-02   0.000000e+00
   8.248210e-02  -1.203430e-01   0.000000e+00
   0.000000e+00   0.000000e+00   0.000000e+00
  -4.182306e-03   2.427863e-03   0.000000e+00
  -1.538795e-01  -7.912924e-02   0.000000e+00
   8.518997e-02  -2.435176e-02   0.000000e+00
   3.011475e-02   3.397879e-01   0.000000e+00
  -4.423475e-03   9.798625e-02   0.000000e+00
VECTORS Imag_Arrow_1.584800e+02(Hz) float
  -7.006915e-03  -4.912383e-02   0.000000e+00
  -2.069627e-02   4.951689e-04   0.000000e+00
   1.294902e-02   9.864583e-03   0.000000e+00
  -2.023778e-02  -1.241296e-01   0.000000e+00
  -4.678039e-02  -6.192363e-02   0.000000e+00
  -1.729008e-02   2.248666e-02   0.000000e+00
   3.071147e-02  -7.027487e-02   0.000000e+00
  -5.564338e-02   3.934181e-02   0.000000e+00
   0.000000e+00   0.000000e+00   0.000000e+00
   1.606729e-02  -3.302763e-02   0.000000e+00
  -3.179627e-02   2.811878e-02   0.000000e+00
  -9.134945e-03   1.956912e-04   0.000000e+00
   0.000000e+00   0.000000e+00   0.000000e+00
  -1.447859e-01   2.102880e-02   0.000000e+00
   1.962731e-02  -2.123642e-03   0.000000e+00
  -3.146545e-02   3.086040e-02   0.000000e+00
   1.901625e-02   1.722639e-02   0.000000e+00
   3.866145e-02  -4.423784e-02   0.000000e+00
   0.000000e+00   0.000000e+00   0.000000e+00
   8.133404e-03  -3.815048e-03   0.000000e+00
  -1.560147e-02  -1.547567e-02   0.000000e+00
   4.328552e-03  -4.861590e-03   0.000000e+00
   1.869781e-02  -3.209541e-02   0.000000e+00
  -5.895028e-02  -5.441700e-03   0.000000e+00
   0.000000e+00   0.000000e+00   0.000000e+00
   1.263382e-02  -3.933407e-03   0.000000e+00
  -7.811891e-02  -3.584723e-02   0.000000e+00
  -2.002676e-02  -2.570865e-02   0.000000e+00
  -1.753816e-02   2.147019e-02   0.000000e+00
   1.891070e-02  -1.656895e-02   0.000000e+00
  -1.529421e-02   1.974533e-02   0.000000e+00
  -7.301031e-02  -6.965426e-03   0.000000e+00
   3.411253e-03   1.442766e-02   0.000000e+00
   1.159662e-01   1.498244e-01   0.000000e+00
   3.503433e-02  -7.711082e-02   0.000000e+00
  -9.077277e-02  -3.637445e-02   0.000000e+00
  -8.936992e-03   1.004438e-01   0.000000e+00
   0.000000e+00   0.000000e+00   0.000000e+00
  -9.060820e-02  -1.107519e-01   0.000000e+00
  -4.612134e-02   1.048245e-01   0.000000e+00
   0.000000e+00   0.000000e+00   0.000000e+00
  -3.265432e-02   1.860673e-02   0.000000e+00
  -1.396028e-02   3.006159e-02   0.000000e+00
  -7.257935e-02  -4.207407e-02   0.000000e+00
  -7.515484e-02  -8.698644e-03   0.000000e+00
   3.489338e-02  -5.339662e-02   0.000000e+00
VECTORS Real_Arrow_2.511800e+02(Hz) float
  -5.291938e-02  -5.109227e-02   0.000000e+00
  -1.380082e-01   1.965333e-01   0.000000e+00
  -9.734968e-02   1.200990e-01   0.000000e+00
   6.301050e-02  -1.174477e-01   0.000000e+00
   1.908485e-02  -6.129673e-02   0.000000e+00
   3.192558e-02  -1.480335e-02   0.000000e+00
   2.858509e-02   3.194436e-02   0.000000e+00
  -2.193087e-02   3.917754e-02   0.000000e+00
   0.000000e+00   0.000000e+00   0.000000e+00
   5.619555e-02   9.186815e-03   0.000000e+00
  -4.450386e-02  -1.643496e-02   0.000000e+00
  -6.091142e-02   9.256064e-03   0.000000e+00
   5.104158e-02   2.942388e-01   0.000000e+00
   1.355229e-01   7.720207e-02   0.000000e+00
   3.562653e-02   4.095592e-02   0.000000e+00
   1.501685e-01  -1.644181e-02   0.000000e+00
  -1.623673e-01  -2.861253e-01   0.000000e+00
  -2.142965e-02   1.295530e-01   0.000000e+00
   0.000000e+00   0.000000e+00   0.000000e+00
   7.304134e-02   3.667898e-02   0.000000e+00
  -9.213086e-02   4.702214e-02   0.000000e+00
  -1.424972e-02  -4.740394e-02   0.000000e+00
  -8.287935e-02   1.222133e-01   0.000000e+00
   7.401921e-02  -1.370225e-01   0.000000e+00
   0.000000e+00   0.000000e+00   0.000000e+00
  -2.129194e-02  -5.436320e-02   0.000000e+00
   1.069764e-01   1.339822e-01   0.000000e+00
   4.889284e-02   1.353679e-01   0.000000e+00
   4.389497e-02   2.693946e-03   0.000000e+00
   6.689005e-02  -9.772017e-02   0.000000e+00
   3.858685e-02  -4.289692e-02   0.000000e+00
   3.348941e-02  -1.368417e-02   0.000000e+00
   7.655681e-02   6.787722e-02   0.000000e+00
   1.955783e-02   4.359519e-02   0.000000e+00
   0.000000e+00   0.000000e+00   0.000000e+00
   1.186086e-01  -1.616572e-01   0.000000e+00
   3.291948e-02   1.631558e-01   0.000000e+00
   0.000000e+00   0.000000e+00   0.000000e+00
  -3.931128e-02   1.040647e-02   0.000000e+00
   9.780036e-02  -1.308753e-01   0.000000e+00
  -7.282360e-02  -1.815419e-01   0.000000e+00
   1.115108e-02  -1.122824e-02   0.000000e+00
  -1.404344e-01  -8.455074e-02   0.000000e+00
   9.690604e-02  -6.446257e-03   0.000000e+00
   5.364734e-02   3.287763e-01   0.000000e+00
  -6.197850e-03   1.046406e-01   0.000000e+00
VECTORS Imag_Arrow_2.511800e+02(Hz) float
  -1.336925e-02  -4.792383e-02   0.000000e+00
  -4.231156e-02   3.003930e-02   0.000000e+00
   1.007797e-03   2.405194e-02   0.000000e+00
  -2.130881e-02  -1.174305e-01   0.000000e+00
  -3.978778e-02  -6.511473e-02   0.000000e+00
  -9.668148e-03   1.935149e-02   0.000000e+00
   2.459979e-02  -4.705439e-02   0.000000e+00
  -6.430184e-02   4.889827e-02   0.000000e+00
   0.000000e+00   0.000000e+00   0.000000e+00
   2.705271e-02  -2.493420e-02   0.000000e+00
  -2.640003e-02   2.992811e-02   0.000000e+00
  -7.551093e-03  -6.198224e-03   0.000000e+00
   4.862475e-02   2.037868e-01   0.000000e+00
  -1.150842e-01   2.953604e-02   0.000000e+00
   2.337479e-02   1.641263e-03   0.000000e+00
  -1.011688e-02   2.515300e-02   0.000000e+00
   1.158232e-02  -9.731191e-03   0.000000e+00
   3.632072e-02  -2.931818e-02   0.000000e+00
   0.000000e+00   0.000000e+00   0.000000e+00
   1.042565e-03  -2.453552e-03   0.000000e+00
  -1.553444e-02  -1.286050e-02   0.000000e+00
   1.795064e-02   4.596649e-03   0.000000e+00
   2.045918e-02  -1.632175e-02   0.000000e+00
  -4.802890e-02  -1.889227e-02   0.000000e+00
   0.000000e+00   0.000000e+00   0.000000e+00
   1.464665e-02  -1.727508e-02   0.000000e+00
  -7.098048e-02  -6.134951e-03   0.000000e+00
  -1.048501e-02  -1.132677e-02   0.000000e+00
  -4.772840e-03   4.136927e-02   0.000000e+00
   8.704970e-03  -1.107618e-02   0.000000e+00
  -4.694062e-03   2.228716e-02   0.000000e+00
  -4.556177e-02  -1.011585e-02   0.000000e+00
  -1.199976e-03   1.612158e-02   0.000000e+00
   1.023095e-01   1.454142e-01   0.000000e+00
   0.000000e+00   0.000000e+00   0.000000e+00
  -6.171057e-02  -3.945146e-02   0.000000e+00
  -1.951869e-03   8.119262e-02   0.000000e+00
   0.000000e+00   0.000000e+00   0.000000e+00
  -9.085241e-02  -8.338266e-02   0.000000e+00
  -4.673286e-02   7.256424e-02   0.000000e+00
   1.955739e-02   3.430397e-02   0.000000e+00
  -2.611088e-02   2.151940e-02   0.000000e+00
  -4.103785e-02   1.069996e-02   0.000000e+00
  -6.041411e-02  -5.272145e-02   0.000000e+00
  -7.119450e-02   3.344749e-02   0.000000e+00
   1.587144e-02  -3.340029e-02   0.000000e+00
VECTORS Real_Arrow_3.981000e+02(Hz) float
  -4.498368e-02  -3.413726e-02   0.000000e+00
  -1.132474e-01   1.731962e-01   0.000000e+00
  -9.511070e-02   1.071107e-01   0.000000e+00
   7.128793e-02  -8.534932e-02   0.000000e+00
   3.044102e-02  -3.497005e-02   0.000000e+00
   2.770174e-02  -1.925629e-02   0.000000e+00
   2.196316e-02   3.842706e-02   0.000000e+00
   3.711420e-03   1.982814e-02   0.000000e+00
   0.000000e+00   0.000000e+00   0.000000e+00
   4.048772e-02   1.451304e-02   0.000000e+00
  -3.922544e-02  -2.990318e-02   0.000000e+00
  -5.874745e-02   1.244890e-02   0.000000e+00
   3.971742e-02   2.197785e-01   0.000000e+00
   1.609470e-01   5.956340e-02   0.000000e+00
   2.591181e-02   3.968954e-02   0.000000e+00
   1.463501e-01  -2.325856e-02   0.000000e+00
  -1.691230e-01  -2.785240e-01   0.000000e+00
  -3.575681e-02   1.406051e-01   0.000000e+00
   2.657745e-01  -1.615363e-01   0.000000e+00
   7.205296e-02   3.813701e-02   0.000000e+00
  -8.638233e-02   5.029960e-02   0.000000e+00
  -2.555763e-02  -5.209184e-02   0.000000e+00
  -9.357863e-02   1.222706e-01   0.000000e+00
   8.693991e-02  -1.276636e-01   0.000000e+00
  -2.450383e-02  -6.279721e-02   0.000000e+00
  -2.761816e-02  -4.330453e-02   0.000000e+00
   1.302965e-01   1.279201e-01   0.000000e+00
   4.656863e-02   1.343999e-01   0.000000e+00
   3.981782e-02  -1.685573e-02   0.000000e+00
   6.549250e-02  -9.330798e-02   0.000000e+00
   3.323599e-02  -5.023385e-02   0.000000e+00
   3.959575e-02  -1.136337e-02   0.000000e+00
   7.710913e-02   6.343590e-02   0.000000e+00
  -1.133286e-02  -7.903535e-03   0.000000e+00
   0.000000e+00   0.000000e+00   0.000000e+00
   1.239442e-01  -1.462144e-01   0.000000e+00
   2.479538e-02   1.475270e-01   0.000000e+00
   0.000000e+00   0.000000e+00   0.000000e+00
  -6.133272e-03   2.811692e-02   0.000000e+00
   1.141941e-01  -1.366540e-01   0.000000e+00
  -8.251669e-02  -1.916187e-01   0.000000e+00
   1.928976e-02  -2.297797e-02   0.000000e+00
  -1.163937e-01  -8.059474e-02   0.000000e+00
   1.088368e-01   1.480824e-02   0.000000e+00
   7.709529e-02   3.019830e-01   0.000000e+00
  -4.631305e-05   1.034773e-01   0.000000e+00
VECTORS Imag_Arrow_3.981000e+02(Hz) float
  -1.444412e-02  -4.407833e-02   0.000000e+00
  -5.231555e-02   4.787146e-02   0.000000e+00
  -1.245985e-02   3.294314e-02   0.000000e+00
  -1.996503e-02  -1.154388e-01   0.000000e+00
  -3.176759e-02  -5.960095e-02   0.000000e+00
  -9.195518e-03   1.434350e-02   0.000000e+00
   1.498130e-02  -2.398389e-02   0.000000e+00
  -6.357479e-02   5.251499e-02   0.000000e+00
   0.000000e+00   0.000000e+00   0.000000e+00
   2.903028e-02  -1.746015e-02   0.000000e+00
  -2.383408e-02   2.514688e-02   0.000000e+00
  -7.034600e-03  -1.049107e-02   0.000000e+00
   3.398616e-02   1.938851e-01   0.000000e+00
  -8.829284e-02   2.839303e-02   0.000000e+00
   2.485252e-02   3.745973e-03   0.000000e+00
   7.263984e-03   1.973869e-02   0.000000e+00
  -8.895383e-05  -3.442452e-02   0.000000e+00
   2.716818e-02  -3.882014e-03   0.000000e+00
   4.902439e-02  -7.815899e-03   0.000000e+00
  -9.505202e-03  -1.145107e-03   0.000000e+00
  -1.494986e-02  -1.117044e-02   0.000000e+00
   2.522780e-02   1.082334e-02   0.000000e+00
   1.477192e-02  -3.496110e-03   0.000000e+00
  -3.650767e-02  -3.306536e-02   0.000000e+00
  -3.798663e-02   2.591841e-02   0.000000e+00
   1.412591e-02  -2.262680e-02   0.000000e+00
  -6.049866e-02   2.254812e-02   0.000000e+00
  -3.992896e-03  -7.354919e-04   0.000000e+00
   4.543745e-03   6.228217e-02   0.000000e+00
  -2.092518e-03  -4.467262e-04   0.000000e+00
  -1.014188e-03   2.560938e-02   0.000000e+00
  -1.392459e-02  -1.180347e-02   0.000000e+00
  -5.367673e-03   1.835732e-02   0.000000e+00
   8.664508e-02   1.279044e-01   0.000000e+00
   0.000000e+00   0.000000e+00   0.000000e+00
  -4.965221e-02  -3.885066e-02   0.000000e+00
  -1.058199e-02   5.755803e-02   0.000000e+00
   0.000000e+00   0.000000e+00   0.000000e+00
  -8.273377e-02  -5.973614e-02   0.000000e+00
  -4.464884e-02   6.012068e-02   0.000000e+00
   6.983511e-03   1.425888e-02   0.000000e+00
  -1.494649e-02   1.540774e-02   0.000000e+00
  -5.999754e-02  -5.041645e-03   0.000000e+00
  -5.630776e-02  -5.675449e-02   0.000000e+00
  -6.259793e-02   6.495539e-02   0.000000e+00
   9.443167e-03  -2.467491e-02   0.000000e+00
VECTORS Real_Arrow_6.309500e+02(Hz) float
  -3.871118e-02  -1.971079e-02   0.000000e+00
  -8.968445e-02   1.475907e-01   0.000000e+00
  -8.604881e-02   9.281159e-02   0.000000e+00
   7.864905e-02  -4.990457e-02   0.000000e+00
   3.889302e-02  -1.474721e-02   0.000000e+00
   2.619291e-02  -1.915824e-02   0.000000e+00
   2.139161e-02   3.538358e-02   0.000000e+00
   2.687672e-02   4.607012e-04   0.000000e+00
   0.000000e+00   0.000000e+00   0.000000e+00
   2.859447e-02   1.738981e-02   0.000000e+00
  -3.355101e-02  -3.944237e-02   0.000000e+00
  -5.532312e-02   1.602028e-02   0.000000e+00
   3.205567e-02   1.585660e-01   0.000000e+00
   1.767279e-01   4.785481e-02   0.000000e+00
   1.731886e-02   3.847387e-02   0.000000e+00
   1.380957e-01  -2.826886e-02   0.000000e+00
  -1.718573e-01  -2.648162e-01   0.000000e+00
  -4.362054e-02   1.362415e-01   0.000000e+00
   2.402674e-01  -1.551891e-01   0.000000e+00
   7.737758e-02   3.991015e-02   0.000000e+00
  -8.007858e-02   5.385753e-02   0.000000e+00
  -3.723375e-02  -5.854066e-02   0.000000e+00
  -9.877446e-02   1.184737e-01   0.000000e+00
   9.587200e-02  -1.099692e-01   0.000000e+00
  -1.124154e-02  -5.450212e-02   0.000000e+00
  -3.215318e-02  -3.303334e-02   0.000000e+00
   1.493174e-01   1.114483e-01   0.000000e+00
   4.088588e-02   1.334633e-01   0.000000e+00
   3.298511e-02  -4.752495e-02   0.000000e+00
   6.835320e-02  -9.623294e-02   0.000000e+00
   2.941172e-02  -5.964422e-02   0.000000e+00
   3.092810e-02  -8.030902e-03   0.000000e+00
   7.755670e-02   5.833309e-02   0.000000e+00
  -3.675809e-02  -4.760083e-02   0.000000e+00
  -8.370442e-03  -2.768944e-02   0.000000e+00
   1.327272e-01  -1.312537e-01   0.000000e+00
   2.976421e-02   1.421273e-01   0.000000e+00
   0.000000e+00   0.000000e+00   0.000000e+00
   2.080162e-02   3.862109e-02   0.000000e+00
   1.290485e-01  -1.453649e-01   0.000000e+00
  -8.291261e-02  -1.921680e-01   0.000000e+00
   2.106407e-02  -2.828652e-02   0.000000e+00
  -8.800881e-02  -7.144919e-02   0.000000e+00
   1.246666e-01   3.452041e-02   0.000000e+00
   9.425762e-02   2.672977e-01   0.000000e+00
   1.928932e-03   1.064344e-01   0.000000e+00
VECTORS Imag_Arrow_6.309500e+02(Hz) float
  -1.278485e-02  -3.697724e-02   0.000000e+00
  -5.148008e-02   5.288212e-02   0.000000e+00
  -2.351542e-02   3.824943e-02   0.000000e+00
  -1.651130e-02  -1.135691e-01   0.000000e+00
  -2.341039e-02  -4.711723e-02   0.000000e+00
  -1.602902e-02   1.252331e-02   0.000000e+00
   7.630696e-03  -9.707147e-03   0.000000e+00
  -5.867915e-02   5.251721e-02   0.000000e+00
   0.000000e+00   0.000000e+00   0.000000e+00
   2.698784e-02  -1.168213e-02   0.000000e+00
  -2.219593e-02   1.549108e-02   0.000000e+00
  -4.457443e-03  -1.483252e-02   0.000000e+00
   2.006267e-02   1.750397e-01   0.000000e+00
  -6.781738e-02   1.909405e-02   0.000000e+00
   2.421425e-02   6.542300e-03   0.000000e+00
   2.146562e-02   1.468880e-02   0.000000e+00
  -1.777598e-02  -5.918531e-02   0.000000e+00
   1.515576e-02   2.370693e-02   0.000000e+00
   5.136171e-02  -1.022004e-02   0.000000e+00
  -1.967368e-02   1.876385e-03   0.000000e+00
  -1.269626e-02  -8.785238e-03   0.000000e+00
   2.999899e-02   1.467625e-02   0.000000e+00
   5.134965e-03   5.659785e-03   0.000000e+00
  -2.433142e-02  -4.388264e-02   0.000000e+00
  -3.897799e-02   1.617373e-03   0.000000e+00
   1.298496e-02  -2.560346e-02   0.000000e+00
  -4.502332e-02   4.545699e-02   0.000000e+00
  -2.349746e-03   7.784173e-03   0.000000e+00
   9.095869e-03   7.318316e-02   0.000000e+00
  -1.063916e-02   9.324890e-03   0.000000e+00
  -2.992420e-03   2.773884e-02   0.000000e+00
   7.348664e-03  -1.707484e-02   0.000000e+00
  -1.048242e-02   2.163955e-02   0.000000e+00
   6.903113e-02   1.036779e-01   0.000000e+00
   4.835504e-02  -7.500723e-02   0.000000e+00
  -4.289174e-02  -3.533338e-02   0.000000e+00
  -2.236416e-02   5.184778e-02   0.000000e+00
   0.000000e+00   0.000000e+00   0.000000e+00
  -6.773900e-02  -3.793776e-02   0.000000e+00
  -3.818362e-02   5.607127e-02   0.000000e+00
  -8.031606e-03  -6.824816e-03   0.000000e+00
  -4.594385e-03   5.211833e-03   0.000000e+00
  -6.857193e-02  -1.432059e-02   0.000000e+00
  -5.459533e-02  -5.646334e-02   0.000000e+00
  -4.989422e-02   8.344827e-02   0.000000e+00
   1.191243e-02  -2.461286e-02   0.000000e+00
VECTORS Real_Arrow_1.000000e+03(Hz) float
  -3.364164e-02  -9.327960e-03   0.000000e+00
  -7.130074e-02   1.256642e-01   0.000000e+00
  -7.306722e-02   7.773458e-02   0.000000e+00
   8.452677e-02  -1.243441e-02   0.000000e+00
   4.388125e-02  -2.893264e-03   0.000000e+00
   3.125258e-02  -1.884426e-02   0.000000e+00
   2.229341e-02   3.027232e-02   0.000000e+00
   4.739824e-02  -1.811631e-02   0.000000e+00
   0.000000e+00   0.000000e+00   0.000000e+00
   1.999482e-02   1.868162e-02   0.000000e+00
  -2.830168e-02  -4.335284e-02   0.000000e+00
  -5.322149e-02   2.059123e-02   0.000000e+00
   2.854916e-02   1.089847e-01   0.000000e+00
   1.873633e-01   4.605844e-02   0.000000e+00
   0.000000e+00   0.000000e+00   0.000000e+00
   1.255588e-01  -3.129662e-02   0.000000e+00
  -1.660447e-01  -2.423747e-01   0.000000e+00
  -4.558555e-02   1.192410e-01   0.000000e+00
   0.000000e+00   0.000000e+00   0.000000e+00
   8.637576e-02   4.081782e-02   0.000000e+00
  -7.450270e-02   5.618788e-02   0.000000e+00
  -4.935291e-02  -6.626843e-02   0.000000e+00
  -9.778143e-02   1.122486e-01   0.000000e+00
   0.000000e+00   0.000000e+00   0.000000e+00
   1.063550e-03  -4.224396e-02   0.000000e+00
  -3.555873e-02  -2.273807e-02   0.000000e+00
   1.606608e-01   8.880864e-02   0.000000e+00
   3.519436e-02   1.324269e-01   0.000000e+00
   2.556684e-02  -7.788135e-02   0.000000e+00
   7.309137e-02  -1.036652e-01   0.000000e+00
   2.931024e-02  -6.991324e-02   0.000000e+00
   2.095779e-02  -3.610289e-04   0.000000e+00
   0.000000e+00   0.000000e+00   0.000000e+00
  -5.537941e-02  -7.510668e-02   0.000000e+00
   0.000000e+00   0.000000e+00   0.000000e+00
   1.416110e-01  -1.166377e-01   0.000000e+00
   3.984134e-02   1.310397e-01   0.000000e+00
   0.000000e+00   0.000000e+00   0.000000e+00
   0.000000e+00   0.000000e+00   0.000000e+00
   1.383066e-01  -1.545861e-01   0.000000e+00
   0.000000e+00   0.000000e+00   0.000000e+00
   0.000000e+00   0.000000e+00   0.000000e+00
  -6.099006e-02  -6.121943e-02   0.000000e+00
   1.421795e-01   5.284176e-02   0.000000e+00
   1.034992e-01   2.297088e-01   0.000000e+00
  -2.450565e-04   1.130159e-01   0.000000e+00
VECTORS Imag_Arrow_1.000000e+03(Hz) float
  -9.914540e-03  -2.844586e-02   0.000000e+00
  -4.546150e-02   4.980499e-02   0.000000e+00
  -2.953137e-02   4.041547e-02   0.000000e+00
  -1.152838e-02  -1.079279e-01   0.000000e+00
  -1.467528e-02  -3.287604e-02   0.000000e+00
  -2.602870e-02   1.624760e-02   0.000000e+00
   4.301760e-03  -3.424168e-03   0.000000e+00
  -4.936131e-02   4.873247e-02   0.000000e+00
   0.000000e+00   0.000000e+00   0.000000e+00
   2.357539e-02  -7.216340e-03   0.000000e+00
  -2.107801e-02   3.645690e-03   0.000000e+00
   2.298762e-04  -1.937366e-02   0.000000e+00
   6.041309e-03   1.546476e-01   0.000000e+00
  -5.510802e-02   8.895209e-03   0.000000e+00
   0.000000e+00   0.000000e+00   0.000000e+00
   3.215492e-02   9.770492e-03   0.000000e+00
  -4.102110e-02  -8.529644e-02   0.000000e+00
   3.352561e-03   4.557845e-02   0.000000e+00
   0.000000e+00   0.000000e+00   0.000000e+00
  -2.698874e-02   6.828562e-03   0.000000e+00
  -7.676003e-03  -5.281506e-03   0.000000e+00
   3.186755e-02   1.569973e-02   0.000000e+00
  -4.921341e-03   1.152853e-02   0.000000e+00
   0.000000e+00   0.000000e+00   0.000000e+00
  -3.842283e-02  -8.354327e-03   0.000000e+00
   1.216503e-02  -2.605686e-02   0.000000e+00
  -2.685033e-02   6.149539e-02   0.000000e+00
  -8.822612e-03   1.886585e-02   0.000000e+00
   8.799496e-03   7.106170e-02   0.000000e+00
  -1.746215e-02   1.542771e-02   0.000000e+00
  -7.878660e-03   2.796626e-02   0.000000e+00
   1.826563e-02  -2.154708e-02   0.000000e+00
   0.000000e+00   0.000000e+00   0.000000e+00
   4.881251e-02   7.716250e-02   0.000000e+00
   0.000000e+00   0.000000e+00   0.000000e+00
  -3.787484e-02  -2.809513e-02   0.000000e+00
  -2.824839e-02   5.397029e-02   0.000000e+00
   0.000000e+00   0.000000e+00   0.000000e+00
   0.000000e+00   0.000000e+00   0.000000e+00
  -3.040693e-02   5.768027e-02   0.000000e+00
   0.000000e+00   0.000000e+00   0.000000e+00
   0.000000e+00   0.000000e+00   0.000000e+00
  -6.889344e-02  -1.739261e-02   0.000000e+00
  -5.048074e-02  -5.484569e-02   0.000000e+00
  -3.942097e-02   9.093671e-02   0.000000e+00
   1.553536e-02  -2.401069e-02   0.000000e+00
