# vtk DataFile Version 2.0
Induction_Arrow_Iter3_PE3
ASCII
DATASET UNSTRUCTURED_GRID
POINTS 46 float
  -2.052000e+03    1.667000e+03   -4.526633e+02
  -1.265000e+03    2.333000e+03   -4.555885e+02
  -9.840000e+02    2.568000e+03   -4.612271e+02
   1.700000e+03   -1.757000e+03   -5.237752e+02
  -1.152000e+03    1.382000e+03   -4.549280e+02
   3.187000e+03    1.067000e+03   -8.370176e+02
   4.716000e+03    9.370000e+02   -8.015281e+02
  -1.855000e+03    5.260000e+02   -5.147377e+02
  -1.420000e+02   -1.905000e+03   -4.746368e+02
  -5.800000e+01    1.069000e+03   -4.555494e+02
  -2.802000e+03    3.302000e+03   -4.314337e+02
  -5.640000e+03   -1.532000e+03   -4.911771e+02
  -8.030000e+02   -5.610000e+02   -5.280929e+02
   1.008000e+03    4.130000e+02   -5.983358e+02
   1.960000e+02    2.246000e+03   -5.219413e+02
  -3.457000e+03    8.320000e+02   -4.470735e+02
   5.640000e+03    2.452000e+03   -7.393049e+02
  -1.334000e+03    3.332000e+03   -4.456136e+02
   1.244000e+03    1.880000e+03   -6.331107e+02
  -2.680000e+02    2.144000e+03   -4.891390e+02
  -4.063000e+03    6.620000e+02   -4.746103e+02
  -1.258000e+03    6.330000e+02   -4.856841e+02
  -2.141000e+03    3.194000e+03   -4.348461e+02
  -3.469000e+03   -3.059000e+03   -6.067613e+02
  -1.604000e+03   -2.570000e+02   -5.141257e+02
  -1.454000e+03    2.220000e+02   -5.386025e+02
   1.864000e+03    1.270000e+02   -7.404291e+02
   2.449000e+03    5.590000e+02   -7.805292e+02
  -1.834000e+03   -1.554000e+03   -6.273074e+02
   1.807000e+03    2.297000e+03   -6.825557e+02
  -2.560000e+03   -1.783000e+03   -6.131337e+02
  -2.741000e+03   -5.010000e+02   -5.080000e+02
   2.884000e+03   -2.179000e+03   -5.274708e+02
  -6.120000e+02   -8.960000e+02   -5.895389e+02
  -1.985000e+03   -2.653000e+03   -5.598834e+02
  -3.390000e+03   -4.000000e+02   -4.982361e+02
   1.586000e+03    1.342000e+03   -6.618442e+02
   1.047000e+03    2.401000e+03   -5.426792e+02
   8.380000e+02   -1.300000e+03   -4.783644e+02
   2.569000e+03    2.441000e+03   -6.035668e+02
  -2.028000e+03    2.833000e+03   -4.322286e+02
  -1.086000e+03    1.998000e+03   -4.563301e+02
   1.514000e+03   -3.332000e+03   -5.646205e+02
   7.040000e+02    1.116000e+03   -5.365099e+02
   1.990000e+03    6.360000e+02   -7.085272e+02
   3.722000e+03   -1.700000e+02   -6.745213e+02
CELLS 46 92
1 0
1 1
1 2
1 3
1 4
1 5
1 6
1 7
1 8
1 9
1 10
1 11
1 12
1 13
1 14
1 15
1 16
1 17
1 18
1 19
1 20
1 21
1 22
1 23
1 24
1 25
1 26
1 27
1 28
1 29
1 30
1 31
1 32
1 33
1 34
1 35
1 36
1 37
1 38
1 39
1 40
1 41
1 42
1 43
1 44
1 45
CELL_TYPES 46
1
1
1
1
1
1
1
1
1
1
1
1
1
1
1
1
1
1
1
1
1
1
1
1
1
1
1
1
1
1
1
1
1
1
1
1
1
1
1
1
1
1
1
1
1
1
POINT_DATA 46
VECTORS Real_Arrow_1.000000e+02(Hz) float
  -5.436945e-02  -8.754031e-02   0.000000e+00
  -1.489179e-01   1.916315e-01   0.000000e+00
  -7.777098e-02   1.265081e-01   0.000000e+00
   4.490073e-02  -1.810767e-01   0.000000e+00
  -1.176292e-02  -1.139041e-01   0.000000e+00
   2.587279e-02   7.554462e-03   0.000000e+00
   5.759681e-02  -2.726205e-02   0.000000e+00
  -6.780877e-02   4.225253e-02   0.000000e+00
   0.000000e+00   0.000000e+00   0.000000e+00
   9.473400e-02  -2.366510e-02   0.000000e+00
  -4.956804e-02   1.450098e-03   0.000000e+00
  -5.506715e-02   1.123171e-02   0.000000e+00
   0.000000e+00   0.000000e+00   0.000000e+00
   4.849145e-02   1.216910e-01   0.000000e+00
   5.936321e-02   3.965121e-02   0.000000e+00
   1.415996e-01   1.573433e-02   0.000000e+00
  -1.531151e-01  -2.781729e-01   0.000000e+00
   1.898785e-02   8.169581e-02   0.000000e+00
   0.000000e+00   0.000000e+00   0.000000e+00
   1.038254e-01   3.678317e-02   0.000000e+00
  -1.082295e-01   3.445517e-02   0.000000e+00
   3.866367e-03  -5.641152e-02   0.000000e+00
  -6.533407e-02   8.561625e-02   0.000000e+00
   3.433542e-02  -1.265888e-01   0.000000e+00
   0.000000e+00   0.000000e+00   0.000000e+00
  -4.349328e-03  -7.229721e-02   0.000000e+00
   6.469905e-02   1.066722e-01   0.000000e+00
   4.615598e-02   1.228656e-01   0.000000e+00
   2.731543e-02   3.798875e-03   0.000000e+00
   1.044788e-01  -1.366723e-01   0.000000e+00
   4.635287e-02  -3.440202e-02   0.000000e+00
  -2.968309e-02  -2.591397e-02   0.000000e+00
   7.675700e-02   7.588723e-02   0.000000e+00
   1.100280e-01   1.641246e-01   0.000000e+00
   6.308241e-02  -1.500589e-01   0.000000e+00
   6.757650e-02  -1.871553e-01   0.000000e+00
   5.508036e-02   2.602310e-01   0.000000e+00
   0.000000e+00   0.000000e+00   0.000000e+00
  -1.079203e-01  -4.417443e-02   0.000000e+00
   7.956660e-02  -8.455968e-02   0.000000e+00
   0.000000e+00   0.000000e+00   0.000000e+00
  -2.335693e-02   1.527196e-02   0.000000e+00
  -1.493829e-01  -6.161758e-02   0.000000e+00
   7.440872e-02  -3.471181e-02   0.000000e+00
   9.600482e-03   3.256774e-01   0.000000e+00
   1.522944e-02   8.097544e-02   0.000000e+00
VECTORS Imag_Arrow_1.000000e+02(Hz) float
  -5.411703e-04  -4.934148e-02   0.000000e+00
   1.297602e-02  -3.841088e-02   0.000000e+00
   2.555787e-02  -9.023340e-03   0.000000e+00
  -1.017312e-02  -1.424618e-01   0.000000e+00
  -4.105984e-02  -4.967306e-02   0.000000e+00
  -3.331496e-02   1.902389e-02   0.000000e+00
   3.870846e-02  -8.615253e-02   0.000000e+00
  -2.428851e-02   2.147979e-02   0.000000e+00
   0.000000e+00   0.000000e+00   0.000000e+00
  -1.504186e-02  -3.168906e-02   0.000000e+00
  -4.713073e-02   2.425729e-02   0.000000e+00
  -1.431243e-02   1.084892e-02   0.000000e+00
   0.000000e+00   0.000000e+00   0.000000e+00
  -1.810319e-01   6.946193e-04   0.000000e+00
   1.734704e-02  -1.263849e-02   0.000000e+00
  -5.805791e-02   2.982588e-02   0.000000e+00
   2.199746e-02   4.925954e-02   0.000000e+00
   2.923428e-02  -3.923644e-02   0.000000e+00
   0.000000e+00   0.000000e+00   0.000000e+00
   1.182162e-02  -1.104024e-02   0.000000e+00
  -1.844635e-02  -2.121015e-02   0.000000e+00
  -2.188147e-02  -1.526634e-02   0.000000e+00
   3.615127e-03  -4.441145e-02   0.000000e+00
  -6.020293e-02  -4.989886e-03   0.000000e+00
   0.000000e+00   0.000000e+00   0.000000e+00
   3.982608e-03   3.169890e-02   0.000000e+00
  -9.013639e-02  -6.566402e-02   0.000000e+00
  -3.475984e-02  -4.338490e-02   0.000000e+00
  -3.283755e-02   1.688217e-02   0.000000e+00
   2.492924e-02  -1.867351e-04   0.000000e+00
  -3.153955e-02   2.052884e-02   0.000000e+00
  -7.869126e-02   3.862196e-03   0.000000e+00
   7.385278e-03   1.528678e-02   0.000000e+00
   1.244333e-01   1.241266e-01   0.000000e+00
   2.543224e-02  -7.304785e-02   0.000000e+00
  -1.364544e-01  -4.289619e-02   0.000000e+00
  -4.047606e-02   7.552320e-02   0.000000e+00
   0.000000e+00   0.000000e+00   0.000000e+00
  -7.552276e-02  -1.433019e-01   0.000000e+00
  -4.170072e-02   1.518806e-01   0.000000e+00
   0.000000e+00   0.000000e+00   0.000000e+00
  -2.308158e-02   3.277817e-03   0.000000e+00
   1.433907e-02   4.687772e-02   0.000000e+00
  -8.428599e-02  -3.076518e-02   0.000000e+00
  -7.864621e-02  -5.588505e-02   0.000000e+00
   5.985205e-02  -7.991961e-02   0.000000e+00
VECTORS Real_Arrow_1.584800e+02(Hz) float
  -5.199399e-02  -6.640028e-02   0.000000e+00
  -1.497152e-01   2.011094e-01   0.000000e+00
  -8.672237e-02   1.232069e-01   0.000000e+00
   4.711626e-02  -1.443036e-01   0.000000e+00
   3.071428e-03  -9.111697e-02   0.000000e+00
   3.205835e-02  -2.717157e-03   0.000000e+00
   3.884553e-02   8.738506e-03   0.000000e+00
  -5.313924e-02   4.271411e-02   0.000000e+00
   0.000000e+00   0.000000e+00   0.000000e+00
   7.850084e-02  -1.172582e-02   0.000000e+00
  -4.066204e-02  -5.077672e-03   0.000000e+00
  -5.714319e-02   8.778675e-03   0.000000e+00
   0.000000e+00   0.000000e+00   0.000000e+00
   1.019498e-01   1.072566e-01   0.000000e+00
   4.632922e-02   4.312214e-02   0.000000e+00
   1.483662e-01   6.077336e-04   0.000000e+00
  -1.589979e-01  -2.893821e-01   0.000000e+00
   4.009616e-03   1.014113e-01   0.000000e+00
   0.000000e+00   0.000000e+00   0.000000e+00
   8.880684e-02   3.808092e-02   0.000000e+00
  -1.013169e-01   4.001663e-02   0.000000e+00
  -1.720882e-03  -4.638379e-02   0.000000e+00
  -7.026917e-02   1.046413e-01   0.000000e+00
   5.173403e-02  -1.271079e-01   0.000000e+00
   0.000000e+00   0.000000e+00   0.000000e+00
  -1.154417e-02  -7.362715e-02   0.000000e+00
   8.889686e-02   1.243501e-01   0.000000e+00
   5.099691e-02   1.324014e-01   0.000000e+00
   3.921083e-02   3.650040e-03   0.000000e+00
   8.248466e-02  -1.204649e-01   0.000000e+00
   5.215279e-02  -3.924549e-02   0.000000e+00
  -2.894951e-03  -2.355509e-02   0.000000e+00
   7.702356e-02   7.023237e-02   0.000000e+00
   5.917527e-02   1.046122e-01   0.000000e+00
   4.906242e-02  -1.116524e-01   0.000000e+00
   9.827554e-02  -1.649746e-01   0.000000e+00
   5.228964e-02   2.081985e-01   0.000000e+00
   0.000000e+00   0.000000e+00   0.000000e+00
  -8.019734e-02  -1.274318e-02   0.000000e+00
   9.076657e-02  -1.201815e-01   0.000000e+00
   0.000000e+00   0.000000e+00   0.000000e+00
  -1.009627e-02   1.036072e-02   0.000000e+00
  -1.493739e-01  -7.649038e-02   0.000000e+00
   8.663129e-02  -2.429639e-02   0.000000e+00
   2.997608e-02   3.347910e-01   0.000000e+00
  -6.793739e-03   1.017344e-01   0.000000e+00
VECTORS Imag_Arrow_1.584800e+02(Hz) float
  -9.006747e-03  -4.977968e-02   0.000000e+00
  -1.333385e-02  -6.465593e-03   0.000000e+00
   1.511582e-02   9.861570e-03   0.000000e+00
  -1.546668e-02  -1.278093e-01   0.000000e+00
  -3.876998e-02  -5.919939e-02   0.000000e+00
  -2.139779e-02   2.072613e-02   0.000000e+00
   3.795641e-02  -7.388300e-02   0.000000e+00
  -5.081711e-02   2.822783e-02   0.000000e+00
   0.000000e+00   0.000000e+00   0.000000e+00
   1.486151e-02  -3.088423e-02   0.000000e+00
  -3.389832e-02   2.448339e-02   0.000000e+00
  -8.878683e-03   2.320565e-03   0.000000e+00
   0.000000e+00   0.000000e+00   0.000000e+00
  -1.494604e-01   2.227700e-02   0.000000e+00
   2.354697e-02  -4.390156e-03   0.000000e+00
  -2.936434e-02   3.176199e-02   0.000000e+00
   1.421930e-02   1.571210e-02   0.000000e+00
   3.453405e-02  -3.521162e-02   0.000000e+00
   0.000000e+00   0.000000e+00   0.000000e+00
   1.424089e-02  -5.354367e-03   0.000000e+00
  -1.981902e-02  -1.686912e-02   0.000000e+00
   4.326531e-03  -5.732286e-03   0.000000e+00
   1.078159e-02  -3.351179e-02   0.000000e+00
  -5.224397e-02  -1.564024e-02   0.000000e+00
   0.000000e+00   0.000000e+00   0.000000e+00
   1.011600e-02  -1.073899e-05   0.000000e+00
  -7.847391e-02  -4.034605e-02   0.000000e+00
  -1.879214e-02  -2.745786e-02   0.000000e+00
  -2.403632e-02   2.785653e-02   0.000000e+00
   2.570566e-02  -1.471633e-02   0.000000e+00
  -1.294055e-02   2.130753e-02   0.000000e+00
  -6.363858e-02  -1.010490e-02   0.000000e+00
   1.864326e-03   1.661813e-02   0.000000e+00
   1.191281e-01   1.390622e-01   0.000000e+00
   3.967287e-02  -8.760398e-02   0.000000e+00
  -9.819087e-02  -5.053864e-02   0.000000e+00
  -1.585865e-02   9.237164e-02   0.000000e+00
   0.000000e+00   0.000000e+00   0.000000e+00
  -8.397525e-02  -1.074836e-01   0.000000e+00
  -3.669328e-02   1.059401e-01   0.000000e+00
   0.000000e+00   0.000000e+00   0.000000e+00
  -2.976044e-02   1.504014e-02   0.000000e+00
  -1.434622e-02   3.012894e-02   0.000000e+00
  -6.351263e-02  -4.421626e-02   0.000000e+00
  -7.057867e-02  -1.187980e-02   0.000000e+00
   3.960660e-02  -5.704586e-02   0.000000e+00
VECTORS Real_Arrow_2.511800e+02(Hz) float
  -4.524780e-02  -4.880435e-02   0.000000e+00
  -1.363969e-01   1.930939e-01   0.000000e+00
  -9.103613e-02   1.133678e-01   0.000000e+00
   5.388016e-02  -1.125849e-01   0.000000e+00
   1.553089e-02  -6.575178e-02   0.000000e+00
   3.154675e-02  -1.052507e-02   0.000000e+00
   2.283623e-02   3.364092e-02   0.000000e+00
  -2.485287e-02   3.214736e-02   0.000000e+00
   0.000000e+00   0.000000e+00   0.000000e+00
   5.820332e-02  -6.835685e-04   0.000000e+00
  -3.596004e-02  -1.474137e-02   0.000000e+00
  -5.728177e-02   1.016619e-02   0.000000e+00
   5.217452e-02   2.730618e-01   0.000000e+00
   1.398911e-01   8.888588e-02   0.000000e+00
   3.494763e-02   4.174540e-02   0.000000e+00
   1.483422e-01  -1.186162e-02   0.000000e+00
  -1.641476e-01  -2.878783e-01   0.000000e+00
  -1.248491e-02   1.193924e-01   0.000000e+00
   0.000000e+00   0.000000e+00   0.000000e+00
   7.804672e-02   3.785819e-02   0.000000e+00
  -9.409364e-02   4.403052e-02   0.000000e+00
  -1.392256e-02  -4.713910e-02   0.000000e+00
  -7.935403e-02   1.140850e-01   0.000000e+00
   6.655514e-02  -1.211527e-01   0.000000e+00
   0.000000e+00   0.000000e+00   0.000000e+00
  -1.842602e-02  -5.991284e-02   0.000000e+00
   1.100724e-01   1.332400e-01   0.000000e+00
   4.966534e-02   1.372212e-01   0.000000e+00
   4.576113e-02  -4.301837e-03   0.000000e+00
   6.930612e-02  -1.052580e-01   0.000000e+00
   4.736395e-02  -4.540879e-02   0.000000e+00
   1.717748e-02  -1.370508e-02   0.000000e+00
   7.762837e-02   6.533020e-02   0.000000e+00
   1.813514e-02   4.799493e-02   0.000000e+00
   0.000000e+00   0.000000e+00   0.000000e+00
   1.123787e-01  -1.431991e-01   0.000000e+00
   4.212184e-02   1.635037e-01   0.000000e+00
   0.000000e+00   0.000000e+00   0.000000e+00
  -4.869570e-02   8.547226e-03   0.000000e+00
   9.941669e-02  -1.302103e-01   0.000000e+00
  -5.271442e-02  -1.694721e-01   0.000000e+00
   5.072867e-03  -2.068535e-03   0.000000e+00
  -1.360814e-01  -8.186060e-02   0.000000e+00
   9.474632e-02  -4.870470e-03   0.000000e+00
   4.961283e-02   3.259949e-01   0.000000e+00
  -9.948714e-03   1.088474e-01   0.000000e+00
VECTORS Imag_Arrow_2.511800e+02(Hz) float
  -1.286760e-02  -4.657247e-02   0.000000e+00
  -3.487837e-02   2.238124e-02   0.000000e+00
   3.397667e-03   2.213675e-02   0.000000e+00
  -1.944749e-02  -1.194568e-01   0.000000e+00
  -3.198964e-02  -6.267945e-02   0.000000e+00
  -1.427231e-02   1.935992e-02   0.000000e+00
   2.866559e-02  -4.971737e-02   0.000000e+00
  -6.320316e-02   4.011275e-02   0.000000e+00
   0.000000e+00   0.000000e+00   0.000000e+00
   2.668842e-02  -2.680471e-02   0.000000e+00
  -2.546532e-02   2.272609e-02   0.000000e+00
  -7.129856e-03  -3.822559e-03   0.000000e+00
   4.554822e-02   1.986212e-01   0.000000e+00
  -1.183681e-01   3.326284e-02   0.000000e+00
   2.604511e-02   1.203404e-03   0.000000e+00
  -7.716333e-03   2.859016e-02   0.000000e+00
   5.286062e-03  -1.658714e-02   0.000000e+00
   3.273490e-02  -2.063977e-02   0.000000e+00
   0.000000e+00   0.000000e+00   0.000000e+00
   8.257000e-03  -3.148824e-03   0.000000e+00
  -2.035338e-02  -1.301969e-02   0.000000e+00
   1.841263e-02   6.008355e-03   0.000000e+00
   1.243444e-02  -1.872479e-02   0.000000e+00
  -4.318521e-02  -2.893834e-02   0.000000e+00
   0.000000e+00   0.000000e+00   0.000000e+00
   1.327150e-02  -1.820628e-02   0.000000e+00
  -6.964096e-02  -1.201752e-02   0.000000e+00
  -8.311414e-03  -1.144124e-02   0.000000e+00
  -1.205550e-02   4.623165e-02   0.000000e+00
   1.566152e-02  -1.258622e-02   0.000000e+00
   1.565745e-03   2.358898e-02   0.000000e+00
  -4.209309e-02  -1.715742e-02   0.000000e+00
  -2.377227e-03   1.806346e-02   0.000000e+00
   1.042976e-01   1.362237e-01   0.000000e+00
   0.000000e+00   0.000000e+00   0.000000e+00
  -7.103999e-02  -4.947393e-02   0.000000e+00
  -5.094580e-03   7.845384e-02   0.000000e+00
   0.000000e+00   0.000000e+00   0.000000e+00
  -8.681162e-02  -8.252644e-02   0.000000e+00
  -3.029049e-02   7.458426e-02   0.000000e+00
   9.942953e-03   2.621952e-02   0.000000e+00
  -2.639580e-02   1.994751e-02   0.000000e+00
  -4.018859e-02   1.199432e-02   0.000000e+00
  -5.521484e-02  -5.437492e-02   0.000000e+00
  -6.559716e-02   2.987600e-02   0.000000e+00
   1.935088e-02  -3.633880e-02   0.000000e+00
VECTORS Real_Arrow_3.981000e+02(Hz) float
  -3.871453e-02  -3.342356e-02   0.000000e+00
  -1.147064e-01   1.733010e-01   0.000000e+00
  -8.968198e-02   1.017945e-01   0.000000e+00
   6.252692e-02  -8.031740e-02   0.000000e+00
   2.393572e-02  -4.045714e-02   0.000000e+00
   2.896906e-02  -1.494394e-02   0.000000e+00
   1.608331e-02   4.097776e-02   0.000000e+00
   2.052643e-03   1.481796e-02   0.000000e+00
   0.000000e+00   0.000000e+00   0.000000e+00
   4.209298e-02   7.368859e-03   0.000000e+00
  -3.229193e-02  -2.364577e-02   0.000000e+00
  -5.502167e-02   1.227238e-02   0.000000e+00
   4.311813e-02   2.005836e-01   0.000000e+00
   1.654032e-01   6.957763e-02   0.000000e+00
   2.469591e-02   3.972390e-02   0.000000e+00
   1.438353e-01  -2.105820e-02   0.000000e+00
  -1.678178e-01  -2.763276e-01   0.000000e+00
  -2.551073e-02   1.269783e-01   0.000000e+00
   2.644517e-01  -1.688219e-01   0.000000e+00
   7.367250e-02   3.897428e-02   0.000000e+00
  -8.659431e-02   4.690345e-02   0.000000e+00
  -2.546494e-02  -5.330027e-02   0.000000e+00
  -8.687362e-02   1.153941e-01   0.000000e+00
   7.854849e-02  -1.078502e-01   0.000000e+00
  -2.221990e-02  -4.291549e-02   0.000000e+00
  -2.465406e-02  -4.625809e-02   0.000000e+00
   1.307854e-01   1.299316e-01   0.000000e+00
   4.564593e-02   1.366003e-01   0.000000e+00
   4.580304e-02  -2.525519e-02   0.000000e+00
   6.521745e-02  -9.886520e-02   0.000000e+00
   3.767308e-02  -5.330169e-02   0.000000e+00
   2.486961e-02  -5.604441e-03   0.000000e+00
   7.804530e-02   6.050680e-02   0.000000e+00
  -1.329669e-02  -3.587529e-04   0.000000e+00
   0.000000e+00   0.000000e+00   0.000000e+00
   1.221743e-01  -1.253372e-01   0.000000e+00
   3.338165e-02   1.453036e-01   0.000000e+00
   0.000000e+00   0.000000e+00   0.000000e+00
  -1.695675e-02   2.705749e-02   0.000000e+00
   1.063432e-01  -1.363007e-01   0.000000e+00
  -5.955210e-02  -1.761605e-01   0.000000e+00
   1.470500e-02  -1.386550e-02   0.000000e+00
  -1.128545e-01  -7.872895e-02   0.000000e+00
   1.066351e-01   1.674299e-02   0.000000e+00
   6.986729e-02   3.010352e-01   0.000000e+00
  -4.589255e-03   1.086571e-01   0.000000e+00
VECTORS Imag_Arrow_3.981000e+02(Hz) float
  -1.267312e-02  -4.154766e-02   0.000000e+00
  -4.668670e-02   4.152159e-02   0.000000e+00
  -9.284453e-03   2.952754e-02   0.000000e+00
  -2.055111e-02  -1.156776e-01   0.000000e+00
  -2.452619e-02  -5.828149e-02   0.000000e+00
  -1.463769e-02   1.762968e-02   0.000000e+00
   1.498999e-02  -2.373623e-02   0.000000e+00
  -6.350397e-02   4.651112e-02   0.000000e+00
   0.000000e+00   0.000000e+00   0.000000e+00
   2.788414e-02  -2.065765e-02   0.000000e+00
  -2.078497e-02   1.696329e-02   0.000000e+00
  -5.810280e-03  -8.663507e-03   0.000000e+00
   3.050205e-02   1.899624e-01   0.000000e+00
  -9.155122e-02   3.513230e-02   0.000000e+00
   2.590588e-02   4.368959e-03   0.000000e+00
   9.939178e-03   2.387583e-02   0.000000e+00
  -6.807027e-03  -4.649302e-02   0.000000e+00
   2.475147e-02   3.125351e-03   0.000000e+00
   3.717623e-02  -5.845601e-03   0.000000e+00
  -2.650987e-03  -1.790270e-03   0.000000e+00
  -1.955230e-02  -9.588296e-03   0.000000e+00
   2.610860e-02   1.329900e-02   0.000000e+00
   7.816140e-03  -5.669128e-03   0.000000e+00
  -3.340990e-02  -4.133594e-02   0.000000e+00
  -4.276206e-02   3.113670e-02   0.000000e+00
   1.391364e-02  -2.484159e-02   0.000000e+00
  -6.059852e-02   1.649042e-02   0.000000e+00
  -3.165178e-03   3.173189e-03   0.000000e+00
  -2.565688e-04   6.472647e-02   0.000000e+00
   3.980608e-03  -3.483267e-03   0.000000e+00
   6.865582e-03   2.562911e-02   0.000000e+00
  -1.724844e-02  -1.762077e-02   0.000000e+00
  -6.590460e-03   2.027788e-02   0.000000e+00
   8.584348e-02   1.218047e-01   0.000000e+00
   0.000000e+00   0.000000e+00   0.000000e+00
  -5.651733e-02  -4.368718e-02   0.000000e+00
  -8.043834e-03   5.600629e-02   0.000000e+00
   0.000000e+00   0.000000e+00   0.000000e+00
  -8.273014e-02  -6.226863e-02   0.000000e+00
  -2.651722e-02   6.380179e-02   0.000000e+00
   1.686611e-03   8.878033e-03   0.000000e+00
  -1.706005e-02   1.577149e-02   0.000000e+00
  -5.824506e-02  -2.657672e-03   0.000000e+00
  -5.431580e-02  -5.724167e-02   0.000000e+00
  -5.917097e-02   6.264287e-02   0.000000e+00
   1.240556e-02  -2.749416e-02   0.000000e+00
VECTORS Real_Arrow_6.309500e+02(Hz) float
  -3.375951e-02  -2.066508e-02   0.000000e+00
  -9.242653e-02   1.495613e-01   0.000000e+00
  -8.216910e-02   8.940316e-02   0.000000e+00
   7.109128e-02  -4.581674e-02   0.000000e+00
   2.960548e-02  -2.036673e-02   0.000000e+00
   2.970144e-02  -1.712503e-02   0.000000e+00
   1.760735e-02   3.627432e-02   0.000000e+00
   2.540966e-02  -3.232838e-03   0.000000e+00
   0.000000e+00   0.000000e+00   0.000000e+00
   3.106592e-02   1.201609e-02   0.000000e+00
  -2.869412e-02  -2.927587e-02   0.000000e+00
  -5.217078e-02   1.527924e-02   0.000000e+00
   3.695074e-02   1.406764e-01   0.000000e+00
   1.822670e-01   5.407126e-02   0.000000e+00
   1.626274e-02   3.765798e-02   0.000000e+00
   1.346004e-01  -2.798785e-02   0.000000e+00
  -1.676158e-01  -2.554286e-01   0.000000e+00
  -3.272682e-02   1.202878e-01   0.000000e+00
   2.436317e-01  -1.622455e-01   0.000000e+00
   7.646006e-02   4.067792e-02   0.000000e+00
  -7.954715e-02   4.890086e-02   0.000000e+00
  -3.747907e-02  -6.095021e-02   0.000000e+00
  -8.985668e-02   1.121303e-01   0.000000e+00
   8.735231e-02  -8.805447e-02   0.000000e+00
  -7.918745e-03  -3.789170e-02   0.000000e+00
  -2.952374e-02  -3.470046e-02   0.000000e+00
   1.492790e-01   1.156310e-01   0.000000e+00
   4.039116e-02   1.324220e-01   0.000000e+00
   4.031992e-02  -5.592560e-02   0.000000e+00
   6.632786e-02  -9.968084e-02   0.000000e+00
   2.990064e-02  -6.202173e-02   0.000000e+00
   2.061415e-02  -6.784953e-04   0.000000e+00
   7.842090e-02   5.476258e-02   0.000000e+00
  -3.689566e-02  -3.899327e-02   0.000000e+00
  -1.250168e-02  -1.256996e-02   0.000000e+00
   1.329096e-01  -1.105864e-01   0.000000e+00
   3.406218e-02   1.398078e-01   0.000000e+00
   0.000000e+00   0.000000e+00   0.000000e+00
   1.126687e-02   4.060364e-02   0.000000e+00
   1.137198e-01  -1.462524e-01   0.000000e+00
  -5.952601e-02  -1.753573e-01   0.000000e+00
   1.808188e-02  -1.993648e-02   0.000000e+00
  -8.551914e-02  -7.102579e-02   0.000000e+00
   1.231851e-01   3.611329e-02   0.000000e+00
   8.697857e-02   2.667900e-01   0.000000e+00
  -3.449370e-03   1.126943e-01   0.000000e+00
VECTORS Imag_Arrow_6.309500e+02(Hz) float
  -1.082340e-02  -3.463904e-02   0.000000e+00
  -4.799539e-02   4.876248e-02   0.000000e+00
  -2.007206e-02   3.413305e-02   0.000000e+00
  -1.863589e-02  -1.125427e-01   0.000000e+00
  -1.762510e-02  -4.716583e-02   0.000000e+00
  -2.174695e-02   1.882793e-02   0.000000e+00
   5.716243e-03  -7.803224e-03   0.000000e+00
  -5.888529e-02   4.794360e-02   0.000000e+00
   0.000000e+00   0.000000e+00   0.000000e+00
   2.537017e-02  -1.451787e-02   0.000000e+00
  -1.819706e-02   8.405434e-03   0.000000e+00
  -2.423200e-03  -1.372777e-02   0.000000e+00
   1.765290e-02   1.725408e-01   0.000000e+00
  -7.178318e-02   2.838476e-02   0.000000e+00
   2.423245e-02   7.218272e-03   0.000000e+00
   2.456294e-02   1.865417e-02   0.000000e+00
  -2.369172e-02  -7.461406e-02   0.000000e+00
   1.403124e-02   2.795362e-02   0.000000e+00
   3.993238e-02  -1.062832e-02   0.000000e+00
  -1.426255e-02   8.259914e-04   0.000000e+00
  -1.727147e-02  -6.652129e-03   0.000000e+00
   3.122054e-02   1.715346e-02   0.000000e+00
  -6.177449e-05   3.467902e-03   0.000000e+00
  -2.268946e-02  -4.924301e-02   0.000000e+00
  -4.246095e-02   5.833514e-03   0.000000e+00
   1.345260e-02  -2.781074e-02   0.000000e+00
  -4.865622e-02   4.012354e-02   0.000000e+00
  -3.397694e-03   1.561465e-02   0.000000e+00
   8.507644e-03   7.339637e-02   0.000000e+00
  -6.004343e-03   5.523683e-03   0.000000e+00
   3.884781e-03   2.653282e-02   0.000000e+00
   1.757014e-03  -1.826176e-02   0.000000e+00
  -1.230884e-02   2.366099e-02   0.000000e+00
   6.655576e-02   1.010027e-01   0.000000e+00
   4.936038e-02  -7.297751e-02   0.000000e+00
  -4.742425e-02  -3.597998e-02   0.000000e+00
  -1.782725e-02   4.851487e-02   0.000000e+00
   0.000000e+00   0.000000e+00   0.000000e+00
  -7.227229e-02  -4.191058e-02   0.000000e+00
  -2.246026e-02   6.155061e-02   0.000000e+00
  -9.214318e-03  -8.455850e-03   0.000000e+00
  -7.175219e-03   6.964057e-03   0.000000e+00
  -6.648371e-02  -1.144506e-02   0.000000e+00
  -5.383651e-02  -5.647064e-02   0.000000e+00
  -4.963406e-02   8.276320e-02   0.000000e+00
   1.416402e-02  -2.640666e-02   0.000000e+00
VECTORS Real_Arrow_1.000000e+03(Hz) float
  -2.957973e-02  -1.120429e-02   0.000000e+00
  -7.444723e-02   1.281891e-01   0.000000e+00
  -7.066463e-02   7.625717e-02   0.000000e+00
   7.824414e-02  -9.845515e-03   0.000000e+00
   3.278181e-02  -7.982935e-03   0.000000e+00
   3.696636e-02  -2.050623e-02   0.000000e+00
   2.009485e-02   3.025218e-02   0.000000e+00
   4.601014e-02  -2.080370e-02   0.000000e+00
   0.000000e+00   0.000000e+00   0.000000e+00
   2.335967e-02   1.421327e-02   0.000000e+00
  -2.537077e-02  -3.053135e-02   0.000000e+00
  -5.097052e-02   1.953835e-02   0.000000e+00
   3.383301e-02   9.161392e-02   0.000000e+00
   1.950697e-01   4.712990e-02   0.000000e+00
   0.000000e+00   0.000000e+00   0.000000e+00
   1.210684e-01  -3.273882e-02   0.000000e+00
  -1.596484e-01  -2.242207e-01   0.000000e+00
  -3.447930e-02   1.026917e-01   0.000000e+00
   0.000000e+00   0.000000e+00   0.000000e+00
   8.412765e-02   4.182671e-02   0.000000e+00
  -7.314668e-02   5.031068e-02   0.000000e+00
  -5.019376e-02  -6.944918e-02   0.000000e+00
  -8.765427e-02   1.067056e-01   0.000000e+00
   0.000000e+00   0.000000e+00   0.000000e+00
   5.276909e-03  -2.613308e-02   0.000000e+00
  -3.348456e-02  -2.345604e-02   0.000000e+00
   1.626884e-01   9.461529e-02   0.000000e+00
   3.636606e-02   1.259276e-01   0.000000e+00
   3.130449e-02  -8.514421e-02   0.000000e+00
   7.025369e-02  -1.049481e-01   0.000000e+00
   2.740626e-02  -7.080738e-02   0.000000e+00
   1.329962e-02   5.047855e-03   0.000000e+00
   0.000000e+00   0.000000e+00   0.000000e+00
  -5.357200e-02  -6.729976e-02   0.000000e+00
   0.000000e+00   0.000000e+00   0.000000e+00
   1.427185e-01  -9.768358e-02   0.000000e+00
   4.146910e-02   1.303937e-01   0.000000e+00
   0.000000e+00   0.000000e+00   0.000000e+00
   0.000000e+00   0.000000e+00   0.000000e+00
   1.186942e-01  -1.573791e-01   0.000000e+00
   0.000000e+00   0.000000e+00   0.000000e+00
   0.000000e+00   0.000000e+00   0.000000e+00
  -5.945065e-02  -6.213571e-02   0.000000e+00
   1.410460e-01   5.439277e-02   0.000000e+00
   9.837257e-02   2.290849e-01   0.000000e+00
  -5.695997e-03   1.190926e-01   0.000000e+00
VECTORS Imag_Arrow_1.000000e+03(Hz) float
  -8.235595e-03  -2.697511e-02   0.000000e+00
  -4.339078e-02   4.741968e-02   0.000000e+00
  -2.650092e-02   3.639721e-02   0.000000e+00
  -1.432873e-02  -1.068785e-01   0.000000e+00
  -1.123534e-02  -3.392247e-02   0.000000e+00
  -3.134855e-02   2.402105e-02   0.000000e+00
   2.366783e-03  -1.603725e-03   0.000000e+00
  -5.026409e-02   4.568535e-02   0.000000e+00
   0.000000e+00   0.000000e+00   0.000000e+00
   2.232916e-02  -9.639217e-03   0.000000e+00
  -1.700658e-02  -1.241683e-03   0.000000e+00
   2.748268e-03  -1.899971e-02   0.000000e+00
   4.607206e-03   1.541040e-01   0.000000e+00
  -5.901634e-02   1.838435e-02   0.000000e+00
   0.000000e+00   0.000000e+00   0.000000e+00
   3.540800e-02   1.308964e-02   0.000000e+00
  -4.522923e-02  -9.969447e-02   0.000000e+00
   3.541347e-03   4.682567e-02   0.000000e+00
   0.000000e+00   0.000000e+00   0.000000e+00
  -2.328221e-02   5.237774e-03   0.000000e+00
  -1.361961e-02  -3.823396e-03   0.000000e+00
   3.343438e-02   1.808750e-02   0.000000e+00
  -8.325208e-03   8.995299e-03   0.000000e+00
   0.000000e+00   0.000000e+00   0.000000e+00
  -4.078112e-02  -5.281168e-03   0.000000e+00
   1.295530e-02  -2.840510e-02   0.000000e+00
  -3.411096e-02   5.693610e-02   0.000000e+00
  -1.012858e-02   2.753253e-02   0.000000e+00
   1.168715e-02   6.971784e-02   0.000000e+00
  -1.410809e-02   1.197594e-02   0.000000e+00
  -3.115827e-03   2.653497e-02   0.000000e+00
   1.276877e-02  -2.046835e-02   0.000000e+00
   0.000000e+00   0.000000e+00   0.000000e+00
   4.678163e-02   7.690954e-02   0.000000e+00
   0.000000e+00   0.000000e+00   0.000000e+00
  -4.028646e-02  -2.610007e-02   0.000000e+00
  -2.515533e-02   4.979557e-02   0.000000e+00
   0.000000e+00   0.000000e+00   0.000000e+00
   0.000000e+00   0.000000e+00   0.000000e+00
  -1.825126e-02   6.475499e-02   0.000000e+00
   0.000000e+00   0.000000e+00   0.000000e+00
   0.000000e+00   0.000000e+00   0.000000e+00
  -6.691056e-02  -1.486906e-02   0.000000e+00
  -5.021312e-02  -5.469594e-02   0.000000e+00
  -4.007541e-02   9.131284e-02   0.000000e+00
   1.714469e-02  -2.466760e-02   0.000000e+00
