# vtk DataFile Version 2.0
Induction_Arrow_Iter2_PE5
ASCII
DATASET UNSTRUCTURED_GRID
POINTS 46 float
  -2.052000e+03    1.667000e+03   -4.526633e+02
  -1.265000e+03    2.333000e+03   -4.555885e+02
  -9.840000e+02    2.568000e+03   -4.612271e+02
   1.700000e+03   -1.757000e+03   -5.237752e+02
  -1.152000e+03    1.382000e+03   -4.549280e+02
   3.187000e+03    1.067000e+03   -8.370176e+02
   4.716000e+03    9.370000e+02   -8.015281e+02
  -1.855000e+03    5.260000e+02   -5.147377e+02
  -1.420000e+02   -1.905000e+03   -4.746368e+02
  -5.800000e+01    1.069000e+03   -4.555494e+02
  -2.802000e+03    3.302000e+03   -4.314337e+02
  -5.640000e+03   -1.532000e+03   -4.911771e+02
  -8.030000e+02   -5.610000e+02   -5.280929e+02
   1.008000e+03    4.130000e+02   -5.983358e+02
   1.960000e+02    2.246000e+03   -5.219413e+02
  -3.457000e+03    8.320000e+02   -4.470735e+02
   5.640000e+03    2.452000e+03   -7.393049e+02
  -1.334000e+03    3.332000e+03   -4.456136e+02
   1.244000e+03    1.880000e+03   -6.331107e+02
  -2.680000e+02    2.144000e+03   -4.891390e+02
  -4.063000e+03    6.620000e+02   -4.746103e+02
  -1.258000e+03    6.330000e+02   -4.856841e+02
  -2.141000e+03    3.194000e+03   -4.348461e+02
  -3.469000e+03   -3.059000e+03   -6.067613e+02
  -1.604000e+03   -2.570000e+02   -5.141257e+02
  -1.454000e+03    2.220000e+02   -5.386025e+02
   1.864000e+03    1.270000e+02   -7.404291e+02
   2.449000e+03    5.590000e+02   -7.805292e+02
  -1.834000e+03   -1.554000e+03   -6.273074e+02
   1.807000e+03    2.297000e+03   -6.825557e+02
  -2.560000e+03   -1.783000e+03   -6.131337e+02
  -2.741000e+03   -5.010000e+02   -5.080000e+02
   2.884000e+03   -2.179000e+03   -5.274708e+02
  -6.120000e+02   -8.960000e+02   -5.895389e+02
  -1.985000e+03   -2.653000e+03   -5.598834e+02
  -3.390000e+03   -4.000000e+02   -4.982361e+02
   1.586000e+03    1.342000e+03   -6.618442e+02
   1.047000e+03    2.401000e+03   -5.426792e+02
   8.380000e+02   -1.300000e+03   -4.783644e+02
   2.569000e+03    2.441000e+03   -6.035668e+02
  -2.028000e+03    2.833000e+03   -4.322286e+02
  -1.086000e+03    1.998000e+03   -4.563301e+02
   1.514000e+03   -3.332000e+03   -5.646205e+02
   7.040000e+02    1.116000e+03   -5.365099e+02
   1.990000e+03    6.360000e+02   -7.085272e+02
   3.722000e+03   -1.700000e+02   -6.745213e+02
CELLS 46 92
1 0
1 1
1 2
1 3
1 4
1 5
1 6
1 7
1 8
1 9
1 10
1 11
1 12
1 13
1 14
1 15
1 16
1 17
1 18
1 19
1 20
1 21
1 22
1 23
1 24
1 25
1 26
1 27
1 28
1 29
1 30
1 31
1 32
1 33
1 34
1 35
1 36
1 37
1 38
1 39
1 40
1 41
1 42
1 43
1 44
1 45
CELL_TYPES 46
1
1
1
1
1
1
1
1
1
1
1
1
1
1
1
1
1
1
1
1
1
1
1
1
1
1
1
1
1
1
1
1
1
1
1
1
1
1
1
1
1
1
1
1
1
1
POINT_DATA 46
VECTORS Real_Arrow_2.511800e+01(Hz) float
  -2.265687e-02  -1.298816e-01   0.000000e+00
  -7.526531e-02   1.059031e-01   0.000000e+00
   0.000000e+00   0.000000e+00   0.000000e+00
   4.358785e-02  -3.488199e-01   0.000000e+00
  -4.244009e-02  -1.386043e-01   0.000000e+00
  -3.054139e-02   2.443750e-02   0.000000e+00
   8.030738e-02  -1.144571e-01   0.000000e+00
  -3.089224e-02   9.659032e-02   0.000000e+00
   2.832450e-01  -1.811048e-01   0.000000e+00
   5.416486e-04  -5.550350e-02   0.000000e+00
  -1.252737e-01   2.214775e-02   0.000000e+00
  -7.798221e-02   4.410758e-02   0.000000e+00
   0.000000e+00   0.000000e+00   0.000000e+00
  -1.888061e-01   6.417855e-02   0.000000e+00
   6.070142e-02   1.907333e-02   0.000000e+00
   2.009416e-02   4.285452e-02   0.000000e+00
  -1.211438e-01  -1.787143e-01   0.000000e+00
   4.124129e-02   2.857223e-02   0.000000e+00
   2.269191e-01  -1.085870e-01   0.000000e+00
   1.040088e-01   1.218269e-02   0.000000e+00
  -1.205642e-01   1.689437e-02   0.000000e+00
  -6.988988e-02  -7.066407e-02   0.000000e+00
  -6.667107e-02   2.799055e-02   0.000000e+00
  -3.075761e-02  -1.159057e-01   0.000000e+00
   0.000000e+00   0.000000e+00   0.000000e+00
  -8.403899e-03   1.811322e-02   0.000000e+00
  -5.346532e-02   5.152943e-03   0.000000e+00
  -2.551835e-02   5.988638e-02   0.000000e+00
   3.005311e-03   2.087387e-02   0.000000e+00
   0.000000e+00   0.000000e+00   0.000000e+00
  -5.139466e-03  -3.725157e-03   0.000000e+00
  -1.305622e-01   1.048083e-02   0.000000e+00
   9.701503e-02   9.032365e-02   0.000000e+00
   2.551268e-01   2.624920e-01   0.000000e+00
   6.496320e-02  -1.622287e-01   0.000000e+00
  -1.628969e-01  -2.034535e-01   0.000000e+00
   0.000000e+00   0.000000e+00   0.000000e+00
   3.253269e-02   6.894314e-02   0.000000e+00
  -1.699834e-01  -2.759473e-01   0.000000e+00
   4.449817e-02   1.353980e-01   0.000000e+00
  -4.105801e-02  -9.299684e-02   0.000000e+00
  -9.329139e-03  -5.594301e-03   0.000000e+00
  -8.464629e-02   1.977762e-02   0.000000e+00
  -7.148354e-02  -5.257016e-02   0.000000e+00
  -9.384951e-02   2.048684e-01   0.000000e+00
   9.424058e-02  -2.327079e-02   0.000000e+00
VECTORS Imag_Arrow_2.511800e+01(Hz) float
  -1.685635e-02   5.364662e-03   0.000000e+00
   1.292160e-02  -5.783805e-02   0.000000e+00
   0.000000e+00   0.000000e+00   0.000000e+00
  -3.259304e-02  -1.622574e-01   0.000000e+00
  -6.576679e-02   1.134430e-02   0.000000e+00
  -4.386461e-02  -2.245431e-02   0.000000e+00
   9.931819e-03  -5.872089e-02   0.000000e+00
  -4.050761e-02   2.079380e-02   0.000000e+00
   3.370650e-02   5.446620e-03   0.000000e+00
  -1.348221e-01  -3.095137e-02   0.000000e+00
  -6.735660e-02   3.822728e-02   0.000000e+00
  -6.968152e-02   1.027225e-02   0.000000e+00
   0.000000e+00   0.000000e+00   0.000000e+00
  -1.857001e-01  -9.773250e-02   0.000000e+00
  -6.840929e-02  -3.551877e-03   0.000000e+00
  -1.465999e-01  -4.856631e-03   0.000000e+00
   4.931914e-02   1.041629e-01   0.000000e+00
   2.571125e-04  -1.569368e-02   0.000000e+00
  -1.568317e-01   7.299953e-02   0.000000e+00
  -7.019918e-02  -7.702942e-03   0.000000e+00
  -1.304450e-02  -2.851695e-02   0.000000e+00
  -9.907726e-02   4.805850e-03   0.000000e+00
  -1.261011e-02  -1.460652e-02   0.000000e+00
  -9.695643e-02   9.988534e-03   0.000000e+00
   0.000000e+00   0.000000e+00   0.000000e+00
  -6.504950e-02   4.559082e-02   0.000000e+00
  -9.585229e-02  -1.319525e-01   0.000000e+00
  -6.103413e-02  -1.037210e-01   0.000000e+00
  -4.480892e-02   1.225119e-03   0.000000e+00
   0.000000e+00   0.000000e+00   0.000000e+00
  -6.163457e-02   1.693120e-02   0.000000e+00
  -1.086064e-01   2.416629e-03   0.000000e+00
   4.017725e-02  -6.896353e-03   0.000000e+00
   2.772565e-02  -3.957504e-02   0.000000e+00
  -3.340455e-02   3.299799e-02   0.000000e+00
  -2.112872e-01   8.915364e-03   0.000000e+00
   0.000000e+00   0.000000e+00   0.000000e+00
  -6.545353e-02  -7.706460e-03   0.000000e+00
  -5.577144e-02  -2.028839e-01   0.000000e+00
  -8.266029e-02   1.993378e-01   0.000000e+00
  -1.446143e-02   6.250121e-02   0.000000e+00
  -4.021131e-02   2.258724e-03   0.000000e+00
   7.210488e-02   5.488114e-02   0.000000e+00
  -1.523765e-01  -2.190581e-02   0.000000e+00
  -8.336611e-02  -1.718283e-01   0.000000e+00
   3.192497e-02  -1.197470e-01   0.000000e+00
VECTORS Real_Arrow_3.981000e+01(Hz) float
  -3.457258e-02  -1.280308e-01   0.000000e+00
  -1.036169e-01   1.376007e-01   0.000000e+00
  -4.526625e-02   9.719836e-02   0.000000e+00
   5.013384e-02  -2.853166e-01   0.000000e+00
  -3.103657e-02  -1.420468e-01   0.000000e+00
  -7.336409e-03   2.657039e-02   0.000000e+00
   7.807501e-02  -9.205459e-02   0.000000e+00
   0.000000e+00   0.000000e+00   0.000000e+00
   2.491330e-01  -1.956635e-01   0.000000e+00
   5.631114e-02  -4.336188e-02   0.000000e+00
  -9.517633e-02   1.306510e-02   0.000000e+00
  -6.338027e-02   2.998948e-02   0.000000e+00
   0.000000e+00   0.000000e+00   0.000000e+00
  -1.045497e-01   9.983260e-02   0.000000e+00
   7.630215e-02   2.309164e-02   0.000000e+00
   8.173743e-02   3.974041e-02   0.000000e+00
  -1.323986e-01  -2.207081e-01   0.000000e+00
   3.280775e-02   4.403590e-02   0.000000e+00
   0.000000e+00   0.000000e+00   0.000000e+00
   1.172416e-01   2.000079e-02   0.000000e+00
  -1.154975e-01   2.415054e-02   0.000000e+00
  -3.318545e-02  -7.559560e-02   0.000000e+00
  -6.557715e-02   4.376969e-02   0.000000e+00
  -4.674219e-03  -1.218461e-01   0.000000e+00
   0.000000e+00   0.000000e+00   0.000000e+00
   5.998156e-03  -1.538432e-02   0.000000e+00
  -1.178191e-02   5.228283e-02   0.000000e+00
   3.564223e-03   9.239601e-02   0.000000e+00
   0.000000e+00   0.000000e+00   0.000000e+00
   1.192550e-01  -1.175030e-01   0.000000e+00
   1.374675e-02  -1.753669e-02   0.000000e+00
  -9.173136e-02  -1.412890e-03   0.000000e+00
   0.000000e+00   0.000000e+00   0.000000e+00
   2.206515e-01   2.610695e-01   0.000000e+00
   7.172885e-02  -1.818815e-01   0.000000e+00
  -6.529802e-02  -2.066630e-01   0.000000e+00
   0.000000e+00   0.000000e+00   0.000000e+00
   4.558279e-02   7.054484e-02   0.000000e+00
  -1.484690e-01  -1.815086e-01   0.000000e+00
   6.149466e-02   5.780583e-02   0.000000e+00
  -4.140912e-02  -1.052692e-01   0.000000e+00
  -1.326278e-02  -6.538122e-04   0.000000e+00
  -1.143805e-01  -1.185730e-02   0.000000e+00
  -1.038353e-02  -4.567188e-02   0.000000e+00
  -5.579650e-02   2.652805e-01   0.000000e+00
   7.584766e-02   1.697203e-02   0.000000e+00
VECTORS Imag_Arrow_3.981000e+01(Hz) float
   6.144695e-03  -2.015229e-02   0.000000e+00
   3.885096e-02  -6.987595e-02   0.000000e+00
   3.149295e-02  -4.426166e-02   0.000000e+00
  -1.996635e-02  -1.646328e-01   0.000000e+00
  -4.912206e-02  -1.136394e-02   0.000000e+00
  -4.822373e-02  -2.208976e-03   0.000000e+00
   1.870437e-02  -7.387714e-02   0.000000e+00
   0.000000e+00   0.000000e+00   0.000000e+00
   8.092427e-02  -2.678948e-04   0.000000e+00
  -1.054737e-01  -3.510169e-02   0.000000e+00
  -6.901829e-02   2.998355e-02   0.000000e+00
  -4.724018e-02   1.721369e-02   0.000000e+00
   0.000000e+00   0.000000e+00   0.000000e+00
  -2.068406e-01  -6.732167e-02   0.000000e+00
  -2.982030e-02  -1.173999e-02   0.000000e+00
  -1.300642e-01   1.244261e-02   0.000000e+00
   3.925397e-02   9.405852e-02   0.000000e+00
   1.365897e-02  -3.503929e-02   0.000000e+00
   0.000000e+00   0.000000e+00   0.000000e+00
  -3.087823e-02  -1.563121e-02   0.000000e+00
  -1.741430e-02  -2.711212e-02   0.000000e+00
  -8.227336e-02  -4.233451e-03   0.000000e+00
  -8.067626e-03  -3.883726e-02   0.000000e+00
  -8.349724e-02   1.165939e-02   0.000000e+00
   0.000000e+00   0.000000e+00   0.000000e+00
  -3.267346e-02   5.973641e-02   0.000000e+00
  -1.032304e-01  -1.131723e-01   0.000000e+00
  -6.144034e-02  -8.207568e-02   0.000000e+00
   0.000000e+00   0.000000e+00   0.000000e+00
  -3.441817e-02   3.450572e-02   0.000000e+00
  -5.225912e-02   2.216890e-02   0.000000e+00
  -1.058071e-01   1.420165e-02   0.000000e+00
   0.000000e+00   0.000000e+00   0.000000e+00
   8.695507e-02   3.104659e-02   0.000000e+00
  -1.318232e-02   5.909041e-03   0.000000e+00
  -2.188942e-01  -3.777635e-03   0.000000e+00
   0.000000e+00   0.000000e+00   0.000000e+00
  -1.376952e-02   1.619144e-03   0.000000e+00
  -6.482856e-02  -2.101184e-01   0.000000e+00
  -5.791745e-02   2.025860e-01   0.000000e+00
  -5.830160e-03   5.564137e-02   0.000000e+00
  -1.762776e-02  -4.437515e-03   0.000000e+00
   6.229382e-02   6.310184e-02   0.000000e+00
  -1.425833e-01  -2.475525e-02   0.000000e+00
  -9.215442e-02  -1.394459e-01   0.000000e+00
   5.182613e-02  -1.084306e-01   0.000000e+00
VECTORS Real_Arrow_6.309500e+01(Hz) float
  -5.149192e-02  -1.116498e-01   0.000000e+00
  -1.384121e-01   1.754983e-01   0.000000e+00
  -7.039621e-02   1.223926e-01   0.000000e+00
   4.860948e-02  -2.287834e-01   0.000000e+00
  -2.539045e-02  -1.327855e-01   0.000000e+00
   1.399226e-02   1.899866e-02   0.000000e+00
   6.933275e-02  -6.072439e-02   0.000000e+00
   0.000000e+00   0.000000e+00   0.000000e+00
   0.000000e+00   0.000000e+00   0.000000e+00
   8.856940e-02  -3.039199e-02   0.000000e+00
  -6.878221e-02   9.003260e-03   0.000000e+00
  -5.717583e-02   1.695384e-02   0.000000e+00
   0.000000e+00   0.000000e+00   0.000000e+00
  -2.134479e-02   1.148776e-01   0.000000e+00
   7.006731e-02   3.296475e-02   0.000000e+00
   1.253397e-01   2.894228e-02   0.000000e+00
  -1.414180e-01  -2.545291e-01   0.000000e+00
   2.483080e-02   6.348162e-02   0.000000e+00
   0.000000e+00   0.000000e+00   0.000000e+00
   1.094515e-01   3.091002e-02   0.000000e+00
  -1.078652e-01   3.336580e-02   0.000000e+00
  -4.266168e-03  -6.921830e-02   0.000000e+00
  -6.192586e-02   7.024235e-02   0.000000e+00
   0.000000e+00   0.000000e+00   0.000000e+00
   0.000000e+00   0.000000e+00   0.000000e+00
   3.612705e-03  -5.159354e-02   0.000000e+00
   2.681666e-02   8.615042e-02   0.000000e+00
   2.824275e-02   1.122778e-01   0.000000e+00
   0.000000e+00   0.000000e+00   0.000000e+00
   1.165428e-01  -1.327288e-01   0.000000e+00
   3.031040e-02  -2.716910e-02   0.000000e+00
  -5.619286e-02  -1.580883e-02   0.000000e+00
   7.925474e-02   8.320852e-02   0.000000e+00
   1.650635e-01   2.279830e-01   0.000000e+00
   0.000000e+00   0.000000e+00   0.000000e+00
   2.291486e-02  -2.034698e-01   0.000000e+00
   4.359615e-02   3.150199e-01   0.000000e+00
   0.000000e+00   0.000000e+00   0.000000e+00
  -1.272365e-01  -9.953684e-02   0.000000e+00
   6.617110e-02  -1.937017e-02   0.000000e+00
  -4.032690e-02  -1.188406e-01   0.000000e+00
  -2.308248e-02   7.719069e-03   0.000000e+00
  -1.388890e-01  -4.043029e-02   0.000000e+00
   3.707252e-02  -3.980660e-02   0.000000e+00
  -2.065976e-02   3.070135e-01   0.000000e+00
   4.683363e-02   5.075491e-02   0.000000e+00
VECTORS Imag_Arrow_6.309500e+01(Hz) float
   8.789958e-03  -4.069839e-02   0.000000e+00
   3.479395e-02  -6.176891e-02   0.000000e+00
   3.318247e-02  -3.250837e-02   0.000000e+00
  -1.336565e-02  -1.544436e-01   0.000000e+00
  -4.490644e-02  -3.435848e-02   0.000000e+00
  -4.267943e-02   1.327430e-02   0.000000e+00
   2.733520e-02  -8.430155e-02   0.000000e+00
   0.000000e+00   0.000000e+00   0.000000e+00
   0.000000e+00   0.000000e+00   0.000000e+00
  -5.926236e-02  -3.689928e-02   0.000000e+00
  -5.801808e-02   2.461616e-02   0.000000e+00
  -2.775595e-02   1.662056e-02   0.000000e+00
   0.000000e+00   0.000000e+00   0.000000e+00
  -2.008749e-01  -2.997107e-02   0.000000e+00
   4.208470e-04  -1.436191e-02   0.000000e+00
  -9.413298e-02   2.701100e-02   0.000000e+00
   3.176113e-02   7.275406e-02   0.000000e+00
   2.293080e-02  -4.348322e-02   0.000000e+00
   0.000000e+00   0.000000e+00   0.000000e+00
  -1.907668e-03  -1.522497e-02   0.000000e+00
  -1.954810e-02  -2.407306e-02   0.000000e+00
  -5.573819e-02  -1.546463e-02   0.000000e+00
  -2.362119e-03  -4.909960e-02   0.000000e+00
   0.000000e+00   0.000000e+00   0.000000e+00
   0.000000e+00   0.000000e+00   0.000000e+00
  -7.763673e-03   5.132498e-02   0.000000e+00
  -9.841859e-02  -8.837021e-02   0.000000e+00
  -5.085513e-02  -6.020295e-02   0.000000e+00
   0.000000e+00   0.000000e+00   0.000000e+00
  -1.159613e-04   1.397026e-02   0.000000e+00
  -4.054031e-02   2.137065e-02   0.000000e+00
  -9.943547e-02   1.420625e-02   0.000000e+00
   1.741803e-02   9.389727e-03   0.000000e+00
   1.199847e-01   9.040769e-02   0.000000e+00
   0.000000e+00   0.000000e+00   0.000000e+00
  -1.924660e-01  -1.734326e-02   0.000000e+00
  -7.096211e-02   4.516796e-02   0.000000e+00
   0.000000e+00   0.000000e+00   0.000000e+00
  -7.263641e-02  -1.828833e-01   0.000000e+00
  -4.452968e-02   1.874169e-01   0.000000e+00
   1.392645e-03   5.706348e-02   0.000000e+00
  -1.617752e-02  -2.445969e-03   0.000000e+00
   4.350508e-02   5.932869e-02   0.000000e+00
  -1.190340e-01  -2.750487e-02   0.000000e+00
  -8.891516e-02  -9.799880e-02   0.000000e+00
   6.155337e-02  -9.362842e-02   0.000000e+00
