# vtk DataFile Version 2.0
Induction_Arrow_Iter8_PE3
ASCII
DATASET UNSTRUCTURED_GRID
POINTS 46 float
  -2.052000e+03    1.667000e+03   -4.526633e+02
  -1.265000e+03    2.333000e+03   -4.555885e+02
  -9.840000e+02    2.568000e+03   -4.612271e+02
   1.700000e+03   -1.757000e+03   -5.237752e+02
  -1.152000e+03    1.382000e+03   -4.549280e+02
   3.187000e+03    1.067000e+03   -8.370176e+02
   4.716000e+03    9.370000e+02   -8.015281e+02
  -1.855000e+03    5.260000e+02   -5.147377e+02
  -1.420000e+02   -1.905000e+03   -4.746368e+02
  -5.800000e+01    1.069000e+03   -4.555494e+02
  -2.802000e+03    3.302000e+03   -4.314337e+02
  -5.640000e+03   -1.532000e+03   -4.911771e+02
  -8.030000e+02   -5.610000e+02   -5.280929e+02
   1.008000e+03    4.130000e+02   -5.983358e+02
   1.960000e+02    2.246000e+03   -5.219413e+02
  -3.457000e+03    8.320000e+02   -4.470735e+02
   5.640000e+03    2.452000e+03   -7.393049e+02
  -1.334000e+03    3.332000e+03   -4.456136e+02
   1.244000e+03    1.880000e+03   -6.331107e+02
  -2.680000e+02    2.144000e+03   -4.891390e+02
  -4.063000e+03    6.620000e+02   -4.746103e+02
  -1.258000e+03    6.330000e+02   -4.856841e+02
  -2.141000e+03    3.194000e+03   -4.348461e+02
  -3.469000e+03   -3.059000e+03   -6.067613e+02
  -1.604000e+03   -2.570000e+02   -5.141257e+02
  -1.454000e+03    2.220000e+02   -5.386025e+02
   1.864000e+03    1.270000e+02   -7.404291e+02
   2.449000e+03    5.590000e+02   -7.805292e+02
  -1.834000e+03   -1.554000e+03   -6.273074e+02
   1.807000e+03    2.297000e+03   -6.825557e+02
  -2.560000e+03   -1.783000e+03   -6.131337e+02
  -2.741000e+03   -5.010000e+02   -5.080000e+02
   2.884000e+03   -2.179000e+03   -5.274708e+02
  -6.120000e+02   -8.960000e+02   -5.895389e+02
  -1.985000e+03   -2.653000e+03   -5.598834e+02
  -3.390000e+03   -4.000000e+02   -4.982361e+02
   1.586000e+03    1.342000e+03   -6.618442e+02
   1.047000e+03    2.401000e+03   -5.426792e+02
   8.380000e+02   -1.300000e+03   -4.783644e+02
   2.569000e+03    2.441000e+03   -6.035668e+02
  -2.028000e+03    2.833000e+03   -4.322286e+02
  -1.086000e+03    1.998000e+03   -4.563301e+02
   1.514000e+03   -3.332000e+03   -5.646205e+02
   7.040000e+02    1.116000e+03   -5.365099e+02
   1.990000e+03    6.360000e+02   -7.085272e+02
   3.722000e+03   -1.700000e+02   -6.745213e+02
CELLS 46 92
1 0
1 1
1 2
1 3
1 4
1 5
1 6
1 7
1 8
1 9
1 10
1 11
1 12
1 13
1 14
1 15
1 16
1 17
1 18
1 19
1 20
1 21
1 22
1 23
1 24
1 25
1 26
1 27
1 28
1 29
1 30
1 31
1 32
1 33
1 34
1 35
1 36
1 37
1 38
1 39
1 40
1 41
1 42
1 43
1 44
1 45
CELL_TYPES 46
1
1
1
1
1
1
1
1
1
1
1
1
1
1
1
1
1
1
1
1
1
1
1
1
1
1
1
1
1
1
1
1
1
1
1
1
1
1
1
1
1
1
1
1
1
1
POINT_DATA 46
VECTORS Real_Arrow_1.584800e+00(Hz) float
  -1.654672e-01  -6.565397e-02   0.000000e+00
  -2.095665e-01   3.876582e-02   0.000000e+00
   0.000000e+00   0.000000e+00   0.000000e+00
   0.000000e+00   0.000000e+00   0.000000e+00
  -1.934328e-01  -8.052066e-02   0.000000e+00
  -2.528302e-02  -9.841293e-02   0.000000e+00
   8.591289e-02  -1.516722e-01   0.000000e+00
  -2.051929e-01  -1.263398e-02   0.000000e+00
   0.000000e+00   0.000000e+00   0.000000e+00
  -1.923342e-01  -9.461687e-02   0.000000e+00
  -2.362116e-01   7.709314e-02   0.000000e+00
  -3.067385e-01  -9.989983e-02   0.000000e+00
   0.000000e+00   0.000000e+00   0.000000e+00
  -2.319233e-01  -1.336993e-01   0.000000e+00
   0.000000e+00   0.000000e+00   0.000000e+00
   0.000000e+00   0.000000e+00   0.000000e+00
   4.166414e-03  -6.796439e-02   0.000000e+00
   0.000000e+00   0.000000e+00   0.000000e+00
   0.000000e+00   0.000000e+00   0.000000e+00
   0.000000e+00   0.000000e+00   0.000000e+00
   0.000000e+00   0.000000e+00   0.000000e+00
  -2.242610e-01  -8.779058e-02   0.000000e+00
  -1.761059e-01   5.992151e-02   0.000000e+00
   0.000000e+00   0.000000e+00   0.000000e+00
   0.000000e+00   0.000000e+00   0.000000e+00
   0.000000e+00   0.000000e+00   0.000000e+00
  -9.721365e-02  -1.928946e-01   0.000000e+00
  -5.607325e-02  -1.432768e-01   0.000000e+00
  -1.075497e-01  -6.884482e-02   0.000000e+00
  -7.430030e-02  -9.237484e-02   0.000000e+00
  -1.180093e-01  -6.219359e-02   0.000000e+00
  -2.267697e-01  -6.652845e-02   0.000000e+00
   5.899442e-02  -4.221719e-02   0.000000e+00
   5.806964e-03  -6.333347e-02   0.000000e+00
   0.000000e+00   0.000000e+00   0.000000e+00
   0.000000e+00   0.000000e+00   0.000000e+00
  -1.725354e-01   2.658647e-03   0.000000e+00
  -1.576730e-01  -4.627230e-03   0.000000e+00
  -1.654374e-01  -3.619884e-01   0.000000e+00
  -1.365759e-01   2.456068e-01   0.000000e+00
   0.000000e+00   0.000000e+00   0.000000e+00
  -1.805170e-01  -9.989792e-03   0.000000e+00
   0.000000e+00   0.000000e+00   0.000000e+00
  -2.123890e-01  -9.267915e-02   0.000000e+00
   0.000000e+00   0.000000e+00   0.000000e+00
   0.000000e+00   0.000000e+00   0.000000e+00
VECTORS Imag_Arrow_1.584800e+00(Hz) float
  -3.069144e-03  -3.863817e-03   0.000000e+00
   6.204254e-03  -6.357339e-02   0.000000e+00
   0.000000e+00   0.000000e+00   0.000000e+00
   0.000000e+00   0.000000e+00   0.000000e+00
   1.323714e-02  -7.690857e-03   0.000000e+00
   4.116612e-02  -4.552309e-02   0.000000e+00
   1.835396e-02  -9.791782e-03   0.000000e+00
   1.069006e-02  -6.331743e-02   0.000000e+00
   0.000000e+00   0.000000e+00   0.000000e+00
   2.333217e-02  -2.609010e-02   0.000000e+00
  -2.007655e-03  -4.280767e-02   0.000000e+00
   1.166798e-02  -2.913499e-02   0.000000e+00
   0.000000e+00   0.000000e+00   0.000000e+00
   8.927893e-02  -4.238677e-02   0.000000e+00
   0.000000e+00   0.000000e+00   0.000000e+00
   0.000000e+00   0.000000e+00   0.000000e+00
   5.991836e-02  -5.212390e-03   0.000000e+00
   0.000000e+00   0.000000e+00   0.000000e+00
   0.000000e+00   0.000000e+00   0.000000e+00
   0.000000e+00   0.000000e+00   0.000000e+00
   0.000000e+00   0.000000e+00   0.000000e+00
   2.776381e-02  -2.162366e-02   0.000000e+00
  -1.643351e-02  -4.692704e-02   0.000000e+00
   0.000000e+00   0.000000e+00   0.000000e+00
   0.000000e+00   0.000000e+00   0.000000e+00
   0.000000e+00   0.000000e+00   0.000000e+00
   4.719574e-02  -2.584964e-02   0.000000e+00
   3.869686e-02  -4.456730e-02   0.000000e+00
   8.540184e-03  -3.174410e-02   0.000000e+00
   1.210171e-02  -5.805704e-03   0.000000e+00
   1.218369e-02  -2.360832e-02   0.000000e+00
   5.093406e-02  -1.700162e-02   0.000000e+00
  -5.151824e-02  -8.133475e-02   0.000000e+00
  -5.760531e-02  -9.054897e-02   0.000000e+00
   0.000000e+00   0.000000e+00   0.000000e+00
   0.000000e+00   0.000000e+00   0.000000e+00
   5.092153e-02  -9.674890e-02   0.000000e+00
   2.914293e-02  -5.146750e-02   0.000000e+00
   6.801225e-02   4.768252e-02   0.000000e+00
   2.102965e-02  -1.279124e-01   0.000000e+00
   0.000000e+00   0.000000e+00   0.000000e+00
  -8.084377e-04  -4.046020e-02   0.000000e+00
   0.000000e+00   0.000000e+00   0.000000e+00
   5.244762e-02  -2.751222e-02   0.000000e+00
   0.000000e+00   0.000000e+00   0.000000e+00
   0.000000e+00   0.000000e+00   0.000000e+00
VECTORS Real_Arrow_2.511800e+00(Hz) float
  -1.604891e-01  -6.304189e-02   0.000000e+00
  -2.047969e-01   6.416146e-02   0.000000e+00
   0.000000e+00   0.000000e+00   0.000000e+00
  -3.906383e-02  -4.747664e-01   0.000000e+00
  -1.950589e-01  -7.537437e-02   0.000000e+00
  -3.427828e-02  -8.031810e-02   0.000000e+00
   8.680900e-02  -1.483701e-01   0.000000e+00
  -2.078009e-01   1.284405e-02   0.000000e+00
   9.737263e-02  -1.889274e-01   0.000000e+00
  -1.993165e-01  -8.349056e-02   0.000000e+00
  -2.272837e-01   9.697548e-02   0.000000e+00
  -3.148764e-01  -9.002445e-02   0.000000e+00
   0.000000e+00   0.000000e+00   0.000000e+00
  -2.647094e-01  -1.207132e-01   0.000000e+00
  -1.378545e-01   2.899166e-02   0.000000e+00
   0.000000e+00   0.000000e+00   0.000000e+00
  -6.635152e-03  -6.141747e-02   0.000000e+00
   0.000000e+00   0.000000e+00   0.000000e+00
   0.000000e+00   0.000000e+00   0.000000e+00
   0.000000e+00   0.000000e+00   0.000000e+00
   0.000000e+00   0.000000e+00   0.000000e+00
  -2.331944e-01  -7.836984e-02   0.000000e+00
  -1.607135e-01   8.065207e-02   0.000000e+00
  -1.958399e-01  -1.245988e-01   0.000000e+00
   0.000000e+00   0.000000e+00   0.000000e+00
   0.000000e+00   0.000000e+00   0.000000e+00
  -1.108095e-01  -1.876429e-01   0.000000e+00
  -6.507497e-02  -1.293037e-01   0.000000e+00
  -1.107391e-01  -5.681539e-02   0.000000e+00
  -7.636162e-02  -9.159145e-02   0.000000e+00
  -1.244841e-01  -5.289328e-02   0.000000e+00
  -2.490395e-01  -6.342552e-02   0.000000e+00
   1.031801e-01   6.865573e-04   0.000000e+00
   3.044643e-02  -3.121714e-02   0.000000e+00
  -6.823586e-02  -1.058003e-01   0.000000e+00
   0.000000e+00   0.000000e+00   0.000000e+00
  -1.899678e-01   3.772914e-02   0.000000e+00
  -1.659644e-01   1.433371e-02   0.000000e+00
  -1.867205e-01  -3.874271e-01   0.000000e+00
  -1.439471e-01   3.206806e-01   0.000000e+00
   0.000000e+00   0.000000e+00   0.000000e+00
  -1.754078e-01   8.114192e-03   0.000000e+00
   0.000000e+00   0.000000e+00   0.000000e+00
  -2.308831e-01  -8.048787e-02   0.000000e+00
   0.000000e+00   0.000000e+00   0.000000e+00
   0.000000e+00   0.000000e+00   0.000000e+00
VECTORS Imag_Arrow_2.511800e+00(Hz) float
  -3.044536e-02   4.563097e-03   0.000000e+00
  -2.673837e-02  -6.205121e-02   0.000000e+00
   0.000000e+00   0.000000e+00   0.000000e+00
  -1.180820e-02   3.170470e-02   0.000000e+00
  -1.831703e-02  -4.960123e-04   0.000000e+00
   3.210424e-02  -5.713641e-02   0.000000e+00
   1.365138e-02  -1.460788e-02   0.000000e+00
  -2.422500e-02  -7.473206e-02   0.000000e+00
  -9.827629e-02  -6.959027e-03   0.000000e+00
  -1.154840e-02  -2.820744e-02   0.000000e+00
  -3.084840e-02  -2.653674e-02   0.000000e+00
  -4.341373e-02  -6.892086e-02   0.000000e+00
   0.000000e+00   0.000000e+00   0.000000e+00
   6.728562e-02  -6.141352e-02   0.000000e+00
  -3.970158e-02  -4.077284e-02   0.000000e+00
   0.000000e+00   0.000000e+00   0.000000e+00
   6.228379e-02   8.341291e-03   0.000000e+00
   0.000000e+00   0.000000e+00   0.000000e+00
   0.000000e+00   0.000000e+00   0.000000e+00
   0.000000e+00   0.000000e+00   0.000000e+00
   0.000000e+00   0.000000e+00   0.000000e+00
  -4.836078e-03  -2.362968e-02   0.000000e+00
  -4.383672e-02  -3.406879e-02   0.000000e+00
   8.372114e-04   6.315612e-03   0.000000e+00
   0.000000e+00   0.000000e+00   0.000000e+00
   0.000000e+00   0.000000e+00   0.000000e+00
   2.938719e-02  -4.747199e-02   0.000000e+00
   2.416047e-02  -6.549413e-02   0.000000e+00
  -1.692766e-02  -4.317226e-02   0.000000e+00
  -1.992480e-02  -5.893329e-03   0.000000e+00
  -1.265917e-02  -3.316668e-02   0.000000e+00
   2.852457e-02  -2.679538e-02   0.000000e+00
  -7.328681e-02  -9.752777e-02   0.000000e+00
  -9.398849e-02  -1.219517e-01   0.000000e+00
  -2.976112e-02   3.698447e-03   0.000000e+00
   0.000000e+00   0.000000e+00   0.000000e+00
   2.384826e-02  -1.181483e-01   0.000000e+00
  -6.144953e-03  -5.020840e-02   0.000000e+00
   4.973844e-02   3.316551e-02   0.000000e+00
  -1.338238e-02  -9.739602e-02   0.000000e+00
   0.000000e+00   0.000000e+00   0.000000e+00
  -3.498955e-02  -3.541223e-02   0.000000e+00
   0.000000e+00   0.000000e+00   0.000000e+00
   2.022449e-02  -2.934025e-02   0.000000e+00
   0.000000e+00   0.000000e+00   0.000000e+00
   0.000000e+00   0.000000e+00   0.000000e+00
VECTORS Real_Arrow_3.981000e+00(Hz) float
  -1.413831e-01  -6.442603e-02   0.000000e+00
  -1.822870e-01   8.710737e-02   0.000000e+00
   0.000000e+00   0.000000e+00   0.000000e+00
  -2.670219e-02  -4.904307e-01   0.000000e+00
  -1.816701e-01  -7.386956e-02   0.000000e+00
  -4.437546e-02  -5.579907e-02   0.000000e+00
   8.475909e-02  -1.435267e-01   0.000000e+00
  -1.912766e-01   4.757766e-02   0.000000e+00
   1.478560e-01  -1.824147e-01   0.000000e+00
  -1.913019e-01  -7.182207e-02   0.000000e+00
  -2.044391e-01   1.075242e-01   0.000000e+00
  -2.811461e-01  -4.274768e-02   0.000000e+00
   0.000000e+00   0.000000e+00   0.000000e+00
  -2.933207e-01  -9.835981e-02   0.000000e+00
  -1.151756e-01   4.443193e-02   0.000000e+00
   0.000000e+00   0.000000e+00   0.000000e+00
  -2.459224e-02  -6.054548e-02   0.000000e+00
   0.000000e+00   0.000000e+00   0.000000e+00
  -4.321707e-02  -3.534909e-02   0.000000e+00
   0.000000e+00   0.000000e+00   0.000000e+00
   0.000000e+00   0.000000e+00   0.000000e+00
  -2.267847e-01  -6.667810e-02   0.000000e+00
  -1.309215e-01   9.296006e-02   0.000000e+00
  -1.959444e-01  -1.239545e-01   0.000000e+00
   0.000000e+00   0.000000e+00   0.000000e+00
   0.000000e+00   0.000000e+00   0.000000e+00
  -1.203534e-01  -1.718996e-01   0.000000e+00
  -7.157323e-02  -1.048293e-01   0.000000e+00
  -9.865107e-02  -3.698516e-02   0.000000e+00
  -6.335086e-02  -8.865810e-02   0.000000e+00
   0.000000e+00   0.000000e+00   0.000000e+00
  -2.616597e-01  -5.252841e-02   0.000000e+00
   1.542080e-01   4.936909e-02   0.000000e+00
   7.808740e-02   1.955938e-02   0.000000e+00
  -5.011996e-02  -1.019087e-01   0.000000e+00
   0.000000e+00   0.000000e+00   0.000000e+00
   0.000000e+00   0.000000e+00   0.000000e+00
  -1.579967e-01   3.168002e-02   0.000000e+00
  -2.013008e-01  -4.082542e-01   0.000000e+00
  -1.347323e-01   3.705426e-01   0.000000e+00
  -1.160337e-01   2.495330e-02   0.000000e+00
  -1.529500e-01   2.325347e-02   0.000000e+00
   0.000000e+00   0.000000e+00   0.000000e+00
  -2.372499e-01  -6.799720e-02   0.000000e+00
  -1.392215e-01  -4.886257e-02   0.000000e+00
   6.857758e-02  -1.765781e-01   0.000000e+00
VECTORS Imag_Arrow_3.981000e+00(Hz) float
  -5.702932e-02   1.668771e-02   0.000000e+00
  -5.593251e-02  -5.093050e-02   0.000000e+00
   0.000000e+00   0.000000e+00   0.000000e+00
  -2.994847e-02  -5.345498e-03   0.000000e+00
  -5.149309e-02   1.215659e-02   0.000000e+00
   2.413568e-02  -6.323804e-02   0.000000e+00
   1.381627e-02  -1.863151e-02   0.000000e+00
  -6.313363e-02  -7.803417e-02   0.000000e+00
  -1.153360e-01  -1.169676e-02   0.000000e+00
  -5.127547e-02  -2.512222e-02   0.000000e+00
  -5.234934e-02   1.501224e-03   0.000000e+00
  -1.067212e-01  -1.049459e-01   0.000000e+00
   0.000000e+00   0.000000e+00   0.000000e+00
   3.345464e-02  -8.115535e-02   0.000000e+00
  -7.361664e-02  -2.413359e-02   0.000000e+00
   0.000000e+00   0.000000e+00   0.000000e+00
   7.098722e-02   3.017130e-02   0.000000e+00
   0.000000e+00   0.000000e+00   0.000000e+00
  -1.037426e-01  -2.908248e-03   0.000000e+00
   0.000000e+00   0.000000e+00   0.000000e+00
   0.000000e+00   0.000000e+00   0.000000e+00
  -4.280758e-02  -2.106337e-02   0.000000e+00
  -6.120518e-02  -1.001790e-02   0.000000e+00
  -4.294041e-02   5.781792e-04   0.000000e+00
   0.000000e+00   0.000000e+00   0.000000e+00
   0.000000e+00   0.000000e+00   0.000000e+00
   8.879173e-03  -7.354506e-02   0.000000e+00
   9.619757e-03  -8.674387e-02   0.000000e+00
  -4.552482e-02  -5.217932e-02   0.000000e+00
  -5.422177e-02  -7.364817e-03   0.000000e+00
   0.000000e+00   0.000000e+00   0.000000e+00
  -6.374802e-03  -4.027600e-02   0.000000e+00
  -5.702949e-02  -8.882013e-02   0.000000e+00
  -1.244783e-01  -1.499423e-01   0.000000e+00
  -5.852239e-02   6.725966e-03   0.000000e+00
   0.000000e+00   0.000000e+00   0.000000e+00
   0.000000e+00   0.000000e+00   0.000000e+00
  -4.627700e-02  -4.459855e-02   0.000000e+00
   2.721887e-02   3.979134e-03   0.000000e+00
  -5.623162e-02  -1.379926e-02   0.000000e+00
  -5.997163e-02   2.953848e-02   0.000000e+00
  -6.771128e-02  -2.102867e-02   0.000000e+00
   0.000000e+00   0.000000e+00   0.000000e+00
  -2.049796e-02  -2.523987e-02   0.000000e+00
   2.253328e-02  -1.308319e-01   0.000000e+00
  -6.308145e-03  -6.302528e-02   0.000000e+00
