# vtk DataFile Version 2.0
Induction_Arrow_Iter9_PE3
ASCII
DATASET UNSTRUCTURED_GRID
POINTS 46 float
  -2.052000e+03    1.667000e+03   -4.526633e+02
  -1.265000e+03    2.333000e+03   -4.555885e+02
  -9.840000e+02    2.568000e+03   -4.612271e+02
   1.700000e+03   -1.757000e+03   -5.237752e+02
  -1.152000e+03    1.382000e+03   -4.549280e+02
   3.187000e+03    1.067000e+03   -8.370176e+02
   4.716000e+03    9.370000e+02   -8.015281e+02
  -1.855000e+03    5.260000e+02   -5.147377e+02
  -1.420000e+02   -1.905000e+03   -4.746368e+02
  -5.800000e+01    1.069000e+03   -4.555494e+02
  -2.802000e+03    3.302000e+03   -4.314337e+02
  -5.640000e+03   -1.532000e+03   -4.911771e+02
  -8.030000e+02   -5.610000e+02   -5.280929e+02
   1.008000e+03    4.130000e+02   -5.983358e+02
   1.960000e+02    2.246000e+03   -5.219413e+02
  -3.457000e+03    8.320000e+02   -4.470735e+02
   5.640000e+03    2.452000e+03   -7.393049e+02
  -1.334000e+03    3.332000e+03   -4.456136e+02
   1.244000e+03    1.880000e+03   -6.331107e+02
  -2.680000e+02    2.144000e+03   -4.891390e+02
  -4.063000e+03    6.620000e+02   -4.746103e+02
  -1.258000e+03    6.330000e+02   -4.856841e+02
  -2.141000e+03    3.194000e+03   -4.348461e+02
  -3.469000e+03   -3.059000e+03   -6.067613e+02
  -1.604000e+03   -2.570000e+02   -5.141257e+02
  -1.454000e+03    2.220000e+02   -5.386025e+02
   1.864000e+03    1.270000e+02   -7.404291e+02
   2.449000e+03    5.590000e+02   -7.805292e+02
  -1.834000e+03   -1.554000e+03   -6.273074e+02
   1.807000e+03    2.297000e+03   -6.825557e+02
  -2.560000e+03   -1.783000e+03   -6.131337e+02
  -2.741000e+03   -5.010000e+02   -5.080000e+02
   2.884000e+03   -2.179000e+03   -5.274708e+02
  -6.120000e+02   -8.960000e+02   -5.895389e+02
  -1.985000e+03   -2.653000e+03   -5.598834e+02
  -3.390000e+03   -4.000000e+02   -4.982361e+02
   1.586000e+03    1.342000e+03   -6.618442e+02
   1.047000e+03    2.401000e+03   -5.426792e+02
   8.380000e+02   -1.300000e+03   -4.783644e+02
   2.569000e+03    2.441000e+03   -6.035668e+02
  -2.028000e+03    2.833000e+03   -4.322286e+02
  -1.086000e+03    1.998000e+03   -4.563301e+02
   1.514000e+03   -3.332000e+03   -5.646205e+02
   7.040000e+02    1.116000e+03   -5.365099e+02
   1.990000e+03    6.360000e+02   -7.085272e+02
   3.722000e+03   -1.700000e+02   -6.745213e+02
CELLS 46 92
1 0
1 1
1 2
1 3
1 4
1 5
1 6
1 7
1 8
1 9
1 10
1 11
1 12
1 13
1 14
1 15
1 16
1 17
1 18
1 19
1 20
1 21
1 22
1 23
1 24
1 25
1 26
1 27
1 28
1 29
1 30
1 31
1 32
1 33
1 34
1 35
1 36
1 37
1 38
1 39
1 40
1 41
1 42
1 43
1 44
1 45
CELL_TYPES 46
1
1
1
1
1
1
1
1
1
1
1
1
1
1
1
1
1
1
1
1
1
1
1
1
1
1
1
1
1
1
1
1
1
1
1
1
1
1
1
1
1
1
1
1
1
1
POINT_DATA 46
VECTORS Real_Arrow_1.584800e+00(Hz) float
  -1.653477e-01  -6.539030e-02   0.000000e+00
  -2.096750e-01   3.902678e-02   0.000000e+00
   0.000000e+00   0.000000e+00   0.000000e+00
   0.000000e+00   0.000000e+00   0.000000e+00
  -1.934467e-01  -8.028996e-02   0.000000e+00
  -2.532503e-02  -9.781609e-02   0.000000e+00
   8.620769e-02  -1.513689e-01   0.000000e+00
  -2.050713e-01  -1.214182e-02   0.000000e+00
   0.000000e+00   0.000000e+00   0.000000e+00
  -1.923948e-01  -9.430057e-02   0.000000e+00
  -2.361111e-01   7.721896e-02   0.000000e+00
  -3.068186e-01  -9.966906e-02   0.000000e+00
   0.000000e+00   0.000000e+00   0.000000e+00
  -2.320201e-01  -1.332143e-01   0.000000e+00
   0.000000e+00   0.000000e+00   0.000000e+00
   0.000000e+00   0.000000e+00   0.000000e+00
   4.141523e-03  -6.726157e-02   0.000000e+00
   0.000000e+00   0.000000e+00   0.000000e+00
   0.000000e+00   0.000000e+00   0.000000e+00
   0.000000e+00   0.000000e+00   0.000000e+00
   0.000000e+00   0.000000e+00   0.000000e+00
  -2.242455e-01  -8.750711e-02   0.000000e+00
  -1.761877e-01   5.995465e-02   0.000000e+00
   0.000000e+00   0.000000e+00   0.000000e+00
   0.000000e+00   0.000000e+00   0.000000e+00
   0.000000e+00   0.000000e+00   0.000000e+00
  -9.726924e-02  -1.924970e-01   0.000000e+00
  -5.613528e-02  -1.427965e-01   0.000000e+00
  -1.075785e-01  -6.891307e-02   0.000000e+00
  -7.379097e-02  -9.359500e-02   0.000000e+00
  -1.178859e-01  -6.215250e-02   0.000000e+00
  -2.270729e-01  -6.631354e-02   0.000000e+00
   5.902860e-02  -4.186785e-02   0.000000e+00
   5.773316e-03  -6.308707e-02   0.000000e+00
   0.000000e+00   0.000000e+00   0.000000e+00
   0.000000e+00   0.000000e+00   0.000000e+00
  -1.727672e-01   3.355574e-03   0.000000e+00
  -1.577311e-01  -4.699743e-03   0.000000e+00
  -1.655689e-01  -3.617432e-01   0.000000e+00
  -1.371216e-01   2.467446e-01   0.000000e+00
   0.000000e+00   0.000000e+00   0.000000e+00
  -1.806324e-01  -9.736782e-03   0.000000e+00
   0.000000e+00   0.000000e+00   0.000000e+00
  -2.125222e-01  -9.232991e-02   0.000000e+00
   0.000000e+00   0.000000e+00   0.000000e+00
   0.000000e+00   0.000000e+00   0.000000e+00
VECTORS Imag_Arrow_1.584800e+00(Hz) float
  -2.904474e-03  -3.284907e-03   0.000000e+00
   6.366973e-03  -6.308127e-02   0.000000e+00
   0.000000e+00   0.000000e+00   0.000000e+00
   0.000000e+00   0.000000e+00   0.000000e+00
   1.341723e-02  -7.297253e-03   0.000000e+00
   4.151320e-02  -4.573922e-02   0.000000e+00
   1.897577e-02  -1.011938e-02   0.000000e+00
   1.084825e-02  -6.293112e-02   0.000000e+00
   0.000000e+00   0.000000e+00   0.000000e+00
   2.345414e-02  -2.587665e-02   0.000000e+00
  -1.873817e-03  -4.212763e-02   0.000000e+00
   1.187592e-02  -2.846139e-02   0.000000e+00
   0.000000e+00   0.000000e+00   0.000000e+00
   8.944491e-02  -4.234032e-02   0.000000e+00
   0.000000e+00   0.000000e+00   0.000000e+00
   0.000000e+00   0.000000e+00   0.000000e+00
   6.039003e-02  -5.785350e-03   0.000000e+00
   0.000000e+00   0.000000e+00   0.000000e+00
   0.000000e+00   0.000000e+00   0.000000e+00
   0.000000e+00   0.000000e+00   0.000000e+00
   0.000000e+00   0.000000e+00   0.000000e+00
   2.794875e-02  -2.126551e-02   0.000000e+00
  -1.630730e-02  -4.628605e-02   0.000000e+00
   0.000000e+00   0.000000e+00   0.000000e+00
   0.000000e+00   0.000000e+00   0.000000e+00
   0.000000e+00   0.000000e+00   0.000000e+00
   4.745974e-02  -2.590682e-02   0.000000e+00
   3.898816e-02  -4.470140e-02   0.000000e+00
   8.702761e-03  -3.139877e-02   0.000000e+00
   1.274530e-02  -5.272423e-03   0.000000e+00
   1.222929e-02  -2.333672e-02   0.000000e+00
   5.133205e-02  -1.649657e-02   0.000000e+00
  -5.114685e-02  -8.104989e-02   0.000000e+00
  -5.748432e-02  -9.036868e-02   0.000000e+00
   0.000000e+00   0.000000e+00   0.000000e+00
   0.000000e+00   0.000000e+00   0.000000e+00
   5.100046e-02  -9.656031e-02   0.000000e+00
   2.959922e-02  -5.113595e-02   0.000000e+00
   6.824397e-02   4.777080e-02   0.000000e+00
   2.050514e-02  -1.275509e-01   0.000000e+00
   0.000000e+00   0.000000e+00   0.000000e+00
  -6.514585e-04  -4.002458e-02   0.000000e+00
   0.000000e+00   0.000000e+00   0.000000e+00
   5.265652e-02  -2.735091e-02   0.000000e+00
   0.000000e+00   0.000000e+00   0.000000e+00
   0.000000e+00   0.000000e+00   0.000000e+00
VECTORS Real_Arrow_2.511800e+00(Hz) float
  -1.604117e-01  -6.309513e-02   0.000000e+00
  -2.049689e-01   6.413904e-02   0.000000e+00
   0.000000e+00   0.000000e+00   0.000000e+00
  -3.912207e-02  -4.743794e-01   0.000000e+00
  -1.951303e-01  -7.536523e-02   0.000000e+00
  -3.442886e-02  -7.960578e-02   0.000000e+00
   8.686818e-02  -1.479156e-01   0.000000e+00
  -2.077605e-01   1.315270e-02   0.000000e+00
   9.782871e-02  -1.881999e-01   0.000000e+00
  -1.993986e-01  -8.329901e-02   0.000000e+00
  -2.272373e-01   9.671525e-02   0.000000e+00
  -3.150633e-01  -9.001486e-02   0.000000e+00
   0.000000e+00   0.000000e+00   0.000000e+00
  -2.648529e-01  -1.202726e-01   0.000000e+00
  -1.380664e-01   2.931787e-02   0.000000e+00
   0.000000e+00   0.000000e+00   0.000000e+00
  -6.882833e-03  -6.044734e-02   0.000000e+00
   0.000000e+00   0.000000e+00   0.000000e+00
   0.000000e+00   0.000000e+00   0.000000e+00
   0.000000e+00   0.000000e+00   0.000000e+00
   0.000000e+00   0.000000e+00   0.000000e+00
  -2.332592e-01  -7.827444e-02   0.000000e+00
  -1.608250e-01   8.031223e-02   0.000000e+00
  -1.957906e-01  -1.248309e-01   0.000000e+00
   0.000000e+00   0.000000e+00   0.000000e+00
   0.000000e+00   0.000000e+00   0.000000e+00
  -1.109313e-01  -1.872252e-01   0.000000e+00
  -6.521646e-02  -1.287556e-01   0.000000e+00
  -1.108249e-01  -5.699493e-02   0.000000e+00
  -7.611519e-02  -9.317299e-02   0.000000e+00
  -1.243734e-01  -5.292624e-02   0.000000e+00
  -2.495755e-01  -6.344905e-02   0.000000e+00
   1.032410e-01   9.290569e-04   0.000000e+00
   3.039785e-02  -3.100972e-02   0.000000e+00
  -6.817758e-02  -1.059346e-01   0.000000e+00
   0.000000e+00   0.000000e+00   0.000000e+00
  -1.901942e-01   3.834266e-02   0.000000e+00
  -1.661760e-01   1.403119e-02   0.000000e+00
  -1.869206e-01  -3.872703e-01   0.000000e+00
  -1.441411e-01   3.216496e-01   0.000000e+00
   0.000000e+00   0.000000e+00   0.000000e+00
  -1.755668e-01   8.119028e-03   0.000000e+00
   0.000000e+00   0.000000e+00   0.000000e+00
  -2.310821e-01  -8.023532e-02   0.000000e+00
   0.000000e+00   0.000000e+00   0.000000e+00
   0.000000e+00   0.000000e+00   0.000000e+00
VECTORS Imag_Arrow_2.511800e+00(Hz) float
  -3.029223e-02   5.039038e-03   0.000000e+00
  -2.661457e-02  -6.164199e-02   0.000000e+00
   0.000000e+00   0.000000e+00   0.000000e+00
  -1.173480e-02   3.191264e-02   0.000000e+00
  -1.816831e-02  -1.603028e-04   0.000000e+00
   3.236982e-02  -5.714487e-02   0.000000e+00
   1.415970e-02  -1.471782e-02   0.000000e+00
  -2.407807e-02  -7.438483e-02   0.000000e+00
  -9.814913e-02  -6.864792e-03   0.000000e+00
  -1.145559e-02  -2.796287e-02   0.000000e+00
  -3.076736e-02  -2.606153e-02   0.000000e+00
  -4.333810e-02  -6.852996e-02   0.000000e+00
   0.000000e+00   0.000000e+00   0.000000e+00
   6.743739e-02  -6.121136e-02   0.000000e+00
  -3.965893e-02  -4.046354e-02   0.000000e+00
   0.000000e+00   0.000000e+00   0.000000e+00
   6.272495e-02   7.991123e-03   0.000000e+00
   0.000000e+00   0.000000e+00   0.000000e+00
   0.000000e+00   0.000000e+00   0.000000e+00
   0.000000e+00   0.000000e+00   0.000000e+00
   0.000000e+00   0.000000e+00   0.000000e+00
  -4.666788e-03  -2.330549e-02   0.000000e+00
  -4.379849e-02  -3.361709e-02   0.000000e+00
   8.494684e-04   6.427917e-03   0.000000e+00
   0.000000e+00   0.000000e+00   0.000000e+00
   0.000000e+00   0.000000e+00   0.000000e+00
   2.957386e-02  -4.736575e-02   0.000000e+00
   2.436298e-02  -6.544927e-02   0.000000e+00
  -1.681028e-02  -4.290734e-02   0.000000e+00
  -1.933637e-02  -5.497449e-03   0.000000e+00
  -1.267967e-02  -3.302811e-02   0.000000e+00
   2.888828e-02  -2.639785e-02   0.000000e+00
  -7.312631e-02  -9.716160e-02   0.000000e+00
  -9.396355e-02  -1.217664e-01   0.000000e+00
  -2.967412e-02   3.739911e-03   0.000000e+00
   0.000000e+00   0.000000e+00   0.000000e+00
   2.389164e-02  -1.177307e-01   0.000000e+00
  -5.754675e-03  -4.982882e-02   0.000000e+00
   4.987435e-02   3.336708e-02   0.000000e+00
  -1.396734e-02  -9.677408e-02   0.000000e+00
   0.000000e+00   0.000000e+00   0.000000e+00
  -3.487988e-02  -3.504319e-02   0.000000e+00
   0.000000e+00   0.000000e+00   0.000000e+00
   2.040342e-02  -2.906521e-02   0.000000e+00
   0.000000e+00   0.000000e+00   0.000000e+00
   0.000000e+00   0.000000e+00   0.000000e+00
VECTORS Real_Arrow_3.981000e+00(Hz) float
  -1.413562e-01  -6.462450e-02   0.000000e+00
  -1.825238e-01   8.694331e-02   0.000000e+00
   0.000000e+00   0.000000e+00   0.000000e+00
  -2.669944e-02  -4.901945e-01   0.000000e+00
  -1.818031e-01  -7.396366e-02   0.000000e+00
  -4.460970e-02  -5.514312e-02   0.000000e+00
   8.465921e-02  -1.431022e-01   0.000000e+00
  -1.913107e-01   4.778475e-02   0.000000e+00
   1.483101e-01  -1.817065e-01   0.000000e+00
  -1.914215e-01  -7.173771e-02   0.000000e+00
  -2.043946e-01   1.071508e-01   0.000000e+00
  -2.812934e-01  -4.273726e-02   0.000000e+00
   0.000000e+00   0.000000e+00   0.000000e+00
  -2.935452e-01  -9.807493e-02   0.000000e+00
  -1.153894e-01   4.463462e-02   0.000000e+00
   0.000000e+00   0.000000e+00   0.000000e+00
  -2.503866e-02  -5.947000e-02   0.000000e+00
   0.000000e+00   0.000000e+00   0.000000e+00
  -4.346275e-02  -3.536137e-02   0.000000e+00
   0.000000e+00   0.000000e+00   0.000000e+00
   0.000000e+00   0.000000e+00   0.000000e+00
  -2.269351e-01  -6.668937e-02   0.000000e+00
  -1.310165e-01   9.248602e-02   0.000000e+00
  -1.958673e-01  -1.241427e-01   0.000000e+00
   0.000000e+00   0.000000e+00   0.000000e+00
   0.000000e+00   0.000000e+00   0.000000e+00
  -1.205292e-01  -1.715847e-01   0.000000e+00
  -7.177120e-02  -1.043577e-01   0.000000e+00
  -9.877408e-02  -3.722155e-02   0.000000e+00
  -6.335735e-02  -9.048394e-02   0.000000e+00
   0.000000e+00   0.000000e+00   0.000000e+00
  -2.624158e-01  -5.268387e-02   0.000000e+00
   1.543475e-01   4.940125e-02   0.000000e+00
   7.804331e-02   1.970679e-02   0.000000e+00
  -5.006570e-02  -1.019651e-01   0.000000e+00
   0.000000e+00   0.000000e+00   0.000000e+00
   0.000000e+00   0.000000e+00   0.000000e+00
  -1.583766e-01   3.114961e-02   0.000000e+00
  -2.015351e-01  -4.082482e-01   0.000000e+00
  -1.346014e-01   3.711705e-01   0.000000e+00
  -1.160139e-01   2.449105e-02   0.000000e+00
  -1.531545e-01   2.313495e-02   0.000000e+00
   0.000000e+00   0.000000e+00   0.000000e+00
  -2.375430e-01  -6.789723e-02   0.000000e+00
  -1.394563e-01  -4.836311e-02   0.000000e+00
   6.829692e-02  -1.760986e-01   0.000000e+00
VECTORS Imag_Arrow_3.981000e+00(Hz) float
  -5.692782e-02   1.687454e-02   0.000000e+00
  -5.593053e-02  -5.079035e-02   0.000000e+00
   0.000000e+00   0.000000e+00   0.000000e+00
  -3.002829e-02  -5.103209e-03   0.000000e+00
  -5.143218e-02   1.230120e-02   0.000000e+00
   2.427307e-02  -6.299434e-02   0.000000e+00
   1.411386e-02  -1.848265e-02   0.000000e+00
  -6.307435e-02  -7.780328e-02   0.000000e+00
  -1.150852e-01  -1.143581e-02   0.000000e+00
  -5.124391e-02  -2.493178e-02   0.000000e+00
  -5.241056e-02   1.530392e-03   0.000000e+00
  -1.067918e-01  -1.047846e-01   0.000000e+00
   0.000000e+00   0.000000e+00   0.000000e+00
   3.355120e-02  -8.085115e-02   0.000000e+00
  -7.367563e-02  -2.389313e-02   0.000000e+00
   0.000000e+00   0.000000e+00   0.000000e+00
   7.126255e-02   3.016320e-02   0.000000e+00
   0.000000e+00   0.000000e+00   0.000000e+00
  -1.035842e-01  -2.820535e-03   0.000000e+00
   0.000000e+00   0.000000e+00   0.000000e+00
   0.000000e+00   0.000000e+00   0.000000e+00
  -4.272484e-02  -2.086582e-02   0.000000e+00
  -6.132140e-02  -1.001146e-02   0.000000e+00
  -4.302751e-02   6.081443e-04   0.000000e+00
   0.000000e+00   0.000000e+00   0.000000e+00
   0.000000e+00   0.000000e+00   0.000000e+00
   8.961057e-03  -7.329106e-02   0.000000e+00
   9.699503e-03  -8.650567e-02   0.000000e+00
  -4.547818e-02  -5.199515e-02   0.000000e+00
  -5.383512e-02  -7.403214e-03   0.000000e+00
   0.000000e+00   0.000000e+00   0.000000e+00
  -6.227754e-03  -4.008376e-02   0.000000e+00
  -5.692927e-02  -8.845743e-02   0.000000e+00
  -1.245501e-01  -1.497348e-01   0.000000e+00
  -5.850358e-02   6.686883e-03   0.000000e+00
   0.000000e+00   0.000000e+00   0.000000e+00
   0.000000e+00   0.000000e+00   0.000000e+00
  -4.604146e-02  -4.434990e-02   0.000000e+00
   2.722275e-02   4.207147e-03   0.000000e+00
  -5.660488e-02  -1.305718e-02   0.000000e+00
  -6.004177e-02   2.955682e-02   0.000000e+00
  -6.770521e-02  -2.088781e-02   0.000000e+00
   0.000000e+00   0.000000e+00   0.000000e+00
  -2.040883e-02  -2.492328e-02   0.000000e+00
   2.256546e-02  -1.305316e-01   0.000000e+00
  -6.140695e-03  -6.283139e-02   0.000000e+00
