# vtk DataFile Version 2.0
Induction_Arrow_Iter5_PE7
ASCII
DATASET UNSTRUCTURED_GRID
POINTS 46 float
  -2.052000e+03    1.667000e+03   -4.526633e+02
  -1.265000e+03    2.333000e+03   -4.555885e+02
  -9.840000e+02    2.568000e+03   -4.612271e+02
   1.700000e+03   -1.757000e+03   -5.237752e+02
  -1.152000e+03    1.382000e+03   -4.549280e+02
   3.187000e+03    1.067000e+03   -8.370176e+02
   4.716000e+03    9.370000e+02   -8.015281e+02
  -1.855000e+03    5.260000e+02   -5.147377e+02
  -1.420000e+02   -1.905000e+03   -4.746368e+02
  -5.800000e+01    1.069000e+03   -4.555494e+02
  -2.802000e+03    3.302000e+03   -4.314337e+02
  -5.640000e+03   -1.532000e+03   -4.911771e+02
  -8.030000e+02   -5.610000e+02   -5.280929e+02
   1.008000e+03    4.130000e+02   -5.983358e+02
   1.960000e+02    2.246000e+03   -5.219413e+02
  -3.457000e+03    8.320000e+02   -4.470735e+02
   5.640000e+03    2.452000e+03   -7.393049e+02
  -1.334000e+03    3.332000e+03   -4.456136e+02
   1.244000e+03    1.880000e+03   -6.331107e+02
  -2.680000e+02    2.144000e+03   -4.891390e+02
  -4.063000e+03    6.620000e+02   -4.746103e+02
  -1.258000e+03    6.330000e+02   -4.856841e+02
  -2.141000e+03    3.194000e+03   -4.348461e+02
  -3.469000e+03   -3.059000e+03   -6.067613e+02
  -1.604000e+03   -2.570000e+02   -5.141257e+02
  -1.454000e+03    2.220000e+02   -5.386025e+02
   1.864000e+03    1.270000e+02   -7.404291e+02
   2.449000e+03    5.590000e+02   -7.805292e+02
  -1.834000e+03   -1.554000e+03   -6.273074e+02
   1.807000e+03    2.297000e+03   -6.825557e+02
  -2.560000e+03   -1.783000e+03   -6.131337e+02
  -2.741000e+03   -5.010000e+02   -5.080000e+02
   2.884000e+03   -2.179000e+03   -5.274708e+02
  -6.120000e+02   -8.960000e+02   -5.895389e+02
  -1.985000e+03   -2.653000e+03   -5.598834e+02
  -3.390000e+03   -4.000000e+02   -4.982361e+02
   1.586000e+03    1.342000e+03   -6.618442e+02
   1.047000e+03    2.401000e+03   -5.426792e+02
   8.380000e+02   -1.300000e+03   -4.783644e+02
   2.569000e+03    2.441000e+03   -6.035668e+02
  -2.028000e+03    2.833000e+03   -4.322286e+02
  -1.086000e+03    1.998000e+03   -4.563301e+02
   1.514000e+03   -3.332000e+03   -5.646205e+02
   7.040000e+02    1.116000e+03   -5.365099e+02
   1.990000e+03    6.360000e+02   -7.085272e+02
   3.722000e+03   -1.700000e+02   -6.745213e+02
CELLS 46 92
1 0
1 1
1 2
1 3
1 4
1 5
1 6
1 7
1 8
1 9
1 10
1 11
1 12
1 13
1 14
1 15
1 16
1 17
1 18
1 19
1 20
1 21
1 22
1 23
1 24
1 25
1 26
1 27
1 28
1 29
1 30
1 31
1 32
1 33
1 34
1 35
1 36
1 37
1 38
1 39
1 40
1 41
1 42
1 43
1 44
1 45
CELL_TYPES 46
1
1
1
1
1
1
1
1
1
1
1
1
1
1
1
1
1
1
1
1
1
1
1
1
1
1
1
1
1
1
1
1
1
1
1
1
1
1
1
1
1
1
1
1
1
1
POINT_DATA 46
VECTORS Real_Arrow_3.981000e+02(Hz) float
  -3.931310e-02  -3.303905e-02   0.000000e+00
  -1.141203e-01   1.746744e-01   0.000000e+00
  -9.498412e-02   1.069435e-01   0.000000e+00
   6.867154e-02  -8.317408e-02   0.000000e+00
   3.201933e-02  -3.612145e-02   0.000000e+00
   2.891740e-02  -1.834237e-02   0.000000e+00
   2.118634e-02   3.982281e-02   0.000000e+00
   5.867181e-03   2.216790e-02   0.000000e+00
   0.000000e+00   0.000000e+00   0.000000e+00
   4.133453e-02   1.214494e-02   0.000000e+00
  -3.661585e-02  -3.000073e-02   0.000000e+00
  -5.838237e-02   1.257967e-02   0.000000e+00
   3.446668e-02   2.255389e-01   0.000000e+00
   1.645818e-01   6.263855e-02   0.000000e+00
   2.297478e-02   3.861567e-02   0.000000e+00
   1.476005e-01  -2.250684e-02   0.000000e+00
  -1.702548e-01  -2.795171e-01   0.000000e+00
  -3.564228e-02   1.411202e-01   0.000000e+00
   2.653544e-01  -1.620160e-01   0.000000e+00
   6.978089e-02   3.848580e-02   0.000000e+00
  -8.546848e-02   4.790334e-02   0.000000e+00
  -2.497774e-02  -5.119382e-02   0.000000e+00
  -9.408041e-02   1.201249e-01   0.000000e+00
   8.587615e-02  -1.328068e-01   0.000000e+00
  -2.588257e-02  -6.514520e-02   0.000000e+00
  -2.546838e-02  -4.561280e-02   0.000000e+00
   1.299788e-01   1.299607e-01   0.000000e+00
   4.802451e-02   1.365535e-01   0.000000e+00
   4.026496e-02  -2.172998e-02   0.000000e+00
   6.276000e-02  -9.332611e-02   0.000000e+00
   3.266895e-02  -5.288512e-02   0.000000e+00
   3.855465e-02  -1.700036e-02   0.000000e+00
   7.737592e-02   6.340054e-02   0.000000e+00
  -1.509262e-02   1.220514e-03   0.000000e+00
   0.000000e+00   0.000000e+00   0.000000e+00
   1.260678e-01  -1.447912e-01   0.000000e+00
   2.672133e-02   1.446357e-01   0.000000e+00
   0.000000e+00   0.000000e+00   0.000000e+00
  -1.028567e-02   2.761759e-02   0.000000e+00
   1.178323e-01  -1.368735e-01   0.000000e+00
  -7.989130e-02  -1.940304e-01   0.000000e+00
   1.782191e-02  -2.242558e-02   0.000000e+00
  -1.166675e-01  -8.047224e-02   0.000000e+00
   1.081782e-01   1.607672e-02   0.000000e+00
   7.709345e-02   3.051021e-01   0.000000e+00
  -1.068615e-03   1.043909e-01   0.000000e+00
VECTORS Imag_Arrow_3.981000e+02(Hz) float
  -1.424801e-02  -4.465939e-02   0.000000e+00
  -5.268964e-02   4.712774e-02   0.000000e+00
  -1.160456e-02   3.218213e-02   0.000000e+00
  -2.092356e-02  -1.168021e-01   0.000000e+00
  -3.205009e-02  -6.308838e-02   0.000000e+00
  -7.096700e-03   1.406440e-02   0.000000e+00
   1.526976e-02  -2.456461e-02   0.000000e+00
  -6.479751e-02   4.995210e-02   0.000000e+00
   0.000000e+00   0.000000e+00   0.000000e+00
   3.011157e-02  -2.027561e-02   0.000000e+00
  -2.377404e-02   2.637324e-02   0.000000e+00
  -6.738952e-03  -1.026455e-02   0.000000e+00
   3.165150e-02   1.941930e-01   0.000000e+00
  -8.602135e-02   2.866992e-02   0.000000e+00
   2.525831e-02   4.047573e-03   0.000000e+00
   5.735291e-03   2.345836e-02   0.000000e+00
  -1.961807e-03  -3.380510e-02   0.000000e+00
   2.722332e-02  -4.090153e-03   0.000000e+00
   4.611949e-02  -8.096896e-03   0.000000e+00
  -8.652697e-03  -2.418392e-03   0.000000e+00
  -1.264945e-02  -1.083864e-02   0.000000e+00
   2.637288e-02   1.051837e-02   0.000000e+00
   1.439036e-02  -3.780256e-03   0.000000e+00
  -3.789545e-02  -3.046173e-02   0.000000e+00
  -3.983108e-02   2.475280e-02   0.000000e+00
   1.386504e-02  -2.698200e-02   0.000000e+00
  -6.534771e-02   1.613711e-02   0.000000e+00
  -1.639787e-03  -2.678705e-03   0.000000e+00
   8.758124e-03   6.440066e-02   0.000000e+00
  -1.282684e-03  -1.650006e-04   0.000000e+00
   3.623585e-04   2.229190e-02   0.000000e+00
  -1.300422e-02  -1.445292e-02   0.000000e+00
  -4.988856e-03   1.889362e-02   0.000000e+00
   8.516711e-02   1.299244e-01   0.000000e+00
   0.000000e+00   0.000000e+00   0.000000e+00
  -4.901782e-02  -4.024129e-02   0.000000e+00
  -1.058947e-02   5.975160e-02   0.000000e+00
   0.000000e+00   0.000000e+00   0.000000e+00
  -8.447298e-02  -6.366095e-02   0.000000e+00
  -4.285884e-02   5.977759e-02   0.000000e+00
   7.458476e-03   1.277754e-02   0.000000e+00
  -1.603749e-02   1.805372e-02   0.000000e+00
  -5.995737e-02  -6.182455e-03   0.000000e+00
  -5.473357e-02  -5.628338e-02   0.000000e+00
  -6.352513e-02   6.274299e-02   0.000000e+00
   9.781377e-03  -2.480590e-02   0.000000e+00
VECTORS Real_Arrow_6.309500e+02(Hz) float
  -3.405740e-02  -1.859892e-02   0.000000e+00
  -8.992454e-02   1.491748e-01   0.000000e+00
  -8.659904e-02   9.326291e-02   0.000000e+00
   7.695504e-02  -4.798733e-02   0.000000e+00
   4.089305e-02  -1.376410e-02   0.000000e+00
   2.559928e-02  -1.807778e-02   0.000000e+00
   2.103302e-02   3.651230e-02   0.000000e+00
   2.917902e-02   2.998611e-03   0.000000e+00
   0.000000e+00   0.000000e+00   0.000000e+00
   2.891405e-02   1.659501e-02   0.000000e+00
  -3.125245e-02  -3.984252e-02   0.000000e+00
  -5.504545e-02   1.608291e-02   0.000000e+00
   2.907110e-02   1.643962e-01   0.000000e+00
   1.785396e-01   5.016711e-02   0.000000e+00
   1.490985e-02   3.718075e-02   0.000000e+00
   1.406333e-01  -2.905904e-02   0.000000e+00
  -1.721166e-01  -2.659510e-01   0.000000e+00
  -4.357016e-02   1.365173e-01   0.000000e+00
   2.404683e-01  -1.552858e-01   0.000000e+00
   7.536222e-02   4.107026e-02   0.000000e+00
  -8.155787e-02   5.113616e-02   0.000000e+00
  -3.658315e-02  -5.765134e-02   0.000000e+00
  -9.928204e-02   1.165310e-01   0.000000e+00
   9.597459e-02  -1.166218e-01   0.000000e+00
  -1.227151e-02  -5.632184e-02   0.000000e+00
  -3.018564e-02  -3.385468e-02   0.000000e+00
   1.510000e-01   1.161874e-01   0.000000e+00
   4.120231e-02   1.359570e-01   0.000000e+00
   3.110803e-02  -5.133929e-02   0.000000e+00
   6.625825e-02  -9.607718e-02   0.000000e+00
   2.961351e-02  -5.984699e-02   0.000000e+00
   3.007834e-02  -1.068940e-02   0.000000e+00
   7.765429e-02   5.811033e-02   0.000000e+00
  -3.704701e-02  -3.989146e-02   0.000000e+00
  -7.252863e-03  -2.638644e-02   0.000000e+00
   1.340852e-01  -1.288181e-01   0.000000e+00
   3.022178e-02   1.397567e-01   0.000000e+00
   0.000000e+00   0.000000e+00   0.000000e+00
   1.903857e-02   4.234956e-02   0.000000e+00
   1.308335e-01  -1.452084e-01   0.000000e+00
  -8.089737e-02  -1.937016e-01   0.000000e+00
   2.041756e-02  -2.925044e-02   0.000000e+00
  -8.823748e-02  -7.072929e-02   0.000000e+00
   1.235126e-01   3.446934e-02   0.000000e+00
   9.514062e-02   2.716806e-01   0.000000e+00
   1.136164e-03   1.074386e-01   0.000000e+00
VECTORS Imag_Arrow_6.309500e+02(Hz) float
  -1.195327e-02  -3.767103e-02   0.000000e+00
  -5.243292e-02   5.320942e-02   0.000000e+00
  -2.257490e-02   3.742288e-02   0.000000e+00
  -1.758701e-02  -1.145926e-01   0.000000e+00
  -2.366748e-02  -5.063630e-02   0.000000e+00
  -1.264960e-02   1.209757e-02   0.000000e+00
   7.016579e-03  -9.212776e-03   0.000000e+00
  -5.949893e-02   5.163282e-02   0.000000e+00
   0.000000e+00   0.000000e+00   0.000000e+00
   2.726419e-02  -1.374418e-02   0.000000e+00
  -2.154646e-02   1.637387e-02   0.000000e+00
  -4.143344e-03  -1.468191e-02   0.000000e+00
   1.799724e-02   1.751438e-01   0.000000e+00
  -6.530914e-02   2.086044e-02   0.000000e+00
   2.344392e-02   6.790664e-03   0.000000e+00
   2.071235e-02   1.837087e-02   0.000000e+00
  -1.925532e-02  -5.870066e-02   0.000000e+00
   1.514585e-02   2.403918e-02   0.000000e+00
   4.936765e-02  -1.085043e-02   0.000000e+00
  -2.013961e-02   1.102981e-03   0.000000e+00
  -1.103007e-02  -9.048508e-03   0.000000e+00
   3.073425e-02   1.488975e-02   0.000000e+00
   4.829272e-03   5.372491e-03   0.000000e+00
  -2.601997e-02  -4.345112e-02   0.000000e+00
  -4.069833e-02  -4.444018e-04   0.000000e+00
   1.309811e-02  -2.914131e-02   0.000000e+00
  -5.087384e-02   3.936663e-02   0.000000e+00
   2.010565e-03   5.938578e-03   0.000000e+00
   1.296407e-02   7.048807e-02   0.000000e+00
  -1.092871e-02   9.022841e-03   0.000000e+00
  -2.942841e-03   2.371208e-02   0.000000e+00
   8.575842e-03  -2.029711e-02   0.000000e+00
  -1.026834e-02   2.214782e-02   0.000000e+00
   6.608217e-02   1.076420e-01   0.000000e+00
   4.968093e-02  -7.629626e-02   0.000000e+00
  -4.224504e-02  -3.571441e-02   0.000000e+00
  -2.137406e-02   5.245118e-02   0.000000e+00
   0.000000e+00   0.000000e+00   0.000000e+00
  -7.270576e-02  -4.293121e-02   0.000000e+00
  -3.569383e-02   5.629610e-02   0.000000e+00
  -7.082163e-03  -8.006435e-03   0.000000e+00
  -5.767112e-03   7.607947e-03   0.000000e+00
  -6.835235e-02  -1.523012e-02   0.000000e+00
  -5.385404e-02  -5.583631e-02   0.000000e+00
  -4.956700e-02   8.224461e-02   0.000000e+00
   1.205797e-02  -2.469697e-02   0.000000e+00
VECTORS Real_Arrow_1.000000e+03(Hz) float
  -2.984230e-02  -8.006946e-03   0.000000e+00
  -7.092232e-02   1.268124e-01   0.000000e+00
  -7.422559e-02   7.866906e-02   0.000000e+00
   8.309020e-02  -1.080441e-02   0.000000e+00
   4.619750e-02  -3.425049e-04   0.000000e+00
   2.855094e-02  -1.760065e-02   0.000000e+00
   2.259034e-02   3.132074e-02   0.000000e+00
   4.964667e-02  -1.593372e-02   0.000000e+00
   0.000000e+00   0.000000e+00   0.000000e+00
   2.056159e-02   1.832013e-02   0.000000e+00
  -2.651888e-02  -4.385908e-02   0.000000e+00
  -5.306219e-02   2.063246e-02   0.000000e+00
   2.625181e-02   1.154214e-01   0.000000e+00
   1.880331e-01   4.680765e-02   0.000000e+00
   0.000000e+00   0.000000e+00   0.000000e+00
   1.286995e-01  -3.377893e-02   0.000000e+00
  -1.659316e-01  -2.436657e-01   0.000000e+00
  -4.553631e-02   1.191172e-01   0.000000e+00
   0.000000e+00   0.000000e+00   0.000000e+00
   8.513291e-02   4.230792e-02   0.000000e+00
  -7.757580e-02   5.408558e-02   0.000000e+00
  -4.879530e-02  -6.539682e-02   0.000000e+00
  -9.835377e-02   1.104426e-01   0.000000e+00
   0.000000e+00   0.000000e+00   0.000000e+00
   6.207041e-04  -4.280994e-02   0.000000e+00
  -3.385189e-02  -2.248566e-02   0.000000e+00
   1.649337e-01   9.581248e-02   0.000000e+00
   3.305623e-02   1.352812e-01   0.000000e+00
   2.212250e-02  -7.807254e-02   0.000000e+00
   7.201413e-02  -1.029514e-01   0.000000e+00
   3.036290e-02  -6.774881e-02   0.000000e+00
   1.939825e-02  -1.544768e-03   0.000000e+00
   0.000000e+00   0.000000e+00   0.000000e+00
  -5.318628e-02  -6.978763e-02   0.000000e+00
   0.000000e+00   0.000000e+00   0.000000e+00
   1.425909e-01  -1.141952e-01   0.000000e+00
   3.938426e-02   1.293314e-01   0.000000e+00
   0.000000e+00   0.000000e+00   0.000000e+00
   0.000000e+00   0.000000e+00   0.000000e+00
   1.387528e-01  -1.544250e-01   0.000000e+00
   0.000000e+00   0.000000e+00   0.000000e+00
   0.000000e+00   0.000000e+00   0.000000e+00
  -6.141905e-02  -6.024775e-02   0.000000e+00
   1.410942e-01   5.236489e-02   0.000000e+00
   1.041321e-01   2.349800e-01   0.000000e+00
  -8.742950e-04   1.139364e-01   0.000000e+00
VECTORS Imag_Arrow_1.000000e+03(Hz) float
  -9.082374e-03  -2.898599e-02   0.000000e+00
  -4.647121e-02   5.085523e-02   0.000000e+00
  -2.902977e-02   3.992020e-02   0.000000e+00
  -1.234737e-02  -1.093958e-01   0.000000e+00
  -1.465755e-02  -3.540557e-02   0.000000e+00
  -2.270771e-02   1.569506e-02   0.000000e+00
   3.416743e-03  -2.356671e-03   0.000000e+00
  -5.041340e-02   4.940839e-02   0.000000e+00
   0.000000e+00   0.000000e+00   0.000000e+00
   2.350280e-02  -8.369139e-03   0.000000e+00
  -2.010679e-02   4.156283e-03   0.000000e+00
   4.694037e-04  -1.924421e-02   0.000000e+00
   4.884747e-03   1.559794e-01   0.000000e+00
  -5.315945e-02   1.088397e-02   0.000000e+00
   0.000000e+00   0.000000e+00   0.000000e+00
   3.274274e-02   1.296346e-02   0.000000e+00
  -4.182163e-02  -8.491447e-02   0.000000e+00
   3.308876e-03   4.612210e-02   0.000000e+00
   0.000000e+00   0.000000e+00   0.000000e+00
  -2.813393e-02   6.948924e-03   0.000000e+00
  -8.980905e-03  -6.692850e-03   0.000000e+00
   3.256027e-02   1.671967e-02   0.000000e+00
  -5.287939e-03   1.116201e-02   0.000000e+00
   0.000000e+00   0.000000e+00   0.000000e+00
  -3.983031e-02  -1.023957e-02   0.000000e+00
   1.245203e-02  -2.904842e-02   0.000000e+00
  -3.280790e-02   5.618922e-02   0.000000e+00
  -2.622767e-03   1.655528e-02   0.000000e+00
   1.052083e-02   6.679624e-02   0.000000e+00
  -1.777174e-02   1.517011e-02   0.000000e+00
  -7.988171e-03   2.480861e-02   0.000000e+00
   1.927511e-02  -2.379890e-02   0.000000e+00
   0.000000e+00   0.000000e+00   0.000000e+00
   4.767374e-02   8.233266e-02   0.000000e+00
   0.000000e+00   0.000000e+00   0.000000e+00
  -3.736065e-02  -2.736836e-02   0.000000e+00
  -2.771172e-02   5.451016e-02   0.000000e+00
   0.000000e+00   0.000000e+00   0.000000e+00
   0.000000e+00   0.000000e+00   0.000000e+00
  -2.849523e-02   5.860956e-02   0.000000e+00
   0.000000e+00   0.000000e+00   0.000000e+00
   0.000000e+00   0.000000e+00   0.000000e+00
  -6.852793e-02  -1.804303e-02   0.000000e+00
  -5.051895e-02  -5.476181e-02   0.000000e+00
  -3.673565e-02   9.152853e-02   0.000000e+00
   1.563910e-02  -2.398469e-02   0.000000e+00
