# vtk DataFile Version 2.0
Induction_Arrow_Iter11_PE7
ASCII
DATASET UNSTRUCTURED_GRID
POINTS 46 float
  -2.052000e+03    1.667000e+03   -4.526633e+02
  -1.265000e+03    2.333000e+03   -4.555885e+02
  -9.840000e+02    2.568000e+03   -4.612271e+02
   1.700000e+03   -1.757000e+03   -5.237752e+02
  -1.152000e+03    1.382000e+03   -4.549280e+02
   3.187000e+03    1.067000e+03   -8.370176e+02
   4.716000e+03    9.370000e+02   -8.015281e+02
  -1.855000e+03    5.260000e+02   -5.147377e+02
  -1.420000e+02   -1.905000e+03   -4.746368e+02
  -5.800000e+01    1.069000e+03   -4.555494e+02
  -2.802000e+03    3.302000e+03   -4.314337e+02
  -5.640000e+03   -1.532000e+03   -4.911771e+02
  -8.030000e+02   -5.610000e+02   -5.280929e+02
   1.008000e+03    4.130000e+02   -5.983358e+02
   1.960000e+02    2.246000e+03   -5.219413e+02
  -3.457000e+03    8.320000e+02   -4.470735e+02
   5.640000e+03    2.452000e+03   -7.393049e+02
  -1.334000e+03    3.332000e+03   -4.456136e+02
   1.244000e+03    1.880000e+03   -6.331107e+02
  -2.680000e+02    2.144000e+03   -4.891390e+02
  -4.063000e+03    6.620000e+02   -4.746103e+02
  -1.258000e+03    6.330000e+02   -4.856841e+02
  -2.141000e+03    3.194000e+03   -4.348461e+02
  -3.469000e+03   -3.059000e+03   -6.067613e+02
  -1.604000e+03   -2.570000e+02   -5.141257e+02
  -1.454000e+03    2.220000e+02   -5.386025e+02
   1.864000e+03    1.270000e+02   -7.404291e+02
   2.449000e+03    5.590000e+02   -7.805292e+02
  -1.834000e+03   -1.554000e+03   -6.273074e+02
   1.807000e+03    2.297000e+03   -6.825557e+02
  -2.560000e+03   -1.783000e+03   -6.131337e+02
  -2.741000e+03   -5.010000e+02   -5.080000e+02
   2.884000e+03   -2.179000e+03   -5.274708e+02
  -6.120000e+02   -8.960000e+02   -5.895389e+02
  -1.985000e+03   -2.653000e+03   -5.598834e+02
  -3.390000e+03   -4.000000e+02   -4.982361e+02
   1.586000e+03    1.342000e+03   -6.618442e+02
   1.047000e+03    2.401000e+03   -5.426792e+02
   8.380000e+02   -1.300000e+03   -4.783644e+02
   2.569000e+03    2.441000e+03   -6.035668e+02
  -2.028000e+03    2.833000e+03   -4.322286e+02
  -1.086000e+03    1.998000e+03   -4.563301e+02
   1.514000e+03   -3.332000e+03   -5.646205e+02
   7.040000e+02    1.116000e+03   -5.365099e+02
   1.990000e+03    6.360000e+02   -7.085272e+02
   3.722000e+03   -1.700000e+02   -6.745213e+02
CELLS 46 92
1 0
1 1
1 2
1 3
1 4
1 5
1 6
1 7
1 8
1 9
1 10
1 11
1 12
1 13
1 14
1 15
1 16
1 17
1 18
1 19
1 20
1 21
1 22
1 23
1 24
1 25
1 26
1 27
1 28
1 29
1 30
1 31
1 32
1 33
1 34
1 35
1 36
1 37
1 38
1 39
1 40
1 41
1 42
1 43
1 44
1 45
CELL_TYPES 46
1
1
1
1
1
1
1
1
1
1
1
1
1
1
1
1
1
1
1
1
1
1
1
1
1
1
1
1
1
1
1
1
1
1
1
1
1
1
1
1
1
1
1
1
1
1
POINT_DATA 46
VECTORS Real_Arrow_3.981000e+02(Hz) float
  -3.910292e-02  -3.279254e-02   0.000000e+00
  -1.140728e-01   1.749164e-01   0.000000e+00
  -9.471892e-02   1.072788e-01   0.000000e+00
   6.794545e-02  -8.295988e-02   0.000000e+00
   3.212650e-02  -3.613104e-02   0.000000e+00
   2.910820e-02  -1.860865e-02   0.000000e+00
   2.058861e-02   4.070305e-02   0.000000e+00
   6.659018e-03   2.238510e-02   0.000000e+00
   0.000000e+00   0.000000e+00   0.000000e+00
   4.157039e-02   1.194106e-02   0.000000e+00
  -3.661370e-02  -2.926616e-02   0.000000e+00
  -5.830860e-02   1.254817e-02   0.000000e+00
   3.356368e-02   2.276440e-01   0.000000e+00
   1.656289e-01   6.287809e-02   0.000000e+00
   2.251198e-02   3.851216e-02   0.000000e+00
   1.475797e-01  -2.184970e-02   0.000000e+00
  -1.703380e-01  -2.791931e-01   0.000000e+00
  -3.556588e-02   1.410055e-01   0.000000e+00
   2.655415e-01  -1.619096e-01   0.000000e+00
   6.935179e-02   3.869899e-02   0.000000e+00
  -8.667747e-02   4.772560e-02   0.000000e+00
  -2.502280e-02  -5.124847e-02   0.000000e+00
  -9.459221e-02   1.200810e-01   0.000000e+00
   8.520364e-02  -1.348403e-01   0.000000e+00
  -2.634421e-02  -6.591402e-02   0.000000e+00
  -2.493236e-02  -4.597378e-02   0.000000e+00
   1.301540e-01   1.301862e-01   0.000000e+00
   4.837175e-02   1.367843e-01   0.000000e+00
   4.106567e-02  -2.068568e-02   0.000000e+00
   6.195066e-02  -9.351076e-02   0.000000e+00
   3.289483e-02  -5.411057e-02   0.000000e+00
   3.821710e-02  -2.056091e-02   0.000000e+00
   7.737038e-02   6.359875e-02   0.000000e+00
  -1.859978e-02   1.530785e-03   0.000000e+00
   0.000000e+00   0.000000e+00   0.000000e+00
   1.270842e-01  -1.454250e-01   0.000000e+00
   2.729619e-02   1.440107e-01   0.000000e+00
   0.000000e+00   0.000000e+00   0.000000e+00
  -1.120295e-02   2.722774e-02   0.000000e+00
   1.192525e-01  -1.369104e-01   0.000000e+00
  -7.975520e-02  -1.944738e-01   0.000000e+00
   1.736945e-02  -2.235565e-02   0.000000e+00
  -1.161177e-01  -8.035194e-02   0.000000e+00
   1.085040e-01   1.672722e-02   0.000000e+00
   7.700366e-02   3.057301e-01   0.000000e+00
  -1.591239e-03   1.046315e-01   0.000000e+00
VECTORS Imag_Arrow_3.981000e+02(Hz) float
  -1.439828e-02  -4.476566e-02   0.000000e+00
  -5.260171e-02   4.695662e-02   0.000000e+00
  -1.146119e-02   3.238106e-02   0.000000e+00
  -2.123208e-02  -1.170266e-01   0.000000e+00
  -3.254477e-02  -6.349901e-02   0.000000e+00
  -6.864443e-03   1.388561e-02   0.000000e+00
   1.498511e-02  -2.495600e-02   0.000000e+00
  -6.470451e-02   4.942702e-02   0.000000e+00
   0.000000e+00   0.000000e+00   0.000000e+00
   3.057842e-02  -2.065131e-02   0.000000e+00
  -2.538225e-02   2.541093e-02   0.000000e+00
  -6.661526e-03  -1.013082e-02   0.000000e+00
   3.050081e-02   1.946207e-01   0.000000e+00
  -8.483891e-02   2.875019e-02   0.000000e+00
   2.558016e-02   4.222186e-03   0.000000e+00
   4.804176e-03   2.418247e-02   0.000000e+00
  -2.381819e-03  -3.380598e-02   0.000000e+00
   2.697349e-02  -3.688548e-03   0.000000e+00
   4.610171e-02  -7.563393e-03   0.000000e+00
  -8.818869e-03  -2.480079e-03   0.000000e+00
  -1.271465e-02  -1.097942e-02   0.000000e+00
   2.673242e-02   1.060947e-02   0.000000e+00
   1.358800e-02  -3.504240e-03   0.000000e+00
  -3.830266e-02  -2.929881e-02   0.000000e+00
  -4.223789e-02   2.348509e-02   0.000000e+00
   1.406758e-02  -2.768120e-02   0.000000e+00
  -6.572801e-02   1.446854e-02   0.000000e+00
  -1.095952e-03  -3.190940e-03   0.000000e+00
   9.785749e-03   6.442443e-02   0.000000e+00
  -1.573027e-03   7.160693e-04   0.000000e+00
  -3.138569e-04   2.169746e-02   0.000000e+00
  -1.186516e-02  -1.474463e-02   0.000000e+00
  -4.970003e-03   1.869858e-02   0.000000e+00
   8.730918e-02   1.284874e-01   0.000000e+00
   0.000000e+00   0.000000e+00   0.000000e+00
  -4.782357e-02  -4.082264e-02   0.000000e+00
  -1.079723e-02   6.002338e-02   0.000000e+00
   0.000000e+00   0.000000e+00   0.000000e+00
  -8.471736e-02  -6.386005e-02   0.000000e+00
  -4.185618e-02   5.892443e-02   0.000000e+00
   6.834841e-03   1.154835e-02   0.000000e+00
  -1.623058e-02   1.820085e-02   0.000000e+00
  -5.999210e-02  -6.604343e-03   0.000000e+00
  -5.428144e-02  -5.576277e-02   0.000000e+00
  -6.377604e-02   6.191938e-02   0.000000e+00
   9.316754e-03  -2.479561e-02   0.000000e+00
VECTORS Real_Arrow_6.309500e+02(Hz) float
  -3.387551e-02  -1.838087e-02   0.000000e+00
  -8.987897e-02   1.494611e-01   0.000000e+00
  -8.647762e-02   9.350171e-02   0.000000e+00
   7.662343e-02  -4.790748e-02   0.000000e+00
   4.129888e-02  -1.354625e-02   0.000000e+00
   2.545774e-02  -1.799287e-02   0.000000e+00
   2.084512e-02   3.725111e-02   0.000000e+00
   2.982787e-02   3.333644e-03   0.000000e+00
   0.000000e+00   0.000000e+00   0.000000e+00
   2.894868e-02   1.659718e-02   0.000000e+00
  -3.083533e-02  -3.874339e-02   0.000000e+00
  -5.500147e-02   1.599676e-02   0.000000e+00
   2.948939e-02   1.665429e-01   0.000000e+00
   1.786351e-01   5.031881e-02   0.000000e+00
   1.455148e-02   3.698300e-02   0.000000e+00
   1.411460e-01  -2.880313e-02   0.000000e+00
  -1.718747e-01  -2.657585e-01   0.000000e+00
  -4.342128e-02   1.361383e-01   0.000000e+00
   2.406004e-01  -1.553882e-01   0.000000e+00
   7.509399e-02   4.134757e-02   0.000000e+00
  -8.273669e-02   5.101763e-02   0.000000e+00
  -3.670819e-02  -5.773039e-02   0.000000e+00
  -9.934425e-02   1.164218e-01   0.000000e+00
   9.581075e-02  -1.192629e-01   0.000000e+00
  -1.218848e-02  -5.632055e-02   0.000000e+00
  -2.978956e-02  -3.398576e-02   0.000000e+00
   1.511923e-01   1.171710e-01   0.000000e+00
   4.131127e-02   1.363617e-01   0.000000e+00
   3.083948e-02  -5.077569e-02   0.000000e+00
   6.600497e-02  -9.613876e-02   0.000000e+00
   3.030778e-02  -6.032972e-02   0.000000e+00
   2.971214e-02  -1.290464e-02   0.000000e+00
   7.769184e-02   5.837945e-02   0.000000e+00
  -4.051427e-02  -3.827751e-02   0.000000e+00
  -5.312928e-03  -2.735830e-02   0.000000e+00
   1.344914e-01  -1.288394e-01   0.000000e+00
   3.038638e-02   1.391265e-01   0.000000e+00
   0.000000e+00   0.000000e+00   0.000000e+00
   1.839841e-02   4.261358e-02   0.000000e+00
   1.314805e-01  -1.447982e-01   0.000000e+00
  -8.048410e-02  -1.935086e-01   0.000000e+00
   2.019486e-02  -2.929422e-02   0.000000e+00
  -8.791574e-02  -7.037559e-02   0.000000e+00
   1.235958e-01   3.461875e-02   0.000000e+00
   9.523060e-02   2.727555e-01   0.000000e+00
   9.376039e-04   1.076182e-01   0.000000e+00
VECTORS Imag_Arrow_6.309500e+02(Hz) float
  -1.210314e-02  -3.767727e-02   0.000000e+00
  -5.241286e-02   5.327071e-02   0.000000e+00
  -2.238211e-02   3.762247e-02   0.000000e+00
  -1.807322e-02  -1.148617e-01   0.000000e+00
  -2.402317e-02  -5.105399e-02   0.000000e+00
  -1.194180e-02   1.153282e-02   0.000000e+00
   6.503766e-03  -8.968602e-03   0.000000e+00
  -5.932990e-02   5.133245e-02   0.000000e+00
   0.000000e+00   0.000000e+00   0.000000e+00
   2.754354e-02  -1.397034e-02   0.000000e+00
  -2.265479e-02   1.546199e-02   0.000000e+00
  -4.163006e-03  -1.452447e-02   0.000000e+00
   1.695253e-02   1.754980e-01   0.000000e+00
  -6.406074e-02   2.111015e-02   0.000000e+00
   2.347373e-02   6.974170e-03   0.000000e+00
   1.994381e-02   1.917447e-02   0.000000e+00
  -1.967988e-02  -5.850401e-02   0.000000e+00
   1.493040e-02   2.445235e-02   0.000000e+00
   4.928073e-02  -1.035592e-02   0.000000e+00
  -2.049132e-02   1.237018e-03   0.000000e+00
  -1.135562e-02  -8.963158e-03   0.000000e+00
   3.095230e-02   1.492120e-02   0.000000e+00
   3.993242e-03   5.516384e-03   0.000000e+00
  -2.672479e-02  -4.328110e-02   0.000000e+00
  -4.208424e-02  -1.443681e-03   0.000000e+00
   1.336143e-02  -2.970609e-02   0.000000e+00
  -5.143185e-02   3.787844e-02   0.000000e+00
   2.965651e-03   5.363334e-03   0.000000e+00
   1.466586e-02   7.110782e-02   0.000000e+00
  -1.155890e-02   9.413342e-03   0.000000e+00
  -3.537508e-03   2.230964e-02   0.000000e+00
   9.169479e-03  -2.158534e-02   0.000000e+00
  -1.014977e-02   2.191079e-02   0.000000e+00
   6.643497e-02   1.062837e-01   0.000000e+00
   5.043198e-02  -7.727280e-02   0.000000e+00
  -4.133327e-02  -3.652773e-02   0.000000e+00
  -2.113215e-02   5.230327e-02   0.000000e+00
   0.000000e+00   0.000000e+00   0.000000e+00
  -7.407277e-02  -4.487780e-02   0.000000e+00
  -3.462197e-02   5.573270e-02   0.000000e+00
  -7.607263e-03  -9.223740e-03   0.000000e+00
  -6.051997e-03   7.798203e-03   0.000000e+00
  -6.800726e-02  -1.548273e-02   0.000000e+00
  -5.342133e-02  -5.527595e-02   0.000000e+00
  -4.978781e-02   8.160413e-02   0.000000e+00
   1.165738e-02  -2.463985e-02   0.000000e+00
VECTORS Real_Arrow_1.000000e+03(Hz) float
  -2.961232e-02  -7.837894e-03   0.000000e+00
  -7.085390e-02   1.269867e-01   0.000000e+00
  -7.423455e-02   7.884925e-02   0.000000e+00
   8.304495e-02  -1.080806e-02   0.000000e+00
   4.670363e-02   7.149629e-05   0.000000e+00
   2.788256e-02  -1.708693e-02   0.000000e+00
   2.268390e-02   3.189467e-02   0.000000e+00
   5.014318e-02  -1.553817e-02   0.000000e+00
   0.000000e+00   0.000000e+00   0.000000e+00
   2.058661e-02   1.832471e-02   0.000000e+00
  -2.593968e-02  -4.239011e-02   0.000000e+00
  -5.299429e-02   2.052175e-02   0.000000e+00
   2.715825e-02   1.176513e-01   0.000000e+00
   1.875748e-01   4.675860e-02   0.000000e+00
   0.000000e+00   0.000000e+00   0.000000e+00
   1.295193e-01  -3.388051e-02   0.000000e+00
  -1.653924e-01  -2.435932e-01   0.000000e+00
  -4.532562e-02   1.185415e-01   0.000000e+00
   0.000000e+00   0.000000e+00   0.000000e+00
   8.506026e-02   4.254815e-02   0.000000e+00
  -7.869489e-02   5.380819e-02   0.000000e+00
  -4.893691e-02  -6.544573e-02   0.000000e+00
  -9.802990e-02   1.103134e-01   0.000000e+00
   0.000000e+00   0.000000e+00   0.000000e+00
   7.407709e-04  -4.255999e-02   0.000000e+00
  -3.358917e-02  -2.245782e-02   0.000000e+00
   1.653489e-01   9.727374e-02   0.000000e+00
   3.270559e-02   1.358610e-01   0.000000e+00
   2.075554e-02  -7.807558e-02   0.000000e+00
   7.222921e-02  -1.029457e-01   0.000000e+00
   3.131829e-02  -6.716116e-02   0.000000e+00
   1.901932e-02  -2.877514e-03   0.000000e+00
   0.000000e+00   0.000000e+00   0.000000e+00
  -5.585083e-02  -6.743163e-02   0.000000e+00
   0.000000e+00   0.000000e+00   0.000000e+00
   1.427783e-01  -1.139827e-01   0.000000e+00
   3.929020e-02   1.288913e-01   0.000000e+00
   0.000000e+00   0.000000e+00   0.000000e+00
   0.000000e+00   0.000000e+00   0.000000e+00
   1.389243e-01  -1.539275e-01   0.000000e+00
   0.000000e+00   0.000000e+00   0.000000e+00
   0.000000e+00   0.000000e+00   0.000000e+00
  -6.142126e-02  -5.983073e-02   0.000000e+00
   1.410181e-01   5.225634e-02   0.000000e+00
   1.044144e-01   2.364441e-01   0.000000e+00
  -9.202285e-04   1.140507e-01   0.000000e+00
VECTORS Imag_Arrow_1.000000e+03(Hz) float
  -9.247796e-03  -2.892965e-02   0.000000e+00
  -4.647150e-02   5.108500e-02   0.000000e+00
  -2.889188e-02   4.008712e-02   0.000000e+00
  -1.270648e-02  -1.099269e-01   0.000000e+00
  -1.478725e-02  -3.570346e-02   0.000000e+00
  -2.187029e-02   1.509185e-02   0.000000e+00
   2.965195e-03  -1.890850e-03   0.000000e+00
  -5.033107e-02   4.936859e-02   0.000000e+00
   0.000000e+00   0.000000e+00   0.000000e+00
   2.363906e-02  -8.458473e-03   0.000000e+00
  -2.093744e-02   3.375237e-03   0.000000e+00
   3.631054e-04  -1.907902e-02   0.000000e+00
   4.724877e-03   1.566729e-01   0.000000e+00
  -5.232971e-02   1.109481e-02   0.000000e+00
   0.000000e+00   0.000000e+00   0.000000e+00
   3.234382e-02   1.378944e-02   0.000000e+00
  -4.196644e-02  -8.470417e-02   0.000000e+00
   3.152029e-03   4.641233e-02   0.000000e+00
   0.000000e+00   0.000000e+00   0.000000e+00
  -2.855301e-02   7.315856e-03   0.000000e+00
  -9.636546e-03  -6.445210e-03   0.000000e+00
   3.267512e-02   1.671696e-02   0.000000e+00
  -5.961057e-03   1.119092e-02   0.000000e+00
   0.000000e+00   0.000000e+00   0.000000e+00
  -4.063656e-02  -1.070576e-02   0.000000e+00
   1.274030e-02  -2.949751e-02   0.000000e+00
  -3.360951e-02   5.497620e-02   0.000000e+00
  -1.238152e-03   1.580113e-02   0.000000e+00
   1.182030e-02   6.748220e-02   0.000000e+00
  -1.826768e-02   1.538081e-02   0.000000e+00
  -8.103665e-03   2.340686e-02   0.000000e+00
   1.970414e-02  -2.478932e-02   0.000000e+00
   0.000000e+00   0.000000e+00   0.000000e+00
   4.722037e-02   8.207288e-02   0.000000e+00
   0.000000e+00   0.000000e+00   0.000000e+00
  -3.676684e-02  -2.825732e-02   0.000000e+00
  -2.749514e-02   5.425770e-02   0.000000e+00
   0.000000e+00   0.000000e+00   0.000000e+00
   0.000000e+00   0.000000e+00   0.000000e+00
  -2.764656e-02   5.833141e-02   0.000000e+00
   0.000000e+00   0.000000e+00   0.000000e+00
   0.000000e+00   0.000000e+00   0.000000e+00
  -6.814243e-02  -1.811427e-02   0.000000e+00
  -5.018291e-02  -5.440345e-02   0.000000e+00
  -3.669550e-02   9.123760e-02   0.000000e+00
   1.534208e-02  -2.392128e-02   0.000000e+00
