# vtk DataFile Version 2.0
Induction_Arrow_Iter6_PE1
ASCII
DATASET UNSTRUCTURED_GRID
POINTS 46 float
  -2.052000e+03    1.667000e+03   -4.526633e+02
  -1.265000e+03    2.333000e+03   -4.555885e+02
  -9.840000e+02    2.568000e+03   -4.612271e+02
   1.700000e+03   -1.757000e+03   -5.237752e+02
  -1.152000e+03    1.382000e+03   -4.549280e+02
   3.187000e+03    1.067000e+03   -8.370176e+02
   4.716000e+03    9.370000e+02   -8.015281e+02
  -1.855000e+03    5.260000e+02   -5.147377e+02
  -1.420000e+02   -1.905000e+03   -4.746368e+02
  -5.800000e+01    1.069000e+03   -4.555494e+02
  -2.802000e+03    3.302000e+03   -4.314337e+02
  -5.640000e+03   -1.532000e+03   -4.911771e+02
  -8.030000e+02   -5.610000e+02   -5.280929e+02
   1.008000e+03    4.130000e+02   -5.983358e+02
   1.960000e+02    2.246000e+03   -5.219413e+02
  -3.457000e+03    8.320000e+02   -4.470735e+02
   5.640000e+03    2.452000e+03   -7.393049e+02
  -1.334000e+03    3.332000e+03   -4.456136e+02
   1.244000e+03    1.880000e+03   -6.331107e+02
  -2.680000e+02    2.144000e+03   -4.891390e+02
  -4.063000e+03    6.620000e+02   -4.746103e+02
  -1.258000e+03    6.330000e+02   -4.856841e+02
  -2.141000e+03    3.194000e+03   -4.348461e+02
  -3.469000e+03   -3.059000e+03   -6.067613e+02
  -1.604000e+03   -2.570000e+02   -5.141257e+02
  -1.454000e+03    2.220000e+02   -5.386025e+02
   1.864000e+03    1.270000e+02   -7.404291e+02
   2.449000e+03    5.590000e+02   -7.805292e+02
  -1.834000e+03   -1.554000e+03   -6.273074e+02
   1.807000e+03    2.297000e+03   -6.825557e+02
  -2.560000e+03   -1.783000e+03   -6.131337e+02
  -2.741000e+03   -5.010000e+02   -5.080000e+02
   2.884000e+03   -2.179000e+03   -5.274708e+02
  -6.120000e+02   -8.960000e+02   -5.895389e+02
  -1.985000e+03   -2.653000e+03   -5.598834e+02
  -3.390000e+03   -4.000000e+02   -4.982361e+02
   1.586000e+03    1.342000e+03   -6.618442e+02
   1.047000e+03    2.401000e+03   -5.426792e+02
   8.380000e+02   -1.300000e+03   -4.783644e+02
   2.569000e+03    2.441000e+03   -6.035668e+02
  -2.028000e+03    2.833000e+03   -4.322286e+02
  -1.086000e+03    1.998000e+03   -4.563301e+02
   1.514000e+03   -3.332000e+03   -5.646205e+02
   7.040000e+02    1.116000e+03   -5.365099e+02
   1.990000e+03    6.360000e+02   -7.085272e+02
   3.722000e+03   -1.700000e+02   -6.745213e+02
CELLS 46 92
1 0
1 1
1 2
1 3
1 4
1 5
1 6
1 7
1 8
1 9
1 10
1 11
1 12
1 13
1 14
1 15
1 16
1 17
1 18
1 19
1 20
1 21
1 22
1 23
1 24
1 25
1 26
1 27
1 28
1 29
1 30
1 31
1 32
1 33
1 34
1 35
1 36
1 37
1 38
1 39
1 40
1 41
1 42
1 43
1 44
1 45
CELL_TYPES 46
1
1
1
1
1
1
1
1
1
1
1
1
1
1
1
1
1
1
1
1
1
1
1
1
1
1
1
1
1
1
1
1
1
1
1
1
1
1
1
1
1
1
1
1
1
1
POINT_DATA 46
VECTORS Real_Arrow_3.981000e-01(Hz) float
   0.000000e+00   0.000000e+00   0.000000e+00
   0.000000e+00   0.000000e+00   0.000000e+00
   0.000000e+00   0.000000e+00   0.000000e+00
   6.247618e-03  -3.614592e-01   0.000000e+00
   0.000000e+00   0.000000e+00   0.000000e+00
   0.000000e+00   0.000000e+00   0.000000e+00
   0.000000e+00   0.000000e+00   0.000000e+00
   0.000000e+00   0.000000e+00   0.000000e+00
   0.000000e+00   0.000000e+00   0.000000e+00
  -1.170252e-01  -1.079276e-01   0.000000e+00
  -1.784930e-01   1.473038e-02   0.000000e+00
   0.000000e+00   0.000000e+00   0.000000e+00
   0.000000e+00   0.000000e+00   0.000000e+00
   0.000000e+00   0.000000e+00   0.000000e+00
   0.000000e+00   0.000000e+00   0.000000e+00
   0.000000e+00   0.000000e+00   0.000000e+00
   7.413615e-02  -8.142014e-02   0.000000e+00
   0.000000e+00   0.000000e+00   0.000000e+00
   0.000000e+00   0.000000e+00   0.000000e+00
   0.000000e+00   0.000000e+00   0.000000e+00
   0.000000e+00   0.000000e+00   0.000000e+00
   0.000000e+00   0.000000e+00   0.000000e+00
   0.000000e+00   0.000000e+00   0.000000e+00
   0.000000e+00   0.000000e+00   0.000000e+00
   0.000000e+00   0.000000e+00   0.000000e+00
   0.000000e+00   0.000000e+00   0.000000e+00
  -2.136589e-02  -1.829160e-01   0.000000e+00
   8.705352e-03  -1.504834e-01   0.000000e+00
   0.000000e+00   0.000000e+00   0.000000e+00
  -1.005302e-02  -6.486690e-02   0.000000e+00
   0.000000e+00   0.000000e+00   0.000000e+00
   0.000000e+00   0.000000e+00   0.000000e+00
   0.000000e+00   0.000000e+00   0.000000e+00
  -3.576305e-03  -1.024640e-01   0.000000e+00
   0.000000e+00   0.000000e+00   0.000000e+00
   0.000000e+00   0.000000e+00   0.000000e+00
   0.000000e+00   0.000000e+00   0.000000e+00
   0.000000e+00   0.000000e+00   0.000000e+00
  -7.526896e-02  -2.957719e-01   0.000000e+00
  -6.511720e-02   9.727758e-02   0.000000e+00
  -1.140741e-01  -3.382292e-02   0.000000e+00
   0.000000e+00   0.000000e+00   0.000000e+00
   0.000000e+00   0.000000e+00   0.000000e+00
   0.000000e+00   0.000000e+00   0.000000e+00
   0.000000e+00   0.000000e+00   0.000000e+00
   0.000000e+00   0.000000e+00   0.000000e+00
VECTORS Imag_Arrow_3.981000e-01(Hz) float
   0.000000e+00   0.000000e+00   0.000000e+00
   0.000000e+00   0.000000e+00   0.000000e+00
   0.000000e+00   0.000000e+00   0.000000e+00
   7.443630e-02   5.963802e-02   0.000000e+00
   0.000000e+00   0.000000e+00   0.000000e+00
   0.000000e+00   0.000000e+00   0.000000e+00
   0.000000e+00   0.000000e+00   0.000000e+00
   0.000000e+00   0.000000e+00   0.000000e+00
   0.000000e+00   0.000000e+00   0.000000e+00
   9.810490e-02  -1.737192e-02   0.000000e+00
   8.135440e-02  -5.203771e-02   0.000000e+00
   0.000000e+00   0.000000e+00   0.000000e+00
   0.000000e+00   0.000000e+00   0.000000e+00
   0.000000e+00   0.000000e+00   0.000000e+00
   0.000000e+00   0.000000e+00   0.000000e+00
   0.000000e+00   0.000000e+00   0.000000e+00
   9.231258e-02  -2.470376e-02   0.000000e+00
   0.000000e+00   0.000000e+00   0.000000e+00
   0.000000e+00   0.000000e+00   0.000000e+00
   0.000000e+00   0.000000e+00   0.000000e+00
   0.000000e+00   0.000000e+00   0.000000e+00
   0.000000e+00   0.000000e+00   0.000000e+00
   0.000000e+00   0.000000e+00   0.000000e+00
   0.000000e+00   0.000000e+00   0.000000e+00
   0.000000e+00   0.000000e+00   0.000000e+00
   0.000000e+00   0.000000e+00   0.000000e+00
   9.540744e-02   1.569501e-03   0.000000e+00
   8.596897e-02  -1.129054e-02   0.000000e+00
   0.000000e+00   0.000000e+00   0.000000e+00
   7.359030e-02  -2.179515e-02   0.000000e+00
   0.000000e+00   0.000000e+00   0.000000e+00
   0.000000e+00   0.000000e+00   0.000000e+00
   0.000000e+00   0.000000e+00   0.000000e+00
   2.713297e-02  -3.101186e-02   0.000000e+00
   0.000000e+00   0.000000e+00   0.000000e+00
   0.000000e+00   0.000000e+00   0.000000e+00
   0.000000e+00   0.000000e+00   0.000000e+00
   0.000000e+00   0.000000e+00   0.000000e+00
   1.096129e-01   4.290480e-02   0.000000e+00
   9.732338e-02  -8.551878e-02   0.000000e+00
   6.198518e-02  -3.462969e-02   0.000000e+00
   0.000000e+00   0.000000e+00   0.000000e+00
   0.000000e+00   0.000000e+00   0.000000e+00
   0.000000e+00   0.000000e+00   0.000000e+00
   0.000000e+00   0.000000e+00   0.000000e+00
   0.000000e+00   0.000000e+00   0.000000e+00
VECTORS Real_Arrow_6.309500e-01(Hz) float
   0.000000e+00   0.000000e+00   0.000000e+00
  -1.707534e-01  -1.157700e-03   0.000000e+00
   0.000000e+00   0.000000e+00   0.000000e+00
  -1.932571e-02  -3.823506e-01   0.000000e+00
  -1.561101e-01  -8.954210e-02   0.000000e+00
   0.000000e+00   0.000000e+00   0.000000e+00
   1.058605e-01  -1.548251e-01   0.000000e+00
   0.000000e+00   0.000000e+00   0.000000e+00
   0.000000e+00   0.000000e+00   0.000000e+00
  -1.499361e-01  -1.031360e-01   0.000000e+00
  -2.038858e-01   3.260547e-02   0.000000e+00
   0.000000e+00   0.000000e+00   0.000000e+00
   0.000000e+00   0.000000e+00   0.000000e+00
  -1.603064e-01  -1.360085e-01   0.000000e+00
  -1.084493e-01  -2.319271e-02   0.000000e+00
   0.000000e+00   0.000000e+00   0.000000e+00
   4.677632e-02  -7.091761e-02   0.000000e+00
   0.000000e+00   0.000000e+00   0.000000e+00
   0.000000e+00   0.000000e+00   0.000000e+00
   0.000000e+00   0.000000e+00   0.000000e+00
   0.000000e+00   0.000000e+00   0.000000e+00
   0.000000e+00   0.000000e+00   0.000000e+00
  -1.529117e-01   1.778859e-02   0.000000e+00
   0.000000e+00   0.000000e+00   0.000000e+00
   0.000000e+00   0.000000e+00   0.000000e+00
   0.000000e+00   0.000000e+00   0.000000e+00
  -5.296439e-02  -1.860450e-01   0.000000e+00
  -1.959380e-02  -1.495514e-01   0.000000e+00
   0.000000e+00   0.000000e+00   0.000000e+00
  -3.546544e-02  -5.674857e-02   0.000000e+00
  -9.741838e-02  -7.573110e-02   0.000000e+00
  -1.864159e-01  -7.024824e-02   0.000000e+00
   0.000000e+00   0.000000e+00   0.000000e+00
  -1.426646e-02  -9.766024e-02   0.000000e+00
   0.000000e+00   0.000000e+00   0.000000e+00
   0.000000e+00   0.000000e+00   0.000000e+00
  -1.150055e-01  -3.512779e-02   0.000000e+00
   0.000000e+00   0.000000e+00   0.000000e+00
   0.000000e+00   0.000000e+00   0.000000e+00
  -9.743101e-02   1.241507e-01   0.000000e+00
  -1.336731e-01  -2.082692e-02   0.000000e+00
  -1.488090e-01  -3.712567e-02   0.000000e+00
   0.000000e+00   0.000000e+00   0.000000e+00
  -1.493930e-01  -9.933472e-02   0.000000e+00
   0.000000e+00   0.000000e+00   0.000000e+00
   0.000000e+00   0.000000e+00   0.000000e+00
VECTORS Imag_Arrow_6.309500e-01(Hz) float
   0.000000e+00   0.000000e+00   0.000000e+00
   6.565155e-02  -5.220988e-02   0.000000e+00
   0.000000e+00   0.000000e+00   0.000000e+00
   5.957452e-02   6.379313e-02   0.000000e+00
   6.716757e-02  -1.430828e-02   0.000000e+00
   0.000000e+00   0.000000e+00   0.000000e+00
   4.642883e-02  -4.435436e-03   0.000000e+00
   0.000000e+00   0.000000e+00   0.000000e+00
   0.000000e+00   0.000000e+00   0.000000e+00
   8.043149e-02  -1.868216e-02   0.000000e+00
   6.085607e-02  -5.279783e-02   0.000000e+00
   0.000000e+00   0.000000e+00   0.000000e+00
   0.000000e+00   0.000000e+00   0.000000e+00
   1.237490e-01  -1.815410e-02   0.000000e+00
   5.698520e-02  -4.349455e-02   0.000000e+00
   0.000000e+00   0.000000e+00   0.000000e+00
   8.156697e-02  -2.193406e-02   0.000000e+00
   0.000000e+00   0.000000e+00   0.000000e+00
   0.000000e+00   0.000000e+00   0.000000e+00
   0.000000e+00   0.000000e+00   0.000000e+00
   0.000000e+00   0.000000e+00   0.000000e+00
   0.000000e+00   0.000000e+00   0.000000e+00
   4.537987e-02  -5.114308e-02   0.000000e+00
   0.000000e+00   0.000000e+00   0.000000e+00
   0.000000e+00   0.000000e+00   0.000000e+00
   0.000000e+00   0.000000e+00   0.000000e+00
   8.386220e-02  -1.717437e-03   0.000000e+00
   7.394252e-02  -1.669522e-02   0.000000e+00
   0.000000e+00   0.000000e+00   0.000000e+00
   5.753312e-02  -2.106450e-02   0.000000e+00
   4.174033e-02  -1.104341e-02   0.000000e+00
   7.400999e-02  -1.672421e-02   0.000000e+00
   0.000000e+00   0.000000e+00   0.000000e+00
   7.738099e-03  -4.211164e-02   0.000000e+00
   0.000000e+00   0.000000e+00   0.000000e+00
   0.000000e+00   0.000000e+00   0.000000e+00
   9.381634e-02  -5.570085e-02   0.000000e+00
   0.000000e+00   0.000000e+00   0.000000e+00
   0.000000e+00   0.000000e+00   0.000000e+00
   7.868492e-02  -9.866380e-02   0.000000e+00
   4.187269e-02  -3.309724e-02   0.000000e+00
   6.056006e-02  -3.743781e-02   0.000000e+00
   0.000000e+00   0.000000e+00   0.000000e+00
   1.000919e-01  -2.082284e-02   0.000000e+00
   0.000000e+00   0.000000e+00   0.000000e+00
   0.000000e+00   0.000000e+00   0.000000e+00
VECTORS Real_Arrow_1.000000e+00(Hz) float
  -1.604214e-01  -7.032947e-02   0.000000e+00
  -1.913571e-01   1.540294e-02   0.000000e+00
   0.000000e+00   0.000000e+00   0.000000e+00
  -3.887054e-02  -4.076706e-01   0.000000e+00
  -1.778858e-01  -8.457697e-02   0.000000e+00
   0.000000e+00   0.000000e+00   0.000000e+00
   9.412623e-02  -1.546828e-01   0.000000e+00
  -1.896759e-01  -3.598233e-02   0.000000e+00
   0.000000e+00   0.000000e+00   0.000000e+00
  -1.768963e-01  -9.830510e-02   0.000000e+00
  -2.217212e-01   5.172873e-02   0.000000e+00
  -2.738615e-01  -8.318707e-02   0.000000e+00
   0.000000e+00   0.000000e+00   0.000000e+00
  -1.998883e-01  -1.345086e-01   0.000000e+00
   0.000000e+00   0.000000e+00   0.000000e+00
   0.000000e+00   0.000000e+00   0.000000e+00
   2.678078e-02  -6.131377e-02   0.000000e+00
   0.000000e+00   0.000000e+00   0.000000e+00
   0.000000e+00   0.000000e+00   0.000000e+00
   0.000000e+00   0.000000e+00   0.000000e+00
   0.000000e+00   0.000000e+00   0.000000e+00
   0.000000e+00   0.000000e+00   0.000000e+00
  -1.657396e-01   3.598810e-02   0.000000e+00
   0.000000e+00   0.000000e+00   0.000000e+00
   0.000000e+00   0.000000e+00   0.000000e+00
   0.000000e+00   0.000000e+00   0.000000e+00
  -7.937745e-02  -1.900200e-01   0.000000e+00
  -4.206921e-02  -1.483411e-01   0.000000e+00
   0.000000e+00   0.000000e+00   0.000000e+00
  -5.499996e-02  -4.883563e-02   0.000000e+00
  -1.117023e-01  -7.575902e-02   0.000000e+00
  -2.105875e-01  -6.827485e-02   0.000000e+00
   0.000000e+00   0.000000e+00   0.000000e+00
  -1.916134e-02  -9.022500e-02   0.000000e+00
   0.000000e+00   0.000000e+00   0.000000e+00
   0.000000e+00   0.000000e+00   0.000000e+00
  -1.451370e-01  -2.097964e-02   0.000000e+00
   0.000000e+00   0.000000e+00   0.000000e+00
  -1.418769e-01  -3.303553e-01   0.000000e+00
  -1.228224e-01   1.598724e-01   0.000000e+00
  -1.456557e-01  -7.422193e-03   0.000000e+00
  -1.685259e-01  -2.477241e-02   0.000000e+00
   0.000000e+00   0.000000e+00   0.000000e+00
  -1.827590e-01  -9.379485e-02   0.000000e+00
   0.000000e+00   0.000000e+00   0.000000e+00
   0.000000e+00   0.000000e+00   0.000000e+00
VECTORS Imag_Arrow_1.000000e+00(Hz) float
   2.631036e-02  -1.049656e-02   0.000000e+00
   4.045356e-02  -5.655959e-02   0.000000e+00
   0.000000e+00   0.000000e+00   0.000000e+00
   3.961751e-02   6.502497e-02   0.000000e+00
   4.421468e-02  -1.163479e-02   0.000000e+00
   0.000000e+00   0.000000e+00   0.000000e+00
   3.222253e-02  -6.320793e-03   0.000000e+00
   3.743674e-02  -5.010154e-02   0.000000e+00
   0.000000e+00   0.000000e+00   0.000000e+00
   5.713848e-02  -2.093335e-02   0.000000e+00
   3.650181e-02  -5.132866e-02   0.000000e+00
   4.928318e-02  -1.073219e-02   0.000000e+00
   0.000000e+00   0.000000e+00   0.000000e+00
   1.101200e-01  -2.615789e-02   0.000000e+00
   0.000000e+00   0.000000e+00   0.000000e+00
   0.000000e+00   0.000000e+00   0.000000e+00
   7.125188e-02  -1.557973e-02   0.000000e+00
   0.000000e+00   0.000000e+00   0.000000e+00
   0.000000e+00   0.000000e+00   0.000000e+00
   0.000000e+00   0.000000e+00   0.000000e+00
   0.000000e+00   0.000000e+00   0.000000e+00
   0.000000e+00   0.000000e+00   0.000000e+00
   2.038369e-02  -5.099369e-02   0.000000e+00
   0.000000e+00   0.000000e+00   0.000000e+00
   0.000000e+00   0.000000e+00   0.000000e+00
   0.000000e+00   0.000000e+00   0.000000e+00
   6.830500e-02  -8.511175e-03   0.000000e+00
   5.834884e-02  -2.568898e-02   0.000000e+00
   0.000000e+00   0.000000e+00   0.000000e+00
   3.627754e-02  -1.831540e-02   0.000000e+00
   3.056695e-02  -1.438275e-02   0.000000e+00
   6.069434e-02  -1.965770e-02   0.000000e+00
   0.000000e+00   0.000000e+00   0.000000e+00
  -1.755942e-02  -5.995898e-02   0.000000e+00
   0.000000e+00   0.000000e+00   0.000000e+00
   0.000000e+00   0.000000e+00   0.000000e+00
   7.500416e-02  -7.013725e-02   0.000000e+00
   0.000000e+00   0.000000e+00   0.000000e+00
   8.474735e-02   5.147221e-02   0.000000e+00
   5.516654e-02  -1.131361e-01   0.000000e+00
   1.792376e-02  -2.859123e-02   0.000000e+00
   3.537099e-02  -3.888802e-02   0.000000e+00
   0.000000e+00   0.000000e+00   0.000000e+00
   7.972105e-02  -2.372677e-02   0.000000e+00
   0.000000e+00   0.000000e+00   0.000000e+00
   0.000000e+00   0.000000e+00   0.000000e+00
VECTORS Real_Arrow_1.584800e+00(Hz) float
  -1.673521e-01  -6.642544e-02   0.000000e+00
  -2.022537e-01   3.501958e-02   0.000000e+00
   0.000000e+00   0.000000e+00   0.000000e+00
   0.000000e+00   0.000000e+00   0.000000e+00
  -1.917959e-01  -8.004651e-02   0.000000e+00
  -2.755194e-02  -1.004884e-01   0.000000e+00
   8.997706e-02  -1.544020e-01   0.000000e+00
  -2.028971e-01  -2.018551e-02   0.000000e+00
   0.000000e+00   0.000000e+00   0.000000e+00
  -1.964257e-01  -9.214598e-02   0.000000e+00
  -2.300043e-01   7.218015e-02   0.000000e+00
  -3.008946e-01  -8.870032e-02   0.000000e+00
   0.000000e+00   0.000000e+00   0.000000e+00
  -2.364095e-01  -1.307943e-01   0.000000e+00
   0.000000e+00   0.000000e+00   0.000000e+00
   0.000000e+00   0.000000e+00   0.000000e+00
   1.241779e-02  -5.365620e-02   0.000000e+00
   0.000000e+00   0.000000e+00   0.000000e+00
   0.000000e+00   0.000000e+00   0.000000e+00
   0.000000e+00   0.000000e+00   0.000000e+00
   0.000000e+00   0.000000e+00   0.000000e+00
  -2.260078e-01  -8.626898e-02   0.000000e+00
  -1.680336e-01   5.569805e-02   0.000000e+00
   0.000000e+00   0.000000e+00   0.000000e+00
   0.000000e+00   0.000000e+00   0.000000e+00
   0.000000e+00   0.000000e+00   0.000000e+00
  -9.989575e-02  -1.931849e-01   0.000000e+00
  -5.792234e-02  -1.446562e-01   0.000000e+00
  -1.184141e-01  -8.046702e-02   0.000000e+00
  -6.699866e-02  -4.217404e-02   0.000000e+00
  -1.246309e-01  -7.369305e-02   0.000000e+00
  -2.331527e-01  -6.491725e-02   0.000000e+00
   5.440297e-02  -4.970200e-02   0.000000e+00
  -1.412077e-02  -7.539504e-02   0.000000e+00
   0.000000e+00   0.000000e+00   0.000000e+00
   0.000000e+00   0.000000e+00   0.000000e+00
  -1.692916e-01  -2.451039e-04   0.000000e+00
  -1.364218e-01   1.110442e-02   0.000000e+00
  -1.682213e-01  -3.548515e-01   0.000000e+00
  -1.409463e-01   2.106509e-01   0.000000e+00
   0.000000e+00   0.000000e+00   0.000000e+00
  -1.789405e-01  -1.058202e-02   0.000000e+00
   0.000000e+00   0.000000e+00   0.000000e+00
  -2.101557e-01  -8.658261e-02   0.000000e+00
   0.000000e+00   0.000000e+00   0.000000e+00
   0.000000e+00   0.000000e+00   0.000000e+00
VECTORS Imag_Arrow_1.584800e+00(Hz) float
   4.074260e-04  -5.407557e-03   0.000000e+00
   1.023371e-02  -6.054550e-02   0.000000e+00
   0.000000e+00   0.000000e+00   0.000000e+00
   0.000000e+00   0.000000e+00   0.000000e+00
   1.587098e-02  -8.328343e-03   0.000000e+00
   4.464360e-02  -4.203392e-02   0.000000e+00
   1.983430e-02  -1.045278e-02   0.000000e+00
   8.083782e-03  -6.230497e-02   0.000000e+00
   0.000000e+00   0.000000e+00   0.000000e+00
   2.732587e-02  -2.487845e-02   0.000000e+00
   8.752450e-03  -4.598715e-02   0.000000e+00
   2.085950e-02  -2.852432e-02   0.000000e+00
   0.000000e+00   0.000000e+00   0.000000e+00
   9.240901e-02  -4.030986e-02   0.000000e+00
   0.000000e+00   0.000000e+00   0.000000e+00
   0.000000e+00   0.000000e+00   0.000000e+00
   6.573701e-02  -5.702606e-03   0.000000e+00
   0.000000e+00   0.000000e+00   0.000000e+00
   0.000000e+00   0.000000e+00   0.000000e+00
   0.000000e+00   0.000000e+00   0.000000e+00
   0.000000e+00   0.000000e+00   0.000000e+00
   2.813090e-02  -2.459604e-02   0.000000e+00
  -7.638295e-03  -4.760180e-02   0.000000e+00
   0.000000e+00   0.000000e+00   0.000000e+00
   0.000000e+00   0.000000e+00   0.000000e+00
   0.000000e+00   0.000000e+00   0.000000e+00
   4.981123e-02  -2.201559e-02   0.000000e+00
   4.101106e-02  -4.088594e-02   0.000000e+00
   1.049369e-02  -3.131280e-02   0.000000e+00
   9.659517e-03  -1.374228e-02   0.000000e+00
   1.431021e-02  -2.235332e-02   0.000000e+00
   4.210970e-02  -2.686333e-02   0.000000e+00
  -4.519360e-02  -7.576127e-02   0.000000e+00
  -5.026378e-02  -8.658936e-02   0.000000e+00
   0.000000e+00   0.000000e+00   0.000000e+00
   0.000000e+00   0.000000e+00   0.000000e+00
   5.175220e-02  -8.961257e-02   0.000000e+00
   2.337353e-02  -4.610040e-02   0.000000e+00
   6.686140e-02   4.870911e-02   0.000000e+00
   2.678029e-02  -1.224674e-01   0.000000e+00
   0.000000e+00   0.000000e+00   0.000000e+00
   4.575924e-03  -3.956808e-02   0.000000e+00
   0.000000e+00   0.000000e+00   0.000000e+00
   5.300787e-02  -2.832803e-02   0.000000e+00
   0.000000e+00   0.000000e+00   0.000000e+00
   0.000000e+00   0.000000e+00   0.000000e+00
VECTORS Real_Arrow_2.511800e+00(Hz) float
  -1.631589e-01  -6.317044e-02   0.000000e+00
  -1.991202e-01   5.879502e-02   0.000000e+00
   0.000000e+00   0.000000e+00   0.000000e+00
  -4.883264e-02  -4.656400e-01   0.000000e+00
  -1.940276e-01  -7.489343e-02   0.000000e+00
  -3.739780e-02  -8.510932e-02   0.000000e+00
   9.058503e-02  -1.514100e-01   0.000000e+00
  -2.035080e-01   5.281659e-03   0.000000e+00
   8.518453e-02  -1.903697e-01   0.000000e+00
  -2.047058e-01  -8.205218e-02   0.000000e+00
  -2.255454e-01   9.298325e-02   0.000000e+00
  -3.151491e-01  -8.062202e-02   0.000000e+00
   0.000000e+00   0.000000e+00   0.000000e+00
  -2.697957e-01  -1.197796e-01   0.000000e+00
  -1.314183e-01   2.854621e-02   0.000000e+00
   0.000000e+00   0.000000e+00   0.000000e+00
  -9.988292e-04  -4.839454e-02   0.000000e+00
   0.000000e+00   0.000000e+00   0.000000e+00
   0.000000e+00   0.000000e+00   0.000000e+00
   0.000000e+00   0.000000e+00   0.000000e+00
   0.000000e+00   0.000000e+00   0.000000e+00
  -2.341147e-01  -7.542324e-02   0.000000e+00
  -1.564620e-01   7.618156e-02   0.000000e+00
  -1.670953e-01  -1.310486e-01   0.000000e+00
   0.000000e+00   0.000000e+00   0.000000e+00
   0.000000e+00   0.000000e+00   0.000000e+00
  -1.141226e-01  -1.902935e-01   0.000000e+00
  -6.739826e-02  -1.331121e-01   0.000000e+00
  -1.215881e-01  -6.938611e-02   0.000000e+00
  -6.838055e-02  -3.686659e-02   0.000000e+00
  -1.315605e-01  -6.551075e-02   0.000000e+00
  -2.503775e-01  -5.635220e-02   0.000000e+00
   9.430196e-02  -1.215319e-02   0.000000e+00
   7.977540e-03  -4.565550e-02   0.000000e+00
  -6.669022e-02  -1.102349e-01   0.000000e+00
   0.000000e+00   0.000000e+00   0.000000e+00
  -1.861165e-01   3.179118e-02   0.000000e+00
  -1.423665e-01   2.847277e-02   0.000000e+00
  -1.878668e-01  -3.808548e-01   0.000000e+00
  -1.500038e-01   2.775571e-01   0.000000e+00
   0.000000e+00   0.000000e+00   0.000000e+00
  -1.757504e-01   6.588365e-03   0.000000e+00
   0.000000e+00   0.000000e+00   0.000000e+00
  -2.288727e-01  -7.509005e-02   0.000000e+00
   0.000000e+00   0.000000e+00   0.000000e+00
   0.000000e+00   0.000000e+00   0.000000e+00
VECTORS Imag_Arrow_2.511800e+00(Hz) float
  -2.877469e-02   1.261052e-03   0.000000e+00
  -2.342253e-02  -6.085359e-02   0.000000e+00
   0.000000e+00   0.000000e+00   0.000000e+00
  -1.170384e-02   3.801782e-02   0.000000e+00
  -1.786935e-02  -3.146667e-03   0.000000e+00
   3.332979e-02  -5.489989e-02   0.000000e+00
   1.318357e-02  -1.690223e-02   0.000000e+00
  -2.897681e-02  -7.450709e-02   0.000000e+00
  -1.022264e-01  -8.849723e-03   0.000000e+00
  -9.995594e-03  -2.906014e-02   0.000000e+00
  -1.998649e-02  -3.321937e-02   0.000000e+00
  -3.084960e-02  -6.002854e-02   0.000000e+00
   0.000000e+00   0.000000e+00   0.000000e+00
   6.772343e-02  -6.092094e-02   0.000000e+00
  -3.764319e-02  -4.060563e-02   0.000000e+00
   0.000000e+00   0.000000e+00   0.000000e+00
   6.787441e-02   8.667615e-03   0.000000e+00
   0.000000e+00   0.000000e+00   0.000000e+00
   0.000000e+00   0.000000e+00   0.000000e+00
   0.000000e+00   0.000000e+00   0.000000e+00
   0.000000e+00   0.000000e+00   0.000000e+00
  -6.981990e-03  -2.847331e-02   0.000000e+00
  -3.525568e-02  -3.772177e-02   0.000000e+00
   4.021072e-03   8.871320e-03   0.000000e+00
   0.000000e+00   0.000000e+00   0.000000e+00
   0.000000e+00   0.000000e+00   0.000000e+00
   2.900266e-02  -4.414100e-02   0.000000e+00
   2.369717e-02  -6.266368e-02   0.000000e+00
  -1.578556e-02  -4.523507e-02   0.000000e+00
  -2.223300e-02  -7.796970e-03   0.000000e+00
  -1.036976e-02  -3.351932e-02   0.000000e+00
   1.394554e-02  -3.788456e-02   0.000000e+00
  -7.190452e-02  -9.636307e-02   0.000000e+00
  -8.808857e-02  -1.198828e-01   0.000000e+00
  -2.981724e-02   4.096688e-03   0.000000e+00
   0.000000e+00   0.000000e+00   0.000000e+00
   2.302319e-02  -1.107771e-01   0.000000e+00
  -1.171430e-02  -4.209417e-02   0.000000e+00
   4.487884e-02   3.445346e-02   0.000000e+00
  -8.451192e-03  -1.088802e-01   0.000000e+00
   0.000000e+00   0.000000e+00   0.000000e+00
  -3.082446e-02  -3.670669e-02   0.000000e+00
   0.000000e+00   0.000000e+00   0.000000e+00
   1.796063e-02  -3.298060e-02   0.000000e+00
   0.000000e+00   0.000000e+00   0.000000e+00
   0.000000e+00   0.000000e+00   0.000000e+00
VECTORS Real_Arrow_3.981000e+00(Hz) float
  -1.438040e-01  -6.183879e-02   0.000000e+00
  -1.776960e-01   8.281528e-02   0.000000e+00
   0.000000e+00   0.000000e+00   0.000000e+00
  -3.464998e-02  -4.843371e-01   0.000000e+00
  -1.795463e-01  -7.085758e-02   0.000000e+00
  -4.606875e-02  -6.118728e-02   0.000000e+00
   9.039615e-02  -1.448044e-01   0.000000e+00
  -1.836494e-01   4.103248e-02   0.000000e+00
   1.380369e-01  -1.829128e-01   0.000000e+00
  -1.959536e-01  -6.846288e-02   0.000000e+00
  -2.070398e-01   1.080812e-01   0.000000e+00
  -2.910340e-01  -4.437713e-02   0.000000e+00
   0.000000e+00   0.000000e+00   0.000000e+00
  -2.966602e-01  -9.722591e-02   0.000000e+00
  -1.090698e-01   4.531406e-02   0.000000e+00
   0.000000e+00   0.000000e+00   0.000000e+00
  -2.012156e-02  -4.820737e-02   0.000000e+00
   0.000000e+00   0.000000e+00   0.000000e+00
  -4.358776e-02  -1.648352e-02   0.000000e+00
   0.000000e+00   0.000000e+00   0.000000e+00
   0.000000e+00   0.000000e+00   0.000000e+00
  -2.250508e-01  -6.018950e-02   0.000000e+00
  -1.301141e-01   9.173806e-02   0.000000e+00
  -1.697064e-01  -1.318320e-01   0.000000e+00
   0.000000e+00   0.000000e+00   0.000000e+00
   0.000000e+00   0.000000e+00   0.000000e+00
  -1.217584e-01  -1.755108e-01   0.000000e+00
  -7.190127e-02  -1.092816e-01   0.000000e+00
  -1.095822e-01  -4.839511e-02   0.000000e+00
  -5.479412e-02  -3.251793e-02   0.000000e+00
   0.000000e+00   0.000000e+00   0.000000e+00
  -2.535694e-01  -3.889468e-02   0.000000e+00
   1.479912e-01   3.736277e-02   0.000000e+00
   5.303404e-02   4.795833e-03   0.000000e+00
  -4.902242e-02  -1.066287e-01   0.000000e+00
   0.000000e+00   0.000000e+00   0.000000e+00
   0.000000e+00   0.000000e+00   0.000000e+00
  -1.319236e-01   4.362838e-02   0.000000e+00
  -1.979680e-01  -4.018693e-01   0.000000e+00
  -1.433694e-01   3.397532e-01   0.000000e+00
  -1.114589e-01   2.229542e-02   0.000000e+00
  -1.542331e-01   2.354926e-02   0.000000e+00
   0.000000e+00   0.000000e+00   0.000000e+00
  -2.331443e-01  -5.978627e-02   0.000000e+00
  -1.393119e-01  -5.317277e-02   0.000000e+00
   6.805938e-02  -1.918946e-01   0.000000e+00
VECTORS Imag_Arrow_3.981000e+00(Hz) float
  -5.673758e-02   1.239591e-02   0.000000e+00
  -5.374736e-02  -5.201127e-02   0.000000e+00
   0.000000e+00   0.000000e+00   0.000000e+00
  -3.384654e-02   3.211569e-03   0.000000e+00
  -5.290185e-02   7.757923e-03   0.000000e+00
   2.400291e-02  -6.394522e-02   0.000000e+00
   1.237472e-02  -2.279333e-02   0.000000e+00
  -6.857226e-02  -7.751674e-02   0.000000e+00
  -1.215304e-01  -1.530142e-02   0.000000e+00
  -5.210907e-02  -2.839395e-02   0.000000e+00
  -4.279427e-02  -8.511058e-03   0.000000e+00
  -9.679708e-02  -9.188029e-02   0.000000e+00
   0.000000e+00   0.000000e+00   0.000000e+00
   3.201291e-02  -8.349572e-02   0.000000e+00
  -7.299695e-02  -2.651862e-02   0.000000e+00
   0.000000e+00   0.000000e+00   0.000000e+00
   7.610316e-02   2.970119e-02   0.000000e+00
   0.000000e+00   0.000000e+00   0.000000e+00
  -1.012821e-01  -5.139667e-03   0.000000e+00
   0.000000e+00   0.000000e+00   0.000000e+00
   0.000000e+00   0.000000e+00   0.000000e+00
  -4.625180e-02  -2.647908e-02   0.000000e+00
  -5.434192e-02  -1.706898e-02   0.000000e+00
  -3.311613e-02   1.200808e-03   0.000000e+00
   0.000000e+00   0.000000e+00   0.000000e+00
   0.000000e+00   0.000000e+00   0.000000e+00
   6.070132e-03  -7.172750e-02   0.000000e+00
   7.141910e-03  -8.590406e-02   0.000000e+00
  -4.517757e-02  -5.747451e-02   0.000000e+00
  -5.676478e-02   2.089981e-04   0.000000e+00
   0.000000e+00   0.000000e+00   0.000000e+00
  -2.418362e-02  -4.863547e-02   0.000000e+00
  -6.363550e-02  -9.658469e-02   0.000000e+00
  -1.210489e-01  -1.507049e-01   0.000000e+00
  -5.695564e-02   4.665722e-03   0.000000e+00
   0.000000e+00   0.000000e+00   0.000000e+00
   0.000000e+00   0.000000e+00   0.000000e+00
  -5.057438e-02  -3.282451e-02   0.000000e+00
   2.047371e-02   5.652851e-03   0.000000e+00
  -5.162437e-02  -5.072891e-02   0.000000e+00
  -5.597327e-02   2.264886e-02   0.000000e+00
  -6.505497e-02  -2.490112e-02   0.000000e+00
   0.000000e+00   0.000000e+00   0.000000e+00
  -2.549333e-02  -3.259401e-02   0.000000e+00
   1.902068e-02  -1.279365e-01   0.000000e+00
  -5.309240e-03  -6.827185e-02   0.000000e+00
