# vtk DataFile Version 2.0
Induction_Arrow_Iter0_PE5
ASCII
DATASET UNSTRUCTURED_GRID
POINTS 46 float
  -2.052000e+03    1.667000e+03   -4.526633e+02
  -1.265000e+03    2.333000e+03   -4.555885e+02
  -9.840000e+02    2.568000e+03   -4.612271e+02
   1.700000e+03   -1.757000e+03   -5.237752e+02
  -1.152000e+03    1.382000e+03   -4.549280e+02
   3.187000e+03    1.067000e+03   -8.370176e+02
   4.716000e+03    9.370000e+02   -8.015281e+02
  -1.855000e+03    5.260000e+02   -5.147377e+02
  -1.420000e+02   -1.905000e+03   -4.746368e+02
  -5.800000e+01    1.069000e+03   -4.555494e+02
  -2.802000e+03    3.302000e+03   -4.314337e+02
  -5.640000e+03   -1.532000e+03   -4.911771e+02
  -8.030000e+02   -5.610000e+02   -5.280929e+02
   1.008000e+03    4.130000e+02   -5.983358e+02
   1.960000e+02    2.246000e+03   -5.219413e+02
  -3.457000e+03    8.320000e+02   -4.470735e+02
   5.640000e+03    2.452000e+03   -7.393049e+02
  -1.334000e+03    3.332000e+03   -4.456136e+02
   1.244000e+03    1.880000e+03   -6.331107e+02
  -2.680000e+02    2.144000e+03   -4.891390e+02
  -4.063000e+03    6.620000e+02   -4.746103e+02
  -1.258000e+03    6.330000e+02   -4.856841e+02
  -2.141000e+03    3.194000e+03   -4.348461e+02
  -3.469000e+03   -3.059000e+03   -6.067613e+02
  -1.604000e+03   -2.570000e+02   -5.141257e+02
  -1.454000e+03    2.220000e+02   -5.386025e+02
   1.864000e+03    1.270000e+02   -7.404291e+02
   2.449000e+03    5.590000e+02   -7.805292e+02
  -1.834000e+03   -1.554000e+03   -6.273074e+02
   1.807000e+03    2.297000e+03   -6.825557e+02
  -2.560000e+03   -1.783000e+03   -6.131337e+02
  -2.741000e+03   -5.010000e+02   -5.080000e+02
   2.884000e+03   -2.179000e+03   -5.274708e+02
  -6.120000e+02   -8.960000e+02   -5.895389e+02
  -1.985000e+03   -2.653000e+03   -5.598834e+02
  -3.390000e+03   -4.000000e+02   -4.982361e+02
   1.586000e+03    1.342000e+03   -6.618442e+02
   1.047000e+03    2.401000e+03   -5.426792e+02
   8.380000e+02   -1.300000e+03   -4.783644e+02
   2.569000e+03    2.441000e+03   -6.035668e+02
  -2.028000e+03    2.833000e+03   -4.322286e+02
  -1.086000e+03    1.998000e+03   -4.563301e+02
   1.514000e+03   -3.332000e+03   -5.646205e+02
   7.040000e+02    1.116000e+03   -5.365099e+02
   1.990000e+03    6.360000e+02   -7.085272e+02
   3.722000e+03   -1.700000e+02   -6.745213e+02
CELLS 46 92
1 0
1 1
1 2
1 3
1 4
1 5
1 6
1 7
1 8
1 9
1 10
1 11
1 12
1 13
1 14
1 15
1 16
1 17
1 18
1 19
1 20
1 21
1 22
1 23
1 24
1 25
1 26
1 27
1 28
1 29
1 30
1 31
1 32
1 33
1 34
1 35
1 36
1 37
1 38
1 39
1 40
1 41
1 42
1 43
1 44
1 45
CELL_TYPES 46
1
1
1
1
1
1
1
1
1
1
1
1
1
1
1
1
1
1
1
1
1
1
1
1
1
1
1
1
1
1
1
1
1
1
1
1
1
1
1
1
1
1
1
1
1
1
POINT_DATA 46
VECTORS Real_Arrow_2.511800e+01(Hz) float
  -2.079649e-02  -1.261484e-01   0.000000e+00
  -7.825941e-02   1.057294e-01   0.000000e+00
   0.000000e+00   0.000000e+00   0.000000e+00
   4.197479e-02  -3.492411e-01   0.000000e+00
  -4.389872e-02  -1.392589e-01   0.000000e+00
  -2.824673e-02   2.394862e-02   0.000000e+00
   7.949481e-02  -1.140378e-01   0.000000e+00
  -3.388886e-02   9.674126e-02   0.000000e+00
   2.954927e-01  -1.916037e-01   0.000000e+00
   5.444104e-03  -5.556591e-02   0.000000e+00
  -1.277240e-01   1.713875e-02   0.000000e+00
  -8.104204e-02   4.244443e-02   0.000000e+00
   0.000000e+00   0.000000e+00   0.000000e+00
  -1.851994e-01   6.477978e-02   0.000000e+00
   6.053696e-02   2.161991e-02   0.000000e+00
   1.734076e-02   3.959489e-02   0.000000e+00
  -1.212769e-01  -1.774508e-01   0.000000e+00
   4.082978e-02   2.831388e-02   0.000000e+00
   2.323323e-01  -1.043349e-01   0.000000e+00
   1.025805e-01   1.432730e-02   0.000000e+00
  -1.183097e-01   1.242105e-02   0.000000e+00
  -7.108152e-02  -6.742840e-02   0.000000e+00
  -6.523560e-02   2.783838e-02   0.000000e+00
  -3.528359e-02  -1.133325e-01   0.000000e+00
   0.000000e+00   0.000000e+00   0.000000e+00
  -1.076214e-02   1.732566e-02   0.000000e+00
  -4.884928e-02   6.072879e-03   0.000000e+00
  -2.323137e-02   6.008443e-02   0.000000e+00
  -4.215473e-03   1.670512e-02   0.000000e+00
   0.000000e+00   0.000000e+00   0.000000e+00
  -1.539238e-02  -3.847403e-03   0.000000e+00
  -1.300793e-01   9.009307e-03   0.000000e+00
   9.697467e-02   9.050155e-02   0.000000e+00
   2.473176e-01   2.625866e-01   0.000000e+00
   5.559821e-02  -1.601539e-01   0.000000e+00
  -1.533539e-01  -2.041273e-01   0.000000e+00
   0.000000e+00   0.000000e+00   0.000000e+00
   4.099857e-02   6.799227e-02   0.000000e+00
  -1.731550e-01  -2.826423e-01   0.000000e+00
   4.303863e-02   1.360555e-01   0.000000e+00
  -3.917144e-02  -9.432267e-02   0.000000e+00
  -1.150078e-02  -6.598843e-03   0.000000e+00
  -8.659716e-02   1.760073e-02   0.000000e+00
  -7.151566e-02  -4.394747e-02   0.000000e+00
  -9.080033e-02   2.051277e-01   0.000000e+00
   9.512268e-02  -2.325607e-02   0.000000e+00
VECTORS Imag_Arrow_2.511800e+01(Hz) float
  -1.356428e-02   5.503900e-03   0.000000e+00
   1.426641e-02  -5.759183e-02   0.000000e+00
   0.000000e+00   0.000000e+00   0.000000e+00
  -3.490360e-02  -1.662876e-01   0.000000e+00
  -6.326530e-02   9.679471e-03   0.000000e+00
  -4.280123e-02  -2.155018e-02   0.000000e+00
   1.052708e-02  -5.750574e-02   0.000000e+00
  -3.975621e-02   1.695496e-02   0.000000e+00
   3.644837e-02   1.203787e-03   0.000000e+00
  -1.323612e-01  -3.138997e-02   0.000000e+00
  -5.925553e-02   3.475401e-02   0.000000e+00
  -7.209738e-02   9.146915e-03   0.000000e+00
   0.000000e+00   0.000000e+00   0.000000e+00
  -1.817710e-01  -9.592865e-02   0.000000e+00
  -6.711129e-02  -2.258566e-03   0.000000e+00
  -1.402260e-01  -5.374710e-03   0.000000e+00
   4.907147e-02   1.052138e-01   0.000000e+00
   1.343735e-04  -1.698495e-02   0.000000e+00
  -1.555409e-01   7.498550e-02   0.000000e+00
  -6.876993e-02  -6.220087e-03   0.000000e+00
  -8.724169e-03  -3.372278e-02   0.000000e+00
  -9.660921e-02   4.549797e-03   0.000000e+00
  -9.743718e-03  -1.590559e-02   0.000000e+00
  -9.797172e-02   9.942372e-03   0.000000e+00
   0.000000e+00   0.000000e+00   0.000000e+00
  -6.645869e-02   4.323180e-02   0.000000e+00
  -9.482674e-02  -1.306909e-01   0.000000e+00
  -5.964882e-02  -1.023654e-01   0.000000e+00
  -4.631811e-02   9.148976e-04   0.000000e+00
   0.000000e+00   0.000000e+00   0.000000e+00
  -6.163941e-02   1.648989e-02   0.000000e+00
  -1.047016e-01   2.497962e-03   0.000000e+00
   4.063227e-02  -7.183406e-03   0.000000e+00
   2.565959e-02  -3.706504e-02   0.000000e+00
  -3.503543e-02   2.873189e-02   0.000000e+00
  -2.078808e-01   6.726366e-03   0.000000e+00
   0.000000e+00   0.000000e+00   0.000000e+00
  -6.748831e-02  -2.498490e-03   0.000000e+00
  -5.583518e-02  -2.090950e-01   0.000000e+00
  -8.097305e-02   1.988695e-01   0.000000e+00
  -1.114744e-02   6.108678e-02   0.000000e+00
  -3.870310e-02   2.403629e-03   0.000000e+00
   7.092249e-02   5.383149e-02   0.000000e+00
  -1.495927e-01  -1.916825e-02   0.000000e+00
  -8.289364e-02  -1.703802e-01   0.000000e+00
   3.478835e-02  -1.208172e-01   0.000000e+00
VECTORS Real_Arrow_3.981000e+01(Hz) float
  -3.295492e-02  -1.245880e-01   0.000000e+00
  -1.066400e-01   1.373782e-01   0.000000e+00
  -4.660182e-02   9.627555e-02   0.000000e+00
   4.927306e-02  -2.840817e-01   0.000000e+00
  -3.358700e-02  -1.416198e-01   0.000000e+00
  -5.376123e-03   2.547822e-02   0.000000e+00
   7.699232e-02  -9.210782e-02   0.000000e+00
   0.000000e+00   0.000000e+00   0.000000e+00
   2.582773e-01  -2.037718e-01   0.000000e+00
   5.989355e-02  -4.348338e-02   0.000000e+00
  -9.859444e-02   8.871681e-03   0.000000e+00
  -6.524674e-02   2.977976e-02   0.000000e+00
   0.000000e+00   0.000000e+00   0.000000e+00
  -1.030026e-01   9.935692e-02   0.000000e+00
   7.528071e-02   2.422935e-02   0.000000e+00
   7.697409e-02   3.682094e-02   0.000000e+00
  -1.318357e-01  -2.201522e-01   0.000000e+00
   3.307646e-02   4.432447e-02   0.000000e+00
   0.000000e+00   0.000000e+00   0.000000e+00
   1.148633e-01   2.087087e-02   0.000000e+00
  -1.151736e-01   2.291643e-02   0.000000e+00
  -3.540825e-02  -7.213475e-02   0.000000e+00
  -6.418232e-02   4.371578e-02   0.000000e+00
  -7.851338e-03  -1.205215e-01   0.000000e+00
   0.000000e+00   0.000000e+00   0.000000e+00
   5.237106e-03  -1.485990e-02   0.000000e+00
  -7.736496e-03   5.252520e-02   0.000000e+00
   5.220637e-03   9.187078e-02   0.000000e+00
   0.000000e+00   0.000000e+00   0.000000e+00
   1.190602e-01  -1.173660e-01   0.000000e+00
   4.458560e-03  -1.765497e-02   0.000000e+00
  -9.285110e-02  -2.226811e-03   0.000000e+00
   0.000000e+00   0.000000e+00   0.000000e+00
   2.144873e-01   2.603058e-01   0.000000e+00
   6.421682e-02  -1.776167e-01   0.000000e+00
  -5.765197e-02  -2.054601e-01   0.000000e+00
   0.000000e+00   0.000000e+00   0.000000e+00
   5.482846e-02   6.718317e-02   0.000000e+00
  -1.519109e-01  -1.853854e-01   0.000000e+00
   5.984474e-02   5.755370e-02   0.000000e+00
  -3.993795e-02  -1.063154e-01   0.000000e+00
  -1.587151e-02  -1.588962e-03   0.000000e+00
  -1.153676e-01  -1.261123e-02   0.000000e+00
  -1.205274e-02  -3.916932e-02   0.000000e+00
  -5.291703e-02   2.647476e-01   0.000000e+00
   7.485557e-02   1.733500e-02   0.000000e+00
VECTORS Imag_Arrow_3.981000e+01(Hz) float
   9.605641e-03  -1.839831e-02   0.000000e+00
   3.859864e-02  -6.990621e-02   0.000000e+00
   3.064357e-02  -4.474161e-02   0.000000e+00
  -2.262689e-02  -1.671145e-01   0.000000e+00
  -4.761178e-02  -1.347157e-02   0.000000e+00
  -4.665566e-02  -1.776638e-03   0.000000e+00
   1.910856e-02  -7.331197e-02   0.000000e+00
   0.000000e+00   0.000000e+00   0.000000e+00
   8.396883e-02  -7.804747e-03   0.000000e+00
  -1.018863e-01  -3.599661e-02   0.000000e+00
  -6.419714e-02   2.670165e-02   0.000000e+00
  -5.009254e-02   1.595635e-02   0.000000e+00
   0.000000e+00   0.000000e+00   0.000000e+00
  -2.026093e-01  -6.564735e-02   0.000000e+00
  -2.891983e-02  -1.009264e-02   0.000000e+00
  -1.268681e-01   1.153704e-02   0.000000e+00
   3.821768e-02   9.522843e-02   0.000000e+00
   1.370329e-02  -3.644078e-02   0.000000e+00
   0.000000e+00   0.000000e+00   0.000000e+00
  -3.012229e-02  -1.388161e-02   0.000000e+00
  -1.383003e-02  -3.207730e-02   0.000000e+00
  -8.013809e-02  -3.443562e-03   0.000000e+00
  -5.516009e-03  -4.035925e-02   0.000000e+00
  -8.615140e-02   1.256604e-02   0.000000e+00
   0.000000e+00   0.000000e+00   0.000000e+00
  -3.510223e-02   5.682085e-02   0.000000e+00
  -1.015275e-01  -1.120249e-01   0.000000e+00
  -5.955758e-02  -8.112469e-02   0.000000e+00
   0.000000e+00   0.000000e+00   0.000000e+00
  -3.248295e-02   3.734879e-02   0.000000e+00
  -5.520486e-02   2.200110e-02   0.000000e+00
  -1.030073e-01   1.292342e-02   0.000000e+00
   0.000000e+00   0.000000e+00   0.000000e+00
   8.357410e-02   3.453660e-02   0.000000e+00
  -1.773326e-02   3.880689e-03   0.000000e+00
  -2.132275e-01  -6.468179e-03   0.000000e+00
   0.000000e+00   0.000000e+00   0.000000e+00
  -1.516484e-02   5.493061e-03   0.000000e+00
  -6.602385e-02  -2.161054e-01   0.000000e+00
  -5.738447e-02   2.022207e-01   0.000000e+00
  -2.228410e-03   5.396412e-02   0.000000e+00
  -1.743336e-02  -4.495982e-03   0.000000e+00
   6.089177e-02   6.121201e-02   0.000000e+00
  -1.406150e-01  -1.998781e-02   0.000000e+00
  -9.124940e-02  -1.385623e-01   0.000000e+00
   5.418813e-02  -1.088427e-01   0.000000e+00
VECTORS Real_Arrow_6.309500e+01(Hz) float
  -5.111513e-02  -1.097721e-01   0.000000e+00
  -1.405012e-01   1.755605e-01   0.000000e+00
  -7.070046e-02   1.220106e-01   0.000000e+00
   4.912815e-02  -2.270008e-01   0.000000e+00
  -2.814084e-02  -1.311540e-01   0.000000e+00
   1.511349e-02   1.798845e-02   0.000000e+00
   6.802791e-02  -6.060032e-02   0.000000e+00
   0.000000e+00   0.000000e+00   0.000000e+00
   0.000000e+00   0.000000e+00   0.000000e+00
   9.017712e-02  -2.999668e-02   0.000000e+00
  -7.258045e-02   5.874738e-03   0.000000e+00
  -5.744253e-02   1.738783e-02   0.000000e+00
   0.000000e+00   0.000000e+00   0.000000e+00
  -2.169577e-02   1.138880e-01   0.000000e+00
   6.869682e-02   3.320965e-02   0.000000e+00
   1.205385e-01   2.623077e-02   0.000000e+00
  -1.398845e-01  -2.545443e-01   0.000000e+00
   2.512904e-02   6.461416e-02   0.000000e+00
   0.000000e+00   0.000000e+00   0.000000e+00
   1.069775e-01   3.094648e-02   0.000000e+00
  -1.082758e-01   3.384168e-02   0.000000e+00
  -7.529102e-03  -6.641090e-02   0.000000e+00
  -6.135842e-02   7.091397e-02   0.000000e+00
   0.000000e+00   0.000000e+00   0.000000e+00
   0.000000e+00   0.000000e+00   0.000000e+00
   4.784318e-03  -4.936129e-02   0.000000e+00
   3.003654e-02   8.627207e-02   0.000000e+00
   2.886011e-02   1.117491e-01   0.000000e+00
   0.000000e+00   0.000000e+00   0.000000e+00
   1.153207e-01  -1.326192e-01   0.000000e+00
   2.326390e-02  -2.770948e-02   0.000000e+00
  -5.818453e-02  -1.541768e-02   0.000000e+00
   7.888089e-02   8.304153e-02   0.000000e+00
   1.607272e-01   2.254458e-01   0.000000e+00
   0.000000e+00   0.000000e+00   0.000000e+00
   2.735644e-02  -2.004509e-01   0.000000e+00
   4.437133e-02   3.081520e-01   0.000000e+00
   0.000000e+00   0.000000e+00   0.000000e+00
  -1.297919e-01  -1.013515e-01   0.000000e+00
   6.494633e-02  -1.965075e-02   0.000000e+00
  -4.038055e-02  -1.192986e-01   0.000000e+00
  -2.506755e-02   6.882925e-03   0.000000e+00
  -1.391817e-01  -3.993602e-02   0.000000e+00
   3.487048e-02  -3.621184e-02   0.000000e+00
  -1.831586e-02   3.065628e-01   0.000000e+00
   4.489886e-02   5.100779e-02   0.000000e+00
VECTORS Imag_Arrow_6.309500e+01(Hz) float
   1.302853e-02  -3.773128e-02   0.000000e+00
   3.315504e-02  -6.182424e-02   0.000000e+00
   3.180864e-02  -3.341374e-02   0.000000e+00
  -1.624143e-02  -1.550149e-01   0.000000e+00
  -4.505336e-02  -3.609639e-02   0.000000e+00
  -4.057327e-02   1.298129e-02   0.000000e+00
   2.723512e-02  -8.425634e-02   0.000000e+00
   0.000000e+00   0.000000e+00   0.000000e+00
   0.000000e+00   0.000000e+00   0.000000e+00
  -5.520626e-02  -3.848174e-02   0.000000e+00
  -5.528579e-02   2.121713e-02   0.000000e+00
  -3.022867e-02   1.614731e-02   0.000000e+00
   0.000000e+00   0.000000e+00   0.000000e+00
  -1.973076e-01  -2.885168e-02   0.000000e+00
   2.546803e-04  -1.345084e-02   0.000000e+00
  -9.389962e-02   2.566941e-02   0.000000e+00
   3.065846e-02   7.380965e-02   0.000000e+00
   2.333610e-02  -4.458751e-02   0.000000e+00
   0.000000e+00   0.000000e+00   0.000000e+00
  -2.549998e-03  -1.407915e-02   0.000000e+00
  -1.660780e-02  -2.731951e-02   0.000000e+00
  -5.458803e-02  -1.337539e-02   0.000000e+00
  -9.446607e-06  -5.114832e-02   0.000000e+00
   0.000000e+00   0.000000e+00   0.000000e+00
   0.000000e+00   0.000000e+00   0.000000e+00
  -9.653101e-03   4.854175e-02   0.000000e+00
  -9.628778e-02  -8.753407e-02   0.000000e+00
  -4.867357e-02  -5.985619e-02   0.000000e+00
   0.000000e+00   0.000000e+00   0.000000e+00
   8.606377e-04   1.516395e-02   0.000000e+00
  -4.525617e-02   2.107121e-02   0.000000e+00
  -9.837170e-02   1.219980e-02   0.000000e+00
   1.733362e-02   8.706653e-03   0.000000e+00
   1.160690e-01   9.471167e-02   0.000000e+00
   0.000000e+00   0.000000e+00   0.000000e+00
  -1.856457e-01  -1.897560e-02   0.000000e+00
  -7.009509e-02   4.170494e-02   0.000000e+00
   0.000000e+00   0.000000e+00   0.000000e+00
  -7.523531e-02  -1.882892e-01   0.000000e+00
  -4.451975e-02   1.865409e-01   0.000000e+00
   5.273853e-03   5.486601e-02   0.000000e+00
  -1.751480e-02  -2.363263e-03   0.000000e+00
   4.224526e-02   5.804904e-02   0.000000e+00
  -1.187509e-01  -2.207149e-02   0.000000e+00
  -8.758398e-02  -9.786403e-02   0.000000e+00
   6.233042e-02  -9.334051e-02   0.000000e+00
