# vtk DataFile Version 2.0
Induction_Arrow_Iter5_PE4
ASCII
DATASET UNSTRUCTURED_GRID
POINTS 46 float
  -2.052000e+03    1.667000e+03   -4.526633e+02
  -1.265000e+03    2.333000e+03   -4.555885e+02
  -9.840000e+02    2.568000e+03   -4.612271e+02
   1.700000e+03   -1.757000e+03   -5.237752e+02
  -1.152000e+03    1.382000e+03   -4.549280e+02
   3.187000e+03    1.067000e+03   -8.370176e+02
   4.716000e+03    9.370000e+02   -8.015281e+02
  -1.855000e+03    5.260000e+02   -5.147377e+02
  -1.420000e+02   -1.905000e+03   -4.746368e+02
  -5.800000e+01    1.069000e+03   -4.555494e+02
  -2.802000e+03    3.302000e+03   -4.314337e+02
  -5.640000e+03   -1.532000e+03   -4.911771e+02
  -8.030000e+02   -5.610000e+02   -5.280929e+02
   1.008000e+03    4.130000e+02   -5.983358e+02
   1.960000e+02    2.246000e+03   -5.219413e+02
  -3.457000e+03    8.320000e+02   -4.470735e+02
   5.640000e+03    2.452000e+03   -7.393049e+02
  -1.334000e+03    3.332000e+03   -4.456136e+02
   1.244000e+03    1.880000e+03   -6.331107e+02
  -2.680000e+02    2.144000e+03   -4.891390e+02
  -4.063000e+03    6.620000e+02   -4.746103e+02
  -1.258000e+03    6.330000e+02   -4.856841e+02
  -2.141000e+03    3.194000e+03   -4.348461e+02
  -3.469000e+03   -3.059000e+03   -6.067613e+02
  -1.604000e+03   -2.570000e+02   -5.141257e+02
  -1.454000e+03    2.220000e+02   -5.386025e+02
   1.864000e+03    1.270000e+02   -7.404291e+02
   2.449000e+03    5.590000e+02   -7.805292e+02
  -1.834000e+03   -1.554000e+03   -6.273074e+02
   1.807000e+03    2.297000e+03   -6.825557e+02
  -2.560000e+03   -1.783000e+03   -6.131337e+02
  -2.741000e+03   -5.010000e+02   -5.080000e+02
   2.884000e+03   -2.179000e+03   -5.274708e+02
  -6.120000e+02   -8.960000e+02   -5.895389e+02
  -1.985000e+03   -2.653000e+03   -5.598834e+02
  -3.390000e+03   -4.000000e+02   -4.982361e+02
   1.586000e+03    1.342000e+03   -6.618442e+02
   1.047000e+03    2.401000e+03   -5.426792e+02
   8.380000e+02   -1.300000e+03   -4.783644e+02
   2.569000e+03    2.441000e+03   -6.035668e+02
  -2.028000e+03    2.833000e+03   -4.322286e+02
  -1.086000e+03    1.998000e+03   -4.563301e+02
   1.514000e+03   -3.332000e+03   -5.646205e+02
   7.040000e+02    1.116000e+03   -5.365099e+02
   1.990000e+03    6.360000e+02   -7.085272e+02
   3.722000e+03   -1.700000e+02   -6.745213e+02
CELLS 46 92
1 0
1 1
1 2
1 3
1 4
1 5
1 6
1 7
1 8
1 9
1 10
1 11
1 12
1 13
1 14
1 15
1 16
1 17
1 18
1 19
1 20
1 21
1 22
1 23
1 24
1 25
1 26
1 27
1 28
1 29
1 30
1 31
1 32
1 33
1 34
1 35
1 36
1 37
1 38
1 39
1 40
1 41
1 42
1 43
1 44
1 45
CELL_TYPES 46
1
1
1
1
1
1
1
1
1
1
1
1
1
1
1
1
1
1
1
1
1
1
1
1
1
1
1
1
1
1
1
1
1
1
1
1
1
1
1
1
1
1
1
1
1
1
POINT_DATA 46
VECTORS Real_Arrow_6.309500e+00(Hz) float
  -1.075741e-01  -7.581456e-02   0.000000e+00
  -1.437133e-01   9.703156e-02   0.000000e+00
   0.000000e+00   0.000000e+00   0.000000e+00
  -1.042080e-02  -4.878348e-01   0.000000e+00
  -1.514915e-01  -8.315983e-02   0.000000e+00
  -5.535069e-02  -3.046652e-02   0.000000e+00
   7.820138e-02  -1.385451e-01   0.000000e+00
  -1.518557e-01   8.268044e-02   0.000000e+00
   2.051167e-01  -1.762617e-01   0.000000e+00
  -1.652204e-01  -6.650119e-02   0.000000e+00
  -1.770283e-01   9.690924e-02   0.000000e+00
  -2.089810e-01   2.605641e-02   0.000000e+00
   0.000000e+00   0.000000e+00   0.000000e+00
  -3.083679e-01  -6.775331e-02   0.000000e+00
  -7.624362e-02   4.478630e-02   0.000000e+00
   0.000000e+00   0.000000e+00   0.000000e+00
  -5.175387e-02  -7.081342e-02   0.000000e+00
   0.000000e+00   0.000000e+00   0.000000e+00
   4.941377e-03  -3.429927e-02   0.000000e+00
  -3.828860e-02   3.795825e-02   0.000000e+00
   0.000000e+00   0.000000e+00   0.000000e+00
  -2.006574e-01  -5.818211e-02   0.000000e+00
  -9.621129e-02   8.512374e-02   0.000000e+00
  -1.678912e-01  -1.195539e-01   0.000000e+00
   0.000000e+00   0.000000e+00   0.000000e+00
  -1.363805e-01   2.045791e-02   0.000000e+00
  -1.239204e-01  -1.437164e-01   0.000000e+00
  -7.532347e-02  -7.113703e-02   0.000000e+00
  -6.963878e-02  -1.015399e-02   0.000000e+00
  -3.058349e-02  -7.459492e-02   0.000000e+00
   0.000000e+00   0.000000e+00   0.000000e+00
  -2.515429e-01  -2.963559e-02   0.000000e+00
   1.769321e-01   8.076185e-02   0.000000e+00
   1.445608e-01   8.685867e-02   0.000000e+00
  -1.471896e-02  -1.007216e-01   0.000000e+00
  -3.154590e-01  -1.847223e-01   0.000000e+00
   0.000000e+00   0.000000e+00   0.000000e+00
  -1.253197e-01   4.679130e-02   0.000000e+00
  -2.065967e-01  -4.167180e-01   0.000000e+00
  -1.003113e-01   3.512306e-01   0.000000e+00
  -8.276849e-02   5.404366e-03   0.000000e+00
  -1.133442e-01   2.520454e-02   0.000000e+00
   2.764410e-03   3.965306e-02   0.000000e+00
  -2.240648e-01  -6.201620e-02   0.000000e+00
  -1.482964e-01  -8.030690e-04   0.000000e+00
   7.677559e-02  -1.531925e-01   0.000000e+00
VECTORS Imag_Arrow_6.309500e+00(Hz) float
  -7.389563e-02   3.116438e-02   0.000000e+00
  -6.917164e-02  -3.331627e-02   0.000000e+00
   0.000000e+00   0.000000e+00   0.000000e+00
  -4.025762e-02  -5.235903e-02   0.000000e+00
  -7.820396e-02   2.842890e-02   0.000000e+00
   1.041259e-02  -5.983467e-02   0.000000e+00
   1.357755e-02  -2.130818e-02   0.000000e+00
  -9.346672e-02  -6.470637e-02   0.000000e+00
  -1.091928e-01  -1.243655e-02   0.000000e+00
  -9.015334e-02  -1.749889e-02   0.000000e+00
  -5.677621e-02   3.530852e-02   0.000000e+00
  -1.376700e-01  -9.809079e-02   0.000000e+00
   0.000000e+00   0.000000e+00   0.000000e+00
  -1.703426e-02  -9.664009e-02   0.000000e+00
  -9.792379e-02  -3.705745e-03   0.000000e+00
   0.000000e+00   0.000000e+00   0.000000e+00
   7.628562e-02   5.612649e-02   0.000000e+00
   0.000000e+00   0.000000e+00   0.000000e+00
  -1.461998e-01   2.126061e-02   0.000000e+00
  -1.136639e-01  -2.606920e-03   0.000000e+00
   0.000000e+00   0.000000e+00   0.000000e+00
  -7.849300e-02  -1.157179e-02   0.000000e+00
  -5.751658e-02   1.974210e-02   0.000000e+00
  -8.690982e-02  -2.574139e-03   0.000000e+00
   0.000000e+00   0.000000e+00   0.000000e+00
  -8.759273e-02  -4.152844e-02   0.000000e+00
  -1.746207e-02  -9.863281e-02   0.000000e+00
  -8.797473e-03  -1.025834e-01   0.000000e+00
  -6.592628e-02  -5.230575e-02   0.000000e+00
  -8.305713e-02  -2.846764e-03   0.000000e+00
   0.000000e+00   0.000000e+00   0.000000e+00
  -4.873279e-02  -4.907664e-02   0.000000e+00
  -1.014380e-02  -5.996013e-02   0.000000e+00
  -1.319484e-01  -1.625087e-01   0.000000e+00
  -7.517832e-02   1.779017e-02   0.000000e+00
  -3.579538e-02   1.942146e-02   0.000000e+00
   0.000000e+00   0.000000e+00   0.000000e+00
  -8.368279e-02  -3.651875e-02   0.000000e+00
   1.696050e-03  -4.027476e-02   0.000000e+00
  -9.912546e-02   8.698205e-02   0.000000e+00
  -5.995182e-02   6.443272e-02   0.000000e+00
  -8.834480e-02   6.769687e-04   0.000000e+00
   3.342589e-02  -3.525075e-02   0.000000e+00
  -6.670045e-02  -1.639107e-02   0.000000e+00
  -2.619191e-03  -1.567627e-01   0.000000e+00
  -1.001704e-02  -8.754801e-02   0.000000e+00
VECTORS Real_Arrow_1.000000e+01(Hz) float
  -6.779613e-02  -9.680049e-02   0.000000e+00
  -1.037599e-01   9.395161e-02   0.000000e+00
   0.000000e+00   0.000000e+00   0.000000e+00
   9.260197e-03  -4.606241e-01   0.000000e+00
  -1.114272e-01  -1.031466e-01   0.000000e+00
  -5.778186e-02  -8.346930e-03   0.000000e+00
   7.538819e-02  -1.353035e-01   0.000000e+00
  -9.916799e-02   1.077703e-01   0.000000e+00
   2.547090e-01  -1.688509e-01   0.000000e+00
  -1.225518e-01  -6.713771e-02   0.000000e+00
  -1.581456e-01   6.792285e-02   0.000000e+00
  -1.413503e-01   6.454124e-02   0.000000e+00
   0.000000e+00   0.000000e+00   0.000000e+00
  -2.995127e-01  -2.928984e-02   0.000000e+00
   0.000000e+00   0.000000e+00   0.000000e+00
  -9.138420e-02   2.667677e-02   0.000000e+00
  -8.128110e-02  -9.732914e-02   0.000000e+00
   3.122108e-02   5.099776e-02   0.000000e+00
   7.141701e-02  -4.684721e-02   0.000000e+00
   1.446706e-02   2.588004e-02   0.000000e+00
   0.000000e+00   0.000000e+00   0.000000e+00
  -1.599633e-01  -5.752578e-02   0.000000e+00
  -7.380367e-02   5.760490e-02   0.000000e+00
  -1.172480e-01  -1.156131e-01   0.000000e+00
   0.000000e+00   0.000000e+00   0.000000e+00
  -8.899792e-02   3.800029e-02   0.000000e+00
  -1.147571e-01  -1.039402e-01   0.000000e+00
  -6.908750e-02  -3.081170e-02   0.000000e+00
  -3.496389e-02   1.393361e-02   0.000000e+00
   0.000000e+00   0.000000e+00   0.000000e+00
   0.000000e+00   0.000000e+00   0.000000e+00
  -2.222715e-01  -2.274866e-03   0.000000e+00
   1.598496e-01   8.892530e-02   0.000000e+00
   2.118637e-01   1.608678e-01   0.000000e+00
   2.376098e-02  -1.094990e-01   0.000000e+00
  -2.998954e-01  -1.840417e-01   0.000000e+00
   0.000000e+00   0.000000e+00   0.000000e+00
  -7.679113e-02   5.672052e-02   0.000000e+00
  -2.010232e-01  -4.023211e-01   0.000000e+00
  -4.514639e-02   2.848629e-01   0.000000e+00
  -5.785839e-02  -3.347708e-02   0.000000e+00
  -6.846196e-02   1.332787e-02   0.000000e+00
  -1.849490e-02   5.271491e-02   0.000000e+00
  -1.905479e-01  -6.299613e-02   0.000000e+00
  -1.445909e-01   5.958113e-02   0.000000e+00
   8.975650e-02  -1.161888e-01   0.000000e+00
VECTORS Imag_Arrow_1.000000e+01(Hz) float
  -7.217984e-02   3.610527e-02   0.000000e+00
  -6.027831e-02  -2.727524e-02   0.000000e+00
   0.000000e+00   0.000000e+00   0.000000e+00
  -4.485293e-02  -1.008888e-01   0.000000e+00
  -9.064810e-02   3.521193e-02   0.000000e+00
  -8.918709e-03  -5.318555e-02   0.000000e+00
   8.594844e-03  -2.930875e-02   0.000000e+00
  -9.992524e-02  -3.609121e-02   0.000000e+00
  -7.487342e-02  -6.101538e-03   0.000000e+00
  -1.212700e-01  -1.673176e-02   0.000000e+00
  -5.484344e-02   5.170726e-02   0.000000e+00
  -1.252100e-01  -5.062238e-02   0.000000e+00
   0.000000e+00   0.000000e+00   0.000000e+00
  -7.797357e-02  -1.097139e-01   0.000000e+00
   0.000000e+00   0.000000e+00   0.000000e+00
  -1.205952e-01  -4.018782e-02   0.000000e+00
   7.267801e-02   8.232526e-02   0.000000e+00
  -4.858226e-02   3.013514e-02   0.000000e+00
  -1.745020e-01   4.604374e-02   0.000000e+00
  -1.187948e-01   8.271037e-03   0.000000e+00
   0.000000e+00   0.000000e+00   0.000000e+00
  -1.012471e-01  -9.604041e-04   0.000000e+00
  -4.079076e-02   2.941701e-02   0.000000e+00
  -1.123042e-01  -1.089745e-03   0.000000e+00
   0.000000e+00   0.000000e+00   0.000000e+00
  -1.007618e-01  -1.448568e-02   0.000000e+00
  -4.723849e-02  -1.223232e-01   0.000000e+00
  -2.986665e-02  -1.147477e-01   0.000000e+00
  -6.932382e-02  -3.957438e-02   0.000000e+00
   0.000000e+00   0.000000e+00   0.000000e+00
   0.000000e+00   0.000000e+00   0.000000e+00
  -8.612124e-02  -4.278527e-02   0.000000e+00
   3.410786e-02  -3.192723e-02   0.000000e+00
  -1.050712e-01  -1.492743e-01   0.000000e+00
  -7.180592e-02   3.341738e-02   0.000000e+00
  -1.022960e-01   1.358307e-02   0.000000e+00
   0.000000e+00   0.000000e+00   0.000000e+00
  -1.053325e-01  -2.847774e-02   0.000000e+00
  -2.208235e-02  -9.882632e-02   0.000000e+00
  -1.157074e-01   1.546033e-01   0.000000e+00
  -4.697544e-02   8.103502e-02   0.000000e+00
  -9.002195e-02   1.317837e-02   0.000000e+00
   6.100990e-02  -4.530583e-03   0.000000e+00
  -1.102417e-01  -1.319968e-02   0.000000e+00
  -3.226543e-02  -1.786013e-01   0.000000e+00
  -7.226290e-03  -1.104237e-01   0.000000e+00
VECTORS Real_Arrow_1.584800e+01(Hz) float
  -3.532166e-02  -1.186323e-01   0.000000e+00
  -7.571848e-02   9.278869e-02   0.000000e+00
   0.000000e+00   0.000000e+00   0.000000e+00
   2.960082e-02  -4.115679e-01   0.000000e+00
  -7.075259e-02  -1.240975e-01   0.000000e+00
  -4.939670e-02   1.129062e-02   0.000000e+00
   7.736743e-02  -1.281084e-01   0.000000e+00
  -5.209388e-02   1.128402e-01   0.000000e+00
   2.800847e-01  -1.690287e-01   0.000000e+00
  -6.615648e-02  -6.493666e-02   0.000000e+00
  -1.449157e-01   4.102311e-02   0.000000e+00
   0.000000e+00   0.000000e+00   0.000000e+00
   0.000000e+00   0.000000e+00   0.000000e+00
  -2.603673e-01   1.726994e-02   0.000000e+00
   0.000000e+00   0.000000e+00   0.000000e+00
  -4.014745e-02   4.094676e-02   0.000000e+00
  -1.052699e-01  -1.353691e-01   0.000000e+00
   4.225334e-02   2.732715e-02   0.000000e+00
   1.492636e-01  -7.217074e-02   0.000000e+00
   6.620943e-02   1.393498e-02   0.000000e+00
  -1.212369e-01   1.809749e-02   0.000000e+00
  -1.136329e-01  -6.363555e-02   0.000000e+00
  -6.607205e-02   3.382060e-02   0.000000e+00
  -6.446949e-02  -1.146875e-01   0.000000e+00
   0.000000e+00   0.000000e+00   0.000000e+00
  -4.077295e-02   3.796521e-02   0.000000e+00
  -9.180915e-02  -5.226373e-02   0.000000e+00
  -5.247260e-02   1.531328e-02   0.000000e+00
  -7.437455e-03   2.556861e-02   0.000000e+00
   0.000000e+00   0.000000e+00   0.000000e+00
   0.000000e+00   0.000000e+00   0.000000e+00
  -1.782519e-01   1.485798e-02   0.000000e+00
   1.236737e-01   8.790841e-02   0.000000e+00
   2.565361e-01   2.237628e-01   0.000000e+00
   5.207832e-02  -1.326424e-01   0.000000e+00
  -2.484174e-01  -1.880199e-01   0.000000e+00
   0.000000e+00   0.000000e+00   0.000000e+00
  -1.896025e-02   6.523104e-02   0.000000e+00
  -1.868750e-01  -3.557961e-01   0.000000e+00
   7.263643e-03   2.083779e-01   0.000000e+00
  -4.490387e-02  -7.034972e-02   0.000000e+00
  -2.943223e-02  -4.246342e-05   0.000000e+00
  -5.134983e-02   4.672056e-02   0.000000e+00
  -1.373249e-01  -6.292196e-02   0.000000e+00
  -1.265805e-01   1.313568e-01   0.000000e+00
   9.903068e-02  -6.946757e-02   0.000000e+00
VECTORS Imag_Arrow_1.584800e+01(Hz) float
  -5.045786e-02   2.711265e-02   0.000000e+00
  -2.984391e-02  -3.782389e-02   0.000000e+00
   0.000000e+00   0.000000e+00   0.000000e+00
  -4.267108e-02  -1.388817e-01   0.000000e+00
  -8.593872e-02   2.874380e-02   0.000000e+00
  -2.855739e-02  -4.131117e-02   0.000000e+00
   6.078539e-03  -4.178889e-02   0.000000e+00
  -7.877873e-02  -1.614962e-03   0.000000e+00
  -2.205237e-02   4.380934e-03   0.000000e+00
  -1.389937e-01  -2.310258e-02   0.000000e+00
  -5.788882e-02   4.907076e-02   0.000000e+00
   0.000000e+00   0.000000e+00   0.000000e+00
   0.000000e+00   0.000000e+00   0.000000e+00
  -1.398140e-01  -1.126700e-01   0.000000e+00
   0.000000e+00   0.000000e+00   0.000000e+00
  -1.407952e-01  -2.126115e-02   0.000000e+00
   6.194393e-02   9.913777e-02   0.000000e+00
  -2.172350e-02   1.244744e-02   0.000000e+00
  -1.794142e-01   6.504258e-02   0.000000e+00
  -1.044098e-01   4.426281e-03   0.000000e+00
  -1.326072e-02  -3.152193e-02   0.000000e+00
  -1.080249e-01   5.774021e-03   0.000000e+00
  -2.300953e-02   1.381910e-02   0.000000e+00
  -1.113762e-01   3.099354e-03   0.000000e+00
   0.000000e+00   0.000000e+00   0.000000e+00
  -9.148971e-02   1.875419e-02   0.000000e+00
  -7.554213e-02  -1.356503e-01   0.000000e+00
  -4.884409e-02  -1.166077e-01   0.000000e+00
  -5.849411e-02  -1.766992e-02   0.000000e+00
   0.000000e+00   0.000000e+00   0.000000e+00
   0.000000e+00   0.000000e+00   0.000000e+00
  -1.083559e-01  -2.200453e-02   0.000000e+00
   4.856068e-02  -1.714251e-02   0.000000e+00
  -4.631399e-02  -1.065933e-01   0.000000e+00
  -5.372106e-02   4.318991e-02   0.000000e+00
  -1.673331e-01   1.328238e-02   0.000000e+00
   0.000000e+00   0.000000e+00   0.000000e+00
  -1.005809e-01  -2.002549e-02   0.000000e+00
  -4.239273e-02  -1.588631e-01   0.000000e+00
  -1.069435e-01   1.862551e-01   0.000000e+00
  -2.972892e-02   7.652533e-02   0.000000e+00
  -7.209970e-02   1.184012e-02   0.000000e+00
   7.312825e-02   2.972497e-02   0.000000e+00
  -1.425433e-01  -1.709994e-02   0.000000e+00
  -6.130989e-02  -1.864278e-01   0.000000e+00
   7.999765e-03  -1.213970e-01   0.000000e+00
