# vtk DataFile Version 2.0
Induction_Arrow_Iter7_PE4
ASCII
DATASET UNSTRUCTURED_GRID
POINTS 46 float
  -2.052000e+03    1.667000e+03   -4.526633e+02
  -1.265000e+03    2.333000e+03   -4.555885e+02
  -9.840000e+02    2.568000e+03   -4.612271e+02
   1.700000e+03   -1.757000e+03   -5.237752e+02
  -1.152000e+03    1.382000e+03   -4.549280e+02
   3.187000e+03    1.067000e+03   -8.370176e+02
   4.716000e+03    9.370000e+02   -8.015281e+02
  -1.855000e+03    5.260000e+02   -5.147377e+02
  -1.420000e+02   -1.905000e+03   -4.746368e+02
  -5.800000e+01    1.069000e+03   -4.555494e+02
  -2.802000e+03    3.302000e+03   -4.314337e+02
  -5.640000e+03   -1.532000e+03   -4.911771e+02
  -8.030000e+02   -5.610000e+02   -5.280929e+02
   1.008000e+03    4.130000e+02   -5.983358e+02
   1.960000e+02    2.246000e+03   -5.219413e+02
  -3.457000e+03    8.320000e+02   -4.470735e+02
   5.640000e+03    2.452000e+03   -7.393049e+02
  -1.334000e+03    3.332000e+03   -4.456136e+02
   1.244000e+03    1.880000e+03   -6.331107e+02
  -2.680000e+02    2.144000e+03   -4.891390e+02
  -4.063000e+03    6.620000e+02   -4.746103e+02
  -1.258000e+03    6.330000e+02   -4.856841e+02
  -2.141000e+03    3.194000e+03   -4.348461e+02
  -3.469000e+03   -3.059000e+03   -6.067613e+02
  -1.604000e+03   -2.570000e+02   -5.141257e+02
  -1.454000e+03    2.220000e+02   -5.386025e+02
   1.864000e+03    1.270000e+02   -7.404291e+02
   2.449000e+03    5.590000e+02   -7.805292e+02
  -1.834000e+03   -1.554000e+03   -6.273074e+02
   1.807000e+03    2.297000e+03   -6.825557e+02
  -2.560000e+03   -1.783000e+03   -6.131337e+02
  -2.741000e+03   -5.010000e+02   -5.080000e+02
   2.884000e+03   -2.179000e+03   -5.274708e+02
  -6.120000e+02   -8.960000e+02   -5.895389e+02
  -1.985000e+03   -2.653000e+03   -5.598834e+02
  -3.390000e+03   -4.000000e+02   -4.982361e+02
   1.586000e+03    1.342000e+03   -6.618442e+02
   1.047000e+03    2.401000e+03   -5.426792e+02
   8.380000e+02   -1.300000e+03   -4.783644e+02
   2.569000e+03    2.441000e+03   -6.035668e+02
  -2.028000e+03    2.833000e+03   -4.322286e+02
  -1.086000e+03    1.998000e+03   -4.563301e+02
   1.514000e+03   -3.332000e+03   -5.646205e+02
   7.040000e+02    1.116000e+03   -5.365099e+02
   1.990000e+03    6.360000e+02   -7.085272e+02
   3.722000e+03   -1.700000e+02   -6.745213e+02
CELLS 46 92
1 0
1 1
1 2
1 3
1 4
1 5
1 6
1 7
1 8
1 9
1 10
1 11
1 12
1 13
1 14
1 15
1 16
1 17
1 18
1 19
1 20
1 21
1 22
1 23
1 24
1 25
1 26
1 27
1 28
1 29
1 30
1 31
1 32
1 33
1 34
1 35
1 36
1 37
1 38
1 39
1 40
1 41
1 42
1 43
1 44
1 45
CELL_TYPES 46
1
1
1
1
1
1
1
1
1
1
1
1
1
1
1
1
1
1
1
1
1
1
1
1
1
1
1
1
1
1
1
1
1
1
1
1
1
1
1
1
1
1
1
1
1
1
POINT_DATA 46
VECTORS Real_Arrow_6.309500e+00(Hz) float
  -1.076774e-01  -7.491338e-02   0.000000e+00
  -1.443337e-01   9.765258e-02   0.000000e+00
   0.000000e+00   0.000000e+00   0.000000e+00
  -9.087869e-03  -4.872555e-01   0.000000e+00
  -1.517056e-01  -8.261101e-02   0.000000e+00
  -5.410731e-02  -3.103455e-02   0.000000e+00
   7.979375e-02  -1.397696e-01   0.000000e+00
  -1.519025e-01   8.399654e-02   0.000000e+00
   2.059843e-01  -1.742796e-01   0.000000e+00
  -1.650340e-01  -6.608112e-02   0.000000e+00
  -1.763365e-01   9.759234e-02   0.000000e+00
  -2.093610e-01   2.528237e-02   0.000000e+00
   0.000000e+00   0.000000e+00   0.000000e+00
  -3.085380e-01  -6.756489e-02   0.000000e+00
  -7.672421e-02   4.616421e-02   0.000000e+00
   0.000000e+00   0.000000e+00   0.000000e+00
  -5.120117e-02  -7.354101e-02   0.000000e+00
   0.000000e+00   0.000000e+00   0.000000e+00
   3.832598e-03  -3.344997e-02   0.000000e+00
  -3.835015e-02   3.908870e-02   0.000000e+00
   0.000000e+00   0.000000e+00   0.000000e+00
  -2.009151e-01  -5.803100e-02   0.000000e+00
  -9.618208e-02   8.540391e-02   0.000000e+00
  -1.678738e-01  -1.203824e-01   0.000000e+00
   0.000000e+00   0.000000e+00   0.000000e+00
  -1.362003e-01   2.094801e-02   0.000000e+00
  -1.230086e-01  -1.443798e-01   0.000000e+00
  -7.404260e-02  -7.170828e-02   0.000000e+00
  -7.006544e-02  -1.084344e-02   0.000000e+00
  -3.337476e-02  -8.053273e-02   0.000000e+00
   0.000000e+00   0.000000e+00   0.000000e+00
  -2.539253e-01  -2.982540e-02   0.000000e+00
   1.771324e-01   8.111464e-02   0.000000e+00
   1.444878e-01   8.709453e-02   0.000000e+00
  -1.491021e-02  -1.002943e-01   0.000000e+00
  -3.154753e-01  -1.836593e-01   0.000000e+00
   0.000000e+00   0.000000e+00   0.000000e+00
  -1.283627e-01   4.558609e-02   0.000000e+00
  -2.060212e-01  -4.164131e-01   0.000000e+00
  -9.971549e-02   3.527816e-01   0.000000e+00
  -8.267862e-02   5.790972e-03   0.000000e+00
  -1.139332e-01   2.594174e-02   0.000000e+00
   2.124060e-03   4.007495e-02   0.000000e+00
  -2.247198e-01  -6.178765e-02   0.000000e+00
  -1.472061e-01  -9.829237e-04   0.000000e+00
   7.804324e-02  -1.529277e-01   0.000000e+00
VECTORS Imag_Arrow_6.309500e+00(Hz) float
  -7.382067e-02   3.032579e-02   0.000000e+00
  -6.977058e-02  -3.459562e-02   0.000000e+00
   0.000000e+00   0.000000e+00   0.000000e+00
  -4.032625e-02  -5.240503e-02   0.000000e+00
  -7.820342e-02   2.748484e-02   0.000000e+00
   1.128086e-02  -6.204778e-02   0.000000e+00
   1.228143e-02  -2.330702e-02   0.000000e+00
  -9.319460e-02  -6.509209e-02   0.000000e+00
  -1.079494e-01  -1.141916e-02   0.000000e+00
  -8.978165e-02  -1.863330e-02   0.000000e+00
  -5.859485e-02   3.387632e-02   0.000000e+00
  -1.382619e-01  -9.832861e-02   0.000000e+00
   0.000000e+00   0.000000e+00   0.000000e+00
  -1.603659e-02  -9.864264e-02   0.000000e+00
  -9.840752e-02  -4.036720e-03   0.000000e+00
   0.000000e+00   0.000000e+00   0.000000e+00
   7.679741e-02   5.717461e-02   0.000000e+00
   0.000000e+00   0.000000e+00   0.000000e+00
  -1.466039e-01   2.042819e-02   0.000000e+00
  -1.139151e-01  -3.319197e-03   0.000000e+00
   0.000000e+00   0.000000e+00   0.000000e+00
  -7.805090e-02  -1.213072e-02   0.000000e+00
  -5.908797e-02   1.774617e-02   0.000000e+00
  -8.755487e-02  -2.353644e-03   0.000000e+00
   0.000000e+00   0.000000e+00   0.000000e+00
  -8.712896e-02  -4.195726e-02   0.000000e+00
  -1.678182e-02  -1.004741e-01   0.000000e+00
  -8.174664e-03  -1.046690e-01   0.000000e+00
  -6.618909e-02  -5.265825e-02   0.000000e+00
  -8.422116e-02  -5.746179e-03   0.000000e+00
   0.000000e+00   0.000000e+00   0.000000e+00
  -4.901027e-02  -4.944861e-02   0.000000e+00
  -9.888805e-03  -5.990672e-02   0.000000e+00
  -1.324939e-01  -1.627708e-01   0.000000e+00
  -7.562286e-02   1.744564e-02   0.000000e+00
  -3.543764e-02   1.952623e-02   0.000000e+00
   0.000000e+00   0.000000e+00   0.000000e+00
  -8.399475e-02  -3.691598e-02   0.000000e+00
   2.374997e-03  -4.114446e-02   0.000000e+00
  -9.511907e-02   8.720724e-02   0.000000e+00
  -6.094478e-02   6.293300e-02   0.000000e+00
  -8.862670e-02  -5.771563e-04   0.000000e+00
   3.326454e-02  -3.537157e-02   0.000000e+00
  -6.654381e-02  -1.734607e-02   0.000000e+00
  -1.574233e-03  -1.589091e-01   0.000000e+00
  -1.113253e-02  -8.941179e-02   0.000000e+00
VECTORS Real_Arrow_1.000000e+01(Hz) float
  -6.782926e-02  -9.585752e-02   0.000000e+00
  -1.038565e-01   9.484877e-02   0.000000e+00
   0.000000e+00   0.000000e+00   0.000000e+00
   1.005309e-02  -4.602808e-01   0.000000e+00
  -1.115683e-01  -1.025284e-01   0.000000e+00
  -5.752844e-02  -8.020140e-03   0.000000e+00
   7.702411e-02  -1.354546e-01   0.000000e+00
  -9.909278e-02   1.089865e-01   0.000000e+00
   2.548239e-01  -1.679919e-01   0.000000e+00
  -1.226106e-01  -6.660687e-02   0.000000e+00
  -1.564427e-01   6.885604e-02   0.000000e+00
  -1.412343e-01   6.461396e-02   0.000000e+00
   0.000000e+00   0.000000e+00   0.000000e+00
  -3.002670e-01  -2.843672e-02   0.000000e+00
   0.000000e+00   0.000000e+00   0.000000e+00
  -9.103812e-02   2.737126e-02   0.000000e+00
  -8.119134e-02  -9.979534e-02   0.000000e+00
   3.211637e-02   5.153546e-02   0.000000e+00
   7.081554e-02  -4.567286e-02   0.000000e+00
   1.460674e-02   2.696791e-02   0.000000e+00
   0.000000e+00   0.000000e+00   0.000000e+00
  -1.603103e-01  -5.744820e-02   0.000000e+00
  -7.285759e-02   5.856676e-02   0.000000e+00
  -1.166711e-01  -1.165907e-01   0.000000e+00
   0.000000e+00   0.000000e+00   0.000000e+00
  -8.883683e-02   3.840339e-02   0.000000e+00
  -1.146072e-01  -1.039661e-01   0.000000e+00
  -6.862345e-02  -3.064018e-02   0.000000e+00
  -3.496866e-02   1.316068e-02   0.000000e+00
   0.000000e+00   0.000000e+00   0.000000e+00
   0.000000e+00   0.000000e+00   0.000000e+00
  -2.242104e-01  -2.326594e-03   0.000000e+00
   1.595609e-01   8.914284e-02   0.000000e+00
   2.121913e-01   1.607204e-01   0.000000e+00
   2.410908e-02  -1.091237e-01   0.000000e+00
  -2.999119e-01  -1.831646e-01   0.000000e+00
   0.000000e+00   0.000000e+00   0.000000e+00
  -7.898520e-02   5.581803e-02   0.000000e+00
  -2.010675e-01  -4.019749e-01   0.000000e+00
  -4.687207e-02   2.850543e-01   0.000000e+00
  -5.728050e-02  -3.267538e-02   0.000000e+00
  -6.875807e-02   1.430634e-02   0.000000e+00
  -1.890159e-02   5.308628e-02   0.000000e+00
  -1.912102e-01  -6.272760e-02   0.000000e+00
  -1.444375e-01   6.011391e-02   0.000000e+00
   9.074426e-02  -1.153711e-01   0.000000e+00
VECTORS Imag_Arrow_1.000000e+01(Hz) float
  -7.195426e-02   3.627798e-02   0.000000e+00
  -6.079347e-02  -2.760177e-02   0.000000e+00
   0.000000e+00   0.000000e+00   0.000000e+00
  -4.451091e-02  -1.003848e-01   0.000000e+00
  -9.063490e-02   3.520543e-02   0.000000e+00
  -7.651963e-03  -5.487816e-02   0.000000e+00
   8.222505e-03  -3.105956e-02   0.000000e+00
  -9.986824e-02  -3.582299e-02   0.000000e+00
  -7.328213e-02  -4.521974e-03   0.000000e+00
  -1.206137e-01  -1.682245e-02   0.000000e+00
  -5.520911e-02   5.143897e-02   0.000000e+00
  -1.260244e-01  -5.153969e-02   0.000000e+00
   0.000000e+00   0.000000e+00   0.000000e+00
  -7.722979e-02  -1.107730e-01   0.000000e+00
   0.000000e+00   0.000000e+00   0.000000e+00
  -1.207146e-01  -4.014930e-02   0.000000e+00
   7.336233e-02   8.202419e-02   0.000000e+00
  -4.873370e-02   2.938568e-02   0.000000e+00
  -1.753185e-01   4.550572e-02   0.000000e+00
  -1.189507e-01   8.507625e-03   0.000000e+00
   0.000000e+00   0.000000e+00   0.000000e+00
  -1.010170e-01  -9.844315e-04   0.000000e+00
  -4.126607e-02   2.854611e-02   0.000000e+00
  -1.130585e-01  -1.440511e-03   0.000000e+00
   0.000000e+00   0.000000e+00   0.000000e+00
  -1.004980e-01  -1.443999e-02   0.000000e+00
  -4.633258e-02  -1.234062e-01   0.000000e+00
  -2.891444e-02  -1.161563e-01   0.000000e+00
  -6.970751e-02  -3.981307e-02   0.000000e+00
   0.000000e+00   0.000000e+00   0.000000e+00
   0.000000e+00   0.000000e+00   0.000000e+00
  -8.723431e-02  -4.343654e-02   0.000000e+00
   3.422175e-02  -3.158898e-02   0.000000e+00
  -1.061194e-01  -1.490781e-01   0.000000e+00
  -7.218306e-02   3.335456e-02   0.000000e+00
  -1.019826e-01   1.353585e-02   0.000000e+00
   0.000000e+00   0.000000e+00   0.000000e+00
  -1.067306e-01  -2.948244e-02   0.000000e+00
  -2.159016e-02  -9.893175e-02   0.000000e+00
  -1.132869e-01   1.552458e-01   0.000000e+00
  -4.705238e-02   8.075207e-02   0.000000e+00
  -9.025731e-02   1.292593e-02   0.000000e+00
   6.048514e-02  -4.928423e-03   0.000000e+00
  -1.102728e-01  -1.322376e-02   0.000000e+00
  -3.106647e-02  -1.798472e-01   0.000000e+00
  -7.428240e-03  -1.111957e-01   0.000000e+00
VECTORS Real_Arrow_1.584800e+01(Hz) float
  -3.558126e-02  -1.182740e-01   0.000000e+00
  -7.568194e-02   9.336227e-02   0.000000e+00
   0.000000e+00   0.000000e+00   0.000000e+00
   3.007032e-02  -4.117330e-01   0.000000e+00
  -7.095642e-02  -1.239841e-01   0.000000e+00
  -4.984546e-02   1.209588e-02   0.000000e+00
   7.881737e-02  -1.275466e-01   0.000000e+00
  -5.193529e-02   1.137299e-01   0.000000e+00
   2.793767e-01  -1.692472e-01   0.000000e+00
  -6.673040e-02  -6.494619e-02   0.000000e+00
  -1.437812e-01   4.147470e-02   0.000000e+00
   0.000000e+00   0.000000e+00   0.000000e+00
   0.000000e+00   0.000000e+00   0.000000e+00
  -2.613481e-01   1.811598e-02   0.000000e+00
   0.000000e+00   0.000000e+00   0.000000e+00
  -3.961525e-02   4.141153e-02   0.000000e+00
  -1.056885e-01  -1.369907e-01   0.000000e+00
   4.261226e-02   2.768246e-02   0.000000e+00
   1.492892e-01  -7.077856e-02   0.000000e+00
   6.637042e-02   1.445242e-02   0.000000e+00
  -1.213441e-01   1.869845e-02   0.000000e+00
  -1.140264e-01  -6.384363e-02   0.000000e+00
  -6.559677e-02   3.454345e-02   0.000000e+00
  -6.340222e-02  -1.152835e-01   0.000000e+00
   0.000000e+00   0.000000e+00   0.000000e+00
  -4.060985e-02   3.815174e-02   0.000000e+00
  -9.212648e-02  -5.222541e-02   0.000000e+00
  -5.253875e-02   1.573382e-02   0.000000e+00
  -7.174372e-03   2.476800e-02   0.000000e+00
   0.000000e+00   0.000000e+00   0.000000e+00
   0.000000e+00   0.000000e+00   0.000000e+00
  -1.794197e-01   1.527576e-02   0.000000e+00
   1.233947e-01   8.766737e-02   0.000000e+00
   2.576139e-01   2.231391e-01   0.000000e+00
   5.257280e-02  -1.323868e-01   0.000000e+00
  -2.486665e-01  -1.869992e-01   0.000000e+00
   0.000000e+00   0.000000e+00   0.000000e+00
  -1.986754e-02   6.531857e-02   0.000000e+00
  -1.870415e-01  -3.558944e-01   0.000000e+00
   5.286738e-03   2.082214e-01   0.000000e+00
  -4.490579e-02  -7.004182e-02   0.000000e+00
  -2.970595e-02   5.219994e-04   0.000000e+00
  -5.135602e-02   4.758421e-02   0.000000e+00
  -1.379134e-01  -6.318279e-02   0.000000e+00
  -1.269606e-01   1.319799e-01   0.000000e+00
   9.966585e-02  -6.883665e-02   0.000000e+00
VECTORS Imag_Arrow_1.584800e+01(Hz) float
  -5.020357e-02   2.776079e-02   0.000000e+00
  -3.014750e-02  -3.761179e-02   0.000000e+00
   0.000000e+00   0.000000e+00   0.000000e+00
  -4.247404e-02  -1.381709e-01   0.000000e+00
  -8.603172e-02   2.910755e-02   0.000000e+00
  -2.766158e-02  -4.250384e-02   0.000000e+00
   6.227736e-03  -4.295171e-02   0.000000e+00
  -7.876131e-02  -9.770058e-04   0.000000e+00
  -2.065848e-02   5.550950e-03   0.000000e+00
  -1.383876e-01  -2.278221e-02   0.000000e+00
  -5.684478e-02   4.923030e-02   0.000000e+00
   0.000000e+00   0.000000e+00   0.000000e+00
   0.000000e+00   0.000000e+00   0.000000e+00
  -1.395230e-01  -1.130365e-01   0.000000e+00
   0.000000e+00   0.000000e+00   0.000000e+00
  -1.405281e-01  -2.081332e-02   0.000000e+00
   6.214819e-02   9.809251e-02   0.000000e+00
  -2.103582e-02   1.246113e-02   0.000000e+00
  -1.802049e-01   6.478344e-02   0.000000e+00
  -1.045204e-01   5.069110e-03   0.000000e+00
  -1.456056e-02  -3.167370e-02   0.000000e+00
  -1.080290e-01   5.865358e-03   0.000000e+00
  -2.249892e-02   1.368335e-02   0.000000e+00
  -1.118616e-01   2.426133e-03   0.000000e+00
   0.000000e+00   0.000000e+00   0.000000e+00
  -9.131433e-02   1.896829e-02   0.000000e+00
  -7.493170e-02  -1.361921e-01   0.000000e+00
  -4.817803e-02  -1.175068e-01   0.000000e+00
  -5.865668e-02  -1.793845e-02   0.000000e+00
   0.000000e+00   0.000000e+00   0.000000e+00
   0.000000e+00   0.000000e+00   0.000000e+00
  -1.098516e-01  -2.270166e-02   0.000000e+00
   4.856194e-02  -1.665474e-02   0.000000e+00
  -4.764434e-02  -1.066269e-01   0.000000e+00
  -5.368120e-02   4.336406e-02   0.000000e+00
  -1.669061e-01   1.320445e-02   0.000000e+00
   0.000000e+00   0.000000e+00   0.000000e+00
  -1.020696e-01  -2.135102e-02   0.000000e+00
  -4.241722e-02  -1.586904e-01   0.000000e+00
  -1.066500e-01   1.864511e-01   0.000000e+00
  -2.928048e-02   7.696501e-02   0.000000e+00
  -7.230333e-02   1.210881e-02   0.000000e+00
   7.268076e-02   2.927380e-02   0.000000e+00
  -1.427651e-01  -1.682865e-02   0.000000e+00
  -6.053512e-02  -1.870175e-01   0.000000e+00
   8.051198e-03  -1.213216e-01   0.000000e+00
